<svg id="Layer_1" data-name="Layer 1" xmlns="http://www.w3.org/2000/svg" xmlns:xlink="http://www.w3.org/1999/xlink" viewBox="0 0 149.88 155.32"><defs><style>.cls-1,.cls-2,.cls-3,.cls-4,.cls-5{fill:none;stroke-miterlimit:10;}.cls-1{stroke:#000;stroke-width:0.1px;}.cls-2,.cls-3,.cls-4,.cls-5{stroke:#666;stroke-width:4.09px;}.cls-3{stroke-dasharray:4.84 4.84;}.cls-4{stroke-dasharray:4.89;}.cls-5{stroke-dasharray:4.15 4.15;}.cls-6{fill:url(#linear-gradient);}.cls-7{fill:url(#linear-gradient-2);}</style><linearGradient id="linear-gradient" x1="128.73" y1="144.74" x2="149.88" y2="144.74" gradientUnits="userSpaceOnUse"><stop offset="0" stop-color="#206fb3"/><stop offset="0.06" stop-color="#1d77b4"/><stop offset="0.29" stop-color="#1592b7"/><stop offset="0.51" stop-color="#0fa5b9"/><stop offset="0.75" stop-color="#0bb0bb"/><stop offset="1" stop-color="#0ab4bb"/></linearGradient><linearGradient id="linear-gradient-2" x1="63.95" y1="11.08" x2="86.1" y2="11.08" xlink:href="#linear-gradient"/></defs><title>Agile</title><path class="cls-1" d="M224.35-15.95" transform="translate(-25.06 -22.34)"/><path class="cls-2" d="M95,169A67.87,67.87,0,0,1,95,33.24" transform="translate(-25.06 -22.34)"/><path class="cls-2" d="M95,33.24c.82,0,1.63,0,2.44,0" transform="translate(-25.06 -22.34)"/><path class="cls-3" d="M102.26,33.62a67.88,67.88,0,0,1-2.44,135.19" transform="translate(-25.06 -22.34)"/><path class="cls-2" d="M97.42,168.94c-.81,0-1.62,0-2.44,0" transform="translate(-25.06 -22.34)"/><line class="cls-2" x1="69.92" y1="146.2" x2="139.3" y2="146.2"/><line class="cls-4" x1="0.54" y1="146.2" x2="69.92" y2="146.2"/><circle class="cls-5" cx="69.92" cy="76.81" r="39.62"/><circle class="cls-6" cx="139.3" cy="144.74" r="10.57"/><circle class="cls-7" cx="75.03" cy="11.08" r="11.08"/></svg>