<svg id="Layer_1" data-name="Layer 1" xmlns="http://www.w3.org/2000/svg" xmlns:xlink="http://www.w3.org/1999/xlink" viewBox="0 0 143 143"><defs><style>.cls-1,.cls-2,.cls-3{fill:none;stroke-miterlimit:10;}.cls-1{stroke:#000;stroke-width:0.1px;}.cls-2,.cls-3{stroke:#666;}.cls-2{stroke-width:4px;}.cls-3{stroke-width:3px;}.cls-4{fill:url(#linear-gradient);}.cls-5{fill:url(#linear-gradient-2);}.cls-6{fill:url(#linear-gradient-3);}.cls-7{fill:url(#linear-gradient-4);}.cls-8{fill:url(#linear-gradient-5);}.cls-9{fill:url(#linear-gradient-6);}.cls-10{fill:url(#linear-gradient-7);}.cls-11{fill:url(#linear-gradient-8);}</style><linearGradient id="linear-gradient" x1="66.22" y1="30.82" x2="76.78" y2="30.82" gradientUnits="userSpaceOnUse"><stop offset="0" stop-color="#206fb3"/><stop offset="0.06" stop-color="#1d77b4"/><stop offset="0.29" stop-color="#1592b7"/><stop offset="0.51" stop-color="#0fa5b9"/><stop offset="0.75" stop-color="#0bb0bb"/><stop offset="1" stop-color="#0ab4bb"/></linearGradient><linearGradient id="linear-gradient-2" x1="66.22" y1="112.18" x2="76.78" y2="112.18" xlink:href="#linear-gradient"/><linearGradient id="linear-gradient-3" x1="94.98" y1="42.73" x2="105.55" y2="42.73" xlink:href="#linear-gradient"/><linearGradient id="linear-gradient-4" x1="37.45" y1="100.27" x2="48.01" y2="100.27" xlink:href="#linear-gradient"/><linearGradient id="linear-gradient-5" x1="106.9" y1="71.5" x2="117.46" y2="71.5" xlink:href="#linear-gradient"/><linearGradient id="linear-gradient-6" x1="25.54" y1="71.5" x2="36.1" y2="71.5" xlink:href="#linear-gradient"/><linearGradient id="linear-gradient-7" x1="94.98" y1="100.27" x2="105.55" y2="100.27" xlink:href="#linear-gradient"/><linearGradient id="linear-gradient-8" x1="37.45" y1="42.73" x2="48.01" y2="42.73" xlink:href="#linear-gradient"/></defs><title>Commitment</title><path class="cls-1" d="M647.05,267.42" transform="translate(-28.5 -28.5)"/><circle class="cls-2" cx="71.5" cy="71.5" r="30"/><circle class="cls-2" cx="71.5" cy="71.5" r="19.44"/><circle class="cls-3" cx="71.5" cy="10.82" r="9.32"/><circle class="cls-3" cx="71.5" cy="132.18" r="9.32"/><circle class="cls-3" cx="114.41" cy="28.59" r="9.32"/><circle class="cls-3" cx="28.59" cy="114.41" r="9.32"/><circle class="cls-3" cx="132.18" cy="71.5" r="9.32"/><circle class="cls-3" cx="10.82" cy="71.5" r="9.32"/><circle class="cls-3" cx="114.41" cy="114.41" r="9.32"/><circle class="cls-3" cx="28.59" cy="28.59" r="9.32"/><circle class="cls-4" cx="71.5" cy="30.82" r="5.28"/><circle class="cls-5" cx="71.5" cy="112.18" r="5.28"/><circle class="cls-6" cx="100.27" cy="42.73" r="5.28"/><circle class="cls-7" cx="42.73" cy="100.27" r="5.28"/><circle class="cls-8" cx="112.18" cy="71.5" r="5.28"/><circle class="cls-9" cx="30.82" cy="71.5" r="5.28"/><circle class="cls-10" cx="100.27" cy="100.27" r="5.28"/><circle class="cls-11" cx="42.73" cy="42.73" r="5.28"/></svg>