<svg id="Layer_1" data-name="Layer 1" xmlns="http://www.w3.org/2000/svg" xmlns:xlink="http://www.w3.org/1999/xlink" viewBox="0 0 123.7 141.29"><defs><style>.cls-1,.cls-2{fill:none;stroke-miterlimit:10;}.cls-1{stroke:#000;stroke-width:0.1px;}.cls-2{stroke:#666;stroke-width:4px;}.cls-3{fill:url(#linear-gradient);}.cls-4{fill:url(#linear-gradient-2);}.cls-5{fill:url(#linear-gradient-3);}.cls-6{fill:url(#linear-gradient-4);}.cls-7{fill:url(#linear-gradient-5);}</style><linearGradient id="linear-gradient" x1="52.44" y1="10.07" x2="72.57" y2="10.07" gradientUnits="userSpaceOnUse"><stop offset="0" stop-color="#206fb3"/><stop offset="0.06" stop-color="#1d77b4"/><stop offset="0.29" stop-color="#1592b7"/><stop offset="0.51" stop-color="#0fa5b9"/><stop offset="0.75" stop-color="#0bb0bb"/><stop offset="1" stop-color="#0ab4bb"/></linearGradient><linearGradient id="linear-gradient-2" x1="103.57" y1="73.59" x2="123.7" y2="73.59" xlink:href="#linear-gradient"/><linearGradient id="linear-gradient-3" x1="78" y1="41" x2="98.14" y2="41" xlink:href="#linear-gradient"/><linearGradient id="linear-gradient-4" x1="26.22" y1="27.64" x2="46.35" y2="27.64" xlink:href="#linear-gradient"/><linearGradient id="linear-gradient-5" x1="0" y1="63.52" x2="20.14" y2="63.52" xlink:href="#linear-gradient"/></defs><title>Deep Tech</title><path class="cls-1" d="M647.05,267.42" transform="translate(-38.15 -29.36)"/><polyline class="cls-2" points="62.51 10.07 62.51 137.11 113.64 95.88 113.64 83.99"/><path class="cls-2" d="M49.91,113" transform="translate(-38.15 -29.36)"/><polyline class="cls-2" points="10.07 73.59 10.07 83.62 62.51 122.48"/><polyline class="cls-2" points="36.29 37.01 36.29 56.45 62.51 76.16"/><polyline class="cls-2" points="88.07 50.3 87.63 68.99 62.51 87.93"/><circle class="cls-3" cx="62.51" cy="10.07" r="10.07"/><circle class="cls-4" cx="113.63" cy="73.59" r="10.07"/><circle class="cls-5" cx="88.07" cy="41" r="10.07"/><circle class="cls-6" cx="36.29" cy="27.64" r="10.07"/><circle class="cls-7" cx="10.07" cy="63.52" r="10.07"/></svg>