<svg id="Layer_1" data-name="Layer 1" xmlns="http://www.w3.org/2000/svg" xmlns:xlink="http://www.w3.org/1999/xlink" viewBox="0 0 145.79 145.5"><defs><style>.cls-1,.cls-2{fill:none;stroke:#666;stroke-miterlimit:10;stroke-width:4px;}.cls-2{stroke-dasharray:2 2;}.cls-3{fill:url(#linear-gradient);}</style><linearGradient id="linear-gradient" x1="95.66" y1="25.51" x2="115.68" y2="25.51" gradientUnits="userSpaceOnUse"><stop offset="0" stop-color="#206fb3"/><stop offset="0.06" stop-color="#1d77b4"/><stop offset="0.29" stop-color="#1592b7"/><stop offset="0.51" stop-color="#0fa5b9"/><stop offset="0.75" stop-color="#0bb0bb"/><stop offset="1" stop-color="#0ab4bb"/></linearGradient></defs><title>Reports</title><path class="cls-1" d="M101,29.5" transform="translate(-27.35 -27.5)"/><polyline class="cls-1" points="143.65 37 143.65 2 108.65 2"/><path class="cls-1" d="M171,64.5" transform="translate(-27.35 -27.5)"/><path class="cls-1" d="M101,74.52" transform="translate(-27.35 -27.5)"/><polyline class="cls-1" points="2.15 108.5 2.15 143.5 37.15 143.5"/><path class="cls-1" d="M118.83,112.57" transform="translate(-27.35 -27.5)"/><rect class="cls-1" x="22.65" y="101.5" width="21" height="21.28"/><rect class="cls-1" x="62.65" y="83.5" width="21" height="39.1"/><rect class="cls-1" x="102.65" y="57" width="21" height="65.48"/><path class="cls-1" d="M48.64,112.3a9.45,9.45,0,0,0,1,.19" transform="translate(-27.35 -27.5)"/><path class="cls-2" d="M51.61,112.66c16.17.28,53.7-20.88,74.1-49.1" transform="translate(-27.35 -27.5)"/><path class="cls-1" d="M126.3,62.74l.57-.82" transform="translate(-27.35 -27.5)"/><circle class="cls-3" cx="105.67" cy="25.51" r="10.01"/><polyline class="cls-1" points="108.79 143.43 143.79 143.36 143.72 108.36"/><polyline class="cls-1" points="37 2.07 2 2.14 2.07 37.14"/></svg>