<svg id="Layer_1" data-name="Layer 1" xmlns="http://www.w3.org/2000/svg" xmlns:xlink="http://www.w3.org/1999/xlink" viewBox="0 0 145.71 146"><defs><style>.cls-1,.cls-2,.cls-3{fill:none;stroke-miterlimit:10;stroke-width:4px;}.cls-1,.cls-3{stroke:#666;}.cls-1{stroke-dasharray:20 10;}.cls-2{stroke:url(#linear-gradient);}</style><linearGradient id="linear-gradient" y1="108.35" x2="75.29" y2="108.35" gradientUnits="userSpaceOnUse"><stop offset="0" stop-color="#206fb3"/><stop offset="0.06" stop-color="#1d77b4"/><stop offset="0.29" stop-color="#1592b7"/><stop offset="0.51" stop-color="#0fa5b9"/><stop offset="0.75" stop-color="#0bb0bb"/><stop offset="1" stop-color="#0ab4bb"/></linearGradient></defs><title>Scala</title><path class="cls-1" d="M170.71,46.9v70.55a18,18,0,0,1-17.9,17.91H100.29V111.71a12,12,0,0,0-12-12H64.36V46.9A18,18,0,0,1,82.26,29h70.55A18,18,0,0,1,170.71,46.9Z" transform="translate(-27 -27)"/><rect class="cls-2" x="2" y="72.71" width="71.29" height="71.29" rx="12" ry="12"/><line class="cls-3" x1="122.23" y1="23.77" x2="79.64" y2="66.36"/><path class="cls-3" d="M130,50" transform="translate(-27 -27)"/><path class="cls-3" d="M150,50" transform="translate(-27 -27)"/><polyline class="cls-3" points="104.53 23 123 23.32 122.68 41.8"/></svg>