<svg id="Layer_1" data-name="Layer 1" xmlns="http://www.w3.org/2000/svg" xmlns:xlink="http://www.w3.org/1999/xlink" viewBox="0 0 144 145.63"><defs><style>.cls-1,.cls-2,.cls-3,.cls-4{fill:none;stroke-miterlimit:10;}.cls-1,.cls-3{stroke:#666;}.cls-1{stroke-width:4.47px;}.cls-2,.cls-3,.cls-4{stroke-width:4px;}.cls-2{stroke:url(#linear-gradient);}.cls-4{stroke:url(#linear-gradient-2);}</style><linearGradient id="linear-gradient" x1="23.97" y1="95.82" x2="75.62" y2="95.82" gradientUnits="userSpaceOnUse"><stop offset="0" stop-color="#206fb3"/><stop offset="0.06" stop-color="#1d77b4"/><stop offset="0.29" stop-color="#1592b7"/><stop offset="0.51" stop-color="#0fa5b9"/><stop offset="0.75" stop-color="#0bb0bb"/><stop offset="1" stop-color="#0ab4bb"/></linearGradient><linearGradient id="linear-gradient-2" x1="94.56" y1="32.26" x2="128.89" y2="32.26" xlink:href="#linear-gradient"/></defs><title>Automation2</title><path class="cls-1" d="M126.35,129.35V110.88l-10.86-.68a37.55,37.55,0,0,0-3.69-8.91l7.08-8.24L105.83,80l-8.16,7.19a37.89,37.89,0,0,0-8.92-3.7l-.82-10.83H69.47L68.78,83.5a38,38,0,0,0-8.91,3.7l-8.24-7.08L38.57,93.18l7.2,8.16a38,38,0,0,0-3.69,8.91l-10.84.82v18.47l10.87.68a37.77,37.77,0,0,0,3.7,8.88l-7.11,8.27,13.06,13.06L60,153.21a37.72,37.72,0,0,0,8.88,3.68l.82,10.88H88.12l.68-10.89a37.75,37.75,0,0,0,8.88-3.69L106,160.3,119,147.24l-7.2-8.18a37.62,37.62,0,0,0,3.68-8.89Z" transform="translate(-29 -24.37)"/><circle class="cls-2" cx="49.8" cy="95.82" r="23.82"/><path class="cls-3" d="M171,62.46V50.71l-6.91-.44a24.21,24.21,0,0,0-2.35-5.67l4.51-5.25L157.93,31l-5.19,4.57a23.8,23.8,0,0,0-5.67-2.35l-.53-6.89H134.79l-.44,6.9a24.42,24.42,0,0,0-5.67,2.36l-5.25-4.51-8.31,8.31,4.58,5.2a23.77,23.77,0,0,0-2.34,5.67l-6.91.52V62.58l6.92.44a24.27,24.27,0,0,0,2.36,5.65l-4.53,5.27,8.32,8.31,5.21-4.6A23.79,23.79,0,0,0,134.38,80l.53,6.93h11.75L147.1,80a24.24,24.24,0,0,0,5.65-2.35L158,82.17l8.31-8.32-4.59-5.2A23.89,23.89,0,0,0,164.09,63Z" transform="translate(-29 -24.37)"/><circle class="cls-4" cx="111.73" cy="32.26" r="15.16"/></svg>