<svg id="Layer_1" data-name="Layer 1" xmlns="http://www.w3.org/2000/svg" xmlns:xlink="http://www.w3.org/1999/xlink" viewBox="0 0 148.72 148.72"><defs><style>.cls-1,.cls-2,.cls-3,.cls-4{fill:none;stroke-miterlimit:10;stroke-width:4px;}.cls-1{stroke:#666;}.cls-2{stroke:url(#linear-gradient);}.cls-3{stroke:url(#linear-gradient-2);}.cls-4{stroke:url(#linear-gradient-3);}</style><linearGradient id="linear-gradient" x1="45.52" y1="74.36" x2="103.2" y2="74.36" gradientUnits="userSpaceOnUse"><stop offset="0" stop-color="#206fb3"/><stop offset="0.06" stop-color="#1d77b4"/><stop offset="0.29" stop-color="#1592b7"/><stop offset="0.51" stop-color="#0fa5b9"/><stop offset="0.75" stop-color="#0bb0bb"/><stop offset="1" stop-color="#0ab4bb"/></linearGradient><linearGradient id="linear-gradient-2" x1="61.02" y1="67.42" x2="91.49" y2="67.42" xlink:href="#linear-gradient"/><linearGradient id="linear-gradient-3" x1="15.61" y1="21.47" x2="34" y2="21.47" xlink:href="#linear-gradient"/></defs><title>Process Efficiency</title><path class="cls-1" d="M155.59,106.41V93.59L139,91.6a39.6,39.6,0,0,0-5.48-13.22l10.34-13.16-9.06-9.06L121.62,66.5A39.6,39.6,0,0,0,108.4,61l-2-16.61H93.59L91.6,61A39.6,39.6,0,0,0,78.38,66.5L65.22,56.16l-9.06,9.06L66.5,78.38A39.6,39.6,0,0,0,61,91.6l-16.61,2v12.82l16.61,2a39.6,39.6,0,0,0,5.48,13.22L56.16,134.78l9.06,9.06L78.38,133.5A39.6,39.6,0,0,0,91.6,139l2,16.61h12.82l2-16.61a39.6,39.6,0,0,0,13.22-5.48l13.16,10.34,9.06-9.06L133.5,121.62A39.6,39.6,0,0,0,139,108.4Z" transform="translate(-25.64 -25.64)"/><circle class="cls-2" cx="74.36" cy="74.36" r="26.84"/><polyline class="cls-3" points="62.48 62.48 73.98 74.74 90.08 58.64"/><path class="cls-1" d="M100,27.64A72.36,72.36,0,1,1,49.24,48.43" transform="translate(-25.64 -25.64)"/><polygon class="cls-4" points="31.18 15.1 19.47 18.23 28.04 26.8 31.18 15.1"/></svg>