<?xml version="1.0"?>
<svg xmlns="http://www.w3.org/2000/svg" id="Capa_1" enable-background="new 0 0 511.999 511.999" height="512px" viewBox="0 0 511.999 511.999" width="512px" class=""><g><g><path d="m356.523 295.576c40.901-31.503 64.359-79.138 64.359-130.692 0-48.828-21.462-94.863-58.884-126.301-3.171-2.664-7.901-2.252-10.566.919s-2.254 7.902.918 10.567c34.02 28.581 53.532 70.429 53.532 114.815 0 46.864-21.327 90.168-58.512 118.808-10.192 7.85-16.038 19.637-16.038 32.338v15.303h-34.7v-17.633c0-8.547-6.953-15.5-15.5-15.5h-1.066v-18.133h9.066c13.27 0 24.067-10.796 24.067-24.066s-10.797-24.066-24.067-24.066c-13.271 0-24.066 10.796-24.066 24.066v9.066h-18.133v-9.067c0-13.27-10.796-24.066-24.066-24.066s-24.067 10.796-24.067 24.066 10.797 24.066 24.067 24.066h9.066v18.134h-1.066c-8.547 0-15.5 6.953-15.5 15.5v17.633h-34.7v-15.301c0-12.7-5.854-24.493-16.059-32.356-37.684-29.033-58.999-72.94-58.481-120.461.443-40.837 16.83-78.758 46.142-106.778 29.353-28.061 68.031-42.753 108.947-41.347 23.613.807 46.047 6.946 66.678 18.246 3.634 1.989 8.191.658 10.181-2.975 1.989-3.633.657-8.191-2.976-10.181-22.706-12.437-47.391-19.193-73.371-20.081-44.934-1.524-87.527 14.62-119.825 45.496-32.255 30.835-50.287 72.548-50.776 117.458-.286 26.368 5.47 51.621 17.108 75.059 11.086 22.324 27.414 42.189 47.219 57.447 6.49 5.001 10.213 12.463 10.213 20.474v16.504c-9.608 3.16-16.566 12.212-16.566 22.864s6.958 19.704 16.566 22.863v69.103c0 17.369 14.131 31.5 31.5 31.5h2.153c3.055 18.763 19.367 33.133 38.98 33.133h35.4c19.612 0 35.925-14.37 38.98-33.133h2.153c17.369 0 31.5-14.131 31.5-31.5v-69.103c9.608-3.16 16.566-12.212 16.566-22.863 0-10.652-6.958-19.704-16.566-22.864v-16.506c0-8.012 3.715-15.467 10.19-20.455zm-76.457-39.576c0-4.999 4.067-9.066 9.066-9.066 5 0 9.067 4.067 9.067 9.066s-4.067 9.066-9.067 9.066h-9.066zm-57.199 9.067c-5 0-9.067-4.067-9.067-9.066s4.067-9.066 9.067-9.066c4.999 0 9.066 4.067 9.066 9.066v9.066zm24.066 15h18.133v18.133h-18.133zm-16.566 33.633c0-.276.225-.5.5-.5h50.266c.275 0 .5.224.5.5v17.633h-51.266zm100.966 83.9h-102.534c-4.143 0-7.5 3.358-7.5 7.5s3.357 7.5 7.5 7.5h102.533v18.133h-150.665v-18.133h18.133c4.143 0 7.5-3.358 7.5-7.5s-3.357-7.5-7.5-7.5h-18.133v-18.133h150.666zm-57.633 99.399h-35.4c-11.308 0-20.851-7.701-23.661-18.133h82.723c-2.812 10.433-12.355 18.133-23.662 18.133zm41.133-33.133h-9.133-99.4-9.133c-9.099 0-16.5-7.402-16.5-16.5v-1.633h150.666v1.633c0 9.099-7.402 16.5-16.5 16.5zm24-99.399h-165.666c-4.999 0-9.066-4.067-9.066-9.066 0-5 4.067-9.067 9.066-9.067h49.7 66.266 49.7c4.999 0 9.066 4.067 9.066 9.067 0 4.998-4.067 9.066-9.066 9.066z" data-original="#000000" class="active-path" data-old_color="#000000" fill="#087DC8"/><path d="m64.701 164.884c0-4.142-3.357-7.5-7.5-7.5h-33.134c-4.143 0-7.5 3.358-7.5 7.5s3.357 7.5 7.5 7.5h33.134c4.142 0 7.5-3.358 7.5-7.5z" data-original="#000000" class="active-path" data-old_color="#000000" fill="#087DC8"/><path d="m80.085 257.788-28.695 16.567c-3.587 2.071-4.816 6.658-2.745 10.245 1.39 2.406 3.91 3.751 6.502 3.751 1.272 0 2.563-.324 3.743-1.006l28.694-16.567c3.587-2.071 4.816-6.658 2.745-10.245-2.072-3.587-6.659-4.817-10.244-2.745z" data-original="#000000" class="active-path" data-old_color="#000000" fill="#087DC8"/><path d="m460.609 274.355-28.694-16.567c-3.59-2.073-8.175-.843-10.245 2.745-2.071 3.587-.842 8.174 2.745 10.245l28.694 16.567c1.182.682 2.471 1.006 3.743 1.006 2.592 0 5.113-1.345 6.502-3.751 2.071-3.587.842-8.174-2.745-10.245z" data-original="#000000" class="active-path" data-old_color="#000000" fill="#087DC8"/><path d="m487.932 157.384h-33.134c-4.142 0-7.5 3.358-7.5 7.5s3.358 7.5 7.5 7.5h33.134c4.143 0 7.5-3.358 7.5-7.5s-3.357-7.5-7.5-7.5z" data-original="#000000" class="active-path" data-old_color="#000000" fill="#087DC8"/><path d="m428.172 72.986c1.272 0 2.563-.324 3.743-1.006l28.694-16.566c3.587-2.071 4.816-6.658 2.745-10.245-2.07-3.587-6.659-4.816-10.245-2.745l-28.694 16.566c-3.587 2.071-4.816 6.658-2.745 10.245 1.388 2.405 3.91 3.751 6.502 3.751z" data-original="#000000" class="active-path" data-old_color="#000000" fill="#087DC8"/><path d="m51.39 55.413 28.694 16.566c1.182.682 2.471 1.006 3.743 1.006 2.592 0 5.113-1.346 6.502-3.752 2.071-3.587.842-8.174-2.745-10.245l-28.694-16.565c-3.59-2.072-8.175-.842-10.245 2.745-2.071 3.587-.842 8.174 2.745 10.245z" data-original="#000000" class="active-path" data-old_color="#000000" fill="#087DC8"/><path d="m256 99.401c-13.27 0-24.066 10.796-24.066 24.067 0 13.27 10.796 24.066 24.066 24.066 13.271 0 24.066-10.796 24.066-24.066 0-13.271-10.796-24.067-24.066-24.067zm0 33.133c-4.999 0-9.066-4.067-9.066-9.066s4.067-9.067 9.066-9.067 9.066 4.067 9.066 9.067c0 4.999-4.067 9.066-9.066 9.066z" data-original="#000000" class="active-path" data-old_color="#000000" fill="#087DC8"/><path d="m324.274 95.531c-.08-.197-.16-.393-.242-.587l5.358-8.93c3.732-6.222 2.756-14.15-2.374-19.28l-14.282-14.283c-5.131-5.129-13.058-6.107-19.281-2.374l-8.929 5.357c-.195-.082-.392-.162-.588-.242l-2.525-10.103c-1.76-7.039-8.057-11.955-15.311-11.955h-20.2c-7.255 0-13.552 4.916-15.312 11.955l-2.525 10.103c-.196.08-.393.161-.588.242l-8.929-5.357c-6.221-3.733-14.149-2.756-19.281 2.374l-14.282 14.283c-5.13 5.13-6.106 13.058-2.373 19.281l5.357 8.929c-.082.195-.162.391-.242.587l-10.104 2.526c-7.039 1.76-11.955 8.056-11.955 15.312v20.198c0 7.255 4.916 13.551 11.955 15.312l10.104 2.526c.079.196.16.392.242.587l-5.358 8.93c-3.732 6.221-2.756 14.149 2.374 19.28l14.282 14.282c5.131 5.129 13.059 6.107 19.281 2.374l8.929-5.357c.195.081.392.162.588.242l2.525 10.102c1.76 7.04 8.057 11.956 15.312 11.956h20.199c7.255 0 13.552-4.916 15.311-11.956l2.525-10.102c.196-.08.393-.161.588-.242l8.929 5.357c6.22 3.732 14.149 2.756 19.281-2.374l14.282-14.283c5.13-5.13 6.105-13.059 2.373-19.281l-5.357-8.929c.082-.195.163-.391.242-.587l10.104-2.526c7.038-1.761 11.954-8.057 11.954-15.312v-20.198c0-7.256-4.916-13.552-11.955-15.312zm7.059 38.036c0 .36-.244.673-.594.76l-13.917 3.479c-2.46.615-4.442 2.432-5.27 4.829-.791 2.291-1.702 4.499-2.709 6.563-1.113 2.282-.997 4.971.31 7.148l7.375 12.292c.186.309.137.703-.118.958l-14.282 14.282c-.254.254-.647.303-.957.118l-12.292-7.376c-2.177-1.307-4.868-1.422-7.147-.309-2.064 1.007-4.272 1.918-6.562 2.708-2.398.827-4.216 2.81-4.831 5.271l-3.479 13.917c-.087.349-.399.593-.759.593h-20.201c-.359 0-.672-.244-.759-.594l-3.479-13.917c-.615-2.461-2.433-4.444-4.831-5.271-2.289-.79-4.497-1.701-6.562-2.708-1.041-.508-2.166-.76-3.289-.76-1.339 0-2.675.358-3.858 1.069l-12.292 7.375c-.311.187-.703.137-.957-.117l-14.282-14.282c-.255-.255-.304-.649-.119-.958l7.376-12.292c1.307-2.177 1.423-4.866.31-7.148-1.007-2.063-1.918-4.272-2.709-6.563-.828-2.397-2.811-4.214-5.271-4.829l-13.916-3.479c-.351-.087-.595-.4-.595-.76v-20.198c0-.36.244-.673.594-.76l13.917-3.479c2.46-.615 4.442-2.431 5.271-4.828.791-2.292 1.703-4.501 2.709-6.563 1.113-2.282.997-4.971-.31-7.148l-7.375-12.292c-.186-.309-.137-.703.118-.958l14.282-14.283c.252-.254.645-.304.957-.118l12.292 7.375c2.177 1.306 4.868 1.422 7.147.309 2.064-1.007 4.273-1.918 6.562-2.708 2.398-.827 4.216-2.81 4.831-5.271l3.479-13.917c.087-.349.399-.593.759-.593h20.199c.359 0 .672.244.759.593l3.479 13.917c.615 2.461 2.433 4.444 4.831 5.271 2.289.79 4.497 1.701 6.562 2.708 2.281 1.113 4.971.997 7.147-.309l12.292-7.375c.312-.187.704-.137.957.117l14.282 14.283c.255.255.304.649.119.957l-7.376 12.293c-1.307 2.177-1.423 4.866-.31 7.148 1.006 2.063 1.918 4.271 2.709 6.563.828 2.397 2.81 4.213 5.27 4.828l13.917 3.479c.35.087.594.4.594.76v20.2z" data-original="#000000" class="active-path" data-old_color="#000000" fill="#087DC8"/></g></g> </svg>
