<svg id="Layer_1" data-name="Layer 1" xmlns="http://www.w3.org/2000/svg" viewBox="0 0 140.99 141.49"><defs><style>.cls-1,.cls-3{fill:none;stroke:#666;stroke-miterlimit:10;stroke-width:4px;}.cls-1{stroke-dasharray:2.66;}.cls-2{fill:#1496b7;}</style></defs><title>Change Management</title><path class="cls-1" d="M128.78,144.39" transform="translate(-31.13 -31.13)"/><line class="cls-1" x1="111.44" y1="97.38" x2="111.44" y2="59.51"/><path class="cls-1" d="M77.45,55.29h54.47a10.68,10.68,0,0,1,10.65,10.65V70" transform="translate(-31.13 -31.13)"/><path class="cls-1" d="M127,144.07H64.44a10.68,10.68,0,0,1-10.65-10.65V122" transform="translate(-31.13 -31.13)"/><polyline class="cls-1" points="22.66 74.24 22.66 70.24 22.66 46.26"/><path class="cls-2" d="M147.82,124a23.6,23.6,0,0,0-4.23.38A24.34,24.34,0,0,0,123.91,144a23.58,23.58,0,0,0-.39,4.31A24.3,24.3,0,1,0,147.82,124Zm0,44.61a20.31,20.31,0,1,1,20.3-20.3A20.32,20.32,0,0,1,147.82,168.62Z" transform="translate(-31.13 -31.13)"/><path class="cls-3" d="M55.29,33.13a22.16,22.16,0,0,0-1.5,44.26q.75.06,1.5.06a22.16,22.16,0,0,0,0-44.32Zm0,32.48a10.45,10.45,0,0,1-1.49-.11,10.31,10.31,0,1,1,1.49.11Z" transform="translate(-31.13 -31.13)"/><path class="cls-3" d="M65.61,55.29A10.32,10.32,0,0,1,55.29,65.61a10.45,10.45,0,0,1-1.49-.11A10.32,10.32,0,1,1,65.61,55.29Z" transform="translate(-31.13 -31.13)"/><path class="cls-3" d="M152.89,80.32a10.32,10.32,0,0,1-10.32,10.32,10.45,10.45,0,0,1-1.49-.11,10.32,10.32,0,1,1,11.81-10.21Z" transform="translate(-31.13 -31.13)"/><path class="cls-2" d="M53.79,101.37A12.32,12.32,0,0,0,52,125.88a12,12,0,0,0,1.77.13,12.32,12.32,0,1,0,0-24.64Zm0,20.64a8.32,8.32,0,1,1,8.32-8.32A8.39,8.39,0,0,1,53.79,122Z" transform="translate(-31.13 -31.13)"/></svg>