<svg id="Layer_1" data-name="Layer 1" xmlns="http://www.w3.org/2000/svg" xmlns:xlink="http://www.w3.org/1999/xlink" viewBox="0 0 141.94 141.94"><defs><style>.cls-1,.cls-6{fill:none;stroke:#666;stroke-miterlimit:10;stroke-width:4px;}.cls-2{fill:url(#linear-gradient);}.cls-3{fill:url(#linear-gradient-2);}.cls-4{fill:#666;}.cls-5{fill:url(#linear-gradient-3);}.cls-6{stroke-dasharray:1.92 1.92;}</style><linearGradient id="linear-gradient" x1="48" y1="64.01" x2="130" y2="64.01" gradientUnits="userSpaceOnUse"><stop offset="0" stop-color="#206fb3"/><stop offset="0.06" stop-color="#1d77b4"/><stop offset="0.29" stop-color="#1592b7"/><stop offset="0.51" stop-color="#0fa5b9"/><stop offset="0.75" stop-color="#0bb0bb"/><stop offset="1" stop-color="#0ab4bb"/></linearGradient><linearGradient id="linear-gradient-2" x1="53.88" y1="76.11" x2="74.35" y2="76.11" xlink:href="#linear-gradient"/><linearGradient id="linear-gradient-3" x1="20.97" y1="119.97" x2="120.97" y2="119.97" xlink:href="#linear-gradient"/></defs><title>Communication</title><rect class="cls-1" x="2" y="2" width="137.94" height="137.94" rx="23.53" ry="23.53"/><path class="cls-2" d="M117.35,50H60.65C53.68,50,48,54.94,48,61v6a10.74,10.74,0,0,0,5.88,9.27,13.46,13.46,0,0,0,4.23,1.49,6.05,6.05,0,0,1-.23-1.66,6.24,6.24,0,0,1,.48-2.41,8.36,8.36,0,0,1-3.53-1.88A6.48,6.48,0,0,1,52.61,67V61c0-3.85,3.61-7,8-7h56.7c4.43,0,8,3.13,8,7v6c0,3.85-3.61,7-8,7H70a6,6,0,0,1,.38,2.12A6.11,6.11,0,0,1,70.06,78h47.29c7,0,12.65-4.93,12.65-11V61C130,54.94,124.32,50,117.35,50Z" transform="translate(-29.03 -29.03)"/><path class="cls-3" d="M74.13,74a10.23,10.23,0,0,0-19.3-2.17,10.09,10.09,0,0,0-.95,4.29v.17A10.23,10.23,0,0,0,74.17,78a9.74,9.74,0,0,0,.18-1.88A10.51,10.51,0,0,0,74.13,74Zm-10,8.35a6.25,6.25,0,0,1-6-4.57,6.05,6.05,0,0,1-.23-1.66A6.23,6.23,0,0,1,70,74a6,6,0,0,1,.38,2.12A6.11,6.11,0,0,1,70.06,78,6.24,6.24,0,0,1,64.12,82.35Z" transform="translate(-29.03 -29.03)"/><path class="cls-4" d="M137.79,96H83c-6.73,0-12.21,4.93-12.21,11v6a10.8,10.8,0,0,0,6,9.42,12.72,12.72,0,0,0,4.27,1.41,6.28,6.28,0,0,1-.28-1.85,6,6,0,0,1,.41-2.21A7.76,7.76,0,0,1,77.6,118a6.61,6.61,0,0,1-2.32-5v-6c0-3.85,3.48-7,7.76-7h54.75c4.28,0,7.76,3.13,7.76,7v6c0,3.85-3.48,7-7.76,7H92.89a6,6,0,0,1,.34,2,6.31,6.31,0,0,1-.33,2h44.89c6.73,0,12.21-4.92,12.21-11v-6C150,100.93,144.52,96,137.79,96Z" transform="translate(-29.03 -29.03)"/><path class="cls-4" d="M97,120a10.22,10.22,0,0,0-19.43-2,10,10,0,0,0-.83,4c0,.15,0,.29,0,.44A10.23,10.23,0,1,0,97,120Zm-10,8.24A6.24,6.24,0,0,1,80.77,122a6,6,0,0,1,.41-2.21,6.22,6.22,0,0,1,11.71.21,6,6,0,0,1,.34,2,6.31,6.31,0,0,1-.33,2A6.24,6.24,0,0,1,87,128.22Z" transform="translate(-29.03 -29.03)"/><line class="cls-5" x1="20.97" y1="119.97" x2="120.97" y2="119.97"/><line class="cls-1" x1="20.97" y1="119.97" x2="21.95" y2="119.97"/><line class="cls-6" x1="23.87" y1="119.97" x2="119.04" y2="119.97"/><line class="cls-1" x1="120" y1="119.97" x2="120.97" y2="119.97"/></svg>