<svg id="Layer_1" data-name="Layer 1" xmlns="http://www.w3.org/2000/svg" xmlns:xlink="http://www.w3.org/1999/xlink" viewBox="0 0 140.26 140.26"><defs><style>.cls-1,.cls-2,.cls-3{fill:none;stroke-miterlimit:10;stroke-width:4px;}.cls-1{stroke:#666;}.cls-2{stroke:url(#linear-gradient);}.cls-3{stroke:url(#linear-gradient-3);}</style><linearGradient id="linear-gradient" x1="61.65" y1="56.78" x2="78.62" y2="56.78" gradientUnits="userSpaceOnUse"><stop offset="0" stop-color="#206fb3"/><stop offset="0.06" stop-color="#1d77b4"/><stop offset="0.29" stop-color="#1592b7"/><stop offset="0.51" stop-color="#0fa5b9"/><stop offset="0.75" stop-color="#0bb0bb"/><stop offset="1" stop-color="#0ab4bb"/></linearGradient><linearGradient id="linear-gradient-3" x1="18.72" y1="117.39" x2="35.69" y2="117.39" xlink:href="#linear-gradient"/></defs><title>Events</title><rect class="cls-1" x="2" y="2" width="136.26" height="136.26" rx="13.25" ry="13.25"/><line class="cls-1" x1="2" y1="29.42" x2="138.26" y2="29.42"/><line class="cls-1" x1="20.13" y1="56.78" x2="40.13" y2="56.78"/><line class="cls-2" x1="63.06" y1="49.7" x2="77.2" y2="63.85"/><line class="cls-2" x1="63.06" y1="63.85" x2="77.2" y2="49.7"/><line class="cls-1" x1="100.13" y1="56.78" x2="120.13" y2="56.78"/><line class="cls-1" x1="20.13" y1="87.08" x2="40.13" y2="87.08"/><line class="cls-1" x1="60.13" y1="87.08" x2="80.13" y2="87.08"/><line class="cls-1" x1="100.13" y1="87.08" x2="120.13" y2="87.08"/><line class="cls-3" x1="20.13" y1="110.31" x2="34.27" y2="124.46"/><line class="cls-3" x1="20.13" y1="124.46" x2="34.27" y2="110.31"/><line class="cls-1" x1="60.2" y1="117.39" x2="80.2" y2="117.39"/><line class="cls-1" x1="100.39" y1="117.39" x2="120.39" y2="117.39"/></svg>