<svg id="Layer_1" data-name="Layer 1" xmlns="http://www.w3.org/2000/svg" xmlns:xlink="http://www.w3.org/1999/xlink" viewBox="0 0 140.68 138.16"><defs><style>.cls-1{fill:url(#linear-gradient);}.cls-2{fill:none;stroke:#666;stroke-miterlimit:10;stroke-width:2.93px;}.cls-3{fill:url(#linear-gradient-2);}</style><linearGradient id="linear-gradient" x1="37.48" y1="49.08" x2="111.81" y2="49.08" gradientUnits="userSpaceOnUse"><stop offset="0" stop-color="#206fb3"/><stop offset="0.06" stop-color="#1d77b4"/><stop offset="0.29" stop-color="#1592b7"/><stop offset="0.51" stop-color="#0fa5b9"/><stop offset="0.75" stop-color="#0bb0bb"/><stop offset="1" stop-color="#0ab4bb"/></linearGradient><linearGradient id="linear-gradient-2" x1="77.91" y1="68.7" x2="162.52" y2="68.7" xlink:href="#linear-gradient"/></defs><title>Logistics</title><path class="cls-1" d="M38.21,60.69,51.13,66.5l60-27.92a1.22,1.22,0,0,0,.7-1.12,1.25,1.25,0,0,0-.74-1.1l-10.57-4.6a1.24,1.24,0,0,0-1,0L38.22,58.47a1.21,1.21,0,0,0,0,2.22Zm0,0" transform="translate(-29.66 -31.66)"/><path class="cls-2" d="M96.23,93.36l-23-10.45V114.8a.83.83,0,0,1-.41.73.81.81,0,0,1-.47.14.85.85,0,0,1-.38-.09L47.56,104.23a.88.88,0,0,1-.51-.79V71.34L32.88,64.9A1.21,1.21,0,0,0,31.7,65a1.19,1.19,0,0,0-.57,1v72.66a1.22,1.22,0,0,0,.72,1.11L95.2,168.23a1.12,1.12,0,0,0,.51.11A1.23,1.23,0,0,0,97,167.12V94.46a1.2,1.2,0,0,0-.72-1.1Zm0,0" transform="translate(-29.66 -31.66)"/><path class="cls-2" d="M168.3,65a1.27,1.27,0,0,0-1.18-.08L103.78,93.36a1.21,1.21,0,0,0-.73,1.1v72.67a1.22,1.22,0,0,0,.57,1,1.26,1.26,0,0,0,.67.19,1.16,1.16,0,0,0,.52-.11l63.34-28.46a1.22,1.22,0,0,0,.72-1.11V66a1.2,1.2,0,0,0-.57-1Zm0,0" transform="translate(-29.66 -31.66)"/><path class="cls-3" d="M162.52,59.58a1.22,1.22,0,0,0-.73-1.11l-21.31-9.29a1.28,1.28,0,0,0-1,0L77.91,78.09,99.48,88.22a1.35,1.35,0,0,0,.52.11,1.26,1.26,0,0,0,.51-.11L161.8,60.69a1.2,1.2,0,0,0,.72-1.11Zm0,0" transform="translate(-29.66 -31.66)"/></svg>