<svg id="Layer_1" data-name="Layer 1" xmlns="http://www.w3.org/2000/svg" xmlns:xlink="http://www.w3.org/1999/xlink" viewBox="0 0 146 146"><defs><style>.cls-1,.cls-2,.cls-6{fill:none;stroke:#666;stroke-miterlimit:10;}.cls-1,.cls-2{stroke-width:4px;}.cls-1{stroke-dasharray:3;}.cls-3{fill:url(#linear-gradient);}.cls-4{fill:url(#linear-gradient-2);}.cls-5{fill:url(#linear-gradient-3);}.cls-6{stroke-width:5.3px;}</style><linearGradient id="linear-gradient" x1="30.79" y1="111.28" x2="48.59" y2="111.28" gradientUnits="userSpaceOnUse"><stop offset="0" stop-color="#206fb3"/><stop offset="0.06" stop-color="#1d77b4"/><stop offset="0.29" stop-color="#1592b7"/><stop offset="0.51" stop-color="#0fa5b9"/><stop offset="0.75" stop-color="#0bb0bb"/><stop offset="1" stop-color="#0ab4bb"/></linearGradient><linearGradient id="linear-gradient-2" x1="29.75" y1="34.72" x2="47.55" y2="34.72" xlink:href="#linear-gradient"/><linearGradient id="linear-gradient-3" x1="65.65" y1="73.52" x2="89.26" y2="73.52" xlink:href="#linear-gradient"/></defs><title>Managed Product</title><rect class="cls-1" x="2" y="2" width="142" height="142" rx="20.48" ry="20.48"/><path class="cls-2" d="M65.65,62.76h69a8.58,8.58,0,0,1,8.58,8.58V129.7a8.58,8.58,0,0,1-8.58,8.58H67.73" transform="translate(-27 -27)"/><circle class="cls-3" cx="39.69" cy="111.28" r="8.9"/><circle class="cls-2" cx="39.69" cy="111.28" r="8.9"/><circle class="cls-4" cx="38.65" cy="34.72" r="8.9"/><circle class="cls-2" cx="38.65" cy="34.72" r="8.9"/><circle class="cls-5" cx="77.45" cy="73.52" r="11.81"/><circle class="cls-6" cx="77.45" cy="73.52" r="11.81"/><circle class="cls-2" cx="43.35" cy="73.52" r="8.9"/><line class="cls-2" x1="65.65" y1="73.52" x2="52.25" y2="73.52"/></svg>