<svg id="Layer_1" data-name="Layer 1" xmlns="http://www.w3.org/2000/svg" xmlns:xlink="http://www.w3.org/1999/xlink" viewBox="0 0 146 146"><defs><style>.cls-1,.cls-3{fill:none;stroke:#666;stroke-miterlimit:10;stroke-width:4px;}.cls-2{fill:url(#linear-gradient);}.cls-3{stroke-dasharray:2.66;}.cls-4{fill:#1496b7;}</style><linearGradient id="linear-gradient" x1="88.62" y1="100" x2="111.38" y2="100" gradientUnits="userSpaceOnUse"><stop offset="0" stop-color="#206fb3"/><stop offset="0.06" stop-color="#1d77b4"/><stop offset="0.29" stop-color="#1592b7"/><stop offset="0.51" stop-color="#0fa5b9"/><stop offset="0.75" stop-color="#0bb0bb"/><stop offset="1" stop-color="#0ab4bb"/></linearGradient></defs><title>Personal Assistance</title><path class="cls-1" d="M100,76.62a23.38,23.38,0,0,0-1.58,46.7c.52,0,1,.06,1.58.06a23.38,23.38,0,0,0,0-46.76Z" transform="translate(-27 -27)"/><path class="cls-2" d="M111.38,100A11.39,11.39,0,0,1,100,111.38a11.11,11.11,0,0,1-1.64-.13,11.37,11.37,0,1,1,13-11.25Z" transform="translate(-27 -27)"/><path class="cls-3" d="M171,100A71,71,0,0,1,67.12,162.94a23.38,23.38,0,1,0-27.24-25.16A71,71,0,1,1,171,100Z" transform="translate(-27 -27)"/><path class="cls-1" d="M86.54,139.9a23.38,23.38,0,0,1-19.42,23,22.44,22.44,0,0,1-4,.34c-.52,0-1,0-1.58-.07a23.36,23.36,0,0,1-21.8-23.31,21.2,21.2,0,0,1,.1-2.12,23.38,23.38,0,0,1,46.66,2.12Z" transform="translate(-27 -27)"/><circle class="cls-4" cx="53.85" cy="92.15" r="10.6"/></svg>