<svg xmlns="http://www.w3.org/2000/svg" xmlns:xlink="http://www.w3.org/1999/xlink" viewBox="0 0 137.4 135.73"><defs><style>.cls-1,.cls-10,.cls-12,.cls-2,.cls-3,.cls-4,.cls-5,.cls-6,.cls-7,.cls-8,.cls-9{fill:none;stroke-miterlimit:10;stroke-width:4px;}.cls-1,.cls-10,.cls-2,.cls-3,.cls-4,.cls-5,.cls-6,.cls-7,.cls-8,.cls-9{stroke:#666;}.cls-2{stroke-dasharray:3.02 3.02;}.cls-3{stroke-dasharray:1.32;}.cls-4{stroke-dasharray:0.64;}.cls-5{stroke-dasharray:2.77 2.77;}.cls-6{stroke-dasharray:2.15 2.15;}.cls-7{stroke-dasharray:2.9 2.9;}.cls-8{stroke-dasharray:2.98 2.98;}.cls-9{stroke-dasharray:2.11 2.11;}.cls-10{stroke-dasharray:2.86 2.86;}.cls-11{fill:#666;}.cls-12{stroke:url(#linear-gradient);}.cls-13{fill:#606060;}.cls-14{fill:url(#linear-gradient-2);}</style><linearGradient id="linear-gradient" x1="60.23" y1="111.98" x2="82.03" y2="111.98" gradientTransform="translate(163.77 17.03) rotate(76.72)" gradientUnits="userSpaceOnUse"><stop offset="0" stop-color="#206fb3"/><stop offset="0.06" stop-color="#1d77b4"/><stop offset="0.29" stop-color="#1592b7"/><stop offset="0.51" stop-color="#0fa5b9"/><stop offset="0.75" stop-color="#0bb0bb"/><stop offset="1" stop-color="#0ab4bb"/></linearGradient><linearGradient id="linear-gradient-2" x1="106.05" y1="23.76" x2="120.45" y2="23.76" gradientTransform="matrix(1, 0, 0, 1, 0, 0)" xlink:href="#linear-gradient"/></defs><title>Asset 13</title><g id="Layer_2" data-name="Layer 2"><g id="Layer_1-2" data-name="Layer 1"><line class="cls-1" x1="13.39" y1="75.82" x2="13.39" y2="77.32"/><path class="cls-2" d="M13.39,80.34v4.94A26.69,26.69,0,0,0,40.08,112h6"/><line class="cls-1" x1="47.54" y1="111.98" x2="49.04" y2="111.98"/><line class="cls-3" x1="62.23" y1="111.98" x2="60.91" y2="111.98"/><line class="cls-4" x1="80.67" y1="111.98" x2="80.03" y2="111.98"/><line class="cls-1" x1="92.54" y1="111.98" x2="94.04" y2="111.98"/><polyline class="cls-5" points="96.81 111.98 113.25 111.98 128.61 111.98"/><polyline class="cls-1" points="129.99 111.98 131.49 111.98 131.49 110.48"/><line class="cls-6" x1="131.49" y1="108.33" x2="131.49" y2="105.1"/><line class="cls-1" x1="131.49" y1="104.02" x2="131.49" y2="102.52"/><line class="cls-1" x1="13.39" y1="53.05" x2="13.39" y2="51.55"/><path class="cls-7" d="M13.45,48.65A26.69,26.69,0,0,1,40.08,23.76H56.46"/><path class="cls-1" d="M57.91,23.76h1.5a10.6,10.6,0,0,0,.1,1.5"/><path class="cls-8" d="M60.28,28.13a11.38,11.38,0,0,0,21.5-1.42"/><path class="cls-1" d="M82.07,25.26a10.6,10.6,0,0,0,.1-1.5h1.5"/><line class="cls-9" x1="85.78" y1="23.76" x2="88.94" y2="23.76"/><path class="cls-1" d="M90,23.76h1.5c0,.5,0,1,0,1.5"/><path class="cls-10" d="M91.93,28.09A21.76,21.76,0,0,0,126.7,40.86"/><path class="cls-1" d="M127.79,39.94c.37-.33.73-.68,1.08-1"/><path class="cls-11" d="M113.25,47.51a23.77,23.77,0,1,1,17.05-7.22A23.77,23.77,0,0,1,113.25,47.51Zm0-43.51A19.75,19.75,0,1,0,133,23.76,19.77,19.77,0,0,0,113.25,4Z"/><path class="cls-11" d="M70.79,88.23A23.75,23.75,0,1,0,94.54,112,23.77,23.77,0,0,0,70.79,88.23Zm0,43.5A19.75,19.75,0,1,1,90.54,112,19.77,19.77,0,0,1,70.79,131.73Z"/><circle class="cls-12" cx="71.13" cy="111.98" r="8.9" transform="translate(-54.2 155.48) rotate(-76.72)"/><circle class="cls-13" cx="125.83" cy="111.98" r="11.57"/><path class="cls-1" d="M24.77,64.44A11.39,11.39,0,1,1,13.39,53.05,11.38,11.38,0,0,1,24.77,64.44Z"/><path class="cls-1" d="M82.17,23.76A11.38,11.38,0,1,1,70.79,12.37,11.38,11.38,0,0,1,82.17,23.76Z"/><circle class="cls-14" cx="113.25" cy="23.76" r="7.2"/></g></g></svg>