<svg id="Layer_1" data-name="Layer 1" xmlns="http://www.w3.org/2000/svg" xmlns:xlink="http://www.w3.org/1999/xlink" viewBox="0 0 146 146"><defs><style>.cls-1,.cls-2,.cls-3{fill:none;stroke-miterlimit:10;stroke-width:4px;}.cls-1{stroke:#666;}.cls-2{stroke:url(#linear-gradient);}.cls-3{stroke-dasharray:19.68 7.87;stroke:url(#linear-gradient-2);}.cls-4{fill:url(#linear-gradient-4);}.cls-5{fill:url(#linear-gradient-5);}.cls-6{fill:url(#linear-gradient-6);}</style><linearGradient id="linear-gradient" x1="36.5" y1="94.86" x2="163.5" y2="94.86" gradientUnits="userSpaceOnUse"><stop offset="0" stop-color="#0ab4bb"/><stop offset="0.23" stop-color="#0bb0bb"/><stop offset="0.48" stop-color="#0fa3b9"/><stop offset="0.73" stop-color="#168eb7"/><stop offset="0.99" stop-color="#2070b3"/><stop offset="1" stop-color="#206fb3"/></linearGradient><linearGradient id="linear-gradient-2" y1="61.56" x2="163.5" y2="61.56" xlink:href="#linear-gradient"/><linearGradient id="linear-gradient-4" x1="86.68" y1="112.94" x2="133.73" y2="66.44" gradientTransform="translate(92.13 -60.42) rotate(45)" gradientUnits="userSpaceOnUse"><stop offset="0" stop-color="#206fb3"/><stop offset="0.06" stop-color="#1d77b4"/><stop offset="0.29" stop-color="#1592b7"/><stop offset="0.51" stop-color="#0fa5b9"/><stop offset="0.75" stop-color="#0bb0bb"/><stop offset="1" stop-color="#0ab4bb"/></linearGradient><linearGradient id="linear-gradient-5" x1="86.85" y1="113.11" x2="133.9" y2="66.61" gradientTransform="translate(103.94 -31.92) rotate(45)" xlink:href="#linear-gradient-4"/><linearGradient id="linear-gradient-6" x1="86.79" y1="113.06" x2="133.84" y2="66.55" gradientTransform="matrix(1, 0, 0, 1, 0, 0)" xlink:href="#linear-gradient-4"/></defs><title>Productivity Enhancement Icon</title><circle class="cls-1" cx="73" cy="73" r="71"/><path class="cls-2" d="M38.5,100a61.69,61.69,0,0,1,.8-10" transform="translate(-27 -27)"/><path class="cls-3" d="M41.06,82.37a61.52,61.52,0,0,1,118.88,3.81" transform="translate(-27 -27)"/><path class="cls-2" d="M160.7,90a61.69,61.69,0,0,1,.8,10" transform="translate(-27 -27)"/><rect class="cls-4" x="99.2" y="79" width="39.6" height="4" transform="translate(-49.42 80.87) rotate(-45)"/><rect class="cls-5" x="84.14" y="107.5" width="12.73" height="4" transform="translate(-77.92 69.06) rotate(-45)"/><path class="cls-6" d="M100,109.5a9.53,9.53,0,0,1-9.5-9.5,9.51,9.51,0,0,1,9.5-9.5,9.53,9.53,0,0,1,9.5,9.5A9.51,9.51,0,0,1,100,109.5Zm0-15a5.51,5.51,0,0,0-5.5,5.5,5.51,5.51,0,0,0,5.5,5.5,5.5,5.5,0,1,0,0-11Z" transform="translate(-27 -27)"/></svg>