<svg id="Layer_1" data-name="Layer 1" xmlns="http://www.w3.org/2000/svg" xmlns:xlink="http://www.w3.org/1999/xlink" viewBox="0 0 142.47 142.47"><defs><style>.cls-1,.cls-2,.cls-3,.cls-4,.cls-5{fill:none;stroke-miterlimit:10;stroke-width:4px;}.cls-1,.cls-2{stroke:#666;}.cls-1{stroke-dasharray:1.95;}.cls-3{stroke:url(#linear-gradient);}.cls-4{stroke:url(#linear-gradient-2);}.cls-5{stroke:url(#linear-gradient-3);}</style><linearGradient id="linear-gradient" x1="93.47" y1="84.22" x2="122.47" y2="84.22" gradientUnits="userSpaceOnUse"><stop offset="0" stop-color="#206fb3"/><stop offset="0.06" stop-color="#1d77b4"/><stop offset="0.29" stop-color="#1592b7"/><stop offset="0.51" stop-color="#0fa5b9"/><stop offset="0.75" stop-color="#0bb0bb"/><stop offset="1" stop-color="#0ab4bb"/></linearGradient><linearGradient id="linear-gradient-2" x1="8.88" y1="43.63" x2="112.1" y2="43.63" xlink:href="#linear-gradient"/><linearGradient id="linear-gradient-3" x1="96.93" y1="26" x2="113.36" y2="26" xlink:href="#linear-gradient"/></defs><title>Automation</title><path class="cls-1" d="M30.76,55.76a25.07,25.07,0,0,1,25-25" transform="translate(-28.76 -28.76)"/><path class="cls-1" d="M55.76,169.24a25.07,25.07,0,0,1-25-25" transform="translate(-28.76 -28.76)"/><path class="cls-1" d="M168.73,149.26a25.1,25.1,0,0,1-24.49,20h-1.07" transform="translate(-28.76 -28.76)"/><path class="cls-1" d="M169.24,144.24a25.14,25.14,0,0,1-.51,5" transform="translate(-28.76 -28.76)"/><path class="cls-1" d="M144.24,30.76a25.07,25.07,0,0,1,25,25" transform="translate(-28.76 -28.76)"/><path class="cls-1" d="M144.24,30.76" transform="translate(-28.76 -28.76)"/><path class="cls-1" d="M55.76,30.76" transform="translate(-28.76 -28.76)"/><rect class="cls-2" x="21.49" y="64.59" width="25" height="55.91"/><rect class="cls-2" x="58.48" y="77.8" width="25" height="42.98"/><rect class="cls-3" x="95.47" y="47.67" width="25" height="73.11"/><polyline class="cls-4" points="9.73 57.56 44.51 41.24 64.59 64.59 110.73 21.24"/><polyline class="cls-5" points="96.93 19.78 111.36 19.78 111.36 34.22"/></svg>