<svg id="Layer_1" data-name="Layer 1" xmlns="http://www.w3.org/2000/svg" xmlns:xlink="http://www.w3.org/1999/xlink" viewBox="0 0 140.91 146.1"><defs><style>.cls-1{fill:none;stroke:#666;stroke-miterlimit:10;stroke-width:4px;}.cls-2{fill:url(#linear-gradient);}.cls-3{fill:url(#linear-gradient-2);}</style><linearGradient id="linear-gradient" x1="86.37" y1="67.98" x2="104.07" y2="67.98" gradientUnits="userSpaceOnUse"><stop offset="0" stop-color="#206fb3"/><stop offset="1" stop-color="#0ab4bb"/></linearGradient><linearGradient id="linear-gradient-2" x1="36.84" y1="67.98" x2="54.54" y2="67.98" xlink:href="#linear-gradient"/></defs><title>Retail</title><path class="cls-1" d="M157.34,171.1H42.66c-7,0-12.31-6.14-10.88-12.69L48.16,83.62A11,11,0,0,1,59,75.22H141a11,11,0,0,1,10.88,8.4l16.38,74.79C169.65,165,164.39,171.1,157.34,171.1Z" transform="translate(-29.54 -27)"/><path class="cls-1" d="M75.23,88.77v-35A24.84,24.84,0,0,1,100,29h0a24.84,24.84,0,0,1,24.77,24.77v35" transform="translate(-29.54 -27)"/><circle class="cls-2" cx="95.22" cy="67.98" r="8.85"/><circle class="cls-3" cx="45.69" cy="67.98" r="8.85"/></svg>