<svg id="Layer_5" enable-background="new 0 0 64 64" height="512" viewBox="0 0 64 64" width="512" xmlns="http://www.w3.org/2000/svg"><g><g><g><circle cx="52" cy="12" fill="#e6e9ed" r="10"/></g><g><circle cx="12" cy="12" fill="#e6e9ed" r="10"/></g><g><path d="m12 14c3.29 0 6.04 2.27 6.79 5.33-1.78 1.66-4.17 2.67-6.79 2.67s-5.01-1.01-6.79-2.67c.75-3.06 3.5-5.33 6.79-5.33z" fill="#fcd770"/></g><g><path d="m52 14c3.29 0 6.04 2.27 6.79 5.33-1.78 1.66-4.17 2.67-6.79 2.67s-5.01-1.01-6.79-2.67c.75-3.06 3.5-5.33 6.79-5.33z" fill="#fcd770"/></g><g><circle cx="12" cy="10" fill="#f0d0b4" r="4"/></g><g><circle cx="52" cy="10" fill="#f0d0b4" r="4"/></g><g><path d="m49 34v12h-8.16-3.84v-12h4z" fill="#e6e9ed"/></g><g><path d="m37 34v12h-8v-16h-4v-8h16v12z" fill="#dfb28b"/></g><g><path d="m29 30v16h-5.84-6.16v-16h8z" fill="#ccd1d9"/></g><g><path d="m49 46h9.53c-1.59 3.01-3.67 5.71-6.14 8.01l-.01-.01h-13.59c.83-2.29 1.52-4.99 2.05-8z" fill="#69d6f4"/></g><g><path d="m52.38 54 .01.01c-5.35 4.95-12.52 7.99-20.39 7.99 2.63 0 5.02-3.04 6.79-8z" fill="#69d6f4"/></g><g><path d="m25.21 54h13.58c-1.77 4.96-4.16 8-6.79 8s-5.02-3.04-6.79-8z" fill="#69d6f4"/></g><g><path d="m37 46h3.84c-.53 3.01-1.22 5.71-2.05 8h-13.58c-.83-2.29-1.52-4.99-2.05-8h5.84z" fill="#69d6f4"/></g><g><path d="m25.21 54c1.77 4.96 4.16 8 6.79 8-7.87 0-15.04-3.04-20.39-7.99l.01-.01z" fill="#69d6f4"/></g><g><path d="m25.21 54h-13.59l-.01.01c-2.47-2.3-4.55-5-6.14-8.01h11.53 6.16c.53 3.01 1.22 5.71 2.05 8z" fill="#69d6f4"/></g></g><g><path d="m50 33h-8v-12h-18v8h-8v16h-12.193l.776 1.468c5.393 10.197 15.898 16.532 27.417 16.532s22.024-6.335 27.417-16.532l.776-1.468h-10.193zm-2 12h-10v-10h10zm-16 16c-1.874 0-3.766-2.237-5.325-6h10.65c-1.559 3.763-3.451 6-5.325 6zm7.49-6h10.168c-3.861 2.968-8.439 4.934-13.343 5.667 1.177-1.349 2.248-3.257 3.175-5.667zm-11.804 5.667c-4.904-.734-9.482-2.7-13.343-5.667h10.167c.927 2.41 1.998 4.318 3.176 5.667zm-1.759-7.667c-.598-1.771-1.127-3.786-1.563-6h5.636 6 3.635c-.436 2.214-.964 4.229-1.563 6zm.073-30h14v10h-4v12h-6v-16h-4zm-8 8h10v14h-10zm-10.818 16h8.818 6.329c.417 2.201.913 4.211 1.481 6h-11.807c-1.842-1.757-3.47-3.764-4.821-6zm49.636 0c-1.351 2.236-2.98 4.243-4.822 6h-11.807c.568-1.789 1.064-3.799 1.481-6h8.33z"/><path d="m12 23c6.065 0 11-4.935 11-11s-4.935-11-11-11-11 4.935-11 11 4.935 11 11 11zm-5.632-3.991c.837-2.381 3.065-4.009 5.632-4.009s4.795 1.628 5.632 4.009c-1.544 1.243-3.501 1.991-5.632 1.991s-4.088-.748-5.632-1.991zm2.632-9.009c0-1.654 1.346-3 3-3s3 1.346 3 3-1.346 3-3 3-3-1.346-3-3zm3-7c4.962 0 9 4.037 9 9 0 2.045-.694 3.927-1.847 5.44-.822-1.661-2.184-2.97-3.841-3.723 1.027-.916 1.688-2.235 1.688-3.717 0-2.757-2.243-5-5-5s-5 2.243-5 5c0 1.482.661 2.801 1.688 3.717-1.657.753-3.019 2.062-3.841 3.723-1.153-1.513-1.847-3.395-1.847-5.44 0-4.963 4.038-9 9-9z"/><path d="m52 23c6.065 0 11-4.935 11-11s-4.935-11-11-11-11 4.935-11 11 4.935 11 11 11zm-5.632-3.991c.837-2.381 3.065-4.009 5.632-4.009s4.795 1.628 5.632 4.009c-1.544 1.243-3.501 1.991-5.632 1.991s-4.088-.748-5.632-1.991zm2.632-9.009c0-1.654 1.346-3 3-3s3 1.346 3 3-1.346 3-3 3-3-1.346-3-3zm3-7c4.962 0 9 4.037 9 9 0 2.045-.694 3.927-1.847 5.44-.822-1.661-2.184-2.97-3.841-3.723 1.027-.916 1.688-2.235 1.688-3.717 0-2.757-2.243-5-5-5s-5 2.243-5 5c0 1.482.661 2.801 1.688 3.717-1.657.753-3.019 2.062-3.841 3.723-1.153-1.513-1.847-3.395-1.847-5.44 0-4.963 4.038-9 9-9z"/><path d="m31 6.414v8.586h2v-8.586l3.293 3.293 1.414-1.414-5.707-5.707-5.707 5.707 1.414 1.414z"/><path d="m31 17h2v2h-2z"/><path d="m54.293 25.707 3.293 3.293h-9.586v2h9.586l-3.293 3.293 1.414 1.414 5.707-5.707-5.707-5.707z"/><path d="m9.707 34.293-3.293-3.293h7.586v-2h-7.586l3.293-3.293-1.414-1.414-5.707 5.707 5.707 5.707z"/><path d="m32 33h2v2h-2z"/><path d="m32 25h2v2h-2z"/><path d="m32 41h2v2h-2z"/><path d="m32 37h2v2h-2z"/><path d="m32 29h2v2h-2z"/><path d="m36 29h2v2h-2z"/><path d="m36 25h2v2h-2z"/><path d="m28 25h2v2h-2z"/><path d="m20 33h2v2h-2z"/><path d="m24 33h2v2h-2z"/><path d="m24 37h2v2h-2z"/><path d="m20 37h2v2h-2z"/><path d="m24 41h2v2h-2z"/><path d="m20 41h2v2h-2z"/><path d="m44 37h2v2h-2z"/><path d="m40 37h2v2h-2z"/><path d="m44 41h2v2h-2z"/><path d="m40 41h2v2h-2z"/></g></g></svg>