<svg id="_x33_0" enable-background="new 0 0 64 64" height="512" viewBox="0 0 64 64" width="512" xmlns="http://www.w3.org/2000/svg"><g><g><g><path d="m57 52h-46c-.552 0-1-.448-1-1v-20c0-.552.448-1 1-1h46c.552 0 1 .448 1 1v20c0 .552-.448 1-1 1z" fill="#69d6f4"/></g><g><circle cx="47" cy="41" fill="#4fc1e9" r="7"/></g><g><path d="m36 41v11h-8v-11c0-.55.45-1 1-1h1 4 1c.55 0 1 .45 1 1z" fill="#d3a06c"/></g><g><path d="m20 18c0 4.04 1.99 7.61 5.05 9.79 1.96 1.39 4.36 2.21 6.95 2.21s4.99-.82 6.95-2.21c3.06-2.18 5.05-5.75 5.05-9.79 0-6.63-5.37-12-12-12-4.17 0-7.85 2.13-10 5.36v-5.85c2.74-2.2 6.22-3.51 10-3.51 8.84 0 16 7.16 16 16 0 2.92-.78 5.65-2.14 8-.87 1.51-1.98 2.86-3.27 4 0 .01-.01 0-.01 0-2.35 2.08-5.31 3.47-8.58 3.88-.66.08-1.32.12-2 .12s-1.34-.04-2-.12c-3.27-.41-6.23-1.8-8.58-3.88 0 0-.01.01-.01 0-1.29-1.14-2.4-2.49-3.27-4-1.36-2.35-2.14-5.08-2.14-8 0-.22 0-.43.01-.65l1.59 2.12c.25.33.65.53 1.07.53.73 0 1.33-.6 1.33-1.33z" fill="#fcd770"/></g><g><path d="m32 6c-4.176 0-7.851 2.136-10 5.372v3.628c0 .55-.45 1-1 1h-.82c-.11.652-.18 1.317-.18 2 0 6.627 5.373 12 12 12s12-5.373 12-12-5.373-12-12-12z" fill="#69d6f4"/></g><g><path d="m38.21 24.85.74 2.94c-1.96 1.39-4.36 2.21-6.95 2.21s-4.99-.82-6.95-2.21l.74-2.94c.47-1.87 1.73-3.38 3.38-4.19l.34 1.4c.29 1.14 1.31 1.94 2.49 1.94s2.2-.8 2.49-1.94l.34-1.4c.39.2.76.43 1.11.7 1.1.85 1.92 2.06 2.27 3.49z" fill="#ff826e"/></g><g fill="#e6e9ed"><path d="m58 26h-12.14c-.87 1.51-1.98 2.86-3.27 4h14.41c.55 0 1 .45 1 1v20c0 .55-.45 1-1 1h-21-8-17c-.55 0-1-.45-1-1v-20c0-.55.45-1 1-1h10.41c-1.29-1.14-2.4-2.49-3.27-4h-12.14c-2.21 0-4 1.79-4 4v24c0 .67.05 1.34.16 2h.01c.1.64.25 1.28.46 1.9.82 2.45 3.11 4.1 5.69 4.1h47.36c1.29 0 2.51-.41 3.5-1.13 1-.72 1.78-1.75 2.19-2.97.21-.62.36-1.26.46-1.9h.01c.11-.66.16-1.33.16-2v-24c0-2.21-1.79-4-4-4z"/><path d="m30 33.88v6.12h4v-6.12c-.66.08-1.32.12-2 .12s-1.34-.04-2-.12z"/><path d="m29.51 22.06c.29 1.14 1.31 1.94 2.49 1.94s2.2-.8 2.49-1.94l.34-1.4c-.86-.42-1.82-.66-2.83-.66s-1.97.24-2.83.66z"/><circle cx="32" cy="15" r="5"/><path d="m3 16h12l1.01 1.35 1.59 2.12c.25.33.65.53 1.07.53.73 0 1.33-.6 1.33-1.33v-.67-2h1c.55 0 1-.45 1-1v-3.64-5.85-.51c0-.55-.45-1-1-1h-18c-.55 0-1 .45-1 1v10c0 .55.45 1 1 1z"/></g></g><g><path d="m58 25h-10.526c.971-2.138 1.526-4.503 1.526-7 0-9.374-7.626-17-17-17-3.34 0-6.618.998-9.386 2.83-.364-.501-.949-.83-1.614-.83h-18c-1.103 0-2 .897-2 2v10c0 1.103.897 2 2 2h11.5l.506.675c-.001.109-.006.216-.006.325 0 2.497.555 4.862 1.526 7h-10.526c-2.757 0-5 2.243-5 5v24c0 1.435.23 2.852.685 4.214.953 2.862 3.622 4.786 6.639 4.786h47.352c3.018 0 5.687-1.924 6.64-4.786.454-1.362.684-2.779.684-4.214v-24c0-2.757-2.243-5-5-5zm-11-7c0 8.271-6.729 15-15 15-7.421 0-13.583-5.421-14.775-12.507.408.32.915.507 1.442.507.234 0 .455-.045.668-.109 1.32 5.779 6.492 10.109 12.665 10.109 7.168 0 13-5.832 13-13s-5.832-13-13-13c-3.403 0-6.603 1.335-9 3.642v-2.628c2.611-1.966 5.708-3.014 9-3.014 8.271 0 15 6.729 15 15zm-25.932 13c2.229 1.878 4.947 3.184 7.932 3.719v4.281c-1.103 0-2 .897-2 2v10h-16v-20zm9.932 8v-4.051c.333.02.662.051 1 .051s.667-.031 1-.051v4.051zm-2 2h6v10h-6zm6-2v-4.281c2.985-.535 5.703-1.841 7.932-3.719h14.068v20h-20v-10c0-1.103-.897-2-2-2zm-7-24c0-2.206 1.794-4 4-4s4 1.794 4 4-1.794 4-4 4-4-1.794-4-4zm4 6c.575 0 1.129.099 1.653.267l-.137.55c-.175.697-.798 1.183-1.516 1.183s-1.341-.486-1.516-1.183l-.137-.55c.524-.168 1.078-.267 1.653-.267zm-3.464 1.269.008.034c.397 1.588 1.818 2.697 3.456 2.697s3.059-1.109 3.455-2.698l.008-.034c.852.714 1.494 1.683 1.78 2.824l.558 2.235c-1.686 1.054-3.67 1.673-5.801 1.673s-4.115-.619-5.802-1.672l.558-2.235c.287-1.141.928-2.111 1.78-2.824zm-5.536-7.269v-3.302c2.062-2.941 5.4-4.698 9-4.698 6.065 0 11 4.935 11 11 0 3.151-1.34 5.99-3.47 7.997l-.347-1.389c-.522-2.088-1.898-3.773-3.698-4.733 1.52-1.09 2.515-2.867 2.515-4.875 0-3.309-2.691-6-6-6s-6 2.691-6 6c0 2.008.995 3.785 2.515 4.875-1.8.96-3.176 2.645-3.698 4.734l-.347 1.389c-2.13-2.008-3.47-4.846-3.47-7.998v-1c1.103 0 2-.897 2-2zm-20 0v-10h18v10h-2v3.667c0 .289-.429.43-.601.2l-2.899-3.867zm0 15c0-1.654 1.346-3 3-3h11.604c.44.702.923 1.372 1.458 2h-8.062c-1.103 0-2 .897-2 2v20c0 1.103.897 2 2 2h46c1.103 0 2-.897 2-2v-20c0-1.103-.897-2-2-2h-12.062c.535-.628 1.017-1.298 1.458-2h11.604c1.654 0 3 1.346 3 3v24c0 .335-.018.668-.047 1h-57.906c-.029-.332-.047-.665-.047-1zm52.676 31h-47.352c-2.155 0-4.062-1.374-4.743-3.419-.064-.192-.115-.387-.168-.581h57.174c-.053.194-.104.389-.168.581-.682 2.045-2.588 3.419-4.743 3.419z"/><path d="m5 35h2v12h-2z"/><path d="m47 49c4.411 0 8-3.589 8-8s-3.589-8-8-8-8 3.589-8 8 3.589 8 8 8zm-4.46-4h1.255c.223.542.473 1.029.73 1.46-.759-.346-1.433-.846-1.985-1.46zm-1.54-4c0-.702.128-1.373.35-2h1.849c-.121.624-.199 1.288-.199 2s.078 1.376.199 2h-1.849c-.222-.627-.35-1.298-.35-2zm7.757-2c.15.612.243 1.28.243 2s-.092 1.388-.243 2h-3.514c-.15-.612-.243-1.28-.243-2s.093-1.388.243-2zm-2.749-2c.333-.635.692-1.148.992-1.522.3.374.659.888.992 1.522zm6.992 4c0 .702-.128 1.373-.35 2h-1.849c.121-.624.199-1.288.199-2s-.078-1.376-.199-2h1.849c.222.627.35 1.298.35 2zm-5.008 4c-.333.635-.692 1.149-.992 1.523-.3-.374-.659-.888-.992-1.523zm1.482 1.46c.257-.431.507-.918.73-1.46h1.255c-.551.614-1.225 1.114-1.985 1.46zm1.986-9.46h-1.255c-.223-.542-.473-1.029-.73-1.46.759.346 1.433.846 1.985 1.46zm-6.934-1.46c-.257.431-.507.918-.73 1.46h-1.256c.552-.614 1.226-1.114 1.986-1.46z"/><path d="m13 47h2v2h-2z"/><path d="m17 47h2v2h-2z"/><path d="m21 47h2v2h-2z"/><path d="m13 43h12v2h-12z"/><path d="m13 39h4v2h-4z"/><path d="m19 39h6v2h-6z"/><path d="m15 9h2v2h-2z"/><path d="m11 9h2v2h-2z"/><path d="m7 9h2v2h-2z"/><path d="m61 13h2v2h-2z"/><path d="m57 13h2v2h-2z"/><path d="m51 13h4v2h-4z"/><path d="m51 9h12v2h-12z"/><path d="m51 5h6v2h-6z"/><path d="m59 5h4v2h-4z"/></g></g></svg>