<svg id="Capa_1" enable-background="new 0 0 512.001 512.001" height="512" viewBox="0 0 512.001 512.001" width="512" xmlns="http://www.w3.org/2000/svg"><g><g><path d="m460.848 233.123c-1.049-10.253-2.889-20.531-5.548-30.751-.865-3.324.025-6.858 2.374-9.364l24.409-26.029c3.015-3.215 3.569-8.024 1.366-11.841l-28.738-49.775c-2.204-3.817-6.647-5.741-10.938-4.737l-34.998 8.187c-3.317.776-6.795-.198-9.241-2.57-7.524-7.3-15.566-13.979-24.037-20.008-2.798-1.992-4.388-5.27-4.199-8.7l1.971-35.629c.243-4.401-2.423-8.442-6.565-9.95l-54.011-19.654c-4.141-1.507-8.781-.125-11.423 3.401l-21.552 28.768c-2.047 2.732-5.344 4.221-8.749 3.969-10.337-.764-20.793-.742-31.284.095-3.423.273-6.747-1.217-8.806-3.965l-21.369-28.526c-2.643-3.528-7.283-4.909-11.425-3.401l-41.476 15.101-12.535 4.562c-4.142 1.507-6.808 5.548-6.565 9.949l1.984 35.889c.188 3.406-1.379 6.666-4.146 8.661-8.54 6.156-16.523 12.91-23.913 20.183-2.448 2.409-5.951 3.405-9.295 2.623l-34.702-8.117c-4.291-1.004-8.734.92-10.938 4.737l-28.738 49.775c-2.204 3.817-1.649 8.626 1.366 11.841l24.625 26.257c2.336 2.491 3.229 5.998 2.389 9.308-2.557 10.072-4.363 20.362-5.376 30.792-.332 3.418-2.381 6.429-5.447 7.974l-31.241 15.741c-3.912 1.971-6.086 6.259-5.363 10.579l9.521 56.957c.732 4.379 4.264 7.752 8.673 8.28l35.669 4.277c3.389.406 6.33 2.519 7.812 5.594 4.591 9.52 9.845 18.55 15.684 27.058 1.941 2.828 2.311 6.445.962 9.599l-14.015 32.761c-1.734 4.052-.611 8.76 2.765 11.593l44.02 36.947c3.376 2.834 8.21 3.123 11.899.711l30.153-19.705c2.856-1.866 6.463-2.139 9.575-.74 9.502 4.271 19.326 7.834 29.389 10.632 3.303.918 5.912 3.453 6.904 6.735l10.325 34.135c1.276 4.219 5.164 7.105 9.572 7.105h57.475c4.408 0 8.296-2.886 9.572-7.105l8.391-27.745 2.034-6.711c.989-3.263 3.575-5.786 6.855-6.717 1.529-.434 3.056-.885 4.581-1.352l151.25-115.99 17.216-2.068c4.402-.529 7.931-3.893 8.668-8.265l9.608-56.962c.73-4.33-1.449-8.629-5.373-10.6l-31.597-15.868c-3.057-1.536-5.105-4.528-5.454-7.931zm-203.101 113.597c-52.193.968-94.698-41.538-93.73-93.73.912-49.188 41.049-89.325 90.237-90.237 52.193-.968 94.698 41.538 93.73 93.73-.912 49.188-41.049 89.325-90.237 90.237z" fill="#2b597f"/></g><path d="m256.501 112.237c-78.42 0-142 63.58-142 142s63.58 142 142 142c1.09 0 2.17-.01 3.25-.04 76.62-1.72 138.27-64.14 138.75-141.05v-.91c0-78.42-63.58-142-142-142zm6.59 222.73c-2.17.18-4.37.27-6.59.27-44.74 0-81-36.26-81-81s36.26-81 81-81 81 36.26 81 81c0 1.78-.06 3.55-.18 5.3-2.58 40.09-34.32 72.22-74.23 75.43z" fill="#f5f5f5"/><path d="m134.501 254.237c0-75.06 58.24-136.52 132-141.65-3.3-.23-6.64-.35-10-.35-78.42 0-142 63.58-142 142s63.58 142 142 142c1.09 0 2.17-.01 3.25-.04 2.25-.05 4.49-.15 6.71-.31-73.74-5.15-131.96-66.61-131.96-141.65z" fill="#e6e6e6"/><path d="m432.265 449.166 19.8-19.8 47.65 48.368c5.666 5.557 5.72 14.659.121 20.258-5.556 5.556-14.573 5.552-20.148-.01z" fill="#6b96ae"/><path d="m451.372 428.642-19.988 19.584 25.436 26.215 19.777-20.175z" fill="#2b597f"/><path d="m314.741 310.517v73.26c-16.84 7.58-35.43 11.98-54.99 12.42-1.65-7.85-2.51-15.99-2.51-24.32 0-12.61 1.96-25.02 5.85-36.91 20.23-1.63 38.36-10.68 51.65-24.45z" fill="#e6e6e6"/><path d="m277.241 371.875c0-11.513 1.968-22.567 5.586-32.843 13.54-38.456 50.189-66.019 93.275-66.019 54.6 0 98.861 44.262 98.861 98.861s-44.262 98.861-98.861 98.861-98.861-44.26-98.861-98.86z" fill="#50758d"/><path d="m446.391 371.877c0 12.65-3.35 24.52-9.21 34.78-.45.79-.91 1.56-1.39 2.33-12.39 19.92-34.49 33.18-59.69 33.18-38.82 0-70.28-31.47-70.28-70.29 0-8.19 1.39-16.05 3.97-23.35 3.56-10.12 9.38-19.18 16.84-26.58 1.28-1.27 2.61-2.49 3.98-3.65 12.26-10.43 28.14-16.71 45.49-16.71 38.82 0 70.29 31.47 70.29 70.29z" fill="#27bdf3"/><path d="m446.391 371.877c0 12.65-3.35 24.52-9.21 34.78-12.26 10.45-28.15 16.74-45.51 16.74-38.81 0-70.28-31.47-70.28-70.29 0-8.18 1.4-16.04 3.97-23.35 1.41-4 3.17-7.83 5.25-11.46 12.26-10.43 28.14-16.71 45.49-16.71 38.82 0 70.29 31.47 70.29 70.29z" fill="#2edffc"/></g><g><path d="m376.103 294.088c-32.956 0-62.449 20.876-73.39 51.946-2.918 8.288-4.397 16.981-4.397 25.841 0 42.892 34.896 77.786 77.787 77.786s77.786-34.895 77.786-77.786-34.894-77.787-77.786-77.787zm0 140.573c-34.621 0-62.787-28.166-62.787-62.786 0-7.158 1.193-14.176 3.546-20.858 8.83-25.079 32.638-41.929 59.241-41.929 34.62 0 62.786 28.166 62.786 62.787 0 34.62-28.166 62.786-62.786 62.786z"/><path d="m504.912 468.647-39.057-40.016c10.392-16.428 16.417-35.883 16.417-56.722 0-10.54-1.543-20.861-4.512-30.73l15.358-1.842c3.301-.396 5.948-2.919 6.5-6.2l12.073-71.63c.548-3.247-1.086-6.472-4.028-7.95l-39.406-19.801c-1.116-11.628-3.207-23.23-6.235-34.595l30.416-32.446c2.26-2.411 2.676-6.019 1.024-8.882l-36.145-62.636c-1.652-2.864-4.982-4.309-8.2-3.553l-43.54 10.188c-4.377-4.307-8.991-8.467-13.733-12.381-4.126-3.409-8.443-6.707-12.831-9.806-.151-.107-.304-.214-.455-.321l2.453-44.408c.183-3.301-1.817-6.332-4.921-7.463l-67.93-24.738c-3.105-1.131-6.583-.095-8.565 2.552l-26.805 35.807c-11.67-.941-23.468-.904-35.181.104l-26.629-35.566c-1.981-2.646-5.456-3.684-8.565-2.552l-67.931 24.737c-3.104 1.131-5.103 4.162-4.921 7.463l2.468 44.672c-9.551 6.792-18.567 14.404-26.886 22.699l-43.247-10.119c-3.218-.757-6.548.69-8.2 3.553l-36.146 62.635c-1.652 2.863-1.236 6.47 1.024 8.882l30.622 32.666c-2.959 11.358-4.984 22.974-6.04 34.638l-39.034 19.676c-2.932 1.479-4.563 4.695-4.021 7.935l11.965 71.615c.549 3.285 3.197 5.815 6.502 6.211l44.443 5.331c5.032 10.616 10.945 20.822 17.631 30.434l-17.47 40.848c-1.299 3.039-.458 6.572 2.073 8.696l55.378 46.491c2.533 2.127 6.156 2.343 8.92.533l37.493-24.513c10.683 4.887 21.76 8.898 33.026 11.957l12.871 42.558c.957 3.164 3.872 5.329 7.176 5.329h72.291c3.304 0 6.219-2.164 7.176-5.329l12.966-42.868c.841-.233 1.673-.492 2.513-.735 17.26 12.11 38.262 19.228 60.897 19.228 20.645 0 39.93-5.924 56.259-16.153l38.818 40.501c8.904 9.425 25.058 9.49 34.016.115 9.333-8.99 9.255-25.176-.135-34.099zm-220.284-96.737c0-10.415 1.736-20.628 5.159-30.354 12.844-36.496 47.471-61.015 86.167-61.015 18.302 0 35.956 5.394 51.056 15.6 3.43 2.319 8.092 1.416 10.409-2.017 2.317-3.432 1.415-8.095-2.016-10.414-9.385-6.343-19.62-11.073-30.359-14.122.517-5.082.795-10.212.795-15.327 0-82.442-67.039-149.514-149.441-149.514-17.278 0-34.215 2.926-50.341 8.698-3.898 1.395-5.928 5.688-4.533 9.589s5.686 5.932 9.584 4.536c14.5-5.19 29.738-7.821 45.291-7.821 74.134 0 134.447 60.343 134.447 134.513 0 4.088-.207 8.184-.574 12.253-4.718-.636-9.497-.974-14.318-.974-11.275 0-22.254 1.789-32.612 5.137 1.009-5.38 1.522-10.864 1.522-16.416 0-48.803-39.685-88.508-88.465-88.508s-88.465 39.705-88.465 88.508c0 18.954 5.902 37.029 17.069 52.271 2.461 3.363 7.173 4.049 10.478 1.615 3.339-2.448 4.063-7.142 1.615-10.483-9.269-12.653-14.168-27.661-14.168-43.403 0-40.532 32.959-73.507 73.471-73.507s73.471 32.975 73.471 73.507c0 8.187-1.34 16.191-3.961 23.84-18.888 10.095-34.587 25.795-44.59 45.318-7.971 2.877-16.338 4.349-24.919 4.349-12.41 0-24.672-3.151-35.459-9.11-3.625-2.003-8.186-.688-10.187 2.94-2.001 3.626-.686 8.19 2.938 10.192 13.001 7.183 27.769 10.98 42.708 10.98 6.037 0 11.987-.618 17.811-1.81-3.036 9.999-4.576 20.388-4.576 30.951 0 5.468.416 10.841 1.215 16.089-4.79.511-9.624.773-14.45.773-74.134 0-134.447-60.343-134.447-134.513 0-44.894 22.268-86.665 59.568-111.738 3.437-2.311 4.351-6.97 2.042-10.409-2.31-3.438-6.968-4.353-10.404-2.043-41.452 27.864-66.2 74.29-66.2 124.19 0 82.442 67.039 149.514 149.441 149.514 5.942 0 11.9-.358 17.788-1.055 5.261 17.362 14.848 32.858 27.502 45.231-1.059.914-1.868 2.111-2.287 3.495l-12.563 41.539h-61.162l-12.478-41.255c-.764-2.527-2.8-4.465-5.359-5.105-13.072-3.267-25.908-7.913-38.151-13.809-2.365-1.138-5.153-.957-7.353.48l-36.335 23.756-46.853-39.334 16.935-39.597c1.038-2.428.724-5.223-.828-7.359-7.939-10.934-14.788-22.755-20.356-35.134-1.079-2.399-3.335-4.057-5.945-4.37l-43.024-5.161-10.128-60.624 37.865-19.086c2.36-1.191 3.92-3.536 4.105-6.175.945-13.49 3.29-26.95 6.972-40.004.715-2.531.052-5.25-1.746-7.169l-29.68-31.659 30.582-52.994 41.931 9.811c2.573.605 5.272-.195 7.107-2.1 9.41-9.772 19.85-18.588 31.028-26.2 2.173-1.48 3.413-3.99 3.267-6.615l-2.392-43.294 57.474-20.929 25.817 34.483c1.584 2.115 4.164 3.243 6.793 2.962 13.505-1.438 27.166-1.478 40.603-.121 2.612.262 5.177-.862 6.753-2.966l25.98-34.701 57.473 20.93-2.379 43.06c-.146 2.642 1.109 5.165 3.304 6.64 11.244 7.563 21.741 16.299 31.195 25.984 1.833 1.877 4.514 2.66 7.069 2.062l42.191-9.873 30.581 52.994-29.491 31.46c-1.808 1.929-2.467 4.667-1.736 7.209 3.766 13.073 6.189 26.517 7.202 39.959.198 2.627 1.758 4.957 4.111 6.139l38.205 19.196-10.221 60.634-13.538 1.624c-2.734-5.814-5.996-11.412-9.799-16.722-2.413-3.368-7.097-4.138-10.462-1.728-3.365 2.413-4.138 7.099-1.727 10.467 11.147 15.561 17.038 33.943 17.038 53.157 0 50.382-40.968 91.37-91.325 91.37s-91.325-40.987-91.325-91.368zm172.21 68.955 8.928 9.147-12.723 12.176-8.608-8.982c4.462-3.769 8.612-7.897 12.403-12.341zm37.587 51.29c-3.325 3.476-9.283 3.474-12.634.028l-18.371-19.167 12.822-12.27 17.989 18.431c3.648 3.336 3.76 9.548.194 12.978z"/></g></svg>