<svg id="Layer_5" enable-background="new 0 0 64 64" height="512" viewBox="0 0 64 64" width="512" xmlns="http://www.w3.org/2000/svg"><path d="m18 47c2.92 0 5.65-.78 8-2.14v16.14l-8-4-8 4v-16.14c2.35 1.36 5.08 2.14 8 2.14z" fill="#fcd770"/><path d="m40 2c-8.986 0-16.708 5.39-20.124 13.111 4.077.471 7.695 2.49 10.244 5.439.9 1.04 1.67 2.2 2.27 3.45 1.03 2.11 1.61 4.49 1.61 7 0 1.38-.17 2.72-.5 4-.28 1.09-.67 2.13-1.17 3.12-.9 1.81-2.13 3.42-3.61 4.76-.002.002-.004.003-.006.005 3.3 1.976 7.159 3.115 11.286 3.115 12.15 0 22-9.85 22-22s-9.85-22-22-22z" fill="#69d6f4"/><path d="m30.12 20.55c.9 1.04 1.67 2.2 2.27 3.45 1.03 2.11 1.61 4.49 1.61 7 0 1.38-.17 2.72-.5 4-.28 1.09-.67 2.13-1.17 3.12-.9 1.81-2.13 3.42-3.61 4.76-.83.75-1.74 1.42-2.72 1.98-2.35 1.36-5.08 2.14-8 2.14s-5.65-.78-8-2.14c-4.78-2.76-8-7.94-8-13.86 0-8.84 7.16-16 16-16 .63 0 1.26.04 1.87.11 4.08.47 7.7 2.49 10.25 5.44z" fill="#fcd770"/><path d="m51 53-2-2-2-2-2 2-4 4-4 4v3h4 4 4 4v-11z" fill="#b4dd7f"/><path d="m60 44-2 6-2-2-2-2z" fill="#fcd770"/><path d="m11 35h-2v-8h2v-2h-6v2h2v8h-2v2h6z"/><path d="m21 29c0-2.206-1.794-4-4-4h-4v12h2v-4h2c2.206 0 4-1.794 4-4zm-6-2h2c1.103 0 2 .897 2 2s-.897 2-2 2h-2z"/><path d="m23 29v4c0 2.206 1.794 4 4 4s4-1.794 4-4v-4c0-2.206-1.794-4-4-4s-4 1.794-4 4zm6 0v4c0 1.103-.897 2-2 2s-2-.897-2-2v-4c0-1.103.897-2 2-2s2 .897 2 2z"/><path d="m28.83 44.092c3.408 1.897 7.25 2.908 11.17 2.908 12.683 0 23-10.317 23-23 0-12.682-10.317-23-23-23-8.859 0-16.908 5.109-20.726 13.065-.422-.032-.844-.065-1.274-.065-9.374 0-17 7.626-17 17 0 6.067 3.205 11.387 8 14.396v17.222l9-4.5 9 4.5v-17.222c.637-.4 1.254-.826 1.83-1.304zm11.17-41.092c2.983 0 5.677 3.605 7.325 9h-14.64c1.673-5.408 4.406-9 7.315-9zm7.873 11c.648 2.713 1.036 5.776 1.105 9h-15.986c-.524-.978-1.139-1.9-1.837-2.752.178-2.217.515-4.321.982-6.248zm13.076 9h-9.961c-.063-3.231-.43-6.271-1.045-9h8.519c1.467 2.697 2.333 5.757 2.487 9zm0 2c-.154 3.243-1.02 6.303-2.487 9h-8.519c.616-2.729.982-5.769 1.045-9zm-11.971 0c-.069 3.224-.457 6.287-1.105 9h-13.154c.174-.976.281-1.975.281-3 0-2.114-.406-4.131-1.114-6zm-8.978 20c-2.423 0-4.866-2.564-6.587-6.873.319-.688.608-1.393.834-2.127h13.078c-1.648 5.395-4.342 9-7.325 9zm-7.808-4.665c.767 1.61 1.643 2.949 2.596 3.999-1.536-.393-3.026-.954-4.439-1.686.677-.717 1.298-1.487 1.843-2.313zm13.046 3.977c1.738-1.928 3.185-4.799 4.194-8.312h7.776c-2.832 4.05-7.054 7.043-11.97 8.312zm11.971-32.312h-7.776c-1.009-3.513-2.456-6.384-4.194-8.312 4.915 1.269 9.137 4.262 11.97 8.312zm-22.378-8.34c-1.749 1.92-3.214 4.793-4.24 8.34h-7.807c2.891-4.144 7.177-7.099 12.047-8.34zm-13.29 10.34h8.535c-.313 1.379-.569 2.831-.749 4.359-2.214-1.986-4.938-3.412-7.962-4.022.058-.112.116-.226.176-.337zm-18.541 17c0-8.271 6.729-15 15-15s15 6.729 15 15-6.729 15-15 15-15-6.729-15-15zm22 28.382-6-3v-6.382h-2v6.382l-6 3v-12.908c2.138.971 4.503 1.526 7 1.526s4.862-.555 7-1.526z"/><path d="m9.859 38.396-1.48 1.346c.484.533 1.018 1.029 1.583 1.475l1.238-1.57c-.479-.378-.93-.798-1.341-1.251z"/><path d="m18 42c-.609 0-1.225-.051-1.826-.15l-.328 1.973c.711.117 1.435.177 2.154.177z"/><path d="m11.768 42.41c.634.347 1.3.643 1.979.878l.654-1.891c-.575-.198-1.138-.448-1.675-.741z"/><path d="m20.155 18.178c-.706-.118-1.431-.178-2.155-.178v2c.613 0 1.228.051 1.825.151z"/><path d="m26.141 23.603 1.48-1.345c-.483-.532-1.017-1.028-1.583-1.475l-1.238 1.571c.48.378.931.798 1.341 1.249z"/><path d="m24.232 19.589c-.634-.347-1.3-.642-1.979-.877l-.654 1.89c.575.199 1.138.449 1.675.742z"/><path d="m55.579 17.185 1.832-.803c-.282-.643-.603-1.276-.954-1.883l-1.73 1.002c.313.542.6 1.109.852 1.684z"/><path d="m56.695 20.785 1.965-.378c-.134-.692-.306-1.38-.513-2.047l-1.91.593c.186.596.339 1.212.458 1.832z"/><path d="m58.885 26.11-1.988-.221c-.069.627-.174 1.254-.312 1.862l1.951.44c.153-.68.271-1.38.349-2.081z"/><path d="m57.155 32.174c.302-.632.572-1.289.802-1.953l-1.889-.655c-.206.593-.447 1.18-.718 1.746z"/><path d="m37 16h2v2h-2z"/><path d="m41 16h2v2h-2z"/><path d="m33 16h2v2h-2z"/><path d="m37 27h2v2h-2z"/><path d="m41 27h2v2h-2z"/><path d="m45 27h2v2h-2z"/><path d="m54.586 48-3.586 3.586-4-4-11 11v2.414h-2v2h22v-2h-2v-9.586l2-2 2.438 2.438 3.144-9.433-9.433 3.144zm-6.586 3.414v9.586h-2v-9.586l1-1zm-4 9.586h-2v-5.586l2-2zm-6-1.586 2-2v3.586h-2zm14 1.586h-2v-7.586l1 1 1-1zm6.419-15.419-.856 2.567-1.711-1.711z"/></svg>