<svg id="Capa_1" enable-background="new 0 0 503.63 503.63" height="512" viewBox="0 0 503.63 503.63" width="512" xmlns="http://www.w3.org/2000/svg"><g><g><path d="m457.487 60.277v408.663c0 17.327-13.688 31.359-30.55 31.359h-302.951c-11.878 0-22.169-6.955-27.214-17.115-2.133-4.266-3.336-9.108-3.336-14.244v-4.266l.344-.475h238v-68.854c0-7.612 6.227-13.758 13.9-13.758h67.327v-346.087c0-2.254-.253-4.458-.718-6.581h14.648c1.446 0 2.871.101 4.266.303 14.841 2.133 26.284 15.214 26.284 31.055z" fill="#cdbfba"/><path d="m409.974 36.511v346.088h-66.772c-7.61 0-13.786 6.146-13.786 13.758v68.854h-253.764c-16.914 0-30.619-13.678-30.619-30.55v-398.15c0-16.872 13.705-30.55 30.619-30.55h303.693c14.638 0 26.889 10.261 29.917 23.969.461 2.122.712 4.326.712 6.581z" fill="#f9f3f1"/><path d="m347.338 66.555v180.277c0 7.309-5.914 13.223-13.213 13.223h-5.51c-7.299 0-13.213-5.914-13.213-13.223v-180.277c0-7.299 5.914-13.213 13.213-13.213h5.51c7.299 0 13.213 5.914 13.213 13.213z" fill="#8ac9fe"/><path d="m315.403 143.445h31.935v80.085h-31.935z" fill="#fe646f"/><path d="m409.974 381.011-.367.374-76.858 79.711-4.659 4.832v-70.471c0-4.842 2.325-9.118 5.883-11.727 2.325-1.719 5.167-2.719 8.226-2.719z" fill="#e1d3ce"/><path d="m174.844 173.816h61.591c6.807 0 11.954 6.091 10.913 12.818-6.253 40.385-41.53 71.718-83.552 71.718-46.375 0-84.536-38.161-84.536-84.536 0-42.022 31.333-77.299 71.718-83.552 6.727-1.042 12.818 4.105 12.818 10.913v61.591c0 6.101 4.946 11.048 11.048 11.048z" fill="#8ac9fe"/><path d="m191.26 135.081v-62.744c0-6.783 6.051-11.933 12.759-10.922 17.998 2.713 34.797 11.114 47.82 24.136 16.06 16.06 25.092 37.866 25.092 60.579h-74.623c-6.101 0-11.048-4.947-11.048-11.049z" fill="#ffe177"/><path d="m105.655 465.212h-30c-16.92 0-30.62-13.68-30.62-30.55v-398.15c0-16.87 13.7-30.55 30.62-30.55h30c-16.92 0-30.62 13.68-30.62 30.55v398.15c0 16.87 13.7 30.55 30.62 30.55z" fill="#e1d3ce"/></g><g><path d="m165.515 85.681c-4.109-3.521-9.54-5.068-14.901-4.235-44.066 6.822-77.296 45.54-77.296 90.061 0 24.19 9.52 47.032 26.805 64.318s40.127 26.805 64.318 26.805c44.521 0 83.239-33.23 90.061-77.296.83-5.361-.713-10.792-4.235-14.901-3.5-4.083-8.593-6.426-13.972-6.426h-60.925c-1.891 0-3.429-1.538-3.429-3.429v-60.926c0-5.379-2.343-10.471-6.426-13.971zm9.855 93.326h60.925c1.361 0 2.202.744 2.583 1.188.393.458 1.019 1.437.801 2.844-5.701 36.823-38.046 64.591-75.238 64.591-41.975 0-76.123-34.148-76.123-76.123 0-37.191 27.768-69.537 64.591-75.238.2-.031.391-.045.573-.045 1.102 0 1.878.509 2.271.846.443.38 1.188 1.221 1.188 2.583v60.925c0 10.162 8.267 18.429 18.429 18.429z"/><path d="m456.37 411.63c4.142 0 7.5-3.358 7.5-7.5v-345.07c0-20.799-16.917-37.72-37.71-37.72h-15.027c-6.11-12.617-19.046-21.34-33.983-21.34h-299.67c-20.799 0-37.72 16.921-37.72 37.72v140.91c0 4.142 3.358 7.5 7.5 7.5s7.5-3.358 7.5-7.5v-140.91c0-12.528 10.192-22.72 22.72-22.72h299.67c12.533 0 22.73 10.192 22.73 22.72v334.85h-58.39c-11.64 0-21.11 9.47-21.11 21.11v60.61h-242.9c-12.528 0-22.72-10.188-22.72-22.71v-218.95c0-4.142-3.358-7.5-7.5-7.5s-7.5 3.358-7.5 7.5v218.95c0 20.793 16.921 37.71 37.72 37.71h11.429c1.716 19.22 17.902 34.34 37.56 34.34h299.69c20.793 0 37.71-16.921 37.71-37.72v-26.78c0-4.142-3.358-7.5-7.5-7.5s-7.5 3.358-7.5 7.5v26.78c0 12.528-10.188 22.72-22.71 22.72h-299.689c-11.379 0-20.829-8.41-22.467-19.34h223.787c.031 0 .063.004.094.004 1.954 0 3.906-.759 5.376-2.271l79.496-81.721c1.346-1.384 2.124-3.303 2.124-5.233v-343.729h11.28c12.522 0 22.71 10.192 22.71 22.72v345.07c0 4.142 3.358 7.5 7.5 7.5zm-114.88-24.06h48.135l-54.245 55.763v-49.653c0-3.369 2.741-6.11 6.11-6.11z"/><path d="m337.672 349.486c0-4.142-3.358-7.5-7.5-7.5h-231.631c-4.142 0-7.5 3.358-7.5 7.5s3.358 7.5 7.5 7.5h231.631c4.142 0 7.5-3.358 7.5-7.5z"/><path d="m96.254 379.718c-4.142 0-7.5 3.358-7.5 7.5s3.358 7.5 7.5 7.5h164.5c4.142 0 7.5-3.358 7.5-7.5s-3.358-7.5-7.5-7.5z"/><path d="m91.041 311.754c0 4.142 3.358 7.5 7.5 7.5h231.631c4.142 0 7.5-3.358 7.5-7.5s-3.358-7.5-7.5-7.5h-231.631c-4.142 0-7.5 3.358-7.5 7.5z"/><path d="m208.253 51.834c-5.344-.807-10.751.75-14.838 4.268-4.068 3.5-6.401 8.586-6.401 13.953v62.066c0 10.162 8.267 18.429 18.429 18.429h73.817c4.142 0 7.5-3.358 7.5-7.5 0-24.283-9.848-48.057-27.018-65.228-13.84-13.84-32.126-23.069-51.489-25.988zm-2.81 83.717c-1.894 0-3.429-1.535-3.429-3.429v-62.067c.285-2.542 1.619-3.479 4.003-3.389 16.215 2.444 31.528 10.173 43.118 21.763 12.162 12.162 19.937 28.28 22.044 45.267.122.987-.664 1.854-1.658 1.854h-64.078z"/><path d="m307.76 223.13c0 .023.003.045.003.068v21.894c0 9.697 6.751 17.827 15.794 19.991v14.063c0 4.142 3.358 7.5 7.5 7.5s7.5-3.358 7.5-7.5v-14.06c9.048-2.16 15.804-10.294 15.804-19.994v-151.676c4.579-.288 9.037 1.38 12.276 4.619 3.011 3.019 4.67 7.022 4.67 11.272v41.823c0 4.142 3.358 7.5 7.5 7.5s7.5-3.358 7.5-7.5v-41.823c0-8.25-3.214-16.015-9.057-21.872-5.84-5.841-13.604-9.057-21.862-9.057-.342 0-.685.011-1.027.023v-11.642c0-11.345-9.23-20.575-20.575-20.575h-5.448c-11.345 0-20.575 9.23-20.575 20.575v77.303c0 .023-.003.045-.003.068s.003.045.003.068v78.865c0 .022-.003.044-.003.067zm31.602-7.5h-16.598v-64h16.598zm-5.576 35.037h-5.448c-3.074 0-5.575-2.501-5.575-5.575v-14.462h16.598v14.461c.001 3.075-2.5 5.576-5.575 5.576zm-5.447-189.483h5.448c3.074 0 5.575 2.501 5.575 5.575v69.871h-16.598v-69.871c-.001-3.074 2.5-5.575 5.575-5.575z"/></g></g></svg>