<svg id="Layer_1" data-name="Layer 1" xmlns="http://www.w3.org/2000/svg" xmlns:xlink="http://www.w3.org/1999/xlink" viewBox="0 0 100 100"><defs><style>.cls-1{fill:#008761;}.cls-2{clip-path:url(#clip-path);}</style><clipPath id="clip-path" transform="translate(-50 -50)"><path id="SVGID" class="cls-1" d="M102,98.13c3.3,1,6.92,2.22,6.88,6.65,0,3.59-2.77,6-6.88,6.43v4.56H99.16v-4.53a13.61,13.61,0,0,1-8-3.52l1.64-3.29a12.56,12.56,0,0,0,6.4,3.19v-6.46c-3.23-1-6.72-2.16-6.72-6.46,0-3.46,2.65-5.75,6.72-6.2V84.23H102v4.24a14.26,14.26,0,0,1,6.59,2.26L107,94.09a14.51,14.51,0,0,0-5-1.94Zm-2.84-1V92.08c-1.52.26-2.46,1-2.46,2.27C96.7,95.77,97.71,96.58,99.16,97.16ZM102,107.59c1.68-.35,2.65-1.26,2.65-2.61,0-1.52-1.1-2.33-2.65-3Z"/></clipPath></defs><title>Accounts_Receivable</title><path class="cls-1" d="M126.73,141.84a5.14,5.14,0,0,1-3.65-1.5L117.75,135a2.66,2.66,0,1,1,3.76-3.76l5.22,5.22,9.74-9.74-5.17-5.18a3.6,3.6,0,0,1-.58-4.32,35.25,35.25,0,0,0,3.23-7.72,3.62,3.62,0,0,1,3.46-2.62h7.28V93.11H137.5A3.61,3.61,0,0,1,134,90.46a35.14,35.14,0,0,0-3.22-7.81,3.63,3.63,0,0,1,.59-4.31l5.07-5.07-9.74-9.74-5,5a3.6,3.6,0,0,1-4.32.58,35.14,35.14,0,0,0-7.85-3.27,3.62,3.62,0,0,1-2.64-3.47V55.31H93.11V74.94a2.66,2.66,0,0,1-5.31,0V55.16A5.16,5.16,0,0,1,93,50H107a5.16,5.16,0,0,1,5.16,5.16v6a40.7,40.7,0,0,1,6.66,2.77l4.22-4.22a5.15,5.15,0,0,1,7.29,0l10,10a5.16,5.16,0,0,1,0,7.29l-4.27,4.27a40.28,40.28,0,0,1,2.71,6.61h6.06A5.16,5.16,0,0,1,150,93V107a5.16,5.16,0,0,1-5.16,5.16h-6.16a39.34,39.34,0,0,1-2.72,6.5l4.38,4.38a5.16,5.16,0,0,1,0,7.29l-10,10A5.13,5.13,0,0,1,126.73,141.84Z" transform="translate(-50 -50)"/><path class="cls-1" d="M105.54,150H94.46a6.66,6.66,0,0,1-6.66-6.66v-4.76a39,39,0,0,1-6.45-2.67L78,139.27a6.64,6.64,0,0,1-9.42,0l-7.84-7.83a6.65,6.65,0,0,1,0-9.42L64,118.7a40.26,40.26,0,0,1-2.73-6.5H56.66A6.66,6.66,0,0,1,50,105.54V94.46a6.66,6.66,0,0,1,6.66-6.66h4.56a40.28,40.28,0,0,1,2.71-6.61L60.73,78a6.67,6.67,0,0,1,0-9.42l7.84-7.84a6.68,6.68,0,0,1,9.42,0l4.07,4.07a2.66,2.66,0,0,1-3.75,3.76l-4.07-4.07a1.36,1.36,0,0,0-1.91,0l-7.84,7.84a1.36,1.36,0,0,0,0,1.91l4.12,4.11a3.63,3.63,0,0,1,.59,4.31A35,35,0,0,0,66,90.46a3.61,3.61,0,0,1-3.47,2.65H56.66a1.35,1.35,0,0,0-1.35,1.35v11.08a1.35,1.35,0,0,0,1.35,1.35h5.93a3.62,3.62,0,0,1,3.46,2.62,35.25,35.25,0,0,0,3.23,7.72,3.6,3.6,0,0,1-.58,4.32l-4.22,4.22a1.37,1.37,0,0,0-.39,1,1.35,1.35,0,0,0,.39,1l7.84,7.84a1.36,1.36,0,0,0,1.91,0l4.26-4.27a3.63,3.63,0,0,1,4.31-.59,35.31,35.31,0,0,0,7.67,3.18,3.6,3.6,0,0,1,2.64,3.46v6a1.35,1.35,0,0,0,1.35,1.35h11.08a1.35,1.35,0,0,0,1.35-1.35V125.56a2.66,2.66,0,1,1,5.31,0v17.78A6.66,6.66,0,0,1,105.54,150ZM80.2,135.3h0Z" transform="translate(-50 -50)"/><path class="cls-1" d="M105.47,130.44a2.66,2.66,0,0,1-1.88-4.53l6-6,6,6a2.65,2.65,0,0,1-3.75,3.75l-2.2-2.2-2.2,2.2A2.65,2.65,0,0,1,105.47,130.44Z" transform="translate(-50 -50)"/><path class="cls-1" d="M90.45,80.71l-6-6A2.65,2.65,0,0,1,88.25,71l2.2,2.19L92.65,71a2.66,2.66,0,0,1,3.76,3.75Z" transform="translate(-50 -50)"/><path id="SVGID-2" data-name="SVGID" class="cls-1" d="M102,98.13c3.3,1,6.92,2.22,6.88,6.65,0,3.59-2.77,6-6.88,6.43v4.56H99.16v-4.53a13.61,13.61,0,0,1-8-3.52l1.64-3.29a12.56,12.56,0,0,0,6.4,3.19v-6.46c-3.23-1-6.72-2.16-6.72-6.46,0-3.46,2.65-5.75,6.72-6.2V84.23H102v4.24a14.26,14.26,0,0,1,6.59,2.26L107,94.09a14.51,14.51,0,0,0-5-1.94Zm-2.84-1V92.08c-1.52.26-2.46,1-2.46,2.27C96.7,95.77,97.71,96.58,99.16,97.16ZM102,107.59c1.68-.35,2.65-1.26,2.65-2.61,0-1.52-1.1-2.33-2.65-3Z" transform="translate(-50 -50)"/><g class="cls-2"><rect class="cls-1" x="52" y="52.03" width="0.19" height="5.56"/><rect class="cls-1" x="52.2" y="52.03" width="0.26" height="5.56"/><rect class="cls-1" x="52.45" y="52.03" width="0.26" height="5.56"/><rect class="cls-1" x="52.71" y="52.03" width="0.26" height="5.56"/><rect class="cls-1" x="52.97" y="52.03" width="0.26" height="5.56"/><rect class="cls-1" x="53.23" y="52.03" width="0.26" height="5.56"/><rect class="cls-1" x="53.48" y="52.03" width="0.26" height="5.56"/><rect class="cls-1" x="53.74" y="52.03" width="0.26" height="5.56"/><rect class="cls-1" x="54" y="52.03" width="0.26" height="5.56"/><rect class="cls-1" x="54.25" y="52.03" width="0.26" height="5.56"/><rect class="cls-1" x="54.51" y="52.03" width="0.14" height="5.56"/><rect class="cls-1" x="46.7" y="42.08" width="0.09" height="5.07"/><rect class="cls-1" x="46.8" y="42.08" width="0.26" height="5.07"/><rect class="cls-1" x="47.05" y="42.08" width="0.26" height="5.07"/><rect class="cls-1" x="47.31" y="42.08" width="0.26" height="5.07"/><rect class="cls-1" x="47.57" y="42.08" width="0.26" height="5.07"/><rect class="cls-1" x="47.82" y="42.08" width="0.26" height="5.07"/><rect class="cls-1" x="48.08" y="42.08" width="0.26" height="5.07"/><rect class="cls-1" x="48.34" y="42.08" width="0.26" height="5.07"/><rect class="cls-1" x="48.6" y="42.08" width="0.26" height="5.07"/><rect class="cls-1" x="48.85" y="42.08" width="0.26" height="5.07"/><rect class="cls-1" x="49.11" y="42.08" width="0.05" height="5.07"/><rect class="cls-1" x="41.12" y="34.23" width="0.02" height="31.53"/><rect class="cls-1" x="41.14" y="34.23" width="0.26" height="31.53"/><rect class="cls-1" x="41.39" y="34.23" width="0.26" height="31.53"/><rect class="cls-1" x="41.65" y="34.23" width="0.26" height="31.53"/><rect class="cls-1" x="41.91" y="34.23" width="0.26" height="31.53"/><rect class="cls-1" x="42.17" y="34.23" width="0.26" height="31.53"/><rect class="cls-1" x="42.42" y="34.23" width="0.26" height="31.53"/><rect class="cls-1" x="42.68" y="34.23" width="0.26" height="31.53"/><rect class="cls-1" x="42.94" y="34.23" width="0.26" height="31.53"/><rect class="cls-1" x="43.2" y="34.23" width="0.26" height="31.53"/><rect class="cls-1" x="43.45" y="34.23" width="0.26" height="31.53"/><rect class="cls-1" x="43.71" y="34.23" width="0.26" height="31.53"/><rect class="cls-1" x="43.97" y="34.23" width="0.26" height="31.53"/><rect class="cls-1" x="44.22" y="34.23" width="0.26" height="31.53"/><rect class="cls-1" x="44.48" y="34.23" width="0.26" height="31.53"/><rect class="cls-1" x="44.74" y="34.23" width="0.26" height="31.53"/><rect class="cls-1" x="45" y="34.23" width="0.26" height="31.53"/><rect class="cls-1" x="45.25" y="34.23" width="0.26" height="31.53"/><rect class="cls-1" x="45.51" y="34.23" width="0.26" height="31.53"/><rect class="cls-1" x="45.77" y="34.23" width="0.26" height="31.53"/><rect class="cls-1" x="46.02" y="34.23" width="0.26" height="31.53"/><rect class="cls-1" x="46.28" y="34.23" width="0.26" height="31.53"/><rect class="cls-1" x="46.54" y="34.23" width="0.26" height="31.53"/><rect class="cls-1" x="46.8" y="34.23" width="0.26" height="31.53"/><rect class="cls-1" x="47.05" y="34.23" width="0.26" height="31.53"/><rect class="cls-1" x="47.31" y="34.23" width="0.26" height="31.53"/><rect class="cls-1" x="47.57" y="34.23" width="0.26" height="31.53"/><rect class="cls-1" x="47.82" y="34.23" width="0.26" height="31.53"/><rect class="cls-1" x="48.08" y="34.23" width="0.26" height="31.53"/><rect class="cls-1" x="48.34" y="34.23" width="0.26" height="31.53"/><rect class="cls-1" x="48.6" y="34.23" width="0.26" height="31.53"/><rect class="cls-1" x="48.85" y="34.23" width="0.26" height="31.53"/><rect class="cls-1" x="49.11" y="34.23" width="0.26" height="31.53"/><rect class="cls-1" x="49.37" y="34.23" width="0.26" height="31.53"/><rect class="cls-1" x="49.63" y="34.23" width="0.26" height="31.53"/><rect class="cls-1" x="49.88" y="34.23" width="0.26" height="31.53"/><rect class="cls-1" x="50.14" y="34.23" width="0.26" height="31.53"/><rect class="cls-1" x="50.4" y="34.23" width="0.26" height="31.53"/><rect class="cls-1" x="50.65" y="34.23" width="0.26" height="31.53"/><rect class="cls-1" x="50.91" y="34.23" width="0.26" height="31.53"/><rect class="cls-1" x="51.17" y="34.23" width="0.26" height="31.53"/><rect class="cls-1" x="51.43" y="34.23" width="0.26" height="31.53"/><rect class="cls-1" x="51.68" y="34.23" width="0.26" height="31.53"/><rect class="cls-1" x="51.94" y="34.23" width="0.26" height="31.53"/><rect class="cls-1" x="52.2" y="34.23" width="0.26" height="31.53"/><rect class="cls-1" x="52.45" y="34.23" width="0.26" height="31.53"/><rect class="cls-1" x="52.71" y="34.23" width="0.26" height="31.53"/><rect class="cls-1" x="52.97" y="34.23" width="0.26" height="31.53"/><rect class="cls-1" x="53.23" y="34.23" width="0.26" height="31.53"/><rect class="cls-1" x="53.48" y="34.23" width="0.26" height="31.53"/><rect class="cls-1" x="53.74" y="34.23" width="0.26" height="31.53"/><rect class="cls-1" x="54" y="34.23" width="0.26" height="31.53"/><rect class="cls-1" x="54.25" y="34.23" width="0.26" height="31.53"/><rect class="cls-1" x="54.51" y="34.23" width="0.26" height="31.53"/><rect class="cls-1" x="54.77" y="34.23" width="0.26" height="31.53"/><rect class="cls-1" x="55.03" y="34.23" width="0.26" height="31.53"/><rect class="cls-1" x="55.28" y="34.23" width="0.26" height="31.53"/><rect class="cls-1" x="55.54" y="34.23" width="0.26" height="31.53"/><rect class="cls-1" x="55.8" y="34.23" width="0.26" height="31.53"/><rect class="cls-1" x="56.06" y="34.23" width="0.26" height="31.53"/><rect class="cls-1" x="56.31" y="34.23" width="0.26" height="31.53"/><rect class="cls-1" x="56.57" y="34.23" width="0.26" height="31.53"/><rect class="cls-1" x="56.83" y="34.23" width="0.26" height="31.53"/><rect class="cls-1" x="57.08" y="34.23" width="0.26" height="31.53"/><rect class="cls-1" x="57.34" y="34.23" width="0.26" height="31.53"/><rect class="cls-1" x="57.6" y="34.23" width="0.26" height="31.53"/><rect class="cls-1" x="57.86" y="34.23" width="0.26" height="31.53"/><rect class="cls-1" x="58.11" y="34.23" width="0.26" height="31.53"/><rect class="cls-1" x="58.37" y="34.23" width="0.26" height="31.53"/><rect class="cls-1" x="58.63" y="34.23" width="0.26" height="31.53"/><rect class="cls-1" x="58.88" y="34.23" width="0.03" height="31.53"/></g><path class="cls-1" d="M100,122.35A22.35,22.35,0,1,1,122.35,100,22.38,22.38,0,0,1,100,122.35ZM100,83a17,17,0,1,0,17,17A17,17,0,0,0,100,83Z" transform="translate(-50 -50)"/></svg>