<svg id="Layer_1" data-name="Layer 1" xmlns="http://www.w3.org/2000/svg" xmlns:xlink="http://www.w3.org/1999/xlink" viewBox="0 0 100 101.86"><defs><style>.cls-1{fill:#dddb00;}.cls-2{clip-path:url(#clip-path);}.cls-3{fill:#0177af;}</style><clipPath id="clip-path" transform="translate(-50 -49.07)"><path id="SVGID" class="cls-1" d="M102,97.94c3.3,1,6.92,2.22,6.88,6.65,0,3.59-2.77,6-6.88,6.43v4.56H99.16v-4.53a13.61,13.61,0,0,1-8-3.52l1.64-3.29a12.56,12.56,0,0,0,6.4,3.19V101c-3.23-1-6.72-2.16-6.72-6.46,0-3.46,2.65-5.75,6.72-6.2V84H102v4.24a14.26,14.26,0,0,1,6.59,2.26L107,93.9A14.51,14.51,0,0,0,102,92Zm-2.84-1V91.89c-1.52.26-2.46,1-2.46,2.27C96.7,95.58,97.71,96.39,99.16,97ZM102,107.4c1.68-.35,2.65-1.26,2.65-2.61,0-1.52-1.1-2.33-2.65-3Z"/></clipPath></defs><title>Accounts_Payable</title><path id="SVGID-2" data-name="SVGID" class="cls-1" d="M102,97.94c3.3,1,6.92,2.22,6.88,6.65,0,3.59-2.77,6-6.88,6.43v4.56H99.16v-4.53a13.61,13.61,0,0,1-8-3.52l1.64-3.29a12.56,12.56,0,0,0,6.4,3.19V101c-3.23-1-6.72-2.16-6.72-6.46,0-3.46,2.65-5.75,6.72-6.2V84H102v4.24a14.26,14.26,0,0,1,6.59,2.26L107,93.9A14.51,14.51,0,0,0,102,92Zm-2.84-1V91.89c-1.52.26-2.46,1-2.46,2.27C96.7,95.58,97.71,96.39,99.16,97ZM102,107.4c1.68-.35,2.65-1.26,2.65-2.61,0-1.52-1.1-2.33-2.65-3Z" transform="translate(-50 -49.07)"/><g class="cls-2"><rect class="cls-1" x="52" y="52.78" width="0.09" height="5.56"/><rect class="cls-1" x="52.09" y="52.78" width="0.14" height="5.56"/><rect class="cls-1" x="52.23" y="52.78" width="0.14" height="5.56"/><rect class="cls-1" x="52.37" y="52.78" width="0.14" height="5.56"/><rect class="cls-1" x="52.51" y="52.78" width="0.14" height="5.56"/><rect class="cls-1" x="52.65" y="52.78" width="0.14" height="5.56"/><rect class="cls-1" x="52.78" y="52.78" width="0.14" height="5.56"/><rect class="cls-1" x="52.92" y="52.78" width="0.14" height="5.56"/><rect class="cls-1" x="53.06" y="52.78" width="0.14" height="5.56"/><rect class="cls-1" x="53.2" y="52.78" width="0.14" height="5.56"/><rect class="cls-1" x="53.34" y="52.78" width="0.14" height="5.56"/><rect class="cls-1" x="53.48" y="52.78" width="0.14" height="5.56"/><rect class="cls-1" x="53.62" y="52.78" width="0.14" height="5.56"/><rect class="cls-1" x="53.75" y="52.78" width="0.14" height="5.56"/><rect class="cls-1" x="53.89" y="52.78" width="0.14" height="5.56"/><rect class="cls-1" x="54.03" y="52.78" width="0.14" height="5.56"/><rect class="cls-1" x="54.17" y="52.78" width="0.14" height="5.56"/><rect class="cls-1" x="54.31" y="52.78" width="0.14" height="5.56"/><rect class="cls-1" x="54.45" y="52.78" width="0.14" height="5.56"/><rect class="cls-1" x="54.59" y="52.78" width="0.07" height="5.56"/><rect class="cls-1" x="46.7" y="42.83" width="0.12" height="5.07"/><rect class="cls-1" x="46.82" y="42.83" width="0.14" height="5.07"/><rect class="cls-1" x="46.96" y="42.83" width="0.14" height="5.07"/><rect class="cls-1" x="47.1" y="42.83" width="0.14" height="5.07"/><rect class="cls-1" x="47.24" y="42.83" width="0.14" height="5.07"/><rect class="cls-1" x="47.38" y="42.83" width="0.14" height="5.07"/><rect class="cls-1" x="47.52" y="42.83" width="0.14" height="5.07"/><rect class="cls-1" x="47.65" y="42.83" width="0.14" height="5.07"/><rect class="cls-1" x="47.79" y="42.83" width="0.14" height="5.07"/><rect class="cls-1" x="47.93" y="42.83" width="0.14" height="5.07"/><rect class="cls-1" x="48.07" y="42.83" width="0.14" height="5.07"/><rect class="cls-1" x="48.21" y="42.83" width="0.14" height="5.07"/><rect class="cls-1" x="48.35" y="42.83" width="0.14" height="5.07"/><rect class="cls-1" x="48.49" y="42.83" width="0.14" height="5.07"/><rect class="cls-1" x="48.62" y="42.83" width="0.14" height="5.07"/><rect class="cls-1" x="48.76" y="42.83" width="0.14" height="5.07"/><rect class="cls-1" x="48.9" y="42.83" width="0.14" height="5.07"/><rect class="cls-1" x="49.04" y="42.83" width="0.12" height="5.07"/><rect class="cls-1" x="41.12" y="34.98" width="0.02" height="31.53"/><rect class="cls-1" x="41.14" y="34.98" width="0.14" height="31.53"/><rect class="cls-1" x="41.28" y="34.98" width="0.14" height="31.53"/><rect class="cls-1" x="41.41" y="34.98" width="0.14" height="31.53"/><rect class="cls-1" x="41.55" y="34.98" width="0.14" height="31.53"/><rect class="cls-1" x="41.69" y="34.98" width="0.14" height="31.53"/><rect class="cls-1" x="41.83" y="34.98" width="0.14" height="31.53"/><rect class="cls-1" x="41.97" y="34.98" width="0.14" height="31.53"/><rect class="cls-1" x="42.11" y="34.98" width="0.14" height="31.53"/><rect class="cls-1" x="42.25" y="34.98" width="0.14" height="31.53"/><rect class="cls-1" x="42.39" y="34.98" width="0.14" height="31.53"/><rect class="cls-1" x="42.52" y="34.98" width="0.14" height="31.53"/><rect class="cls-1" x="42.66" y="34.98" width="0.14" height="31.53"/><rect class="cls-1" x="42.8" y="34.98" width="0.14" height="31.53"/><rect class="cls-1" x="42.94" y="34.98" width="0.14" height="31.53"/><rect class="cls-1" x="43.08" y="34.98" width="0.14" height="31.53"/><rect class="cls-1" x="43.22" y="34.98" width="0.14" height="31.53"/><rect class="cls-1" x="43.36" y="34.98" width="0.14" height="31.53"/><rect class="cls-1" x="43.49" y="34.98" width="0.14" height="31.53"/><rect class="cls-1" x="43.63" y="34.98" width="0.14" height="31.53"/><rect class="cls-1" x="43.77" y="34.98" width="0.14" height="31.53"/><rect class="cls-1" x="43.91" y="34.98" width="0.14" height="31.53"/><rect class="cls-1" x="44.05" y="34.98" width="0.14" height="31.53"/><rect class="cls-1" x="44.19" y="34.98" width="0.14" height="31.53"/><rect class="cls-1" x="44.33" y="34.98" width="0.14" height="31.53"/><rect class="cls-1" x="44.46" y="34.98" width="0.14" height="31.53"/><rect class="cls-1" x="44.6" y="34.98" width="0.14" height="31.53"/><rect class="cls-1" x="44.74" y="34.98" width="0.14" height="31.53"/><rect class="cls-1" x="44.88" y="34.98" width="0.14" height="31.53"/><rect class="cls-1" x="45.02" y="34.98" width="0.14" height="31.53"/><rect class="cls-1" x="45.16" y="34.98" width="0.14" height="31.53"/><rect class="cls-1" x="45.3" y="34.98" width="0.14" height="31.53"/><rect class="cls-1" x="45.44" y="34.98" width="0.14" height="31.53"/><rect class="cls-1" x="45.57" y="34.98" width="0.14" height="31.53"/><rect class="cls-1" x="45.71" y="34.98" width="0.14" height="31.53"/><rect class="cls-1" x="45.85" y="34.98" width="0.14" height="31.53"/><rect class="cls-1" x="45.99" y="34.98" width="0.14" height="31.53"/><rect class="cls-1" x="46.13" y="34.98" width="0.14" height="31.53"/><rect class="cls-1" x="46.27" y="34.98" width="0.14" height="31.53"/><rect class="cls-1" x="46.41" y="34.98" width="0.14" height="31.53"/><rect class="cls-1" x="46.54" y="34.98" width="0.14" height="31.53"/><rect class="cls-1" x="46.68" y="34.98" width="0.14" height="31.53"/><rect class="cls-1" x="46.82" y="34.98" width="0.14" height="31.53"/><rect class="cls-1" x="46.96" y="34.98" width="0.14" height="31.53"/><rect class="cls-1" x="47.1" y="34.98" width="0.14" height="31.53"/><rect class="cls-1" x="47.24" y="34.98" width="0.14" height="31.53"/><rect class="cls-1" x="47.38" y="34.98" width="0.14" height="31.53"/><rect class="cls-1" x="47.52" y="34.98" width="0.14" height="31.53"/><rect class="cls-1" x="47.65" y="34.98" width="0.14" height="31.53"/><rect class="cls-1" x="47.79" y="34.98" width="0.14" height="31.53"/><rect class="cls-1" x="47.93" y="34.98" width="0.14" height="31.53"/><rect class="cls-1" x="48.07" y="34.98" width="0.14" height="31.53"/><rect class="cls-1" x="48.21" y="34.98" width="0.14" height="31.53"/><rect class="cls-1" x="48.35" y="34.98" width="0.14" height="31.53"/><rect class="cls-1" x="48.49" y="34.98" width="0.14" height="31.53"/><rect class="cls-1" x="48.62" y="34.98" width="0.14" height="31.53"/><rect class="cls-1" x="48.76" y="34.98" width="0.14" height="31.53"/><rect class="cls-1" x="48.9" y="34.98" width="0.14" height="31.53"/><rect class="cls-1" x="49.04" y="34.98" width="0.14" height="31.53"/><rect class="cls-1" x="49.18" y="34.98" width="0.14" height="31.53"/><rect class="cls-1" x="49.32" y="34.98" width="0.14" height="31.53"/><rect class="cls-1" x="49.46" y="34.98" width="0.14" height="31.53"/><rect class="cls-1" x="49.6" y="34.98" width="0.14" height="31.53"/><rect class="cls-1" x="49.73" y="34.98" width="0.14" height="31.53"/><rect class="cls-1" x="49.87" y="34.98" width="0.14" height="31.53"/><rect class="cls-1" x="50.01" y="34.98" width="0.14" height="31.53"/><rect class="cls-1" x="50.15" y="34.98" width="0.14" height="31.53"/><rect class="cls-1" x="50.29" y="34.98" width="0.14" height="31.53"/><rect class="cls-1" x="50.43" y="34.98" width="0.14" height="31.53"/><rect class="cls-1" x="50.57" y="34.98" width="0.14" height="31.53"/><rect class="cls-1" x="50.7" y="34.98" width="0.14" height="31.53"/><rect class="cls-1" x="50.84" y="34.98" width="0.14" height="31.53"/><rect class="cls-1" x="50.98" y="34.98" width="0.14" height="31.53"/><rect class="cls-1" x="51.12" y="34.98" width="0.14" height="31.53"/><rect class="cls-1" x="51.26" y="34.98" width="0.14" height="31.53"/><rect class="cls-1" x="51.4" y="34.98" width="0.14" height="31.53"/><rect class="cls-1" x="51.54" y="34.98" width="0.14" height="31.53"/><rect class="cls-1" x="51.67" y="34.98" width="0.14" height="31.53"/><rect class="cls-1" x="51.81" y="34.98" width="0.14" height="31.53"/><rect class="cls-1" x="51.95" y="34.98" width="0.14" height="31.53"/><rect class="cls-1" x="52.09" y="34.98" width="0.14" height="31.53"/><rect class="cls-1" x="52.23" y="34.98" width="0.14" height="31.53"/><rect class="cls-1" x="52.37" y="34.98" width="0.14" height="31.53"/><rect class="cls-1" x="52.51" y="34.98" width="0.14" height="31.53"/><rect class="cls-1" x="52.65" y="34.98" width="0.14" height="31.53"/><rect class="cls-1" x="52.78" y="34.98" width="0.14" height="31.53"/><rect class="cls-1" x="52.92" y="34.98" width="0.14" height="31.53"/><rect class="cls-1" x="53.06" y="34.98" width="0.14" height="31.53"/><rect class="cls-1" x="53.2" y="34.98" width="0.14" height="31.53"/><rect class="cls-1" x="53.34" y="34.98" width="0.14" height="31.53"/><rect class="cls-1" x="53.48" y="34.98" width="0.14" height="31.53"/><rect class="cls-1" x="53.62" y="34.98" width="0.14" height="31.53"/><rect class="cls-1" x="53.75" y="34.98" width="0.14" height="31.53"/><rect class="cls-1" x="53.89" y="34.98" width="0.14" height="31.53"/><rect class="cls-1" x="54.03" y="34.98" width="0.14" height="31.53"/><rect class="cls-1" x="54.17" y="34.98" width="0.14" height="31.53"/><rect class="cls-1" x="54.31" y="34.98" width="0.14" height="31.53"/><rect class="cls-1" x="54.45" y="34.98" width="0.14" height="31.53"/><rect class="cls-1" x="54.59" y="34.98" width="0.14" height="31.53"/><rect class="cls-1" x="54.73" y="34.98" width="0.14" height="31.53"/><rect class="cls-1" x="54.86" y="34.98" width="0.14" height="31.53"/><rect class="cls-1" x="55" y="34.98" width="0.14" height="31.53"/><rect class="cls-1" x="55.14" y="34.98" width="0.14" height="31.53"/><rect class="cls-1" x="55.28" y="34.98" width="0.14" height="31.53"/><rect class="cls-1" x="55.42" y="34.98" width="0.14" height="31.53"/><rect class="cls-1" x="55.56" y="34.98" width="0.14" height="31.53"/><rect class="cls-1" x="55.7" y="34.98" width="0.14" height="31.53"/><rect class="cls-1" x="55.83" y="34.98" width="0.14" height="31.53"/><rect class="cls-1" x="55.97" y="34.98" width="0.14" height="31.53"/><rect class="cls-1" x="56.11" y="34.98" width="0.14" height="31.53"/><rect class="cls-1" x="56.25" y="34.98" width="0.14" height="31.53"/><rect class="cls-1" x="56.39" y="34.98" width="0.14" height="31.53"/><rect class="cls-1" x="56.53" y="34.98" width="0.14" height="31.53"/><rect class="cls-1" x="56.67" y="34.98" width="0.14" height="31.53"/><rect class="cls-1" x="56.8" y="34.98" width="0.14" height="31.53"/><rect class="cls-1" x="56.94" y="34.98" width="0.14" height="31.53"/><rect class="cls-1" x="57.08" y="34.98" width="0.14" height="31.53"/><rect class="cls-1" x="57.22" y="34.98" width="0.14" height="31.53"/><rect class="cls-1" x="57.36" y="34.98" width="0.14" height="31.53"/><rect class="cls-1" x="57.5" y="34.98" width="0.14" height="31.53"/><rect class="cls-1" x="57.64" y="34.98" width="0.14" height="31.53"/><rect class="cls-1" x="57.78" y="34.98" width="0.14" height="31.53"/><rect class="cls-1" x="57.91" y="34.98" width="0.14" height="31.53"/><rect class="cls-1" x="58.05" y="34.98" width="0.14" height="31.53"/><rect class="cls-1" x="58.19" y="34.98" width="0.14" height="31.53"/><rect class="cls-1" x="58.33" y="34.98" width="0.14" height="31.53"/><rect class="cls-1" x="58.47" y="34.98" width="0.14" height="31.53"/><rect class="cls-1" x="58.61" y="34.98" width="0.14" height="31.53"/><rect class="cls-1" x="58.75" y="34.98" width="0.14" height="31.53"/><rect class="cls-1" x="58.88" y="34.98" width="0.03" height="31.53"/></g><path class="cls-3" d="M135.34,119.66,130.72,117a35.25,35.25,0,0,0,3.23-7.72,3.62,3.62,0,0,1,3.46-2.62h7.28V92.92H137.5A3.62,3.62,0,0,1,134,90.27a35,35,0,0,0-3.22-7.81,3.62,3.62,0,0,1,.6-4.31l5.06-5.07-9.74-9.74-5,5a3.6,3.6,0,0,1-4.32.58,35.34,35.34,0,0,0-7.76-3.25,55.77,55.77,0,0,0-9.5-1.18H81.2V57.86L66.6,65.53,81.34,73.8V68.06H90.9v5.32H86.65v9.5L55.47,65.37l31-16.3V59.2H99.94c3.64-.14,10.11,1.15,10.83,1.3l.19,0a40.9,40.9,0,0,1,7.9,3.14l4.22-4.22a5.16,5.16,0,0,1,7.29,0l10,10a5.17,5.17,0,0,1,0,7.3L136.07,81a40.28,40.28,0,0,1,2.71,6.61h6.06A5.16,5.16,0,0,1,150,92.77v14.08a5.16,5.16,0,0,1-5.16,5.16h-6.15A40.63,40.63,0,0,1,135.34,119.66Z" transform="translate(-50 -49.07)"/><path class="cls-3" d="M113.49,150.93V140.8H100.06c-3.64.14-10.11-1.16-10.83-1.3l-.19-.05a40.9,40.9,0,0,1-7.9-3.14l-4.22,4.22a5.15,5.15,0,0,1-7.29,0l-10-10a5.15,5.15,0,0,1,0-7.29L63.93,119a40.28,40.28,0,0,1-2.71-6.61H55.16A5.16,5.16,0,0,1,50,107.23V93.15A5.16,5.16,0,0,1,55.16,88h6.15a40.63,40.63,0,0,1,3.35-7.65L69.28,83a35.25,35.25,0,0,0-3.23,7.72,3.62,3.62,0,0,1-3.46,2.62H55.31v13.78H62.5A3.62,3.62,0,0,1,66,109.73a35,35,0,0,0,3.22,7.81,3.62,3.62,0,0,1-.6,4.31l-5.06,5.07,9.74,9.74,5-5a3.6,3.6,0,0,1,4.32-.58,35.34,35.34,0,0,0,7.76,3.25,55.77,55.77,0,0,0,9.5,1.18H118.8v6.66l14.6-7.67-14.74-8.27v5.74H109.1v-5.32h4.25v-9.5l31.18,17.51Z" transform="translate(-50 -49.07)"/><path class="cls-1" d="M99.88,122a22.35,22.35,0,1,1,22.34-22.35A22.37,22.37,0,0,1,99.88,122Zm0-39.38a17,17,0,1,0,17,17A17.05,17.05,0,0,0,99.88,82.65Z" transform="translate(-50 -49.07)"/></svg>