<svg id="Layer_1" data-name="Layer 1" xmlns="http://www.w3.org/2000/svg" viewBox="0 0 17.6 15.84"><defs><style>.cls-1{fill:#1d70b7;}.cls-2{fill:#e84521;}</style></defs><title>Alerts</title><path class="cls-1" d="M103.23,102.38H90.09a2.19,2.19,0,0,1-2.21-2.32,2.36,2.36,0,0,1,.28-1c.9-1.59,1.82-3.16,2.73-4.74.14-.24.33-.31.52-.2s.23.32.1.56c-.9,1.56-1.81,3.11-2.7,4.68a1.49,1.49,0,0,0,.87,2.22,2,2,0,0,0,.49.06h13a1.51,1.51,0,0,0,1.59-1.31,1.48,1.48,0,0,0-.21-1l-3.81-6.6c-.91-1.59-1.83-3.17-2.74-4.75a1.5,1.5,0,0,0-2.35-.38,1.64,1.64,0,0,0-.29.4c-.79,1.34-1.56,2.69-2.34,4,0,.05-.05.1-.08.14a.36.36,0,0,1-.51.16.36.36,0,0,1-.11-.52l.6-1c.6-1,1.21-2.1,1.82-3.15a2.2,2.2,0,0,1,3.87,0q3.29,5.68,6.56,11.37A2.2,2.2,0,0,1,103.23,102.38Z" transform="translate(-87.87 -86.54)"/><path class="cls-2" d="M98.26,91.41a1.61,1.61,0,0,0-1.85-1.31A1.66,1.66,0,0,0,95.06,92c.2,1.59.4,3.18.59,4.77a.68.68,0,0,0,.41.59,1.4,1.4,0,0,0,1.23,0,.68.68,0,0,0,.4-.57c.13-1.08.27-2.15.4-3.23q.1-.9.21-1.77A3.39,3.39,0,0,0,98.26,91.41Zm-.82,2c-.12,1-.24,2-.37,3,0,.11,0,.27-.12.32a.74.74,0,0,1-.6,0,.23.23,0,0,1-.06-.13l-.48-4c0-.26-.07-.52-.1-.78a1,1,0,1,1,1.93-.07C97.58,92.31,97.51,92.88,97.44,93.45Z" transform="translate(-87.87 -86.54)"/><path class="cls-2" d="M96.67,97.71A1.34,1.34,0,1,0,98,99.05,1.34,1.34,0,0,0,96.67,97.71Zm0,2a.69.69,0,0,1,0-1.37.69.69,0,0,1,.69.69A.68.68,0,0,1,96.67,99.73Z" transform="translate(-87.87 -86.54)"/></svg>