<svg id="Layer_1" data-name="Layer 1" xmlns="http://www.w3.org/2000/svg" viewBox="0 0 100 75.58"><defs><style>.cls-1{fill:#e61d5a;}</style></defs><title>Announcements</title><path class="cls-1" d="M114.08,135.5a6.31,6.31,0,0,1-3.37-1L89.32,120.86,93,115l20.38,13V69.68L89.05,85.22a11.87,11.87,0,0,1-6.2,1.86l-25.92.44v22.69l17.73.27-.1,6.93-18.39-.28A6.29,6.29,0,0,1,50,110.86v-24a6.3,6.3,0,0,1,6.16-6.27l26.57-.44a5,5,0,0,0,2.59-.78l25.39-16.19a6.27,6.27,0,0,1,9.64,5.29v60.76a6.26,6.26,0,0,1-3.26,5.49A6.19,6.19,0,0,1,114.08,135.5Z" transform="translate(-50 -62.21)"/><path class="cls-1" d="M134.38,137.79l-4.89-4.9a46.28,46.28,0,0,0,.13-65.37l4.91-4.88a53.19,53.19,0,0,1-.15,75.15Z" transform="translate(-50 -62.21)"/></svg>