<svg id="Layer_1" data-name="Layer 1" xmlns="http://www.w3.org/2000/svg" viewBox="0 0 17.94 18.04"><defs><style>.cls-1{fill:#2be28a;}.cls-2{fill:#e8ad7c;}.cls-3{fill:#484848;}</style></defs><title>AP_invoice</title><path class="cls-1" d="M100,95.79,94.86,102l.28.17c.49.28,1,.55,1.48.84a1.22,1.22,0,0,1-1,2.23c-.58-.17-1.15-.36-1.73-.54l-.17,0,3.68,3.08,7-8.3Zm-1.2,7.8a2,2,0,0,1-1.94-2,1.67,1.67,0,0,1,1.73-1.69,2,2,0,0,1,2,2A1.7,1.7,0,0,1,98.84,103.59Z" transform="translate(-88.55 -95.79)"/><path class="cls-2" d="M106.07,112.22l-.94.09c-1,.1-2,.19-3.07.27a.28.28,0,0,1-.22-.1,1.35,1.35,0,0,0-1.12-.56H98.36a5,5,0,0,1-1.64-.13,4.54,4.54,0,0,1-1.44-.88l-2-1.76a.77.77,0,0,1,.95-1.2c.65.44,1.32.88,2,1.35a2.59,2.59,0,0,0,1.65.53h2.57c.16,0,.32,0,.32-.22s-.15-.24-.32-.24H98.75a.71.71,0,0,1-.68-1,.63.63,0,0,1,.63-.41c1.37,0,2.73,0,4.1,0a2.14,2.14,0,0,1,1.89,1.25C105.18,110.18,105.6,111.18,106.07,112.22Z" transform="translate(-88.55 -95.79)"/><path class="cls-2" d="M96.66,104.33a.71.71,0,0,1-.91.39l-2.53-.8a2,2,0,0,1-1-.68.77.77,0,0,0-1-.29c-.33.11-.68.18-1,.28V99.68l2.28-.63c.11,0,.22,0,.33-.09a3.51,3.51,0,0,1,2-.09c.54.12,1.09.2,1.67.3-.57.69-1.12,1.35-1.68,2a.31.31,0,0,1-.21.09,2.94,2.94,0,0,1-.42,0,.44.44,0,0,0-.46.33.43.43,0,0,0,.23.51l1.13.63,1.19.67A.72.72,0,0,1,96.66,104.33Z" transform="translate(-88.55 -95.79)"/><path d="M89.66,99.17V104c-.19,0-.38,0-.57,0a.24.24,0,0,1-.11-.16L88.62,100c0-.27-.05-.54-.07-.83Z" transform="translate(-88.55 -95.79)"/><path d="M106.48,112.74v1.09h-4.84v-.53c0-.15.11-.13.19-.14l1.91-.17,2.54-.25Z" transform="translate(-88.55 -95.79)"/><path class="cls-3" d="M99.94,102.52l-.31.36c-.15-.22-.29-.16-.46,0s-.25.16-.41-.07l-.14-.19a4.47,4.47,0,0,0,.47-.36c.06-.06.06-.18.08-.27a.93.93,0,0,0-.29,0c-.14.05-.26.15-.39.2a.61.61,0,0,1-.83-.66c0-.28,0-.28-.16-.49.08-.11.17-.21.27-.33l.23.17.4-.29.32.41a2.31,2.31,0,0,0-.38.27.78.78,0,0,0-.11.28,1.24,1.24,0,0,0,.27,0,1.82,1.82,0,0,0,.27-.15.67.67,0,0,1,.72,0,.56.56,0,0,1,.26.62C99.7,102.24,99.7,102.41,99.94,102.52Z" transform="translate(-88.55 -95.79)"/></svg>