<svg id="Layer_1" data-name="Layer 1" xmlns="http://www.w3.org/2000/svg" viewBox="0 0 50.53 57.51"><defs><style>.cls-1{fill:#61b77e;}</style></defs><title>AR_invoice</title><path d="M125.26,86.94V74.68a3.73,3.73,0,0,0-2.06-3.15,2.16,2.16,0,0,1-.74-.25l-.91,0a8.92,8.92,0,0,1-1.79,0h-1.71a8.92,8.92,0,0,1-1.79,0h-1.71a8.92,8.92,0,0,1-1.79,0H111a8.92,8.92,0,0,1-1.79,0h-1.71a10.7,10.7,0,0,1-1.79,0H104a8.92,8.92,0,0,1-1.79,0h-1.71a8.92,8.92,0,0,1-1.79,0H97a8.92,8.92,0,0,1-1.79,0H93.53a10.71,10.71,0,0,1-1.79,0H90a8.92,8.92,0,0,1-1.79,0l-.79,0a1.7,1.7,0,0,1-.73.24,3.75,3.75,0,0,0-2.07,3.16v1.76c0,.58,0,1.16,0,1.74v3.5c0,.15,0,.29,0,.44.58-.11,1.15-.23,1.72-.31.33,0,.51-.17.45-.52s.09-.43.4-.39h.29q17.1,0,34.2,0c.58,0,.69.17.68.71q0,17.84,0,35.66c0,.46-.12.59-.58.58-1.36,0-2.73,0-4.09,0a3.46,3.46,0,0,0-3.73,3.7c0,1.4,0,2.8,0,4.2,0,.37-.07.5-.48.5H88.35c-1.22,0-1.5-.29-1.5-1.52V113.38c0-.47.13-1-.68-.8-.29.06-.64-.18-1-.29s-.61,0-.55.45a2.36,2.36,0,0,1,0,.46v3.5c0,.59,0,1.18,0,1.76s0,1.17,0,1.74V122c0,.58,0,1.16,0,1.74s0,1.16,0,1.74a3.63,3.63,0,0,0,1.83,2.83,8.3,8.3,0,0,0,1.78.45h24.52c.81,0,1.63,0,2.44,0a1.78,1.78,0,0,0,1.43-.61L118.8,126c2-2,4-4,6-5.93a2.21,2.21,0,0,0,.47-1.62V86.94Zm-8.73,37.38c0-1.07,0-2.17,0-3.26,0-.49.45-.74,1-.75h3Zm5.33-45.88H104.59c-5.69,0-11.39,0-17.09,0-.54,0-.69-.15-.66-.68,0-1,0-1.9,0-2.85s.37-1.17,1.19-1.17h33.14c.88,0,1.23.36,1.23,1.25s0,1.94,0,2.91C122.44,78.38,122.28,78.45,121.86,78.44Z" transform="translate(-74.74 -71.25)"/><path class="cls-1" d="M88.73,83a14.13,14.13,0,1,0,13.91,14A14.05,14.05,0,0,0,88.73,83Zm8.75,9.55a1.26,1.26,0,0,1-.33.54l-4.34,4.32a.23.23,0,0,1-.23.23c-.15.16-.31.31-.47.47a.4.4,0,0,1-.34.35h0a1,1,0,0,1-.46.47c-1.42,1.43-2.85,2.87-4.28,4.29a1.58,1.58,0,0,1-2.45,0c-1.46-1.45-2.93-2.9-4.38-4.36a1.6,1.6,0,1,1,2.12-2.38c1,1,2.07,2,3.08,3.1.32.33.51.32.82,0q4.26-4.29,8.53-8.54a1.61,1.61,0,0,1,2.07-.35A1.57,1.57,0,0,1,97.48,92.59Z" transform="translate(-74.74 -71.25)"/><path d="M117.52,115.16a1.27,1.27,0,0,1-1.2.68h-11c-1.15,0-1.76-.64-1.52-1.58a1.2,1.2,0,0,1,1.3-.92h5.6c1.89,0,3.78,0,5.67,0A1.24,1.24,0,0,1,117.52,115.16Z" transform="translate(-74.74 -71.25)"/><path d="M108.78,105.89a1.16,1.16,0,0,1-1.14,1.24c-2.33,0-4.66,0-7.13,0a17.14,17.14,0,0,0,1.51-2.22c.11-.21.28-.23.49-.23,1.65,0,3.3,0,4.95,0A1.26,1.26,0,0,1,108.78,105.89Z" transform="translate(-74.74 -71.25)"/><path d="M108.78,88.55a1.21,1.21,0,0,1-1,1.24,2.87,2.87,0,0,1-.52,0H102.7c-.24,0-.44,0-.58-.26a19.26,19.26,0,0,0-1.42-2.19c2.37,0,4.64,0,6.91,0A1.16,1.16,0,0,1,108.78,88.55Z" transform="translate(-74.74 -71.25)"/><path d="M117.65,88.59c0,.74-.52,1.24-1.37,1.26-.64,0-1.28,0-1.92,0s-1.32,0-2,0a1.17,1.17,0,0,1-1.18-.79,1.21,1.21,0,0,1,.28-1.34,1.14,1.14,0,0,1,.88-.34c1.33,0,2.65-.07,4,0C117.3,87.42,117.62,87.87,117.65,88.59Z" transform="translate(-74.74 -71.25)"/><path d="M117.66,105.93a1.2,1.2,0,0,1-1.27,1.22h-4a1.15,1.15,0,0,1-1.25-1.22,1.18,1.18,0,0,1,1.25-1.24q2,0,4,0A1.23,1.23,0,0,1,117.66,105.93Z" transform="translate(-74.74 -71.25)"/><path d="M117.66,97.26a1.22,1.22,0,0,1-1.27,1.23c-1.34,0-2.68,0-4,0a1.17,1.17,0,0,1-1.26-1.23A1.19,1.19,0,0,1,112.37,96c.35,0,.7,0,1,0h1c.66,0,1.32,0,2,0A1.22,1.22,0,0,1,117.66,97.26Z" transform="translate(-74.74 -71.25)"/><path d="M108.79,97.28a1.24,1.24,0,0,1-1.26,1.2c-1,0-2.09,0-3.14,0-.29,0-.36-.1-.35-.37,0-.58,0-1.17,0-1.74,0-.32.14-.35.39-.34H106c.5,0,1,0,1.51,0A1.25,1.25,0,0,1,108.79,97.28Z" transform="translate(-74.74 -71.25)"/></svg>