<svg id="Layer_1" data-name="Layer 1" xmlns="http://www.w3.org/2000/svg" xmlns:xlink="http://www.w3.org/1999/xlink" viewBox="0 0 100 120.1"><defs><style>.cls-1{fill:#bd1622;}.cls-2{fill:#2a90cf;}.cls-3{clip-path:url(#clip-path);}.cls-4{clip-path:url(#clip-path-2);}</style><clipPath id="clip-path" transform="translate(-50 -39.95)"><path id="SVGID" class="cls-1" d="M128.33,139.88a2.65,2.65,0,0,1-1.88-.78L99.67,112.32a2.67,2.67,0,0,1,3.77-3.77l26.78,26.78a2.67,2.67,0,0,1-1.89,4.55Z"/></clipPath><clipPath id="clip-path-2" transform="translate(-50 -39.95)"><path id="SVGID-2" data-name="SVGID" class="cls-1" d="M89.17,118.23A20.17,20.17,0,0,1,74.91,83.79a20.17,20.17,0,1,1,14.26,34.44Zm0-35a14.83,14.83,0,1,0,10.49,4.34A14.8,14.8,0,0,0,89.18,83.22Z"/></clipPath></defs><title>Assessements</title><path class="cls-2" d="M122.32,46.17l21.46,22.68v85H56.22V46.17h66.1M125,40H50v120.1H150V66.37L125,40Z" transform="translate(-50 -39.95)"/><polygon class="cls-2" points="97.71 29.53 69.6 29.53 69.6 0 75.82 0 75.82 23.31 97.71 23.31 97.71 29.53"/><rect class="cls-1" x="52.42" y="48.98" width="25.91" height="6.22"/><rect class="cls-1" x="32.56" y="48.98" width="21.64" height="6.22"/><rect class="cls-1" x="52.42" y="63.64" width="25.91" height="6.22"/><rect class="cls-1" x="32.56" y="63.64" width="20.68" height="6.22"/><path id="SVGID-3" data-name="SVGID" class="cls-1" d="M128.33,139.88a2.65,2.65,0,0,1-1.88-.78L99.67,112.32a2.67,2.67,0,0,1,3.77-3.77l26.78,26.78a2.67,2.67,0,0,1-1.89,4.55Z" transform="translate(-50 -39.95)"/><g class="cls-3"><polygon class="cls-1" points="49.3 67.56 48.63 68.25 48.63 67.56 49.3 67.56"/><polygon class="cls-1" points="50.13 67.56 48.63 69.09 48.63 68.25 49.3 67.56 50.13 67.56"/><polygon class="cls-1" points="50.95 67.56 48.63 69.93 48.63 69.09 50.13 67.56 50.95 67.56"/><polygon class="cls-1" points="51.78 67.56 48.63 70.77 48.63 69.93 50.95 67.56 51.78 67.56"/><polygon class="cls-1" points="52.6 67.56 48.63 71.61 48.63 70.77 51.78 67.56 52.6 67.56"/><polygon class="cls-1" points="53.43 67.56 48.63 72.45 48.63 71.61 52.6 67.56 53.43 67.56"/><polygon class="cls-1" points="54.25 67.56 48.63 73.29 48.63 72.45 53.43 67.56 54.25 67.56"/><polygon class="cls-1" points="54.94 67.56 55.01 67.64 48.63 74.13 48.63 73.29 54.25 67.56 54.94 67.56"/><polygon class="cls-1" points="55.01 67.64 55.43 68.05 48.95 74.65 48.63 74.34 48.63 74.13 55.01 67.64"/><rect class="cls-1" x="97.77" y="111.21" width="9.25" height="0.59" transform="translate(-98.91 66.5) rotate(-45.52)"/><rect class="cls-1" x="98.19" y="111.62" width="9.25" height="0.59" transform="translate(-99.07 66.92) rotate(-45.52)"/><rect class="cls-1" x="98.61" y="112.03" width="9.25" height="0.59" transform="translate(-99.24 67.34) rotate(-45.52)"/><rect class="cls-1" x="99.03" y="112.45" width="9.25" height="0.59" transform="translate(-99.41 67.77) rotate(-45.52)"/><rect class="cls-1" x="99.45" y="112.86" width="9.25" height="0.59" transform="translate(-99.58 68.19) rotate(-45.52)"/><rect class="cls-1" x="99.87" y="113.27" width="9.25" height="0.59" transform="translate(-99.75 68.61) rotate(-45.52)"/><rect class="cls-1" x="100.29" y="113.68" width="9.25" height="0.59" transform="translate(-99.92 69.04) rotate(-45.52)"/><rect class="cls-1" x="100.71" y="114.1" width="9.25" height="0.59" transform="translate(-100.09 69.46) rotate(-45.52)"/><rect class="cls-1" x="101.13" y="114.51" width="9.25" height="0.59" transform="translate(-100.25 69.88) rotate(-45.52)"/><rect class="cls-1" x="101.55" y="114.92" width="9.25" height="0.59" transform="translate(-100.42 70.31) rotate(-45.52)"/><rect class="cls-1" x="101.97" y="115.33" width="9.25" height="0.59" transform="translate(-100.59 70.73) rotate(-45.52)"/><rect class="cls-1" x="102.39" y="115.75" width="9.25" height="0.59" transform="translate(-100.76 71.15) rotate(-45.52)"/><rect class="cls-1" x="102.81" y="116.16" width="9.25" height="0.59" transform="translate(-100.93 71.58) rotate(-45.52)"/><rect class="cls-1" x="103.23" y="116.57" width="9.25" height="0.59" transform="translate(-101.1 72) rotate(-45.52)"/><rect class="cls-1" x="103.65" y="116.98" width="9.25" height="0.59" transform="translate(-101.26 72.42) rotate(-45.52)"/><rect class="cls-1" x="104.07" y="117.39" width="9.25" height="0.59" transform="translate(-101.43 72.84) rotate(-45.52)"/><rect class="cls-1" x="104.49" y="117.81" width="9.25" height="0.59" transform="matrix(0.7, -0.71, 0.71, 0.7, -101.6, 73.27)"/><rect class="cls-1" x="104.91" y="118.22" width="9.25" height="0.59" transform="translate(-101.77 73.69) rotate(-45.52)"/><rect class="cls-1" x="105.33" y="118.63" width="9.25" height="0.59" transform="translate(-101.94 74.11) rotate(-45.52)"/><rect class="cls-1" x="105.75" y="119.04" width="9.25" height="0.59" transform="translate(-102.11 74.54) rotate(-45.52)"/><rect class="cls-1" x="106.17" y="119.46" width="9.25" height="0.59" transform="translate(-102.28 74.96) rotate(-45.52)"/><rect class="cls-1" x="106.59" y="119.87" width="9.25" height="0.59" transform="translate(-102.44 75.38) rotate(-45.52)"/><rect class="cls-1" x="107.01" y="120.28" width="9.25" height="0.59" transform="translate(-102.61 75.81) rotate(-45.52)"/><rect class="cls-1" x="107.43" y="120.69" width="9.25" height="0.59" transform="matrix(0.7, -0.71, 0.71, 0.7, -102.78, 76.23)"/><rect class="cls-1" x="107.85" y="121.11" width="9.25" height="0.59" transform="translate(-102.95 76.65) rotate(-45.52)"/><rect class="cls-1" x="108.27" y="121.52" width="9.25" height="0.59" transform="translate(-103.12 77.08) rotate(-45.52)"/><rect class="cls-1" x="108.69" y="121.93" width="9.25" height="0.59" transform="translate(-103.29 77.5) rotate(-45.52)"/><rect class="cls-1" x="109.11" y="122.34" width="9.25" height="0.59" transform="translate(-103.46 77.92) rotate(-45.52)"/><rect class="cls-1" x="109.53" y="122.76" width="9.25" height="0.59" transform="translate(-103.62 78.35) rotate(-45.52)"/><rect class="cls-1" x="109.95" y="123.17" width="9.25" height="0.59" transform="translate(-103.79 78.77) rotate(-45.52)"/><rect class="cls-1" x="110.37" y="123.58" width="9.25" height="0.59" transform="matrix(0.7, -0.71, 0.71, 0.7, -103.96, 79.19)"/><rect class="cls-1" x="110.79" y="123.99" width="9.25" height="0.59" transform="translate(-104.13 79.62) rotate(-45.52)"/><rect class="cls-1" x="111.21" y="124.41" width="9.25" height="0.59" transform="translate(-104.3 80.04) rotate(-45.52)"/><rect class="cls-1" x="111.63" y="124.82" width="9.25" height="0.59" transform="translate(-104.47 80.46) rotate(-45.52)"/><rect class="cls-1" x="112.05" y="125.23" width="9.25" height="0.59" transform="translate(-104.64 80.88) rotate(-45.52)"/><rect class="cls-1" x="112.47" y="125.64" width="9.25" height="0.59" transform="translate(-104.8 81.31) rotate(-45.52)"/><rect class="cls-1" x="112.89" y="126.06" width="9.25" height="0.59" transform="matrix(0.7, -0.71, 0.71, 0.7, -104.97, 81.73)"/><rect class="cls-1" x="113.31" y="126.47" width="9.25" height="0.59" transform="translate(-105.14 82.15) rotate(-45.52)"/><rect class="cls-1" x="113.73" y="126.88" width="9.25" height="0.59" transform="translate(-105.31 82.58) rotate(-45.52)"/><rect class="cls-1" x="114.15" y="127.29" width="9.25" height="0.59" transform="translate(-105.48 83) rotate(-45.52)"/><rect class="cls-1" x="114.57" y="127.7" width="9.25" height="0.59" transform="translate(-105.65 83.42) rotate(-45.52)"/><rect class="cls-1" x="114.99" y="128.12" width="9.25" height="0.59" transform="translate(-105.81 83.85) rotate(-45.52)"/><rect class="cls-1" x="115.41" y="128.53" width="9.25" height="0.59" transform="translate(-105.98 84.27) rotate(-45.52)"/><rect class="cls-1" x="115.83" y="128.94" width="9.25" height="0.59" transform="translate(-106.15 84.69) rotate(-45.52)"/><rect class="cls-1" x="116.25" y="129.35" width="9.25" height="0.59" transform="translate(-106.32 85.12) rotate(-45.52)"/><rect class="cls-1" x="116.67" y="129.77" width="9.25" height="0.59" transform="translate(-106.49 85.54) rotate(-45.52)"/><rect class="cls-1" x="117.09" y="130.18" width="9.25" height="0.59" transform="translate(-106.66 85.96) rotate(-45.52)"/><rect class="cls-1" x="117.51" y="130.59" width="9.25" height="0.59" transform="translate(-106.83 86.39) rotate(-45.52)"/><rect class="cls-1" x="117.93" y="131" width="9.25" height="0.59" transform="translate(-106.99 86.81) rotate(-45.52)"/><rect class="cls-1" x="118.35" y="131.42" width="9.25" height="0.59" transform="translate(-107.16 87.23) rotate(-45.52)"/><rect class="cls-1" x="118.77" y="131.83" width="9.25" height="0.59" transform="translate(-107.33 87.65) rotate(-45.52)"/><rect class="cls-1" x="119.19" y="132.24" width="9.25" height="0.59" transform="translate(-107.5 88.08) rotate(-45.52)"/><rect class="cls-1" x="119.61" y="132.65" width="9.25" height="0.59" transform="translate(-107.67 88.5) rotate(-45.52)"/><rect class="cls-1" x="120.03" y="133.07" width="9.25" height="0.59" transform="translate(-107.84 88.92) rotate(-45.52)"/><rect class="cls-1" x="120.45" y="133.48" width="9.25" height="0.59" transform="translate(-108.01 89.35) rotate(-45.52)"/><rect class="cls-1" x="120.87" y="133.89" width="9.25" height="0.59" transform="translate(-108.17 89.77) rotate(-45.52)"/><rect class="cls-1" x="121.29" y="134.3" width="9.25" height="0.59" transform="translate(-108.34 90.19) rotate(-45.52)"/><rect class="cls-1" x="121.71" y="134.72" width="9.25" height="0.59" transform="translate(-108.51 90.62) rotate(-45.52)"/><rect class="cls-1" x="122.13" y="135.13" width="9.25" height="0.59" transform="translate(-108.68 91.04) rotate(-45.52)"/><rect class="cls-1" x="122.55" y="135.54" width="9.25" height="0.59" transform="translate(-108.85 91.46) rotate(-45.52)"/><rect class="cls-1" x="122.97" y="135.95" width="9.25" height="0.59" transform="translate(-109.02 91.89) rotate(-45.52)"/><polygon class="cls-1" points="81.05 93.2 81.26 93.41 81.26 93.83 75.26 99.94 74.7 99.94 74.56 99.81 81.05 93.2"/><polygon class="cls-1" points="75.26 99.94 81.26 93.83 81.26 99.94 75.26 99.94"/></g><path id="SVGID-4" data-name="SVGID" class="cls-1" d="M89.17,118.23A20.17,20.17,0,0,1,74.91,83.79a20.17,20.17,0,1,1,14.26,34.44Zm0-35a14.83,14.83,0,1,0,10.49,4.34A14.8,14.8,0,0,0,89.18,83.22Z" transform="translate(-50 -39.95)"/><g class="cls-4"><polygon class="cls-1" points="25.31 43.27 24.33 44.27 24.33 43.27 25.31 43.27"/><polygon class="cls-1" points="26.14 43.27 24.33 45.11 24.33 44.27 25.31 43.27 26.14 43.27"/><polygon class="cls-1" points="26.96 43.27 24.33 45.95 24.33 45.11 26.14 43.27 26.96 43.27"/><polygon class="cls-1" points="27.79 43.27 24.33 46.79 24.33 45.95 26.96 43.27 27.79 43.27"/><polygon class="cls-1" points="28.61 43.27 24.33 47.63 24.33 46.79 27.79 43.27 28.61 43.27"/><polygon class="cls-1" points="29.43 43.27 24.33 48.47 24.33 47.63 28.61 43.27 29.43 43.27"/><polygon class="cls-1" points="30.26 43.27 24.33 49.31 24.33 48.47 29.43 43.27 30.26 43.27"/><polygon class="cls-1" points="31.08 43.27 24.33 50.15 24.33 49.31 30.26 43.27 31.08 43.27"/><polygon class="cls-1" points="31.91 43.27 24.33 50.99 24.33 50.15 31.08 43.27 31.91 43.27"/><polygon class="cls-1" points="32.73 43.27 24.33 51.83 24.33 50.99 31.91 43.27 32.73 43.27"/><polygon class="cls-1" points="33.56 43.27 24.33 52.67 24.33 51.83 32.73 43.27 33.56 43.27"/><polygon class="cls-1" points="34.38 43.27 24.33 53.51 24.33 52.67 33.56 43.27 34.38 43.27"/><polygon class="cls-1" points="35.21 43.27 24.33 54.35 24.33 53.51 34.38 43.27 35.21 43.27"/><polygon class="cls-1" points="36.03 43.27 24.33 55.19 24.33 54.35 35.21 43.27 36.03 43.27"/><polygon class="cls-1" points="36.86 43.27 24.33 56.03 24.33 55.19 36.03 43.27 36.86 43.27"/><polygon class="cls-1" points="37.68 43.27 24.33 56.87 24.33 56.03 36.86 43.27 37.68 43.27"/><polygon class="cls-1" points="38.51 43.27 24.33 57.71 24.33 56.87 37.68 43.27 38.51 43.27"/><polygon class="cls-1" points="39.33 43.27 24.33 58.55 24.33 57.71 38.51 43.27 39.33 43.27"/><polygon class="cls-1" points="40.16 43.27 24.33 59.39 24.33 58.55 39.33 43.27 40.16 43.27"/><polygon class="cls-1" points="40.98 43.27 24.33 60.23 24.33 59.39 40.16 43.27 40.98 43.27"/><polygon class="cls-1" points="41.81 43.27 24.33 61.07 24.33 60.23 40.98 43.27 41.81 43.27"/><polygon class="cls-1" points="42.63 43.27 24.33 61.91 24.33 61.07 41.81 43.27 42.63 43.27"/><polygon class="cls-1" points="43.46 43.27 24.33 62.75 24.33 61.91 42.63 43.27 43.46 43.27"/><polygon class="cls-1" points="44.28 43.27 24.33 63.59 24.33 62.75 43.46 43.27 44.28 43.27"/><polygon class="cls-1" points="45.11 43.27 24.33 64.43 24.33 63.59 44.28 43.27 45.11 43.27"/><polygon class="cls-1" points="45.93 43.27 24.33 65.27 24.33 64.43 45.11 43.27 45.93 43.27"/><polygon class="cls-1" points="46.76 43.27 24.33 66.11 24.33 65.27 45.93 43.27 46.76 43.27"/><polygon class="cls-1" points="47.58 43.27 24.37 66.92 24.33 66.88 24.33 66.11 46.76 43.27 47.58 43.27"/><polygon class="cls-1" points="47.84 43.27 48.13 43.56 24.79 67.33 24.37 66.92 47.58 43.27 47.84 43.27"/><rect class="cls-1" x="70.01" y="95.3" width="33.31" height="0.59" transform="translate(-92.27 50.51) rotate(-45.52)"/><rect class="cls-1" x="70.43" y="95.72" width="33.31" height="0.59" transform="translate(-92.43 50.94) rotate(-45.52)"/><rect class="cls-1" x="70.85" y="96.13" width="33.31" height="0.59" transform="translate(-92.6 51.36) rotate(-45.52)"/><rect class="cls-1" x="71.27" y="96.54" width="33.31" height="0.59" transform="translate(-92.77 51.78) rotate(-45.52)"/><rect class="cls-1" x="71.69" y="96.95" width="33.31" height="0.59" transform="translate(-92.94 52.21) rotate(-45.52)"/><rect class="cls-1" x="72.11" y="97.37" width="33.31" height="0.59" transform="translate(-93.11 52.63) rotate(-45.52)"/><rect class="cls-1" x="72.53" y="97.78" width="33.31" height="0.59" transform="translate(-93.28 53.05) rotate(-45.52)"/><rect class="cls-1" x="72.95" y="98.19" width="33.31" height="0.59" transform="translate(-93.44 53.48) rotate(-45.52)"/><rect class="cls-1" x="73.37" y="98.6" width="33.31" height="0.59" transform="translate(-93.61 53.9) rotate(-45.52)"/><rect class="cls-1" x="73.79" y="99.01" width="33.31" height="0.59" transform="translate(-93.78 54.32) rotate(-45.52)"/><rect class="cls-1" x="74.21" y="99.43" width="33.31" height="0.59" transform="translate(-93.95 54.74) rotate(-45.52)"/><rect class="cls-1" x="74.63" y="99.84" width="33.31" height="0.59" transform="translate(-94.12 55.17) rotate(-45.52)"/><rect class="cls-1" x="75.05" y="100.25" width="33.31" height="0.59" transform="translate(-94.29 55.59) rotate(-45.52)"/><polygon class="cls-1" points="53.59 48.92 54.01 49.33 30.82 72.95 30.52 72.95 30.25 72.69 53.59 48.92"/><polygon class="cls-1" points="54.01 49.33 54.02 49.34 54.02 50.16 31.64 72.95 30.82 72.95 54.01 49.33"/><polygon class="cls-1" points="54.02 51 32.47 72.95 31.64 72.95 54.02 50.16 54.02 51"/><polygon class="cls-1" points="54.02 51.84 33.29 72.95 32.47 72.95 54.02 51 54.02 51.84"/><polygon class="cls-1" points="54.02 52.68 34.12 72.95 33.29 72.95 54.02 51.84 54.02 52.68"/><polygon class="cls-1" points="54.02 53.52 34.94 72.95 34.12 72.95 54.02 52.68 54.02 53.52"/><polygon class="cls-1" points="54.02 54.36 35.77 72.95 34.94 72.95 54.02 53.52 54.02 54.36"/><polygon class="cls-1" points="54.02 55.2 36.59 72.95 35.77 72.95 54.02 54.36 54.02 55.2"/><polygon class="cls-1" points="54.02 56.04 37.41 72.95 36.59 72.95 54.02 55.2 54.02 56.04"/><polygon class="cls-1" points="54.02 56.88 38.24 72.95 37.41 72.95 54.02 56.04 54.02 56.88"/><polygon class="cls-1" points="54.02 57.72 39.06 72.95 38.24 72.95 54.02 56.88 54.02 57.72"/><polygon class="cls-1" points="54.02 58.56 39.89 72.95 39.06 72.95 54.02 57.72 54.02 58.56"/><polygon class="cls-1" points="54.02 59.41 40.71 72.95 39.89 72.95 54.02 58.56 54.02 59.41"/><polygon class="cls-1" points="54.02 60.24 41.54 72.95 40.71 72.95 54.02 59.41 54.02 60.24"/><polygon class="cls-1" points="54.02 61.09 42.36 72.95 41.54 72.95 54.02 60.24 54.02 61.09"/><polygon class="cls-1" points="54.02 61.92 43.19 72.95 42.36 72.95 54.02 61.09 54.02 61.92"/><polygon class="cls-1" points="54.02 62.77 44.01 72.95 43.19 72.95 54.02 61.92 54.02 62.77"/><polygon class="cls-1" points="54.02 63.6 44.84 72.95 44.01 72.95 54.02 62.77 54.02 63.6"/><polygon class="cls-1" points="54.02 64.44 45.66 72.95 44.84 72.95 54.02 63.6 54.02 64.44"/><polygon class="cls-1" points="54.02 65.28 46.49 72.95 45.66 72.95 54.02 64.44 54.02 65.28"/><polygon class="cls-1" points="54.02 66.13 47.31 72.95 46.49 72.95 54.02 65.28 54.02 66.13"/><polygon class="cls-1" points="54.02 66.97 48.14 72.95 47.31 72.95 54.02 66.13 54.02 66.97"/><polygon class="cls-1" points="54.02 67.81 48.96 72.95 48.14 72.95 54.02 66.97 54.02 67.81"/><polygon class="cls-1" points="54.02 68.65 49.79 72.95 48.96 72.95 54.02 67.81 54.02 68.65"/><polygon class="cls-1" points="54.02 69.49 50.61 72.95 49.79 72.95 54.02 68.65 54.02 69.49"/><polygon class="cls-1" points="54.02 70.33 51.44 72.95 50.61 72.95 54.02 69.49 54.02 70.33"/><polygon class="cls-1" points="54.02 71.17 52.26 72.95 51.44 72.95 54.02 70.33 54.02 71.17"/><polygon class="cls-1" points="54.02 72.01 53.09 72.95 52.26 72.95 54.02 71.17 54.02 72.01"/><polygon class="cls-1" points="54.02 72.85 53.91 72.95 53.09 72.95 54.02 72.01 54.02 72.85"/><polygon class="cls-1" points="53.91 72.95 54.02 72.85 54.02 72.95 53.91 72.95"/><polygon class="cls-1" points="32.48 35.98 19 49.7 19 35.98 32.48 35.98"/><polygon class="cls-1" points="33.3 35.98 19 50.54 19 49.7 32.48 35.98 33.3 35.98"/><polygon class="cls-1" points="34.13 35.98 19 51.38 19 50.54 33.3 35.98 34.13 35.98"/><polygon class="cls-1" points="34.95 35.98 19 52.22 19 51.38 34.13 35.98 34.95 35.98"/><polygon class="cls-1" points="35.77 35.98 19 53.06 19 52.22 34.95 35.98 35.77 35.98"/><polygon class="cls-1" points="36.6 35.98 19 53.9 19 53.06 35.77 35.98 36.6 35.98"/><polygon class="cls-1" points="37.42 35.98 19 54.74 19 53.9 36.6 35.98 37.42 35.98"/><polygon class="cls-1" points="38.25 35.98 19 55.58 19 54.74 37.42 35.98 38.25 35.98"/><polygon class="cls-1" points="39.08 35.98 19 56.42 19 55.58 38.25 35.98 39.08 35.98"/><polygon class="cls-1" points="39.9 35.98 19 57.26 19 56.42 39.08 35.98 39.9 35.98"/><polygon class="cls-1" points="40.73 35.98 19 58.1 19 57.26 39.9 35.98 40.73 35.98"/><polygon class="cls-1" points="41.55 35.98 19 58.94 19 58.1 40.73 35.98 41.55 35.98"/><polygon class="cls-1" points="42.37 35.98 19 59.78 19 58.94 41.55 35.98 42.37 35.98"/><polygon class="cls-1" points="43.2 35.98 19 60.62 19 59.78 42.37 35.98 43.2 35.98"/><polygon class="cls-1" points="44.02 35.98 19 61.46 19 60.62 43.2 35.98 44.02 35.98"/><polygon class="cls-1" points="44.85 35.98 19 62.3 19 61.46 44.02 35.98 44.85 35.98"/><polygon class="cls-1" points="45.67 35.98 19 63.14 19 62.3 44.85 35.98 45.67 35.98"/><polygon class="cls-1" points="46.5 35.98 19 63.98 19 63.14 45.67 35.98 46.5 35.98"/><polygon class="cls-1" points="47.32 35.98 19 64.82 19 63.98 46.5 35.98 47.32 35.98"/><polygon class="cls-1" points="48.11 35.98 48.13 36 19 65.66 19 64.82 47.32 35.98 48.11 35.98"/><polygon class="cls-1" points="48.13 36 48.55 36.41 19 66.5 19 65.66 48.13 36"/><polygon class="cls-1" points="48.55 36.41 48.97 36.82 19 67.34 19 66.5 48.55 36.41"/><polygon class="cls-1" points="48.97 36.82 49.39 37.23 19 68.19 19 67.34 48.97 36.82"/><polygon class="cls-1" points="49.39 37.23 49.81 37.65 19 69.03 19 68.19 49.39 37.23"/><polygon class="cls-1" points="49.81 37.65 50.23 38.06 19.36 69.49 19 69.14 19 69.03 49.81 37.65"/><rect class="cls-1" x="62.98" y="93.64" width="44.06" height="0.59" transform="translate(-91.57 48.83) rotate(-45.52)"/><rect class="cls-1" x="63.4" y="94.05" width="44.06" height="0.59" transform="translate(-91.74 49.25) rotate(-45.52)"/><rect class="cls-1" x="63.82" y="94.46" width="44.06" height="0.59" transform="matrix(0.7, -0.71, 0.71, 0.7, -91.91, 49.67)"/><rect class="cls-1" x="64.24" y="94.87" width="44.06" height="0.59" transform="translate(-92.08 50.1) rotate(-45.52)"/><rect class="cls-1" x="64.66" y="95.28" width="44.06" height="0.59" transform="translate(-92.25 50.52) rotate(-45.52)"/><rect class="cls-1" x="65.08" y="95.7" width="44.06" height="0.59" transform="translate(-92.42 50.94) rotate(-45.52)"/><rect class="cls-1" x="65.5" y="96.11" width="44.06" height="0.59" transform="translate(-92.58 51.37) rotate(-45.52)"/><rect class="cls-1" x="65.92" y="96.52" width="44.06" height="0.59" transform="translate(-92.75 51.79) rotate(-45.52)"/><rect class="cls-1" x="66.34" y="96.93" width="44.06" height="0.59" transform="translate(-92.92 52.21) rotate(-45.52)"/><rect class="cls-1" x="66.76" y="97.35" width="44.06" height="0.59" transform="translate(-93.09 52.64) rotate(-45.52)"/><rect class="cls-1" x="67.18" y="97.76" width="44.06" height="0.59" transform="translate(-93.26 53.06) rotate(-45.52)"/><rect class="cls-1" x="67.6" y="98.17" width="44.06" height="0.59" transform="translate(-93.43 53.48) rotate(-45.52)"/><rect class="cls-1" x="68.02" y="98.58" width="44.06" height="0.59" transform="matrix(0.7, -0.71, 0.71, 0.7, -93.59, 53.91)"/><rect class="cls-1" x="68.44" y="99" width="44.06" height="0.59" transform="translate(-93.76 54.33) rotate(-45.52)"/><rect class="cls-1" x="68.86" y="99.41" width="44.06" height="0.59" transform="translate(-93.93 54.75) rotate(-45.52)"/><rect class="cls-1" x="69.28" y="99.82" width="44.06" height="0.59" transform="translate(-94.1 55.17) rotate(-45.52)"/><rect class="cls-1" x="69.7" y="100.23" width="44.06" height="0.59" transform="translate(-94.27 55.6) rotate(-45.52)"/><rect class="cls-1" x="70.12" y="100.65" width="44.06" height="0.59" transform="translate(-94.44 56.02) rotate(-45.52)"/><rect class="cls-1" x="70.54" y="101.06" width="44.06" height="0.59" transform="translate(-94.61 56.44) rotate(-45.52)"/><rect class="cls-1" x="70.96" y="101.47" width="44.06" height="0.59" transform="translate(-94.77 56.87) rotate(-45.52)"/><rect class="cls-1" x="71.38" y="101.88" width="44.06" height="0.59" transform="translate(-94.94 57.29) rotate(-45.52)"/><polygon class="cls-1" points="59.05 46.72 59.35 47.01 59.35 47.25 28.88 78.29 28.32 78.29 28.18 78.15 59.05 46.72"/><polygon class="cls-1" points="59.35 48.09 29.7 78.29 28.88 78.29 59.35 47.25 59.35 48.09"/><polygon class="cls-1" points="59.35 48.93 30.53 78.29 29.7 78.29 59.35 48.09 59.35 48.93"/><polygon class="cls-1" points="59.35 49.77 31.35 78.29 30.53 78.29 59.35 48.93 59.35 49.77"/><polygon class="cls-1" points="59.35 50.61 32.18 78.29 31.35 78.29 59.35 49.77 59.35 50.61"/><polygon class="cls-1" points="59.35 51.45 33 78.29 32.18 78.29 59.35 50.61 59.35 51.45"/><polygon class="cls-1" points="59.35 52.29 33.83 78.29 33 78.29 59.35 51.45 59.35 52.29"/><polygon class="cls-1" points="59.35 53.13 34.65 78.29 33.83 78.29 59.35 52.29 59.35 53.13"/><polygon class="cls-1" points="59.35 53.97 35.48 78.29 34.65 78.29 59.35 53.13 59.35 53.97"/><polygon class="cls-1" points="59.35 54.81 36.3 78.29 35.48 78.29 59.35 53.97 59.35 54.81"/><polygon class="cls-1" points="59.35 55.65 37.13 78.29 36.3 78.29 59.35 54.81 59.35 55.65"/><polygon class="cls-1" points="59.35 56.49 37.95 78.29 37.13 78.29 59.35 55.65 59.35 56.49"/><polygon class="cls-1" points="59.35 57.33 38.78 78.29 37.95 78.29 59.35 56.49 59.35 57.33"/><polygon class="cls-1" points="59.35 58.17 39.6 78.29 38.78 78.29 59.35 57.33 59.35 58.17"/><polygon class="cls-1" points="59.35 59.01 40.43 78.29 39.6 78.29 59.35 58.17 59.35 59.01"/><polygon class="cls-1" points="59.35 59.85 41.25 78.29 40.43 78.29 59.35 59.01 59.35 59.85"/><polygon class="cls-1" points="59.35 60.69 42.08 78.29 41.25 78.29 59.35 59.85 59.35 60.69"/><polygon class="cls-1" points="59.35 61.53 42.9 78.29 42.08 78.29 59.35 60.69 59.35 61.53"/><polygon class="cls-1" points="59.35 62.37 43.73 78.29 42.9 78.29 59.35 61.53 59.35 62.37"/><polygon class="cls-1" points="59.35 63.21 44.55 78.29 43.73 78.29 59.35 62.37 59.35 63.21"/><polygon class="cls-1" points="59.35 64.06 45.38 78.29 44.55 78.29 59.35 63.21 59.35 64.06"/><polygon class="cls-1" points="59.35 64.89 46.2 78.29 45.38 78.29 59.35 64.06 59.35 64.89"/><polygon class="cls-1" points="59.35 65.73 47.03 78.29 46.2 78.29 59.35 64.89 59.35 65.73"/><polygon class="cls-1" points="59.35 66.58 47.85 78.29 47.03 78.29 59.35 65.73 59.35 66.58"/><polygon class="cls-1" points="59.35 67.42 48.68 78.29 47.85 78.29 59.35 66.58 59.35 67.42"/><polygon class="cls-1" points="59.35 68.25 49.5 78.29 48.68 78.29 59.35 67.42 59.35 68.25"/><polygon class="cls-1" points="59.35 69.09 50.33 78.29 49.5 78.29 59.35 68.25 59.35 69.09"/><polygon class="cls-1" points="59.35 69.94 51.15 78.29 50.33 78.29 59.35 69.09 59.35 69.94"/><polygon class="cls-1" points="59.35 70.78 51.98 78.29 51.15 78.29 59.35 69.94 59.35 70.78"/><polygon class="cls-1" points="59.35 71.62 52.8 78.29 51.98 78.29 59.35 70.78 59.35 71.62"/><polygon class="cls-1" points="59.35 72.46 53.63 78.29 52.8 78.29 59.35 71.62 59.35 72.46"/><polygon class="cls-1" points="59.35 73.3 54.45 78.29 53.63 78.29 59.35 72.46 59.35 73.3"/><polygon class="cls-1" points="59.35 74.14 55.27 78.29 54.45 78.29 59.35 73.3 59.35 74.14"/><polygon class="cls-1" points="59.35 74.98 56.1 78.29 55.27 78.29 59.35 74.14 59.35 74.98"/><polygon class="cls-1" points="59.35 75.82 56.92 78.29 56.1 78.29 59.35 74.98 59.35 75.82"/><polygon class="cls-1" points="59.35 76.66 57.75 78.29 56.92 78.29 59.35 75.82 59.35 76.66"/><polygon class="cls-1" points="59.35 77.5 58.58 78.29 57.75 78.29 59.35 76.66 59.35 77.5"/><polygon class="cls-1" points="58.58 78.29 59.35 77.5 59.35 78.29 58.58 78.29"/></g></svg>