<svg id="Layer_1" data-name="Layer 1" xmlns="http://www.w3.org/2000/svg" xmlns:xlink="http://www.w3.org/1999/xlink" viewBox="0 0 100 93.24"><defs><style>.cls-1{fill:#368ac9;}.cls-2{clip-path:url(#clip-path);}</style><clipPath id="clip-path" transform="translate(-50 -53.38)"><polygon id="SVGID" class="cls-1" points="117.45 124.74 139.41 92.1 150 99.23 128.04 131.86 118.91 134.01 117.45 124.74"/></clipPath></defs><title>Assignments</title><rect class="cls-1" x="15.16" y="12.12" width="31.7" height="5.59"/><rect class="cls-1" x="15.16" y="27.51" width="31.7" height="5.59"/><rect class="cls-1" x="15.63" y="42.89" width="48.02" height="5.59"/><rect class="cls-1" x="15.63" y="58.28" width="48.02" height="5.59"/><rect class="cls-1" x="15.63" y="73.66" width="48.02" height="5.59"/><path class="cls-1" d="M105.82,59,122,76.12V141H55.59V59h50.23m2.4-5.59H50v93.24h77.63V73.89L108.22,53.38Z" transform="translate(-50 -53.38)"/><polygon class="cls-1" points="75.86 23.31 53.65 23.31 53.65 0 59.24 0 59.24 17.72 75.86 17.72 75.86 23.31"/><polygon id="SVGID-2" data-name="SVGID" class="cls-1" points="67.45 71.36 89.41 38.72 100 45.85 78.04 78.48 68.91 80.63 67.45 71.36"/><g class="cls-2"><polygon class="cls-1" points="67.45 79.26 69.49 80.63 67.45 80.63 67.45 79.26"/><polygon class="cls-1" points="67.45 78.49 70.63 80.63 69.49 80.63 67.45 79.26 67.45 78.49"/><polygon class="cls-1" points="67.45 77.73 71.77 80.63 70.63 80.63 67.45 78.49 67.45 77.73"/><polygon class="cls-1" points="67.45 76.96 72.92 80.63 71.77 80.63 67.45 77.73 67.45 76.96"/><polygon class="cls-1" points="67.45 76.19 74.06 80.63 72.92 80.63 67.45 76.96 67.45 76.19"/><polygon class="cls-1" points="67.45 75.42 75.2 80.63 74.06 80.63 67.45 76.19 67.45 75.42"/><polygon class="cls-1" points="67.45 74.66 76.34 80.63 75.2 80.63 67.45 75.42 67.45 74.66"/><polygon class="cls-1" points="67.45 73.89 77.48 80.63 76.34 80.63 67.45 74.66 67.45 73.89"/><polygon class="cls-1" points="67.45 73.12 78.62 80.63 77.48 80.63 67.45 73.89 67.45 73.12"/><polygon class="cls-1" points="67.45 72.35 79.7 80.59 79.67 80.63 78.62 80.63 67.45 73.12 67.45 72.35"/><polygon class="cls-1" points="67.45 71.58 80.06 80.06 79.7 80.59 67.45 72.35 67.45 71.58"/><polygon class="cls-1" points="67.45 70.81 80.41 79.53 80.06 80.06 67.45 71.58 67.45 70.81"/><polygon class="cls-1" points="67.45 70.05 80.77 79 80.41 79.53 67.45 70.81 67.45 70.05"/><polygon class="cls-1" points="67.45 69.28 81.12 78.48 80.77 79 67.45 70.05 67.45 69.28"/><polygon class="cls-1" points="67.45 68.51 81.48 77.95 81.12 78.48 67.45 69.28 67.45 68.51"/><polygon class="cls-1" points="67.45 67.74 81.83 77.42 81.48 77.95 67.45 68.51 67.45 67.74"/><polygon class="cls-1" points="67.45 66.97 82.19 76.89 81.83 77.42 67.45 67.74 67.45 66.97"/><polygon class="cls-1" points="67.45 66.78 67.72 66.39 82.55 76.36 82.19 76.89 67.45 66.97 67.45 66.78"/><rect class="cls-1" x="124.99" y="115.56" width="0.64" height="17.87" transform="translate(-97.93 105.59) rotate(-56.07)"/><rect class="cls-1" x="125.35" y="115.03" width="0.64" height="17.87" transform="translate(-97.33 105.65) rotate(-56.07)"/><rect class="cls-1" x="125.7" y="114.5" width="0.64" height="17.87" transform="matrix(0.56, -0.83, 0.83, 0.56, -96.74, 105.71)"/><rect class="cls-1" x="126.06" y="113.97" width="0.64" height="17.87" transform="translate(-96.14 105.77) rotate(-56.07)"/><rect class="cls-1" x="126.42" y="113.44" width="0.64" height="17.87" transform="translate(-95.55 105.83) rotate(-56.07)"/><rect class="cls-1" x="126.77" y="112.91" width="0.64" height="17.87" transform="translate(-94.95 105.89) rotate(-56.07)"/><rect class="cls-1" x="127.13" y="112.38" width="0.64" height="17.87" transform="translate(-94.35 105.95) rotate(-56.07)"/><rect class="cls-1" x="127.48" y="111.86" width="0.64" height="17.87" transform="translate(-93.76 106.02) rotate(-56.07)"/><rect class="cls-1" x="127.84" y="111.33" width="0.64" height="17.87" transform="translate(-93.16 106.08) rotate(-56.07)"/><rect class="cls-1" x="128.19" y="110.8" width="0.64" height="17.87" transform="translate(-92.57 106.14) rotate(-56.07)"/><rect class="cls-1" x="128.55" y="110.27" width="0.64" height="17.87" transform="translate(-91.97 106.2) rotate(-56.07)"/><rect class="cls-1" x="128.91" y="109.74" width="0.64" height="17.87" transform="translate(-91.38 106.26) rotate(-56.07)"/><rect class="cls-1" x="129.26" y="109.21" width="0.64" height="17.87" transform="translate(-90.78 106.32) rotate(-56.07)"/><rect class="cls-1" x="129.62" y="108.68" width="0.64" height="17.87" transform="translate(-90.18 106.39) rotate(-56.07)"/><rect class="cls-1" x="129.97" y="108.15" width="0.64" height="17.87" transform="translate(-89.59 106.45) rotate(-56.07)"/><rect class="cls-1" x="130.33" y="107.63" width="0.64" height="17.87" transform="translate(-88.99 106.51) rotate(-56.07)"/><rect class="cls-1" x="130.68" y="107.1" width="0.64" height="17.87" transform="translate(-88.4 106.57) rotate(-56.07)"/><rect class="cls-1" x="131.04" y="106.57" width="0.64" height="17.87" transform="translate(-87.8 106.63) rotate(-56.07)"/><rect class="cls-1" x="131.4" y="106.04" width="0.64" height="17.87" transform="translate(-87.2 106.69) rotate(-56.07)"/><rect class="cls-1" x="131.75" y="105.51" width="0.64" height="17.87" transform="translate(-86.61 106.76) rotate(-56.07)"/><rect class="cls-1" x="132.11" y="104.98" width="0.64" height="17.87" transform="translate(-86.01 106.82) rotate(-56.07)"/><rect class="cls-1" x="132.46" y="104.45" width="0.64" height="17.87" transform="translate(-85.42 106.88) rotate(-56.07)"/><rect class="cls-1" x="132.82" y="103.93" width="0.64" height="17.87" transform="translate(-84.82 106.94) rotate(-56.07)"/><rect class="cls-1" x="133.17" y="103.4" width="0.64" height="17.87" transform="translate(-84.23 107) rotate(-56.07)"/><rect class="cls-1" x="133.53" y="102.87" width="0.64" height="17.87" transform="translate(-83.63 107.06) rotate(-56.07)"/><rect class="cls-1" x="133.89" y="102.34" width="0.64" height="17.87" transform="translate(-83.03 107.12) rotate(-56.07)"/><rect class="cls-1" x="134.24" y="101.81" width="0.64" height="17.87" transform="translate(-82.44 107.19) rotate(-56.07)"/><rect class="cls-1" x="134.6" y="101.28" width="0.64" height="17.87" transform="translate(-81.84 107.25) rotate(-56.07)"/><rect class="cls-1" x="134.95" y="100.75" width="0.64" height="17.87" transform="translate(-81.25 107.31) rotate(-56.07)"/><rect class="cls-1" x="135.31" y="100.23" width="0.64" height="17.87" transform="translate(-80.65 107.37) rotate(-56.07)"/><rect class="cls-1" x="135.66" y="99.7" width="0.64" height="17.87" transform="translate(-80.06 107.43) rotate(-56.07)"/><rect class="cls-1" x="136.02" y="99.17" width="0.64" height="17.87" transform="translate(-79.46 107.49) rotate(-56.07)"/><rect class="cls-1" x="136.38" y="98.64" width="0.64" height="17.87" transform="translate(-78.86 107.56) rotate(-56.07)"/><rect class="cls-1" x="136.73" y="98.11" width="0.64" height="17.87" transform="translate(-78.27 107.62) rotate(-56.07)"/><rect class="cls-1" x="137.09" y="97.58" width="0.64" height="17.87" transform="translate(-77.67 107.68) rotate(-56.07)"/><rect class="cls-1" x="137.44" y="97.05" width="0.64" height="17.87" transform="translate(-77.08 107.74) rotate(-56.07)"/><rect class="cls-1" x="137.8" y="96.52" width="0.64" height="17.87" transform="translate(-76.48 107.8) rotate(-56.07)"/><rect class="cls-1" x="138.15" y="96" width="0.64" height="17.87" transform="translate(-75.89 107.86) rotate(-56.07)"/><rect class="cls-1" x="138.51" y="95.47" width="0.64" height="17.87" transform="translate(-75.29 107.93) rotate(-56.07)"/><rect class="cls-1" x="138.86" y="94.94" width="0.64" height="17.87" transform="translate(-74.69 107.99) rotate(-56.07)"/><rect class="cls-1" x="139.22" y="94.41" width="0.64" height="17.87" transform="translate(-74.1 108.05) rotate(-56.07)"/><rect class="cls-1" x="139.58" y="93.88" width="0.64" height="17.87" transform="matrix(0.56, -0.83, 0.83, 0.56, -73.5, 108.11)"/><rect class="cls-1" x="139.93" y="93.35" width="0.64" height="17.87" transform="translate(-72.91 108.17) rotate(-56.07)"/><rect class="cls-1" x="140.29" y="92.82" width="0.64" height="17.87" transform="translate(-72.31 108.23) rotate(-56.07)"/><rect class="cls-1" x="140.64" y="92.3" width="0.64" height="17.87" transform="translate(-71.72 108.29) rotate(-56.07)"/><rect class="cls-1" x="141" y="91.77" width="0.64" height="17.87" transform="translate(-71.12 108.36) rotate(-56.07)"/><rect class="cls-1" x="141.35" y="91.24" width="0.64" height="17.87" transform="matrix(0.56, -0.83, 0.83, 0.56, -70.52, 108.42)"/><rect class="cls-1" x="141.71" y="90.71" width="0.64" height="17.87" transform="matrix(0.56, -0.83, 0.83, 0.56, -69.93, 108.48)"/><rect class="cls-1" x="142.07" y="90.18" width="0.64" height="17.87" transform="translate(-69.33 108.54) rotate(-56.07)"/><polygon class="cls-1" points="85.15 40.48 85.51 39.95 100 49.71 100 50.42 99.97 50.46 85.15 40.48"/><polygon class="cls-1" points="85.51 39.95 85.86 39.43 100 48.94 100 49.71 85.51 39.95"/><polygon class="cls-1" points="85.86 39.43 86.22 38.9 100 48.17 100 48.94 85.86 39.43"/><polygon class="cls-1" points="86.22 38.9 86.33 38.72 100 38.72 100 48.17 86.22 38.9"/></g></svg>