<svg id="Layer_1" data-name="Layer 1" xmlns="http://www.w3.org/2000/svg" viewBox="0 0 100 100"><defs><style>.cls-1{fill:#bd1622;}</style></defs><title>Attendence</title><path class="cls-1" d="M140.71,150H59.29A9.3,9.3,0,0,1,50,140.71V59.29A9.3,9.3,0,0,1,59.29,50h81.42A9.3,9.3,0,0,1,150,59.29v81.42A9.3,9.3,0,0,1,140.71,150ZM59.29,54.7a4.6,4.6,0,0,0-4.59,4.59v81.42a4.6,4.6,0,0,0,4.59,4.59h81.42a4.6,4.6,0,0,0,4.59-4.59V59.29a4.6,4.6,0,0,0-4.59-4.59Z" transform="translate(-50 -50)"/><rect class="cls-1" x="2.35" y="16.42" width="95.3" height="4.7"/><rect class="cls-1" x="12.71" y="30.63" width="15.17" height="4.7"/><rect class="cls-1" x="72.91" y="30.63" width="15.17" height="4.7"/><path class="cls-1" d="M100,89.23l-4.8-4.8a2.35,2.35,0,0,1,3.32-3.32L100,82.59l9.06-9.07a2.35,2.35,0,0,1,3.33,3.33Z" transform="translate(-50 -50)"/><path class="cls-1" d="M67.62,114.09l-4.8-4.8A2.35,2.35,0,1,1,66.14,106l1.48,1.47,9.06-9.06A2.35,2.35,0,1,1,80,101.7Z" transform="translate(-50 -50)"/><rect class="cls-1" x="42.42" y="54.28" width="15.17" height="4.7"/><rect class="cls-1" x="42.42" y="77.94" width="15.17" height="4.7"/><rect class="cls-1" x="72.91" y="54.28" width="15.17" height="4.7"/><rect class="cls-1" x="12.71" y="77.94" width="15.17" height="4.7"/><rect class="cls-1" x="72.91" y="77.94" width="15.17" height="4.7"/></svg>