<svg id="Layer_1" data-name="Layer 1" xmlns="http://www.w3.org/2000/svg" xmlns:xlink="http://www.w3.org/1999/xlink" viewBox="0 0 100 98.7"><defs><style>.cls-1{fill:url(#linear-gradient);}.cls-2{fill:url(#linear-gradient-2);}</style><linearGradient id="linear-gradient" x1="50" y1="121.79" x2="150" y2="121.79" gradientUnits="userSpaceOnUse"><stop offset="0" stop-color="#2070b3"/><stop offset="0.05" stop-color="#1e76b4"/><stop offset="0.28" stop-color="#1491b6"/><stop offset="0.51" stop-color="#0da4b8"/><stop offset="0.75" stop-color="#09afba"/><stop offset="1" stop-color="#08b3ba"/></linearGradient><linearGradient id="linear-gradient-2" y1="77.03" x2="131.95" y2="77.03" xlink:href="#linear-gradient"/></defs><title>Blogs</title><path class="cls-1" d="M131.79,149.35H68.21A18.23,18.23,0,0,1,50,131.14V99.73a5.5,5.5,0,0,1,5.49-5.5H150v36.91A18.23,18.23,0,0,1,131.79,149.35ZM59.17,103.4v27.74a9.06,9.06,0,0,0,9,9h63.58a9.06,9.06,0,0,0,9-9V103.4Z" transform="translate(-50 -50.65)"/><path class="cls-2" d="M132,103.4H50V68.86A18.23,18.23,0,0,1,68.21,50.65h45.53A18.23,18.23,0,0,1,132,68.86ZM59.17,94.23h63.61V68.86a9.06,9.06,0,0,0-9-9H68.21a9.06,9.06,0,0,0-9,9Z" transform="translate(-50 -50.65)"/></svg>