<svg id="Layer_1" data-name="Layer 1" xmlns="http://www.w3.org/2000/svg" xmlns:xlink="http://www.w3.org/1999/xlink" viewBox="0 0 100 100"><defs><style>.cls-1{fill:#e5332a;}.cls-2{clip-path:url(#clip-path);}.cls-3{clip-path:url(#clip-path-2);}.cls-4{clip-path:url(#clip-path-3);}</style><clipPath id="clip-path" transform="translate(-50 -50)"><rect id="SVGID" class="cls-1" x="98.1" y="135.23" width="3.74" height="5.41" transform="translate(-1.53 1.12) rotate(-0.64)"/></clipPath><clipPath id="clip-path-2" transform="translate(-50 -50)"><rect id="SVGID-2" data-name="SVGID" class="cls-1" x="98.1" y="106.76" width="3.74" height="5.41" transform="translate(-1.21 1.12) rotate(-0.64)"/></clipPath><clipPath id="clip-path-3" transform="translate(-50 -50)"><path id="SVGID-3" data-name="SVGID" class="cls-1" d="M95.25,128.74c.24,2,2.25,3.32,4.9,3.32s4.45-1.29,4.45-3.1c0-1.57-1.12-2.48-3.86-3.13l-2.82-.66c-4-.92-5.91-2.85-5.91-6,0-3.86,3.36-6.47,8.1-6.47s8,2.6,8,6.43h-3.71c-.18-2-1.89-3.26-4.37-3.26s-4.12,1.21-4.12,3c0,1.45,1.1,2.29,3.77,2.92l2.5.58c4.42,1,6.29,2.83,6.29,6.07,0,4.14-3.32,6.73-8.58,6.73-5,0-8.29-2.47-8.46-6.49Z"/></clipPath></defs><title>Budget</title><path class="cls-1" d="M100,150a50,50,0,1,1,50-50A50.06,50.06,0,0,1,100,150Zm0-93.79A43.79,43.79,0,1,0,143.79,100,43.85,43.85,0,0,0,100,56.21Z" transform="translate(-50 -50)"/><polygon class="cls-1" points="49.26 55.14 26.97 31.36 31.5 27.11 49.4 46.2 75.27 20.34 79.66 24.73 49.26 55.14"/><rect id="SVGID-4" data-name="SVGID" class="cls-1" x="98.1" y="135.23" width="3.74" height="5.41" transform="translate(-51.53 -48.88) rotate(-0.64)"/><g class="cls-2"><polygon class="cls-1" points="51.87 85.42 48.07 85.46 48.07 85.21 51.87 85.21 51.87 85.42"/><polygon class="cls-1" points="51.87 85.84 48.07 85.88 48.07 85.46 51.87 85.42 51.87 85.84"/><polygon class="cls-1" points="48.07 85.88 51.87 85.84 51.87 90.66 48.07 90.66 48.07 85.88"/></g><rect id="SVGID-5" data-name="SVGID" class="cls-1" x="98.1" y="106.76" width="3.74" height="5.41" transform="translate(-51.21 -48.88) rotate(-0.64)"/><g class="cls-3"><polygon class="cls-1" points="48.72 56.74 48.07 56.75 48.07 56.74 48.72 56.74"/><polygon class="cls-1" points="51.87 57.12 48.07 57.17 48.07 56.75 48.72 56.74 51.87 56.74 51.87 57.12"/><polygon class="cls-1" points="51.87 57.55 48.07 57.59 48.07 57.17 51.87 57.12 51.87 57.55"/><polygon class="cls-1" points="51.87 57.97 48.07 58.01 48.07 57.59 51.87 57.55 51.87 57.97"/><polygon class="cls-1" points="51.87 58.39 48.07 58.44 48.07 58.01 51.87 57.97 51.87 58.39"/><polygon class="cls-1" points="51.87 58.81 48.07 58.86 48.07 58.44 51.87 58.39 51.87 58.81"/><polygon class="cls-1" points="51.87 59.23 48.07 59.28 48.07 58.86 51.87 58.81 51.87 59.23"/><polygon class="cls-1" points="51.87 59.66 48.07 59.7 48.07 59.28 51.87 59.23 51.87 59.66"/><polygon class="cls-1" points="51.87 60.08 48.07 60.12 48.07 59.7 51.87 59.66 51.87 60.08"/><polygon class="cls-1" points="51.87 60.5 48.07 60.55 48.07 60.12 51.87 60.08 51.87 60.5"/><polygon class="cls-1" points="51.87 60.92 48.07 60.97 48.07 60.55 51.87 60.5 51.87 60.92"/><polygon class="cls-1" points="51.87 61.34 48.07 61.39 48.07 60.97 51.87 60.92 51.87 61.34"/><polygon class="cls-1" points="51.87 61.77 48.07 61.81 48.07 61.39 51.87 61.34 51.87 61.77"/><polygon class="cls-1" points="51.87 62.19 51.56 62.19 48.07 62.19 48.07 61.81 51.87 61.77 51.87 62.19"/><polygon class="cls-1" points="51.56 62.19 51.87 62.19 51.87 62.19 51.56 62.19"/></g><path id="SVGID-6" data-name="SVGID" class="cls-1" d="M95.25,128.74c.24,2,2.25,3.32,4.9,3.32s4.45-1.29,4.45-3.1c0-1.57-1.12-2.48-3.86-3.13l-2.82-.66c-4-.92-5.91-2.85-5.91-6,0-3.86,3.36-6.47,8.1-6.47s8,2.6,8,6.43h-3.71c-.18-2-1.89-3.26-4.37-3.26s-4.12,1.21-4.12,3c0,1.45,1.1,2.29,3.77,2.92l2.5.58c4.42,1,6.29,2.83,6.29,6.07,0,4.14-3.32,6.73-8.58,6.73-5,0-8.29-2.47-8.46-6.49Z" transform="translate(-50 -50)"/><g class="cls-4"><polygon class="cls-1" points="58.52 62.95 41.48 63.16 41.48 62.74 58.52 62.74 58.52 62.95"/><polygon class="cls-1" points="58.52 63.38 41.48 63.58 41.48 63.16 58.52 62.95 58.52 63.38"/><polygon class="cls-1" points="58.52 63.8 41.48 64 41.48 63.58 58.52 63.38 58.52 63.8"/><polygon class="cls-1" points="58.52 64.22 41.48 64.43 41.48 64 58.52 63.8 58.52 64.22"/><polygon class="cls-1" points="58.52 64.64 41.48 64.85 41.48 64.43 58.52 64.22 58.52 64.64"/><polygon class="cls-1" points="58.52 65.07 41.48 65.27 41.48 64.85 58.52 64.64 58.52 65.07"/><polygon class="cls-1" points="58.52 65.49 41.48 65.69 41.48 65.27 58.52 65.07 58.52 65.49"/><polygon class="cls-1" points="58.52 65.91 41.48 66.11 41.48 65.69 58.52 65.49 58.52 65.91"/><polygon class="cls-1" points="58.52 66.33 41.48 66.54 41.48 66.11 58.52 65.91 58.52 66.33"/><polygon class="cls-1" points="58.52 66.75 41.48 66.96 41.48 66.54 58.52 66.33 58.52 66.75"/><polygon class="cls-1" points="58.52 67.18 41.48 67.38 41.48 66.96 58.52 66.75 58.52 67.18"/><polygon class="cls-1" points="58.52 67.6 41.48 67.8 41.48 67.38 58.52 67.18 58.52 67.6"/><polygon class="cls-1" points="58.52 68.02 41.48 68.23 41.48 67.8 58.52 67.6 58.52 68.02"/><polygon class="cls-1" points="58.52 68.44 41.48 68.65 41.48 68.23 58.52 68.02 58.52 68.44"/><polygon class="cls-1" points="58.52 68.87 41.48 69.07 41.48 68.65 58.52 68.44 58.52 68.87"/><polygon class="cls-1" points="58.52 69.29 41.48 69.49 41.48 69.07 58.52 68.87 58.52 69.29"/><polygon class="cls-1" points="58.52 69.71 41.48 69.92 41.48 69.49 58.52 69.29 58.52 69.71"/><polygon class="cls-1" points="58.52 70.13 41.48 70.34 41.48 69.92 58.52 69.71 58.52 70.13"/><polygon class="cls-1" points="58.52 70.56 41.48 70.76 41.48 70.34 58.52 70.13 58.52 70.56"/><polygon class="cls-1" points="58.52 70.98 41.48 71.18 41.48 70.76 58.52 70.56 58.52 70.98"/><polygon class="cls-1" points="58.52 71.4 41.48 71.6 41.48 71.18 58.52 70.98 58.52 71.4"/><polygon class="cls-1" points="58.52 71.82 41.48 72.03 41.48 71.6 58.52 71.4 58.52 71.82"/><polygon class="cls-1" points="58.52 72.25 41.48 72.45 41.48 72.03 58.52 71.82 58.52 72.25"/><polygon class="cls-1" points="58.52 72.67 41.48 72.87 41.48 72.45 58.52 72.25 58.52 72.67"/><polygon class="cls-1" points="58.52 73.09 41.48 73.29 41.48 72.87 58.52 72.67 58.52 73.09"/><polygon class="cls-1" points="58.52 73.51 41.48 73.72 41.48 73.29 58.52 73.09 58.52 73.51"/><polygon class="cls-1" points="58.52 73.93 41.48 74.14 41.48 73.72 58.52 73.51 58.52 73.93"/><polygon class="cls-1" points="58.52 74.36 41.48 74.56 41.48 74.14 58.52 73.93 58.52 74.36"/><polygon class="cls-1" points="58.52 74.78 41.48 74.98 41.48 74.56 58.52 74.36 58.52 74.78"/><polygon class="cls-1" points="58.52 75.2 41.48 75.41 41.48 74.98 58.52 74.78 58.52 75.2"/><polygon class="cls-1" points="58.52 75.62 41.48 75.83 41.48 75.41 58.52 75.2 58.52 75.62"/><polygon class="cls-1" points="58.52 76.05 41.48 76.25 41.48 75.83 58.52 75.62 58.52 76.05"/><polygon class="cls-1" points="58.52 76.47 41.48 76.67 41.48 76.25 58.52 76.05 58.52 76.47"/><polygon class="cls-1" points="58.52 76.89 41.48 77.09 41.48 76.67 58.52 76.47 58.52 76.89"/><polygon class="cls-1" points="58.52 77.31 41.48 77.52 41.48 77.09 58.52 76.89 58.52 77.31"/><polygon class="cls-1" points="58.52 77.73 41.48 77.94 41.48 77.52 58.52 77.31 58.52 77.73"/><polygon class="cls-1" points="58.52 78.16 41.48 78.36 41.48 77.94 58.52 77.73 58.52 78.16"/><polygon class="cls-1" points="58.52 78.58 41.48 78.78 41.48 78.36 58.52 78.16 58.52 78.58"/><polygon class="cls-1" points="58.52 79 41.48 79.2 41.48 78.78 58.52 78.58 58.52 79"/><polygon class="cls-1" points="58.52 79.42 41.48 79.63 41.48 79.2 58.52 79 58.52 79.42"/><polygon class="cls-1" points="58.52 79.85 41.48 80.05 41.48 79.63 58.52 79.42 58.52 79.85"/><polygon class="cls-1" points="58.52 80.27 41.48 80.47 41.48 80.05 58.52 79.85 58.52 80.27"/><polygon class="cls-1" points="58.52 80.69 41.48 80.89 41.48 80.47 58.52 80.27 58.52 80.69"/><polygon class="cls-1" points="58.52 81.11 41.48 81.32 41.48 80.89 58.52 80.69 58.52 81.11"/><polygon class="cls-1" points="58.52 81.53 41.48 81.74 41.48 81.32 58.52 81.11 58.52 81.53"/><polygon class="cls-1" points="58.52 81.96 41.48 82.16 41.48 81.74 58.52 81.53 58.52 81.96"/><polygon class="cls-1" points="58.52 82.38 41.48 82.58 41.48 82.16 58.52 81.96 58.52 82.38"/><polygon class="cls-1" points="58.52 82.8 41.48 83.01 41.48 82.58 58.52 82.38 58.52 82.8"/><polygon class="cls-1" points="58.52 83.22 41.48 83.43 41.48 83.01 58.52 82.8 58.52 83.22"/><polygon class="cls-1" points="58.52 83.65 41.48 83.85 41.48 83.43 58.52 83.22 58.52 83.65"/><polygon class="cls-1" points="58.52 84.07 41.48 84.27 41.48 83.85 58.52 83.65 58.52 84.07"/><polygon class="cls-1" points="58.52 84.49 41.48 84.69 41.48 84.27 58.52 84.07 58.52 84.49"/><polygon class="cls-1" points="58.52 84.91 41.48 85.12 41.48 84.69 58.52 84.49 58.52 84.91"/><polygon class="cls-1" points="41.48 85.12 58.52 84.91 58.52 85.23 41.48 85.23 41.48 85.12"/></g></svg>