<svg id="Layer_1" data-name="Layer 1" xmlns="http://www.w3.org/2000/svg" viewBox="0 0 16.59 15.6"><defs><style>.cls-1{fill:#e5332a;}.cls-2{fill:#a2195b;}.cls-3{fill:#662482;}</style></defs><title>BusinessIntelligence</title><path class="cls-1" d="M107.27,85.19A1.23,1.23,0,0,0,105,86a.49.49,0,0,1-.06.32c-.79,1.18-1.6,2.35-2.41,3.55a1.3,1.3,0,0,0-1.76.27c-.67-.32-1.35-.62-2-.95a.51.51,0,0,1-.2-.32A1.21,1.21,0,0,0,97.3,87.7a1.25,1.25,0,0,0-1.2,1.17.8.8,0,0,1-.25.48c-.66.56-1.35,1.1-2,1.66a1.32,1.32,0,0,1-1,.4,1.17,1.17,0,0,0-1.17,1.21,1.26,1.26,0,0,0,1.23,1.23,1.22,1.22,0,0,0,1.22-1.18A6.22,6.22,0,0,0,94,91.8l2.46-2a1.31,1.31,0,0,0,1.78,0,.43.43,0,0,1,.37,0c.57.25,1.14.51,1.7.79a.65.65,0,0,1,.3.39,1.27,1.27,0,0,0,1.35,1A1.23,1.23,0,0,0,103,90.72c0-.14,0-.31,0-.41.78-1.17,1.58-2.33,2.37-3.49l.19.08a1.23,1.23,0,0,0,1.55-.24A1.25,1.25,0,0,0,107.27,85.19Zm-14.36,8a.54.54,0,0,1-.56-.55c0-.31.18-.53.53-.53a.5.5,0,0,1,.55.52A.52.52,0,0,1,92.91,93.16Zm4.41-3.7a.54.54,0,1,1,0-1.07.51.51,0,0,1,.52.53C97.84,89.28,97.65,89.47,97.32,89.46Zm4.47,1.92a.55.55,0,1,1,0-1.09.52.52,0,0,1,.54.53A.53.53,0,0,1,101.79,91.38Zm4.44-5a.49.49,0,0,1-.54-.53.5.5,0,0,1,.53-.54.54.54,0,1,1,0,1.07Z" transform="translate(-91.27 -84.62)"/><path class="cls-2" d="M107.87,88.55c0-.4-.15-.57-.55-.56-.71,0-1.43,0-2.14,0-.48,0-.56.09-.57.58v5.56c0,1.85,0,3.7,0,5.55,0,.38.14.54.53.53.72,0,1.45,0,2.18,0,.4,0,.55-.14.55-.55C107.86,96,107.86,92.25,107.87,88.55Zm-.72,11h-1.83V88.71h1.83Z" transform="translate(-91.27 -84.62)"/><path class="cls-2" d="M99,91.22c0-.41-.16-.56-.56-.55q-1.11,0-2.22,0c-.34,0-.48.15-.48.49q0,4.28,0,8.55c0,.37.15.51.51.5h2.18c.5,0,.56-.07.56-.57V95.45C99,94,99,92.63,99,91.22Zm-.72,8.27H96.43V91.38h1.83Z" transform="translate(-91.27 -84.62)"/><path class="cls-3" d="M103.42,96.43c0-1.11,0-2.22,0-3.33,0-.38-.15-.53-.53-.52q-1.11,0-2.22,0c-.37,0-.51.15-.5.51v6.62c0,.37.15.51.51.5h2.22c.38,0,.53-.15.52-.53C103.41,98.6,103.42,97.52,103.42,96.43Zm-.71,3.08h-1.83V93.3h1.83Z" transform="translate(-91.27 -84.62)"/><path class="cls-3" d="M94.53,94.94c0-.38-.13-.55-.52-.55q-1.11,0-2.22,0c-.39,0-.52.17-.52.55,0,.78,0,1.56,0,2.35s0,1.59,0,2.38c0,.38.13.55.53.54H94c.4,0,.53-.16.52-.54C94.52,98.09,94.52,96.52,94.53,94.94Zm-.72,4.55H92v-4.4h1.82Z" transform="translate(-91.27 -84.62)"/></svg>