<svg id="Layer_1" data-name="Layer 1" xmlns="http://www.w3.org/2000/svg" viewBox="0 0 100 100"><defs><style>.cls-1{fill:#00a099;}</style></defs><title>Canteen</title><path class="cls-1" d="M100,137.12A37.12,37.12,0,1,1,137.12,100,37.16,37.16,0,0,1,100,137.12Zm0-69.62A32.5,32.5,0,1,0,132.5,100,32.54,32.54,0,0,0,100,67.5Z" transform="translate(-50 -50)"/><path class="cls-1" d="M100,150a50,50,0,1,1,50-50A50.06,50.06,0,0,1,100,150Zm0-95.39A45.39,45.39,0,1,0,145.39,100,45.44,45.44,0,0,0,100,54.61Z" transform="translate(-50 -50)"/><path class="cls-1" d="M103.18,107.72c.16-4.18.29-8.35.5-12.52A3.15,3.15,0,0,0,102,91.86a5.6,5.6,0,0,1-3-5.91A13.36,13.36,0,0,1,102,78.29c1.52-1.77,3.1-1.8,4.62,0a13.16,13.16,0,0,1,3,9.08,5.13,5.13,0,0,1-2.94,4.49A3,3,0,0,0,105.09,95c.32,8.5.58,17,.86,25.49,0,.47.1,1.07-.14,1.4-.38.51-1,1.17-1.51,1.15s-1.06-.74-1.45-1.25c-.19-.25-.09-.74-.08-1.12q.21-6.48.44-13Z" transform="translate(-50 -50)"/><path class="cls-1" d="M91.79,77.19v8.67l.6,0V77.13l.74,0v8.76h.74V77.13h.73v8.77h.78V77.16h.51c.22,2.6.44,5.19.65,7.79.06.67.09,1.34.2,2a5.27,5.27,0,0,1-1.38,4.91c-1.13,1.12-1.13,2.56-1.08,4q.45,12.38.84,24.76c0,.43.12,1-.08,1.27-.31.48-.83,1.11-1.28,1.13a2.14,2.14,0,0,1-1.54-.92,3.36,3.36,0,0,1-.23-1.81c.27-8.3.54-16.61.86-24.91a4.9,4.9,0,0,0-1.25-3.83,4.7,4.7,0,0,1-1.21-4.1c.34-2.86.47-5.74.7-8.61,0-.56.12-1.11.19-1.66Z" transform="translate(-50 -50)"/></svg>