<svg id="Layer_1" data-name="Layer 1" xmlns="http://www.w3.org/2000/svg" viewBox="0 0 27.49 18.98"><defs><style>.cls-1{fill:#00a099;}.cls-2{fill:#bd1622;}</style></defs><title>chat</title><path class="cls-1" d="M108,65.56a7.28,7.28,0,0,0-3.16-5,9.4,9.4,0,0,0-6.46-1.7A8.94,8.94,0,0,0,93,61.19a7.1,7.1,0,0,0-2.48,5.74c0,.34.08.68.11,1a.15.15,0,0,1,0,.09v0l.06.25h0a1.56,1.56,0,0,0,.08.21,6.55,6.55,0,0,0,.84,1.87,8.11,8.11,0,0,0,3,2.75c.3.17.32.18.19.5a11.82,11.82,0,0,1-.51,1.15c-.2.37-.46.72-.7,1.09a.93.93,0,0,0,.23,0,6.06,6.06,0,0,0,2.72-.49,4,4,0,0,0,1.56-1.05.5.5,0,0,1,.43-.22,16.55,16.55,0,0,0,4-.44,7.79,7.79,0,0,0,3.8-2c.29-.3.54-.65.83-1l.07-.15a.06.06,0,0,1,0,0,.8.8,0,0,1,.08-.16A7.8,7.8,0,0,0,108,65.56Zm-2.36,5.35A6.11,6.11,0,0,1,102,72.77a27.81,27.81,0,0,1-4.18.43.43.43,0,0,0-.26.13c-.3.28-.59.59-.89.85a3,3,0,0,1-1.3.59c.2-.59.36-1.16.56-1.71a.24.24,0,0,0-.14-.34,10.85,10.85,0,0,1-2.21-1.46,6.26,6.26,0,0,1-2.13-4.56,6,6,0,0,1,1.63-4.23,7.85,7.85,0,0,1,4.79-2.54A8.42,8.42,0,0,1,104,61.21a6.32,6.32,0,0,1,3,4.31A6.11,6.11,0,0,1,105.63,70.91Z" transform="translate(-86.09 -56.95)"/><path class="cls-2" d="M95.05,58.91a8.89,8.89,0,0,0-1-.36,5.9,5.9,0,0,0-5.23.84,4.23,4.23,0,0,0,0,7.09c.18.14.38.25.6.41a7.07,7.07,0,0,1-.36.79c-.14.26-.33.5-.5.76a3.51,3.51,0,0,0,2-.26.14.14,0,0,0,0-.11l.06.25a3.72,3.72,0,0,1-3,.42c.34-.51.67-1,1-1.52-.35-.28-.67-.49-1-.75a4.73,4.73,0,0,1,.07-7.22,5.93,5.93,0,0,1,7-.5Z" transform="translate(-86.09 -56.95)"/><path class="cls-2" d="M111.25,68.59c-.35.3-.72.55-1.1.83a7.6,7.6,0,0,0,1.31,2.07,4.85,4.85,0,0,1-2.3.11,5.13,5.13,0,0,1-2.08-.92l.07-.15a5,5,0,0,0,3.11.58,10.93,10.93,0,0,1-.66-1c-.2-.33-.33-.71-.51-1.08l.41-.25A6.07,6.07,0,0,0,112.34,65a5.4,5.4,0,0,0-1.48-5.16,7.26,7.26,0,0,0-4.77-2.22,8.09,8.09,0,0,0-4.28.73.3.3,0,0,1-.13,0,6.1,6.1,0,0,1,1.91-1,7.64,7.64,0,0,1,8,1.8A6.26,6.26,0,0,1,111.25,68.59Z" transform="translate(-86.09 -56.95)"/></svg>