<svg id="Layer_1" data-name="Layer 1" xmlns="http://www.w3.org/2000/svg" viewBox="0 0 100 100"><defs><style>.cls-1{fill:#1b4e9c;}.cls-2{fill:#bd1622;}</style></defs><title>Class_Shedules</title><path class="cls-1" d="M141,150H59a9,9,0,0,1-9-9V59a9,9,0,0,1,9-9h82a9,9,0,0,1,9,9v82A9,9,0,0,1,141,150ZM59,54.05a5,5,0,0,0-5,5v82a5,5,0,0,0,5,5h82a5,5,0,0,0,5-5V59a5,5,0,0,0-5-5Z" transform="translate(-50 -50)"/><rect class="cls-1" x="2.03" y="16.53" width="95.95" height="4.05"/><rect class="cls-1" x="12.46" y="30.83" width="15.27" height="4.05"/><rect class="cls-1" x="73.06" y="30.83" width="15.27" height="4.05"/><rect class="cls-1" x="42.36" y="54.65" width="15.27" height="4.05"/><rect class="cls-1" x="42.36" y="78.46" width="15.27" height="4.05"/><rect class="cls-1" x="73.06" y="54.65" width="15.27" height="4.05"/><rect class="cls-1" x="12.46" y="78.46" width="15.27" height="4.05"/><rect class="cls-1" x="73.06" y="78.46" width="15.27" height="4.05"/><path class="cls-2" d="M70.09,116.46a9.79,9.79,0,1,1,9.79-9.78A9.79,9.79,0,0,1,70.09,116.46Zm0-15.51a5.73,5.73,0,1,0,5.73,5.73A5.74,5.74,0,0,0,70.09,101Z" transform="translate(-50 -50)"/><path class="cls-2" d="M100,92.64a9.78,9.78,0,1,1,9.78-9.78A9.79,9.79,0,0,1,100,92.64Zm0-15.51a5.73,5.73,0,1,0,5.73,5.73A5.74,5.74,0,0,0,100,77.13Z" transform="translate(-50 -50)"/></svg>