<svg id="Layer_1" data-name="Layer 1" xmlns="http://www.w3.org/2000/svg" viewBox="0 0 17.9 15.41"><defs><style>.cls-1{fill:#2d2e82;}.cls-2{fill:#e61d5a;}.cls-3{fill:#009540;}</style></defs><title>ComparativeReports</title><path class="cls-1" d="M103.63,89.2a1.93,1.93,0,0,1-.24,0l-6.92,0H89.8l-2.43,0a.6.6,0,0,0-.37.11.93.93,0,0,0-.38,1,.9.9,0,0,0,.85.64l.62,0a.41.41,0,0,1,0,.11v3.4l0,4.56a1.08,1.08,0,0,0,.35.81,1.12,1.12,0,0,0,.77.36l5.3,0h.13l0,.11c-.48,1.14-1,2.28-1.44,3.42A.24.24,0,0,1,93,104h-.68a.23.23,0,0,0-.22.1.28.28,0,0,0,0,.29.26.26,0,0,0,.25.17h1.11a.23.23,0,0,0,.22-.14l.13-.27c.53-1.26,1-2.51,1.57-3.77,0-.11.13-.09.21-.1a.13.13,0,0,1,.15.1l.57,1.38c.38.88.76,1.75,1.13,2.63a.26.26,0,0,0,.26.17h1.12a.21.21,0,0,0,.13,0,.33.33,0,0,0,.08-.34c0-.12-.13-.14-.24-.15l-.78,0a.14.14,0,0,1-.16-.11l-1.38-3.3c0-.09-.07-.18-.12-.29h2.68l3.3-.05a.8.8,0,0,0,.39-.14,2.08,2.08,0,0,0,.44-.45.7.7,0,0,0,.15-.38c0-1.89,0-3.78,0-5.66,0-.82,0-1.64,0-2.46,0-.09,0-.13.11-.13l.28,0a.9.9,0,0,0,.83-.8A.88.88,0,0,0,103.63,89.2Zm-1,10a.41.41,0,0,1-.44.41c-.53,0-1.07,0-1.6,0H92l-2.74,0a.77.77,0,0,1-.26-.07.33.33,0,0,1-.2-.31c0-.31,0-.62,0-.93,0-2.39,0-4.79,0-7.19,0-.1,0-.12.12-.12h13.64c.15,0,.15,0,.15.15v7.89A.81.81,0,0,1,102.62,99.22Zm.94-8.85c-1.48,0-3,0-4.44,0H89.68l-2.29,0c-.17,0-.18,0-.19-.19,0-.36,0-.36.33-.36l6.21,0h8.79l1.14,0c.17,0,.18,0,.2.19S103.87,90.37,103.56,90.37Z" transform="translate(-86.58 -89.17)"/><path class="cls-2" d="M102.12,95.86l-.4.17-2.33.79a.31.31,0,0,1-.35-.07l-1-.93-.15-.13-.07.1-1.33,1.92-.08.1c-.13.18-.22.21-.41.08s-.56-.39-.84-.58a.39.39,0,0,0-.19-.06q-1.47,0-2.94,0a.5.5,0,0,0-.27.07c-.5.29-1,.6-1.47.89a2.29,2.29,0,0,1-.31.16.27.27,0,0,1-.36-.1.25.25,0,0,1,.09-.36c.53-.34,1.07-.66,1.59-1a1.84,1.84,0,0,1,1-.27c.91,0,1.82,0,2.73,0a.65.65,0,0,1,.42.14c.2.16.41.3.62.46l.61-.9.78-1.16.06-.08c.17-.24.31-.27.52-.07.4.35.79.72,1.18,1.09a.23.23,0,0,0,.27.06l2.2-.77a1.43,1.43,0,0,1,.28-.07c.18,0,.25,0,.3.18A.27.27,0,0,1,102.12,95.86Z" transform="translate(-86.58 -89.17)"/><path class="cls-3" d="M101.91,94.47c0,.19,0,.25-.24.26s-.55,0-.82,0l-1.94-.06a.43.43,0,0,1-.26-.11l-2-1.81-.09-.08-.72.88-1.2,1.49a.28.28,0,0,1-.11.08l-2.76,1a.45.45,0,0,1-.28,0l-2-.76a.26.26,0,0,1-.16-.38.25.25,0,0,1,.35-.14c.57.21,1.15.41,1.72.63a.53.53,0,0,0,.41,0l2.29-.86a.28.28,0,0,0,.15-.11c.65-.8,1.31-1.6,1.95-2.41a.36.36,0,0,1,.57,0l1.32,1.2.84.74a.33.33,0,0,0,.16.07l2.38.09.2,0A.24.24,0,0,1,101.91,94.47Z" transform="translate(-86.58 -89.17)"/></svg>