<svg id="Layer_1" data-name="Layer 1" xmlns="http://www.w3.org/2000/svg" viewBox="0 0 100 97.3"><defs><style>.cls-1{fill:#3f99d4;}.cls-2{fill:#1d70b7;}</style></defs><title>Contract_Renewals</title><path class="cls-1" d="M98.65,148.65a48.65,48.65,0,1,1,47.21-60.46,2.29,2.29,0,1,1-4.44,1.1,44.07,44.07,0,1,0,0,21.44,2.28,2.28,0,1,1,4.43,1.11A48.57,48.57,0,0,1,98.65,148.65Z" transform="translate(-50 -51.35)"/><path class="cls-2" d="M145.36,94l-8.31-4.37a2.29,2.29,0,0,1,2.13-4.05l4.27,2.25,2.24-4.25a2.29,2.29,0,1,1,4.05,2.13Z" transform="translate(-50 -51.35)"/><rect class="cls-1" x="38.94" y="32.33" width="13.89" height="4.57"/><rect class="cls-1" x="38.94" y="39.07" width="13.89" height="4.57"/><rect class="cls-1" x="39.15" y="45.81" width="21.04" height="4.57"/><rect class="cls-1" x="39.15" y="52.56" width="21.04" height="4.57"/><rect class="cls-1" x="39.15" y="59.3" width="21.04" height="4.57"/><polygon class="cls-1" points="70.58 35.48 56.81 35.48 56.81 21.05 61.38 21.05 61.38 30.91 70.58 30.91 70.58 35.48"/><path class="cls-1" d="M123.92,129.89H73.39V70.11h37.74l12.79,13.52Zm-46-4.57h41.39V85.45L109.16,74.68H78Z" transform="translate(-50 -51.35)"/></svg>