<svg id="Layer_1" data-name="Layer 1" xmlns="http://www.w3.org/2000/svg" viewBox="0 0 100 99.83"><defs><style>.cls-1{fill:#00a099;}</style></defs><title>Costomer_Management</title><path class="cls-1" d="M128,85.88a14.72,14.72,0,1,1,14.72-14.71A14.73,14.73,0,0,1,128,85.88Zm0-24.52a9.81,9.81,0,1,0,9.8,9.81A9.82,9.82,0,0,0,128,61.36Z" transform="translate(-50 -50.09)"/><path class="cls-1" d="M137,143.55H120a13.06,13.06,0,0,1-13-13V105.06A19.48,19.48,0,0,1,126.41,85.6h4.13A19.48,19.48,0,0,1,150,105.06v25.45A13.06,13.06,0,0,1,137,143.55Zm-10.55-53a14.56,14.56,0,0,0-14.55,14.55v25.45a8.14,8.14,0,0,0,8.13,8.13h17a8.14,8.14,0,0,0,8.13-8.13V105.06a14.56,14.56,0,0,0-14.55-14.55Z" transform="translate(-50 -50.09)"/><path class="cls-1" d="M71,85.88A14.72,14.72,0,1,1,85.73,71.17,14.73,14.73,0,0,1,71,85.88Zm0-24.52a9.81,9.81,0,1,0,9.8,9.81A9.82,9.82,0,0,0,71,61.36Z" transform="translate(-50 -50.09)"/><path class="cls-1" d="M80,143.55H63a13.06,13.06,0,0,1-13-13V105.06A19.48,19.48,0,0,1,69.46,85.6h4.13a19.48,19.48,0,0,1,19.46,19.46v25.45A13.06,13.06,0,0,1,80,143.55Zm-10.55-53a14.56,14.56,0,0,0-14.55,14.55v25.45A8.14,8.14,0,0,0,63,138.64H80a8.14,8.14,0,0,0,8.13-8.13V105.06A14.56,14.56,0,0,0,73.59,90.51Z" transform="translate(-50 -50.09)"/><path class="cls-1" d="M99.41,83.13a16.52,16.52,0,1,1,16.52-16.52A16.54,16.54,0,0,1,99.41,83.13Zm0-28.13A11.61,11.61,0,1,0,111,66.61,11.63,11.63,0,0,0,99.41,55Z" transform="translate(-50 -50.09)"/><path class="cls-1" d="M109.9,149.91H90.1a14.82,14.82,0,0,1-14.8-14.8V105.42A22.32,22.32,0,0,1,97.59,83.13h4.82a22.32,22.32,0,0,1,22.29,22.29v29.69A14.82,14.82,0,0,1,109.9,149.91ZM97.59,88a17.4,17.4,0,0,0-17.38,17.38v29.69A9.9,9.9,0,0,0,90.1,145h19.8a9.9,9.9,0,0,0,9.89-9.89V105.42A17.4,17.4,0,0,0,102.41,88Z" transform="translate(-50 -50.09)"/></svg>