<svg id="Layer_1" data-name="Layer 1" xmlns="http://www.w3.org/2000/svg" xmlns:xlink="http://www.w3.org/1999/xlink" viewBox="0 0 100 99.42"><defs><style>.cls-1{fill:#f8b133;}.cls-2,.cls-4{fill:#1d70b7;}.cls-3{clip-path:url(#clip-path);}.cls-4{stroke:#676767;stroke-miterlimit:10;stroke-width:5px;}</style><clipPath id="clip-path" transform="translate(-50 -50.29)"><rect id="SVGID" class="cls-1" x="106.7" y="106.41" width="43.3" height="43.3" rx="2.07"/></clipPath></defs><title>Discussions</title><path class="cls-2" d="M82.17,96.47H64a14,14,0,0,1-14-14V64.3a14,14,0,0,1,14-14H82.17a14,14,0,0,1,14,14V82.46A14,14,0,0,1,82.17,96.47ZM64,55.12a9.19,9.19,0,0,0-9.18,9.18V82.46A9.19,9.19,0,0,0,64,91.64H82.17a9.19,9.19,0,0,0,9.18-9.18V64.3a9.19,9.19,0,0,0-9.18-9.18Z" transform="translate(-50 -50.29)"/><rect id="SVGID-2" data-name="SVGID" class="cls-1" x="56.7" y="56.13" width="43.3" height="43.3" rx="2.07"/><g class="cls-3"><rect class="cls-1" x="56.7" y="56.13" width="0.05" height="43.3"/><rect class="cls-1" x="56.76" y="56.13" width="0.63" height="43.3"/><rect class="cls-1" x="57.38" y="56.13" width="0.63" height="43.3"/><rect class="cls-1" x="58.01" y="56.13" width="0.63" height="43.3"/><rect class="cls-1" x="58.64" y="56.13" width="0.63" height="43.3"/><rect class="cls-1" x="59.26" y="56.13" width="0.63" height="43.3"/><rect class="cls-1" x="59.89" y="56.13" width="0.63" height="43.3"/><rect class="cls-1" x="60.52" y="56.13" width="0.63" height="43.3"/><rect class="cls-1" x="61.14" y="56.13" width="0.63" height="43.3"/><rect class="cls-1" x="61.77" y="56.13" width="0.63" height="43.3"/><rect class="cls-1" x="62.4" y="56.13" width="0.63" height="43.3"/><rect class="cls-1" x="63.02" y="56.13" width="0.63" height="43.3"/><rect class="cls-1" x="63.65" y="56.13" width="0.63" height="43.3"/><rect class="cls-1" x="64.28" y="56.13" width="0.63" height="43.3"/><rect class="cls-1" x="64.9" y="56.13" width="0.63" height="43.3"/><rect class="cls-1" x="65.53" y="56.13" width="0.63" height="43.3"/><rect class="cls-1" x="66.16" y="56.13" width="0.63" height="43.3"/><rect class="cls-1" x="66.78" y="56.13" width="0.63" height="43.3"/><rect class="cls-1" x="67.41" y="56.13" width="0.63" height="43.3"/><rect class="cls-1" x="68.04" y="56.13" width="0.63" height="43.3"/><rect class="cls-1" x="68.66" y="56.13" width="0.63" height="43.3"/><rect class="cls-1" x="69.29" y="56.13" width="0.63" height="43.3"/><rect class="cls-1" x="69.92" y="56.13" width="0.63" height="43.3"/><rect class="cls-1" x="70.54" y="56.13" width="0.63" height="43.3"/><rect class="cls-1" x="71.17" y="56.13" width="0.63" height="43.3"/><rect class="cls-1" x="71.8" y="56.13" width="0.63" height="43.3"/><rect class="cls-1" x="72.42" y="56.13" width="0.63" height="43.3"/><rect class="cls-1" x="73.05" y="56.13" width="0.63" height="43.3"/><rect class="cls-1" x="73.68" y="56.13" width="0.63" height="43.3"/><rect class="cls-1" x="74.3" y="56.13" width="0.63" height="43.3"/><rect class="cls-1" x="74.93" y="56.13" width="0.63" height="43.3"/><rect class="cls-1" x="75.56" y="56.13" width="0.63" height="43.3"/><rect class="cls-1" x="76.18" y="56.13" width="0.63" height="43.3"/><rect class="cls-1" x="76.81" y="56.13" width="0.63" height="43.3"/><rect class="cls-1" x="77.44" y="56.13" width="0.63" height="43.3"/><rect class="cls-1" x="78.06" y="56.13" width="0.63" height="43.3"/><rect class="cls-1" x="78.69" y="56.13" width="0.63" height="43.3"/><rect class="cls-1" x="79.32" y="56.13" width="0.63" height="43.3"/><rect class="cls-1" x="79.95" y="56.13" width="0.63" height="43.3"/><rect class="cls-1" x="80.57" y="56.13" width="0.63" height="43.3"/><rect class="cls-1" x="81.2" y="56.13" width="0.63" height="43.3"/><rect class="cls-1" x="81.83" y="56.13" width="0.63" height="43.3"/><rect class="cls-1" x="82.45" y="56.13" width="0.63" height="43.3"/><rect class="cls-1" x="83.08" y="56.13" width="0.63" height="43.3"/><rect class="cls-1" x="83.71" y="56.13" width="0.63" height="43.3"/><rect class="cls-1" x="84.33" y="56.13" width="0.63" height="43.3"/><rect class="cls-1" x="84.96" y="56.13" width="0.63" height="43.3"/><rect class="cls-1" x="85.59" y="56.13" width="0.63" height="43.3"/><rect class="cls-1" x="86.21" y="56.13" width="0.63" height="43.3"/><rect class="cls-1" x="86.84" y="56.13" width="0.63" height="43.3"/><rect class="cls-1" x="87.47" y="56.13" width="0.63" height="43.3"/><rect class="cls-1" x="88.09" y="56.13" width="0.63" height="43.3"/><rect class="cls-1" x="88.72" y="56.13" width="0.63" height="43.3"/><rect class="cls-1" x="89.35" y="56.13" width="0.63" height="43.3"/><rect class="cls-1" x="89.97" y="56.13" width="0.63" height="43.3"/><rect class="cls-1" x="90.6" y="56.13" width="0.63" height="43.3"/><rect class="cls-1" x="91.23" y="56.13" width="0.63" height="43.3"/><rect class="cls-1" x="91.85" y="56.13" width="0.63" height="43.3"/><rect class="cls-1" x="92.48" y="56.13" width="0.63" height="43.3"/><rect class="cls-1" x="93.11" y="56.13" width="0.63" height="43.3"/><rect class="cls-1" x="93.73" y="56.13" width="0.63" height="43.3"/><rect class="cls-1" x="94.36" y="56.13" width="0.63" height="43.3"/><rect class="cls-1" x="94.99" y="56.13" width="0.63" height="43.3"/><rect class="cls-1" x="95.61" y="56.13" width="0.63" height="43.3"/><rect class="cls-1" x="96.24" y="56.13" width="0.63" height="43.3"/><rect class="cls-1" x="96.87" y="56.13" width="0.63" height="43.3"/><rect class="cls-1" x="97.49" y="56.13" width="0.63" height="43.3"/><rect class="cls-1" x="98.12" y="56.13" width="0.63" height="43.3"/><rect class="cls-1" x="98.75" y="56.13" width="0.63" height="43.3"/><rect class="cls-1" x="99.37" y="56.13" width="0.63" height="43.3"/><path class="cls-1" d="M150,149.71v0Z" transform="translate(-50 -50.29)"/></g><path class="cls-2" d="M135.2,97.33c-1.11-14.71-7.27-25.43-18.32-31.87a40.89,40.89,0,0,0-16.31-5.34l.28-4.82c.36,0,36.21,2.53,39.16,41.67Z" transform="translate(-50 -50.29)"/><path class="cls-4" d="M129.16,90.19" transform="translate(-50 -50.29)"/><polygon class="cls-2" points="87.93 51.03 79.4 43.64 82.57 39.99 87.11 43.92 90.74 38.87 94.66 41.7 87.93 51.03"/><path class="cls-2" d="M100.65,142.81c-3,0-36.34-.87-42.47-38.06l4.76-.79c5.69,34.49,36.46,34.05,37.77,34l.15,4.82Z" transform="translate(-50 -50.29)"/><path class="cls-4" d="M69.59,110.54" transform="translate(-50 -50.29)"/><polygon class="cls-2" points="8.14 62.3 3.98 59.83 9.87 49.94 19.01 56.55 16.18 60.47 11.32 56.95 8.14 62.3"/></svg>