<svg id="Layer_1" data-name="Layer 1" xmlns="http://www.w3.org/2000/svg" viewBox="0 0 20.98 14.24"><title>e_courses</title><path d="M106.64,96.24a.55.55,0,0,0-.58-.58h-.39a1,1,0,0,1,0-.17c0-3.59,0-7.17,0-10.75a1,1,0,0,0-1-1h-17A1,1,0,0,0,87,84a1,1,0,0,0-.31.78c0,3.57,0,7.15,0,10.72v.19h-.43a.56.56,0,0,0-.56.56v.42A1.3,1.3,0,0,0,87,98h18.33a1.29,1.29,0,0,0,1.28-1.08A4.66,4.66,0,0,0,106.64,96.24ZM87,95.52V84.71a.56.56,0,0,1,.6-.61h17a.58.58,0,0,1,.64.42.55.55,0,0,1,0,.18v11H87Zm10.88.94c0,.1-.1.16-.24.16h-3c-.21,0-.27-.07-.27-.27V96h3.46C97.88,96.18,97.89,96.32,97.88,96.46Zm8.38.4a.93.93,0,0,1-.88.75H87.05a1.09,1.09,0,0,1-.57-.13.86.86,0,0,1-.43-.62,3.75,3.75,0,0,1,0-.67s.09-.12.15-.16.09,0,.14,0h7.56c.21,0,.18,0,.18.19v.24a.54.54,0,0,0,.53.52h3.13a.53.53,0,0,0,.52-.51v-.34c0-.08,0-.11.11-.1h7.77a.16.16,0,0,1,.16.16A4.9,4.9,0,0,1,106.26,96.86Z" transform="translate(-85.66 -83.73)"/><path d="M100.73,93.1a1.09,1.09,0,0,0-.32-.7.18.18,0,0,1-.06-.14V88.8a.23.23,0,0,1,.07-.14.72.72,0,0,0,.26-.36.64.64,0,0,0-.43-.77L96.52,86a.92.92,0,0,0-.69,0L92,87.55a1,1,0,0,0-.28.22.62.62,0,0,0,.3,1l.93.38a.19.19,0,0,1,.14.21c0,.5,0,1,0,1.51a.65.65,0,0,0,.44.67l2.29.93a.77.77,0,0,0,.63,0l2.25-.91a.67.67,0,0,0,.47-.7V89.54a.8.8,0,0,1,0-.35c.06-.08.21-.11.33-.15l.42-.17a.15.15,0,0,1,0,.06v3.36a.18.18,0,0,1,0,.1,1,1,0,0,0-.33.67.51.51,0,0,0,.24.55.53.53,0,0,0,.6,0A.52.52,0,0,0,100.73,93.1Zm-2.11-1.92-2.3.93a.37.37,0,0,1-.31,0l-2.29-.93a.32.32,0,0,1-.24-.36V89.33l.13,0,2.2.9a.93.93,0,0,0,.73,0l2.19-.89.12,0v1.5A.33.33,0,0,1,98.62,91.18Zm-2.23-1.25a2,2,0,0,1-.23.06,1.55,1.55,0,0,1-.23-.06l-3.66-1.49-.08,0a.29.29,0,0,1-.2-.27.3.3,0,0,1,.21-.27l.74-.3,3-1.22a.54.54,0,0,1,.43,0l3.72,1.51c.13,0,.24.13.24.28s-.1.23-.23.29Zm4,3.26a.2.2,0,0,1-.4,0,.91.91,0,0,1,.18-.47A.65.65,0,0,1,100.37,93.19Z" transform="translate(-85.66 -83.73)"/></svg>