<svg id="Layer_1" data-name="Layer 1" xmlns="http://www.w3.org/2000/svg" xmlns:xlink="http://www.w3.org/1999/xlink" viewBox="0 0 100 100"><defs><style>.cls-1,.cls-2,.cls-3{fill:#e20613;}.cls-2,.cls-3{stroke-miterlimit:10;stroke-width:7px;}.cls-2{stroke:url(#linear-gradient);}.cls-3{stroke:url(#linear-gradient-2);}.cls-4{clip-path:url(#clip-path);}.cls-5{clip-path:url(#clip-path-2);}.cls-6{clip-path:url(#clip-path-3);}</style><linearGradient id="linear-gradient" x1="123" y1="100" x2="123" y2="100" gradientUnits="userSpaceOnUse"><stop offset="0" stop-color="#2070b3"/><stop offset="0.05" stop-color="#1e76b4"/><stop offset="0.28" stop-color="#1491b6"/><stop offset="0.51" stop-color="#0da4b8"/><stop offset="0.75" stop-color="#09afba"/><stop offset="1" stop-color="#08b3ba"/></linearGradient><linearGradient id="linear-gradient-2" x1="74.95" y1="100" x2="74.95" y2="100" xlink:href="#linear-gradient"/><clipPath id="clip-path" transform="translate(-50 -50)"><polygon id="SVGID" class="cls-1" points="118.06 107.34 115.45 104.4 120.28 100.1 115.41 95.52 118.1 92.67 126.1 100.18 118.06 107.34"/></clipPath><clipPath id="clip-path-2" transform="translate(-50 -50)"><polygon id="SVGID-2" data-name="SVGID" class="cls-1" points="83.5 120.89 81.44 118.83 100.26 100 81.44 81.17 83.5 79.11 104.39 100 83.5 120.89"/></clipPath><clipPath id="clip-path-3" transform="translate(-50 -50)"><rect id="SVGID-3" data-name="SVGID" class="cls-1" x="102.33" y="98.54" width="19.86" height="2.92"/></clipPath></defs><title>e-Exit</title><path class="cls-2" d="M123,100" transform="translate(-50 -50)"/><path class="cls-3" d="M75,100" transform="translate(-50 -50)"/><polygon id="SVGID-4" data-name="SVGID" class="cls-1" points="68.06 57.34 65.45 54.4 70.28 50.1 65.41 45.52 68.1 42.66 76.1 50.18 68.06 57.34"/><g class="cls-4"><polygon class="cls-1" points="65.41 44.17 65.47 57.34 65.41 57.34 65.41 44.17"/><polygon class="cls-1" points="65.93 42.66 66 57.34 65.47 57.34 65.41 44.17 65.41 42.66 65.93 42.66"/><polygon class="cls-1" points="66.47 42.66 66.53 57.34 66 57.34 65.93 42.66 66.47 42.66"/><polygon class="cls-1" points="67 42.66 67.06 57.34 66.53 57.34 66.47 42.66 67 42.66"/><polygon class="cls-1" points="67.53 42.66 67.59 57.34 67.06 57.34 67 42.66 67.53 42.66"/><polygon class="cls-1" points="68.06 42.66 68.13 57.34 67.59 57.34 67.53 42.66 68.06 42.66"/><polygon class="cls-1" points="68.59 42.66 68.66 57.34 68.13 57.34 68.06 42.66 68.59 42.66"/><polygon class="cls-1" points="69.12 42.66 69.19 57.34 68.66 57.34 68.59 42.66 69.12 42.66"/><polygon class="cls-1" points="69.65 42.66 69.72 57.34 69.19 57.34 69.12 42.66 69.65 42.66"/><polygon class="cls-1" points="70.19 42.66 70.25 57.34 69.72 57.34 69.65 42.66 70.19 42.66"/><polygon class="cls-1" points="70.72 42.66 70.78 57.34 70.25 57.34 70.19 42.66 70.72 42.66"/><polygon class="cls-1" points="71.25 42.66 71.31 57.34 70.78 57.34 70.72 42.66 71.25 42.66"/><polygon class="cls-1" points="71.78 42.66 71.84 57.34 71.31 57.34 71.25 42.66 71.78 42.66"/><polygon class="cls-1" points="72.31 42.66 72.38 57.34 71.84 57.34 71.78 42.66 72.31 42.66"/><polygon class="cls-1" points="72.84 42.66 72.91 57.34 72.38 57.34 72.31 42.66 72.84 42.66"/><polygon class="cls-1" points="73.38 42.66 73.44 57.34 72.91 57.34 72.84 42.66 73.38 42.66"/><polygon class="cls-1" points="73.91 42.66 73.97 57.34 73.44 57.34 73.38 42.66 73.91 42.66"/><polygon class="cls-1" points="74.44 42.66 74.5 57.34 73.97 57.34 73.91 42.66 74.44 42.66"/><polygon class="cls-1" points="74.97 42.66 75.03 57.34 74.5 57.34 74.44 42.66 74.97 42.66"/><polygon class="cls-1" points="75.5 42.66 75.56 57.34 75.03 57.34 74.97 42.66 75.5 42.66"/><polygon class="cls-1" points="76.03 42.66 76.1 57.34 75.56 57.34 75.5 42.66 76.03 42.66"/><polygon class="cls-1" points="76.1 57.34 76.03 42.66 76.1 42.66 76.1 57.34 76.1 57.34"/></g><polygon id="SVGID-5" data-name="SVGID" class="cls-1" points="33.5 70.89 31.44 68.83 50.26 50 31.44 31.18 33.5 29.11 54.39 50 33.5 70.89"/><g class="cls-5"><polygon class="cls-1" points="31.56 29.11 31.75 70.89 31.44 70.89 31.44 29.11 31.56 29.11"/><polygon class="cls-1" points="31.96 29.11 32.14 70.89 31.75 70.89 31.56 29.11 31.96 29.11"/><polygon class="cls-1" points="32.35 29.11 32.54 70.89 32.14 70.89 31.96 29.11 32.35 29.11"/><polygon class="cls-1" points="32.75 29.11 32.93 70.89 32.54 70.89 32.35 29.11 32.75 29.11"/><polygon class="cls-1" points="33.14 29.11 33.33 70.89 32.93 70.89 32.75 29.11 33.14 29.11"/><polygon class="cls-1" points="33.54 29.11 33.72 70.89 33.33 70.89 33.14 29.11 33.54 29.11"/><polygon class="cls-1" points="33.93 29.11 34.12 70.89 33.72 70.89 33.54 29.11 33.93 29.11"/><polygon class="cls-1" points="34.33 29.11 34.51 70.89 34.12 70.89 33.93 29.11 34.33 29.11"/><polygon class="cls-1" points="34.72 29.11 34.91 70.89 34.51 70.89 34.33 29.11 34.72 29.11"/><polygon class="cls-1" points="35.12 29.11 35.3 70.89 34.91 70.89 34.72 29.11 35.12 29.11"/><polygon class="cls-1" points="35.52 29.11 35.7 70.89 35.3 70.89 35.12 29.11 35.52 29.11"/><polygon class="cls-1" points="35.91 29.11 36.09 70.89 35.7 70.89 35.52 29.11 35.91 29.11"/><polygon class="cls-1" points="36.31 29.11 36.49 70.89 36.09 70.89 35.91 29.11 36.31 29.11"/><polygon class="cls-1" points="36.7 29.11 36.88 70.89 36.49 70.89 36.31 29.11 36.7 29.11"/><polygon class="cls-1" points="37.1 29.11 37.28 70.89 36.88 70.89 36.7 29.11 37.1 29.11"/><polygon class="cls-1" points="37.49 29.11 37.68 70.89 37.28 70.89 37.1 29.11 37.49 29.11"/><polygon class="cls-1" points="37.89 29.11 38.07 70.89 37.68 70.89 37.49 29.11 37.89 29.11"/><polygon class="cls-1" points="38.28 29.11 38.47 70.89 38.07 70.89 37.89 29.11 38.28 29.11"/><polygon class="cls-1" points="38.68 29.11 38.86 70.89 38.47 70.89 38.28 29.11 38.68 29.11"/><polygon class="cls-1" points="39.07 29.11 39.26 70.89 38.86 70.89 38.68 29.11 39.07 29.11"/><polygon class="cls-1" points="39.47 29.11 39.65 70.89 39.26 70.89 39.07 29.11 39.47 29.11"/><polygon class="cls-1" points="39.86 29.11 40.05 70.89 39.65 70.89 39.47 29.11 39.86 29.11"/><polygon class="cls-1" points="40.26 29.11 40.44 70.89 40.05 70.89 39.86 29.11 40.26 29.11"/><polygon class="cls-1" points="40.65 29.11 40.84 70.89 40.44 70.89 40.26 29.11 40.65 29.11"/><polygon class="cls-1" points="41.05 29.11 41.23 70.89 40.84 70.89 40.65 29.11 41.05 29.11"/><polygon class="cls-1" points="41.45 29.11 41.63 70.89 41.23 70.89 41.05 29.11 41.45 29.11"/><polygon class="cls-1" points="41.84 29.11 42.02 70.89 41.63 70.89 41.45 29.11 41.84 29.11"/><polygon class="cls-1" points="42.23 29.11 42.42 70.89 42.02 70.89 41.84 29.11 42.23 29.11"/><polygon class="cls-1" points="42.63 29.11 42.81 70.89 42.42 70.89 42.23 29.11 42.63 29.11"/><polygon class="cls-1" points="43.03 29.11 43.21 70.89 42.81 70.89 42.63 29.11 43.03 29.11"/><polygon class="cls-1" points="43.42 29.11 43.6 70.89 43.21 70.89 43.03 29.11 43.42 29.11"/><polygon class="cls-1" points="43.82 29.11 44 70.89 43.6 70.89 43.42 29.11 43.82 29.11"/><polygon class="cls-1" points="44.21 29.11 44.4 70.89 44 70.89 43.82 29.11 44.21 29.11"/><polygon class="cls-1" points="44.61 29.11 44.79 70.89 44.4 70.89 44.21 29.11 44.61 29.11"/><polygon class="cls-1" points="45 29.11 45.19 70.89 44.79 70.89 44.61 29.11 45 29.11"/><polygon class="cls-1" points="45.4 29.11 45.58 70.89 45.19 70.89 45 29.11 45.4 29.11"/><polygon class="cls-1" points="45.79 29.11 45.98 70.89 45.58 70.89 45.4 29.11 45.79 29.11"/><polygon class="cls-1" points="46.19 29.11 46.37 70.89 45.98 70.89 45.79 29.11 46.19 29.11"/><polygon class="cls-1" points="46.58 29.11 46.77 70.89 46.37 70.89 46.19 29.11 46.58 29.11"/><polygon class="cls-1" points="46.98 29.11 47.16 70.89 46.77 70.89 46.58 29.11 46.98 29.11"/><polygon class="cls-1" points="47.37 29.11 47.56 70.89 47.16 70.89 46.98 29.11 47.37 29.11"/><polygon class="cls-1" points="47.77 29.11 47.95 70.89 47.56 70.89 47.37 29.11 47.77 29.11"/><polygon class="cls-1" points="48.16 29.11 48.35 70.89 47.95 70.89 47.77 29.11 48.16 29.11"/><polygon class="cls-1" points="48.56 29.11 48.74 70.89 48.35 70.89 48.16 29.11 48.56 29.11"/><polygon class="cls-1" points="48.96 29.11 49.14 70.89 48.74 70.89 48.56 29.11 48.96 29.11"/><polygon class="cls-1" points="49.35 29.11 49.53 70.89 49.14 70.89 48.96 29.11 49.35 29.11"/><polygon class="cls-1" points="49.75 29.11 49.93 70.89 49.53 70.89 49.35 29.11 49.75 29.11"/><polygon class="cls-1" points="50.14 29.11 50.33 70.89 49.93 70.89 49.75 29.11 50.14 29.11"/><polygon class="cls-1" points="50.54 29.11 50.72 70.89 50.33 70.89 50.14 29.11 50.54 29.11"/><polygon class="cls-1" points="50.93 29.11 51.12 70.89 50.72 70.89 50.54 29.11 50.93 29.11"/><polygon class="cls-1" points="51.33 29.11 51.51 70.89 51.12 70.89 50.93 29.11 51.33 29.11"/><polygon class="cls-1" points="51.72 29.11 51.91 70.89 51.51 70.89 51.33 29.11 51.72 29.11"/><polygon class="cls-1" points="52.12 29.11 52.3 70.89 51.91 70.89 51.72 29.11 52.12 29.11"/><polygon class="cls-1" points="52.51 29.11 52.7 70.89 52.3 70.89 52.12 29.11 52.51 29.11"/><polygon class="cls-1" points="52.91 29.11 53.09 70.89 52.7 70.89 52.51 29.11 52.91 29.11"/><polygon class="cls-1" points="53.3 29.11 53.49 70.89 53.09 70.89 52.91 29.11 53.3 29.11"/><polygon class="cls-1" points="53.7 29.11 53.88 70.89 53.49 70.89 53.3 29.11 53.7 29.11"/><polygon class="cls-1" points="54.09 29.11 54.28 70.89 53.88 70.89 53.7 29.11 54.09 29.11"/><polygon class="cls-1" points="54.28 70.89 54.09 29.11 54.39 29.11 54.39 70.89 54.28 70.89"/></g><rect id="SVGID-6" data-name="SVGID" class="cls-1" x="52.33" y="48.54" width="19.86" height="2.92"/><g class="cls-6"><polygon class="cls-1" points="52.6 48.54 52.61 51.46 52.33 51.46 52.33 48.54 52.6 48.54"/><polygon class="cls-1" points="52.99 48.54 53.01 51.46 52.61 51.46 52.6 48.54 52.99 48.54"/><polygon class="cls-1" points="53.39 48.54 53.4 51.46 53.01 51.46 52.99 48.54 53.39 48.54"/><polygon class="cls-1" points="53.78 48.54 53.8 51.46 53.4 51.46 53.39 48.54 53.78 48.54"/><polygon class="cls-1" points="54.18 48.54 54.19 51.46 53.8 51.46 53.78 48.54 54.18 48.54"/><polygon class="cls-1" points="54.58 48.54 54.59 51.46 54.19 51.46 54.18 48.54 54.58 48.54"/><polygon class="cls-1" points="54.97 48.54 54.98 51.46 54.59 51.46 54.58 48.54 54.97 48.54"/><polygon class="cls-1" points="55.37 48.54 55.38 51.46 54.98 51.46 54.97 48.54 55.37 48.54"/><polygon class="cls-1" points="55.76 48.54 55.77 51.46 55.38 51.46 55.37 48.54 55.76 48.54"/><polygon class="cls-1" points="56.16 48.54 56.17 51.46 55.77 51.46 55.76 48.54 56.16 48.54"/><polygon class="cls-1" points="56.55 48.54 56.56 51.46 56.17 51.46 56.16 48.54 56.55 48.54"/><polygon class="cls-1" points="56.95 48.54 56.96 51.46 56.56 51.46 56.55 48.54 56.95 48.54"/><polygon class="cls-1" points="57.34 48.54 57.36 51.46 56.96 51.46 56.95 48.54 57.34 48.54"/><polygon class="cls-1" points="57.74 48.54 57.75 51.46 57.36 51.46 57.34 48.54 57.74 48.54"/><polygon class="cls-1" points="58.13 48.54 58.15 51.46 57.75 51.46 57.74 48.54 58.13 48.54"/><polygon class="cls-1" points="58.53 48.54 58.54 51.46 58.15 51.46 58.13 48.54 58.53 48.54"/><polygon class="cls-1" points="58.92 48.54 58.94 51.46 58.54 51.46 58.53 48.54 58.92 48.54"/><polygon class="cls-1" points="59.32 48.54 59.33 51.46 58.94 51.46 58.92 48.54 59.32 48.54"/><polygon class="cls-1" points="59.72 48.54 59.73 51.46 59.33 51.46 59.32 48.54 59.72 48.54"/><polygon class="cls-1" points="60.11 48.54 60.12 51.46 59.73 51.46 59.72 48.54 60.11 48.54"/><polygon class="cls-1" points="60.51 48.54 60.52 51.46 60.12 51.46 60.11 48.54 60.51 48.54"/><polygon class="cls-1" points="60.9 48.54 60.91 51.46 60.52 51.46 60.51 48.54 60.9 48.54"/><polygon class="cls-1" points="61.3 48.54 61.31 51.46 60.91 51.46 60.9 48.54 61.3 48.54"/><polygon class="cls-1" points="61.69 48.54 61.7 51.46 61.31 51.46 61.3 48.54 61.69 48.54"/><polygon class="cls-1" points="62.09 48.54 62.1 51.46 61.7 51.46 61.69 48.54 62.09 48.54"/><polygon class="cls-1" points="62.48 48.54 62.49 51.46 62.1 51.46 62.09 48.54 62.48 48.54"/><polygon class="cls-1" points="62.88 48.54 62.89 51.46 62.49 51.46 62.48 48.54 62.88 48.54"/><polygon class="cls-1" points="63.27 48.54 63.29 51.46 62.89 51.46 62.88 48.54 63.27 48.54"/><polygon class="cls-1" points="63.67 48.54 63.68 51.46 63.29 51.46 63.27 48.54 63.67 48.54"/><polygon class="cls-1" points="64.06 48.54 64.08 51.46 63.68 51.46 63.67 48.54 64.06 48.54"/><polygon class="cls-1" points="64.46 48.54 64.47 51.46 64.08 51.46 64.06 48.54 64.46 48.54"/><polygon class="cls-1" points="64.85 48.54 64.87 51.46 64.47 51.46 64.46 48.54 64.85 48.54"/><polygon class="cls-1" points="65.25 48.54 65.26 51.46 64.87 51.46 64.85 48.54 65.25 48.54"/><polygon class="cls-1" points="65.64 48.54 65.66 51.46 65.26 51.46 65.25 48.54 65.64 48.54"/><polygon class="cls-1" points="66.04 48.54 66.05 51.46 65.66 51.46 65.64 48.54 66.04 48.54"/><polygon class="cls-1" points="66.44 48.54 66.45 51.46 66.05 51.46 66.04 48.54 66.44 48.54"/><polygon class="cls-1" points="66.83 48.54 66.84 51.46 66.45 51.46 66.44 48.54 66.83 48.54"/><polygon class="cls-1" points="67.23 48.54 67.24 51.46 66.84 51.46 66.83 48.54 67.23 48.54"/><polygon class="cls-1" points="67.62 48.54 67.63 51.46 67.24 51.46 67.23 48.54 67.62 48.54"/><polygon class="cls-1" points="68.02 48.54 68.03 51.46 67.63 51.46 67.62 48.54 68.02 48.54"/><polygon class="cls-1" points="68.41 48.54 68.42 51.46 68.03 51.46 68.02 48.54 68.41 48.54"/><polygon class="cls-1" points="68.81 48.54 68.82 51.46 68.42 51.46 68.41 48.54 68.81 48.54"/><polygon class="cls-1" points="69.2 48.54 69.22 51.46 68.82 51.46 68.81 48.54 69.2 48.54"/><polygon class="cls-1" points="69.6 48.54 69.61 51.46 69.22 51.46 69.2 48.54 69.6 48.54"/><polygon class="cls-1" points="69.99 48.54 70.01 51.46 69.61 51.46 69.6 48.54 69.99 48.54"/><polygon class="cls-1" points="70.39 48.54 70.4 51.46 70.01 51.46 69.99 48.54 70.39 48.54"/><polygon class="cls-1" points="70.78 48.54 70.8 51.46 70.4 51.46 70.39 48.54 70.78 48.54"/><polygon class="cls-1" points="71.18 48.54 71.19 51.46 70.8 51.46 70.78 48.54 71.18 48.54"/><polygon class="cls-1" points="71.57 48.54 71.59 51.46 71.19 51.46 71.18 48.54 71.57 48.54"/><polygon class="cls-1" points="71.97 48.54 71.98 51.46 71.59 51.46 71.57 48.54 71.97 48.54"/><polygon class="cls-1" points="71.98 51.46 71.97 48.54 72.18 48.54 72.18 51.46 71.98 51.46"/></g><path class="cls-1" d="M100.15,150H100l-1.3,0,.12-4.84,1.18,0h.15Zm1.46,0-.16-4.84q.66,0,1.32-.06l.29,4.84C102.58,149.94,102.09,150,101.61,150Zm-4.36,0-1.45-.1.4-4.83,1.31.09Zm7.26-.13-.43-4.82,1.3-.14.57,4.81Zm-10.15-.11-1.45-.19.69-4.79,1.3.16Zm13-.23-.72-4.79,1.3-.22.85,4.77C108.35,149.31,107.88,149.39,107.4,149.46Zm-15.92-.18L90.05,149l1-4.75q.64.13,1.29.24Zm18.78-.33-1-4.74,1.28-.29,1.12,4.71Zm-21.63-.25-1.41-.35,1.23-4.68,1.28.31Zm24.45-.43-1.26-4.68q.63-.17,1.26-.36l1.4,4.64ZM85.82,148l-1.39-.43,1.5-4.61q.63.21,1.26.39Zm30.05-.53-1.54-4.59,1.24-.44,1.67,4.55C116.79,147.11,116.33,147.28,115.87,147.43Zm-32.82-.38c-.46-.16-.91-.33-1.37-.51L83.46,142c.4.16.81.32,1.23.47Zm35.55-.62-1.81-4.5,1.21-.5,1.93,4.44ZM80.33,146,79,145.39,81,141l1.2.53Zm40.93-.71-2.07-4.38,1.18-.58,2.19,4.32Zm-43.57-.51c-.43-.22-.87-.44-1.29-.67l2.28-4.27,1.17.61Zm46.15-.8-2.31-4.25,1.14-.65,2.44,4.19C124.69,143.49,124.27,143.73,123.84,144Zm-48.72-.58-1.25-.74,2.53-4.13,1.14.67Zm51.23-.88-2.56-4.11,1.11-.71,2.67,4Zm-53.71-.64-1.2-.81,2.76-4,1.1.74Zm56.13-1-2.79-4c.36-.25.71-.51,1.06-.77l2.9,3.87C129.56,140.33,129.17,140.62,128.77,140.9Zm-58.51-.71c-.39-.28-.78-.58-1.16-.88l3-3.81c.35.28.7.54,1,.8Zm60.83-1-3-3.79,1-.83,3.13,3.7ZM68,138.4l-1.1-1,3.21-3.63c.32.29.66.58,1,.86Zm65.35-1.12-3.24-3.6,1-.89,3.33,3.51C134,136.63,133.68,137,133.32,137.28Zm-67.53-.81-1-1L68.16,132l1,.91Zm69.64-1.19L132,131.87c.31-.31.62-.63.92-1l3.52,3.32C136.1,134.6,135.77,134.94,135.43,135.28Zm-71.7-.86c-.33-.35-.66-.71-1-1.07l3.6-3.23c.3.33.59.65.9,1Zm73.68-1.25L133.79,130c.29-.33.58-.66.86-1l3.71,3.11C138.05,132.44,137.74,132.81,137.41,133.17Zm-75.62-.91-.92-1.12,3.79-3c.27.34.55.68.83,1Zm77.49-1.32-3.8-3c.27-.34.53-.69.8-1l3.89,2.88C139.88,130.17,139.58,130.56,139.28,130.94ZM60,130c-.29-.39-.58-.78-.86-1.18l4-2.79c.25.36.51.71.77,1.06Zm81-1.39-4-2.77c.26-.36.5-.72.74-1.09l4.05,2.66Zm-82.71-1c-.27-.41-.53-.82-.79-1.23l4.12-2.55.7,1.1Zm84.3-1.45-4.12-2.54c.23-.37.45-.74.67-1.12l4.2,2.41C143.11,125.34,142.87,125.76,142.61,126.17Zm-85.83-1c-.25-.42-.49-.84-.72-1.27l4.26-2.31c.21.39.42.77.64,1.14Zm87.28-1.5-4.26-2.3c.21-.38.41-.77.6-1.16l4.34,2.16C144.52,122.79,144.29,123.22,144.06,123.65ZM55.39,122.6c-.22-.43-.43-.86-.64-1.3l4.38-2.06c.19.39.38.78.58,1.17Zm90-1.55L141,119c.18-.4.36-.8.53-1.2l4.45,1.91C145.77,120.16,145.57,120.6,145.37,121.05ZM54.15,120c-.19-.44-.38-.89-.56-1.34l4.5-1.8c.16.4.33.8.5,1.2Zm92.37-1.62L142,116.59c.17-.41.32-.82.47-1.24L147,117C146.87,117.46,146.7,117.91,146.52,118.36Zm-93.45-1.07c-.17-.46-.33-.91-.48-1.37l4.59-1.54c.14.41.28.82.43,1.23Zm94.44-1.67-4.6-1.51c.14-.42.27-.83.39-1.25l4.64,1.37C147.81,114.7,147.66,115.16,147.51,115.62Zm-95.36-1.09c-.15-.46-.28-.93-.41-1.4l4.68-1.26q.16.63.36,1.26Zm96.19-1.7-4.68-1.23c.11-.43.21-.85.31-1.28l4.72,1.1C148.58,111.9,148.46,112.36,148.34,112.83Zm-97-1.11c-.11-.47-.22-.94-.32-1.42l4.74-1c.09.43.19.86.29,1.28ZM149,110l-4.75-1c.09-.43.17-.86.25-1.29l4.77.82Zm-98.21-1.12q-.13-.72-.24-1.44l4.79-.71c.07.43.14.87.21,1.29Zm98.7-1.74-4.79-.69c.06-.43.12-.86.17-1.3l4.81.54C149.62,106.18,149.56,106.66,149.49,107.14ZM50.36,106c-.06-.47-.11-1-.15-1.44l4.82-.44c0,.44.08.87.14,1.31Zm99.46-1.75-4.82-.41.09-1.31,4.83.27C149.9,103.29,149.86,103.77,149.82,104.25ZM50.1,103.11c0-.48-.06-1-.07-1.45l4.84-.16c0,.44,0,.88.06,1.31ZM150,101.35l-4.84-.13c0-.41,0-.81,0-1.22v-.1H150v.1C150,100.45,150,100.9,150,101.35ZM54.84,100.2H50V100c0-.52,0-1,0-1.48l4.84.14c0,.43,0,.87,0,1.31Zm90.3-1.61-.06-1.31,4.83-.29c0,.49.05,1,.07,1.45ZM54.92,97.37l-4.84-.27c0-.49.07-1,.11-1.45l4.82.41C55,96.5,54.94,96.94,54.92,97.37ZM145,96c0-.44-.08-.87-.13-1.3l4.8-.57c.06.48.11,1,.15,1.45ZM55.14,94.76l-4.81-.56c.06-.48.12-1,.19-1.44l4.79.7C55.25,93.89,55.19,94.32,55.14,94.76Zm89.53-1.4q-.09-.64-.21-1.29l4.77-.85c.09.48.16,1,.23,1.44Zm-89.15-1.2-4.77-.83q.12-.72.27-1.44l4.74,1Zm88.7-1.38c-.09-.43-.19-.86-.29-1.28l4.71-1.13c.11.48.22.95.32,1.42ZM56.05,89.59l-4.72-1.11c.12-.48.23-1,.36-1.41l4.68,1.25C56.25,88.74,56.15,89.16,56.05,89.59Zm87.56-1.37L143.25,87l4.63-1.39c.14.46.28.93.4,1.4ZM56.73,87.05l-4.64-1.38c.13-.47.28-.93.43-1.39l4.6,1.52C57,86.22,56.85,86.63,56.73,87.05Zm86.12-1.33c-.14-.42-.28-.84-.43-1.25L147,82.81c.16.45.32.91.47,1.37Zm-85.3-1.16L53,82.9c.17-.45.34-.91.52-1.36L58,83.33C57.86,83.73,57.7,84.14,57.55,84.56ZM142,83.25c-.16-.41-.33-.81-.5-1.21l4.44-1.93c.19.45.38.89.56,1.34ZM58.52,82.11l-4.44-1.92c.19-.45.39-.89.6-1.33l4.38,2Zm82.39-1.26-.57-1.18,4.32-2.18c.21.43.43.86.63,1.3ZM59.64,79.73l-4.33-2.18c.22-.43.44-.86.67-1.29l4.26,2.3C60,79,59.83,79.34,59.64,79.73Zm80.09-1.22c-.21-.38-.42-.76-.64-1.14l4.18-2.43c.25.41.48.84.71,1.26ZM60.89,77.42,56.7,75c.24-.42.49-.84.74-1.25l4.12,2.55C61.33,76.66,61.11,77,60.89,77.42Zm77.52-1.17c-.23-.38-.46-.75-.71-1.11l4.05-2.67.78,1.22ZM62.27,75.18l-4-2.66c.26-.41.54-.81.82-1.21l4,2.78C62.76,74.45,62.51,74.81,62.27,75.18ZM137,74.06,136.2,73l3.88-2.9.85,1.17ZM63.78,73l-3.88-2.9c.29-.39.58-.77.88-1.15l3.8,3C64.31,72.33,64,72.68,63.78,73ZM135.4,72c-.28-.35-.55-.69-.83-1l3.7-3.12c.31.37.62.75.92,1.13Zm-70-1L61.7,67.85c.31-.37.63-.74.95-1.1L66.27,70C66,70.3,65.69,70.63,65.41,71Zm68.3-1-.89-1,3.52-3.33c.33.36.66.71,1,1.08ZM67.16,69l-3.52-3.33c.33-.35.67-.7,1-1l3.42,3.42C67.76,68.37,67.46,68.69,67.16,69Zm64.74-1-.94-.91,3.32-3.53,1,1ZM69,67.15l-3.33-3.52,1.07-1L70,66.26C69.66,66.55,69.33,66.85,69,67.15Zm61-.91-1-.86,3.11-3.71,1.1.95ZM71,65.4l-3.12-3.7L69,60.78l3,3.79Zm57-.85c-.35-.27-.69-.54-1-.8l2.9-3.88,1.15.88ZM73,63.78l-2.89-3.89L71.31,59l2.78,4C73.74,63.26,73.38,63.51,73,63.78Zm52.84-.8c-.36-.25-.72-.5-1.09-.74l2.66-4c.41.26.81.54,1.21.82Zm-50.69-.71-2.67-4,1.23-.79,2.54,4.12Zm48.49-.73-1.13-.68L125,56.67c.42.24.83.49,1.24.75Zm-46.26-.65L75,56.7c.42-.24.84-.48,1.27-.71l2.3,4.26Zm44-.67-1.17-.6,2.17-4.33,1.3.67Zm-41.69-.58-2.18-4.32c.44-.22.87-.43,1.31-.63l2,4.38Zm39.34-.6-1.21-.53,1.92-4.45,1.33.59Zm-37-.5-1.92-4.45c.44-.19.89-.38,1.34-.55L83.29,58C82.88,58.2,82.48,58.36,82.08,58.54ZM116.63,58l-1.23-.46L117.05,53l1.36.52Zm-32.11-.43L82.86,53c.45-.17.91-.33,1.37-.48l1.53,4.59Zm29.63-.46-1.25-.4,1.38-4.64c.47.14.93.28,1.39.44ZM87,56.74,85.62,52.1,87,51.7l1.26,4.68Q87.64,56.55,87,56.74Zm24.63-.38c-.42-.12-.85-.22-1.28-.32l1.11-4.72q.72.16,1.41.36Zm-22.1-.3-1.11-4.71L89.84,51l1,4.74Zm19.54-.3-1.29-.25.83-4.77,1.43.27Zm-17-.23-.84-4.77,1.44-.23.7,4.79C93,55.38,92.54,55.45,92.11,55.53Zm14.39-.22c-.43-.07-.87-.12-1.3-.17l.55-4.81,1.44.18Zm-11.79-.16-.56-4.81c.48-.06,1-.11,1.45-.15L96,55C95.58,55.05,95.14,55.1,94.71,55.15Zm9.18-.14c-.44,0-.87-.07-1.31-.09l.27-4.84,1.45.1Zm-6.56-.09-.28-4.83L98.5,50l.14,4.84Zm3.94-.06-1.27,0L100,50h.1l1.35,0Z" transform="translate(-50 -50)"/><path class="cls-1" d="M100,137a37,37,0,1,1,37-37A37,37,0,0,1,100,137Zm0-69.15A32.16,32.16,0,1,0,132.17,100,32.18,32.18,0,0,0,100,67.86Z" transform="translate(-50 -50)"/></svg>