<svg id="Layer_1" data-name="Layer 1" xmlns="http://www.w3.org/2000/svg" viewBox="0 0 15.7 17.3"><defs><style>.cls-1{fill:#2d2e82;}.cls-2{fill:#2dab66;}.cls-3{fill:#52303c;}.cls-4{fill:#662482;}</style></defs><title>e_incidentmanagement</title><path d="M102.5,85.8h0Z" transform="translate(-94.02 -76.99)"/><path class="cls-1" d="M108,82.35c-.12-.14-.18-.28,0-.43s.26-.37.5-.13.27.17.4,0,0-.29-.06-.4-.46-.48-.7-.71-.26-.2-.4-.07a.25.25,0,0,0,0,.4c.22.21,0,.33-.08.48s-.3.13-.46,0a4.12,4.12,0,0,0-1.13-.77,6.4,6.4,0,0,0-2.24-.84c-.34-.06-.24-.3-.26-.51s0-.33.29-.33.49-.21.49-.54v-1a.44.44,0,0,0-.5-.48h-2.66a.43.43,0,0,0-.47.46,11.22,11.22,0,0,0,0,1.16.41.41,0,0,0,.44.45c.29,0,.35.11.35.37s0,.43-.34.49a7,7,0,0,0-3.3,1.58c-.1.09-.23.35-.39.12s-.48-.3-.14-.6a.24.24,0,0,0,0-.4c-.15-.12-.28,0-.4.08l-.7.71c-.11.12-.2.25-.06.4a.23.23,0,0,0,.39,0c.21-.23.32-.07.47.07a.29.29,0,0,1,0,.48,7,7,0,0,0-1.67,3.82,7.07,7.07,0,0,0,0,1.78c0,.17.07.36.3.32s.21-.22.19-.4a.5.5,0,0,1,0-.12,6.76,6.76,0,0,1,4.55-7.1,6.65,6.65,0,0,1,5.49.54l.34.24a6.78,6.78,0,0,1,2.69,7.64,6.72,6.72,0,0,1-6.49,4.73H98.6c-.15,0-.27.08-.26.25s.13.23.28.24h3.91a7.16,7.16,0,0,0,6.75-4.82A7,7,0,0,0,108,82.35Zm-5.34-2.59h-.15c-.18-.05-.5.16-.52-.29,0-.29.06-.44.39-.4a1.31,1.31,0,0,0,.28,0c.25,0,.45,0,.45.35S102.87,79.78,102.63,79.76Zm.75-1.17a8.42,8.42,0,0,0-.87,0h0c-.35,0-.69,0-1,0s-.32-.07-.32-.3c0-1-.07-.79.74-.81.54,0,1.08,0,1.62,0,.27,0,.39.09.36.36a1,1,0,0,0,0,.29C103.93,78.52,103.75,78.62,103.38,78.59Z" transform="translate(-94.02 -76.99)"/><path class="cls-2" d="M108.13,87a5.66,5.66,0,0,1-5.29,5.65h-.25c-.14,0-.28,0-.29-.23s.11-.24.27-.25l.45,0a5.14,5.14,0,0,0,4.35-6.72c-.07-.22-.32-.53,0-.65s.37.28.45.5A5.18,5.18,0,0,1,108.13,87Z" transform="translate(-94.02 -76.99)"/><path class="cls-3" d="M102.5,85.8h0Z" transform="translate(-94.02 -76.99)"/><path class="cls-4" d="M106.17,83.34c-.24-.24-.39,0-.54.19-.64.63-1.26,1.27-1.9,1.91-.29.29-.55.71-1.07.37,0,0-.07,0-.11,0h-.21l-.23,0a.72.72,0,0,0-.2.09l-.15.09-.09.08,0,0a1.29,1.29,0,0,0-.29,1.22.56.56,0,0,1-.16.63c-.13.12-.27.29-.09.46s.34,0,.46-.1a.52.52,0,0,1,.62-.15,1.22,1.22,0,0,0,1.51-1.55.52.52,0,0,1,.16-.61c.73-.72,1.45-1.45,2.16-2.18C106.15,83.73,106.41,83.56,106.17,83.34Zm-3.63,4.45a.8.8,0,0,1-.77-.73.73.73,0,0,1,.72-.76.71.71,0,0,1,.75.71A.75.75,0,0,1,102.54,87.79Z" transform="translate(-94.02 -76.99)"/><path class="cls-2" d="M99.85,92.05c0,.22-.2.24-.37.24H95.82c-.18,0-.39,0-.38-.27s.22-.24.41-.24h3.61C99.65,91.79,99.85,91.8,99.85,92.05Z" transform="translate(-94.02 -76.99)"/><path class="cls-2" d="M98.44,90c0,.22-.16.28-.34.28l-1.62,0H94.42c-.19,0-.4,0-.4-.25s.22-.24.4-.24h2.24l1.45,0C98.27,89.79,98.43,89.83,98.44,90Z" transform="translate(-94.02 -76.99)"/></svg>