<svg id="Layer_1" data-name="Layer 1" xmlns="http://www.w3.org/2000/svg" xmlns:xlink="http://www.w3.org/1999/xlink" viewBox="0 0 100 95.61"><defs><style>.cls-1{fill:#008d36;}.cls-2{fill:#93c01f;}.cls-3{clip-path:url(#clip-path);}</style><clipPath id="clip-path" transform="translate(-50 -52.2)"><path id="SVGID" class="cls-1" d="M80.81,111.64c-1-1-2.09-1.91-3.15-2.85-.22-.19-.14-.34,0-.53a21.89,21.89,0,0,0,2.21-6,8.72,8.72,0,0,0-.32-5.2c-.09-.21-.21-.41-.33-.65l-4,1.52L73.5,93.56l2.68-1c-.5-.84-1-1.61-1.43-2.43a16.13,16.13,0,0,1-2.22-7.68,8.44,8.44,0,0,1,4.7-7.79A9.33,9.33,0,0,1,83,73.38a8.46,8.46,0,0,1,6.23,4.15.38.38,0,0,1,.06.13.54.54,0,0,1,0,.13l-3.86,2.39c-.29-.36-.55-.71-.85-1a3.19,3.19,0,0,0-3.33-1.07,5.18,5.18,0,0,0-3.56,2.43,4.85,4.85,0,0,0-.3,3.41,17.92,17.92,0,0,0,3.21,6.68c.18.26.36.17.57.09l5.67-2.14.66-.24,1.63,4.34-5.49,2.07a13.62,13.62,0,0,1,.72,9c.38-.19.68-.34,1-.47a15.87,15.87,0,0,1,4.62-.92,21.25,21.25,0,0,0,2.38-.32A10.68,10.68,0,0,0,96.38,100c.33-.24.64-.5,1-.79l3.25,3.46c-1.1.78-2.15,1.56-3.23,2.27a13.9,13.9,0,0,1-7.35,2.15,9.81,9.81,0,0,0-5.45,2C83.36,109.92,82.11,110.76,80.81,111.64Z"/></clipPath></defs><title>e-Invoicing</title><polygon class="cls-2" points="96.86 89.2 53.5 87.15 53.73 82.24 92.18 84.05 94.99 24.4 80.33 7.36 33.34 5.15 33.12 9.82 28.21 9.59 28.66 0 82.68 2.55 100 22.68 96.86 89.2"/><polygon class="cls-2" points="95.84 25.93 76.55 25.02 77.5 4.77 82.42 5 81.69 20.33 96.07 21.01 95.84 25.93"/><rect class="cls-1" x="84.36" y="120.6" width="41.7" height="4.92" transform="translate(-86.59 -7.28) rotate(-20.61)"/><path class="cls-2" d="M97.07,59.57l18.38,9,19.81,52.67L81.38,141.47l-25-66.57L97.07,59.57m.25-5.35L50,72,78.5,147.8l63.1-23.73L119.37,65,97.32,54.22Z" transform="translate(-50 -52.2)"/><polygon class="cls-2" points="50.71 22.41 43.58 3.44 48.18 1.71 53.59 16.08 67.06 11.01 68.79 15.61 50.71 22.41"/><path id="SVGID-2" data-name="SVGID" class="cls-1" d="M80.81,111.64c-1-1-2.09-1.91-3.15-2.85-.22-.19-.14-.34,0-.53a21.89,21.89,0,0,0,2.21-6,8.72,8.72,0,0,0-.32-5.2c-.09-.21-.21-.41-.33-.65l-4,1.52L73.5,93.56l2.68-1c-.5-.84-1-1.61-1.43-2.43a16.13,16.13,0,0,1-2.22-7.68,8.44,8.44,0,0,1,4.7-7.79A9.33,9.33,0,0,1,83,73.38a8.46,8.46,0,0,1,6.23,4.15.38.38,0,0,1,.06.13.54.54,0,0,1,0,.13l-3.86,2.39c-.29-.36-.55-.71-.85-1a3.19,3.19,0,0,0-3.33-1.07,5.18,5.18,0,0,0-3.56,2.43,4.85,4.85,0,0,0-.3,3.41,17.92,17.92,0,0,0,3.21,6.68c.18.26.36.17.57.09l5.67-2.14.66-.24,1.63,4.34-5.49,2.07a13.62,13.62,0,0,1,.72,9c.38-.19.68-.34,1-.47a15.87,15.87,0,0,1,4.62-.92,21.25,21.25,0,0,0,2.38-.32A10.68,10.68,0,0,0,96.38,100c.33-.24.64-.5,1-.79l3.25,3.46c-1.1.78-2.15,1.56-3.23,2.27a13.9,13.9,0,0,1-7.35,2.15,9.81,9.81,0,0,0-5.45,2C83.36,109.92,82.11,110.76,80.81,111.64Z" transform="translate(-50 -52.2)"/><g class="cls-3"><polygon class="cls-1" points="22.52 43 28.7 59.45 22.52 59.45 22.52 43"/><polygon class="cls-1" points="22.52 42.47 28.9 59.45 28.7 59.45 22.52 43 22.52 42.47"/><polygon class="cls-1" points="22.52 41.95 29.1 59.45 28.9 59.45 22.52 42.47 22.52 41.95"/><polygon class="cls-1" points="22.52 41.42 29.3 59.45 29.1 59.45 22.52 41.95 22.52 41.42"/><polygon class="cls-1" points="22.52 40.9 29.49 59.45 29.3 59.45 22.52 41.42 22.52 40.9"/><polygon class="cls-1" points="22.52 40.37 29.69 59.45 29.49 59.45 22.52 40.9 22.52 40.37"/><polygon class="cls-1" points="22.52 39.84 29.89 59.45 29.69 59.45 22.52 40.37 22.52 39.84"/><polygon class="cls-1" points="22.52 39.32 30.09 59.45 29.89 59.45 22.52 39.84 22.52 39.32"/><polygon class="cls-1" points="22.52 38.79 30.28 59.45 30.09 59.45 22.52 39.32 22.52 38.79"/><polygon class="cls-1" points="22.52 38.27 30.48 59.45 30.28 59.45 22.52 38.79 22.52 38.27"/><polygon class="cls-1" points="22.52 37.74 30.68 59.45 30.48 59.45 22.52 38.27 22.52 37.74"/><polygon class="cls-1" points="22.52 37.22 30.88 59.45 30.68 59.45 22.52 37.74 22.52 37.22"/><polygon class="cls-1" points="22.52 36.69 31.07 59.45 30.88 59.45 22.52 37.22 22.52 36.69"/><polygon class="cls-1" points="22.52 36.16 31.27 59.45 31.07 59.45 22.52 36.69 22.52 36.16"/><polygon class="cls-1" points="22.52 35.64 31.47 59.45 31.27 59.45 22.52 36.16 22.52 35.64"/><polygon class="cls-1" points="22.52 35.11 31.67 59.45 31.47 59.45 22.52 35.64 22.52 35.11"/><polygon class="cls-1" points="22.52 34.59 31.87 59.45 31.67 59.45 22.52 35.11 22.52 34.59"/><polygon class="cls-1" points="22.52 34.06 32.06 59.45 31.87 59.45 22.52 34.59 22.52 34.06"/><polygon class="cls-1" points="22.52 33.53 32.26 59.45 32.06 59.45 22.52 34.06 22.52 33.53"/><polygon class="cls-1" points="22.52 33.01 32.46 59.45 32.26 59.45 22.52 33.53 22.52 33.01"/><polygon class="cls-1" points="22.52 32.48 32.66 59.45 32.46 59.45 22.52 33.01 22.52 32.48"/><polygon class="cls-1" points="22.52 31.96 32.85 59.45 32.66 59.45 22.52 32.48 22.52 31.96"/><polygon class="cls-1" points="22.52 31.43 33.05 59.45 32.85 59.45 22.52 31.96 22.52 31.43"/><polygon class="cls-1" points="22.52 30.91 33.25 59.45 33.05 59.45 22.52 31.43 22.52 30.91"/><polygon class="cls-1" points="22.52 30.38 33.45 59.45 33.25 59.45 22.52 30.91 22.52 30.38"/><polygon class="cls-1" points="22.52 29.85 33.65 59.45 33.45 59.45 22.52 30.38 22.52 29.85"/><polygon class="cls-1" points="22.52 29.33 33.84 59.45 33.65 59.45 22.52 29.85 22.52 29.33"/><polygon class="cls-1" points="22.52 28.8 34.04 59.45 33.84 59.45 22.52 29.33 22.52 28.8"/><polygon class="cls-1" points="22.52 28.28 34.24 59.45 34.04 59.45 22.52 28.8 22.52 28.28"/><polygon class="cls-1" points="22.52 27.75 34.44 59.45 34.24 59.45 22.52 28.28 22.52 27.75"/><polygon class="cls-1" points="22.52 27.22 34.63 59.45 34.44 59.45 22.52 27.75 22.52 27.22"/><polygon class="cls-1" points="22.52 26.7 34.83 59.45 34.63 59.45 22.52 27.22 22.52 26.7"/><polygon class="cls-1" points="22.52 26.17 35.03 59.45 34.83 59.45 22.52 26.7 22.52 26.17"/><polygon class="cls-1" points="22.52 25.65 35.22 59.41 35.13 59.45 35.03 59.45 22.52 26.17 22.52 25.65"/><polygon class="cls-1" points="22.52 25.12 35.39 59.35 35.22 59.41 22.52 25.65 22.52 25.12"/><polygon class="cls-1" points="22.52 24.59 35.56 59.28 35.39 59.35 22.52 25.12 22.52 24.59"/><polygon class="cls-1" points="22.52 24.07 35.74 59.22 35.56 59.28 22.52 24.59 22.52 24.07"/><polygon class="cls-1" points="22.52 23.54 35.91 59.15 35.74 59.22 22.52 24.07 22.52 23.54"/><polygon class="cls-1" points="22.52 23.02 36.08 59.09 35.91 59.15 22.52 23.54 22.52 23.02"/><polygon class="cls-1" points="22.52 22.49 36.26 59.02 36.08 59.09 22.52 23.02 22.52 22.49"/><polygon class="cls-1" points="22.52 22.42 22.66 22.36 36.43 58.96 36.26 59.02 22.52 22.49 22.52 22.42"/><rect class="cls-1" x="79.54" y="73.27" width="0.19" height="39.1" transform="translate(-77.58 -18.22) rotate(-20.61)"/><rect class="cls-1" x="79.71" y="73.21" width="0.19" height="39.1" transform="translate(-77.55 -18.16) rotate(-20.61)"/><rect class="cls-1" x="79.89" y="73.14" width="0.19" height="39.1" transform="translate(-77.51 -18.1) rotate(-20.61)"/><rect class="cls-1" x="80.06" y="73.08" width="0.19" height="39.1" transform="translate(-77.48 -18.05) rotate(-20.61)"/><rect class="cls-1" x="80.23" y="73.01" width="0.19" height="39.1" transform="translate(-77.44 -17.99) rotate(-20.61)"/><rect class="cls-1" x="80.41" y="72.95" width="0.19" height="39.1" transform="translate(-77.41 -17.93) rotate(-20.61)"/><rect class="cls-1" x="80.58" y="72.88" width="0.19" height="39.1" transform="translate(-77.38 -17.88) rotate(-20.61)"/><rect class="cls-1" x="80.75" y="72.82" width="0.19" height="39.1" transform="translate(-77.34 -17.82) rotate(-20.61)"/><rect class="cls-1" x="80.93" y="72.75" width="0.19" height="39.1" transform="translate(-77.31 -17.76) rotate(-20.61)"/><rect class="cls-1" x="81.1" y="72.69" width="0.19" height="39.1" transform="translate(-77.27 -17.71) rotate(-20.61)"/><rect class="cls-1" x="81.27" y="72.62" width="0.19" height="39.1" transform="translate(-77.24 -17.65) rotate(-20.61)"/><rect class="cls-1" x="81.45" y="72.56" width="0.19" height="39.1" transform="translate(-77.21 -17.59) rotate(-20.61)"/><rect class="cls-1" x="81.62" y="72.49" width="0.19" height="39.1" transform="translate(-77.17 -17.54) rotate(-20.61)"/><rect class="cls-1" x="81.79" y="72.43" width="0.19" height="39.1" transform="translate(-77.14 -17.48) rotate(-20.61)"/><rect class="cls-1" x="81.97" y="72.36" width="0.19" height="39.1" transform="translate(-77.1 -17.42) rotate(-20.61)"/><rect class="cls-1" x="82.14" y="72.3" width="0.19" height="39.1" transform="translate(-77.07 -17.36) rotate(-20.61)"/><rect class="cls-1" x="82.31" y="72.23" width="0.19" height="39.1" transform="translate(-77.04 -17.31) rotate(-20.61)"/><rect class="cls-1" x="82.49" y="72.17" width="0.19" height="39.1" transform="translate(-77 -17.25) rotate(-20.61)"/><rect class="cls-1" x="82.66" y="72.1" width="0.19" height="39.1" transform="translate(-76.97 -17.19) rotate(-20.61)"/><rect class="cls-1" x="82.83" y="72.04" width="0.19" height="39.1" transform="translate(-76.93 -17.14) rotate(-20.61)"/><rect class="cls-1" x="83.01" y="71.97" width="0.19" height="39.1" transform="translate(-76.9 -17.08) rotate(-20.61)"/><polygon class="cls-1" points="26.3 21 26.44 20.94 26.48 20.94 40.24 57.52 40.07 57.59 26.3 21"/><polygon class="cls-1" points="26.68 20.94 40.41 57.46 40.24 57.52 26.48 20.94 26.68 20.94"/><polygon class="cls-1" points="26.88 20.94 40.59 57.39 40.41 57.46 26.68 20.94 26.88 20.94"/><polygon class="cls-1" points="27.07 20.94 40.76 57.33 40.59 57.39 26.88 20.94 27.07 20.94"/><polygon class="cls-1" points="27.27 20.94 40.93 57.26 40.76 57.33 27.07 20.94 27.27 20.94"/><polygon class="cls-1" points="27.47 20.94 41.11 57.2 40.93 57.26 27.27 20.94 27.47 20.94"/><polygon class="cls-1" points="27.67 20.94 41.28 57.13 41.11 57.2 27.47 20.94 27.67 20.94"/><polygon class="cls-1" points="27.87 20.94 41.45 57.07 41.28 57.13 27.67 20.94 27.87 20.94"/><polygon class="cls-1" points="28.06 20.94 41.63 57 41.45 57.07 27.87 20.94 28.06 20.94"/><polygon class="cls-1" points="28.26 20.94 41.8 56.94 41.63 57 28.06 20.94 28.26 20.94"/><polygon class="cls-1" points="28.46 20.94 41.97 56.87 41.8 56.94 28.26 20.94 28.46 20.94"/><polygon class="cls-1" points="28.66 20.94 42.15 56.81 41.97 56.87 28.46 20.94 28.66 20.94"/><polygon class="cls-1" points="28.86 20.94 42.32 56.74 42.15 56.81 28.66 20.94 28.86 20.94"/><polygon class="cls-1" points="29.05 20.94 42.49 56.68 42.32 56.74 28.86 20.94 29.05 20.94"/><polygon class="cls-1" points="29.25 20.94 42.67 56.61 42.49 56.68 29.05 20.94 29.25 20.94"/><polygon class="cls-1" points="29.45 20.94 42.84 56.55 42.67 56.61 29.25 20.94 29.45 20.94"/><polygon class="cls-1" points="29.65 20.94 43.01 56.48 42.84 56.55 29.45 20.94 29.65 20.94"/><polygon class="cls-1" points="29.84 20.94 43.19 56.41 43.01 56.48 29.65 20.94 29.84 20.94"/><polygon class="cls-1" points="30.04 20.94 43.36 56.35 43.19 56.41 29.84 20.94 30.04 20.94"/><polygon class="cls-1" points="30.24 20.94 43.53 56.28 43.36 56.35 30.04 20.94 30.24 20.94"/><polygon class="cls-1" points="30.44 20.94 43.71 56.22 43.53 56.28 30.24 20.94 30.44 20.94"/><polygon class="cls-1" points="30.64 20.94 43.88 56.16 43.71 56.22 30.44 20.94 30.64 20.94"/><polygon class="cls-1" points="30.83 20.94 44.05 56.09 43.88 56.16 30.64 20.94 30.83 20.94"/><polygon class="cls-1" points="31.03 20.94 44.23 56.02 44.05 56.09 30.83 20.94 31.03 20.94"/><polygon class="cls-1" points="31.23 20.94 44.4 55.96 44.23 56.02 31.03 20.94 31.23 20.94"/><polygon class="cls-1" points="31.43 20.94 44.57 55.89 44.4 55.96 31.23 20.94 31.43 20.94"/><polygon class="cls-1" points="31.62 20.94 44.74 55.83 44.57 55.89 31.43 20.94 31.62 20.94"/><polygon class="cls-1" points="31.82 20.94 44.92 55.76 44.74 55.83 31.62 20.94 31.82 20.94"/><polygon class="cls-1" points="32.02 20.94 45.09 55.7 44.92 55.76 31.82 20.94 32.02 20.94"/><polygon class="cls-1" points="32.22 20.94 45.27 55.63 45.09 55.7 32.02 20.94 32.22 20.94"/><polygon class="cls-1" points="32.41 20.94 45.44 55.57 45.27 55.63 32.22 20.94 32.41 20.94"/><polygon class="cls-1" points="32.61 20.94 45.61 55.5 45.44 55.57 32.41 20.94 32.61 20.94"/><polygon class="cls-1" points="32.81 20.94 45.78 55.44 45.61 55.5 32.61 20.94 32.81 20.94"/><polygon class="cls-1" points="33.01 20.94 45.96 55.37 45.78 55.44 32.81 20.94 33.01 20.94"/><polygon class="cls-1" points="33.21 20.94 46.13 55.31 45.96 55.37 33.01 20.94 33.21 20.94"/><polygon class="cls-1" points="33.4 20.94 46.3 55.24 46.13 55.31 33.21 20.94 33.4 20.94"/><polygon class="cls-1" points="33.6 20.94 46.48 55.18 46.3 55.24 33.4 20.94 33.6 20.94"/><polygon class="cls-1" points="33.8 20.94 46.65 55.11 46.48 55.18 33.6 20.94 33.8 20.94"/><polygon class="cls-1" points="34 20.94 46.83 55.05 46.65 55.11 33.8 20.94 34 20.94"/><polygon class="cls-1" points="34.2 20.94 47 54.98 46.83 55.05 34 20.94 34.2 20.94"/><polygon class="cls-1" points="34.39 20.94 47.17 54.92 47 54.98 34.2 20.94 34.39 20.94"/><polygon class="cls-1" points="34.59 20.94 47.34 54.85 47.17 54.92 34.39 20.94 34.59 20.94"/><polygon class="cls-1" points="34.79 20.94 47.52 54.79 47.34 54.85 34.59 20.94 34.79 20.94"/><polygon class="cls-1" points="34.99 20.94 47.69 54.72 47.52 54.79 34.79 20.94 34.99 20.94"/><polygon class="cls-1" points="35.18 20.94 47.86 54.66 47.69 54.72 34.99 20.94 35.18 20.94"/><polygon class="cls-1" points="35.38 20.94 48.04 54.59 47.86 54.66 35.18 20.94 35.38 20.94"/><polygon class="cls-1" points="35.58 20.94 48.21 54.52 48.04 54.59 35.38 20.94 35.58 20.94"/><polygon class="cls-1" points="35.78 20.94 48.38 54.46 48.21 54.52 35.58 20.94 35.78 20.94"/><polygon class="cls-1" points="35.98 20.94 48.56 54.4 48.38 54.46 35.78 20.94 35.98 20.94"/><polygon class="cls-1" points="36.17 20.94 48.73 54.33 48.56 54.4 35.98 20.94 36.17 20.94"/><polygon class="cls-1" points="36.37 20.94 48.9 54.27 48.73 54.33 36.17 20.94 36.37 20.94"/><polygon class="cls-1" points="36.57 20.94 49.08 54.2 48.9 54.27 36.37 20.94 36.57 20.94"/><polygon class="cls-1" points="36.77 20.94 49.25 54.13 49.08 54.2 36.57 20.94 36.77 20.94"/><polygon class="cls-1" points="36.96 20.94 49.42 54.07 49.25 54.13 36.77 20.94 36.96 20.94"/><polygon class="cls-1" points="37.16 20.94 49.6 54 49.42 54.07 36.96 20.94 37.16 20.94"/><polygon class="cls-1" points="37.36 20.94 49.77 53.94 49.6 54 37.16 20.94 37.36 20.94"/><polygon class="cls-1" points="37.56 20.94 49.94 53.87 49.77 53.94 37.36 20.94 37.56 20.94"/><polygon class="cls-1" points="37.76 20.94 50.12 53.81 49.94 53.87 37.56 20.94 37.76 20.94"/><polygon class="cls-1" points="37.95 20.94 50.29 53.74 50.12 53.81 37.76 20.94 37.95 20.94"/><polygon class="cls-1" points="38.15 20.94 50.46 53.68 50.29 53.74 37.95 20.94 38.15 20.94"/><polygon class="cls-1" points="38.35 20.94 50.63 53.59 50.63 53.62 50.46 53.68 38.15 20.94 38.35 20.94"/><polygon class="cls-1" points="38.55 20.94 50.63 53.07 50.63 53.59 38.35 20.94 38.55 20.94"/><polygon class="cls-1" points="38.74 20.94 50.63 52.54 50.63 53.07 38.55 20.94 38.74 20.94"/><polygon class="cls-1" points="38.94 20.94 50.63 52.02 50.63 52.54 38.74 20.94 38.94 20.94"/><polygon class="cls-1" points="39.14 20.94 50.63 51.49 50.63 52.02 38.94 20.94 39.14 20.94"/><polygon class="cls-1" points="39.34 20.94 50.63 50.97 50.63 51.49 39.14 20.94 39.34 20.94"/><polygon class="cls-1" points="39.53 20.94 50.63 50.44 50.63 50.97 39.34 20.94 39.53 20.94"/><polygon class="cls-1" points="50.63 50.44 39.53 20.94 50.63 20.94 50.63 50.44"/></g><rect class="cls-1" x="81.05" y="111.79" width="41.7" height="4.92" transform="translate(-83.7 -9) rotate(-20.62)"/></svg>