<svg id="Layer_1" data-name="Layer 1" xmlns="http://www.w3.org/2000/svg" viewBox="0 0 19.13 19.24"><defs><style>.cls-1{fill:#1d70b7;}.cls-2{fill:#fff;}.cls-3{fill:#f29100;}</style></defs><title>e_Learn</title><path class="cls-1" d="M74.13,86.34v-8.1c0-1.34-.61-1.86-1.91-1.6-.14,0-.25.22-.38.34a2.39,2.39,0,0,0,.35.36.88.88,0,0,0,.37,0c.84,0,.84,0,.84.82v8.17H57.56a3.59,3.59,0,0,1,0-.44c0-2.42,0-4.85,0-7.27a2.09,2.09,0,0,1,.11-1.08c.14-.19.64-.11,1-.22.16,0,.27-.25.4-.37-.13-.12-.24-.3-.39-.33-1.21-.24-1.81.26-1.81,1.5v7.65c0,.32,0,.57-.41.69-.21,0-.4.45-.45.72a8,8,0,0,0,0,1.3c0,.8.21,1,1,1H74.05c.75,0,1-.22,1-1,0-.32,0-.63,0-.94C75.07,86.94,74.93,86.43,74.13,86.34Zm.1,2.42H56.67V87.15H74.23Z" transform="translate(-55.89 -70.25)"/><path class="cls-1" d="M71,75.06a5.65,5.65,0,0,0-11-.65,5.42,5.42,0,0,0,2.56,6.23,4.76,4.76,0,0,1,2.32,2.47,2,2,0,0,0,.22.37c.25.38.52.37.73,0s.45-1.07.75-1.56a1.85,1.85,0,0,1,.76-.71A5.67,5.67,0,0,0,71,75.06Zm-3.49,5.2a2.87,2.87,0,0,0-1.93,1.93,1.65,1.65,0,0,1-.14.26l-.16.07C65,81.17,64,80.58,62.85,80a4.72,4.72,0,0,1-2.07-5.6,4.91,4.91,0,0,1,9.51.58A4.75,4.75,0,0,1,67.55,80.26Z" transform="translate(-55.89 -70.25)"/><path class="cls-2" d="M65.46,87.58h0Z" transform="translate(-55.89 -70.25)"/><path class="cls-3" d="M67,88c-.13.12-.27.34-.41.34a19.45,19.45,0,0,1-2.16,0c-.15,0-.29-.21-.43-.33.15-.13.28-.34.45-.37a2.61,2.61,0,0,1,.63,0h.73a3.57,3.57,0,0,1,.73,0C66.67,87.62,66.81,87.83,67,88Z" transform="translate(-55.89 -70.25)"/><path class="cls-3" d="M68.57,74.83c-.88-.46-1.76-.91-2.67-1.31a1.13,1.13,0,0,0-.81,0c-.91.34-1.8.72-2.68,1.12a.75.75,0,0,0-.41.45c0,.1.21.34.37.39.61.19.92.52.74,1.08,0,1.17.15,1.52,1.13,1.67a9.1,9.1,0,0,0,2.39,0c.92-.11,1.11-.39,1.08-1.32,0-.66.05-1.18.84-1.31a.56.56,0,0,0,.37-.39C68.93,75.11,68.73,74.91,68.57,74.83ZM66,77.64a4.68,4.68,0,0,1-1,0c-1.12-.11-1.19-.21-1-1.47a2.38,2.38,0,0,0,3,0C67.12,77.44,67,77.58,66,77.64ZM63.34,75c.67-.29,1.31-.57,2-.83a.61.61,0,0,1,.4,0c.62.29,1.22.59,1.85.9C66.19,76.15,65,76.12,63.34,75Z" transform="translate(-55.89 -70.25)"/></svg>