<svg id="Layer_1" data-name="Layer 1" xmlns="http://www.w3.org/2000/svg" viewBox="0 0 18.1 18.09"><defs><style>.cls-1{fill:#303030;}.cls-2{fill:#e5332a;}.cls-3{fill:#35a8e0;}</style></defs><title>e_mail</title><path d="M92.35,94.38a1.55,1.55,0,0,0,0-.22c0-.15-.11-.2-.24-.14a3.17,3.17,0,0,0-.41.21l-4.38,2.38a.45.45,0,0,1-.5,0q-2.28-1.24-4.57-2.48c-.39-.21-.47-.17-.47.28v4.91c0,.65.29.94.94.94h8.71c.66,0,.93-.27.93-.92Zm-.32,5c0,.46-.15.6-.61.6H82.73c-.49,0-.64-.15-.64-.63V94.73s0-.08,0-.12.05-.17.17-.1l.88.48c1.17.63,2.35,1.26,3.51,1.91a.69.69,0,0,0,.79,0c1.43-.8,2.88-1.58,4.32-2.36.23-.13.25-.11.26.15Z" transform="translate(-78.01 -87.13)"/><path d="M92.34,92.81a.72.72,0,0,0-.66-.71h-9a.81.81,0,0,0-.91.9c0,.17,0,.34,0,.52a.38.38,0,0,0,.27.41l4.75,2a.67.67,0,0,0,.57,0l2.44-1L92,94c.35-.15.36-.16.36-.53C92.35,93.24,92.35,93,92.34,92.81Zm-.52.89L88.68,95c-.47.2-.94.39-1.4.6a.48.48,0,0,1-.42,0L82.34,93.7a.35.35,0,0,1-.25-.38c0-.14,0-.28,0-.42a.46.46,0,0,1,.49-.49h9a.42.42,0,0,1,.42.44c0,.18,0,.36,0,.54A.29.29,0,0,1,91.82,93.7Z" transform="translate(-78.01 -87.13)"/><path d="M86.92,87.13a9,9,0,1,0,9.19,9A9,9,0,0,0,86.92,87.13ZM87,104.9a8.73,8.73,0,1,1,8.75-8.71A8.72,8.72,0,0,1,87,104.9Z" transform="translate(-78.01 -87.13)"/><path class="cls-1" d="M92.35,94.38a1.55,1.55,0,0,0,0-.22c0-.15-.11-.2-.24-.14a3.17,3.17,0,0,0-.41.21l-4.38,2.38a.45.45,0,0,1-.5,0q-2.28-1.24-4.57-2.48c-.39-.21-.47-.17-.47.28v4.91c0,.65.29.94.94.94h8.71c.66,0,.93-.27.93-.92Zm-.32,5c0,.46-.15.6-.61.6H82.73c-.49,0-.64-.15-.64-.63V94.73s0-.08,0-.12.05-.17.17-.1l.88.48c1.17.63,2.35,1.26,3.51,1.91a.69.69,0,0,0,.79,0c1.43-.8,2.88-1.58,4.32-2.36.23-.13.25-.11.26.15Z" transform="translate(-78.01 -87.13)"/><path class="cls-1" d="M92.34,92.81a.72.72,0,0,0-.66-.71h-9a.81.81,0,0,0-.91.9c0,.17,0,.34,0,.52a.38.38,0,0,0,.27.41l4.75,2a.67.67,0,0,0,.57,0l2.44-1L92,94c.35-.15.36-.16.36-.53C92.35,93.24,92.35,93,92.34,92.81Zm-.52.89L88.68,95c-.47.2-.94.39-1.4.6a.48.48,0,0,1-.42,0L82.34,93.7a.35.35,0,0,1-.25-.38c0-.14,0-.28,0-.42a.46.46,0,0,1,.49-.49h9a.42.42,0,0,1,.42.44c0,.18,0,.36,0,.54A.29.29,0,0,1,91.82,93.7Z" transform="translate(-78.01 -87.13)"/><path class="cls-2" d="M86.92,87.13a9,9,0,1,0,9.19,9A9,9,0,0,0,86.92,87.13ZM87,104.9a8.73,8.73,0,1,1,8.75-8.71A8.72,8.72,0,0,1,87,104.9Z" transform="translate(-78.01 -87.13)"/><path d="M92.35,94.38a1.55,1.55,0,0,0,0-.22c0-.15-.11-.2-.24-.14a3.17,3.17,0,0,0-.41.21l-4.38,2.38a.45.45,0,0,1-.5,0q-2.28-1.24-4.57-2.48c-.39-.21-.47-.17-.47.28v4.91c0,.65.29.94.94.94h8.71c.66,0,.93-.27.93-.92Zm-.32,5c0,.46-.15.6-.61.6H82.73c-.49,0-.64-.15-.64-.63V94.73s0-.08,0-.12.05-.17.17-.1l.88.48c1.17.63,2.35,1.26,3.51,1.91a.69.69,0,0,0,.79,0c1.43-.8,2.88-1.58,4.32-2.36.23-.13.25-.11.26.15Z" transform="translate(-78.01 -87.13)"/><path d="M92.34,92.81a.72.72,0,0,0-.66-.71h-9a.81.81,0,0,0-.91.9c0,.17,0,.34,0,.52a.38.38,0,0,0,.27.41l4.75,2a.67.67,0,0,0,.57,0l2.44-1L92,94c.35-.15.36-.16.36-.53C92.35,93.24,92.35,93,92.34,92.81Zm-.52.89L88.68,95c-.47.2-.94.39-1.4.6a.48.48,0,0,1-.42,0L82.34,93.7a.35.35,0,0,1-.25-.38c0-.14,0-.28,0-.42a.46.46,0,0,1,.49-.49h9a.42.42,0,0,1,.42.44c0,.18,0,.36,0,.54A.29.29,0,0,1,91.82,93.7Z" transform="translate(-78.01 -87.13)"/><path class="cls-3" d="M92.35,94.38a1.55,1.55,0,0,0,0-.22c0-.15-.11-.2-.24-.14a3.17,3.17,0,0,0-.41.21l-4.38,2.38a.45.45,0,0,1-.5,0q-2.28-1.24-4.57-2.48c-.39-.21-.47-.17-.47.28v4.91c0,.65.29.94.94.94h8.71c.66,0,.93-.27.93-.92Zm-.32,5c0,.46-.15.6-.61.6H82.73c-.49,0-.64-.15-.64-.63V94.73s0-.08,0-.12.05-.17.17-.1l.88.48c1.17.63,2.35,1.26,3.51,1.91a.69.69,0,0,0,.79,0c1.43-.8,2.88-1.58,4.32-2.36.23-.13.25-.11.26.15Z" transform="translate(-78.01 -87.13)"/><path class="cls-3" d="M92.34,92.81a.72.72,0,0,0-.66-.71h-9a.81.81,0,0,0-.91.9c0,.17,0,.34,0,.52a.38.38,0,0,0,.27.41l4.75,2a.67.67,0,0,0,.57,0l2.44-1L92,94c.35-.15.36-.16.36-.53C92.35,93.24,92.35,93,92.34,92.81Zm-.52.89L88.68,95c-.47.2-.94.39-1.4.6a.48.48,0,0,1-.42,0L82.34,93.7a.35.35,0,0,1-.25-.38c0-.14,0-.28,0-.42a.46.46,0,0,1,.49-.49h9a.42.42,0,0,1,.42.44c0,.18,0,.36,0,.54A.29.29,0,0,1,91.82,93.7Z" transform="translate(-78.01 -87.13)"/></svg>