<svg id="Layer_1" data-name="Layer 1" xmlns="http://www.w3.org/2000/svg" viewBox="0 0 17.39 13.95"><defs><style>.cls-1{fill:#662482;}.cls-2{fill:#35a8e0;}.cls-3{fill:none;}</style></defs><title>e_office</title><path class="cls-1" d="M98,78.13A1,1,0,0,0,98,78a.75.75,0,0,0-.62-.63H93.68c-.53,0-1.06,0-1.59,0-.12,0-.18,0-.16-.15a2.41,2.41,0,0,0,0-.38.06.06,0,0,0,0,0,1.21,1.21,0,0,0,0-.18h0s0,0,0,0,0,0,0,0,0,0,0-.06a.09.09,0,0,1,0-.06.05.05,0,0,1,0,0l0-.06s0,0,0,0a.05.05,0,0,1,0,0l0,0,0-.08L91.53,76l-.08-.09,0,0,0,0h0l0,0a.05.05,0,0,1,0,0l0,0a.05.05,0,0,1,0,0l0,0s0,0-.06,0a1.83,1.83,0,0,0-.73-.18h-2.1a1.51,1.51,0,0,0-.7.17,1.53,1.53,0,0,0-.84,1.46c0,.13,0,.17-.17.17H81.44a.74.74,0,0,0-.77.76v4.32s0,.08,0,.1v.08a.12.12,0,0,1,0,.14v6a.72.72,0,0,0,.76.78H88.9a.21.21,0,0,0,.14,0,.09.09,0,0,1,0-.12s.06,0,.07,0,0,.06,0,.1h0s.06,0,.1,0h8.13a.73.73,0,0,0,.74-.76q0-3.84,0-7.68C98,80.07,98,79.1,98,78.13Zm-9.62-2h2a.79.79,0,0,1,.37.07.18.18,0,0,1,.12,0l.05,0,0,0,0,0a.39.39,0,0,1,.2.2s0,0,0,0,0,0,0,0a.08.08,0,0,1,0,0h0a.34.34,0,0,1,.06.12h0a.52.52,0,0,1,.06.28,1,1,0,0,1,0,.25c0,.1-.08,0-.12,0-.57,0-1.14,0-1.71,0h-2.1c-.1,0-.14,0-.14-.14A1,1,0,0,1,88.41,76.09ZM97.48,88.7a.27.27,0,0,1,0,.16l0,0-.08.05a.13.13,0,0,1-.08,0h-7a1.07,1.07,0,0,1-.31,0h-8a3.77,3.77,0,0,1-.58,0,.18.18,0,0,1-.14-.18V82.67a4.33,4.33,0,0,1,0-.72V78.19c0-.26,0-.31.31-.3H97.18c.25,0,.3.05.3.3Z" transform="translate(-80.64 -75.54)"/><path class="cls-2" d="M97.48,79.18v2.73s0,0,0,0a4.73,4.73,0,0,1-.9,1.19,4.88,4.88,0,0,1-2,1.19,5.21,5.21,0,0,1-1.57.2H90.47c-.13,0-.17,0-.16.17s0,.43,0,.64a.94.94,0,0,1-1,.92,1,1,0,0,1-.92-1c0-.2,0-.39,0-.59s0-.17-.17-.17H85.59a4.8,4.8,0,0,1-3.14-1.12,4.62,4.62,0,0,1-1-1.15l-.2-.33a.5.5,0,0,0,0,.12V79.62a3.52,3.52,0,0,0,.25,1.32.28.28,0,0,0,0,.13,1.17,1.17,0,0,0,.16.36l0,0s0,.07,0,.09a.55.55,0,0,0,.12.21l0,0s0,0,0,0l0,0h0s0,0,0,0l0,0s0,0,0,0,0,0,0,0a.05.05,0,0,0,0,0l0,0a3.79,3.79,0,0,0,.79.81,4.37,4.37,0,0,0,2.69.93h2.67c.1,0,.15,0,.14-.14a2.29,2.29,0,0,1,0-.37,1,1,0,0,1,.9-.93,1,1,0,0,1,1,.78,2.83,2.83,0,0,1,0,.5c0,.12,0,.16.15.16.9,0,1.8,0,2.71,0l.47,0A4.36,4.36,0,0,0,96.72,82a4.74,4.74,0,0,0,.52-1,4.4,4.4,0,0,0,.21-.94A7.77,7.77,0,0,0,97.48,79.18Z" transform="translate(-80.64 -75.54)"/><line class="cls-3" x1="0.58" y1="6.5" x2="0.58" y2="6.41"/></svg>