<svg id="Layer_1" data-name="Layer 1" xmlns="http://www.w3.org/2000/svg" xmlns:xlink="http://www.w3.org/1999/xlink" viewBox="0 0 100 98.75"><defs><style>.cls-1{fill:#e61d5a;}.cls-2{clip-path:url(#clip-path);}.cls-3{clip-path:url(#clip-path-2);}.cls-4{clip-path:url(#clip-path-3);}.cls-5{clip-path:url(#clip-path-4);}.cls-6{clip-path:url(#clip-path-5);}.cls-7{clip-path:url(#clip-path-6);}</style><clipPath id="clip-path" transform="translate(-50 -50.62)"><path id="SVGID" class="cls-1" d="M84.3,63.32A6.35,6.35,0,1,1,90.65,57,6.36,6.36,0,0,1,84.3,63.32Zm0-7.82A1.47,1.47,0,1,0,85.77,57,1.47,1.47,0,0,0,84.3,55.5Z"/></clipPath><clipPath id="clip-path-2" transform="translate(-50 -50.62)"><path id="SVGID-2" data-name="SVGID" class="cls-1" d="M143,75.94a6.35,6.35,0,1,1,6.35-6.35A6.36,6.36,0,0,1,143,75.94Zm0-7.82a1.47,1.47,0,1,0,1.47,1.47A1.47,1.47,0,0,0,143,68.12Z"/></clipPath><clipPath id="clip-path-3" transform="translate(-50 -50.62)"><path id="SVGID-3" data-name="SVGID" class="cls-1" d="M143.65,149.29A6.35,6.35,0,1,1,150,143,6.35,6.35,0,0,1,143.65,149.29Zm0-7.81a1.47,1.47,0,1,0,1.47,1.47A1.47,1.47,0,0,0,143.65,141.48Z"/></clipPath><clipPath id="clip-path-4" transform="translate(-50 -50.62)"><path id="SVGID-4" data-name="SVGID" class="cls-1" d="M69.83,149.38A6.35,6.35,0,1,1,76.18,143,6.36,6.36,0,0,1,69.83,149.38Zm0-7.82A1.47,1.47,0,1,0,71.3,143,1.47,1.47,0,0,0,69.83,141.56Z"/></clipPath><clipPath id="clip-path-5" transform="translate(-50 -50.62)"><path id="SVGID-5" data-name="SVGID" class="cls-1" d="M56.35,134.74a6.35,6.35,0,1,1,6.35-6.35A6.36,6.36,0,0,1,56.35,134.74Zm0-7.82a1.47,1.47,0,1,0,1.47,1.47A1.47,1.47,0,0,0,56.35,126.92Z"/></clipPath><clipPath id="clip-path-6" transform="translate(-50 -50.62)"><path id="SVGID-6" data-name="SVGID" class="cls-1" d="M56.35,104.59a6.35,6.35,0,1,1,6.35-6.35A6.36,6.36,0,0,1,56.35,104.59Zm0-7.82a1.47,1.47,0,1,0,1.47,1.47A1.47,1.47,0,0,0,56.35,96.77Z"/></clipPath></defs><title>e-Projects</title><path class="cls-1" d="M135.76,135.75H77V76.94h58.81Zm-53.93-4.88h49.05V81.82h-49Z" transform="translate(-50 -50.62)"/><path class="cls-1" d="M119.81,119.8H92.91V92.9h26.9Zm-22-4.88h17.14V97.78H97.79Z" transform="translate(-50 -50.62)"/><rect class="cls-1" x="53.92" y="18.97" width="4.88" height="10.44"/><circle class="cls-1" cx="56.36" cy="19.51" r="4.08"/><rect class="cls-1" x="31.86" y="10.26" width="4.88" height="18.5"/><path id="SVGID-7" data-name="SVGID" class="cls-1" d="M84.3,63.32A6.35,6.35,0,1,1,90.65,57,6.36,6.36,0,0,1,84.3,63.32Zm0-7.82A1.47,1.47,0,1,0,85.77,57,1.47,1.47,0,0,0,84.3,55.5Z" transform="translate(-50 -50.62)"/><g class="cls-2"><rect class="cls-1" x="32.83" y="4.88" width="0.1" height="2.94"/><rect class="cls-1" x="32.93" y="4.88" width="0.18" height="2.94"/><rect class="cls-1" x="33.12" y="4.88" width="0.18" height="2.94"/><rect class="cls-1" x="33.3" y="4.88" width="0.18" height="2.94"/><rect class="cls-1" x="33.48" y="4.88" width="0.18" height="2.94"/><rect class="cls-1" x="33.67" y="4.88" width="0.18" height="2.94"/><rect class="cls-1" x="33.85" y="4.88" width="0.18" height="2.94"/><rect class="cls-1" x="34.04" y="4.88" width="0.18" height="2.94"/><rect class="cls-1" x="34.22" y="4.88" width="0.18" height="2.94"/><rect class="cls-1" x="34.4" y="4.88" width="0.18" height="2.94"/><rect class="cls-1" x="34.59" y="4.88" width="0.18" height="2.94"/><rect class="cls-1" x="34.77" y="4.88" width="0.18" height="2.94"/><rect class="cls-1" x="34.95" y="4.88" width="0.18" height="2.94"/><rect class="cls-1" x="35.14" y="4.88" width="0.18" height="2.94"/><rect class="cls-1" x="35.32" y="4.88" width="0.18" height="2.94"/><rect class="cls-1" x="35.51" y="4.88" width="0.18" height="2.94"/><rect class="cls-1" x="35.69" y="4.88" width="0.08" height="2.94"/><rect class="cls-1" x="27.95" width="0.02" height="12.7"/><rect class="cls-1" x="27.97" width="0.18" height="12.7"/><rect class="cls-1" x="28.15" width="0.18" height="12.7"/><rect class="cls-1" x="28.34" width="0.18" height="12.7"/><rect class="cls-1" x="28.52" width="0.18" height="12.7"/><rect class="cls-1" x="28.71" width="0.18" height="12.7"/><rect class="cls-1" x="28.89" width="0.18" height="12.7"/><rect class="cls-1" x="29.07" width="0.18" height="12.7"/><rect class="cls-1" x="29.26" width="0.18" height="12.7"/><rect class="cls-1" x="29.44" width="0.18" height="12.7"/><rect class="cls-1" x="29.62" width="0.18" height="12.7"/><rect class="cls-1" x="29.81" width="0.18" height="12.7"/><rect class="cls-1" x="29.99" width="0.18" height="12.7"/><rect class="cls-1" x="30.18" width="0.18" height="12.7"/><rect class="cls-1" x="30.36" width="0.18" height="12.7"/><rect class="cls-1" x="30.54" width="0.18" height="12.7"/><rect class="cls-1" x="30.73" width="0.18" height="12.7"/><rect class="cls-1" x="30.91" width="0.18" height="12.7"/><rect class="cls-1" x="31.09" width="0.18" height="12.7"/><rect class="cls-1" x="31.28" width="0.18" height="12.7"/><rect class="cls-1" x="31.46" width="0.18" height="12.7"/><rect class="cls-1" x="31.65" width="0.18" height="12.7"/><rect class="cls-1" x="31.83" width="0.18" height="12.7"/><rect class="cls-1" x="32.01" width="0.18" height="12.7"/><rect class="cls-1" x="32.2" width="0.18" height="12.7"/><rect class="cls-1" x="32.38" width="0.18" height="12.7"/><rect class="cls-1" x="32.56" width="0.18" height="12.7"/><rect class="cls-1" x="32.75" width="0.18" height="12.7"/><rect class="cls-1" x="32.93" width="0.18" height="12.7"/><rect class="cls-1" x="33.12" width="0.18" height="12.7"/><rect class="cls-1" x="33.3" width="0.18" height="12.7"/><rect class="cls-1" x="33.48" width="0.18" height="12.7"/><rect class="cls-1" x="33.67" width="0.18" height="12.7"/><rect class="cls-1" x="33.85" width="0.18" height="12.7"/><rect class="cls-1" x="34.04" width="0.18" height="12.7"/><rect class="cls-1" x="34.22" width="0.18" height="12.7"/><rect class="cls-1" x="34.4" width="0.18" height="12.7"/><rect class="cls-1" x="34.59" width="0.18" height="12.7"/><rect class="cls-1" x="34.77" width="0.18" height="12.7"/><rect class="cls-1" x="34.95" width="0.18" height="12.7"/><rect class="cls-1" x="35.14" width="0.18" height="12.7"/><rect class="cls-1" x="35.32" width="0.18" height="12.7"/><rect class="cls-1" x="35.51" width="0.18" height="12.7"/><rect class="cls-1" x="35.69" width="0.18" height="12.7"/><rect class="cls-1" x="35.87" width="0.18" height="12.7"/><rect class="cls-1" x="36.06" width="0.18" height="12.7"/><rect class="cls-1" x="36.24" width="0.18" height="12.7"/><rect class="cls-1" x="36.42" width="0.18" height="12.7"/><rect class="cls-1" x="36.61" width="0.18" height="12.7"/><rect class="cls-1" x="36.79" width="0.18" height="12.7"/><rect class="cls-1" x="36.98" width="0.18" height="12.7"/><rect class="cls-1" x="37.16" width="0.18" height="12.7"/><rect class="cls-1" x="37.34" width="0.18" height="12.7"/><rect class="cls-1" x="37.53" width="0.18" height="12.7"/><rect class="cls-1" x="37.71" width="0.18" height="12.7"/><rect class="cls-1" x="37.89" width="0.18" height="12.7"/><rect class="cls-1" x="38.08" width="0.18" height="12.7"/><rect class="cls-1" x="38.26" width="0.18" height="12.7"/><rect class="cls-1" x="38.45" width="0.18" height="12.7"/><rect class="cls-1" x="38.63" width="0.18" height="12.7"/><rect class="cls-1" x="38.81" width="0.18" height="12.7"/><rect class="cls-1" x="39" width="0.18" height="12.7"/><rect class="cls-1" x="39.18" width="0.18" height="12.7"/><rect class="cls-1" x="39.36" width="0.18" height="12.7"/><rect class="cls-1" x="39.55" width="0.18" height="12.7"/><rect class="cls-1" x="39.73" width="0.18" height="12.7"/><rect class="cls-1" x="39.92" width="0.18" height="12.7"/><rect class="cls-1" x="40.1" width="0.18" height="12.7"/><rect class="cls-1" x="40.28" width="0.18" height="12.7"/><rect class="cls-1" x="40.47" width="0.18" height="12.7"/><path class="cls-1" d="M90.65,63.32v0Z" transform="translate(-50 -50.62)"/></g><circle class="cls-1" cx="34.3" cy="18.97" r="4.08"/><polygon class="cls-1" points="80.89 28.76 76.01 28.76 76.01 16.53 89.09 16.53 89.09 21.41 80.89 21.41 80.89 28.76"/><path id="SVGID-8" data-name="SVGID" class="cls-1" d="M143,75.94a6.35,6.35,0,1,1,6.35-6.35A6.36,6.36,0,0,1,143,75.94Zm0-7.82a1.47,1.47,0,1,0,1.47,1.47A1.47,1.47,0,0,0,143,68.12Z" transform="translate(-50 -50.62)"/><g class="cls-3"><rect class="cls-1" x="91.53" y="17.5" width="0.1" height="2.94"/><rect class="cls-1" x="91.63" y="17.5" width="0.18" height="2.94"/><rect class="cls-1" x="91.81" y="17.5" width="0.18" height="2.94"/><rect class="cls-1" x="91.99" y="17.5" width="0.18" height="2.94"/><rect class="cls-1" x="92.18" y="17.5" width="0.18" height="2.94"/><rect class="cls-1" x="92.36" y="17.5" width="0.18" height="2.94"/><rect class="cls-1" x="92.55" y="17.5" width="0.18" height="2.94"/><rect class="cls-1" x="92.73" y="17.5" width="0.18" height="2.94"/><rect class="cls-1" x="92.91" y="17.5" width="0.18" height="2.94"/><rect class="cls-1" x="93.1" y="17.5" width="0.18" height="2.94"/><rect class="cls-1" x="93.28" y="17.5" width="0.18" height="2.94"/><rect class="cls-1" x="93.46" y="17.5" width="0.18" height="2.94"/><rect class="cls-1" x="93.65" y="17.5" width="0.18" height="2.94"/><rect class="cls-1" x="93.83" y="17.5" width="0.18" height="2.94"/><rect class="cls-1" x="94.02" y="17.5" width="0.18" height="2.94"/><rect class="cls-1" x="94.2" y="17.5" width="0.18" height="2.94"/><rect class="cls-1" x="94.38" y="17.5" width="0.08" height="2.94"/><rect class="cls-1" x="86.65" y="12.62" width="0.02" height="12.7"/><rect class="cls-1" x="86.67" y="12.62" width="0.18" height="12.7"/><rect class="cls-1" x="86.85" y="12.62" width="0.18" height="12.7"/><rect class="cls-1" x="87.03" y="12.62" width="0.18" height="12.7"/><rect class="cls-1" x="87.22" y="12.62" width="0.18" height="12.7"/><rect class="cls-1" x="87.4" y="12.62" width="0.18" height="12.7"/><rect class="cls-1" x="87.58" y="12.62" width="0.18" height="12.7"/><rect class="cls-1" x="87.77" y="12.62" width="0.18" height="12.7"/><rect class="cls-1" x="87.95" y="12.62" width="0.18" height="12.7"/><rect class="cls-1" x="88.14" y="12.62" width="0.18" height="12.7"/><rect class="cls-1" x="88.32" y="12.62" width="0.18" height="12.7"/><rect class="cls-1" x="88.5" y="12.62" width="0.18" height="12.7"/><rect class="cls-1" x="88.69" y="12.62" width="0.18" height="12.7"/><rect class="cls-1" x="88.87" y="12.62" width="0.18" height="12.7"/><rect class="cls-1" x="89.05" y="12.62" width="0.18" height="12.7"/><rect class="cls-1" x="89.24" y="12.62" width="0.18" height="12.7"/><rect class="cls-1" x="89.42" y="12.62" width="0.18" height="12.7"/><rect class="cls-1" x="89.61" y="12.62" width="0.18" height="12.7"/><rect class="cls-1" x="89.79" y="12.62" width="0.18" height="12.7"/><rect class="cls-1" x="89.97" y="12.62" width="0.18" height="12.7"/><rect class="cls-1" x="90.16" y="12.62" width="0.18" height="12.7"/><rect class="cls-1" x="90.34" y="12.62" width="0.18" height="12.7"/><rect class="cls-1" x="90.52" y="12.62" width="0.18" height="12.7"/><rect class="cls-1" x="90.71" y="12.62" width="0.18" height="12.7"/><rect class="cls-1" x="90.89" y="12.62" width="0.18" height="12.7"/><rect class="cls-1" x="91.08" y="12.62" width="0.18" height="12.7"/><rect class="cls-1" x="91.26" y="12.62" width="0.18" height="12.7"/><rect class="cls-1" x="91.44" y="12.62" width="0.18" height="12.7"/><rect class="cls-1" x="91.63" y="12.62" width="0.18" height="12.7"/><rect class="cls-1" x="91.81" y="12.62" width="0.18" height="12.7"/><rect class="cls-1" x="91.99" y="12.62" width="0.18" height="12.7"/><rect class="cls-1" x="92.18" y="12.62" width="0.18" height="12.7"/><rect class="cls-1" x="92.36" y="12.62" width="0.18" height="12.7"/><rect class="cls-1" x="92.55" y="12.62" width="0.18" height="12.7"/><rect class="cls-1" x="92.73" y="12.62" width="0.18" height="12.7"/><rect class="cls-1" x="92.91" y="12.62" width="0.18" height="12.7"/><rect class="cls-1" x="93.1" y="12.62" width="0.18" height="12.7"/><rect class="cls-1" x="93.28" y="12.62" width="0.18" height="12.7"/><rect class="cls-1" x="93.46" y="12.62" width="0.18" height="12.7"/><rect class="cls-1" x="93.65" y="12.62" width="0.18" height="12.7"/><rect class="cls-1" x="93.83" y="12.62" width="0.18" height="12.7"/><rect class="cls-1" x="94.02" y="12.62" width="0.18" height="12.7"/><rect class="cls-1" x="94.2" y="12.62" width="0.18" height="12.7"/><rect class="cls-1" x="94.38" y="12.62" width="0.18" height="12.7"/><rect class="cls-1" x="94.57" y="12.62" width="0.18" height="12.7"/><rect class="cls-1" x="94.75" y="12.62" width="0.18" height="12.7"/><rect class="cls-1" x="94.94" y="12.62" width="0.18" height="12.7"/><rect class="cls-1" x="95.12" y="12.62" width="0.18" height="12.7"/><rect class="cls-1" x="95.3" y="12.62" width="0.18" height="12.7"/><rect class="cls-1" x="95.49" y="12.62" width="0.18" height="12.7"/><rect class="cls-1" x="95.67" y="12.62" width="0.18" height="12.7"/><rect class="cls-1" x="95.85" y="12.62" width="0.18" height="12.7"/><rect class="cls-1" x="96.04" y="12.62" width="0.18" height="12.7"/><rect class="cls-1" x="96.22" y="12.62" width="0.18" height="12.7"/><rect class="cls-1" x="96.41" y="12.62" width="0.18" height="12.7"/><rect class="cls-1" x="96.59" y="12.62" width="0.18" height="12.7"/><rect class="cls-1" x="96.77" y="12.62" width="0.18" height="12.7"/><rect class="cls-1" x="96.96" y="12.62" width="0.18" height="12.7"/><rect class="cls-1" x="97.14" y="12.62" width="0.18" height="12.7"/><rect class="cls-1" x="97.32" y="12.62" width="0.18" height="12.7"/><rect class="cls-1" x="97.51" y="12.62" width="0.18" height="12.7"/><rect class="cls-1" x="97.69" y="12.62" width="0.18" height="12.7"/><rect class="cls-1" x="97.88" y="12.62" width="0.18" height="12.7"/><rect class="cls-1" x="98.06" y="12.62" width="0.18" height="12.7"/><rect class="cls-1" x="98.24" y="12.62" width="0.18" height="12.7"/><rect class="cls-1" x="98.43" y="12.62" width="0.18" height="12.7"/><rect class="cls-1" x="98.61" y="12.62" width="0.18" height="12.7"/><rect class="cls-1" x="98.79" y="12.62" width="0.18" height="12.7"/><rect class="cls-1" x="98.98" y="12.62" width="0.18" height="12.7"/><rect class="cls-1" x="99.16" y="12.62" width="0.18" height="12.7"/><path class="cls-1" d="M149.35,75.94v0Z" transform="translate(-50 -50.62)"/></g><circle class="cls-1" cx="78.45" cy="18.97" r="4.08"/><rect class="cls-1" x="83.77" y="31.23" width="10.44" height="4.88"/><circle class="cls-1" cx="93.67" cy="33.67" r="4.08"/><rect class="cls-1" x="83.77" y="53.28" width="10.44" height="4.88"/><circle class="cls-1" cx="93.67" cy="55.72" r="4.08"/><polygon class="cls-1" points="96.09 88.42 91.21 88.42 91.21 80.22 83.86 80.22 83.86 75.34 96.09 75.34 96.09 88.42"/><path id="SVGID-9" data-name="SVGID" class="cls-1" d="M143.65,149.29A6.35,6.35,0,1,1,150,143,6.35,6.35,0,0,1,143.65,149.29Zm0-7.81a1.47,1.47,0,1,0,1.47,1.47A1.47,1.47,0,0,0,143.65,141.48Z" transform="translate(-50 -50.62)"/><g class="cls-4"><rect class="cls-1" x="92.18" y="90.86" width="2.94" height="0.1"/><rect class="cls-1" x="92.18" y="90.95" width="2.94" height="0.18"/><rect class="cls-1" x="92.18" y="91.14" width="2.94" height="0.18"/><rect class="cls-1" x="92.18" y="91.32" width="2.94" height="0.18"/><rect class="cls-1" x="92.18" y="91.5" width="2.94" height="0.18"/><rect class="cls-1" x="92.18" y="91.69" width="2.94" height="0.18"/><rect class="cls-1" x="92.18" y="91.87" width="2.94" height="0.18"/><rect class="cls-1" x="92.18" y="92.06" width="2.94" height="0.18"/><rect class="cls-1" x="92.18" y="92.24" width="2.94" height="0.18"/><rect class="cls-1" x="92.18" y="92.42" width="2.94" height="0.18"/><rect class="cls-1" x="92.18" y="92.61" width="2.94" height="0.18"/><rect class="cls-1" x="92.18" y="92.79" width="2.94" height="0.18"/><rect class="cls-1" x="92.18" y="92.97" width="2.94" height="0.18"/><rect class="cls-1" x="92.18" y="93.16" width="2.94" height="0.18"/><rect class="cls-1" x="92.18" y="93.34" width="2.94" height="0.18"/><rect class="cls-1" x="92.18" y="93.53" width="2.94" height="0.18"/><rect class="cls-1" x="92.18" y="93.71" width="2.94" height="0.08"/><rect class="cls-1" x="87.3" y="85.98" width="12.7" height="0.02"/><rect class="cls-1" x="87.3" y="85.99" width="12.7" height="0.18"/><rect class="cls-1" x="87.3" y="86.17" width="12.7" height="0.18"/><rect class="cls-1" x="87.3" y="86.36" width="12.7" height="0.18"/><rect class="cls-1" x="87.3" y="86.54" width="12.7" height="0.18"/><rect class="cls-1" x="87.3" y="86.73" width="12.7" height="0.18"/><rect class="cls-1" x="87.3" y="86.91" width="12.7" height="0.18"/><rect class="cls-1" x="87.3" y="87.09" width="12.7" height="0.18"/><rect class="cls-1" x="87.3" y="87.28" width="12.7" height="0.18"/><rect class="cls-1" x="87.3" y="87.46" width="12.7" height="0.18"/><rect class="cls-1" x="87.3" y="87.64" width="12.7" height="0.18"/><rect class="cls-1" x="87.3" y="87.83" width="12.7" height="0.18"/><rect class="cls-1" x="87.3" y="88.01" width="12.7" height="0.18"/><rect class="cls-1" x="87.3" y="88.2" width="12.7" height="0.18"/><rect class="cls-1" x="87.3" y="88.38" width="12.7" height="0.18"/><rect class="cls-1" x="87.3" y="88.56" width="12.7" height="0.18"/><rect class="cls-1" x="87.3" y="88.75" width="12.7" height="0.18"/><rect class="cls-1" x="87.3" y="88.93" width="12.7" height="0.18"/><rect class="cls-1" x="87.3" y="89.12" width="12.7" height="0.18"/><rect class="cls-1" x="87.3" y="89.3" width="12.7" height="0.18"/><rect class="cls-1" x="87.3" y="89.48" width="12.7" height="0.18"/><rect class="cls-1" x="87.3" y="89.67" width="12.7" height="0.18"/><rect class="cls-1" x="87.3" y="89.85" width="12.7" height="0.18"/><rect class="cls-1" x="87.3" y="90.03" width="12.7" height="0.18"/><rect class="cls-1" x="87.3" y="90.22" width="12.7" height="0.18"/><rect class="cls-1" x="87.3" y="90.4" width="12.7" height="0.18"/><rect class="cls-1" x="87.3" y="90.59" width="12.7" height="0.18"/><rect class="cls-1" x="87.3" y="90.77" width="12.7" height="0.18"/><rect class="cls-1" x="87.3" y="90.95" width="12.7" height="0.18"/><rect class="cls-1" x="87.3" y="91.14" width="12.7" height="0.18"/><rect class="cls-1" x="87.3" y="91.32" width="12.7" height="0.18"/><rect class="cls-1" x="87.3" y="91.5" width="12.7" height="0.18"/><rect class="cls-1" x="87.3" y="91.69" width="12.7" height="0.18"/><rect class="cls-1" x="87.3" y="91.87" width="12.7" height="0.18"/><rect class="cls-1" x="87.3" y="92.06" width="12.7" height="0.18"/><rect class="cls-1" x="87.3" y="92.24" width="12.7" height="0.18"/><rect class="cls-1" x="87.3" y="92.42" width="12.7" height="0.18"/><rect class="cls-1" x="87.3" y="92.61" width="12.7" height="0.18"/><rect class="cls-1" x="87.3" y="92.79" width="12.7" height="0.18"/><rect class="cls-1" x="87.3" y="92.97" width="12.7" height="0.18"/><rect class="cls-1" x="87.3" y="93.16" width="12.7" height="0.18"/><rect class="cls-1" x="87.3" y="93.34" width="12.7" height="0.18"/><rect class="cls-1" x="87.3" y="93.53" width="12.7" height="0.18"/><rect class="cls-1" x="87.3" y="93.71" width="12.7" height="0.18"/><rect class="cls-1" x="87.3" y="93.89" width="12.7" height="0.18"/><rect class="cls-1" x="87.3" y="94.08" width="12.7" height="0.18"/><rect class="cls-1" x="87.3" y="94.26" width="12.7" height="0.18"/><rect class="cls-1" x="87.3" y="94.44" width="12.7" height="0.18"/><rect class="cls-1" x="87.3" y="94.63" width="12.7" height="0.18"/><rect class="cls-1" x="87.3" y="94.81" width="12.7" height="0.18"/><rect class="cls-1" x="87.3" y="95" width="12.7" height="0.18"/><rect class="cls-1" x="87.3" y="95.18" width="12.7" height="0.18"/><rect class="cls-1" x="87.3" y="95.36" width="12.7" height="0.18"/><rect class="cls-1" x="87.3" y="95.55" width="12.7" height="0.18"/><rect class="cls-1" x="87.3" y="95.73" width="12.7" height="0.18"/><rect class="cls-1" x="87.3" y="95.91" width="12.7" height="0.18"/><rect class="cls-1" x="87.3" y="96.1" width="12.7" height="0.18"/><rect class="cls-1" x="87.3" y="96.28" width="12.7" height="0.18"/><rect class="cls-1" x="87.3" y="96.47" width="12.7" height="0.18"/><rect class="cls-1" x="87.3" y="96.65" width="12.7" height="0.18"/><rect class="cls-1" x="87.3" y="96.83" width="12.7" height="0.18"/><rect class="cls-1" x="87.3" y="97.02" width="12.7" height="0.18"/><rect class="cls-1" x="87.3" y="97.2" width="12.7" height="0.18"/><rect class="cls-1" x="87.3" y="97.39" width="12.7" height="0.18"/><rect class="cls-1" x="87.3" y="97.57" width="12.7" height="0.18"/><rect class="cls-1" x="87.3" y="97.75" width="12.7" height="0.18"/><rect class="cls-1" x="87.3" y="97.94" width="12.7" height="0.18"/><rect class="cls-1" x="87.3" y="98.12" width="12.7" height="0.18"/><rect class="cls-1" x="87.3" y="98.3" width="12.7" height="0.18"/><rect class="cls-1" x="87.3" y="98.49" width="12.7" height="0.18"/><path class="cls-1" d="M137.3,149.29h0Z" transform="translate(-50 -50.62)"/></g><circle class="cls-1" cx="93.65" cy="77.78" r="4.08"/><rect class="cls-1" x="75.96" y="83.1" width="4.88" height="10.44"/><circle class="cls-1" cx="78.4" cy="93" r="4.08"/><rect class="cls-1" x="53.9" y="83.1" width="4.88" height="10.44"/><circle class="cls-1" cx="56.34" cy="93" r="4.08"/><polygon class="cls-1" points="36.81 94.85 23.74 94.85 23.74 89.97 31.93 89.97 31.93 82.61 36.81 82.61 36.81 94.85"/><path id="SVGID-10" data-name="SVGID" class="cls-1" d="M69.83,149.38A6.35,6.35,0,1,1,76.18,143,6.36,6.36,0,0,1,69.83,149.38Zm0-7.82A1.47,1.47,0,1,0,71.3,143,1.47,1.47,0,0,0,69.83,141.56Z" transform="translate(-50 -50.62)"/><g class="cls-5"><rect class="cls-1" x="21.2" y="90.94" width="0.1" height="2.94"/><rect class="cls-1" x="21.02" y="90.94" width="0.18" height="2.94"/><rect class="cls-1" x="20.83" y="90.94" width="0.18" height="2.94"/><rect class="cls-1" x="20.65" y="90.94" width="0.18" height="2.94"/><rect class="cls-1" x="20.47" y="90.94" width="0.18" height="2.94"/><rect class="cls-1" x="20.28" y="90.94" width="0.18" height="2.94"/><rect class="cls-1" x="20.1" y="90.94" width="0.18" height="2.94"/><rect class="cls-1" x="19.92" y="90.94" width="0.18" height="2.94"/><rect class="cls-1" x="19.73" y="90.94" width="0.18" height="2.94"/><rect class="cls-1" x="19.55" y="90.94" width="0.18" height="2.94"/><rect class="cls-1" x="19.36" y="90.94" width="0.18" height="2.94"/><rect class="cls-1" x="19.18" y="90.94" width="0.18" height="2.94"/><rect class="cls-1" x="19" y="90.94" width="0.18" height="2.94"/><rect class="cls-1" x="18.81" y="90.94" width="0.18" height="2.94"/><rect class="cls-1" x="18.63" y="90.94" width="0.18" height="2.94"/><rect class="cls-1" x="18.45" y="90.94" width="0.18" height="2.94"/><rect class="cls-1" x="18.36" y="90.94" width="0.08" height="2.94"/><rect class="cls-1" x="26.16" y="86.06" width="0.02" height="12.7"/><rect class="cls-1" x="25.98" y="86.06" width="0.18" height="12.7"/><rect class="cls-1" x="25.8" y="86.06" width="0.18" height="12.7"/><rect class="cls-1" x="25.61" y="86.06" width="0.18" height="12.7"/><rect class="cls-1" x="25.43" y="86.06" width="0.18" height="12.7"/><rect class="cls-1" x="25.25" y="86.06" width="0.18" height="12.7"/><rect class="cls-1" x="25.06" y="86.06" width="0.18" height="12.7"/><rect class="cls-1" x="24.88" y="86.06" width="0.18" height="12.7"/><rect class="cls-1" x="24.69" y="86.06" width="0.18" height="12.7"/><rect class="cls-1" x="24.51" y="86.06" width="0.18" height="12.7"/><rect class="cls-1" x="24.33" y="86.06" width="0.18" height="12.7"/><rect class="cls-1" x="24.14" y="86.06" width="0.18" height="12.7"/><rect class="cls-1" x="23.96" y="86.06" width="0.18" height="12.7"/><rect class="cls-1" x="23.78" y="86.06" width="0.18" height="12.7"/><rect class="cls-1" x="23.59" y="86.06" width="0.18" height="12.7"/><rect class="cls-1" x="23.41" y="86.06" width="0.18" height="12.7"/><rect class="cls-1" x="23.22" y="86.06" width="0.18" height="12.7"/><rect class="cls-1" x="23.04" y="86.06" width="0.18" height="12.7"/><rect class="cls-1" x="22.86" y="86.06" width="0.18" height="12.7"/><rect class="cls-1" x="22.67" y="86.06" width="0.18" height="12.7"/><rect class="cls-1" x="22.49" y="86.06" width="0.18" height="12.7"/><rect class="cls-1" x="22.3" y="86.06" width="0.18" height="12.7"/><rect class="cls-1" x="22.12" y="86.06" width="0.18" height="12.7"/><rect class="cls-1" x="21.94" y="86.06" width="0.18" height="12.7"/><rect class="cls-1" x="21.75" y="86.06" width="0.18" height="12.7"/><rect class="cls-1" x="21.57" y="86.06" width="0.18" height="12.7"/><rect class="cls-1" x="21.39" y="86.06" width="0.18" height="12.7"/><rect class="cls-1" x="21.2" y="86.06" width="0.18" height="12.7"/><rect class="cls-1" x="21.02" y="86.06" width="0.18" height="12.7"/><rect class="cls-1" x="20.83" y="86.06" width="0.18" height="12.7"/><rect class="cls-1" x="20.65" y="86.06" width="0.18" height="12.7"/><rect class="cls-1" x="20.47" y="86.06" width="0.18" height="12.7"/><rect class="cls-1" x="20.28" y="86.06" width="0.18" height="12.7"/><rect class="cls-1" x="20.1" y="86.06" width="0.18" height="12.7"/><rect class="cls-1" x="19.92" y="86.06" width="0.18" height="12.7"/><rect class="cls-1" x="19.73" y="86.06" width="0.18" height="12.7"/><rect class="cls-1" x="19.55" y="86.06" width="0.18" height="12.7"/><rect class="cls-1" x="19.36" y="86.06" width="0.18" height="12.7"/><rect class="cls-1" x="19.18" y="86.06" width="0.18" height="12.7"/><rect class="cls-1" x="19" y="86.06" width="0.18" height="12.7"/><rect class="cls-1" x="18.81" y="86.06" width="0.18" height="12.7"/><rect class="cls-1" x="18.63" y="86.06" width="0.18" height="12.7"/><rect class="cls-1" x="18.45" y="86.06" width="0.18" height="12.7"/><rect class="cls-1" x="18.26" y="86.06" width="0.18" height="12.7"/><rect class="cls-1" x="18.08" y="86.06" width="0.18" height="12.7"/><rect class="cls-1" x="17.89" y="86.06" width="0.18" height="12.7"/><rect class="cls-1" x="17.71" y="86.06" width="0.18" height="12.7"/><rect class="cls-1" x="17.53" y="86.06" width="0.18" height="12.7"/><rect class="cls-1" x="17.34" y="86.06" width="0.18" height="12.7"/><rect class="cls-1" x="17.16" y="86.06" width="0.18" height="12.7"/><rect class="cls-1" x="16.98" y="86.06" width="0.18" height="12.7"/><rect class="cls-1" x="16.79" y="86.06" width="0.18" height="12.7"/><rect class="cls-1" x="16.61" y="86.06" width="0.18" height="12.7"/><rect class="cls-1" x="16.42" y="86.06" width="0.18" height="12.7"/><rect class="cls-1" x="16.24" y="86.06" width="0.18" height="12.7"/><rect class="cls-1" x="16.06" y="86.06" width="0.18" height="12.7"/><rect class="cls-1" x="15.87" y="86.06" width="0.18" height="12.7"/><rect class="cls-1" x="15.69" y="86.06" width="0.18" height="12.7"/><rect class="cls-1" x="15.51" y="86.06" width="0.18" height="12.7"/><rect class="cls-1" x="15.32" y="86.06" width="0.18" height="12.7"/><rect class="cls-1" x="15.14" y="86.06" width="0.18" height="12.7"/><rect class="cls-1" x="14.95" y="86.06" width="0.18" height="12.7"/><rect class="cls-1" x="14.77" y="86.06" width="0.18" height="12.7"/><rect class="cls-1" x="14.59" y="86.06" width="0.18" height="12.7"/><rect class="cls-1" x="14.4" y="86.06" width="0.18" height="12.7"/><rect class="cls-1" x="14.22" y="86.06" width="0.18" height="12.7"/><rect class="cls-1" x="14.03" y="86.06" width="0.18" height="12.7"/><rect class="cls-1" x="13.85" y="86.06" width="0.18" height="12.7"/><rect class="cls-1" x="13.67" y="86.06" width="0.18" height="12.7"/><rect class="cls-1" x="13.48" y="86.06" width="0.18" height="12.7"/><path class="cls-1" d="M63.48,136.68v0Z" transform="translate(-50 -50.62)"/></g><circle class="cls-1" cx="34.37" cy="92.41" r="4.08"/><rect class="cls-1" x="18.97" y="53.27" width="10.44" height="4.88"/><circle class="cls-1" cx="19.51" cy="55.71" r="4.08"/><rect class="cls-1" x="10.26" y="75.32" width="18.5" height="4.88"/><path id="SVGID-11" data-name="SVGID" class="cls-1" d="M56.35,134.74a6.35,6.35,0,1,1,6.35-6.35A6.36,6.36,0,0,1,56.35,134.74Zm0-7.82a1.47,1.47,0,1,0,1.47,1.47A1.47,1.47,0,0,0,56.35,126.92Z" transform="translate(-50 -50.62)"/><g class="cls-6"><rect class="cls-1" x="4.88" y="79.13" width="2.94" height="0.1"/><rect class="cls-1" x="4.88" y="78.95" width="2.94" height="0.18"/><rect class="cls-1" x="4.88" y="78.77" width="2.94" height="0.18"/><rect class="cls-1" x="4.88" y="78.58" width="2.94" height="0.18"/><rect class="cls-1" x="4.88" y="78.4" width="2.94" height="0.18"/><rect class="cls-1" x="4.88" y="78.22" width="2.94" height="0.18"/><rect class="cls-1" x="4.88" y="78.03" width="2.94" height="0.18"/><rect class="cls-1" x="4.88" y="77.85" width="2.94" height="0.18"/><rect class="cls-1" x="4.88" y="77.66" width="2.94" height="0.18"/><rect class="cls-1" x="4.88" y="77.48" width="2.94" height="0.18"/><rect class="cls-1" x="4.88" y="77.3" width="2.94" height="0.18"/><rect class="cls-1" x="4.88" y="77.11" width="2.94" height="0.18"/><rect class="cls-1" x="4.88" y="76.93" width="2.94" height="0.18"/><rect class="cls-1" x="4.88" y="76.75" width="2.94" height="0.18"/><rect class="cls-1" x="4.88" y="76.56" width="2.94" height="0.18"/><rect class="cls-1" x="4.88" y="76.38" width="2.94" height="0.18"/><rect class="cls-1" x="4.88" y="76.3" width="2.94" height="0.08"/><rect class="cls-1" y="84.1" width="12.7" height="0.02"/><rect class="cls-1" y="83.91" width="12.7" height="0.18"/><rect class="cls-1" y="83.73" width="12.7" height="0.18"/><rect class="cls-1" y="83.55" width="12.7" height="0.18"/><rect class="cls-1" y="83.36" width="12.7" height="0.18"/><rect class="cls-1" y="83.18" width="12.7" height="0.18"/><rect class="cls-1" y="82.99" width="12.7" height="0.18"/><rect class="cls-1" y="82.81" width="12.7" height="0.18"/><rect class="cls-1" y="82.63" width="12.7" height="0.18"/><rect class="cls-1" y="82.44" width="12.7" height="0.18"/><rect class="cls-1" y="82.26" width="12.7" height="0.18"/><rect class="cls-1" y="82.08" width="12.7" height="0.18"/><rect class="cls-1" y="81.89" width="12.7" height="0.18"/><rect class="cls-1" y="81.71" width="12.7" height="0.18"/><rect class="cls-1" y="81.52" width="12.7" height="0.18"/><rect class="cls-1" y="81.34" width="12.7" height="0.18"/><rect class="cls-1" y="81.16" width="12.7" height="0.18"/><rect class="cls-1" y="80.97" width="12.7" height="0.18"/><rect class="cls-1" y="80.79" width="12.7" height="0.18"/><rect class="cls-1" y="80.6" width="12.7" height="0.18"/><rect class="cls-1" y="80.42" width="12.7" height="0.18"/><rect class="cls-1" y="80.24" width="12.7" height="0.18"/><rect class="cls-1" y="80.05" width="12.7" height="0.18"/><rect class="cls-1" y="79.87" width="12.7" height="0.18"/><rect class="cls-1" y="79.69" width="12.7" height="0.18"/><rect class="cls-1" y="79.5" width="12.7" height="0.18"/><rect class="cls-1" y="79.32" width="12.7" height="0.18"/><rect class="cls-1" y="79.13" width="12.7" height="0.18"/><rect class="cls-1" y="78.95" width="12.7" height="0.18"/><rect class="cls-1" y="78.77" width="12.7" height="0.18"/><rect class="cls-1" y="78.58" width="12.7" height="0.18"/><rect class="cls-1" y="78.4" width="12.7" height="0.18"/><rect class="cls-1" y="78.22" width="12.7" height="0.18"/><rect class="cls-1" y="78.03" width="12.7" height="0.18"/><rect class="cls-1" y="77.85" width="12.7" height="0.18"/><rect class="cls-1" y="77.66" width="12.7" height="0.18"/><rect class="cls-1" y="77.48" width="12.7" height="0.18"/><rect class="cls-1" y="77.3" width="12.7" height="0.18"/><rect class="cls-1" y="77.11" width="12.7" height="0.18"/><rect class="cls-1" y="76.93" width="12.7" height="0.18"/><rect class="cls-1" y="76.75" width="12.7" height="0.18"/><rect class="cls-1" y="76.56" width="12.7" height="0.18"/><rect class="cls-1" y="76.38" width="12.7" height="0.18"/><rect class="cls-1" y="76.19" width="12.7" height="0.18"/><rect class="cls-1" y="76.01" width="12.7" height="0.18"/><rect class="cls-1" y="75.83" width="12.7" height="0.18"/><rect class="cls-1" y="75.64" width="12.7" height="0.18"/><rect class="cls-1" y="75.46" width="12.7" height="0.18"/><rect class="cls-1" y="75.28" width="12.7" height="0.18"/><rect class="cls-1" y="75.09" width="12.7" height="0.18"/><rect class="cls-1" y="74.91" width="12.7" height="0.18"/><rect class="cls-1" y="74.72" width="12.7" height="0.18"/><rect class="cls-1" y="74.54" width="12.7" height="0.18"/><rect class="cls-1" y="74.36" width="12.7" height="0.18"/><rect class="cls-1" y="74.17" width="12.7" height="0.18"/><rect class="cls-1" y="73.99" width="12.7" height="0.18"/><rect class="cls-1" y="73.81" width="12.7" height="0.18"/><rect class="cls-1" y="73.62" width="12.7" height="0.18"/><rect class="cls-1" y="73.44" width="12.7" height="0.18"/><rect class="cls-1" y="73.25" width="12.7" height="0.18"/><rect class="cls-1" y="73.07" width="12.7" height="0.18"/><rect class="cls-1" y="72.89" width="12.7" height="0.18"/><rect class="cls-1" y="72.7" width="12.7" height="0.18"/><rect class="cls-1" y="72.52" width="12.7" height="0.18"/><rect class="cls-1" y="72.33" width="12.7" height="0.18"/><rect class="cls-1" y="72.15" width="12.7" height="0.18"/><rect class="cls-1" y="71.97" width="12.7" height="0.18"/><rect class="cls-1" y="71.78" width="12.7" height="0.18"/><rect class="cls-1" y="71.6" width="12.7" height="0.18"/><rect class="cls-1" y="71.42" width="12.7" height="0.18"/><path class="cls-1" d="M62.7,122h0Z" transform="translate(-50 -50.62)"/></g><circle class="cls-1" cx="18.97" cy="77.76" r="4.08"/><circle class="cls-1" cx="18.23" cy="33.08" r="4.08"/><polygon class="cls-1" points="8.81 43.71 3.93 43.71 3.93 30.64 20.44 30.64 20.44 35.52 8.81 35.52 8.81 43.71"/><path id="SVGID-12" data-name="SVGID" class="cls-1" d="M56.35,104.59a6.35,6.35,0,1,1,6.35-6.35A6.36,6.36,0,0,1,56.35,104.59Zm0-7.82a1.47,1.47,0,1,0,1.47,1.47A1.47,1.47,0,0,0,56.35,96.77Z" transform="translate(-50 -50.62)"/><g class="cls-7"><rect class="cls-1" x="4.88" y="46.15" width="2.94" height="0.1"/><rect class="cls-1" x="4.88" y="46.25" width="2.94" height="0.18"/><rect class="cls-1" x="4.88" y="46.43" width="2.94" height="0.18"/><rect class="cls-1" x="4.88" y="46.62" width="2.94" height="0.18"/><rect class="cls-1" x="4.88" y="46.8" width="2.94" height="0.18"/><rect class="cls-1" x="4.88" y="46.98" width="2.94" height="0.18"/><rect class="cls-1" x="4.88" y="47.17" width="2.94" height="0.18"/><rect class="cls-1" x="4.88" y="47.35" width="2.94" height="0.18"/><rect class="cls-1" x="4.88" y="47.54" width="2.94" height="0.18"/><rect class="cls-1" x="4.88" y="47.72" width="2.94" height="0.18"/><rect class="cls-1" x="4.88" y="47.9" width="2.94" height="0.18"/><rect class="cls-1" x="4.88" y="48.09" width="2.94" height="0.18"/><rect class="cls-1" x="4.88" y="48.27" width="2.94" height="0.18"/><rect class="cls-1" x="4.88" y="48.45" width="2.94" height="0.18"/><rect class="cls-1" x="4.88" y="48.64" width="2.94" height="0.18"/><rect class="cls-1" x="4.88" y="48.82" width="2.94" height="0.18"/><rect class="cls-1" x="4.88" y="49.01" width="2.94" height="0.08"/><rect class="cls-1" y="41.27" width="12.7" height="0.02"/><rect class="cls-1" y="41.29" width="12.7" height="0.18"/><rect class="cls-1" y="41.47" width="12.7" height="0.18"/><rect class="cls-1" y="41.65" width="12.7" height="0.18"/><rect class="cls-1" y="41.84" width="12.7" height="0.18"/><rect class="cls-1" y="42.02" width="12.7" height="0.18"/><rect class="cls-1" y="42.21" width="12.7" height="0.18"/><rect class="cls-1" y="42.39" width="12.7" height="0.18"/><rect class="cls-1" y="42.57" width="12.7" height="0.18"/><rect class="cls-1" y="42.76" width="12.7" height="0.18"/><rect class="cls-1" y="42.94" width="12.7" height="0.18"/><rect class="cls-1" y="43.12" width="12.7" height="0.18"/><rect class="cls-1" y="43.31" width="12.7" height="0.18"/><rect class="cls-1" y="43.49" width="12.7" height="0.18"/><rect class="cls-1" y="43.68" width="12.7" height="0.18"/><rect class="cls-1" y="43.86" width="12.7" height="0.18"/><rect class="cls-1" y="44.04" width="12.7" height="0.18"/><rect class="cls-1" y="44.23" width="12.7" height="0.18"/><rect class="cls-1" y="44.41" width="12.7" height="0.18"/><rect class="cls-1" y="44.59" width="12.7" height="0.18"/><rect class="cls-1" y="44.78" width="12.7" height="0.18"/><rect class="cls-1" y="44.96" width="12.7" height="0.18"/><rect class="cls-1" y="45.15" width="12.7" height="0.18"/><rect class="cls-1" y="45.33" width="12.7" height="0.18"/><rect class="cls-1" y="45.51" width="12.7" height="0.18"/><rect class="cls-1" y="45.7" width="12.7" height="0.18"/><rect class="cls-1" y="45.88" width="12.7" height="0.18"/><rect class="cls-1" y="46.07" width="12.7" height="0.18"/><rect class="cls-1" y="46.25" width="12.7" height="0.18"/><rect class="cls-1" y="46.43" width="12.7" height="0.18"/><rect class="cls-1" y="46.62" width="12.7" height="0.18"/><rect class="cls-1" y="46.8" width="12.7" height="0.18"/><rect class="cls-1" y="46.98" width="12.7" height="0.18"/><rect class="cls-1" y="47.17" width="12.7" height="0.18"/><rect class="cls-1" y="47.35" width="12.7" height="0.18"/><rect class="cls-1" y="47.54" width="12.7" height="0.18"/><rect class="cls-1" y="47.72" width="12.7" height="0.18"/><rect class="cls-1" y="47.9" width="12.7" height="0.18"/><rect class="cls-1" y="48.09" width="12.7" height="0.18"/><rect class="cls-1" y="48.27" width="12.7" height="0.18"/><rect class="cls-1" y="48.45" width="12.7" height="0.18"/><rect class="cls-1" y="48.64" width="12.7" height="0.18"/><rect class="cls-1" y="48.82" width="12.7" height="0.18"/><rect class="cls-1" y="49.01" width="12.7" height="0.18"/><rect class="cls-1" y="49.19" width="12.7" height="0.18"/><rect class="cls-1" y="49.37" width="12.7" height="0.18"/><rect class="cls-1" y="49.56" width="12.7" height="0.18"/><rect class="cls-1" y="49.74" width="12.7" height="0.18"/><rect class="cls-1" y="49.92" width="12.7" height="0.18"/><rect class="cls-1" y="50.11" width="12.7" height="0.18"/><rect class="cls-1" y="50.29" width="12.7" height="0.18"/><rect class="cls-1" y="50.48" width="12.7" height="0.18"/><rect class="cls-1" y="50.66" width="12.7" height="0.18"/><rect class="cls-1" y="50.84" width="12.7" height="0.18"/><rect class="cls-1" y="51.03" width="12.7" height="0.18"/><rect class="cls-1" y="51.21" width="12.7" height="0.18"/><rect class="cls-1" y="51.39" width="12.7" height="0.18"/><rect class="cls-1" y="51.58" width="12.7" height="0.18"/><rect class="cls-1" y="51.76" width="12.7" height="0.18"/><rect class="cls-1" y="51.95" width="12.7" height="0.18"/><rect class="cls-1" y="52.13" width="12.7" height="0.18"/><rect class="cls-1" y="52.31" width="12.7" height="0.18"/><rect class="cls-1" y="52.5" width="12.7" height="0.18"/><rect class="cls-1" y="52.68" width="12.7" height="0.18"/><rect class="cls-1" y="52.87" width="12.7" height="0.18"/><rect class="cls-1" y="53.05" width="12.7" height="0.18"/><rect class="cls-1" y="53.23" width="12.7" height="0.18"/><rect class="cls-1" y="53.42" width="12.7" height="0.18"/><rect class="cls-1" y="53.6" width="12.7" height="0.18"/><rect class="cls-1" y="53.78" width="12.7" height="0.18"/><path class="cls-1" d="M50,104.59h0Z" transform="translate(-50 -50.62)"/></g><rect class="cls-1" x="18.97" y="30.41" width="10.44" height="4.88"/></svg>