<svg id="Layer_1" data-name="Layer 1" xmlns="http://www.w3.org/2000/svg" viewBox="0 0 100 100"><defs><style>.cls-1,.cls-2{fill:#368ac9;}.cls-2{stroke:#676767;stroke-miterlimit:10;stroke-width:7px;}.cls-3{fill:#39a935;}</style></defs><title>e-Procurements</title><path class="cls-1" d="M110.27,91H90.64a4.73,4.73,0,0,1-4.72-4.71V74.54a4.73,4.73,0,0,1,4.72-4.72h19.63A4.72,4.72,0,0,1,115,74.54V86.31A4.72,4.72,0,0,1,110.27,91ZM90.64,74.52l0,11.79h19.65V74.54Z" transform="translate(-50 -50)"/><path class="cls-1" d="M100.05,150v-4.7c.42,0,.83,0,1.25,0l.13,4.7Zm-1.37,0-1.38,0,.26-4.69,1.24,0Zm4.13-.06-.26-4.69,1.24-.08.39,4.68C103.72,149.86,103.27,149.9,102.81,149.92Zm-6.88-.08-1.37-.13.5-4.67,1.25.11Zm9.62-.14L105,145l1.24-.15.64,4.65Zm-12.36-.16c-.46-.06-.91-.13-1.36-.21l.76-4.63q.61.11,1.23.18Zm15.09-.22-.77-4.64,1.23-.22.9,4.61Zm-17.81-.23c-.45-.08-.9-.18-1.35-.28l1-4.58,1.22.25Zm20.51-.3-1-4.59c.41-.09.81-.18,1.21-.29l1.16,4.56Zm-23.2-.29c-.44-.12-.89-.23-1.33-.36l1.27-4.52,1.21.32Zm25.88-.39-1.28-4.52c.4-.11.8-.23,1.19-.36l1.41,4.49Zm-28.53-.36-1.32-.43,1.53-4.44,1.18.38Zm31.16-.46-1.53-4.45q.58-.19,1.17-.42l1.65,4.4Zm-33.78-.43-1.28-.5L83,142l1.17.46Zm36.36-.54L117.09,142l1.15-.49,1.89,4.3ZM80,145.82l-1.26-.58,2-4.24q.57.27,1.14.51Zm41.43-.61-2-4.25,1.12-.54,2.12,4.19Zm-43.93-.57c-.41-.21-.82-.42-1.22-.64l2.24-4.13c.36.2.73.39,1.1.58Zm46.38-.67-2.24-4.13,1.08-.61,2.36,4.06ZM75,143.33l-1.18-.71,2.46-4,1.08.64Zm51.19-.74-2.47-4,1.06-.67,2.57,3.93Zm-53.53-.71c-.39-.25-.77-.51-1.15-.77l2.68-3.86c.34.24.69.47,1,.7Zm55.83-.8-2.68-3.86,1-.72,2.79,3.78C129.26,140.55,128.89,140.82,128.51,141.08Zm-58.1-.77-1.1-.83,2.89-3.71,1,.75Zm60.31-.86-2.88-3.71c.33-.25.65-.52,1-.78l3,3.63Zm-62.49-.84-1-.88,3.09-3.55,1,.81Zm64.62-.91-3.09-3.54.93-.84,3.18,3.46Zm-66.69-.89c-.34-.31-.67-.63-1-.95l3.27-3.37c.3.29.6.58.91.86Zm68.71-1-3.27-3.37.88-.88,3.37,3.28C135.53,135.19,135.2,135.51,134.87,135.83Zm-70.69-.94c-.32-.33-.63-.66-.94-1l3.45-3.19c.28.31.57.61.86.91Zm72.62-1-3.47-3.17c.29-.31.57-.62.84-.94l3.54,3.09C137.41,133.18,137.1,133.52,136.8,133.85Zm-74.49-1c-.3-.34-.59-.69-.88-1.05l3.62-3c.26.32.53.64.81,1Zm76.3-1.09-3.64-3c.27-.33.53-.65.79-1l3.7,2.89C139.18,131.06,138.9,131.42,138.61,131.77Zm-78.05-1c-.28-.36-.56-.72-.83-1.09l3.78-2.79.76,1Zm79.74-1.14-3.79-2.78c.25-.34.49-.67.73-1l3.86,2.68C140.84,128.86,140.57,129.23,140.3,129.6Zm-81.37-1.07-.77-1.14,3.93-2.58c.23.35.46.69.7,1Zm82.94-1.19-3.93-2.58c.23-.34.45-.69.67-1.05l4,2.46C142.37,126.57,142.12,127,141.87,127.34Zm-84.45-1.11c-.24-.39-.47-.79-.7-1.18l4.06-2.36.64,1.07ZM143.31,125l-4.06-2.35c.21-.36.41-.73.61-1.09l4.13,2.24C143.77,124.19,143.54,124.59,143.31,125ZM56,123.85l-.64-1.22,4.19-2.13c.19.37.38.74.58,1.1Zm88.59-1.29-4.19-2.12c.19-.37.37-.75.55-1.12l4.25,2C145,121.74,144.84,122.15,144.63,122.56ZM54.8,121.4c-.2-.42-.39-.83-.57-1.25l4.29-1.9c.17.38.34.76.52,1.13Zm91-1.33-4.3-1.89c.17-.38.33-.77.48-1.15l4.36,1.76Zm-92.12-1.19c-.17-.42-.34-.85-.5-1.28L57.58,116c.15.39.3.77.46,1.16Zm93.16-1.37-4.4-1.65.42-1.18,4.44,1.52C147.17,116.64,147,117.08,146.85,117.51Zm-94.13-1.2c-.15-.44-.29-.88-.43-1.32l4.48-1.4c.12.4.25.79.39,1.18Zm95-1.42-4.48-1.4c.12-.39.24-.79.35-1.19l4.53,1.27C148,114,147.88,114.45,147.74,114.89Zm-95.85-1.22c-.12-.44-.24-.88-.35-1.33l4.55-1.15c.1.4.21.8.32,1.2Zm96.6-1.44-4.56-1.14c.11-.4.2-.81.29-1.22l4.59,1C148.71,111.34,148.6,111.79,148.49,112.23ZM51.21,111c-.1-.44-.19-.89-.28-1.35l4.61-.9c.08.41.17.82.26,1.22Zm97.88-1.46-4.61-.88c.07-.41.15-.82.22-1.24l4.63.77Q149.22,108.87,149.09,109.54Zm-98.4-1.24c-.08-.45-.15-.91-.21-1.36l4.65-.65c.06.41.12.82.19,1.23Zm98.85-1.47-4.66-.64c.06-.41.11-.82.15-1.24l4.67.51C149.65,105.92,149.6,106.37,149.54,106.83Zm-99.23-1.26c-.05-.45-.1-.91-.14-1.37l4.69-.39c0,.42.07.83.12,1.24Zm99.53-1.48-4.69-.38c0-.41.06-.83.09-1.25l4.69.26Zm-99.76-1.26q0-.69-.06-1.38l4.7-.13c0,.41,0,.83.05,1.25Zm99.9-1.49-4.7-.12c0-.41,0-.81,0-1.22v-.13l1.72.1h3v0C150,100.45,150,100.89,150,101.34ZM54.7,100.07l-4.7,0c0-.51,0-1,0-1.43l4.69.13c0,.42,0,.83,0,1.25Zm90.58-1.36c0-.41,0-.83-.05-1.24l4.69-.26q0,.69.06,1.38ZM54.76,97.5l-4.69-.25c0-.46.06-.92.1-1.37l4.68.38Zm90.39-1.28L145,95l4.67-.51c.05.45.09.91.13,1.37ZM55,95,50.3,94.5c.05-.45.11-.91.17-1.36l4.65.63C55.07,94.19,55,94.6,55,95Zm89.9-1.28c-.05-.41-.12-.82-.19-1.23l4.64-.77.21,1.36Zm-89.56-1.2-4.64-.77c.08-.45.16-.9.25-1.35l4.61.89C55.45,91.72,55.38,92.13,55.31,92.54Zm89.15-1.26c-.08-.41-.16-.82-.25-1.22l4.58-1c.1.45.2.9.29,1.35ZM55.78,90.09l-4.58-1c.1-.45.2-.9.32-1.34l4.55,1.15C56,89.28,55.87,89.68,55.78,90.09Zm88.14-1.25c-.11-.4-.21-.8-.33-1.2l4.53-1.28c.12.44.24.89.35,1.33ZM56.39,87.67,51.87,86.4c.13-.45.26-.89.4-1.33l4.48,1.41Zm86.85-1.22c-.13-.4-.25-.8-.39-1.19l4.44-1.53c.15.43.29.87.43,1.31Zm-86.1-1.16L52.7,83.76c.15-.44.3-.87.46-1.3l4.4,1.65Zm85.29-1.21c-.15-.38-.3-.77-.46-1.16l4.35-1.77c.18.42.34.85.51,1.28ZM58,82.94l-4.35-1.77c.17-.42.35-.85.53-1.27l4.31,1.89C58.34,82.17,58.17,82.56,58,82.94Zm83.47-1.16c-.17-.38-.34-.76-.52-1.14l4.25-2,.57,1.24ZM59,80.65l-4.24-2c.19-.41.4-.83.61-1.24l4.18,2.13Zm81.4-1.12c-.18-.37-.38-.74-.58-1.11L144,76.19c.22.4.44.8.64,1.21ZM60.16,78.42,56,76.18c.22-.4.44-.8.67-1.2l4.07,2.35C60.56,77.69,60.35,78.06,60.16,78.42Zm79.08-1.08-.64-1.07,4-2.46c.24.39.47.78.7,1.18ZM61.41,76.26l-4-2.47c.24-.39.49-.78.74-1.16l3.93,2.57C61.85,75.55,61.63,75.9,61.41,76.26Zm76.52-1-.7-1,3.86-2.68.77,1.14Zm-75.15-1-3.86-2.68c.26-.38.53-.75.8-1.12l3.79,2.78Zm73.73-1c-.25-.33-.5-.67-.76-1l3.71-2.89c.28.36.56.73.83,1.1Zm-72.25-1-3.7-2.89c.28-.37.57-.72.86-1.08l3.62,3Zm70.71-1c-.26-.32-.53-.64-.8-1l3.54-3.08c.3.34.6.69.89,1Zm-69.12-1-3.54-3.09c.3-.34.61-.69.92-1l3.45,3.18Zm67.48-.91-.86-.91,3.37-3.27c.32.33.64.66.95,1Zm-65.79-.93-3.36-3.27c.32-.33.64-.66,1-1l3.28,3.37Zm64.05-.86-.9-.86,3.18-3.45c.34.31.67.63,1,1Zm-62.26-.88L66.15,63.2c.34-.31.68-.62,1-.92l3.08,3.54Zm60.42-.81L128.8,65l3-3.62c.36.29.71.59,1.06.89ZM71.22,65l-3-3.63,1.07-.86,2.89,3.7Zm56.61-.77c-.33-.25-.66-.51-1-.75l2.79-3.79,1.1.84Zm-54.65-.77L70.4,59.7c.37-.27.74-.54,1.12-.8l2.68,3.86Zm52.64-.71c-.34-.24-.69-.47-1-.7l2.57-3.93c.39.25.77.51,1.15.77Zm-50.59-.71-2.57-3.93,1.16-.74,2.46,4Zm48.5-.66-1.08-.64L125,56.69l1.18.71Zm-46.38-.64L75,56.69,76.2,56l2.24,4.13C78.08,60.34,77.71,60.55,77.35,60.76Zm44.21-.61c-.36-.2-.73-.39-1.11-.58l2.13-4.19c.41.21.82.42,1.22.64Zm-42-.58-2.12-4.19,1.23-.61,2,4.25ZM119.33,59c-.37-.18-.75-.35-1.14-.52l1.89-4.3q.63.27,1.26.57ZM81.79,58.5,79.9,54.2l1.27-.53L82.94,58ZM117,58c-.39-.16-.77-.31-1.17-.45l1.65-4.4,1.29.5ZM84.1,57.57l-1.65-4.4,1.3-.47,1.53,4.44Zm30.6-.44-1.19-.38,1.4-4.49,1.31.43Zm-28.24-.37-1.4-4.49q.66-.21,1.32-.39l1.28,4.52C87.25,56.51,86.86,56.63,86.46,56.76Zm25.85-.37-1.21-.32,1.15-4.56c.45.12.89.23,1.33.36Zm-23.45-.31-1.15-4.56,1.34-.32,1,4.59C89.67,55.88,89.26,56,88.86,56.08Zm21-.3-1.22-.25.89-4.62,1.35.28Zm-18.6-.25-.89-4.61c.45-.09.9-.17,1.36-.24l.76,4.63Zm16.15-.22-1.23-.19.64-4.66,1.36.21Zm-13.68-.19-.64-4.65,1.36-.17L95,55ZM105,55c-.41,0-.83-.09-1.25-.12l.39-4.68c.46,0,.91.08,1.37.13Zm-8.73-.12-.39-4.68,1.38-.09.26,4.69Zm6.24-.09-1.25,0,.13-4.69,1.37,0Zm-3.75,0L98.61,50,100,50v4.7C99.56,54.7,99.15,54.7,98.73,54.72Z" transform="translate(-50 -50)"/><path class="cls-1" d="M131.19,123.25h-5.93v-4.7h5.93l0-11-62.4,0,0,11,6.85,0v4.7H68.81a4.73,4.73,0,0,1-4.72-4.72v-11a4.73,4.73,0,0,1,4.72-4.72h62.38a4.73,4.73,0,0,1,4.72,4.72v11A4.73,4.73,0,0,1,131.19,123.25Z" transform="translate(-50 -50)"/><path class="cls-2" d="M75.64,120.9" transform="translate(-50 -50)"/><rect class="cls-1" x="39.5" y="68.55" width="21.9" height="4.7"/><path class="cls-1" d="M97.64,107.53H78a4.73,4.73,0,0,1-4.71-4.72V91.05A4.73,4.73,0,0,1,78,86.33h24.35v16.48A4.73,4.73,0,0,1,97.64,107.53ZM78,91v11.78l19.65,0h0V91Z" transform="translate(-50 -50)"/><path class="cls-1" d="M122,107.53H102.36a4.72,4.72,0,0,1-4.71-4.72V86.33H122a4.73,4.73,0,0,1,4.72,4.72v11.76A4.73,4.73,0,0,1,122,107.53ZM102.35,91v11.78l19.64,0h0V91.05Z" transform="translate(-50 -50)"/><path class="cls-3" d="M82.57,130.18a9.28,9.28,0,1,1,9.28-9.28A9.29,9.29,0,0,1,82.57,130.18Zm0-13.86a4.58,4.58,0,1,0,4.58,4.58A4.58,4.58,0,0,0,82.57,116.32Z" transform="translate(-50 -50)"/><path class="cls-3" d="M118.33,130.18a9.28,9.28,0,1,1,9.28-9.28A9.3,9.3,0,0,1,118.33,130.18Zm0-13.86a4.58,4.58,0,1,0,4.58,4.58A4.59,4.59,0,0,0,118.33,116.32Z" transform="translate(-50 -50)"/></svg>