<svg id="Layer_1" data-name="Layer 1" xmlns="http://www.w3.org/2000/svg" viewBox="0 0 100 95.86"><defs><style>.cls-1{fill:#1da69a;}</style></defs><title>Employee_Claims</title><path class="cls-1" d="M139.13,73.32a1.26,1.26,0,0,1,1.26,1.26v58.05a1.26,1.26,0,0,1-1.26,1.25H60.87a1.26,1.26,0,0,1-1.26-1.25v-58a1.26,1.26,0,0,1,1.26-1.26h78.26m0-4.93H60.87a6.19,6.19,0,0,0-6.19,6.19v58.05a6.19,6.19,0,0,0,6.19,6.18h78.26a6.19,6.19,0,0,0,6.19-6.18v-58a6.19,6.19,0,0,0-6.19-6.19Z" transform="translate(-50 -52.07)"/><rect class="cls-1" y="90.93" width="100" height="4.93"/><path class="cls-1" d="M119.77,71.79H79.89v-11a8.77,8.77,0,0,1,8.76-8.77H111a8.77,8.77,0,0,1,8.76,8.77Zm-35-4.93h30v-6A3.84,3.84,0,0,0,111,57H88.65a3.85,3.85,0,0,0-3.84,3.84Z" transform="translate(-50 -52.07)"/><path class="cls-1" d="M114.94,97.79a2.45,2.45,0,0,1-1.74-.72L100,83.87,86.8,97.07a2.46,2.46,0,0,1-3.48-3.49L100,76.9l16.68,16.68a2.47,2.47,0,0,1-1.74,4.21Z" transform="translate(-50 -52.07)"/><path class="cls-1" d="M100,127.19a2.46,2.46,0,0,1-2.46-2.46V82.48a2.46,2.46,0,1,1,4.92,0v42.25A2.46,2.46,0,0,1,100,127.19Z" transform="translate(-50 -52.07)"/></svg>