<svg id="Layer_1" data-name="Layer 1" xmlns="http://www.w3.org/2000/svg" viewBox="0 0 100 87.95"><defs><style>.cls-1{fill:#93c01f;}</style></defs><title>Enquiries</title><path class="cls-1" d="M67.71,134.5V121.64H61.47A11.49,11.49,0,0,1,50,110.17V67.5A11.48,11.48,0,0,1,61.47,56h67.58A11.48,11.48,0,0,1,140.52,67.5v42.67a11.49,11.49,0,0,1-11.47,11.47H89.46ZM61.47,60.87a6.64,6.64,0,0,0-6.62,6.63v42.67a6.63,6.63,0,0,0,6.62,6.62H72.56V126l15.58-9.21h40.91a6.63,6.63,0,0,0,6.62-6.62V67.5a6.64,6.64,0,0,0-6.62-6.63Z" transform="translate(-50 -56.03)"/><path class="cls-1" d="M132.29,144l-21.75-12.85H83.9a2.43,2.43,0,0,1,0-4.85h28l15.58,9.21v-9.21h11.09a6.63,6.63,0,0,0,6.62-6.62V77a6.64,6.64,0,0,0-2.86-5.45,2.43,2.43,0,0,1,2.76-4A11.5,11.5,0,0,1,150,77v42.67a11.49,11.49,0,0,1-11.47,11.47h-6.24Z" transform="translate(-50 -56.03)"/><path class="cls-1" d="M71.17,95.75a6.9,6.9,0,1,1,6.9-6.9A6.91,6.91,0,0,1,71.17,95.75Zm0-12a5.09,5.09,0,1,0,5.09,5.08A5.09,5.09,0,0,0,71.17,83.77Z" transform="translate(-50 -56.03)"/><path class="cls-1" d="M71.17,96.79a7.94,7.94,0,1,1,7.93-7.94A7.95,7.95,0,0,1,71.17,96.79Zm0-12a4,4,0,1,0,4,4A4.06,4.06,0,0,0,71.17,84.8Z" transform="translate(-50 -56.03)"/><path class="cls-1" d="M95.26,95.75a6.9,6.9,0,1,1,6.9-6.9A6.91,6.91,0,0,1,95.26,95.75Zm0-12a5.09,5.09,0,1,0,5.09,5.08A5.1,5.1,0,0,0,95.26,83.77Z" transform="translate(-50 -56.03)"/><path class="cls-1" d="M95.26,96.79a7.94,7.94,0,1,1,7.94-7.94A7.95,7.95,0,0,1,95.26,96.79Zm0-12a4,4,0,1,0,4,4A4.06,4.06,0,0,0,95.26,84.8Z" transform="translate(-50 -56.03)"/><path class="cls-1" d="M119.44,95.75a6.9,6.9,0,1,1,6.89-6.9A6.9,6.9,0,0,1,119.44,95.75Zm0-12a5.09,5.09,0,1,0,5.08,5.08A5.09,5.09,0,0,0,119.44,83.77Z" transform="translate(-50 -56.03)"/><path class="cls-1" d="M119.44,96.79a7.94,7.94,0,1,1,7.93-7.94A7.95,7.95,0,0,1,119.44,96.79Zm0-12a4.05,4.05,0,1,0,4,4A4.05,4.05,0,0,0,119.44,84.8Z" transform="translate(-50 -56.03)"/></svg>