<svg id="Layer_1" data-name="Layer 1" xmlns="http://www.w3.org/2000/svg" viewBox="0 0 14.24 19.96"><defs><style>.cls-1{fill:#941b80;}.cls-2{fill:#29235c;}.cls-3{fill:#35a8e0;}</style></defs><title>Examinations</title><path class="cls-1" d="M100.24,86.59a1.28,1.28,0,0,0-.94-1.35,14.77,14.77,0,0,0-1.66-.11v2.08h-9v-2h-1A1.38,1.38,0,0,0,86,86.7q0,7.1,0,14.18a1.37,1.37,0,0,0,1.5,1.49H98.62c1.11,0,1.62-.5,1.62-1.6V89.23C100.24,88.35,100.25,87.47,100.24,86.59Zm-.57,5.81v8.37c0,.76-.26,1-1,1H87.56c-.71,0-1-.28-1-1,0-4.64,0-9.27,0-13.91,0-1.09.55-1.28,1.48-1.11v2H98.21v-2a7.65,7.65,0,0,1,.83,0c.4,0,.63.38.63.87Z" transform="translate(-86 -82.41)"/><path class="cls-2" d="M94.79,84c-.24-1-.75-1.56-1.55-1.61s-1.39.38-1.81,1.63H89.16v2.62h7.91V84Zm1.73,2.07H89.74V84.61h2.33c0-.21,0-.38,0-.55A1,1,0,0,1,93.13,83a1,1,0,0,1,1.05,1.1v.51h2.34Z" transform="translate(-86 -82.41)"/><rect class="cls-3" x="2.61" y="14.66" width="9" height="0.53"/><rect class="cls-3" x="2.63" y="7.98" width="9" height="0.53"/><rect class="cls-3" x="2.61" y="11.32" width="9" height="0.53"/></svg>