<svg id="Layer_1" data-name="Layer 1" xmlns="http://www.w3.org/2000/svg" viewBox="0 0 19.77 15.41"><defs><style>.cls-1{fill:#941b80;}.cls-2{fill:#565656;}.cls-3{fill:#35a8e0;}.cls-4{fill:#e61d5a;}.cls-5{fill:#1da69a;}</style></defs><title>ExecutiveDashboards</title><path class="cls-1" d="M79.26,97.91c0-.71,0-1.43,0-2.15,0-.24.12-.34.36-.34,1.27,0,1.06-.11,1.08,1v.44h0c0,.34,0,.68,0,1s-.1.39-.36.38h-.73C79.36,98.28,79.26,98.15,79.26,97.91Z" transform="translate(-68.08 -88.08)"/><path class="cls-1" d="M81.42,97.31V96.1h0c0-.57,0-1.14,0-1.72,0-.26.11-.38.37-.37,1.23,0,1-.11,1,1s0,1.9,0,2.85c0,.31-.11.44-.43.44C81.27,98.26,81.44,98.37,81.42,97.31Z" transform="translate(-68.08 -88.08)"/><path class="cls-1" d="M83.54,93c0-.33.13-.45.46-.44,1.1,0,1-.12,1,1v4.2c0,.53,0,.55-.57.55-1,0-.88.09-.88-.88,0-.66,0-1.32,0-2C83.55,94.61,83.56,93.81,83.54,93Z" transform="translate(-68.08 -88.08)"/><path class="cls-1" d="M79.26,97.91c0-.71,0-1.43,0-2.15,0-.24.12-.34.36-.34,1.27,0,1.06-.11,1.08,1v.44h0c0,.34,0,.68,0,1s-.1.39-.36.38h-.73C79.36,98.28,79.26,98.15,79.26,97.91Z" transform="translate(-68.08 -88.08)"/><path class="cls-1" d="M81.42,97.31V96.1h0c0-.57,0-1.14,0-1.72,0-.26.11-.38.37-.37,1.23,0,1-.11,1,1s0,1.9,0,2.85c0,.31-.11.44-.43.44C81.27,98.26,81.44,98.37,81.42,97.31Z" transform="translate(-68.08 -88.08)"/><path class="cls-1" d="M83.54,93c0-.33.13-.45.46-.44,1.1,0,1-.12,1,1v4.2c0,.53,0,.55-.57.55-1,0-.88.09-.88-.88,0-.66,0-1.32,0-2C83.55,94.61,83.56,93.81,83.54,93Z" transform="translate(-68.08 -88.08)"/><path class="cls-1" d="M79.26,97.91c0-.71,0-1.43,0-2.15,0-.24.12-.34.36-.34,1.27,0,1.06-.11,1.08,1v.44h0c0,.34,0,.68,0,1s-.1.39-.36.38h-.73C79.36,98.28,79.26,98.15,79.26,97.91Z" transform="translate(-68.08 -88.08)"/><path class="cls-1" d="M81.42,97.31V96.1h0c0-.57,0-1.14,0-1.72,0-.26.11-.38.37-.37,1.23,0,1-.11,1,1s0,1.9,0,2.85c0,.31-.11.44-.43.44C81.27,98.26,81.44,98.37,81.42,97.31Z" transform="translate(-68.08 -88.08)"/><path class="cls-1" d="M83.54,93c0-.33.13-.45.46-.44,1.1,0,1-.12,1,1v4.2c0,.53,0,.55-.57.55-1,0-.88.09-.88-.88,0-.66,0-1.32,0-2C83.55,94.61,83.56,93.81,83.54,93Z" transform="translate(-68.08 -88.08)"/><path class="cls-1" d="M79.26,97.91c0-.71,0-1.43,0-2.15,0-.24.12-.34.36-.34,1.27,0,1.06-.11,1.08,1v.44h0c0,.34,0,.68,0,1s-.1.39-.36.38h-.73C79.36,98.28,79.26,98.15,79.26,97.91Z" transform="translate(-68.08 -88.08)"/><path class="cls-1" d="M81.42,97.31V96.1h0c0-.57,0-1.14,0-1.72,0-.26.11-.38.37-.37,1.23,0,1-.11,1,1s0,1.9,0,2.85c0,.31-.11.44-.43.44C81.27,98.26,81.44,98.37,81.42,97.31Z" transform="translate(-68.08 -88.08)"/><path class="cls-1" d="M83.54,93c0-.33.13-.45.46-.44,1.1,0,1-.12,1,1v4.2c0,.53,0,.55-.57.55-1,0-.88.09-.88-.88,0-.66,0-1.32,0-2C83.55,94.61,83.56,93.81,83.54,93Z" transform="translate(-68.08 -88.08)"/><path class="cls-2" d="M70.15,95.64a3.31,3.31,0,0,1,6.53-1.08c.1.54,0,.62-.52.62H73.85c-.31,0-.44.12-.43.43s0,.83,0,1.25h0V98c0,.41-.05.45-.48.4A3.28,3.28,0,0,1,70.15,95.64Z" transform="translate(-68.08 -88.08)"/><path class="cls-2" d="M76.94,95.73c.26,0,.37.09.35.37A3.32,3.32,0,0,1,74.47,99c-.42,0-.46,0-.47-.42v-1.2h0c0-.43,0-.86,0-1.28,0-.27.12-.38.38-.38Z" transform="translate(-68.08 -88.08)"/><path class="cls-2" d="M85.86,100.73a.26.26,0,0,1-.25.3h-15c-.2,0-.26-.15-.25-.33s.07-.29.25-.29H85.39C85.62,100.4,85.87,100.38,85.86,100.73Z" transform="translate(-68.08 -88.08)"/><path class="cls-2" d="M87.85,90.05a.73.73,0,0,0-.76-.81,5.62,5.62,0,0,0-.58,0c-3.71,0-7.42,0-11.13,0-.57,0-1-.11-1.14-.7a.63.63,0,0,0-.7-.46c-.89,0-1.78,0-2.67,0a.73.73,0,0,0-.83.54.82.82,0,0,1-.93.62c-.8,0-1,.23-1,1v12.19c0,.83.21,1,1,1h17.8c.64,0,.93-.24.93-.81Q87.87,96.37,87.85,90.05ZM87,101.35c0,.8-.25,1-1.06,1H70c-.83,0-1.06-.23-1.06-1.06V91.55c0-.8.24-1,1-1h16c.78,0,1,.25,1,1Z" transform="translate(-68.08 -88.08)"/><path d="M70.15,95.64a3.31,3.31,0,0,1,6.53-1.08c.1.54,0,.62-.52.62H73.85c-.31,0-.44.12-.43.43s0,.83,0,1.25h0V98c0,.41-.05.45-.48.4A3.28,3.28,0,0,1,70.15,95.64Z" transform="translate(-68.08 -88.08)"/><path d="M76.94,95.73c.26,0,.37.09.35.37A3.32,3.32,0,0,1,74.47,99c-.42,0-.46,0-.47-.42v-1.2h0c0-.43,0-.86,0-1.28,0-.27.12-.38.38-.38Z" transform="translate(-68.08 -88.08)"/><path d="M85.86,100.73a.26.26,0,0,1-.25.3h-15c-.2,0-.26-.15-.25-.33s.07-.29.25-.29H85.39C85.62,100.4,85.87,100.38,85.86,100.73Z" transform="translate(-68.08 -88.08)"/><path d="M87.85,90.05a.73.73,0,0,0-.76-.81,5.62,5.62,0,0,0-.58,0c-3.71,0-7.42,0-11.13,0-.57,0-1-.11-1.14-.7a.63.63,0,0,0-.7-.46c-.89,0-1.78,0-2.67,0a.73.73,0,0,0-.83.54.82.82,0,0,1-.93.62c-.8,0-1,.23-1,1v12.19c0,.83.21,1,1,1h17.8c.64,0,.93-.24.93-.81Q87.87,96.37,87.85,90.05ZM87,101.35c0,.8-.25,1-1.06,1H70c-.83,0-1.06-.23-1.06-1.06V91.55c0-.8.24-1,1-1h16c.78,0,1,.25,1,1Z" transform="translate(-68.08 -88.08)"/><path class="cls-2" d="M70.15,95.64a3.31,3.31,0,0,1,6.53-1.08c.1.54,0,.62-.52.62H73.85c-.31,0-.44.12-.43.43s0,.83,0,1.25h0V98c0,.41-.05.45-.48.4A3.28,3.28,0,0,1,70.15,95.64Z" transform="translate(-68.08 -88.08)"/><path class="cls-2" d="M76.94,95.73c.26,0,.37.09.35.37A3.32,3.32,0,0,1,74.47,99c-.42,0-.46,0-.47-.42v-1.2h0c0-.43,0-.86,0-1.28,0-.27.12-.38.38-.38Z" transform="translate(-68.08 -88.08)"/><path class="cls-2" d="M85.86,100.73a.26.26,0,0,1-.25.3h-15c-.2,0-.26-.15-.25-.33s.07-.29.25-.29H85.39C85.62,100.4,85.87,100.38,85.86,100.73Z" transform="translate(-68.08 -88.08)"/><path class="cls-3" d="M87.85,90.05a.73.73,0,0,0-.76-.81,5.62,5.62,0,0,0-.58,0c-3.71,0-7.42,0-11.13,0-.57,0-1-.11-1.14-.7a.63.63,0,0,0-.7-.46c-.89,0-1.78,0-2.67,0a.73.73,0,0,0-.83.54.82.82,0,0,1-.93.62c-.8,0-1,.23-1,1v12.19c0,.83.21,1,1,1h17.8c.64,0,.93-.24.93-.81Q87.87,96.37,87.85,90.05ZM87,101.35c0,.8-.25,1-1.06,1H70c-.83,0-1.06-.23-1.06-1.06V91.55c0-.8.24-1,1-1h16c.78,0,1,.25,1,1Z" transform="translate(-68.08 -88.08)"/><path d="M70.15,95.64a3.31,3.31,0,0,1,6.53-1.08c.1.54,0,.62-.52.62H73.85c-.31,0-.44.12-.43.43s0,.83,0,1.25h0V98c0,.41-.05.45-.48.4A3.28,3.28,0,0,1,70.15,95.64Z" transform="translate(-68.08 -88.08)"/><path d="M76.94,95.73c.26,0,.37.09.35.37A3.32,3.32,0,0,1,74.47,99c-.42,0-.46,0-.47-.42v-1.2h0c0-.43,0-.86,0-1.28,0-.27.12-.38.38-.38Z" transform="translate(-68.08 -88.08)"/><path d="M85.86,100.73a.26.26,0,0,1-.25.3h-15c-.2,0-.26-.15-.25-.33s.07-.29.25-.29H85.39C85.62,100.4,85.87,100.38,85.86,100.73Z" transform="translate(-68.08 -88.08)"/><path class="cls-4" d="M76.16,95.18H73.85c-.31,0-.44.12-.43.43s0,.83,0,1.25h0V98c0,.41-.05.45-.48.4a3.28,3.28,0,0,1-2.8-2.79,3.31,3.31,0,0,1,6.53-1.08C76.78,95.1,76.72,95.18,76.16,95.18Z" transform="translate(-68.08 -88.08)"/><path class="cls-5" d="M85.86,100.73a.26.26,0,0,1-.25.3h-15c-.2,0-.26-.15-.25-.33s.07-.29.25-.29H85.39C85.62,100.4,85.87,100.38,85.86,100.73Z" transform="translate(-68.08 -88.08)"/><path class="cls-3" d="M77.29,96.1A3.32,3.32,0,0,1,74.47,99c-.42,0-.46,0-.47-.42v-1.2h0c0-.43,0-.86,0-1.28,0-.27.12-.38.38-.38h2.56C77.2,95.73,77.31,95.82,77.29,96.1Z" transform="translate(-68.08 -88.08)"/><path class="cls-1" d="M85,97.72c0,.53,0,.55-.57.55-1,0-.88.09-.88-.88,0-.66,0-1.32,0-2,0-.81,0-1.61,0-2.42,0-.33.13-.45.46-.44,1.1,0,1-.12,1,1Z" transform="translate(-68.08 -88.08)"/><path class="cls-1" d="M82.84,97.84c0,.31-.11.44-.43.44-1.14,0-1,.09-1-1V96.1h0c0-.57,0-1.14,0-1.72,0-.26.11-.38.37-.37,1.23,0,1-.11,1,1S82.83,96.89,82.84,97.84Z" transform="translate(-68.08 -88.08)"/><path class="cls-1" d="M80.71,96.43v.44h0c0,.34,0,.68,0,1s-.1.39-.36.38h-.73c-.26,0-.36-.12-.36-.36,0-.71,0-1.43,0-2.15,0-.24.12-.34.36-.34C80.9,95.42,80.69,95.31,80.71,96.43Z" transform="translate(-68.08 -88.08)"/></svg>