<svg id="Layer_1" data-name="Layer 1" xmlns="http://www.w3.org/2000/svg" xmlns:xlink="http://www.w3.org/1999/xlink" viewBox="0 0 100 93.59"><defs><style>.cls-1{fill:#1d70b7;}.cls-2{clip-path:url(#clip-path);}.cls-3{clip-path:url(#clip-path-2);}.cls-4{clip-path:url(#clip-path-3);}.cls-5{clip-path:url(#clip-path-4);}</style><clipPath id="clip-path" transform="translate(-50 -53.21)"><polygon id="SVGID" class="cls-1" points="99.77 110.98 89.88 105.27 89.88 116.69 99.77 110.98"/></clipPath><clipPath id="clip-path-2" transform="translate(-50 -53.21)"><polygon id="SVGID-2" data-name="SVGID" class="cls-1" points="100.23 110.98 110.12 105.27 110.12 116.69 100.23 110.98"/></clipPath><clipPath id="clip-path-3" transform="translate(-50 -53.21)"><circle id="SVGID-3" data-name="SVGID" class="cls-1" cx="100" cy="124.48" r="5.87"/></clipPath><clipPath id="clip-path-4" transform="translate(-50 -53.21)"><circle id="SVGID-4" data-name="SVGID" class="cls-1" cx="100" cy="140.92" r="5.87"/></clipPath></defs><title>Faculty</title><path class="cls-1" d="M52.94,123.63V113.38a11,11,0,0,1,11-11H85a22.06,22.06,0,0,1,2.43-2.94H64a14,14,0,0,0-14,13.95v6.44A22.75,22.75,0,0,1,52.94,123.63Z" transform="translate(-50 -53.21)"/><path class="cls-1" d="M136,102.37a11,11,0,0,1,11,11v23.14A24,24,0,0,1,150,142V113.38a14,14,0,0,0-14-13.95H112.65a22.69,22.69,0,0,1,2.29,2.94Z" transform="translate(-50 -53.21)"/><path class="cls-1" d="M100,92.38a19.59,19.59,0,1,1,19.58-19.59A19.61,19.61,0,0,1,100,92.38Zm0-34.24a14.65,14.65,0,1,0,14.65,14.65A14.67,14.67,0,0,0,100,58.14Z" transform="translate(-50 -53.21)"/><polygon id="SVGID-5" data-name="SVGID" class="cls-1" points="49.77 57.77 39.88 52.06 39.88 63.48 49.77 57.77"/><g class="cls-2"><polygon class="cls-1" points="41.44 52.06 39.88 52.67 39.88 52.06 41.44 52.06"/><polygon class="cls-1" points="42.35 52.06 39.88 53.02 39.88 52.67 41.44 52.06 42.35 52.06"/><polygon class="cls-1" points="43.26 52.06 39.88 53.38 39.88 53.02 42.35 52.06 43.26 52.06"/><polygon class="cls-1" points="44.17 52.06 39.88 53.73 39.88 53.38 43.26 52.06 44.17 52.06"/><polygon class="cls-1" points="45.08 52.06 39.88 54.08 39.88 53.73 44.17 52.06 45.08 52.06"/><polygon class="cls-1" points="45.99 52.06 39.88 54.44 39.88 54.08 45.08 52.06 45.99 52.06"/><polygon class="cls-1" points="46.9 52.06 39.88 54.79 39.88 54.44 45.99 52.06 46.9 52.06"/><polygon class="cls-1" points="47.81 52.06 39.88 55.14 39.88 54.79 46.9 52.06 47.81 52.06"/><polygon class="cls-1" points="48.72 52.06 39.88 55.49 39.88 55.14 47.81 52.06 48.72 52.06"/><polygon class="cls-1" points="49.06 52.06 49.14 52.25 39.88 55.85 39.88 55.49 48.72 52.06 49.06 52.06"/><polygon class="cls-1" points="49.14 52.25 49.26 52.56 39.88 56.2 39.88 55.85 49.14 52.25"/><polygon class="cls-1" points="49.26 52.56 49.38 52.87 39.88 56.55 39.88 56.2 49.26 52.56"/><polygon class="cls-1" points="49.38 52.87 49.5 53.17 39.88 56.91 39.88 56.55 49.38 52.87"/><polygon class="cls-1" points="49.5 53.17 49.62 53.48 39.88 57.26 39.88 56.91 49.5 53.17"/><polygon class="cls-1" points="49.62 53.48 49.73 53.79 39.88 57.61 39.88 57.26 49.62 53.48"/><polygon class="cls-1" points="49.73 53.79 49.77 53.87 49.77 54.13 39.88 57.97 39.88 57.61 49.73 53.79"/><polygon class="cls-1" points="49.77 54.48 39.88 58.32 39.88 57.97 49.77 54.13 49.77 54.48"/><polygon class="cls-1" points="49.77 54.83 39.88 58.67 39.88 58.32 49.77 54.48 49.77 54.83"/><polygon class="cls-1" points="49.77 55.19 39.88 59.03 39.88 58.67 49.77 54.83 49.77 55.19"/><polygon class="cls-1" points="49.77 55.54 39.88 59.38 39.88 59.03 49.77 55.19 49.77 55.54"/><polygon class="cls-1" points="49.77 55.89 39.88 59.73 39.88 59.38 49.77 55.54 49.77 55.89"/><polygon class="cls-1" points="49.77 56.25 39.88 60.09 39.88 59.73 49.77 55.89 49.77 56.25"/><polygon class="cls-1" points="49.77 56.6 39.88 60.44 39.88 60.09 49.77 56.25 49.77 56.6"/><polygon class="cls-1" points="49.77 56.95 39.88 60.79 39.88 60.44 49.77 56.6 49.77 56.95"/><polygon class="cls-1" points="49.77 57.3 39.88 61.15 39.88 60.79 49.77 56.95 49.77 57.3"/><polygon class="cls-1" points="49.77 57.66 39.88 61.5 39.88 61.15 49.77 57.3 49.77 57.66"/><polygon class="cls-1" points="49.77 58.01 39.88 61.85 39.88 61.5 49.77 57.66 49.77 58.01"/><polygon class="cls-1" points="49.77 58.37 39.88 62.2 39.88 61.85 49.77 58.01 49.77 58.37"/><polygon class="cls-1" points="49.77 58.72 39.88 62.56 39.88 62.2 49.77 58.37 49.77 58.72"/><polygon class="cls-1" points="49.77 59.07 39.88 62.91 39.88 62.56 49.77 58.72 49.77 59.07"/><polygon class="cls-1" points="49.77 59.42 39.88 63.26 39.88 62.91 49.77 59.07 49.77 59.42"/><polygon class="cls-1" points="49.77 59.78 40.24 63.48 39.88 63.48 39.88 63.26 49.77 59.42 49.77 59.78"/><polygon class="cls-1" points="49.77 60.13 41.15 63.48 40.24 63.48 49.77 59.78 49.77 60.13"/><polygon class="cls-1" points="49.77 60.48 42.05 63.48 41.15 63.48 49.77 60.13 49.77 60.48"/><polygon class="cls-1" points="49.77 60.84 42.96 63.48 42.05 63.48 49.77 60.48 49.77 60.84"/><polygon class="cls-1" points="49.77 61.19 43.87 63.48 42.96 63.48 49.77 60.84 49.77 61.19"/><polygon class="cls-1" points="49.77 61.54 44.78 63.48 43.87 63.48 49.77 61.19 49.77 61.54"/><polygon class="cls-1" points="49.77 61.9 45.69 63.48 44.78 63.48 49.77 61.54 49.77 61.9"/><polygon class="cls-1" points="49.77 62.25 46.6 63.48 45.69 63.48 49.77 61.9 49.77 62.25"/><polygon class="cls-1" points="49.77 62.6 47.51 63.48 46.6 63.48 49.77 62.25 49.77 62.6"/><polygon class="cls-1" points="49.77 62.96 48.42 63.48 47.51 63.48 49.77 62.6 49.77 62.96"/><polygon class="cls-1" points="49.77 63.31 49.33 63.48 48.42 63.48 49.77 62.96 49.77 63.31"/><polygon class="cls-1" points="49.33 63.48 49.77 63.31 49.77 63.48 49.33 63.48"/></g><polygon id="SVGID-6" data-name="SVGID" class="cls-1" points="50.23 57.77 60.12 52.06 60.12 63.48 50.23 57.77"/><g class="cls-3"><polygon class="cls-1" points="50.54 52.06 50.23 52.18 50.23 52.06 50.54 52.06"/><polygon class="cls-1" points="51.45 52.06 50.23 52.53 50.23 52.18 50.54 52.06 51.45 52.06"/><polygon class="cls-1" points="52.35 52.06 50.23 52.89 50.23 52.53 51.45 52.06 52.35 52.06"/><polygon class="cls-1" points="53.26 52.06 50.23 53.24 50.23 52.89 52.35 52.06 53.26 52.06"/><polygon class="cls-1" points="54.17 52.06 50.23 53.59 50.23 53.24 53.26 52.06 54.17 52.06"/><polygon class="cls-1" points="55.08 52.06 50.23 53.95 50.23 53.59 54.17 52.06 55.08 52.06"/><polygon class="cls-1" points="55.99 52.06 50.23 54.3 50.23 53.95 55.08 52.06 55.99 52.06"/><polygon class="cls-1" points="56.9 52.06 50.23 54.65 50.23 54.3 55.99 52.06 56.9 52.06"/><polygon class="cls-1" points="57.81 52.06 50.23 55.01 50.23 54.65 56.9 52.06 57.81 52.06"/><polygon class="cls-1" points="58.72 52.06 50.23 55.36 50.23 55.01 57.81 52.06 58.72 52.06"/><polygon class="cls-1" points="59.63 52.06 50.23 55.71 50.23 55.36 58.72 52.06 59.63 52.06"/><polygon class="cls-1" points="60.12 52.23 50.23 56.06 50.23 55.71 59.63 52.06 60.12 52.06 60.12 52.23"/><polygon class="cls-1" points="60.12 52.58 50.23 56.42 50.23 56.06 60.12 52.23 60.12 52.58"/><polygon class="cls-1" points="60.12 52.93 50.23 56.77 50.23 56.42 60.12 52.58 60.12 52.93"/><polygon class="cls-1" points="60.12 53.28 50.23 57.13 50.23 56.77 60.12 52.93 60.12 53.28"/><polygon class="cls-1" points="60.12 53.64 50.23 57.48 50.23 57.13 60.12 53.28 60.12 53.64"/><polygon class="cls-1" points="60.12 53.99 50.23 57.83 50.23 57.48 60.12 53.64 60.12 53.99"/><polygon class="cls-1" points="60.12 54.34 50.23 58.18 50.23 57.83 60.12 53.99 60.12 54.34"/><polygon class="cls-1" points="60.12 54.7 50.23 58.54 50.23 58.18 60.12 54.34 60.12 54.7"/><polygon class="cls-1" points="60.12 55.05 50.23 58.89 50.23 58.54 60.12 54.7 60.12 55.05"/><polygon class="cls-1" points="60.12 55.4 50.23 59.24 50.23 58.89 60.12 55.05 60.12 55.4"/><polygon class="cls-1" points="60.12 55.76 50.23 59.6 50.23 59.24 60.12 55.4 60.12 55.76"/><polygon class="cls-1" points="60.12 56.11 50.23 59.95 50.23 59.6 60.12 55.76 60.12 56.11"/><polygon class="cls-1" points="60.12 56.46 50.23 60.3 50.23 59.95 60.12 56.11 60.12 56.46"/><polygon class="cls-1" points="60.12 56.82 50.23 60.66 50.23 60.3 60.12 56.46 60.12 56.82"/><polygon class="cls-1" points="60.12 57.17 50.23 61.01 50.23 60.66 60.12 56.82 60.12 57.17"/><polygon class="cls-1" points="60.12 57.52 50.23 61.36 50.23 61.01 60.12 57.17 60.12 57.52"/><polygon class="cls-1" points="60.12 57.88 50.25 61.71 50.23 61.67 50.23 61.36 60.12 57.52 60.12 57.88"/><polygon class="cls-1" points="60.12 58.23 50.37 62.02 50.25 61.71 60.12 57.88 60.12 58.23"/><polygon class="cls-1" points="60.12 58.58 50.49 62.32 50.37 62.02 60.12 58.23 60.12 58.58"/><polygon class="cls-1" points="60.12 58.94 50.61 62.63 50.49 62.32 60.12 58.58 60.12 58.94"/><polygon class="cls-1" points="60.12 59.29 50.73 62.94 50.61 62.63 60.12 58.94 60.12 59.29"/><polygon class="cls-1" points="60.12 59.64 50.84 63.24 50.73 62.94 60.12 59.29 60.12 59.64"/><polygon class="cls-1" points="60.12 59.99 51.15 63.48 50.94 63.48 50.84 63.24 60.12 59.64 60.12 59.99"/><polygon class="cls-1" points="60.12 60.35 52.06 63.48 51.15 63.48 60.12 59.99 60.12 60.35"/><polygon class="cls-1" points="60.12 60.7 52.97 63.48 52.06 63.48 60.12 60.35 60.12 60.7"/><polygon class="cls-1" points="60.12 61.05 53.88 63.48 52.97 63.48 60.12 60.7 60.12 61.05"/><polygon class="cls-1" points="60.12 61.41 54.78 63.48 53.88 63.48 60.12 61.05 60.12 61.41"/><polygon class="cls-1" points="60.12 61.76 55.69 63.48 54.78 63.48 60.12 61.41 60.12 61.76"/><polygon class="cls-1" points="60.12 62.11 56.6 63.48 55.69 63.48 60.12 61.76 60.12 62.11"/><polygon class="cls-1" points="60.12 62.47 57.51 63.48 56.6 63.48 60.12 62.11 60.12 62.47"/><polygon class="cls-1" points="60.12 62.82 58.42 63.48 57.51 63.48 60.12 62.47 60.12 62.82"/><polygon class="cls-1" points="60.12 63.17 59.33 63.48 58.42 63.48 60.12 62.82 60.12 63.17"/><polygon class="cls-1" points="59.33 63.48 60.12 63.17 60.12 63.48 59.33 63.48"/></g><circle id="SVGID-7" data-name="SVGID" class="cls-1" cx="50" cy="71.27" r="5.87"/><g class="cls-4"><polygon class="cls-1" points="44.39 65.4 44.13 65.5 44.13 65.4 44.39 65.4"/><polygon class="cls-1" points="45.3 65.4 44.13 65.86 44.13 65.5 44.39 65.4 45.3 65.4"/><polygon class="cls-1" points="46.21 65.4 44.13 66.21 44.13 65.86 45.3 65.4 46.21 65.4"/><polygon class="cls-1" points="47.12 65.4 44.13 66.56 44.13 66.21 46.21 65.4 47.12 65.4"/><polygon class="cls-1" points="48.03 65.4 44.13 66.91 44.13 66.56 47.12 65.4 48.03 65.4"/><polygon class="cls-1" points="48.94 65.4 44.13 67.27 44.13 66.91 48.03 65.4 48.94 65.4"/><polygon class="cls-1" points="49.84 65.4 44.13 67.62 44.13 67.27 48.94 65.4 49.84 65.4"/><polygon class="cls-1" points="50.75 65.4 44.13 67.97 44.13 67.62 49.84 65.4 50.75 65.4"/><polygon class="cls-1" points="51.66 65.4 44.13 68.33 44.13 67.97 50.75 65.4 51.66 65.4"/><polygon class="cls-1" points="52.57 65.4 44.13 68.68 44.13 68.33 51.66 65.4 52.57 65.4"/><polygon class="cls-1" points="53.48 65.4 44.13 69.03 44.13 68.68 52.57 65.4 53.48 65.4"/><polygon class="cls-1" points="54.39 65.4 44.13 69.39 44.13 69.03 53.48 65.4 54.39 65.4"/><polygon class="cls-1" points="55.3 65.4 44.13 69.74 44.13 69.39 54.39 65.4 55.3 65.4"/><polygon class="cls-1" points="55.87 65.53 44.13 70.09 44.13 69.74 55.3 65.4 55.87 65.4 55.87 65.53"/><polygon class="cls-1" points="55.87 65.88 44.13 70.45 44.13 70.09 55.87 65.53 55.87 65.88"/><polygon class="cls-1" points="55.87 66.24 44.13 70.8 44.13 70.45 55.87 65.88 55.87 66.24"/><polygon class="cls-1" points="55.87 66.59 44.13 71.15 44.13 70.8 55.87 66.24 55.87 66.59"/><polygon class="cls-1" points="55.87 66.94 44.13 71.5 44.13 71.15 55.87 66.59 55.87 66.94"/><polygon class="cls-1" points="55.87 67.3 44.13 71.86 44.13 71.5 55.87 66.94 55.87 67.3"/><polygon class="cls-1" points="55.87 67.65 44.13 72.21 44.13 71.86 55.87 67.3 55.87 67.65"/><polygon class="cls-1" points="55.87 68 44.13 72.56 44.13 72.21 55.87 67.65 55.87 68"/><polygon class="cls-1" points="55.87 68.36 44.13 72.92 44.13 72.56 55.87 68 55.87 68.36"/><polygon class="cls-1" points="55.87 68.71 44.13 73.27 44.13 72.92 55.87 68.36 55.87 68.71"/><polygon class="cls-1" points="55.87 69.06 44.13 73.62 44.13 73.27 55.87 68.71 55.87 69.06"/><polygon class="cls-1" points="55.87 69.42 44.13 73.98 44.13 73.62 55.87 69.06 55.87 69.42"/><polygon class="cls-1" points="55.87 69.77 44.13 74.33 44.13 73.98 55.87 69.42 55.87 69.77"/><polygon class="cls-1" points="55.87 70.12 44.13 74.68 44.13 74.33 55.87 69.77 55.87 70.12"/><polygon class="cls-1" points="55.87 70.47 44.13 75.04 44.13 74.68 55.87 70.12 55.87 70.47"/><polygon class="cls-1" points="55.87 70.83 44.13 75.39 44.13 75.04 55.87 70.47 55.87 70.83"/><polygon class="cls-1" points="55.87 71.18 44.13 75.74 44.13 75.39 55.87 70.83 55.87 71.18"/><polygon class="cls-1" points="55.87 71.53 44.13 76.1 44.13 75.74 55.87 71.18 55.87 71.53"/><polygon class="cls-1" points="55.87 71.89 44.13 76.45 44.13 76.1 55.87 71.53 55.87 71.89"/><polygon class="cls-1" points="55.87 72.24 44.13 76.8 44.13 76.45 55.87 71.89 55.87 72.24"/><polygon class="cls-1" points="55.87 72.59 44.15 77.15 44.13 77.15 44.13 76.8 55.87 72.24 55.87 72.59"/><polygon class="cls-1" points="55.87 72.95 45.05 77.15 44.15 77.15 55.87 72.59 55.87 72.95"/><polygon class="cls-1" points="55.87 73.3 45.97 77.15 45.05 77.15 55.87 72.95 55.87 73.3"/><polygon class="cls-1" points="55.87 73.65 46.87 77.15 45.97 77.15 55.87 73.3 55.87 73.65"/><polygon class="cls-1" points="55.87 74.01 47.78 77.15 46.87 77.15 55.87 73.65 55.87 74.01"/><polygon class="cls-1" points="55.87 74.36 48.69 77.15 47.78 77.15 55.87 74.01 55.87 74.36"/><polygon class="cls-1" points="55.87 74.71 49.6 77.15 48.69 77.15 55.87 74.36 55.87 74.71"/><polygon class="cls-1" points="55.87 75.06 50.51 77.15 49.6 77.15 55.87 74.71 55.87 75.06"/><polygon class="cls-1" points="55.87 75.42 51.42 77.15 50.51 77.15 55.87 75.06 55.87 75.42"/><polygon class="cls-1" points="55.87 75.77 52.33 77.15 51.42 77.15 55.87 75.42 55.87 75.77"/><polygon class="cls-1" points="55.87 76.13 53.24 77.15 52.33 77.15 55.87 75.77 55.87 76.13"/><polygon class="cls-1" points="55.87 76.48 54.15 77.15 53.24 77.15 55.87 76.13 55.87 76.48"/><polygon class="cls-1" points="55.87 76.83 55.06 77.15 54.15 77.15 55.87 76.48 55.87 76.83"/><polygon class="cls-1" points="55.06 77.15 55.87 76.83 55.87 77.15 55.06 77.15"/></g><circle id="SVGID-8" data-name="SVGID" class="cls-1" cx="50" cy="87.71" r="5.87"/><g class="cls-5"><polygon class="cls-1" points="44.8 81.84 44.13 82.1 44.13 81.84 44.8 81.84"/><polygon class="cls-1" points="45.71 81.84 44.13 82.45 44.13 82.1 44.8 81.84 45.71 81.84"/><polygon class="cls-1" points="46.62 81.84 44.13 82.81 44.13 82.45 45.71 81.84 46.62 81.84"/><polygon class="cls-1" points="47.52 81.84 44.13 83.16 44.13 82.81 46.62 81.84 47.52 81.84"/><polygon class="cls-1" points="48.43 81.84 44.13 83.51 44.13 83.16 47.52 81.84 48.43 81.84"/><polygon class="cls-1" points="49.34 81.84 44.13 83.87 44.13 83.51 48.43 81.84 49.34 81.84"/><polygon class="cls-1" points="50.25 81.84 44.13 84.22 44.13 83.87 49.34 81.84 50.25 81.84"/><polygon class="cls-1" points="51.16 81.84 44.13 84.57 44.13 84.22 50.25 81.84 51.16 81.84"/><polygon class="cls-1" points="52.07 81.84 44.13 84.93 44.13 84.57 51.16 81.84 52.07 81.84"/><polygon class="cls-1" points="52.98 81.84 44.13 85.28 44.13 84.93 52.07 81.84 52.98 81.84"/><polygon class="cls-1" points="53.89 81.84 44.13 85.63 44.13 85.28 52.98 81.84 53.89 81.84"/><polygon class="cls-1" points="54.8 81.84 44.13 85.98 44.13 85.63 53.89 81.84 54.8 81.84"/><polygon class="cls-1" points="55.71 81.84 44.13 86.34 44.13 85.98 54.8 81.84 55.71 81.84"/><polygon class="cls-1" points="55.87 82.13 44.13 86.69 44.13 86.34 55.71 81.84 55.87 81.84 55.87 82.13"/><polygon class="cls-1" points="55.87 82.48 44.13 87.04 44.13 86.69 55.87 82.13 55.87 82.48"/><polygon class="cls-1" points="55.87 82.83 44.13 87.4 44.13 87.04 55.87 82.48 55.87 82.83"/><polygon class="cls-1" points="55.87 83.19 44.13 87.75 44.13 87.4 55.87 82.83 55.87 83.19"/><polygon class="cls-1" points="55.87 83.54 44.13 88.1 44.13 87.75 55.87 83.19 55.87 83.54"/><polygon class="cls-1" points="55.87 83.89 44.13 88.46 44.13 88.1 55.87 83.54 55.87 83.89"/><polygon class="cls-1" points="55.87 84.25 44.13 88.81 44.13 88.46 55.87 83.89 55.87 84.25"/><polygon class="cls-1" points="55.87 84.6 44.13 89.16 44.13 88.81 55.87 84.25 55.87 84.6"/><polygon class="cls-1" points="55.87 84.95 44.13 89.52 44.13 89.16 55.87 84.6 55.87 84.95"/><polygon class="cls-1" points="55.87 85.31 44.13 89.87 44.13 89.52 55.87 84.95 55.87 85.31"/><polygon class="cls-1" points="55.87 85.66 44.13 90.22 44.13 89.87 55.87 85.31 55.87 85.66"/><polygon class="cls-1" points="55.87 86.01 44.13 90.58 44.13 90.22 55.87 85.66 55.87 86.01"/><polygon class="cls-1" points="55.87 86.37 44.13 90.93 44.13 90.58 55.87 86.01 55.87 86.37"/><polygon class="cls-1" points="55.87 86.72 44.13 91.28 44.13 90.93 55.87 86.37 55.87 86.72"/><polygon class="cls-1" points="55.87 87.07 44.13 91.64 44.13 91.28 55.87 86.72 55.87 87.07"/><polygon class="cls-1" points="55.87 87.43 44.13 91.99 44.13 91.64 55.87 87.07 55.87 87.43"/><polygon class="cls-1" points="55.87 87.78 44.13 92.34 44.13 91.99 55.87 87.43 55.87 87.78"/><polygon class="cls-1" points="55.87 88.13 44.13 92.69 44.13 92.34 55.87 87.78 55.87 88.13"/><polygon class="cls-1" points="55.87 88.48 44.13 93.05 44.13 92.69 55.87 88.13 55.87 88.48"/><polygon class="cls-1" points="55.87 88.84 44.13 93.4 44.13 93.05 55.87 88.48 55.87 88.84"/><polygon class="cls-1" points="55.87 89.19 44.55 93.59 44.13 93.59 44.13 93.4 55.87 88.84 55.87 89.19"/><polygon class="cls-1" points="55.87 89.55 45.46 93.59 44.55 93.59 55.87 89.19 55.87 89.55"/><polygon class="cls-1" points="55.87 89.9 46.37 93.59 45.46 93.59 55.87 89.55 55.87 89.9"/><polygon class="cls-1" points="55.87 90.25 47.28 93.59 46.37 93.59 55.87 89.9 55.87 90.25"/><polygon class="cls-1" points="47.28 93.59 55.87 90.25 55.87 93.59 47.28 93.59"/></g></svg>