<svg id="Layer_1" data-name="Layer 1" xmlns="http://www.w3.org/2000/svg" xmlns:xlink="http://www.w3.org/1999/xlink" viewBox="0 0 100 107.65"><defs><style>.cls-1{fill:#f8b133;}.cls-2{clip-path:url(#clip-path);}.cls-3{fill:#1a64ad;}</style><clipPath id="clip-path" transform="translate(-50 -46.17)"><path id="SVGID" class="cls-1" d="M123.71,138.06v3.09H122.2v-3.06c-.71-.12-1.37-.19-2-.34a6.12,6.12,0,0,1-5.13-5.51c-.08-.62-.12-1.24-.18-1.92h.76c.6,0,1.19,0,1.78,0,.29,0,.35.11.39.37a14.78,14.78,0,0,0,.42,2.3,3.67,3.67,0,0,0,2.9,2.45c.33.08.68.12,1.07.18v-.4q0-4,0-8c0-.28-.07-.39-.36-.44a11.33,11.33,0,0,1-4.09-1.57,5.11,5.11,0,0,1-2.32-3.75,6.42,6.42,0,0,1,6.07-7.48l.54,0a.63.63,0,0,0,.14,0v-2.07h1.53v2c.67.12,1.3.2,1.91.35a5.84,5.84,0,0,1,4.65,4.61c.1.43.12.88.19,1.35h-2.83c-.29-2.25-1.45-3.65-3.89-3.79,0,.13,0,.24,0,.34,0,2.39,0,4.78,0,7.17a.39.39,0,0,0,.33.44c1.18.4,2.38.78,3.54,1.24a5,5,0,0,1,3.37,5,8,8,0,0,1-.94,4.22,5.24,5.24,0,0,1-2.88,2.46c-1,.33-2,.51-3,.75Zm0-10.84v8.42a4,4,0,0,0,4.31-3.85,3.57,3.57,0,0,0-1.43-3.39A8.89,8.89,0,0,0,123.74,127.22Zm-1.58-3.36v-7.52l-.2,0a3.59,3.59,0,0,0-3.64,3.12,3.17,3.17,0,0,0,1,3.14A6,6,0,0,0,122.16,123.86Z"/></clipPath></defs><title>Fee_Management</title><path id="SVGID-2" data-name="SVGID" class="cls-1" d="M123.71,138.06v3.09H122.2v-3.06c-.71-.12-1.37-.19-2-.34a6.12,6.12,0,0,1-5.13-5.51c-.08-.62-.12-1.24-.18-1.92h.76c.6,0,1.19,0,1.78,0,.29,0,.35.11.39.37a14.78,14.78,0,0,0,.42,2.3,3.67,3.67,0,0,0,2.9,2.45c.33.08.68.12,1.07.18v-.4q0-4,0-8c0-.28-.07-.39-.36-.44a11.33,11.33,0,0,1-4.09-1.57,5.11,5.11,0,0,1-2.32-3.75,6.42,6.42,0,0,1,6.07-7.48l.54,0a.63.63,0,0,0,.14,0v-2.07h1.53v2c.67.12,1.3.2,1.91.35a5.84,5.84,0,0,1,4.65,4.61c.1.43.12.88.19,1.35h-2.83c-.29-2.25-1.45-3.65-3.89-3.79,0,.13,0,.24,0,.34,0,2.39,0,4.78,0,7.17a.39.39,0,0,0,.33.44c1.18.4,2.38.78,3.54,1.24a5,5,0,0,1,3.37,5,8,8,0,0,1-.94,4.22,5.24,5.24,0,0,1-2.88,2.46c-1,.33-2,.51-3,.75Zm0-10.84v8.42a4,4,0,0,0,4.31-3.85,3.57,3.57,0,0,0-1.43-3.39A8.89,8.89,0,0,0,123.74,127.22Zm-1.58-3.36v-7.52l-.2,0a3.59,3.59,0,0,0-3.64,3.12,3.17,3.17,0,0,0,1,3.14A6,6,0,0,0,122.16,123.86Z" transform="translate(-50 -46.17)"/><g class="cls-2"><rect class="cls-1" x="68.12" y="70.15" width="0.03" height="7.54"/><rect class="cls-1" x="68.14" y="70.15" width="0.13" height="7.54"/><rect class="cls-1" x="68.27" y="70.15" width="0.13" height="7.54"/><rect class="cls-1" x="68.4" y="70.15" width="0.13" height="7.54"/><rect class="cls-1" x="68.52" y="70.15" width="0.13" height="7.54"/><rect class="cls-1" x="68.65" y="70.15" width="0.13" height="7.54"/><rect class="cls-1" x="68.77" y="70.15" width="0.13" height="7.54"/><rect class="cls-1" x="68.9" y="70.15" width="0.13" height="7.54"/><rect class="cls-1" x="69.02" y="70.15" width="0.13" height="7.54"/><rect class="cls-1" x="69.15" y="70.15" width="0.13" height="7.54"/><rect class="cls-1" x="69.28" y="70.15" width="0.13" height="7.54"/><rect class="cls-1" x="69.4" y="70.15" width="0.13" height="7.54"/><rect class="cls-1" x="69.53" y="70.15" width="0.13" height="7.54"/><rect class="cls-1" x="69.65" y="70.15" width="0.13" height="7.54"/><rect class="cls-1" x="69.78" y="70.15" width="0.13" height="7.54"/><rect class="cls-1" x="69.9" y="70.15" width="0.13" height="7.54"/><rect class="cls-1" x="70.03" y="70.15" width="0.13" height="7.54"/><rect class="cls-1" x="70.15" y="70.15" width="0.13" height="7.54"/><rect class="cls-1" x="70.28" y="70.15" width="0.13" height="7.54"/><rect class="cls-1" x="70.41" y="70.15" width="0.13" height="7.54"/><rect class="cls-1" x="70.53" y="70.15" width="0.13" height="7.54"/><rect class="cls-1" x="70.66" y="70.15" width="0.13" height="7.54"/><rect class="cls-1" x="70.78" y="70.15" width="0.13" height="7.54"/><rect class="cls-1" x="70.91" y="70.15" width="0.13" height="7.54"/><rect class="cls-1" x="71.03" y="70.15" width="0.13" height="7.54"/><rect class="cls-1" x="71.16" y="70.15" width="0.13" height="7.54"/><rect class="cls-1" x="71.28" y="70.15" width="0.13" height="7.54"/><rect class="cls-1" x="71.41" y="70.15" width="0.13" height="7.54"/><rect class="cls-1" x="71.54" y="70.15" width="0.13" height="7.54"/><rect class="cls-1" x="71.66" y="70.15" width="0.13" height="7.54"/><rect class="cls-1" x="71.79" y="70.15" width="0.13" height="7.54"/><rect class="cls-1" x="71.91" y="70.15" width="0.13" height="7.54"/><rect class="cls-1" x="72.04" y="70.15" width="0.12" height="7.54"/><rect class="cls-1" x="73.74" y="81.04" width="0.06" height="8.42"/><rect class="cls-1" x="73.8" y="81.04" width="0.13" height="8.42"/><rect class="cls-1" x="73.92" y="81.04" width="0.13" height="8.42"/><rect class="cls-1" x="74.05" y="81.04" width="0.13" height="8.42"/><rect class="cls-1" x="74.17" y="81.04" width="0.13" height="8.42"/><rect class="cls-1" x="74.3" y="81.04" width="0.13" height="8.42"/><rect class="cls-1" x="74.42" y="81.04" width="0.13" height="8.42"/><rect class="cls-1" x="74.55" y="81.04" width="0.13" height="8.42"/><rect class="cls-1" x="74.68" y="81.04" width="0.13" height="8.42"/><rect class="cls-1" x="74.8" y="81.04" width="0.13" height="8.42"/><rect class="cls-1" x="74.93" y="81.04" width="0.13" height="8.42"/><rect class="cls-1" x="75.05" y="81.04" width="0.13" height="8.42"/><rect class="cls-1" x="75.18" y="81.04" width="0.13" height="8.42"/><rect class="cls-1" x="75.3" y="81.04" width="0.13" height="8.42"/><rect class="cls-1" x="75.43" y="81.04" width="0.13" height="8.42"/><rect class="cls-1" x="75.55" y="81.04" width="0.13" height="8.42"/><rect class="cls-1" x="75.68" y="81.04" width="0.13" height="8.42"/><rect class="cls-1" x="75.81" y="81.04" width="0.13" height="8.42"/><rect class="cls-1" x="75.93" y="81.04" width="0.13" height="8.42"/><rect class="cls-1" x="76.06" y="81.04" width="0.13" height="8.42"/><rect class="cls-1" x="76.18" y="81.04" width="0.13" height="8.42"/><rect class="cls-1" x="76.31" y="81.04" width="0.13" height="8.42"/><rect class="cls-1" x="76.43" y="81.04" width="0.13" height="8.42"/><rect class="cls-1" x="76.56" y="81.04" width="0.13" height="8.42"/><rect class="cls-1" x="76.69" y="81.04" width="0.13" height="8.42"/><rect class="cls-1" x="76.81" y="81.04" width="0.13" height="8.42"/><rect class="cls-1" x="76.94" y="81.04" width="0.13" height="8.42"/><rect class="cls-1" x="77.06" y="81.04" width="0.13" height="8.42"/><rect class="cls-1" x="77.19" y="81.04" width="0.13" height="8.42"/><rect class="cls-1" x="77.31" y="81.04" width="0.13" height="8.42"/><rect class="cls-1" x="77.44" y="81.04" width="0.13" height="8.42"/><rect class="cls-1" x="77.56" y="81.04" width="0.13" height="8.42"/><rect class="cls-1" x="77.69" y="81.04" width="0.13" height="8.42"/><rect class="cls-1" x="77.82" y="81.04" width="0.13" height="8.42"/><rect class="cls-1" x="77.94" y="81.04" width="0.13" height="8.42"/><rect class="cls-1" x="78.07" y="81.04" width="0.08" height="8.42"/><rect class="cls-1" x="64.86" y="65.62" width="0.02" height="29.36"/><rect class="cls-1" x="64.88" y="65.62" width="0.13" height="29.36"/><rect class="cls-1" x="65.01" y="65.62" width="0.13" height="29.36"/><rect class="cls-1" x="65.13" y="65.62" width="0.13" height="29.36"/><rect class="cls-1" x="65.26" y="65.62" width="0.13" height="29.36"/><rect class="cls-1" x="65.38" y="65.62" width="0.13" height="29.36"/><rect class="cls-1" x="65.51" y="65.62" width="0.13" height="29.36"/><rect class="cls-1" x="65.63" y="65.62" width="0.13" height="29.36"/><rect class="cls-1" x="65.76" y="65.62" width="0.13" height="29.36"/><rect class="cls-1" x="65.88" y="65.62" width="0.13" height="29.36"/><rect class="cls-1" x="66.01" y="65.62" width="0.13" height="29.36"/><rect class="cls-1" x="66.14" y="65.62" width="0.13" height="29.36"/><rect class="cls-1" x="66.26" y="65.62" width="0.13" height="29.36"/><rect class="cls-1" x="66.39" y="65.62" width="0.13" height="29.36"/><rect class="cls-1" x="66.51" y="65.62" width="0.13" height="29.36"/><rect class="cls-1" x="66.64" y="65.62" width="0.13" height="29.36"/><rect class="cls-1" x="66.76" y="65.62" width="0.13" height="29.36"/><rect class="cls-1" x="66.89" y="65.62" width="0.13" height="29.36"/><rect class="cls-1" x="67.01" y="65.62" width="0.13" height="29.36"/><rect class="cls-1" x="67.14" y="65.62" width="0.13" height="29.36"/><rect class="cls-1" x="67.27" y="65.62" width="0.13" height="29.36"/><rect class="cls-1" x="67.39" y="65.62" width="0.13" height="29.36"/><rect class="cls-1" x="67.52" y="65.62" width="0.13" height="29.36"/><rect class="cls-1" x="67.64" y="65.62" width="0.13" height="29.36"/><rect class="cls-1" x="67.77" y="65.62" width="0.13" height="29.36"/><rect class="cls-1" x="67.89" y="65.62" width="0.13" height="29.36"/><rect class="cls-1" x="68.02" y="65.62" width="0.13" height="29.36"/><rect class="cls-1" x="68.14" y="65.62" width="0.13" height="29.36"/><rect class="cls-1" x="68.27" y="65.62" width="0.13" height="29.36"/><rect class="cls-1" x="68.4" y="65.62" width="0.13" height="29.36"/><rect class="cls-1" x="68.52" y="65.62" width="0.13" height="29.36"/><rect class="cls-1" x="68.65" y="65.62" width="0.13" height="29.36"/><rect class="cls-1" x="68.77" y="65.62" width="0.13" height="29.36"/><rect class="cls-1" x="68.9" y="65.62" width="0.13" height="29.36"/><rect class="cls-1" x="69.02" y="65.62" width="0.13" height="29.36"/><rect class="cls-1" x="69.15" y="65.62" width="0.13" height="29.36"/><rect class="cls-1" x="69.28" y="65.62" width="0.13" height="29.36"/><rect class="cls-1" x="69.4" y="65.62" width="0.13" height="29.36"/><rect class="cls-1" x="69.53" y="65.62" width="0.13" height="29.36"/><rect class="cls-1" x="69.65" y="65.62" width="0.13" height="29.36"/><rect class="cls-1" x="69.78" y="65.62" width="0.13" height="29.36"/><rect class="cls-1" x="69.9" y="65.62" width="0.13" height="29.36"/><rect class="cls-1" x="70.03" y="65.62" width="0.13" height="29.36"/><rect class="cls-1" x="70.15" y="65.62" width="0.13" height="29.36"/><rect class="cls-1" x="70.28" y="65.62" width="0.13" height="29.36"/><rect class="cls-1" x="70.41" y="65.62" width="0.13" height="29.36"/><rect class="cls-1" x="70.53" y="65.62" width="0.13" height="29.36"/><rect class="cls-1" x="70.66" y="65.62" width="0.13" height="29.36"/><rect class="cls-1" x="70.78" y="65.62" width="0.13" height="29.36"/><rect class="cls-1" x="70.91" y="65.62" width="0.13" height="29.36"/><rect class="cls-1" x="71.03" y="65.62" width="0.13" height="29.36"/><rect class="cls-1" x="71.16" y="65.62" width="0.13" height="29.36"/><rect class="cls-1" x="71.28" y="65.62" width="0.13" height="29.36"/><rect class="cls-1" x="71.41" y="65.62" width="0.13" height="29.36"/><rect class="cls-1" x="71.54" y="65.62" width="0.13" height="29.36"/><rect class="cls-1" x="71.66" y="65.62" width="0.13" height="29.36"/><rect class="cls-1" x="71.79" y="65.62" width="0.13" height="29.36"/><rect class="cls-1" x="71.91" y="65.62" width="0.13" height="29.36"/><rect class="cls-1" x="72.04" y="65.62" width="0.13" height="29.36"/><rect class="cls-1" x="72.16" y="65.62" width="0.13" height="29.36"/><rect class="cls-1" x="72.29" y="65.62" width="0.13" height="29.36"/><rect class="cls-1" x="72.42" y="65.62" width="0.13" height="29.36"/><rect class="cls-1" x="72.54" y="65.62" width="0.13" height="29.36"/><rect class="cls-1" x="72.67" y="65.62" width="0.13" height="29.36"/><rect class="cls-1" x="72.79" y="65.62" width="0.13" height="29.36"/><rect class="cls-1" x="72.92" y="65.62" width="0.13" height="29.36"/><rect class="cls-1" x="73.04" y="65.62" width="0.13" height="29.36"/><rect class="cls-1" x="73.17" y="65.62" width="0.13" height="29.36"/><rect class="cls-1" x="73.29" y="65.62" width="0.13" height="29.36"/><rect class="cls-1" x="73.42" y="65.62" width="0.13" height="29.36"/><rect class="cls-1" x="73.55" y="65.62" width="0.13" height="29.36"/><rect class="cls-1" x="73.67" y="65.62" width="0.13" height="29.36"/><rect class="cls-1" x="73.8" y="65.62" width="0.13" height="29.36"/><rect class="cls-1" x="73.92" y="65.62" width="0.13" height="29.36"/><rect class="cls-1" x="74.05" y="65.62" width="0.13" height="29.36"/><rect class="cls-1" x="74.17" y="65.62" width="0.13" height="29.36"/><rect class="cls-1" x="74.3" y="65.62" width="0.13" height="29.36"/><rect class="cls-1" x="74.42" y="65.62" width="0.13" height="29.36"/><rect class="cls-1" x="74.55" y="65.62" width="0.13" height="29.36"/><rect class="cls-1" x="74.68" y="65.62" width="0.13" height="29.36"/><rect class="cls-1" x="74.8" y="65.62" width="0.13" height="29.36"/><rect class="cls-1" x="74.93" y="65.62" width="0.13" height="29.36"/><rect class="cls-1" x="75.05" y="65.62" width="0.13" height="29.36"/><rect class="cls-1" x="75.18" y="65.62" width="0.13" height="29.36"/><rect class="cls-1" x="75.3" y="65.62" width="0.13" height="29.36"/><rect class="cls-1" x="75.43" y="65.62" width="0.13" height="29.36"/><rect class="cls-1" x="75.55" y="65.62" width="0.13" height="29.36"/><rect class="cls-1" x="75.68" y="65.62" width="0.13" height="29.36"/><rect class="cls-1" x="75.81" y="65.62" width="0.13" height="29.36"/><rect class="cls-1" x="75.93" y="65.62" width="0.13" height="29.36"/><rect class="cls-1" x="76.06" y="65.62" width="0.13" height="29.36"/><rect class="cls-1" x="76.18" y="65.62" width="0.13" height="29.36"/><rect class="cls-1" x="76.31" y="65.62" width="0.13" height="29.36"/><rect class="cls-1" x="76.43" y="65.62" width="0.13" height="29.36"/><rect class="cls-1" x="76.56" y="65.62" width="0.13" height="29.36"/><rect class="cls-1" x="76.69" y="65.62" width="0.13" height="29.36"/><rect class="cls-1" x="76.81" y="65.62" width="0.13" height="29.36"/><rect class="cls-1" x="76.94" y="65.62" width="0.13" height="29.36"/><rect class="cls-1" x="77.06" y="65.62" width="0.13" height="29.36"/><rect class="cls-1" x="77.19" y="65.62" width="0.13" height="29.36"/><rect class="cls-1" x="77.31" y="65.62" width="0.13" height="29.36"/><rect class="cls-1" x="77.44" y="65.62" width="0.13" height="29.36"/><rect class="cls-1" x="77.56" y="65.62" width="0.13" height="29.36"/><rect class="cls-1" x="77.69" y="65.62" width="0.13" height="29.36"/><rect class="cls-1" x="77.82" y="65.62" width="0.13" height="29.36"/><rect class="cls-1" x="77.94" y="65.62" width="0.13" height="29.36"/><rect class="cls-1" x="78.07" y="65.62" width="0.13" height="29.36"/><rect class="cls-1" x="78.19" y="65.62" width="0.13" height="29.36"/><rect class="cls-1" x="78.32" y="65.62" width="0.13" height="29.36"/><rect class="cls-1" x="78.44" y="65.62" width="0.13" height="29.36"/><rect class="cls-1" x="78.57" y="65.62" width="0.13" height="29.36"/><rect class="cls-1" x="78.69" y="65.62" width="0.13" height="29.36"/><rect class="cls-1" x="78.82" y="65.62" width="0.13" height="29.36"/><rect class="cls-1" x="78.95" y="65.62" width="0.13" height="29.36"/><rect class="cls-1" x="79.07" y="65.62" width="0.13" height="29.36"/><rect class="cls-1" x="79.2" y="65.62" width="0.13" height="29.36"/><rect class="cls-1" x="79.32" y="65.62" width="0.13" height="29.36"/><rect class="cls-1" x="79.45" y="65.62" width="0.13" height="29.36"/><rect class="cls-1" x="79.57" y="65.62" width="0.13" height="29.36"/><rect class="cls-1" x="79.7" y="65.62" width="0.13" height="29.36"/><rect class="cls-1" x="79.82" y="65.62" width="0.13" height="29.36"/><rect class="cls-1" x="79.95" y="65.62" width="0.13" height="29.36"/><rect class="cls-1" x="80.08" y="65.62" width="0.13" height="29.36"/><rect class="cls-1" x="80.2" y="65.62" width="0.13" height="29.36"/><rect class="cls-1" x="80.33" y="65.62" width="0.13" height="29.36"/><rect class="cls-1" x="80.45" y="65.62" width="0.13" height="29.36"/><rect class="cls-1" x="80.58" y="65.62" width="0.13" height="29.36"/><rect class="cls-1" x="80.7" y="65.62" width="0.13" height="29.36"/><rect class="cls-1" x="80.83" y="65.62" width="0.13" height="29.36"/><rect class="cls-1" x="80.96" y="65.62" width="0.01" height="29.36"/></g><path class="cls-3" d="M94.26,129.78a5.77,5.77,0,0,1-5.58-4.38L88.32,124a37.09,37.09,0,0,1-3.78-.58l-.77,1.28a5.78,5.78,0,0,1-7.9,2l-10.78-6.49a5.76,5.76,0,0,1-2-7.91l.83-1.37a36.13,36.13,0,0,1-2.19-3l-1.59.39a5.77,5.77,0,0,1-7-4.21l-3-12.2a5.76,5.76,0,0,1,4.2-7l1.75-.43a34.75,34.75,0,0,1,.55-3.54L55.11,80a5.79,5.79,0,0,1-2-7.9l6.5-10.78a5.76,5.76,0,0,1,7.9-2l1.67,1c.89-.72,1.83-1.41,2.8-2l-.47-1.9a5.76,5.76,0,0,1,4.2-7l12.21-3a5.77,5.77,0,0,1,7,4.18l.47,1.91c1.16.12,2.3.29,3.43.51l1-1.66a5.76,5.76,0,0,1,7.89-2l10.79,6.49a5.79,5.79,0,0,1,2,7.91l-.94,1.56a35.63,35.63,0,0,1,2.14,2.87l1.75-.44a5.78,5.78,0,0,1,4.35.66,5.7,5.7,0,0,1,2.62,3.54l3,12.21a5.78,5.78,0,0,1-4.19,7l-1.6.39a37.23,37.23,0,0,1-.52,3.69l1.37.83a5.76,5.76,0,0,1,2,7.9l-1,1.78-1.82-.39a21.58,21.58,0,0,0-4.68-.51A22,22,0,0,0,101,126.32l0,2-5.29,1.31A5.94,5.94,0,0,1,94.26,129.78ZM82.09,117.47,84,118a31.06,31.06,0,0,0,6.52,1l1.92.09,1.27,5.1a.59.59,0,0,0,.28.38.65.65,0,0,0,.47.08l1.52-.38a27.24,27.24,0,0,1,27-24.59c.59,0,1.18,0,1.76.06l-3.44-2.07.48-1.86a30.13,30.13,0,0,0,.92-6.43l.07-1.93L128,86.11a.63.63,0,0,0,.45-.76l-3-12.2a.59.59,0,0,0-.28-.37.61.61,0,0,0-.46-.08L119.27,74l-1-1.63a30.43,30.43,0,0,0-3.82-5.1l-1.31-1.42,2.9-4.82a.64.64,0,0,0-.21-.86l-10.78-6.49a.62.62,0,0,0-.84.22l-2.95,4.89-1.85-.47a30.42,30.42,0,0,0-6.2-.92l-1.92-.09-1.38-5.57a.62.62,0,0,0-.75-.44L77,54.37a.62.62,0,0,0-.45.75l1.38,5.56-1.65,1a30.94,30.94,0,0,0-5.06,3.71l-1.42,1.29-4.89-3a.61.61,0,0,0-.46-.06.62.62,0,0,0-.39.28L57.55,74.69a.64.64,0,0,0,.21.85l4.84,2.9-.51,1.88a30.45,30.45,0,0,0-1,6.29l-.1,1.9-5.39,1.33a.64.64,0,0,0-.38.29.65.65,0,0,0-.07.45l3,12.22a.62.62,0,0,0,.28.38.6.6,0,0,0,.46.07l5.29-1.32,1,1.68A30.18,30.18,0,0,0,69,108.86l1.29,1.42-2.78,4.61a.61.61,0,0,0-.07.46.64.64,0,0,0,.28.38l10.78,6.49a.62.62,0,0,0,.85-.21Z" transform="translate(-50 -46.17)"/><path class="cls-3" d="M91.8,104.88a16.67,16.67,0,1,1,16.67-16.67A16.69,16.69,0,0,1,91.8,104.88Zm0-28.2a11.53,11.53,0,1,0,11.53,11.53A11.54,11.54,0,0,0,91.8,76.68Z" transform="translate(-50 -46.17)"/><path class="cls-1" d="M122.91,153.83a27.12,27.12,0,0,1-27.08-27.09c0-.18,0-.37,0-.54a27.08,27.08,0,1,1,27.07,27.63Zm0-49A22,22,0,0,0,101,126.32v.42a21.95,21.95,0,1,0,26.62-21.44A21.58,21.58,0,0,0,122.91,104.79Z" transform="translate(-50 -46.17)"/></svg>