<svg id="Layer_1" data-name="Layer 1" xmlns="http://www.w3.org/2000/svg" viewBox="0 0 18.75 17.74"><defs><style>.cls-1{fill:#2dab66;}</style></defs><title>File_Extractor_V1</title><path class="cls-1" d="M64.53,76.2c-.64,0-1.29,0-1.93,0-.3,0-.4-.09-.4-.39,0-1.06,0-2.11,0-3.16,0-.4-.14-.54-.53-.53-1.1,0-2.19,0-3.29,0a1.26,1.26,0,0,0-.58.24c-.26.18-.48.54-.75.57-.8.07-1.61,0-2.44,0v-1.9c.57,0,1.1,0,1.63,0a.64.64,0,0,0,.45-.18.55.55,0,0,0-.14-.45c-1-1.11-2-2.2-2.92-3.31-.25-.28-.45-.26-.68,0-1,1.1-1.92,2.19-2.87,3.3-.1.11-.19.34-.13.44s.28.18.43.19c.52,0,1,0,1.59,0V73H46.75c-.39,0-.55.13-.55.54,0,3,0,5.92,0,8.88a2.21,2.21,0,0,0,2.28,2.26c3.87,0,7.73,0,11.6,0a2.8,2.8,0,0,0,2.68-1.84c.73-2,1.43-4.06,2.13-6.1C65,76.35,64.93,76.2,64.53,76.2Zm-17.3-2.62H52c.62,0,.65,0,.65-.64s0-1.34,0-2c0-.33-.13-.48-.47-.47s-.78,0-1.29,0l2.44-2.79,2.49,2.79H54.58c-.54,0-.58,0-.59.57,0,.69,0,1.37,0,2.06,0,.36.14.49.49.49.85,0,1.7,0,2.54,0a1.69,1.69,0,0,0,.84-.45,1.31,1.31,0,0,1,1-.38c.89,0,1.78,0,2.7,0v1.68l-.46,0H47.29c-.34,0-.5-.06-.49-.45S46.92,73.58,47.23,73.58ZM46.91,83a4.14,4.14,0,0,1-.09-.6c0-2.32,0-4.63,0-7,0-.11,0-.23,0-.35H61.58V76.2H61c-3.68,0-7.35,0-11,0a.75.75,0,0,0-.84.61c-.65,1.93-1.33,3.85-2,5.77A.84.84,0,0,1,46.91,83ZM63.7,78.33l-1.41,4a2.32,2.32,0,0,1-2.38,1.69H48.36c-.82-.07-1-.3-.71-1,.67-1.94,1.36-3.88,2-5.82.1-.29.22-.42.55-.42,4.52,0,9,0,13.57,0l.44,0C64,77.35,63.87,77.84,63.7,78.33Z" transform="translate(-46.2 -66.93)"/></svg>