<svg id="Layer_1" data-name="Layer 1" xmlns="http://www.w3.org/2000/svg" xmlns:xlink="http://www.w3.org/1999/xlink" viewBox="0 0 100 102.68"><defs><style>.cls-1{fill:#6f6f6e;}.cls-2{clip-path:url(#clip-path);}.cls-3{clip-path:url(#clip-path-2);}.cls-4{clip-path:url(#clip-path-3);}.cls-5{clip-path:url(#clip-path-4);}</style><clipPath id="clip-path" transform="translate(-50 -48.66)"><rect id="SVGID" class="cls-1" x="68.01" y="118.43" width="33.22" height="4.96"/></clipPath><clipPath id="clip-path-2" transform="translate(-50 -48.66)"><rect id="SVGID-2" data-name="SVGID" class="cls-1" x="68.01" y="64.51" width="33.22" height="4.96"/></clipPath><clipPath id="clip-path-3" transform="translate(-50 -48.66)"><rect id="SVGID-3" data-name="SVGID" class="cls-1" x="68.01" y="131.91" width="33.22" height="4.96"/></clipPath><clipPath id="clip-path-4" transform="translate(-50 -48.66)"><rect id="SVGID-4" data-name="SVGID" class="cls-1" x="68.01" y="104.95" width="33.22" height="4.96"/></clipPath></defs><title>File_Management</title><polygon class="cls-1" points="83.32 26.46 60.5 26.46 60.5 2.48 65.46 2.48 65.46 21.5 83.32 21.5 83.32 26.46"/><path class="cls-1" d="M126.93,151.34H123.6a4.61,4.61,0,0,1-4.6-4.61v-.14a21,21,0,0,1-3.43-1.42l-.1.1a4.61,4.61,0,0,1-6.52,0l-2.35-2.35a4.61,4.61,0,0,1,0-6.52l.1-.1a20.49,20.49,0,0,1-1.42-3.43h-.14a4.61,4.61,0,0,1-4.61-4.6v-3.33a4.62,4.62,0,0,1,4.61-4.61h.14a20.39,20.39,0,0,1,1.42-3.42l-.1-.11a4.6,4.6,0,0,1,0-6.51l2.35-2.35a4.61,4.61,0,0,1,6.52,0l.1.1a20.15,20.15,0,0,1,3.43-1.42v-.14a4.61,4.61,0,0,1,4.6-4.61h3.33a4.61,4.61,0,0,1,4.6,4.61v.14A20.15,20.15,0,0,1,135,108l.1-.1a4.61,4.61,0,0,1,6.52,0l2.35,2.35a4.6,4.6,0,0,1,0,6.51l-.1.11a20.39,20.39,0,0,1,1.42,3.42h.14a4.62,4.62,0,0,1,4.61,4.61v3.33a4.61,4.61,0,0,1-4.61,4.6h-.14a20.15,20.15,0,0,1-1.42,3.43l.1.1a4.61,4.61,0,0,1,0,6.52l-2.35,2.35a4.61,4.61,0,0,1-6.52,0l-.1-.1a21,21,0,0,1-3.43,1.42v.14A4.61,4.61,0,0,1,126.93,151.34Zm-3-5h2.63v-.88a3.53,3.53,0,0,1,2.66-3.41,15.46,15.46,0,0,0,4.16-1.73,3.54,3.54,0,0,1,4.3.53l.62.62,1.85-1.85-.62-.62a3.52,3.52,0,0,1-.52-4.3,15.76,15.76,0,0,0,1.72-4.16,3.53,3.53,0,0,1,3.41-2.67H145v-2.62h-.88a3.53,3.53,0,0,1-3.41-2.66,15.76,15.76,0,0,0-1.72-4.16,3.52,3.52,0,0,1,.52-4.3l.62-.62-1.85-1.86-.62.63a3.54,3.54,0,0,1-4.3.52,15.76,15.76,0,0,0-4.16-1.72,3.53,3.53,0,0,1-2.66-3.41v-.88H124v.88a3.53,3.53,0,0,1-2.66,3.41,15.76,15.76,0,0,0-4.16,1.72,3.54,3.54,0,0,1-4.3-.52l-.62-.63-1.85,1.86.62.62a3.54,3.54,0,0,1,.53,4.3,15.46,15.46,0,0,0-1.73,4.16,3.53,3.53,0,0,1-3.41,2.66h-.88v2.62h.88a3.53,3.53,0,0,1,3.41,2.67,15.76,15.76,0,0,0,1.72,4.16A3.52,3.52,0,0,1,111,139l-.62.62,1.85,1.85.62-.62a3.54,3.54,0,0,1,4.3-.53,15.46,15.46,0,0,0,4.16,1.73A3.52,3.52,0,0,1,124,145.5Zm19.11-10.85Zm2.33-10.24h0Zm-2.33-7.62h0Z" transform="translate(-50 -48.66)"/><rect id="SVGID-5" data-name="SVGID" class="cls-1" x="18.01" y="69.77" width="33.22" height="4.96"/><g class="cls-2"><rect class="cls-1" x="18.01" y="69.77" width="0.04" height="4.96"/><rect class="cls-1" x="18.05" y="69.77" width="0.48" height="4.96"/><rect class="cls-1" x="18.53" y="69.77" width="0.48" height="4.96"/><rect class="cls-1" x="19.01" y="69.77" width="0.48" height="4.96"/><rect class="cls-1" x="19.49" y="69.77" width="0.48" height="4.96"/><rect class="cls-1" x="19.97" y="69.77" width="0.48" height="4.96"/><rect class="cls-1" x="20.45" y="69.77" width="0.48" height="4.96"/><rect class="cls-1" x="20.94" y="69.77" width="0.48" height="4.96"/><rect class="cls-1" x="21.42" y="69.77" width="0.48" height="4.96"/><rect class="cls-1" x="21.9" y="69.77" width="0.48" height="4.96"/><rect class="cls-1" x="22.38" y="69.77" width="0.48" height="4.96"/><rect class="cls-1" x="22.86" y="69.77" width="0.48" height="4.96"/><rect class="cls-1" x="23.34" y="69.77" width="0.48" height="4.96"/><rect class="cls-1" x="23.82" y="69.77" width="0.48" height="4.96"/><rect class="cls-1" x="24.3" y="69.77" width="0.48" height="4.96"/><rect class="cls-1" x="24.78" y="69.77" width="0.48" height="4.96"/><rect class="cls-1" x="25.26" y="69.77" width="0.48" height="4.96"/><rect class="cls-1" x="25.74" y="69.77" width="0.48" height="4.96"/><rect class="cls-1" x="26.23" y="69.77" width="0.48" height="4.96"/><rect class="cls-1" x="26.71" y="69.77" width="0.48" height="4.96"/><rect class="cls-1" x="27.19" y="69.77" width="0.48" height="4.96"/><rect class="cls-1" x="27.67" y="69.77" width="0.48" height="4.96"/><rect class="cls-1" x="28.15" y="69.77" width="0.48" height="4.96"/><rect class="cls-1" x="28.63" y="69.77" width="0.48" height="4.96"/><rect class="cls-1" x="29.11" y="69.77" width="0.48" height="4.96"/><rect class="cls-1" x="29.59" y="69.77" width="0.48" height="4.96"/><rect class="cls-1" x="30.07" y="69.77" width="0.48" height="4.96"/><rect class="cls-1" x="30.55" y="69.77" width="0.48" height="4.96"/><rect class="cls-1" x="31.03" y="69.77" width="0.48" height="4.96"/><rect class="cls-1" x="31.52" y="69.77" width="0.48" height="4.96"/><rect class="cls-1" x="32" y="69.77" width="0.48" height="4.96"/><rect class="cls-1" x="32.48" y="69.77" width="0.48" height="4.96"/><rect class="cls-1" x="32.96" y="69.77" width="0.48" height="4.96"/><rect class="cls-1" x="33.44" y="69.77" width="0.48" height="4.96"/><rect class="cls-1" x="33.92" y="69.77" width="0.48" height="4.96"/><rect class="cls-1" x="34.4" y="69.77" width="0.48" height="4.96"/><rect class="cls-1" x="34.88" y="69.77" width="0.48" height="4.96"/><rect class="cls-1" x="35.36" y="69.77" width="0.48" height="4.96"/><rect class="cls-1" x="35.84" y="69.77" width="0.48" height="4.96"/><rect class="cls-1" x="36.32" y="69.77" width="0.48" height="4.96"/><rect class="cls-1" x="36.81" y="69.77" width="0.48" height="4.96"/><rect class="cls-1" x="37.29" y="69.77" width="0.48" height="4.96"/><rect class="cls-1" x="37.77" y="69.77" width="0.48" height="4.96"/><rect class="cls-1" x="38.25" y="69.77" width="0.48" height="4.96"/><rect class="cls-1" x="38.73" y="69.77" width="0.48" height="4.96"/><rect class="cls-1" x="39.21" y="69.77" width="0.48" height="4.96"/><rect class="cls-1" x="39.69" y="69.77" width="0.48" height="4.96"/><rect class="cls-1" x="40.17" y="69.77" width="0.48" height="4.96"/><rect class="cls-1" x="40.65" y="69.77" width="0.48" height="4.96"/><rect class="cls-1" x="41.13" y="69.77" width="0.48" height="4.96"/><rect class="cls-1" x="41.61" y="69.77" width="0.48" height="4.96"/><rect class="cls-1" x="42.1" y="69.77" width="0.48" height="4.96"/><rect class="cls-1" x="42.58" y="69.77" width="0.48" height="4.96"/><rect class="cls-1" x="43.06" y="69.77" width="0.48" height="4.96"/><rect class="cls-1" x="43.54" y="69.77" width="0.48" height="4.96"/><rect class="cls-1" x="44.02" y="69.77" width="0.48" height="4.96"/><rect class="cls-1" x="44.5" y="69.77" width="0.48" height="4.96"/><rect class="cls-1" x="44.98" y="69.77" width="0.48" height="4.96"/><rect class="cls-1" x="45.46" y="69.77" width="0.48" height="4.96"/><rect class="cls-1" x="45.94" y="69.77" width="0.48" height="4.96"/><rect class="cls-1" x="46.42" y="69.77" width="0.48" height="4.96"/><rect class="cls-1" x="46.9" y="69.77" width="0.48" height="4.96"/><rect class="cls-1" x="47.39" y="69.77" width="0.48" height="4.96"/><rect class="cls-1" x="47.87" y="69.77" width="0.48" height="4.96"/><rect class="cls-1" x="48.35" y="69.77" width="0.48" height="4.96"/><rect class="cls-1" x="48.83" y="69.77" width="0.48" height="4.96"/><rect class="cls-1" x="49.31" y="69.77" width="0.48" height="4.96"/><rect class="cls-1" x="49.79" y="69.77" width="0.48" height="4.96"/><rect class="cls-1" x="50.27" y="69.77" width="0.48" height="4.96"/><rect class="cls-1" x="50.75" y="69.77" width="0.48" height="4.96"/><path class="cls-1" d="M101.23,123.39v0Z" transform="translate(-50 -48.66)"/></g><rect id="SVGID-6" data-name="SVGID" class="cls-1" x="18.01" y="15.85" width="33.22" height="4.96"/><g class="cls-3"><rect class="cls-1" x="18.01" y="15.85" width="0.04" height="4.96"/><rect class="cls-1" x="18.05" y="15.85" width="0.48" height="4.96"/><rect class="cls-1" x="18.53" y="15.85" width="0.48" height="4.96"/><rect class="cls-1" x="19.01" y="15.85" width="0.48" height="4.96"/><rect class="cls-1" x="19.49" y="15.85" width="0.48" height="4.96"/><rect class="cls-1" x="19.97" y="15.85" width="0.48" height="4.96"/><rect class="cls-1" x="20.45" y="15.85" width="0.48" height="4.96"/><rect class="cls-1" x="20.94" y="15.85" width="0.48" height="4.96"/><rect class="cls-1" x="21.42" y="15.85" width="0.48" height="4.96"/><rect class="cls-1" x="21.9" y="15.85" width="0.48" height="4.96"/><rect class="cls-1" x="22.38" y="15.85" width="0.48" height="4.96"/><rect class="cls-1" x="22.86" y="15.85" width="0.48" height="4.96"/><rect class="cls-1" x="23.34" y="15.85" width="0.48" height="4.96"/><rect class="cls-1" x="23.82" y="15.85" width="0.48" height="4.96"/><rect class="cls-1" x="24.3" y="15.85" width="0.48" height="4.96"/><rect class="cls-1" x="24.78" y="15.85" width="0.48" height="4.96"/><rect class="cls-1" x="25.26" y="15.85" width="0.48" height="4.96"/><rect class="cls-1" x="25.74" y="15.85" width="0.48" height="4.96"/><rect class="cls-1" x="26.23" y="15.85" width="0.48" height="4.96"/><rect class="cls-1" x="26.71" y="15.85" width="0.48" height="4.96"/><rect class="cls-1" x="27.19" y="15.85" width="0.48" height="4.96"/><rect class="cls-1" x="27.67" y="15.85" width="0.48" height="4.96"/><rect class="cls-1" x="28.15" y="15.85" width="0.48" height="4.96"/><rect class="cls-1" x="28.63" y="15.85" width="0.48" height="4.96"/><rect class="cls-1" x="29.11" y="15.85" width="0.48" height="4.96"/><rect class="cls-1" x="29.59" y="15.85" width="0.48" height="4.96"/><rect class="cls-1" x="30.07" y="15.85" width="0.48" height="4.96"/><rect class="cls-1" x="30.55" y="15.85" width="0.48" height="4.96"/><rect class="cls-1" x="31.03" y="15.85" width="0.48" height="4.96"/><rect class="cls-1" x="31.52" y="15.85" width="0.48" height="4.96"/><rect class="cls-1" x="32" y="15.85" width="0.48" height="4.96"/><rect class="cls-1" x="32.48" y="15.85" width="0.48" height="4.96"/><rect class="cls-1" x="32.96" y="15.85" width="0.48" height="4.96"/><rect class="cls-1" x="33.44" y="15.85" width="0.48" height="4.96"/><rect class="cls-1" x="33.92" y="15.85" width="0.48" height="4.96"/><rect class="cls-1" x="34.4" y="15.85" width="0.48" height="4.96"/><rect class="cls-1" x="34.88" y="15.85" width="0.48" height="4.96"/><rect class="cls-1" x="35.36" y="15.85" width="0.48" height="4.96"/><rect class="cls-1" x="35.84" y="15.85" width="0.48" height="4.96"/><rect class="cls-1" x="36.32" y="15.85" width="0.48" height="4.96"/><rect class="cls-1" x="36.81" y="15.85" width="0.48" height="4.96"/><rect class="cls-1" x="37.29" y="15.85" width="0.48" height="4.96"/><rect class="cls-1" x="37.77" y="15.85" width="0.48" height="4.96"/><rect class="cls-1" x="38.25" y="15.85" width="0.48" height="4.96"/><rect class="cls-1" x="38.73" y="15.85" width="0.48" height="4.96"/><rect class="cls-1" x="39.21" y="15.85" width="0.48" height="4.96"/><rect class="cls-1" x="39.69" y="15.85" width="0.48" height="4.96"/><rect class="cls-1" x="40.17" y="15.85" width="0.48" height="4.96"/><rect class="cls-1" x="40.65" y="15.85" width="0.48" height="4.96"/><rect class="cls-1" x="41.13" y="15.85" width="0.48" height="4.96"/><rect class="cls-1" x="41.61" y="15.85" width="0.48" height="4.96"/><rect class="cls-1" x="42.1" y="15.85" width="0.48" height="4.96"/><rect class="cls-1" x="42.58" y="15.85" width="0.48" height="4.96"/><rect class="cls-1" x="43.06" y="15.85" width="0.48" height="4.96"/><rect class="cls-1" x="43.54" y="15.85" width="0.48" height="4.96"/><rect class="cls-1" x="44.02" y="15.85" width="0.48" height="4.96"/><rect class="cls-1" x="44.5" y="15.85" width="0.48" height="4.96"/><rect class="cls-1" x="44.98" y="15.85" width="0.48" height="4.96"/><rect class="cls-1" x="45.46" y="15.85" width="0.48" height="4.96"/><rect class="cls-1" x="45.94" y="15.85" width="0.48" height="4.96"/><rect class="cls-1" x="46.42" y="15.85" width="0.48" height="4.96"/><rect class="cls-1" x="46.9" y="15.85" width="0.48" height="4.96"/><rect class="cls-1" x="47.39" y="15.85" width="0.48" height="4.96"/><rect class="cls-1" x="47.87" y="15.85" width="0.48" height="4.96"/><rect class="cls-1" x="48.35" y="15.85" width="0.48" height="4.96"/><rect class="cls-1" x="48.83" y="15.85" width="0.48" height="4.96"/><rect class="cls-1" x="49.31" y="15.85" width="0.48" height="4.96"/><rect class="cls-1" x="49.79" y="15.85" width="0.48" height="4.96"/><rect class="cls-1" x="50.27" y="15.85" width="0.48" height="4.96"/><rect class="cls-1" x="50.75" y="15.85" width="0.48" height="4.96"/><path class="cls-1" d="M101.23,69.47v0Z" transform="translate(-50 -48.66)"/></g><rect id="SVGID-7" data-name="SVGID" class="cls-1" x="18.01" y="83.25" width="33.22" height="4.96"/><g class="cls-4"><rect class="cls-1" x="18.01" y="83.25" width="0.04" height="4.96"/><rect class="cls-1" x="18.05" y="83.25" width="0.48" height="4.96"/><rect class="cls-1" x="18.53" y="83.25" width="0.48" height="4.96"/><rect class="cls-1" x="19.01" y="83.25" width="0.48" height="4.96"/><rect class="cls-1" x="19.49" y="83.25" width="0.48" height="4.96"/><rect class="cls-1" x="19.97" y="83.25" width="0.48" height="4.96"/><rect class="cls-1" x="20.45" y="83.25" width="0.48" height="4.96"/><rect class="cls-1" x="20.94" y="83.25" width="0.48" height="4.96"/><rect class="cls-1" x="21.42" y="83.25" width="0.48" height="4.96"/><rect class="cls-1" x="21.9" y="83.25" width="0.48" height="4.96"/><rect class="cls-1" x="22.38" y="83.25" width="0.48" height="4.96"/><rect class="cls-1" x="22.86" y="83.25" width="0.48" height="4.96"/><rect class="cls-1" x="23.34" y="83.25" width="0.48" height="4.96"/><rect class="cls-1" x="23.82" y="83.25" width="0.48" height="4.96"/><rect class="cls-1" x="24.3" y="83.25" width="0.48" height="4.96"/><rect class="cls-1" x="24.78" y="83.25" width="0.48" height="4.96"/><rect class="cls-1" x="25.26" y="83.25" width="0.48" height="4.96"/><rect class="cls-1" x="25.74" y="83.25" width="0.48" height="4.96"/><rect class="cls-1" x="26.23" y="83.25" width="0.48" height="4.96"/><rect class="cls-1" x="26.71" y="83.25" width="0.48" height="4.96"/><rect class="cls-1" x="27.19" y="83.25" width="0.48" height="4.96"/><rect class="cls-1" x="27.67" y="83.25" width="0.48" height="4.96"/><rect class="cls-1" x="28.15" y="83.25" width="0.48" height="4.96"/><rect class="cls-1" x="28.63" y="83.25" width="0.48" height="4.96"/><rect class="cls-1" x="29.11" y="83.25" width="0.48" height="4.96"/><rect class="cls-1" x="29.59" y="83.25" width="0.48" height="4.96"/><rect class="cls-1" x="30.07" y="83.25" width="0.48" height="4.96"/><rect class="cls-1" x="30.55" y="83.25" width="0.48" height="4.96"/><rect class="cls-1" x="31.03" y="83.25" width="0.48" height="4.96"/><rect class="cls-1" x="31.52" y="83.25" width="0.48" height="4.96"/><rect class="cls-1" x="32" y="83.25" width="0.48" height="4.96"/><rect class="cls-1" x="32.48" y="83.25" width="0.48" height="4.96"/><rect class="cls-1" x="32.96" y="83.25" width="0.48" height="4.96"/><rect class="cls-1" x="33.44" y="83.25" width="0.48" height="4.96"/><rect class="cls-1" x="33.92" y="83.25" width="0.48" height="4.96"/><rect class="cls-1" x="34.4" y="83.25" width="0.48" height="4.96"/><rect class="cls-1" x="34.88" y="83.25" width="0.48" height="4.96"/><rect class="cls-1" x="35.36" y="83.25" width="0.48" height="4.96"/><rect class="cls-1" x="35.84" y="83.25" width="0.48" height="4.96"/><rect class="cls-1" x="36.32" y="83.25" width="0.48" height="4.96"/><rect class="cls-1" x="36.81" y="83.25" width="0.48" height="4.96"/><rect class="cls-1" x="37.29" y="83.25" width="0.48" height="4.96"/><rect class="cls-1" x="37.77" y="83.25" width="0.48" height="4.96"/><rect class="cls-1" x="38.25" y="83.25" width="0.48" height="4.96"/><rect class="cls-1" x="38.73" y="83.25" width="0.48" height="4.96"/><rect class="cls-1" x="39.21" y="83.25" width="0.48" height="4.96"/><rect class="cls-1" x="39.69" y="83.25" width="0.48" height="4.96"/><rect class="cls-1" x="40.17" y="83.25" width="0.48" height="4.96"/><rect class="cls-1" x="40.65" y="83.25" width="0.48" height="4.96"/><rect class="cls-1" x="41.13" y="83.25" width="0.48" height="4.96"/><rect class="cls-1" x="41.61" y="83.25" width="0.48" height="4.96"/><rect class="cls-1" x="42.1" y="83.25" width="0.48" height="4.96"/><rect class="cls-1" x="42.58" y="83.25" width="0.48" height="4.96"/><rect class="cls-1" x="43.06" y="83.25" width="0.48" height="4.96"/><rect class="cls-1" x="43.54" y="83.25" width="0.48" height="4.96"/><rect class="cls-1" x="44.02" y="83.25" width="0.48" height="4.96"/><rect class="cls-1" x="44.5" y="83.25" width="0.48" height="4.96"/><rect class="cls-1" x="44.98" y="83.25" width="0.48" height="4.96"/><rect class="cls-1" x="45.46" y="83.25" width="0.48" height="4.96"/><rect class="cls-1" x="45.94" y="83.25" width="0.48" height="4.96"/><rect class="cls-1" x="46.42" y="83.25" width="0.48" height="4.96"/><rect class="cls-1" x="46.9" y="83.25" width="0.48" height="4.96"/><rect class="cls-1" x="47.39" y="83.25" width="0.48" height="4.96"/><rect class="cls-1" x="47.87" y="83.25" width="0.48" height="4.96"/><rect class="cls-1" x="48.35" y="83.25" width="0.48" height="4.96"/><rect class="cls-1" x="48.83" y="83.25" width="0.48" height="4.96"/><rect class="cls-1" x="49.31" y="83.25" width="0.48" height="4.96"/><rect class="cls-1" x="49.79" y="83.25" width="0.48" height="4.96"/><rect class="cls-1" x="50.27" y="83.25" width="0.48" height="4.96"/><rect class="cls-1" x="50.75" y="83.25" width="0.48" height="4.96"/><path class="cls-1" d="M101.23,136.87v0Z" transform="translate(-50 -48.66)"/></g><rect id="SVGID-8" data-name="SVGID" class="cls-1" x="18.01" y="56.29" width="33.22" height="4.96"/><g class="cls-5"><rect class="cls-1" x="18.01" y="56.29" width="0.04" height="4.96"/><rect class="cls-1" x="18.05" y="56.29" width="0.48" height="4.96"/><rect class="cls-1" x="18.53" y="56.29" width="0.48" height="4.96"/><rect class="cls-1" x="19.01" y="56.29" width="0.48" height="4.96"/><rect class="cls-1" x="19.49" y="56.29" width="0.48" height="4.96"/><rect class="cls-1" x="19.97" y="56.29" width="0.48" height="4.96"/><rect class="cls-1" x="20.45" y="56.29" width="0.48" height="4.96"/><rect class="cls-1" x="20.94" y="56.29" width="0.48" height="4.96"/><rect class="cls-1" x="21.42" y="56.29" width="0.48" height="4.96"/><rect class="cls-1" x="21.9" y="56.29" width="0.48" height="4.96"/><rect class="cls-1" x="22.38" y="56.29" width="0.48" height="4.96"/><rect class="cls-1" x="22.86" y="56.29" width="0.48" height="4.96"/><rect class="cls-1" x="23.34" y="56.29" width="0.48" height="4.96"/><rect class="cls-1" x="23.82" y="56.29" width="0.48" height="4.96"/><rect class="cls-1" x="24.3" y="56.29" width="0.48" height="4.96"/><rect class="cls-1" x="24.78" y="56.29" width="0.48" height="4.96"/><rect class="cls-1" x="25.26" y="56.29" width="0.48" height="4.96"/><rect class="cls-1" x="25.74" y="56.29" width="0.48" height="4.96"/><rect class="cls-1" x="26.23" y="56.29" width="0.48" height="4.96"/><rect class="cls-1" x="26.71" y="56.29" width="0.48" height="4.96"/><rect class="cls-1" x="27.19" y="56.29" width="0.48" height="4.96"/><rect class="cls-1" x="27.67" y="56.29" width="0.48" height="4.96"/><rect class="cls-1" x="28.15" y="56.29" width="0.48" height="4.96"/><rect class="cls-1" x="28.63" y="56.29" width="0.48" height="4.96"/><rect class="cls-1" x="29.11" y="56.29" width="0.48" height="4.96"/><rect class="cls-1" x="29.59" y="56.29" width="0.48" height="4.96"/><rect class="cls-1" x="30.07" y="56.29" width="0.48" height="4.96"/><rect class="cls-1" x="30.55" y="56.29" width="0.48" height="4.96"/><rect class="cls-1" x="31.03" y="56.29" width="0.48" height="4.96"/><rect class="cls-1" x="31.52" y="56.29" width="0.48" height="4.96"/><rect class="cls-1" x="32" y="56.29" width="0.48" height="4.96"/><rect class="cls-1" x="32.48" y="56.29" width="0.48" height="4.96"/><rect class="cls-1" x="32.96" y="56.29" width="0.48" height="4.96"/><rect class="cls-1" x="33.44" y="56.29" width="0.48" height="4.96"/><rect class="cls-1" x="33.92" y="56.29" width="0.48" height="4.96"/><rect class="cls-1" x="34.4" y="56.29" width="0.48" height="4.96"/><rect class="cls-1" x="34.88" y="56.29" width="0.48" height="4.96"/><rect class="cls-1" x="35.36" y="56.29" width="0.48" height="4.96"/><rect class="cls-1" x="35.84" y="56.29" width="0.48" height="4.96"/><rect class="cls-1" x="36.32" y="56.29" width="0.48" height="4.96"/><rect class="cls-1" x="36.81" y="56.29" width="0.48" height="4.96"/><rect class="cls-1" x="37.29" y="56.29" width="0.48" height="4.96"/><rect class="cls-1" x="37.77" y="56.29" width="0.48" height="4.96"/><rect class="cls-1" x="38.25" y="56.29" width="0.48" height="4.96"/><rect class="cls-1" x="38.73" y="56.29" width="0.48" height="4.96"/><rect class="cls-1" x="39.21" y="56.29" width="0.48" height="4.96"/><rect class="cls-1" x="39.69" y="56.29" width="0.48" height="4.96"/><rect class="cls-1" x="40.17" y="56.29" width="0.48" height="4.96"/><rect class="cls-1" x="40.65" y="56.29" width="0.48" height="4.96"/><rect class="cls-1" x="41.13" y="56.29" width="0.48" height="4.96"/><rect class="cls-1" x="41.61" y="56.29" width="0.48" height="4.96"/><rect class="cls-1" x="42.1" y="56.29" width="0.48" height="4.96"/><rect class="cls-1" x="42.58" y="56.29" width="0.48" height="4.96"/><rect class="cls-1" x="43.06" y="56.29" width="0.48" height="4.96"/><rect class="cls-1" x="43.54" y="56.29" width="0.48" height="4.96"/><rect class="cls-1" x="44.02" y="56.29" width="0.48" height="4.96"/><rect class="cls-1" x="44.5" y="56.29" width="0.48" height="4.96"/><rect class="cls-1" x="44.98" y="56.29" width="0.48" height="4.96"/><rect class="cls-1" x="45.46" y="56.29" width="0.48" height="4.96"/><rect class="cls-1" x="45.94" y="56.29" width="0.48" height="4.96"/><rect class="cls-1" x="46.42" y="56.29" width="0.48" height="4.96"/><rect class="cls-1" x="46.9" y="56.29" width="0.48" height="4.96"/><rect class="cls-1" x="47.39" y="56.29" width="0.48" height="4.96"/><rect class="cls-1" x="47.87" y="56.29" width="0.48" height="4.96"/><rect class="cls-1" x="48.35" y="56.29" width="0.48" height="4.96"/><rect class="cls-1" x="48.83" y="56.29" width="0.48" height="4.96"/><rect class="cls-1" x="49.31" y="56.29" width="0.48" height="4.96"/><rect class="cls-1" x="49.79" y="56.29" width="0.48" height="4.96"/><rect class="cls-1" x="50.27" y="56.29" width="0.48" height="4.96"/><rect class="cls-1" x="50.75" y="56.29" width="0.48" height="4.96"/><path class="cls-1" d="M101.23,109.91v0Z" transform="translate(-50 -48.66)"/></g><rect class="cls-1" x="18" y="42.81" width="50.32" height="4.96"/><rect class="cls-1" x="18" y="29.33" width="50.32" height="4.96"/><path class="cls-1" d="M109.53,151.34H50V48.66h64.57l21.75,23v32.74a2.48,2.48,0,0,1-5,0V73.63l-18.93-20H55v92.76h54.57a2.48,2.48,0,0,1,0,5Z" transform="translate(-50 -48.66)"/><path class="cls-1" d="M125.26,139.88a13.28,13.28,0,1,1,13.29-13.28A13.28,13.28,0,0,1,125.26,139.88Zm0-21.6a8.32,8.32,0,1,0,8.33,8.32A8.34,8.34,0,0,0,125.26,118.28Z" transform="translate(-50 -48.66)"/></svg>