<svg id="Layer_1" data-name="Layer 1" xmlns="http://www.w3.org/2000/svg" viewBox="0 0 18.75 17.74"><defs><style>.cls-1{fill:#e20613;}</style></defs><title>File_Extractor_V3</title><path class="cls-1" d="M126.58,77.45c-.64,0-1.28,0-1.93,0-.3,0-.4-.09-.4-.4,0-1,0-2.1,0-3.15,0-.4-.14-.54-.53-.53-1.1,0-2.19,0-3.29,0a1.19,1.19,0,0,0-.57.24c-.27.17-.49.54-.76.57-.8.07-1.61,0-2.44,0V72.32c.57,0,1.1,0,1.64,0,.15,0,.38-.07.44-.18a.58.58,0,0,0-.13-.45c-1-1.11-2-2.21-2.93-3.31-.24-.28-.44-.26-.68,0-1,1.1-1.92,2.19-2.87,3.3a.52.52,0,0,0-.13.44.56.56,0,0,0,.43.18c.52,0,1,0,1.59,0v1.91H108.8c-.39,0-.55.13-.55.53,0,3,0,5.93,0,8.89a2.21,2.21,0,0,0,2.28,2.26c3.87,0,7.73,0,11.6,0a2.8,2.8,0,0,0,2.68-1.84c.73-2,1.43-4.07,2.13-6.1C127.08,77.59,127,77.45,126.58,77.45Zm-17.29-2.62c1.57,0,3.15,0,4.72,0,.62,0,.65,0,.66-.63s0-1.34,0-2c0-.33-.13-.48-.47-.47s-.78,0-1.29,0l2.45-2.8,2.48,2.8h-1.21c-.53,0-.58,0-.58.57,0,.69,0,1.37,0,2.06,0,.36.14.49.49.49.85,0,1.7,0,2.54,0a1.64,1.64,0,0,0,.84-.46,1.41,1.41,0,0,1,1-.38c.88,0,1.77,0,2.69,0v1.68l-.46,0H109.34c-.34,0-.5-.06-.49-.45S109,74.83,109.29,74.83ZM109,84.21a4.14,4.14,0,0,1-.09-.6q0-3.48,0-7c0-.12,0-.23,0-.35h14.73v1.13h-.55c-3.67,0-7.35,0-11,0a.75.75,0,0,0-.84.61c-.65,1.93-1.33,3.85-2,5.77A.77.77,0,0,1,109,84.21Zm16.79-4.63-1.41,4A2.32,2.32,0,0,1,122,85.32H110.41c-.82-.06-1-.29-.71-1,.67-1.94,1.36-3.88,2-5.82a.49.49,0,0,1,.54-.42h13.57l.44,0C126.09,78.6,125.92,79.09,125.75,79.58Z" transform="translate(-108.25 -68.18)"/></svg>