<svg id="Layer_1" data-name="Layer 1" xmlns="http://www.w3.org/2000/svg" viewBox="0 0 18.75 17.74"><defs><style>.cls-1{fill:#009ee2;}</style></defs><title>File_Extractor_V2</title><path class="cls-1" d="M83.45,116.2c-.65,0-1.29,0-1.93,0-.31,0-.41-.09-.4-.39,0-1.06,0-2.11,0-3.16,0-.4-.14-.54-.54-.53-1.09,0-2.19,0-3.28,0a1.18,1.18,0,0,0-.58.24c-.26.18-.49.54-.75.57-.8.07-1.62,0-2.44,0v-1.9c.56,0,1.1,0,1.63,0,.16,0,.38-.07.44-.18s0-.34-.13-.45c-1-1.11-2-2.2-2.92-3.31-.25-.28-.45-.26-.68,0-1,1.1-1.93,2.19-2.88,3.3-.09.11-.18.34-.13.44a.6.6,0,0,0,.44.19c.52,0,1,0,1.58,0V113H65.67c-.39,0-.55.13-.55.54,0,3,0,5.92,0,8.88a2.2,2.2,0,0,0,2.28,2.26c3.86,0,7.73,0,11.59,0a2.79,2.79,0,0,0,2.68-1.84c.74-2,1.43-4.06,2.14-6.1C84,116.35,83.84,116.2,83.45,116.2Zm-17.3-2.62h4.73c.62,0,.65,0,.65-.64v-2c0-.33-.13-.48-.47-.47s-.77,0-1.28,0l2.44-2.79,2.49,2.79H73.49c-.53,0-.58,0-.58.57,0,.69,0,1.37,0,2.06,0,.36.14.49.49.49.85,0,1.69,0,2.54,0a1.62,1.62,0,0,0,.83-.45,1.35,1.35,0,0,1,1-.38c.89,0,1.78,0,2.7,0v1.68l-.46,0H66.21c-.34,0-.51-.06-.5-.45S65.84,113.58,66.15,113.58ZM65.83,123a3.13,3.13,0,0,1-.1-.6v-7c0-.11,0-.23,0-.35H80.5v1.14h-.56c-3.67,0-7.34,0-11,0a.75.75,0,0,0-.83.61c-.65,1.93-1.34,3.85-2,5.77A.84.84,0,0,1,65.83,123Zm16.79-4.63c-.47,1.35-.94,2.7-1.42,4a2.3,2.3,0,0,1-2.37,1.69H67.27c-.81-.07-1-.3-.71-1q1-2.91,2-5.82c.1-.29.21-.42.55-.42,4.52,0,9,0,13.56,0l.44,0Z" transform="translate(-65.12 -106.93)"/></svg>