<svg id="Layer_1" data-name="Layer 1" xmlns="http://www.w3.org/2000/svg" xmlns:xlink="http://www.w3.org/1999/xlink" viewBox="0 0 100 120.1"><defs><style>.cls-1{fill:#008d36;}.cls-2{clip-path:url(#clip-path);}</style><clipPath id="clip-path" transform="translate(-50 -39.95)"><path id="SVGID" class="cls-1" d="M129.07,90c2.94.89,6.17,2,6.14,5.94,0,3.2-2.48,5.3-6.14,5.74v4.06h-2.54v-4a12.22,12.22,0,0,1-7.17-3.14l1.47-2.94a11.06,11.06,0,0,0,5.7,2.85V92.72c-2.88-.87-6-1.93-6-5.77,0-3.08,2.36-5.13,6-5.53V77.61h2.54v3.78a12.8,12.8,0,0,1,5.88,2l-1.41,3a12.85,12.85,0,0,0-4.47-1.73Zm-2.54-.87V84.62c-1.35.23-2.19.92-2.19,2C124.34,87.91,125.24,88.63,126.53,89.14Zm2.54,9.32c1.5-.32,2.36-1.13,2.36-2.34s-1-2.07-2.36-2.62Z"/></clipPath></defs><title>Finance_Documents</title><rect class="cls-1" x="18.33" y="17.46" width="40.84" height="5.92"/><rect class="cls-1" x="18.33" y="37.27" width="40.84" height="5.92"/><rect class="cls-1" x="18.33" y="57.09" width="40.84" height="5.92"/><rect class="cls-1" x="18.93" y="76.91" width="61.85" height="5.92"/><rect class="cls-1" x="18.93" y="96.73" width="61.85" height="5.92"/><path class="cls-1" d="M122.45,45.87l21.63,22.86v85.4H55.92V45.87h66.53M125,40H50v120.1H150V66.37L125,40Z" transform="translate(-50 -39.95)"/><polygon class="cls-1" points="97.71 29.38 69.75 29.38 69.75 0 75.67 0 75.67 23.46 97.71 23.46 97.71 29.38"/><path id="SVGID-2" data-name="SVGID" class="cls-1" d="M129.07,90c2.94.89,6.17,2,6.14,5.94,0,3.2-2.48,5.3-6.14,5.74v4.06h-2.54v-4a12.22,12.22,0,0,1-7.17-3.14l1.47-2.94a11.06,11.06,0,0,0,5.7,2.85V92.72c-2.88-.87-6-1.93-6-5.77,0-3.08,2.36-5.13,6-5.53V77.61h2.54v3.78a12.8,12.8,0,0,1,5.88,2l-1.41,3a12.85,12.85,0,0,0-4.47-1.73Zm-2.54-.87V84.62c-1.35.23-2.19.92-2.19,2C124.34,87.91,125.24,88.63,126.53,89.14Zm2.54,9.32c1.5-.32,2.36-1.13,2.36-2.34s-1-2.07-2.36-2.62Z" transform="translate(-50 -39.95)"/><g class="cls-2"><rect class="cls-1" x="79.07" y="53.55" width="0.08" height="4.96"/><rect class="cls-1" x="79.15" y="53.55" width="0.12" height="4.96"/><rect class="cls-1" x="79.27" y="53.55" width="0.12" height="4.96"/><rect class="cls-1" x="79.4" y="53.55" width="0.12" height="4.96"/><rect class="cls-1" x="79.52" y="53.55" width="0.12" height="4.96"/><rect class="cls-1" x="79.64" y="53.55" width="0.12" height="4.96"/><rect class="cls-1" x="79.77" y="53.55" width="0.12" height="4.96"/><rect class="cls-1" x="79.89" y="53.55" width="0.12" height="4.96"/><rect class="cls-1" x="80.02" y="53.55" width="0.12" height="4.96"/><rect class="cls-1" x="80.14" y="53.55" width="0.12" height="4.96"/><rect class="cls-1" x="80.26" y="53.55" width="0.12" height="4.96"/><rect class="cls-1" x="80.39" y="53.55" width="0.12" height="4.96"/><rect class="cls-1" x="80.51" y="53.55" width="0.12" height="4.96"/><rect class="cls-1" x="80.63" y="53.55" width="0.12" height="4.96"/><rect class="cls-1" x="80.76" y="53.55" width="0.12" height="4.96"/><rect class="cls-1" x="80.88" y="53.55" width="0.12" height="4.96"/><rect class="cls-1" x="81" y="53.55" width="0.12" height="4.96"/><rect class="cls-1" x="81.13" y="53.55" width="0.12" height="4.96"/><rect class="cls-1" x="81.25" y="53.55" width="0.12" height="4.96"/><rect class="cls-1" x="81.38" y="53.55" width="0.06" height="4.96"/><rect class="cls-1" x="74.34" y="44.67" width="0.1" height="4.53"/><rect class="cls-1" x="74.45" y="44.67" width="0.12" height="4.53"/><rect class="cls-1" x="74.57" y="44.67" width="0.12" height="4.53"/><rect class="cls-1" x="74.7" y="44.67" width="0.12" height="4.53"/><rect class="cls-1" x="74.82" y="44.67" width="0.12" height="4.53"/><rect class="cls-1" x="74.94" y="44.67" width="0.12" height="4.53"/><rect class="cls-1" x="75.07" y="44.67" width="0.12" height="4.53"/><rect class="cls-1" x="75.19" y="44.67" width="0.12" height="4.53"/><rect class="cls-1" x="75.31" y="44.67" width="0.12" height="4.53"/><rect class="cls-1" x="75.44" y="44.67" width="0.12" height="4.53"/><rect class="cls-1" x="75.56" y="44.67" width="0.12" height="4.53"/><rect class="cls-1" x="75.69" y="44.67" width="0.12" height="4.53"/><rect class="cls-1" x="75.81" y="44.67" width="0.12" height="4.53"/><rect class="cls-1" x="75.93" y="44.67" width="0.12" height="4.53"/><rect class="cls-1" x="76.06" y="44.67" width="0.12" height="4.53"/><rect class="cls-1" x="76.18" y="44.67" width="0.12" height="4.53"/><rect class="cls-1" x="76.3" y="44.67" width="0.12" height="4.53"/><rect class="cls-1" x="76.43" y="44.67" width="0.11" height="4.53"/><rect class="cls-1" x="69.36" y="37.67" width="0.02" height="28.14"/><rect class="cls-1" x="69.38" y="37.67" width="0.12" height="28.14"/><rect class="cls-1" x="69.5" y="37.67" width="0.12" height="28.14"/><rect class="cls-1" x="69.62" y="37.67" width="0.12" height="28.14"/><rect class="cls-1" x="69.75" y="37.67" width="0.12" height="28.14"/><rect class="cls-1" x="69.87" y="37.67" width="0.12" height="28.14"/><rect class="cls-1" x="69.99" y="37.67" width="0.12" height="28.14"/><rect class="cls-1" x="70.12" y="37.67" width="0.12" height="28.14"/><rect class="cls-1" x="70.24" y="37.67" width="0.12" height="28.14"/><rect class="cls-1" x="70.37" y="37.67" width="0.12" height="28.14"/><rect class="cls-1" x="70.49" y="37.67" width="0.12" height="28.14"/><rect class="cls-1" x="70.61" y="37.67" width="0.12" height="28.14"/><rect class="cls-1" x="70.74" y="37.67" width="0.12" height="28.14"/><rect class="cls-1" x="70.86" y="37.67" width="0.12" height="28.14"/><rect class="cls-1" x="70.98" y="37.67" width="0.12" height="28.14"/><rect class="cls-1" x="71.11" y="37.67" width="0.12" height="28.14"/><rect class="cls-1" x="71.23" y="37.67" width="0.12" height="28.14"/><rect class="cls-1" x="71.36" y="37.67" width="0.12" height="28.14"/><rect class="cls-1" x="71.48" y="37.67" width="0.12" height="28.14"/><rect class="cls-1" x="71.6" y="37.67" width="0.12" height="28.14"/><rect class="cls-1" x="71.73" y="37.67" width="0.12" height="28.14"/><rect class="cls-1" x="71.85" y="37.67" width="0.12" height="28.14"/><rect class="cls-1" x="71.97" y="37.67" width="0.12" height="28.14"/><rect class="cls-1" x="72.1" y="37.67" width="0.12" height="28.14"/><rect class="cls-1" x="72.22" y="37.67" width="0.12" height="28.14"/><rect class="cls-1" x="72.34" y="37.67" width="0.12" height="28.14"/><rect class="cls-1" x="72.47" y="37.67" width="0.12" height="28.14"/><rect class="cls-1" x="72.59" y="37.67" width="0.12" height="28.14"/><rect class="cls-1" x="72.72" y="37.67" width="0.12" height="28.14"/><rect class="cls-1" x="72.84" y="37.67" width="0.12" height="28.14"/><rect class="cls-1" x="72.96" y="37.67" width="0.12" height="28.14"/><rect class="cls-1" x="73.09" y="37.67" width="0.12" height="28.14"/><rect class="cls-1" x="73.21" y="37.67" width="0.12" height="28.14"/><rect class="cls-1" x="73.33" y="37.67" width="0.12" height="28.14"/><rect class="cls-1" x="73.46" y="37.67" width="0.12" height="28.14"/><rect class="cls-1" x="73.58" y="37.67" width="0.12" height="28.14"/><rect class="cls-1" x="73.71" y="37.67" width="0.12" height="28.14"/><rect class="cls-1" x="73.83" y="37.67" width="0.12" height="28.14"/><rect class="cls-1" x="73.95" y="37.67" width="0.12" height="28.14"/><rect class="cls-1" x="74.08" y="37.67" width="0.12" height="28.14"/><rect class="cls-1" x="74.2" y="37.67" width="0.12" height="28.14"/><rect class="cls-1" x="74.32" y="37.67" width="0.12" height="28.14"/><rect class="cls-1" x="74.45" y="37.67" width="0.12" height="28.14"/><rect class="cls-1" x="74.57" y="37.67" width="0.12" height="28.14"/><rect class="cls-1" x="74.7" y="37.67" width="0.12" height="28.14"/><rect class="cls-1" x="74.82" y="37.67" width="0.12" height="28.14"/><rect class="cls-1" x="74.94" y="37.67" width="0.12" height="28.14"/><rect class="cls-1" x="75.07" y="37.67" width="0.12" height="28.14"/><rect class="cls-1" x="75.19" y="37.67" width="0.12" height="28.14"/><rect class="cls-1" x="75.31" y="37.67" width="0.12" height="28.14"/><rect class="cls-1" x="75.44" y="37.67" width="0.12" height="28.14"/><rect class="cls-1" x="75.56" y="37.67" width="0.12" height="28.14"/><rect class="cls-1" x="75.69" y="37.67" width="0.12" height="28.14"/><rect class="cls-1" x="75.81" y="37.67" width="0.12" height="28.14"/><rect class="cls-1" x="75.93" y="37.67" width="0.12" height="28.14"/><rect class="cls-1" x="76.06" y="37.67" width="0.12" height="28.14"/><rect class="cls-1" x="76.18" y="37.67" width="0.12" height="28.14"/><rect class="cls-1" x="76.3" y="37.67" width="0.12" height="28.14"/><rect class="cls-1" x="76.43" y="37.67" width="0.12" height="28.14"/><rect class="cls-1" x="76.55" y="37.67" width="0.12" height="28.14"/><rect class="cls-1" x="76.67" y="37.67" width="0.12" height="28.14"/><rect class="cls-1" x="76.8" y="37.67" width="0.12" height="28.14"/><rect class="cls-1" x="76.92" y="37.67" width="0.12" height="28.14"/><rect class="cls-1" x="77.05" y="37.67" width="0.12" height="28.14"/><rect class="cls-1" x="77.17" y="37.67" width="0.12" height="28.14"/><rect class="cls-1" x="77.29" y="37.67" width="0.12" height="28.14"/><rect class="cls-1" x="77.42" y="37.67" width="0.12" height="28.14"/><rect class="cls-1" x="77.54" y="37.67" width="0.12" height="28.14"/><rect class="cls-1" x="77.66" y="37.67" width="0.12" height="28.14"/><rect class="cls-1" x="77.79" y="37.67" width="0.12" height="28.14"/><rect class="cls-1" x="77.91" y="37.67" width="0.12" height="28.14"/><rect class="cls-1" x="78.04" y="37.67" width="0.12" height="28.14"/><rect class="cls-1" x="78.16" y="37.67" width="0.12" height="28.14"/><rect class="cls-1" x="78.28" y="37.67" width="0.12" height="28.14"/><rect class="cls-1" x="78.41" y="37.67" width="0.12" height="28.14"/><rect class="cls-1" x="78.53" y="37.67" width="0.12" height="28.14"/><rect class="cls-1" x="78.65" y="37.67" width="0.12" height="28.14"/><rect class="cls-1" x="78.78" y="37.67" width="0.12" height="28.14"/><rect class="cls-1" x="78.9" y="37.67" width="0.12" height="28.14"/><rect class="cls-1" x="79.03" y="37.67" width="0.12" height="28.14"/><rect class="cls-1" x="79.15" y="37.67" width="0.12" height="28.14"/><rect class="cls-1" x="79.27" y="37.67" width="0.12" height="28.14"/><rect class="cls-1" x="79.4" y="37.67" width="0.12" height="28.14"/><rect class="cls-1" x="79.52" y="37.67" width="0.12" height="28.14"/><rect class="cls-1" x="79.64" y="37.67" width="0.12" height="28.14"/><rect class="cls-1" x="79.77" y="37.67" width="0.12" height="28.14"/><rect class="cls-1" x="79.89" y="37.67" width="0.12" height="28.14"/><rect class="cls-1" x="80.02" y="37.67" width="0.12" height="28.14"/><rect class="cls-1" x="80.14" y="37.67" width="0.12" height="28.14"/><rect class="cls-1" x="80.26" y="37.67" width="0.12" height="28.14"/><rect class="cls-1" x="80.39" y="37.67" width="0.12" height="28.14"/><rect class="cls-1" x="80.51" y="37.67" width="0.12" height="28.14"/><rect class="cls-1" x="80.63" y="37.67" width="0.12" height="28.14"/><rect class="cls-1" x="80.76" y="37.67" width="0.12" height="28.14"/><rect class="cls-1" x="80.88" y="37.67" width="0.12" height="28.14"/><rect class="cls-1" x="81" y="37.67" width="0.12" height="28.14"/><rect class="cls-1" x="81.13" y="37.67" width="0.12" height="28.14"/><rect class="cls-1" x="81.25" y="37.67" width="0.12" height="28.14"/><rect class="cls-1" x="81.38" y="37.67" width="0.12" height="28.14"/><rect class="cls-1" x="81.5" y="37.67" width="0.12" height="28.14"/><rect class="cls-1" x="81.62" y="37.67" width="0.12" height="28.14"/><rect class="cls-1" x="81.75" y="37.67" width="0.12" height="28.14"/><rect class="cls-1" x="81.87" y="37.67" width="0.12" height="28.14"/><rect class="cls-1" x="81.99" y="37.67" width="0.12" height="28.14"/><rect class="cls-1" x="82.12" y="37.67" width="0.12" height="28.14"/><rect class="cls-1" x="82.24" y="37.67" width="0.12" height="28.14"/><rect class="cls-1" x="82.37" y="37.67" width="0.12" height="28.14"/><rect class="cls-1" x="82.49" y="37.67" width="0.12" height="28.14"/><rect class="cls-1" x="82.61" y="37.67" width="0.12" height="28.14"/><rect class="cls-1" x="82.74" y="37.67" width="0.12" height="28.14"/><rect class="cls-1" x="82.86" y="37.67" width="0.12" height="28.14"/><rect class="cls-1" x="82.98" y="37.67" width="0.12" height="28.14"/><rect class="cls-1" x="83.11" y="37.67" width="0.12" height="28.14"/><rect class="cls-1" x="83.23" y="37.67" width="0.12" height="28.14"/><rect class="cls-1" x="83.36" y="37.67" width="0.12" height="28.14"/><rect class="cls-1" x="83.48" y="37.67" width="0.12" height="28.14"/><rect class="cls-1" x="83.6" y="37.67" width="0.12" height="28.14"/><rect class="cls-1" x="83.73" y="37.67" width="0.12" height="28.14"/><rect class="cls-1" x="83.85" y="37.67" width="0.12" height="28.14"/><rect class="cls-1" x="83.97" y="37.67" width="0.12" height="28.14"/><rect class="cls-1" x="84.1" y="37.67" width="0.12" height="28.14"/><rect class="cls-1" x="84.22" y="37.67" width="0.12" height="28.14"/><rect class="cls-1" x="84.35" y="37.67" width="0.12" height="28.14"/><rect class="cls-1" x="84.47" y="37.67" width="0.12" height="28.14"/><rect class="cls-1" x="84.59" y="37.67" width="0.12" height="28.14"/><rect class="cls-1" x="84.72" y="37.67" width="0.12" height="28.14"/><rect class="cls-1" x="84.84" y="37.67" width="0.12" height="28.14"/><rect class="cls-1" x="84.96" y="37.67" width="0.12" height="28.14"/><rect class="cls-1" x="85.09" y="37.67" width="0.12" height="28.14"/><rect class="cls-1" x="85.21" y="37.67" width="0.03" height="28.14"/></g></svg>