<svg id="Layer_1" data-name="Layer 1" xmlns="http://www.w3.org/2000/svg" xmlns:xlink="http://www.w3.org/1999/xlink" viewBox="0 0 100 100"><defs><style>.cls-1{fill:#076484;}.cls-2{clip-path:url(#clip-path);}</style><clipPath id="clip-path" transform="translate(-50 -50)"><path id="SVGID" class="cls-1" d="M107.63,100a7.63,7.63,0,0,1-7.63,7.64,6.62,6.62,0,0,1-1.1-.09,7.63,7.63,0,1,1,8.73-7.55Z"/></clipPath></defs><title>Fixed_Assets</title><path class="cls-1" d="M100,118c-.41,0-.83,0-1.25-.05A17.95,17.95,0,1,1,100,118Zm0-31.38a13.34,13.34,0,0,0-.91,26.64c.33,0,.62,0,.91,0a13.34,13.34,0,0,0,0-26.68Z" transform="translate(-50 -50)"/><path id="SVGID-2" data-name="SVGID" class="cls-1" d="M107.63,100a7.63,7.63,0,0,1-7.63,7.64,6.62,6.62,0,0,1-1.1-.09,7.63,7.63,0,1,1,8.73-7.55Z" transform="translate(-50 -50)"/><g class="cls-2"><rect class="cls-1" x="42.37" y="42.37" width="0.02" height="15.27"/><rect class="cls-1" x="42.38" y="42.37" width="0.22" height="15.27"/><rect class="cls-1" x="42.61" y="42.37" width="0.22" height="15.27"/><rect class="cls-1" x="42.83" y="42.37" width="0.22" height="15.27"/><rect class="cls-1" x="43.05" y="42.37" width="0.22" height="15.27"/><rect class="cls-1" x="43.27" y="42.37" width="0.22" height="15.27"/><rect class="cls-1" x="43.49" y="42.37" width="0.22" height="15.27"/><rect class="cls-1" x="43.71" y="42.37" width="0.22" height="15.27"/><rect class="cls-1" x="43.93" y="42.37" width="0.22" height="15.27"/><rect class="cls-1" x="44.15" y="42.37" width="0.22" height="15.27"/><rect class="cls-1" x="44.37" y="42.37" width="0.22" height="15.27"/><rect class="cls-1" x="44.59" y="42.37" width="0.22" height="15.27"/><rect class="cls-1" x="44.82" y="42.37" width="0.22" height="15.27"/><rect class="cls-1" x="45.04" y="42.37" width="0.22" height="15.27"/><rect class="cls-1" x="45.26" y="42.37" width="0.22" height="15.27"/><rect class="cls-1" x="45.48" y="42.37" width="0.22" height="15.27"/><rect class="cls-1" x="45.7" y="42.37" width="0.22" height="15.27"/><rect class="cls-1" x="45.92" y="42.37" width="0.22" height="15.27"/><rect class="cls-1" x="46.14" y="42.37" width="0.22" height="15.27"/><rect class="cls-1" x="46.36" y="42.37" width="0.22" height="15.27"/><rect class="cls-1" x="46.58" y="42.37" width="0.22" height="15.27"/><rect class="cls-1" x="46.8" y="42.37" width="0.22" height="15.27"/><rect class="cls-1" x="47.03" y="42.37" width="0.22" height="15.27"/><rect class="cls-1" x="47.25" y="42.37" width="0.22" height="15.27"/><rect class="cls-1" x="47.47" y="42.37" width="0.22" height="15.27"/><rect class="cls-1" x="47.69" y="42.37" width="0.22" height="15.27"/><rect class="cls-1" x="47.91" y="42.37" width="0.22" height="15.27"/><rect class="cls-1" x="48.13" y="42.37" width="0.22" height="15.27"/><rect class="cls-1" x="48.35" y="42.37" width="0.22" height="15.27"/><rect class="cls-1" x="48.57" y="42.37" width="0.22" height="15.27"/><rect class="cls-1" x="48.79" y="42.37" width="0.22" height="15.27"/><rect class="cls-1" x="49.01" y="42.37" width="0.22" height="15.27"/><rect class="cls-1" x="49.24" y="42.37" width="0.22" height="15.27"/><rect class="cls-1" x="49.46" y="42.37" width="0.22" height="15.27"/><rect class="cls-1" x="49.68" y="42.37" width="0.22" height="15.27"/><rect class="cls-1" x="49.9" y="42.37" width="0.22" height="15.27"/><rect class="cls-1" x="50.12" y="42.37" width="0.22" height="15.27"/><rect class="cls-1" x="50.34" y="42.37" width="0.22" height="15.27"/><rect class="cls-1" x="50.56" y="42.37" width="0.22" height="15.27"/><rect class="cls-1" x="50.78" y="42.37" width="0.22" height="15.27"/><rect class="cls-1" x="51" y="42.37" width="0.22" height="15.27"/><rect class="cls-1" x="51.23" y="42.37" width="0.22" height="15.27"/><rect class="cls-1" x="51.45" y="42.37" width="0.22" height="15.27"/><rect class="cls-1" x="51.67" y="42.37" width="0.22" height="15.27"/><rect class="cls-1" x="51.89" y="42.37" width="0.22" height="15.27"/><rect class="cls-1" x="52.11" y="42.37" width="0.22" height="15.27"/><rect class="cls-1" x="52.33" y="42.37" width="0.22" height="15.27"/><rect class="cls-1" x="52.55" y="42.37" width="0.22" height="15.27"/><rect class="cls-1" x="52.77" y="42.37" width="0.22" height="15.27"/><rect class="cls-1" x="52.99" y="42.37" width="0.22" height="15.27"/><rect class="cls-1" x="53.21" y="42.37" width="0.22" height="15.27"/><rect class="cls-1" x="53.44" y="42.37" width="0.22" height="15.27"/><rect class="cls-1" x="53.66" y="42.37" width="0.22" height="15.27"/><rect class="cls-1" x="53.88" y="42.37" width="0.22" height="15.27"/><rect class="cls-1" x="54.1" y="42.37" width="0.22" height="15.27"/><rect class="cls-1" x="54.32" y="42.37" width="0.22" height="15.27"/><rect class="cls-1" x="54.54" y="42.37" width="0.22" height="15.27"/><rect class="cls-1" x="54.76" y="42.37" width="0.22" height="15.27"/><rect class="cls-1" x="54.98" y="42.37" width="0.22" height="15.27"/><rect class="cls-1" x="55.2" y="42.37" width="0.22" height="15.27"/><rect class="cls-1" x="55.42" y="42.37" width="0.22" height="15.27"/><rect class="cls-1" x="55.65" y="42.37" width="0.22" height="15.27"/><rect class="cls-1" x="55.87" y="42.37" width="0.22" height="15.27"/><rect class="cls-1" x="56.09" y="42.37" width="0.22" height="15.27"/><rect class="cls-1" x="56.31" y="42.37" width="0.22" height="15.27"/><rect class="cls-1" x="56.53" y="42.37" width="0.22" height="15.27"/><rect class="cls-1" x="56.75" y="42.37" width="0.22" height="15.27"/><rect class="cls-1" x="56.97" y="42.37" width="0.22" height="15.27"/><rect class="cls-1" x="57.19" y="42.37" width="0.22" height="15.27"/><rect class="cls-1" x="57.41" y="42.37" width="0.22" height="15.27"/><path class="cls-1" d="M107.63,107.64v0Z" transform="translate(-50 -50)"/></g><path class="cls-1" d="M99.78,150c-.63,0-1.25,0-1.87,0l.19-4.7c.57,0,1.13,0,1.7,0Zm1.87,0-.15-4.69c.57,0,1.14-.05,1.7-.09l.33,4.69C102.91,149.92,102.28,150,101.65,150ZM96,149.85c-.63,0-1.25-.11-1.87-.19l.54-4.66c.56.06,1.13.12,1.69.16Zm9.36-.14-.51-4.67c.57-.06,1.13-.13,1.69-.21l.67,4.65C106.64,149.57,106,149.65,105.4,149.71Zm-13.09-.3c-.62-.09-1.24-.2-1.85-.32l.89-4.61c.56.11,1.11.2,1.68.29Zm16.8-.24-.86-4.62c.56-.1,1.12-.21,1.67-.34l1,4.59C110.34,148.93,109.72,149.06,109.11,149.17Zm-20.49-.47c-.61-.14-1.21-.3-1.82-.46L88,143.71c.55.15,1.1.29,1.65.41Zm24.15-.35-1.2-4.54c.55-.14,1.09-.3,1.63-.46l1.37,4.49Q113.67,148.11,112.77,148.35ZM85,147.71c-.59-.19-1.19-.39-1.78-.6l1.58-4.42c.53.19,1.07.37,1.61.54Zm31.35-.45-1.53-4.44c.53-.18,1.07-.38,1.59-.58l1.71,4.38C117.53,146.84,117,147.06,116.35,147.26Zm-34.88-.81c-.59-.23-1.16-.47-1.73-.73l1-2.26L80,141l-1.23,2.52.18.9-.57.11,0-.17-.26.54-1.2-.61L70.7,141.1l6.84-1.17.43-.08.34,1.67.71-1.36c.26.13.51.27.77.39l-.36-1.09a12.31,12.31,0,0,0,1.42-.56l1.25,2.73,1.11.46-.42,1,0,0,0,0Zm38.38-.54L118,141.6c.52-.23,1-.46,1.54-.71l2,4.24C121,145.4,120.42,145.66,119.85,145.91Zm3.37-1.62L121,140.13c.5-.26,1-.53,1.48-.81l2.34,4.07C124.32,143.7,123.77,144,123.22,144.29Zm3.25-1.86-2.49-4c.48-.3,1-.61,1.42-.92l2.64,3.89C127.52,141.75,127,142.1,126.47,142.43Zm-41.85-.22-2.43-4a13.2,13.2,0,0,0,1.25-.86l2.88,3.72A20.33,20.33,0,0,1,84.62,142.21Zm44.95-1.89-2.79-3.78,1.36-1,2.92,3.68C130.57,139.58,130.07,140,129.57,140.32Zm-41.71-.62-3.27-3.37a13.55,13.55,0,0,0,1-1.12l3.64,3A18,18,0,0,1,87.86,139.7ZM132.5,138l-3.05-3.57c.43-.37.85-.75,1.27-1.13l3.18,3.45C133.44,137.18,133,137.59,132.5,138Zm-42-1.47L86.51,134a12.09,12.09,0,0,0,.74-1.32l4.22,2.08A18.61,18.61,0,0,1,90.46,136.53Zm44.79-1.08-3.31-3.33c.4-.4.8-.8,1.19-1.22l3.43,3.21C136.13,134.56,135.7,135,135.25,135.45Zm-43-2.6-4.43-1.58a12.8,12.8,0,0,0,.43-1.46l4.58,1.06A19.5,19.5,0,0,1,92.27,132.85Zm45.54-.13-3.55-3.08c.37-.43.74-.87,1.09-1.31l3.66,2.94C138.62,131.76,138.22,132.24,137.81,132.72Zm2.35-2.93-3.77-2.8c.34-.46.67-.92,1-1.39l3.87,2.66C140.9,128.78,140.54,129.28,140.16,129.79Zm-47-.94-4.67-.53a13,13,0,0,0,.09-1.53h4.7C93.31,127.49,93.27,128.18,93.2,128.85Zm49.09-2.16-4-2.51c.31-.48.6-1,.89-1.45l4.06,2.36C142.94,125.63,142.62,126.16,142.29,126.69Zm-84.82-.4c-.33-.53-.65-1.07-1-1.61l1.79-1-.77-.14c.11-.57.24-1.14.4-1.69L55.61,123c-.29-.55-.57-1.11-.83-1.68l4-1.89a15.93,15.93,0,0,1,.86-1.7l4.07,2.35c-.25.44-.48.89-.69,1.36l-3.78-1.65c.17.35.35.7.53,1l-1.45.76,4.18,1.27c-.14.48-.26,1-.36,1.47l-1.21-.22Zm31.06-1a12.68,12.68,0,0,0-.25-1.5l4.58-1a17.55,17.55,0,0,1,.34,2Zm55.64-1.83L140,121.24c.27-.5.53-1,.78-1.52l4.22,2C144.75,122.34,144.47,122.9,144.17,123.45Zm-56.31-1.13c-.17-.47-.37-.94-.59-1.4l4.22-2.06a17.71,17.71,0,0,1,.8,1.9Zm58-2.25-4.3-1.89c.23-.52.44-1.05.65-1.57l4.37,1.72Q146.19,119.2,145.81,120.07ZM54,119.64c-.25-.57-.48-1.15-.71-1.74l4.39-1.68c.2.53.41,1,.64,1.57Zm32.52,0c-.28-.43-.58-.84-.89-1.23l3.64-3a18.11,18.11,0,0,1,1.2,1.67Zm-22-.76L60.78,116a17.86,17.86,0,0,1,1.31-1.57l3.44,3.2A13.49,13.49,0,0,0,64.55,118.84Zm20.06-1.6a13.59,13.59,0,0,0-1.14-1l2.88-3.7a18.05,18.05,0,0,1,1.55,1.35Zm-18-.62-3-3.57a15.21,15.21,0,0,1,1.63-1.24l2.63,3.89A13.43,13.43,0,0,0,66.62,116.62Zm80.57-.05L142.76,115c.18-.53.36-1.07.53-1.62l4.49,1.39C147.59,115.38,147.4,116,147.19,116.57Zm-94.53-.43c-.2-.59-.39-1.19-.57-1.79l4.5-1.35c.17.55.34,1.09.52,1.62Zm29.56-.76a13.18,13.18,0,0,0-1.34-.71l2-4.27a17.46,17.46,0,0,1,1.81,1Zm-13.08-.45L67,110.76a17.27,17.27,0,0,1,1.87-.84l1.68,4.39A10.73,10.73,0,0,0,69.14,114.93Zm10.33-.82a14.47,14.47,0,0,0-1.47-.4l1-4.59a15.22,15.22,0,0,1,2,.53ZM72,113.85l-1.17-4.55a19.5,19.5,0,0,1,2-.4l.63,4.66A12.1,12.1,0,0,0,72,113.85Zm4.52-.36c-.4,0-.81,0-1.23,0H75l-.11-4.7h.41c.56,0,1.11,0,1.64.07Zm71.8-.51-4.54-1.22c.15-.55.28-1.1.41-1.65l4.58,1C148.61,111.77,148.46,112.37,148.3,113Zm-96.71-.44c-.16-.6-.3-1.21-.44-1.82l4.59-1c.12.56.26,1.11.4,1.66Zm97.54-3.22-4.61-.87c.1-.56.19-1.11.28-1.68l4.65.7C149.35,108.09,149.25,108.71,149.13,109.32Zm-98.34-.44c-.11-.61-.21-1.23-.3-1.85l4.65-.66q.12.84.27,1.68Zm98.9-3.27-4.67-.52c.06-.56.11-1.12.16-1.69l4.68.34C149.82,104.37,149.76,105,149.69,105.61Zm-99.43-.44c-.06-.62-.11-1.25-.15-1.87l4.68-.31c0,.57.09,1.13.15,1.69Zm99.71-3.3-4.7-.17c0-.56,0-1.13,0-1.7,0-.3,0-.6,0-.91L150,99c0,.33,0,.66,0,1C150,100.63,150,101.25,150,101.87ZM50,101.42c0-.47,0-1,0-1.42v-.45l4.7,0V100c0,.43,0,.86,0,1.29Zm4.73-3.53-4.7-.21c0-.63.07-1.25.12-1.87l4.69.39C54.81,96.76,54.77,97.32,54.75,97.89Zm90.48-.49c0-.57-.08-1.13-.13-1.7l4.68-.44c.06.62.1,1.25.14,1.87ZM55,94.51l-4.67-.57c.08-.62.17-1.24.26-1.86l4.64.74C55.17,93.38,55.1,93.94,55,94.51ZM144.91,94c-.07-.57-.16-1.13-.25-1.69l4.63-.78c.1.61.2,1.23.28,1.85ZM55.56,91.15,51,90.24c.12-.62.26-1.23.4-1.84l4.57,1.09C55.79,90,55.67,90.59,55.56,91.15Zm88.78-.48c-.12-.56-.24-1.11-.38-1.66l4.56-1.13c.15.6.29,1.21.42,1.82Zm-88-2.82-4.53-1.26q.26-.9.54-1.8l4.47,1.43C56.66,86.76,56.5,87.3,56.35,87.85Zm87.17-.48c-.16-.54-.33-1.09-.5-1.62l4.45-1.48c.2.59.39,1.19.56,1.79ZM57.38,84.61,53,83c.21-.59.44-1.18.67-1.76L58,83C57.78,83.54,57.57,84.07,57.38,84.61Zm85.07-.46c-.2-.53-.4-1.06-.62-1.58l4.33-1.81q.36.87.69,1.74Zm-83.79-2.7-4.29-1.92q.39-.87.81-1.71l4.2,2.09C59.13,80.42,58.89,80.93,58.66,81.45ZM141.15,81c-.24-.51-.49-1-.74-1.52l4.18-2.13c.29.55.56,1.11.82,1.68Zm-81-2.62L56,76.16c.3-.55.61-1.1.93-1.64l4,2.4C60.72,77.41,60.44,77.9,60.17,78.4Zm79.44-.4c-.27-.49-.56-1-.85-1.47l4-2.43c.32.53.63,1.07.93,1.61ZM61.9,75.48,58,72.93c.34-.53.69-1.05,1-1.56l3.85,2.69C62.53,74.53,62.21,75,61.9,75.48Zm75.95-.38c-.31-.47-.63-.94-1-1.4L140.71,71c.37.51.72,1,1.06,1.54Zm-74-2.41-3.74-2.84c.38-.5.76-1,1.16-1.47l3.63,3Zm72-.35c-.35-.45-.7-.89-1.07-1.33l3.61-3c.4.48.79,1,1.17,1.46ZM66,70.06,62.48,67c.42-.47.84-.93,1.27-1.38l3.4,3.23Q66.57,69.41,66,70.06Zm67.7-.33c-.38-.42-.77-.84-1.17-1.24l3.38-3.27c.43.45.86.9,1.27,1.36ZM68.35,67.59l-3.29-3.36L66.43,63l3.15,3.48C69.16,66.81,68.75,67.2,68.35,67.59Zm63-.3c-.41-.4-.83-.78-1.25-1.16l3.12-3.51c.47.42.93.84,1.38,1.28Zm-60.48-2-3-3.6c.48-.4,1-.79,1.46-1.17l2.88,3.7ZM128.8,65,127.47,64l2.85-3.73q.74.57,1.47,1.17ZM73.54,63.22l-2.75-3.81c.51-.36,1-.72,1.54-1.06l2.61,3.91C74.47,62.57,74,62.89,73.54,63.22ZM126.09,63c-.46-.33-.93-.65-1.4-1l2.56-3.94c.53.35,1,.7,1.56,1.06ZM76.37,61.34l-2.46-4c.53-.33,1.07-.64,1.62-1l2.3,4.09Zm46.87-.23c-.48-.29-1-.58-1.47-.85L124,56.14l1.63.94ZM79.32,59.68,77.18,55.5c.55-.28,1.11-.56,1.68-.82l2,4.25C80.33,59.17,79.83,59.42,79.32,59.68Zm40.94-.21c-.5-.25-1-.5-1.53-.73l1.94-4.28c.57.26,1.14.53,1.7.81ZM82.39,58.25l-1.82-4.33,1.73-.7L84,57.62C83.44,57.82,82.91,58,82.39,58.25Zm34.77-.19c-.52-.21-1-.42-1.58-.61L117.19,53c.59.21,1.18.44,1.76.68Zm-31.59-1-1.5-4.46c.59-.2,1.19-.38,1.79-.56l1.33,4.5Zm28.4-.16c-.54-.17-1.08-.34-1.63-.49l1.28-4.52c.6.17,1.2.35,1.79.54Zm-25.15-.8-1.15-4.56c.6-.15,1.21-.29,1.82-.42l1,4.59C89.92,55.82,89.37,56,88.82,56.09ZM110.7,56c-.55-.13-1.1-.26-1.66-.37L110,51c.62.12,1.23.26,1.83.4Zm-18.56-.59-.81-4.63c.62-.11,1.24-.2,1.86-.29l.63,4.66C93.26,55.19,92.7,55.28,92.14,55.38Zm15.23-.09-1.68-.24.58-4.66,1.86.27Zm-11.86-.37-.46-4.68c.62-.06,1.24-.11,1.87-.15l.28,4.69C96.64,54.82,96.07,54.86,95.51,54.92Zm8.49-.05c-.57,0-1.13-.09-1.7-.11l.24-4.7,1.87.13Zm-5.1-.16L98.79,50h1.87l-.06,4.7Z" transform="translate(-50 -50)"/><path class="cls-1" d="M75.28,144.82c-.37,0-.75,0-1.24,0a18.06,18.06,0,0,1-16.8-18c0-.59,0-1.13.07-1.66a18,18,0,1,1,21,19.44A17.67,17.67,0,0,1,75.28,144.82Zm0-31.38A13.26,13.26,0,0,0,62,125.57a11.67,11.67,0,0,0-.06,1.21,13.36,13.36,0,0,0,12.44,13.3,12.34,12.34,0,0,0,3.15-.15,13.34,13.34,0,0,0-2.24-26.49Z" transform="translate(-50 -50)"/><circle class="cls-1" cx="37.15" cy="62.85" r="7.11"/></svg>