<svg id="Layer_1" data-name="Layer 1" xmlns="http://www.w3.org/2000/svg" xmlns:xlink="http://www.w3.org/1999/xlink" viewBox="0 0 100 100"><defs><style>.cls-1,.cls-2{fill:#e84521;}.cls-2{stroke:#676767;stroke-linecap:round;stroke-miterlimit:10;stroke-width:7px;}.cls-3{clip-path:url(#clip-path);}.cls-4{clip-path:url(#clip-path-2);}</style><clipPath id="clip-path" transform="translate(-50 -50)"><circle id="SVGID" class="cls-1" cx="57.28" cy="142.72" r="4.71"/></clipPath><clipPath id="clip-path-2" transform="translate(-50 -50)"><circle id="SVGID-2" data-name="SVGID" class="cls-1" cx="142.62" cy="57.38" r="4.71"/></clipPath></defs><title>General_Ledger</title><path class="cls-2" d="M69.58,122.94" transform="translate(-50 -50)"/><path class="cls-1" d="M100,150a49.53,49.53,0,0,1-30.1-10.07,2.67,2.67,0,1,1,3.21-4.26,44.67,44.67,0,0,0,62.56-62.56,2.67,2.67,0,1,1,4.26-3.21A49.53,49.53,0,0,1,150,100,50.06,50.06,0,0,1,100,150Z" transform="translate(-50 -50)"/><path class="cls-1" d="M62.21,131.16a2.67,2.67,0,0,1-2.14-1.06A49.53,49.53,0,0,1,50,100a50,50,0,0,1,79.92-40.07,2.67,2.67,0,0,1-3.2,4.28,44.67,44.67,0,0,0-62.39,62.68,2.66,2.66,0,0,1-2.12,4.27Z" transform="translate(-50 -50)"/><path class="cls-1" d="M100,135.86a35.52,35.52,0,0,1-21.61-7.24,2.67,2.67,0,0,1,3.21-4.26,30.56,30.56,0,0,0,42.8-42.79,2.67,2.67,0,0,1,4.26-3.22A35.9,35.9,0,0,1,100,135.86Z" transform="translate(-50 -50)"/><path class="cls-1" d="M73.51,122.63a2.64,2.64,0,0,1-2.13-1.06A35.52,35.52,0,0,1,64.14,100,35.94,35.94,0,0,1,100,64.07a35.58,35.58,0,0,1,21.48,7.13,2.67,2.67,0,0,1-3.2,4.27,30.56,30.56,0,0,0-42.68,42.89,2.66,2.66,0,0,1-.53,3.73A2.6,2.6,0,0,1,73.51,122.63Z" transform="translate(-50 -50)"/><circle id="SVGID-3" data-name="SVGID" class="cls-1" cx="7.28" cy="92.72" r="4.71"/><g class="cls-3"><rect class="cls-1" x="2.57" y="88.01" width="0.01" height="9.42"/><rect class="cls-1" x="2.58" y="88.01" width="0.07" height="9.42"/><rect class="cls-1" x="2.66" y="88.01" width="0.07" height="9.42"/><rect class="cls-1" x="2.73" y="88.01" width="0.07" height="9.42"/><rect class="cls-1" x="2.81" y="88.01" width="0.07" height="9.42"/><rect class="cls-1" x="2.88" y="88.01" width="0.07" height="9.42"/><rect class="cls-1" x="2.95" y="88.01" width="0.07" height="9.42"/><rect class="cls-1" x="3.03" y="88.01" width="0.07" height="9.42"/><rect class="cls-1" x="3.1" y="88.01" width="0.07" height="9.42"/><rect class="cls-1" x="3.17" y="88.01" width="0.07" height="9.42"/><rect class="cls-1" x="3.25" y="88.01" width="0.07" height="9.42"/><rect class="cls-1" x="3.32" y="88.01" width="0.07" height="9.42"/><rect class="cls-1" x="3.39" y="88.01" width="0.07" height="9.42"/><rect class="cls-1" x="3.47" y="88.01" width="0.07" height="9.42"/><rect class="cls-1" x="3.54" y="88.01" width="0.07" height="9.42"/><rect class="cls-1" x="3.61" y="88.01" width="0.07" height="9.42"/><rect class="cls-1" x="3.69" y="88.01" width="0.07" height="9.42"/><rect class="cls-1" x="3.76" y="88.01" width="0.07" height="9.42"/><rect class="cls-1" x="3.83" y="88.01" width="0.07" height="9.42"/><rect class="cls-1" x="3.91" y="88.01" width="0.07" height="9.42"/><rect class="cls-1" x="3.98" y="88.01" width="0.07" height="9.42"/><rect class="cls-1" x="4.06" y="88.01" width="0.07" height="9.42"/><rect class="cls-1" x="4.13" y="88.01" width="0.07" height="9.42"/><rect class="cls-1" x="4.2" y="88.01" width="0.07" height="9.42"/><rect class="cls-1" x="4.28" y="88.01" width="0.07" height="9.42"/><rect class="cls-1" x="4.35" y="88.01" width="0.07" height="9.42"/><rect class="cls-1" x="4.42" y="88.01" width="0.07" height="9.42"/><rect class="cls-1" x="4.5" y="88.01" width="0.07" height="9.42"/><rect class="cls-1" x="4.57" y="88.01" width="0.07" height="9.42"/><rect class="cls-1" x="4.64" y="88.01" width="0.07" height="9.42"/><rect class="cls-1" x="4.72" y="88.01" width="0.07" height="9.42"/><rect class="cls-1" x="4.79" y="88.01" width="0.07" height="9.42"/><rect class="cls-1" x="4.86" y="88.01" width="0.07" height="9.42"/><rect class="cls-1" x="4.94" y="88.01" width="0.07" height="9.42"/><rect class="cls-1" x="5.01" y="88.01" width="0.07" height="9.42"/><rect class="cls-1" x="5.08" y="88.01" width="0.07" height="9.42"/><rect class="cls-1" x="5.16" y="88.01" width="0.07" height="9.42"/><rect class="cls-1" x="5.23" y="88.01" width="0.07" height="9.42"/><rect class="cls-1" x="5.3" y="88.01" width="0.07" height="9.42"/><rect class="cls-1" x="5.38" y="88.01" width="0.07" height="9.42"/><rect class="cls-1" x="5.45" y="88.01" width="0.07" height="9.42"/><rect class="cls-1" x="5.53" y="88.01" width="0.07" height="9.42"/><rect class="cls-1" x="5.6" y="88.01" width="0.07" height="9.42"/><rect class="cls-1" x="5.67" y="88.01" width="0.07" height="9.42"/><rect class="cls-1" x="5.75" y="88.01" width="0.07" height="9.42"/><rect class="cls-1" x="5.82" y="88.01" width="0.07" height="9.42"/><rect class="cls-1" x="5.89" y="88.01" width="0.07" height="9.42"/><rect class="cls-1" x="5.97" y="88.01" width="0.07" height="9.42"/><rect class="cls-1" x="6.04" y="88.01" width="0.07" height="9.42"/><rect class="cls-1" x="6.11" y="88.01" width="0.07" height="9.42"/><rect class="cls-1" x="6.19" y="88.01" width="0.07" height="9.42"/><rect class="cls-1" x="6.26" y="88.01" width="0.07" height="9.42"/><rect class="cls-1" x="6.33" y="88.01" width="0.07" height="9.42"/><rect class="cls-1" x="6.41" y="88.01" width="0.07" height="9.42"/><rect class="cls-1" x="6.48" y="88.01" width="0.07" height="9.42"/><rect class="cls-1" x="6.55" y="88.01" width="0.07" height="9.42"/><rect class="cls-1" x="6.63" y="88.01" width="0.07" height="9.42"/><rect class="cls-1" x="6.7" y="88.01" width="0.07" height="9.42"/><rect class="cls-1" x="6.77" y="88.01" width="0.07" height="9.42"/><rect class="cls-1" x="6.85" y="88.01" width="0.07" height="9.42"/><rect class="cls-1" x="6.92" y="88.01" width="0.07" height="9.42"/><rect class="cls-1" x="7" y="88.01" width="0.07" height="9.42"/><rect class="cls-1" x="7.07" y="88.01" width="0.07" height="9.42"/><rect class="cls-1" x="7.14" y="88.01" width="0.07" height="9.42"/><rect class="cls-1" x="7.22" y="88.01" width="0.07" height="9.42"/><rect class="cls-1" x="7.29" y="88.01" width="0.07" height="9.42"/><rect class="cls-1" x="7.36" y="88.01" width="0.07" height="9.42"/><rect class="cls-1" x="7.44" y="88.01" width="0.07" height="9.42"/><rect class="cls-1" x="7.51" y="88.01" width="0.07" height="9.42"/><rect class="cls-1" x="7.58" y="88.01" width="0.07" height="9.42"/><rect class="cls-1" x="7.66" y="88.01" width="0.07" height="9.42"/><rect class="cls-1" x="7.73" y="88.01" width="0.07" height="9.42"/><rect class="cls-1" x="7.8" y="88.01" width="0.07" height="9.42"/><rect class="cls-1" x="7.88" y="88.01" width="0.07" height="9.42"/><rect class="cls-1" x="7.95" y="88.01" width="0.07" height="9.42"/><rect class="cls-1" x="8.02" y="88.01" width="0.07" height="9.42"/><rect class="cls-1" x="8.1" y="88.01" width="0.07" height="9.42"/><rect class="cls-1" x="8.17" y="88.01" width="0.07" height="9.42"/><rect class="cls-1" x="8.25" y="88.01" width="0.07" height="9.42"/><rect class="cls-1" x="8.32" y="88.01" width="0.07" height="9.42"/><rect class="cls-1" x="8.39" y="88.01" width="0.07" height="9.42"/><rect class="cls-1" x="8.47" y="88.01" width="0.07" height="9.42"/><rect class="cls-1" x="8.54" y="88.01" width="0.07" height="9.42"/><rect class="cls-1" x="8.61" y="88.01" width="0.07" height="9.42"/><rect class="cls-1" x="8.69" y="88.01" width="0.07" height="9.42"/><rect class="cls-1" x="8.76" y="88.01" width="0.07" height="9.42"/><rect class="cls-1" x="8.83" y="88.01" width="0.07" height="9.42"/><rect class="cls-1" x="8.91" y="88.01" width="0.07" height="9.42"/><rect class="cls-1" x="8.98" y="88.01" width="0.07" height="9.42"/><rect class="cls-1" x="9.05" y="88.01" width="0.07" height="9.42"/><rect class="cls-1" x="9.13" y="88.01" width="0.07" height="9.42"/><rect class="cls-1" x="9.2" y="88.01" width="0.07" height="9.42"/><rect class="cls-1" x="9.27" y="88.01" width="0.07" height="9.42"/><rect class="cls-1" x="9.35" y="88.01" width="0.07" height="9.42"/><rect class="cls-1" x="9.42" y="88.01" width="0.07" height="9.42"/><rect class="cls-1" x="9.49" y="88.01" width="0.07" height="9.42"/><rect class="cls-1" x="9.57" y="88.01" width="0.07" height="9.42"/><rect class="cls-1" x="9.64" y="88.01" width="0.07" height="9.42"/><rect class="cls-1" x="9.72" y="88.01" width="0.07" height="9.42"/><rect class="cls-1" x="9.79" y="88.01" width="0.07" height="9.42"/><rect class="cls-1" x="9.86" y="88.01" width="0.07" height="9.42"/><rect class="cls-1" x="9.94" y="88.01" width="0.07" height="9.42"/><rect class="cls-1" x="10.01" y="88.01" width="0.07" height="9.42"/><rect class="cls-1" x="10.08" y="88.01" width="0.07" height="9.42"/><rect class="cls-1" x="10.16" y="88.01" width="0.07" height="9.42"/><rect class="cls-1" x="10.23" y="88.01" width="0.07" height="9.42"/><rect class="cls-1" x="10.3" y="88.01" width="0.07" height="9.42"/><rect class="cls-1" x="10.38" y="88.01" width="0.07" height="9.42"/><rect class="cls-1" x="10.45" y="88.01" width="0.07" height="9.42"/><rect class="cls-1" x="10.52" y="88.01" width="0.07" height="9.42"/><rect class="cls-1" x="10.6" y="88.01" width="0.07" height="9.42"/><rect class="cls-1" x="10.67" y="88.01" width="0.07" height="9.42"/><rect class="cls-1" x="10.74" y="88.01" width="0.07" height="9.42"/><rect class="cls-1" x="10.82" y="88.01" width="0.07" height="9.42"/><rect class="cls-1" x="10.89" y="88.01" width="0.07" height="9.42"/><rect class="cls-1" x="10.97" y="88.01" width="0.07" height="9.42"/><rect class="cls-1" x="11.04" y="88.01" width="0.07" height="9.42"/><rect class="cls-1" x="11.11" y="88.01" width="0.07" height="9.42"/><rect class="cls-1" x="11.19" y="88.01" width="0.07" height="9.42"/><rect class="cls-1" x="11.26" y="88.01" width="0.07" height="9.42"/><rect class="cls-1" x="11.33" y="88.01" width="0.07" height="9.42"/><rect class="cls-1" x="11.41" y="88.01" width="0.07" height="9.42"/><rect class="cls-1" x="11.48" y="88.01" width="0.07" height="9.42"/><rect class="cls-1" x="11.55" y="88.01" width="0.07" height="9.42"/><rect class="cls-1" x="11.63" y="88.01" width="0.07" height="9.42"/><rect class="cls-1" x="11.7" y="88.01" width="0.07" height="9.42"/><rect class="cls-1" x="11.77" y="88.01" width="0.07" height="9.42"/><rect class="cls-1" x="11.85" y="88.01" width="0.07" height="9.42"/><rect class="cls-1" x="11.92" y="88.01" width="0.07" height="9.42"/><path class="cls-1" d="M62,147.43v0Z" transform="translate(-50 -50)"/></g><circle id="SVGID-4" data-name="SVGID" class="cls-1" cx="92.62" cy="7.38" r="4.71"/><g class="cls-4"><rect class="cls-1" x="87.91" y="2.67" width="0.01" height="9.42"/><rect class="cls-1" x="87.92" y="2.67" width="0.07" height="9.42"/><rect class="cls-1" x="88" y="2.67" width="0.07" height="9.42"/><rect class="cls-1" x="88.07" y="2.67" width="0.07" height="9.42"/><rect class="cls-1" x="88.14" y="2.67" width="0.07" height="9.42"/><rect class="cls-1" x="88.22" y="2.67" width="0.07" height="9.42"/><rect class="cls-1" x="88.29" y="2.67" width="0.07" height="9.42"/><rect class="cls-1" x="88.36" y="2.67" width="0.07" height="9.42"/><rect class="cls-1" x="88.44" y="2.67" width="0.07" height="9.42"/><rect class="cls-1" x="88.51" y="2.67" width="0.07" height="9.42"/><rect class="cls-1" x="88.58" y="2.67" width="0.07" height="9.42"/><rect class="cls-1" x="88.66" y="2.67" width="0.07" height="9.42"/><rect class="cls-1" x="88.73" y="2.67" width="0.07" height="9.42"/><rect class="cls-1" x="88.8" y="2.67" width="0.07" height="9.42"/><rect class="cls-1" x="88.88" y="2.67" width="0.07" height="9.42"/><rect class="cls-1" x="88.95" y="2.67" width="0.07" height="9.42"/><rect class="cls-1" x="89.02" y="2.67" width="0.07" height="9.42"/><rect class="cls-1" x="89.1" y="2.67" width="0.07" height="9.42"/><rect class="cls-1" x="89.17" y="2.67" width="0.07" height="9.42"/><rect class="cls-1" x="89.25" y="2.67" width="0.07" height="9.42"/><rect class="cls-1" x="89.32" y="2.67" width="0.07" height="9.42"/><rect class="cls-1" x="89.39" y="2.67" width="0.07" height="9.42"/><rect class="cls-1" x="89.47" y="2.67" width="0.07" height="9.42"/><rect class="cls-1" x="89.54" y="2.67" width="0.07" height="9.42"/><rect class="cls-1" x="89.61" y="2.67" width="0.07" height="9.42"/><rect class="cls-1" x="89.69" y="2.67" width="0.07" height="9.42"/><rect class="cls-1" x="89.76" y="2.67" width="0.07" height="9.42"/><rect class="cls-1" x="89.83" y="2.67" width="0.07" height="9.42"/><rect class="cls-1" x="89.91" y="2.67" width="0.07" height="9.42"/><rect class="cls-1" x="89.98" y="2.67" width="0.07" height="9.42"/><rect class="cls-1" x="90.05" y="2.67" width="0.07" height="9.42"/><rect class="cls-1" x="90.13" y="2.67" width="0.07" height="9.42"/><rect class="cls-1" x="90.2" y="2.67" width="0.07" height="9.42"/><rect class="cls-1" x="90.27" y="2.67" width="0.07" height="9.42"/><rect class="cls-1" x="90.35" y="2.67" width="0.07" height="9.42"/><rect class="cls-1" x="90.42" y="2.67" width="0.07" height="9.42"/><rect class="cls-1" x="90.49" y="2.67" width="0.07" height="9.42"/><rect class="cls-1" x="90.57" y="2.67" width="0.07" height="9.42"/><rect class="cls-1" x="90.64" y="2.67" width="0.07" height="9.42"/><rect class="cls-1" x="90.72" y="2.67" width="0.07" height="9.42"/><rect class="cls-1" x="90.79" y="2.67" width="0.07" height="9.42"/><rect class="cls-1" x="90.86" y="2.67" width="0.07" height="9.42"/><rect class="cls-1" x="90.94" y="2.67" width="0.07" height="9.42"/><rect class="cls-1" x="91.01" y="2.67" width="0.07" height="9.42"/><rect class="cls-1" x="91.08" y="2.67" width="0.07" height="9.42"/><rect class="cls-1" x="91.16" y="2.67" width="0.07" height="9.42"/><rect class="cls-1" x="91.23" y="2.67" width="0.07" height="9.42"/><rect class="cls-1" x="91.3" y="2.67" width="0.07" height="9.42"/><rect class="cls-1" x="91.38" y="2.67" width="0.07" height="9.42"/><rect class="cls-1" x="91.45" y="2.67" width="0.07" height="9.42"/><rect class="cls-1" x="91.52" y="2.67" width="0.07" height="9.42"/><rect class="cls-1" x="91.6" y="2.67" width="0.07" height="9.42"/><rect class="cls-1" x="91.67" y="2.67" width="0.07" height="9.42"/><rect class="cls-1" x="91.74" y="2.67" width="0.07" height="9.42"/><rect class="cls-1" x="91.82" y="2.67" width="0.07" height="9.42"/><rect class="cls-1" x="91.89" y="2.67" width="0.07" height="9.42"/><rect class="cls-1" x="91.96" y="2.67" width="0.07" height="9.42"/><rect class="cls-1" x="92.04" y="2.67" width="0.07" height="9.42"/><rect class="cls-1" x="92.11" y="2.67" width="0.07" height="9.42"/><rect class="cls-1" x="92.19" y="2.67" width="0.07" height="9.42"/><rect class="cls-1" x="92.26" y="2.67" width="0.07" height="9.42"/><rect class="cls-1" x="92.33" y="2.67" width="0.07" height="9.42"/><rect class="cls-1" x="92.41" y="2.67" width="0.07" height="9.42"/><rect class="cls-1" x="92.48" y="2.67" width="0.07" height="9.42"/><rect class="cls-1" x="92.55" y="2.67" width="0.07" height="9.42"/><rect class="cls-1" x="92.63" y="2.67" width="0.07" height="9.42"/><rect class="cls-1" x="92.7" y="2.67" width="0.07" height="9.42"/><rect class="cls-1" x="92.77" y="2.67" width="0.07" height="9.42"/><rect class="cls-1" x="92.85" y="2.67" width="0.07" height="9.42"/><rect class="cls-1" x="92.92" y="2.67" width="0.07" height="9.42"/><rect class="cls-1" x="92.99" y="2.67" width="0.07" height="9.42"/><rect class="cls-1" x="93.07" y="2.67" width="0.07" height="9.42"/><rect class="cls-1" x="93.14" y="2.67" width="0.07" height="9.42"/><rect class="cls-1" x="93.21" y="2.67" width="0.07" height="9.42"/><rect class="cls-1" x="93.29" y="2.67" width="0.07" height="9.42"/><rect class="cls-1" x="93.36" y="2.67" width="0.07" height="9.42"/><rect class="cls-1" x="93.44" y="2.67" width="0.07" height="9.42"/><rect class="cls-1" x="93.51" y="2.67" width="0.07" height="9.42"/><rect class="cls-1" x="93.58" y="2.67" width="0.07" height="9.42"/><rect class="cls-1" x="93.66" y="2.67" width="0.07" height="9.42"/><rect class="cls-1" x="93.73" y="2.67" width="0.07" height="9.42"/><rect class="cls-1" x="93.8" y="2.67" width="0.07" height="9.42"/><rect class="cls-1" x="93.88" y="2.67" width="0.07" height="9.42"/><rect class="cls-1" x="93.95" y="2.67" width="0.07" height="9.42"/><rect class="cls-1" x="94.02" y="2.67" width="0.07" height="9.42"/><rect class="cls-1" x="94.1" y="2.67" width="0.07" height="9.42"/><rect class="cls-1" x="94.17" y="2.67" width="0.07" height="9.42"/><rect class="cls-1" x="94.24" y="2.67" width="0.07" height="9.42"/><rect class="cls-1" x="94.32" y="2.67" width="0.07" height="9.42"/><rect class="cls-1" x="94.39" y="2.67" width="0.07" height="9.42"/><rect class="cls-1" x="94.46" y="2.67" width="0.07" height="9.42"/><rect class="cls-1" x="94.54" y="2.67" width="0.07" height="9.42"/><rect class="cls-1" x="94.61" y="2.67" width="0.07" height="9.42"/><rect class="cls-1" x="94.68" y="2.67" width="0.07" height="9.42"/><rect class="cls-1" x="94.76" y="2.67" width="0.07" height="9.42"/><rect class="cls-1" x="94.83" y="2.67" width="0.07" height="9.42"/><rect class="cls-1" x="94.91" y="2.67" width="0.07" height="9.42"/><rect class="cls-1" x="94.98" y="2.67" width="0.07" height="9.42"/><rect class="cls-1" x="95.05" y="2.67" width="0.07" height="9.42"/><rect class="cls-1" x="95.13" y="2.67" width="0.07" height="9.42"/><rect class="cls-1" x="95.2" y="2.67" width="0.07" height="9.42"/><rect class="cls-1" x="95.27" y="2.67" width="0.07" height="9.42"/><rect class="cls-1" x="95.35" y="2.67" width="0.07" height="9.42"/><rect class="cls-1" x="95.42" y="2.67" width="0.07" height="9.42"/><rect class="cls-1" x="95.49" y="2.67" width="0.07" height="9.42"/><rect class="cls-1" x="95.57" y="2.67" width="0.07" height="9.42"/><rect class="cls-1" x="95.64" y="2.67" width="0.07" height="9.42"/><rect class="cls-1" x="95.71" y="2.67" width="0.07" height="9.42"/><rect class="cls-1" x="95.79" y="2.67" width="0.07" height="9.42"/><rect class="cls-1" x="95.86" y="2.67" width="0.07" height="9.42"/><rect class="cls-1" x="95.93" y="2.67" width="0.07" height="9.42"/><rect class="cls-1" x="96.01" y="2.67" width="0.07" height="9.42"/><rect class="cls-1" x="96.08" y="2.67" width="0.07" height="9.42"/><rect class="cls-1" x="96.16" y="2.67" width="0.07" height="9.42"/><rect class="cls-1" x="96.23" y="2.67" width="0.07" height="9.42"/><rect class="cls-1" x="96.3" y="2.67" width="0.07" height="9.42"/><rect class="cls-1" x="96.38" y="2.67" width="0.07" height="9.42"/><rect class="cls-1" x="96.45" y="2.67" width="0.07" height="9.42"/><rect class="cls-1" x="96.52" y="2.67" width="0.07" height="9.42"/><rect class="cls-1" x="96.6" y="2.67" width="0.07" height="9.42"/><rect class="cls-1" x="96.67" y="2.67" width="0.07" height="9.42"/><rect class="cls-1" x="96.74" y="2.67" width="0.07" height="9.42"/><rect class="cls-1" x="96.82" y="2.67" width="0.07" height="9.42"/><rect class="cls-1" x="96.89" y="2.67" width="0.07" height="9.42"/><rect class="cls-1" x="96.96" y="2.67" width="0.07" height="9.42"/><rect class="cls-1" x="97.04" y="2.67" width="0.07" height="9.42"/><rect class="cls-1" x="97.11" y="2.67" width="0.07" height="9.42"/><rect class="cls-1" x="97.18" y="2.67" width="0.07" height="9.42"/><rect class="cls-1" x="97.26" y="2.67" width="0.07" height="9.42"/><path class="cls-1" d="M147.33,62.09v0Z" transform="translate(-50 -50)"/></g></svg>