<svg id="Layer_1" data-name="Layer 1" xmlns="http://www.w3.org/2000/svg" xmlns:xlink="http://www.w3.org/1999/xlink" viewBox="0 0 100 93.28"><defs><style>.cls-1{fill:#fff;}.cls-2{fill:#383e45;}.cls-3{font-size:30.01px;font-family:Montserrat-SemiBold, Montserrat;font-weight:600;}.cls-3,.cls-4{fill:#f3993f;}.cls-5{clip-path:url(#clip-path);}.cls-6{clip-path:url(#clip-path-2);}.cls-7{clip-path:url(#clip-path-3);}</style><clipPath id="clip-path" transform="translate(-50 -53.36)"><rect class="cls-1" x="126.8" y="135.41" width="3.34" height="4.83" transform="translate(-1.53 1.44) rotate(-0.64)"/></clipPath><clipPath id="clip-path-2" transform="translate(-50 -53.36)"><rect class="cls-1" x="126.8" y="110.04" width="3.34" height="4.83" transform="translate(-1.24 1.44) rotate(-0.64)"/></clipPath><clipPath id="clip-path-3" transform="translate(-50 -53.36)"><path class="cls-1" d="M124.26,129.63c.22,1.79,2,3,4.37,3s4-1.16,4-2.77c0-1.4-1-2.2-3.44-2.78l-2.52-.59c-3.57-.82-5.27-2.54-5.27-5.31,0-3.44,3-5.77,7.22-5.77s7.1,2.31,7.18,5.73h-3.31c-.16-1.82-1.68-2.9-3.9-2.9s-3.67,1.07-3.67,2.68c0,1.29,1,2.05,3.36,2.61l2.24.51c3.93.9,5.6,2.53,5.6,5.42,0,3.68-3,6-7.65,6-4.46,0-7.39-2.2-7.54-5.78Z"/></clipPath></defs><title>GST</title><path class="cls-2" d="M123.14,138.63H59.77c-5.39,0-9.77-4-9.77-8.87V62.23c0-4.89,4.38-8.87,9.77-8.87h63.37c5.39,0,9.77,4,9.77,8.87v67.53C132.91,134.65,128.53,138.63,123.14,138.63ZM59.77,57.36a5.14,5.14,0,0,0-5.36,4.87v67.53a5.13,5.13,0,0,0,5.36,4.86h63.37a5.14,5.14,0,0,0,5.36-4.86V62.23a5.15,5.15,0,0,0-5.36-4.87Z" transform="translate(-50 -53.36)"/><text class="cls-3" transform="translate(11.58 35.15)">GST</text><rect class="cls-2" x="14.25" y="45.21" width="56.82" height="4.61"/><rect class="cls-2" x="14.25" y="61.65" width="32.3" height="4.61"/><circle class="cls-4" cx="78.5" cy="71.78" r="21.5"/><rect class="cls-1" x="126.8" y="135.41" width="3.34" height="4.83" transform="translate(-51.53 -51.92) rotate(-0.64)"/><g class="cls-5"><polygon class="cls-1" points="80.17 82.22 76.78 82.26 76.78 82.04 80.17 82.04 80.17 82.22"/><polygon class="cls-1" points="80.17 82.6 76.78 82.64 76.78 82.26 80.17 82.22 80.17 82.6"/><polygon class="cls-1" points="76.78 82.64 80.17 82.6 80.17 86.9 76.78 86.9 76.78 82.64"/></g><rect class="cls-1" x="126.8" y="110.04" width="3.34" height="4.83" transform="translate(-51.24 -51.92) rotate(-0.64)"/><g class="cls-6"><polygon class="cls-1" points="77.35 56.66 76.78 56.67 76.78 56.66 77.35 56.66"/><polygon class="cls-1" points="80.17 57 76.78 57.04 76.78 56.67 77.35 56.66 80.17 56.66 80.17 57"/><polygon class="cls-1" points="80.17 57.38 76.78 57.42 76.78 57.04 80.17 57 80.17 57.38"/><polygon class="cls-1" points="80.17 57.76 76.78 57.8 76.78 57.42 80.17 57.38 80.17 57.76"/><polygon class="cls-1" points="80.17 58.13 76.78 58.17 76.78 57.8 80.17 57.76 80.17 58.13"/><polygon class="cls-1" points="80.17 58.51 76.78 58.55 76.78 58.17 80.17 58.13 80.17 58.51"/><polygon class="cls-1" points="80.17 58.89 76.78 58.93 76.78 58.55 80.17 58.51 80.17 58.89"/><polygon class="cls-1" points="80.17 59.26 76.78 59.3 76.78 58.93 80.17 58.89 80.17 59.26"/><polygon class="cls-1" points="80.17 59.64 76.78 59.68 76.78 59.3 80.17 59.26 80.17 59.64"/><polygon class="cls-1" points="80.17 60.02 76.78 60.05 76.78 59.68 80.17 59.64 80.17 60.02"/><polygon class="cls-1" points="80.17 60.39 76.78 60.43 76.78 60.05 80.17 60.02 80.17 60.39"/><polygon class="cls-1" points="80.17 60.77 76.78 60.81 76.78 60.43 80.17 60.39 80.17 60.77"/><polygon class="cls-1" points="80.17 61.14 76.78 61.18 76.78 60.81 80.17 60.77 80.17 61.14"/><polygon class="cls-1" points="80.17 61.52 79.88 61.52 76.78 61.52 76.78 61.18 80.17 61.14 80.17 61.52"/><polygon class="cls-1" points="79.88 61.52 80.17 61.52 80.17 61.52 79.88 61.52"/></g><path class="cls-1" d="M124.26,129.63c.22,1.79,2,3,4.37,3s4-1.16,4-2.77c0-1.4-1-2.2-3.44-2.78l-2.52-.59c-3.57-.82-5.27-2.54-5.27-5.31,0-3.44,3-5.77,7.22-5.77s7.1,2.31,7.18,5.73h-3.31c-.16-1.82-1.68-2.9-3.9-2.9s-3.67,1.07-3.67,2.68c0,1.29,1,2.05,3.36,2.61l2.24.51c3.93.9,5.6,2.53,5.6,5.42,0,3.68-3,6-7.65,6-4.46,0-7.39-2.2-7.54-5.78Z" transform="translate(-50 -53.36)"/><g class="cls-7"><polygon class="cls-1" points="86.09 62.2 70.9 62.38 70.9 62.01 86.09 62.01 86.09 62.2"/><polygon class="cls-1" points="86.09 62.58 70.9 62.76 70.9 62.38 86.09 62.2 86.09 62.58"/><polygon class="cls-1" points="86.09 62.95 70.9 63.14 70.9 62.76 86.09 62.58 86.09 62.95"/><polygon class="cls-1" points="86.09 63.33 70.9 63.51 70.9 63.14 86.09 62.95 86.09 63.33"/><polygon class="cls-1" points="86.09 63.71 70.9 63.89 70.9 63.51 86.09 63.33 86.09 63.71"/><polygon class="cls-1" points="86.09 64.08 70.9 64.27 70.9 63.89 86.09 63.71 86.09 64.08"/><polygon class="cls-1" points="86.09 64.46 70.9 64.64 70.9 64.27 86.09 64.08 86.09 64.46"/><polygon class="cls-1" points="86.09 64.84 70.9 65.02 70.9 64.64 86.09 64.46 86.09 64.84"/><polygon class="cls-1" points="86.09 65.21 70.9 65.39 70.9 65.02 86.09 64.84 86.09 65.21"/><polygon class="cls-1" points="86.09 65.59 70.9 65.77 70.9 65.39 86.09 65.21 86.09 65.59"/><polygon class="cls-1" points="86.09 65.97 70.9 66.15 70.9 65.77 86.09 65.59 86.09 65.97"/><polygon class="cls-1" points="86.09 66.34 70.9 66.52 70.9 66.15 86.09 65.97 86.09 66.34"/><polygon class="cls-1" points="86.09 66.72 70.9 66.9 70.9 66.52 86.09 66.34 86.09 66.72"/><polygon class="cls-1" points="86.09 67.09 70.9 67.28 70.9 66.9 86.09 66.72 86.09 67.09"/><polygon class="cls-1" points="86.09 67.47 70.9 67.65 70.9 67.28 86.09 67.09 86.09 67.47"/><polygon class="cls-1" points="86.09 67.85 70.9 68.03 70.9 67.65 86.09 67.47 86.09 67.85"/><polygon class="cls-1" points="86.09 68.22 70.9 68.41 70.9 68.03 86.09 67.85 86.09 68.22"/><polygon class="cls-1" points="86.09 68.6 70.9 68.78 70.9 68.41 86.09 68.22 86.09 68.6"/><polygon class="cls-1" points="86.09 68.98 70.9 69.16 70.9 68.78 86.09 68.6 86.09 68.98"/><polygon class="cls-1" points="86.09 69.35 70.9 69.53 70.9 69.16 86.09 68.98 86.09 69.35"/><polygon class="cls-1" points="86.09 69.73 70.9 69.91 70.9 69.53 86.09 69.35 86.09 69.73"/><polygon class="cls-1" points="86.09 70.11 70.9 70.29 70.9 69.91 86.09 69.73 86.09 70.11"/><polygon class="cls-1" points="86.09 70.48 70.9 70.66 70.9 70.29 86.09 70.11 86.09 70.48"/><polygon class="cls-1" points="86.09 70.86 70.9 71.04 70.9 70.66 86.09 70.48 86.09 70.86"/><polygon class="cls-1" points="86.09 71.23 70.9 71.42 70.9 71.04 86.09 70.86 86.09 71.23"/><polygon class="cls-1" points="86.09 71.61 70.9 71.79 70.9 71.42 86.09 71.23 86.09 71.61"/><polygon class="cls-1" points="86.09 71.99 70.9 72.17 70.9 71.79 86.09 71.61 86.09 71.99"/><polygon class="cls-1" points="86.09 72.36 70.9 72.55 70.9 72.17 86.09 71.99 86.09 72.36"/><polygon class="cls-1" points="86.09 72.74 70.9 72.92 70.9 72.55 86.09 72.36 86.09 72.74"/><polygon class="cls-1" points="86.09 73.12 70.9 73.3 70.9 72.92 86.09 72.74 86.09 73.12"/><polygon class="cls-1" points="86.09 73.49 70.9 73.67 70.9 73.3 86.09 73.12 86.09 73.49"/><polygon class="cls-1" points="86.09 73.87 70.9 74.05 70.9 73.67 86.09 73.49 86.09 73.87"/><polygon class="cls-1" points="86.09 74.25 70.9 74.43 70.9 74.05 86.09 73.87 86.09 74.25"/><polygon class="cls-1" points="86.09 74.62 70.9 74.8 70.9 74.43 86.09 74.25 86.09 74.62"/><polygon class="cls-1" points="86.09 75 70.9 75.18 70.9 74.8 86.09 74.62 86.09 75"/><polygon class="cls-1" points="86.09 75.37 70.9 75.56 70.9 75.18 86.09 75 86.09 75.37"/><polygon class="cls-1" points="86.09 75.75 70.9 75.93 70.9 75.56 86.09 75.37 86.09 75.75"/><polygon class="cls-1" points="86.09 76.13 70.9 76.31 70.9 75.93 86.09 75.75 86.09 76.13"/><polygon class="cls-1" points="86.09 76.5 70.9 76.69 70.9 76.31 86.09 76.13 86.09 76.5"/><polygon class="cls-1" points="86.09 76.88 70.9 77.06 70.9 76.69 86.09 76.5 86.09 76.88"/><polygon class="cls-1" points="86.09 77.26 70.9 77.44 70.9 77.06 86.09 76.88 86.09 77.26"/><polygon class="cls-1" points="86.09 77.63 70.9 77.81 70.9 77.44 86.09 77.26 86.09 77.63"/><polygon class="cls-1" points="86.09 78.01 70.9 78.19 70.9 77.81 86.09 77.63 86.09 78.01"/><polygon class="cls-1" points="86.09 78.39 70.9 78.57 70.9 78.19 86.09 78.01 86.09 78.39"/><polygon class="cls-1" points="86.09 78.76 70.9 78.94 70.9 78.57 86.09 78.39 86.09 78.76"/><polygon class="cls-1" points="86.09 79.14 70.9 79.32 70.9 78.94 86.09 78.76 86.09 79.14"/><polygon class="cls-1" points="86.09 79.51 70.9 79.7 70.9 79.32 86.09 79.14 86.09 79.51"/><polygon class="cls-1" points="86.09 79.89 70.9 80.07 70.9 79.7 86.09 79.51 86.09 79.89"/><polygon class="cls-1" points="86.09 80.27 70.9 80.45 70.9 80.07 86.09 79.89 86.09 80.27"/><polygon class="cls-1" points="86.09 80.64 70.9 80.83 70.9 80.45 86.09 80.27 86.09 80.64"/><polygon class="cls-1" points="86.09 81.02 70.9 81.2 70.9 80.83 86.09 80.64 86.09 81.02"/><polygon class="cls-1" points="86.09 81.4 70.9 81.58 70.9 81.2 86.09 81.02 86.09 81.4"/><polygon class="cls-1" points="86.09 81.77 70.9 81.95 70.9 81.58 86.09 81.4 86.09 81.77"/><polygon class="cls-1" points="70.9 81.95 86.09 81.77 86.09 82.06 70.9 82.06 70.9 81.95"/></g></svg>