<svg id="Layer_1" data-name="Layer 1" xmlns="http://www.w3.org/2000/svg" xmlns:xlink="http://www.w3.org/1999/xlink" viewBox="0 0 18.86 21.83"><defs><style>.cls-1{fill:#93c01f;}.cls-2{clip-path:url(#clip-path);}.cls-3{clip-path:url(#clip-path-2);}.cls-4{clip-path:url(#clip-path-3);}</style><clipPath id="clip-path" transform="translate(-90.57 -89.09)"><path id="SVGID" class="cls-1" d="M99.79,95.35a3.13,3.13,0,1,1,3.13-3.13A3.14,3.14,0,0,1,99.79,95.35Zm0-5.64a2.51,2.51,0,1,0,2.51,2.51A2.51,2.51,0,0,0,99.79,89.71Z"/></clipPath><clipPath id="clip-path-2" transform="translate(-90.57 -89.09)"><path id="SVGID-2" data-name="SVGID" class="cls-1" d="M106.7,96a2.73,2.73,0,1,1,2.73-2.73A2.73,2.73,0,0,1,106.7,96Zm0-4.83a2.11,2.11,0,1,0,2.1,2.1A2.1,2.1,0,0,0,106.7,91.21Z"/></clipPath><clipPath id="clip-path-3" transform="translate(-90.57 -89.09)"><path id="SVGID-3" data-name="SVGID" class="cls-1" d="M92.94,95.68a2.37,2.37,0,1,1,2.36-2.37A2.37,2.37,0,0,1,92.94,95.68Zm0-4.11a1.74,1.74,0,1,0,1.74,1.74A1.74,1.74,0,0,0,92.94,91.57Z"/></clipPath></defs><title>HeadCount</title><path id="SVGID-4" data-name="SVGID" class="cls-1" d="M99.79,95.35a3.13,3.13,0,1,1,3.13-3.13A3.14,3.14,0,0,1,99.79,95.35Zm0-5.64a2.51,2.51,0,1,0,2.51,2.51A2.51,2.51,0,0,0,99.79,89.71Z" transform="translate(-90.57 -89.09)"/><g class="cls-2"><polygon class="cls-1" points="6.77 0.62 6.85 5.64 6.72 5.64 6.72 0.62 6.77 0.62"/><polygon class="cls-1" points="6.91 0.62 6.99 5.64 6.85 5.64 6.77 0.62 6.91 0.62"/><polygon class="cls-1" points="7.04 0.62 7.13 5.64 6.99 5.64 6.91 0.62 7.04 0.62"/><polygon class="cls-1" points="7.18 0.62 7.26 5.64 7.13 5.64 7.04 0.62 7.18 0.62"/><polygon class="cls-1" points="7.32 0.62 7.4 5.64 7.26 5.64 7.18 0.62 7.32 0.62"/><polygon class="cls-1" points="7.46 0.62 7.54 5.64 7.4 5.64 7.32 0.62 7.46 0.62"/><polygon class="cls-1" points="7.59 0.62 7.67 5.64 7.54 5.64 7.46 0.62 7.59 0.62"/><polygon class="cls-1" points="7.73 0.62 7.81 5.64 7.67 5.64 7.59 0.62 7.73 0.62"/><polygon class="cls-1" points="7.87 0.62 7.95 5.64 7.81 5.64 7.73 0.62 7.87 0.62"/><polygon class="cls-1" points="8 0.62 8.09 5.64 7.95 5.64 7.87 0.62 8 0.62"/><polygon class="cls-1" points="8.14 0.62 8.22 5.64 8.09 5.64 8 0.62 8.14 0.62"/><polygon class="cls-1" points="8.28 0.62 8.36 5.64 8.22 5.64 8.14 0.62 8.28 0.62"/><polygon class="cls-1" points="8.42 0.62 8.5 5.64 8.36 5.64 8.28 0.62 8.42 0.62"/><polygon class="cls-1" points="8.55 0.62 8.64 5.64 8.5 5.64 8.42 0.62 8.55 0.62"/><polygon class="cls-1" points="8.69 0.62 8.77 5.64 8.64 5.64 8.55 0.62 8.69 0.62"/><polygon class="cls-1" points="8.83 0.62 8.91 5.64 8.77 5.64 8.69 0.62 8.83 0.62"/><polygon class="cls-1" points="8.97 0.62 9.05 5.64 8.91 5.64 8.83 0.62 8.97 0.62"/><polygon class="cls-1" points="9.1 0.62 9.19 5.64 9.05 5.64 8.97 0.62 9.1 0.62"/><polygon class="cls-1" points="9.24 0.62 9.32 5.64 9.19 5.64 9.1 0.62 9.24 0.62"/><polygon class="cls-1" points="9.38 0.62 9.46 5.64 9.32 5.64 9.24 0.62 9.38 0.62"/><polygon class="cls-1" points="9.52 0.62 9.6 5.64 9.46 5.64 9.38 0.62 9.52 0.62"/><polygon class="cls-1" points="9.65 0.62 9.73 5.64 9.6 5.64 9.52 0.62 9.65 0.62"/><polygon class="cls-1" points="9.79 0.62 9.87 5.64 9.73 5.64 9.65 0.62 9.79 0.62"/><polygon class="cls-1" points="9.93 0.62 10.01 5.64 9.87 5.64 9.79 0.62 9.93 0.62"/><polygon class="cls-1" points="10.06 0.62 10.15 5.64 10.01 5.64 9.93 0.62 10.06 0.62"/><polygon class="cls-1" points="10.2 0.62 10.28 5.64 10.15 5.64 10.06 0.62 10.2 0.62"/><polygon class="cls-1" points="10.34 0.62 10.42 5.64 10.28 5.64 10.2 0.62 10.34 0.62"/><polygon class="cls-1" points="10.48 0.62 10.56 5.64 10.42 5.64 10.34 0.62 10.48 0.62"/><polygon class="cls-1" points="10.61 0.62 10.7 5.64 10.56 5.64 10.48 0.62 10.61 0.62"/><polygon class="cls-1" points="10.75 0.62 10.83 5.64 10.7 5.64 10.61 0.62 10.75 0.62"/><polygon class="cls-1" points="10.89 0.62 10.97 5.64 10.83 5.64 10.75 0.62 10.89 0.62"/><polygon class="cls-1" points="11.03 0.62 11.11 5.64 10.97 5.64 10.89 0.62 11.03 0.62"/><polygon class="cls-1" points="11.16 0.62 11.25 5.64 11.11 5.64 11.03 0.62 11.16 0.62"/><polygon class="cls-1" points="11.3 0.62 11.38 5.64 11.25 5.64 11.16 0.62 11.3 0.62"/><polygon class="cls-1" points="11.44 0.62 11.52 5.64 11.38 5.64 11.3 0.62 11.44 0.62"/><polygon class="cls-1" points="11.57 0.62 11.66 5.64 11.52 5.64 11.44 0.62 11.57 0.62"/><polygon class="cls-1" points="11.71 0.62 11.73 1.51 11.73 5.64 11.66 5.64 11.57 0.62 11.71 0.62"/><polygon class="cls-1" points="11.73 1.51 11.71 0.62 11.73 0.62 11.73 1.51"/><polygon class="cls-1" points="6.09 1.25 6.17 6.26 6.09 6.26 6.09 1.25"/><polygon class="cls-1" points="6.21 0 6.31 6.26 6.17 6.26 6.09 1.25 6.09 0 6.21 0"/><polygon class="cls-1" points="6.34 0 6.45 6.26 6.31 6.26 6.21 0 6.34 0"/><polygon class="cls-1" points="6.48 0 6.59 6.26 6.45 6.26 6.34 0 6.48 0"/><polygon class="cls-1" points="6.62 0 6.72 6.26 6.59 6.26 6.48 0 6.62 0"/><polygon class="cls-1" points="6.76 0 6.86 6.26 6.72 6.26 6.62 0 6.76 0"/><polygon class="cls-1" points="6.89 0 7 6.26 6.86 6.26 6.76 0 6.89 0"/><polygon class="cls-1" points="7.03 0 7.13 6.26 7 6.26 6.89 0 7.03 0"/><polygon class="cls-1" points="7.17 0 7.27 6.26 7.13 6.26 7.03 0 7.17 0"/><polygon class="cls-1" points="7.31 0 7.41 6.26 7.27 6.26 7.17 0 7.31 0"/><polygon class="cls-1" points="7.44 0 7.55 6.26 7.41 6.26 7.31 0 7.44 0"/><polygon class="cls-1" points="7.58 0 7.68 6.26 7.55 6.26 7.44 0 7.58 0"/><polygon class="cls-1" points="7.72 0 7.82 6.26 7.68 6.26 7.58 0 7.72 0"/><polygon class="cls-1" points="7.86 0 7.96 6.26 7.82 6.26 7.72 0 7.86 0"/><polygon class="cls-1" points="7.99 0 8.1 6.26 7.96 6.26 7.86 0 7.99 0"/><polygon class="cls-1" points="8.13 0 8.23 6.26 8.1 6.26 7.99 0 8.13 0"/><polygon class="cls-1" points="8.27 0 8.37 6.26 8.23 6.26 8.13 0 8.27 0"/><polygon class="cls-1" points="8.41 0 8.51 6.26 8.37 6.26 8.27 0 8.41 0"/><polygon class="cls-1" points="8.54 0 8.65 6.26 8.51 6.26 8.41 0 8.54 0"/><polygon class="cls-1" points="8.68 0 8.78 6.26 8.65 6.26 8.54 0 8.68 0"/><polygon class="cls-1" points="8.82 0 8.92 6.26 8.78 6.26 8.68 0 8.82 0"/><polygon class="cls-1" points="8.96 0 9.06 6.26 8.92 6.26 8.82 0 8.96 0"/><polygon class="cls-1" points="9.09 0 9.2 6.26 9.06 6.26 8.96 0 9.09 0"/><polygon class="cls-1" points="9.23 0 9.33 6.26 9.2 6.26 9.09 0 9.23 0"/><polygon class="cls-1" points="9.37 0 9.47 6.26 9.33 6.26 9.23 0 9.37 0"/><polygon class="cls-1" points="9.51 0 9.61 6.26 9.47 6.26 9.37 0 9.51 0"/><polygon class="cls-1" points="9.64 0 9.74 6.26 9.61 6.26 9.51 0 9.64 0"/><polygon class="cls-1" points="9.78 0 9.88 6.26 9.74 6.26 9.64 0 9.78 0"/><polygon class="cls-1" points="9.92 0 10.02 6.26 9.88 6.26 9.78 0 9.92 0"/><polygon class="cls-1" points="10.05 0 10.16 6.26 10.02 6.26 9.92 0 10.05 0"/><polygon class="cls-1" points="10.19 0 10.29 6.26 10.16 6.26 10.05 0 10.19 0"/><polygon class="cls-1" points="10.33 0 10.43 6.26 10.29 6.26 10.19 0 10.33 0"/><polygon class="cls-1" points="10.47 0 10.57 6.26 10.43 6.26 10.33 0 10.47 0"/><polygon class="cls-1" points="10.6 0 10.71 6.26 10.57 6.26 10.47 0 10.6 0"/><polygon class="cls-1" points="10.74 0 10.84 6.26 10.71 6.26 10.6 0 10.74 0"/><polygon class="cls-1" points="10.88 0 10.98 6.26 10.84 6.26 10.74 0 10.88 0"/><polygon class="cls-1" points="11.02 0 11.12 6.26 10.98 6.26 10.88 0 11.02 0"/><polygon class="cls-1" points="11.15 0 11.26 6.26 11.12 6.26 11.02 0 11.15 0"/><polygon class="cls-1" points="11.29 0 11.39 6.26 11.26 6.26 11.15 0 11.29 0"/><polygon class="cls-1" points="11.43 0 11.53 6.26 11.39 6.26 11.29 0 11.43 0"/><polygon class="cls-1" points="11.56 0 11.67 6.26 11.53 6.26 11.43 0 11.56 0"/><polygon class="cls-1" points="11.7 0 11.81 6.26 11.67 6.26 11.56 0 11.7 0"/><polygon class="cls-1" points="11.84 0 11.94 6.26 11.81 6.26 11.7 0 11.84 0"/><polygon class="cls-1" points="11.98 0 12.08 6.26 11.94 6.26 11.84 0 11.98 0"/><polygon class="cls-1" points="12.12 0 12.22 6.26 12.08 6.26 11.98 0 12.12 0"/><polygon class="cls-1" points="12.25 0 12.35 6.07 12.35 6.26 12.22 6.26 12.12 0 12.25 0"/><polygon class="cls-1" points="12.35 6.07 12.25 0 12.35 0 12.35 6.07"/></g><path class="cls-1" d="M102.13,110.91H97.72a3.29,3.29,0,0,1-3.29-3.29V101a5,5,0,0,1,5-5h1.07a5,5,0,0,1,5,5v6.61A3.29,3.29,0,0,1,102.13,110.91ZM99.39,97.15A3.87,3.87,0,0,0,95.52,101v6.61a2.21,2.21,0,0,0,2.2,2.2h4.41a2.21,2.21,0,0,0,2.2-2.2V101a3.87,3.87,0,0,0-3.87-3.86Z" transform="translate(-90.57 -89.09)"/><path id="SVGID-5" data-name="SVGID" class="cls-1" d="M106.7,96a2.73,2.73,0,1,1,2.73-2.73A2.73,2.73,0,0,1,106.7,96Zm0-4.83a2.11,2.11,0,1,0,2.1,2.1A2.1,2.1,0,0,0,106.7,91.21Z" transform="translate(-90.57 -89.09)"/><g class="cls-3"><polygon class="cls-1" points="14.07 2.12 14.14 6.33 14.03 6.33 14.03 2.12 14.07 2.12"/><polygon class="cls-1" points="14.21 2.12 14.28 6.33 14.14 6.33 14.07 2.12 14.21 2.12"/><polygon class="cls-1" points="14.35 2.12 14.42 6.33 14.28 6.33 14.21 2.12 14.35 2.12"/><polygon class="cls-1" points="14.48 2.12 14.55 6.33 14.42 6.33 14.35 2.12 14.48 2.12"/><polygon class="cls-1" points="14.62 2.12 14.69 6.33 14.55 6.33 14.48 2.12 14.62 2.12"/><polygon class="cls-1" points="14.76 2.12 14.83 6.33 14.69 6.33 14.62 2.12 14.76 2.12"/><polygon class="cls-1" points="14.9 2.12 14.97 6.33 14.83 6.33 14.76 2.12 14.9 2.12"/><polygon class="cls-1" points="15.03 2.12 15.1 6.33 14.97 6.33 14.9 2.12 15.03 2.12"/><polygon class="cls-1" points="15.17 2.12 15.24 6.33 15.1 6.33 15.03 2.12 15.17 2.12"/><polygon class="cls-1" points="15.31 2.12 15.38 6.33 15.24 6.33 15.17 2.12 15.31 2.12"/><polygon class="cls-1" points="15.45 2.12 15.52 6.33 15.38 6.33 15.31 2.12 15.45 2.12"/><polygon class="cls-1" points="15.58 2.12 15.65 6.33 15.52 6.33 15.45 2.12 15.58 2.12"/><polygon class="cls-1" points="15.72 2.12 15.79 6.33 15.65 6.33 15.58 2.12 15.72 2.12"/><polygon class="cls-1" points="15.86 2.12 15.93 6.33 15.79 6.33 15.72 2.12 15.86 2.12"/><polygon class="cls-1" points="16 2.12 16.07 6.33 15.93 6.33 15.86 2.12 16 2.12"/><polygon class="cls-1" points="16.13 2.12 16.2 6.33 16.07 6.33 16 2.12 16.13 2.12"/><polygon class="cls-1" points="16.27 2.12 16.34 6.33 16.2 6.33 16.13 2.12 16.27 2.12"/><polygon class="cls-1" points="16.41 2.12 16.48 6.33 16.34 6.33 16.27 2.12 16.41 2.12"/><polygon class="cls-1" points="16.55 2.12 16.61 6.33 16.48 6.33 16.41 2.12 16.55 2.12"/><polygon class="cls-1" points="16.68 2.12 16.75 6.33 16.61 6.33 16.55 2.12 16.68 2.12"/><polygon class="cls-1" points="16.82 2.12 16.89 6.33 16.75 6.33 16.68 2.12 16.82 2.12"/><polygon class="cls-1" points="16.96 2.12 17.03 6.33 16.89 6.33 16.82 2.12 16.96 2.12"/><polygon class="cls-1" points="17.09 2.12 17.16 6.33 17.03 6.33 16.96 2.12 17.09 2.12"/><polygon class="cls-1" points="17.23 2.12 17.3 6.33 17.16 6.33 17.09 2.12 17.23 2.12"/><polygon class="cls-1" points="17.37 2.12 17.44 6.33 17.3 6.33 17.23 2.12 17.37 2.12"/><polygon class="cls-1" points="17.51 2.12 17.58 6.33 17.44 6.33 17.37 2.12 17.51 2.12"/><polygon class="cls-1" points="17.64 2.12 17.71 6.33 17.58 6.33 17.51 2.12 17.64 2.12"/><polygon class="cls-1" points="17.78 2.12 17.85 6.33 17.71 6.33 17.64 2.12 17.78 2.12"/><polygon class="cls-1" points="17.92 2.12 17.99 6.33 17.85 6.33 17.78 2.12 17.92 2.12"/><polygon class="cls-1" points="18.06 2.12 18.13 6.33 17.99 6.33 17.92 2.12 18.06 2.12"/><polygon class="cls-1" points="18.13 6.33 18.06 2.12 18.23 2.12 18.23 6.33 18.13 6.33"/><polygon class="cls-1" points="13.4 3.03 13.46 6.95 13.4 6.95 13.4 3.03"/><polygon class="cls-1" points="13.51 1.5 13.6 6.95 13.46 6.95 13.4 3.03 13.4 1.5 13.51 1.5"/><polygon class="cls-1" points="13.65 1.5 13.74 6.95 13.6 6.95 13.51 1.5 13.65 1.5"/><polygon class="cls-1" points="13.79 1.5 13.88 6.95 13.74 6.95 13.65 1.5 13.79 1.5"/><polygon class="cls-1" points="13.93 1.5 14.02 6.95 13.88 6.95 13.79 1.5 13.93 1.5"/><polygon class="cls-1" points="14.06 1.5 14.15 6.95 14.02 6.95 13.93 1.5 14.06 1.5"/><polygon class="cls-1" points="14.2 1.5 14.29 6.95 14.15 6.95 14.06 1.5 14.2 1.5"/><polygon class="cls-1" points="14.34 1.5 14.43 6.95 14.29 6.95 14.2 1.5 14.34 1.5"/><polygon class="cls-1" points="14.47 1.5 14.56 6.95 14.43 6.95 14.34 1.5 14.47 1.5"/><polygon class="cls-1" points="14.61 1.5 14.7 6.95 14.56 6.95 14.47 1.5 14.61 1.5"/><polygon class="cls-1" points="14.75 1.5 14.84 6.95 14.7 6.95 14.61 1.5 14.75 1.5"/><polygon class="cls-1" points="14.89 1.5 14.98 6.95 14.84 6.95 14.75 1.5 14.89 1.5"/><polygon class="cls-1" points="15.02 1.5 15.11 6.95 14.98 6.95 14.89 1.5 15.02 1.5"/><polygon class="cls-1" points="15.16 1.5 15.25 6.95 15.11 6.95 15.02 1.5 15.16 1.5"/><polygon class="cls-1" points="15.3 1.5 15.39 6.95 15.25 6.95 15.16 1.5 15.3 1.5"/><polygon class="cls-1" points="15.44 1.5 15.53 6.95 15.39 6.95 15.3 1.5 15.44 1.5"/><polygon class="cls-1" points="15.57 1.5 15.66 6.95 15.53 6.95 15.44 1.5 15.57 1.5"/><polygon class="cls-1" points="15.71 1.5 15.8 6.95 15.66 6.95 15.57 1.5 15.71 1.5"/><polygon class="cls-1" points="15.85 1.5 15.94 6.95 15.8 6.95 15.71 1.5 15.85 1.5"/><polygon class="cls-1" points="15.98 1.5 16.07 6.95 15.94 6.95 15.85 1.5 15.98 1.5"/><polygon class="cls-1" points="16.12 1.5 16.21 6.95 16.07 6.95 15.98 1.5 16.12 1.5"/><polygon class="cls-1" points="16.26 1.5 16.35 6.95 16.21 6.95 16.12 1.5 16.26 1.5"/><polygon class="cls-1" points="16.4 1.5 16.49 6.95 16.35 6.95 16.26 1.5 16.4 1.5"/><polygon class="cls-1" points="16.54 1.5 16.63 6.95 16.49 6.95 16.4 1.5 16.54 1.5"/><polygon class="cls-1" points="16.67 1.5 16.76 6.95 16.63 6.95 16.54 1.5 16.67 1.5"/><polygon class="cls-1" points="16.81 1.5 16.9 6.95 16.76 6.95 16.67 1.5 16.81 1.5"/><polygon class="cls-1" points="16.95 1.5 17.04 6.95 16.9 6.95 16.81 1.5 16.95 1.5"/><polygon class="cls-1" points="17.08 1.5 17.17 6.95 17.04 6.95 16.95 1.5 17.08 1.5"/><polygon class="cls-1" points="17.22 1.5 17.31 6.95 17.17 6.95 17.08 1.5 17.22 1.5"/><polygon class="cls-1" points="17.36 1.5 17.45 6.95 17.31 6.95 17.22 1.5 17.36 1.5"/><polygon class="cls-1" points="17.5 1.5 17.59 6.95 17.45 6.95 17.36 1.5 17.5 1.5"/><polygon class="cls-1" points="17.63 1.5 17.72 6.95 17.59 6.95 17.5 1.5 17.63 1.5"/><polygon class="cls-1" points="17.77 1.5 17.86 6.95 17.72 6.95 17.63 1.5 17.77 1.5"/><polygon class="cls-1" points="17.91 1.5 18 6.95 17.86 6.95 17.77 1.5 17.91 1.5"/><polygon class="cls-1" points="18.05 1.5 18.14 6.95 18 6.95 17.91 1.5 18.05 1.5"/><polygon class="cls-1" points="18.14 6.95 18.05 1.5 18.86 1.5 18.86 6.95 18.14 6.95"/></g><path id="SVGID-6" data-name="SVGID" class="cls-1" d="M92.94,95.68a2.37,2.37,0,1,1,2.36-2.37A2.37,2.37,0,0,1,92.94,95.68Zm0-4.11a1.74,1.74,0,1,0,1.74,1.74A1.74,1.74,0,0,0,92.94,91.57Z" transform="translate(-90.57 -89.09)"/><g class="cls-4"><polygon class="cls-1" points="0.62 2.94 0.67 5.97 0.62 5.97 0.62 2.94"/><polygon class="cls-1" points="0.75 2.48 0.81 5.97 0.67 5.97 0.62 2.94 0.62 2.48 0.75 2.48"/><polygon class="cls-1" points="0.89 2.48 0.95 5.97 0.81 5.97 0.75 2.48 0.89 2.48"/><polygon class="cls-1" points="1.03 2.48 1.09 5.97 0.95 5.97 0.89 2.48 1.03 2.48"/><polygon class="cls-1" points="1.17 2.48 1.22 5.97 1.09 5.97 1.03 2.48 1.17 2.48"/><polygon class="cls-1" points="1.3 2.48 1.36 5.97 1.22 5.97 1.17 2.48 1.3 2.48"/><polygon class="cls-1" points="1.44 2.48 1.5 5.97 1.36 5.97 1.3 2.48 1.44 2.48"/><polygon class="cls-1" points="1.58 2.48 1.64 5.97 1.5 5.97 1.44 2.48 1.58 2.48"/><polygon class="cls-1" points="1.72 2.48 1.77 5.97 1.64 5.97 1.58 2.48 1.72 2.48"/><polygon class="cls-1" points="1.85 2.48 1.91 5.97 1.77 5.97 1.72 2.48 1.85 2.48"/><polygon class="cls-1" points="1.99 2.48 2.05 5.97 1.91 5.97 1.85 2.48 1.99 2.48"/><polygon class="cls-1" points="2.13 2.48 2.19 5.97 2.05 5.97 1.99 2.48 2.13 2.48"/><polygon class="cls-1" points="2.27 2.48 2.32 5.97 2.19 5.97 2.13 2.48 2.27 2.48"/><polygon class="cls-1" points="2.4 2.48 2.46 5.97 2.32 5.97 2.27 2.48 2.4 2.48"/><polygon class="cls-1" points="2.54 2.48 2.6 5.97 2.46 5.97 2.4 2.48 2.54 2.48"/><polygon class="cls-1" points="2.68 2.48 2.73 5.97 2.6 5.97 2.54 2.48 2.68 2.48"/><polygon class="cls-1" points="2.81 2.48 2.87 5.97 2.73 5.97 2.68 2.48 2.81 2.48"/><polygon class="cls-1" points="2.95 2.48 3.01 5.97 2.87 5.97 2.81 2.48 2.95 2.48"/><polygon class="cls-1" points="3.09 2.48 3.15 5.97 3.01 5.97 2.95 2.48 3.09 2.48"/><polygon class="cls-1" points="3.23 2.48 3.28 5.97 3.15 5.97 3.09 2.48 3.23 2.48"/><polygon class="cls-1" points="3.36 2.48 3.42 5.97 3.28 5.97 3.23 2.48 3.36 2.48"/><polygon class="cls-1" points="3.5 2.48 3.56 5.97 3.42 5.97 3.36 2.48 3.5 2.48"/><polygon class="cls-1" points="3.64 2.48 3.7 5.97 3.56 5.97 3.5 2.48 3.64 2.48"/><polygon class="cls-1" points="3.78 2.48 3.83 5.97 3.7 5.97 3.64 2.48 3.78 2.48"/><polygon class="cls-1" points="3.91 2.48 3.97 5.97 3.83 5.97 3.78 2.48 3.91 2.48"/><polygon class="cls-1" points="4.05 2.48 4.11 5.97 3.97 5.97 3.91 2.48 4.05 2.48"/><polygon class="cls-1" points="4.11 5.97 4.05 2.48 4.11 2.48 4.11 5.97 4.11 5.97"/><polygon class="cls-1" points="0.47 1.86 0.55 6.59 0 6.59 0 1.86 0.47 1.86"/><polygon class="cls-1" points="0.61 1.86 0.68 6.59 0.55 6.59 0.47 1.86 0.61 1.86"/><polygon class="cls-1" points="0.74 1.86 0.82 6.59 0.68 6.59 0.61 1.86 0.74 1.86"/><polygon class="cls-1" points="0.88 1.86 0.96 6.59 0.82 6.59 0.74 1.86 0.88 1.86"/><polygon class="cls-1" points="1.02 1.86 1.1 6.59 0.96 6.59 0.88 1.86 1.02 1.86"/><polygon class="cls-1" points="1.16 1.86 1.23 6.59 1.1 6.59 1.02 1.86 1.16 1.86"/><polygon class="cls-1" points="1.29 1.86 1.37 6.59 1.23 6.59 1.16 1.86 1.29 1.86"/><polygon class="cls-1" points="1.43 1.86 1.51 6.59 1.37 6.59 1.29 1.86 1.43 1.86"/><polygon class="cls-1" points="1.57 1.86 1.65 6.59 1.51 6.59 1.43 1.86 1.57 1.86"/><polygon class="cls-1" points="1.71 1.86 1.78 6.59 1.65 6.59 1.57 1.86 1.71 1.86"/><polygon class="cls-1" points="1.84 1.86 1.92 6.59 1.78 6.59 1.71 1.86 1.84 1.86"/><polygon class="cls-1" points="1.98 1.86 2.06 6.59 1.92 6.59 1.84 1.86 1.98 1.86"/><polygon class="cls-1" points="2.12 1.86 2.19 6.59 2.06 6.59 1.98 1.86 2.12 1.86"/><polygon class="cls-1" points="2.25 1.86 2.33 6.59 2.19 6.59 2.12 1.86 2.25 1.86"/><polygon class="cls-1" points="2.39 1.86 2.47 6.59 2.33 6.59 2.25 1.86 2.39 1.86"/><polygon class="cls-1" points="2.53 1.86 2.61 6.59 2.47 6.59 2.39 1.86 2.53 1.86"/><polygon class="cls-1" points="2.67 1.86 2.75 6.59 2.61 6.59 2.53 1.86 2.67 1.86"/><polygon class="cls-1" points="2.8 1.86 2.88 6.59 2.75 6.59 2.67 1.86 2.8 1.86"/><polygon class="cls-1" points="2.94 1.86 3.02 6.59 2.88 6.59 2.8 1.86 2.94 1.86"/><polygon class="cls-1" points="3.08 1.86 3.16 6.59 3.02 6.59 2.94 1.86 3.08 1.86"/><polygon class="cls-1" points="3.22 1.86 3.29 6.59 3.16 6.59 3.08 1.86 3.22 1.86"/><polygon class="cls-1" points="3.35 1.86 3.43 6.59 3.29 6.59 3.22 1.86 3.35 1.86"/><polygon class="cls-1" points="3.49 1.86 3.57 6.59 3.43 6.59 3.35 1.86 3.49 1.86"/><polygon class="cls-1" points="3.63 1.86 3.71 6.59 3.57 6.59 3.49 1.86 3.63 1.86"/><polygon class="cls-1" points="3.77 1.86 3.84 6.59 3.71 6.59 3.63 1.86 3.77 1.86"/><polygon class="cls-1" points="3.9 1.86 3.98 6.59 3.84 6.59 3.77 1.86 3.9 1.86"/><polygon class="cls-1" points="4.04 1.86 4.12 6.59 3.98 6.59 3.9 1.86 4.04 1.86"/><polygon class="cls-1" points="4.18 1.86 4.26 6.59 4.12 6.59 4.04 1.86 4.18 1.86"/><polygon class="cls-1" points="4.32 1.86 4.39 6.59 4.26 6.59 4.18 1.86 4.32 1.86"/><polygon class="cls-1" points="4.45 1.86 4.53 6.59 4.39 6.59 4.32 1.86 4.45 1.86"/><polygon class="cls-1" points="4.59 1.86 4.67 6.59 4.53 6.59 4.45 1.86 4.59 1.86"/><polygon class="cls-1" points="4.73 1.86 4.73 2.19 4.73 6.59 4.67 6.59 4.59 1.86 4.73 1.86"/><polygon class="cls-1" points="4.73 2.19 4.73 1.86 4.73 1.86 4.73 2.19"/></g></svg>