<svg id="Layer_1" data-name="Layer 1" xmlns="http://www.w3.org/2000/svg" viewBox="0 0 100 114.76"><defs><style>.cls-1,.cls-2{fill:#93c01f;}.cls-1{stroke:gray;stroke-miterlimit:10;stroke-width:6px;}</style></defs><title>Helpdesk</title><path class="cls-1" d="M57.77,87.55" transform="translate(-50 -42.62)"/><path class="cls-1" d="M100,129.78" transform="translate(-50 -42.62)"/><path class="cls-2" d="M144.94,87.55h-5.42a39.52,39.52,0,0,0-79,0H55.06a44.94,44.94,0,0,1,89.88,0Z" transform="translate(-50 -42.62)"/><path class="cls-1" d="M147.29,91.09" transform="translate(-50 -42.62)"/><path class="cls-2" d="M103.07,155.54c-25.88,0-46.94-28.91-46.94-64.45h5.42c0,32.55,18.62,59,41.52,59Z" transform="translate(-50 -42.62)"/><path class="cls-2" d="M86.46,33.46h9.38a1.45,1.45,0,0,1,1.45,1.45V63.58A1.45,1.45,0,0,1,95.85,65H86.46a.54.54,0,0,1-.54-.54V34a.54.54,0,0,1,.54-.54Z"/><path class="cls-2" d="M140.07,110.35h-1.44a5.42,5.42,0,0,1-5.42-5.42V78.78a5.42,5.42,0,0,1,5.42-5.41h1.44A9.94,9.94,0,0,1,150,83.3v17.12A10,10,0,0,1,140.07,110.35Zm-1.44-31.57v26.15h1.44a4.51,4.51,0,0,0,4.51-4.51V83.3a4.52,4.52,0,0,0-4.51-4.52Z" transform="translate(-50 -42.62)"/><path class="cls-2" d="M53.25,76.07h9.38a1.45,1.45,0,0,1,1.45,1.45v28.67a1.45,1.45,0,0,1-1.45,1.45H53.25a.54.54,0,0,1-.54-.54V76.62a.54.54,0,0,1,.54-.54Z" transform="translate(66.79 141.1) rotate(-180)"/><path class="cls-2" d="M61.37,110.35H59.93A10,10,0,0,1,50,100.42V83.3a9.94,9.94,0,0,1,9.93-9.93h1.44a5.42,5.42,0,0,1,5.42,5.41v26.15A5.42,5.42,0,0,1,61.37,110.35ZM59.93,78.78a4.52,4.52,0,0,0-4.51,4.52v17.12a4.51,4.51,0,0,0,4.51,4.51h1.44V78.78Z" transform="translate(-50 -42.62)"/><path class="cls-2" d="M40.68,99.41H60.09a1,1,0,0,1,1,1v13.34a1,1,0,0,1-1,1H40.68a1.34,1.34,0,0,1-1.34-1.34V100.75a1.34,1.34,0,0,1,1.34-1.34Z"/><path class="cls-2" d="M101.49,133.43h-3a27.12,27.12,0,0,1-27.09-27.08V79.08A20.8,20.8,0,0,1,92.19,58.31h15.62a20.8,20.8,0,0,1,20.77,20.77v27.27A27.12,27.12,0,0,1,101.49,133.43Zm-9.3-69.7A15.37,15.37,0,0,0,76.84,79.08v27.27A21.69,21.69,0,0,0,98.51,128h3a21.69,21.69,0,0,0,21.67-21.67V79.08a15.37,15.37,0,0,0-15.35-15.35Z" transform="translate(-50 -42.62)"/></svg>