<svg id="Layer_1" data-name="Layer 1" xmlns="http://www.w3.org/2000/svg" xmlns:xlink="http://www.w3.org/1999/xlink" viewBox="0 0 100 94.72"><defs><style>.cls-1{fill:#063;}.cls-2{clip-path:url(#clip-path);}</style><clipPath id="clip-path" transform="translate(-50 -52.64)"><polygon id="SVGID" class="cls-1" points="144.93 100.31 100 122.06 55.07 100.31 77 88.99 100 100.12 123 88.99 144.93 100.31"/></clipPath></defs><title>Hr_documents</title><path class="cls-1" d="M100,147.36,50,123.15l50-25.79,50,25.79ZM60.14,123,100,142.32,139.86,123,100,102.46Z" transform="translate(-50 -52.64)"/><polygon id="SVGID-2" data-name="SVGID" class="cls-1" points="94.93 47.66 50 69.42 5.07 47.66 27 36.35 50 47.48 73 36.35 94.93 47.66"/><g class="cls-2"><rect class="cls-1" x="5.07" y="36.35" width="0.11" height="33.07"/><rect class="cls-1" x="5.18" y="36.35" width="0.7" height="33.07"/><rect class="cls-1" x="5.88" y="36.35" width="0.7" height="33.07"/><rect class="cls-1" x="6.58" y="36.35" width="0.7" height="33.07"/><rect class="cls-1" x="7.28" y="36.35" width="0.7" height="33.07"/><rect class="cls-1" x="7.98" y="36.35" width="0.7" height="33.07"/><rect class="cls-1" x="8.69" y="36.35" width="0.7" height="33.07"/><rect class="cls-1" x="9.39" y="36.35" width="0.7" height="33.07"/><rect class="cls-1" x="10.09" y="36.35" width="0.7" height="33.07"/><rect class="cls-1" x="10.79" y="36.35" width="0.7" height="33.07"/><rect class="cls-1" x="11.49" y="36.35" width="0.7" height="33.07"/><rect class="cls-1" x="12.19" y="36.35" width="0.7" height="33.07"/><rect class="cls-1" x="12.89" y="36.35" width="0.7" height="33.07"/><rect class="cls-1" x="13.59" y="36.35" width="0.7" height="33.07"/><rect class="cls-1" x="14.29" y="36.35" width="0.7" height="33.07"/><rect class="cls-1" x="15" y="36.35" width="0.7" height="33.07"/><rect class="cls-1" x="15.7" y="36.35" width="0.7" height="33.07"/><rect class="cls-1" x="16.4" y="36.35" width="0.7" height="33.07"/><rect class="cls-1" x="17.1" y="36.35" width="0.7" height="33.07"/><rect class="cls-1" x="17.8" y="36.35" width="0.7" height="33.07"/><rect class="cls-1" x="18.5" y="36.35" width="0.7" height="33.07"/><rect class="cls-1" x="19.2" y="36.35" width="0.7" height="33.07"/><rect class="cls-1" x="19.9" y="36.35" width="0.7" height="33.07"/><rect class="cls-1" x="20.61" y="36.35" width="0.7" height="33.07"/><rect class="cls-1" x="21.31" y="36.35" width="0.7" height="33.07"/><rect class="cls-1" x="22.01" y="36.35" width="0.7" height="33.07"/><rect class="cls-1" x="22.71" y="36.35" width="0.7" height="33.07"/><rect class="cls-1" x="23.41" y="36.35" width="0.7" height="33.07"/><rect class="cls-1" x="24.11" y="36.35" width="0.7" height="33.07"/><rect class="cls-1" x="24.81" y="36.35" width="0.7" height="33.07"/><rect class="cls-1" x="25.51" y="36.35" width="0.7" height="33.07"/><rect class="cls-1" x="26.22" y="36.35" width="0.7" height="33.07"/><rect class="cls-1" x="26.92" y="36.35" width="0.7" height="33.07"/><rect class="cls-1" x="27.62" y="36.35" width="0.7" height="33.07"/><rect class="cls-1" x="28.32" y="36.35" width="0.7" height="33.07"/><rect class="cls-1" x="29.02" y="36.35" width="0.7" height="33.07"/><rect class="cls-1" x="29.72" y="36.35" width="0.7" height="33.07"/><rect class="cls-1" x="30.42" y="36.35" width="0.7" height="33.07"/><rect class="cls-1" x="31.12" y="36.35" width="0.7" height="33.07"/><rect class="cls-1" x="31.82" y="36.35" width="0.7" height="33.07"/><rect class="cls-1" x="32.53" y="36.35" width="0.7" height="33.07"/><rect class="cls-1" x="33.23" y="36.35" width="0.7" height="33.07"/><rect class="cls-1" x="33.93" y="36.35" width="0.7" height="33.07"/><rect class="cls-1" x="34.63" y="36.35" width="0.7" height="33.07"/><rect class="cls-1" x="35.33" y="36.35" width="0.7" height="33.07"/><rect class="cls-1" x="36.03" y="36.35" width="0.7" height="33.07"/><rect class="cls-1" x="36.73" y="36.35" width="0.7" height="33.07"/><rect class="cls-1" x="37.43" y="36.35" width="0.7" height="33.07"/><rect class="cls-1" x="38.14" y="36.35" width="0.7" height="33.07"/><rect class="cls-1" x="38.84" y="36.35" width="0.7" height="33.07"/><rect class="cls-1" x="39.54" y="36.35" width="0.7" height="33.07"/><rect class="cls-1" x="40.24" y="36.35" width="0.7" height="33.07"/><rect class="cls-1" x="40.94" y="36.35" width="0.7" height="33.07"/><rect class="cls-1" x="41.64" y="36.35" width="0.7" height="33.07"/><rect class="cls-1" x="42.34" y="36.35" width="0.7" height="33.07"/><rect class="cls-1" x="43.04" y="36.35" width="0.7" height="33.07"/><rect class="cls-1" x="43.75" y="36.35" width="0.7" height="33.07"/><rect class="cls-1" x="44.45" y="36.35" width="0.7" height="33.07"/><rect class="cls-1" x="45.15" y="36.35" width="0.7" height="33.07"/><rect class="cls-1" x="45.85" y="36.35" width="0.7" height="33.07"/><rect class="cls-1" x="46.55" y="36.35" width="0.7" height="33.07"/><rect class="cls-1" x="47.25" y="36.35" width="0.7" height="33.07"/><rect class="cls-1" x="47.95" y="36.35" width="0.7" height="33.07"/><rect class="cls-1" x="48.65" y="36.35" width="0.7" height="33.07"/><rect class="cls-1" x="49.35" y="36.35" width="0.7" height="33.07"/><rect class="cls-1" x="50.06" y="36.35" width="0.7" height="33.07"/><rect class="cls-1" x="50.76" y="36.35" width="0.7" height="33.07"/><rect class="cls-1" x="51.46" y="36.35" width="0.7" height="33.07"/><rect class="cls-1" x="52.16" y="36.35" width="0.7" height="33.07"/><rect class="cls-1" x="52.86" y="36.35" width="0.7" height="33.07"/><rect class="cls-1" x="53.56" y="36.35" width="0.7" height="33.07"/><rect class="cls-1" x="54.26" y="36.35" width="0.7" height="33.07"/><rect class="cls-1" x="54.96" y="36.35" width="0.7" height="33.07"/><rect class="cls-1" x="55.67" y="36.35" width="0.7" height="33.07"/><rect class="cls-1" x="56.37" y="36.35" width="0.7" height="33.07"/><rect class="cls-1" x="57.07" y="36.35" width="0.7" height="33.07"/><rect class="cls-1" x="57.77" y="36.35" width="0.7" height="33.07"/><rect class="cls-1" x="58.47" y="36.35" width="0.7" height="33.07"/><rect class="cls-1" x="59.17" y="36.35" width="0.7" height="33.07"/><rect class="cls-1" x="59.87" y="36.35" width="0.7" height="33.07"/><rect class="cls-1" x="60.57" y="36.35" width="0.7" height="33.07"/><rect class="cls-1" x="61.28" y="36.35" width="0.7" height="33.07"/><rect class="cls-1" x="61.98" y="36.35" width="0.7" height="33.07"/><rect class="cls-1" x="62.68" y="36.35" width="0.7" height="33.07"/><rect class="cls-1" x="63.38" y="36.35" width="0.7" height="33.07"/><rect class="cls-1" x="64.08" y="36.35" width="0.7" height="33.07"/><rect class="cls-1" x="64.78" y="36.35" width="0.7" height="33.07"/><rect class="cls-1" x="65.48" y="36.35" width="0.7" height="33.07"/><rect class="cls-1" x="66.18" y="36.35" width="0.7" height="33.07"/><rect class="cls-1" x="66.88" y="36.35" width="0.7" height="33.07"/><rect class="cls-1" x="67.59" y="36.35" width="0.7" height="33.07"/><rect class="cls-1" x="68.29" y="36.35" width="0.7" height="33.07"/><rect class="cls-1" x="68.99" y="36.35" width="0.7" height="33.07"/><rect class="cls-1" x="69.69" y="36.35" width="0.7" height="33.07"/><rect class="cls-1" x="70.39" y="36.35" width="0.7" height="33.07"/><rect class="cls-1" x="71.09" y="36.35" width="0.7" height="33.07"/><rect class="cls-1" x="71.79" y="36.35" width="0.7" height="33.07"/><rect class="cls-1" x="72.49" y="36.35" width="0.7" height="33.07"/><rect class="cls-1" x="73.2" y="36.35" width="0.7" height="33.07"/><rect class="cls-1" x="73.9" y="36.35" width="0.7" height="33.07"/><rect class="cls-1" x="74.6" y="36.35" width="0.7" height="33.07"/><rect class="cls-1" x="75.3" y="36.35" width="0.7" height="33.07"/><rect class="cls-1" x="76" y="36.35" width="0.7" height="33.07"/><rect class="cls-1" x="76.7" y="36.35" width="0.7" height="33.07"/><rect class="cls-1" x="77.4" y="36.35" width="0.7" height="33.07"/><rect class="cls-1" x="78.1" y="36.35" width="0.7" height="33.07"/><rect class="cls-1" x="78.8" y="36.35" width="0.7" height="33.07"/><rect class="cls-1" x="79.51" y="36.35" width="0.7" height="33.07"/><rect class="cls-1" x="80.21" y="36.35" width="0.7" height="33.07"/><rect class="cls-1" x="80.91" y="36.35" width="0.7" height="33.07"/><rect class="cls-1" x="81.61" y="36.35" width="0.7" height="33.07"/><rect class="cls-1" x="82.31" y="36.35" width="0.7" height="33.07"/><rect class="cls-1" x="83.01" y="36.35" width="0.7" height="33.07"/><rect class="cls-1" x="83.71" y="36.35" width="0.7" height="33.07"/><rect class="cls-1" x="84.41" y="36.35" width="0.7" height="33.07"/><rect class="cls-1" x="85.12" y="36.35" width="0.7" height="33.07"/><rect class="cls-1" x="85.82" y="36.35" width="0.7" height="33.07"/><rect class="cls-1" x="86.52" y="36.35" width="0.7" height="33.07"/><rect class="cls-1" x="87.22" y="36.35" width="0.7" height="33.07"/><rect class="cls-1" x="87.92" y="36.35" width="0.7" height="33.07"/><rect class="cls-1" x="88.62" y="36.35" width="0.7" height="33.07"/><rect class="cls-1" x="89.32" y="36.35" width="0.7" height="33.07"/><rect class="cls-1" x="90.02" y="36.35" width="0.7" height="33.07"/><rect class="cls-1" x="90.73" y="36.35" width="0.7" height="33.07"/><rect class="cls-1" x="91.43" y="36.35" width="0.7" height="33.07"/><rect class="cls-1" x="92.13" y="36.35" width="0.7" height="33.07"/><rect class="cls-1" x="92.83" y="36.35" width="0.7" height="33.07"/><rect class="cls-1" x="93.53" y="36.35" width="0.7" height="33.07"/><rect class="cls-1" x="94.23" y="36.35" width="0.7" height="33.07"/><path class="cls-1" d="M144.93,122.06v0Z" transform="translate(-50 -52.64)"/></g><path class="cls-1" d="M100,102.64,50,78.43l50-25.79,50,25.79ZM60.14,78.31,100,97.61l39.86-19.3L100,57.74Z" transform="translate(-50 -52.64)"/></svg>