<svg id="Layer_1" data-name="Layer 1" xmlns="http://www.w3.org/2000/svg" viewBox="0 0 100 100"><defs><style>.cls-1{fill:#e61d5a;}</style></defs><title>Income_Tax</title><path class="cls-1" d="M100,54.93A45.07,45.07,0,1,1,54.93,100,45.12,45.12,0,0,1,100,54.93M100,50a50,50,0,1,0,50,50,50,50,0,0,0-50-50Z" transform="translate(-50 -50)"/><path class="cls-1" d="M85.06,117.4a2.46,2.46,0,0,1-1.74-4.2L113.2,83.32a2.46,2.46,0,0,1,3.48,3.48L86.8,116.68A2.45,2.45,0,0,1,85.06,117.4Z" transform="translate(-50 -50)"/><path class="cls-1" d="M90.47,98.33a7.87,7.87,0,1,1,7.86-7.86A7.88,7.88,0,0,1,90.47,98.33Zm0-10.8a2.94,2.94,0,1,0,2.93,2.94A2.93,2.93,0,0,0,90.47,87.53Z" transform="translate(-50 -50)"/><path class="cls-1" d="M109.53,117.4a7.87,7.87,0,1,1,7.87-7.87A7.88,7.88,0,0,1,109.53,117.4Zm0-10.8a2.94,2.94,0,1,0,2.94,2.93A2.93,2.93,0,0,0,109.53,106.6Z" transform="translate(-50 -50)"/><path class="cls-1" d="M75.1,97.54a2.47,2.47,0,0,1-2.46-2.47V72.64H95.07a2.47,2.47,0,1,1,0,4.93H77.57v17.5A2.48,2.48,0,0,1,75.1,97.54Z" transform="translate(-50 -50)"/><path class="cls-1" d="M127.39,127.39H105a2.47,2.47,0,0,1,0-4.93h17.51V105a2.47,2.47,0,0,1,4.93,0Z" transform="translate(-50 -50)"/></svg>