<svg id="Layer_1" data-name="Layer 1" xmlns="http://www.w3.org/2000/svg" viewBox="0 0 20.03 18.05"><defs><style>.cls-1{fill:#2d2e82;}.cls-2{fill:#35a8e0;}.cls-3{fill:#39a935;}</style></defs><title>Induction</title><path d="M96.65,82.47c-.64-.29-1.26-.62-1.89-.93-.17-.09-.19-.17-.08-.32l.4-.57a.86.86,0,0,0,.17-.46,18.4,18.4,0,0,0,0-2.1,2.48,2.48,0,0,0-4.93.26V79.4c0,1.21-.11.83.56,1.79.15.22.15.24-.1.36l-2,1a.73.73,0,0,0-.46.72v.88c0,.58.22.79.8.79,1.23,0,2.46,0,3.69,0s2.48,0,3.71,0c.54,0,.74-.21.75-.75,0-.27,0-.54,0-.8A.82.82,0,0,0,96.65,82.47Zm-.77,1.13c0,.05-.06.06-.11.06h-6c-.07,0-.16,0-.18-.08s.07-.11.13-.13l.7-.35,1.76-.84a.63.63,0,0,0,.27-1c-.24-.35-.48-.69-.73-1a.74.74,0,0,1-.14-.43c0-.46,0-.91,0-1.37a1.18,1.18,0,0,1,1.15-1.21,1.19,1.19,0,0,1,1.28,1,13.45,13.45,0,0,1,0,1.68.5.5,0,0,1-.11.26c-.24.35-.49.7-.72,1.06a.64.64,0,0,0,.27,1l2.2,1.1.18.09S95.9,83.53,95.88,83.6Z" transform="translate(-85.75 -70.46)"/><path d="M98.35,81.56a.63.63,0,1,1,0-1.25c.81,0,1.62,0,2.44,0a.63.63,0,1,1,0,1.25H98.35Z" transform="translate(-85.75 -70.46)"/><path d="M97.68,78.21a.58.58,0,0,1,.58-.54h4.11a.61.61,0,0,1,.14,1.18,1.36,1.36,0,0,1-.53.07H98.47a1.23,1.23,0,0,1-.33,0A.6.6,0,0,1,97.68,78.21Z" transform="translate(-85.75 -70.46)"/><path d="M105.71,83.48a.61.61,0,0,1-.12.69c-.36.42-.73.83-1.09,1.24L102,88.22a.68.68,0,0,1-.55.28.64.64,0,0,1-.44-.15l-2.61-2a.62.62,0,1,1,.76-1q1,.73,2,1.5c.17.14.27.13.42,0q1.48-1.71,3-3.4a.72.72,0,0,1,.63-.32A.59.59,0,0,1,105.71,83.48Z" transform="translate(-85.75 -70.46)"/><path d="M105.77,74.21a1.49,1.49,0,0,0-.78-1.35,1.72,1.72,0,0,0-.89-.21H98.29c-.43,0-.43,0-.43-.44s0-.68,0-1a.64.64,0,0,0-.71-.72h-3a.65.65,0,0,0-.72.73v1.07c0,.38,0,.39-.39.39-1.87,0-3.74,0-5.61,0a1.64,1.64,0,0,0-1.72,1.72c0,2,0,4,0,6.07v6.22A1.49,1.49,0,0,0,86.47,88a1.81,1.81,0,0,0,1,.26h9.64c.16,0,.24-.07.24-.23v-.6c0-.41,0-.42-.41-.42H87.34a.3.3,0,0,1-.32-.32V74.44c0-.47.06-.53.52-.53h5.57c.35,0,.35,0,.46.34a2.21,2.21,0,0,0,2.14,1.53,2.16,2.16,0,0,0,2.06-1.6.33.33,0,0,1,.38-.28H104c.39,0,.49.09.49.49v5.46c0,.46,0,.92,0,1.39,0,.18.07.27.27.27h.71c.21,0,.28-.09.28-.28C105.77,78.89,105.78,76.55,105.77,74.21Zm-9.17-.6a.94.94,0,0,1-1.87,0c0-.57,0-1.14,0-1.72,0-.15.08-.22.23-.22.47,0,1,0,1.43,0,.16,0,.22.09.22.24v.85C96.6,73.07,96.61,73.34,96.6,73.61Z" transform="translate(-85.75 -70.46)"/><path class="cls-1" d="M105.77,74.21a1.49,1.49,0,0,0-.78-1.35,1.72,1.72,0,0,0-.89-.21H98.29c-.43,0-.43,0-.43-.44s0-.68,0-1a.64.64,0,0,0-.71-.72h-3a.65.65,0,0,0-.72.73v1.07c0,.38,0,.39-.39.39-1.87,0-3.74,0-5.61,0a1.64,1.64,0,0,0-1.72,1.72c0,2,0,4,0,6.07v6.22A1.49,1.49,0,0,0,86.47,88a1.81,1.81,0,0,0,1,.26h9.64c.16,0,.24-.07.24-.23v-.6c0-.41,0-.42-.41-.42H87.34a.3.3,0,0,1-.32-.32V74.44c0-.47.06-.53.52-.53h5.57c.35,0,.35,0,.46.34a2.21,2.21,0,0,0,2.14,1.53,2.16,2.16,0,0,0,2.06-1.6.33.33,0,0,1,.38-.28H104c.39,0,.49.09.49.49v5.46c0,.46,0,.92,0,1.39,0,.18.07.27.27.27h.71c.21,0,.28-.09.28-.28C105.77,78.89,105.78,76.55,105.77,74.21Zm-9.17-.6a.94.94,0,0,1-1.87,0c0-.57,0-1.14,0-1.72,0-.15.08-.22.23-.22.47,0,1,0,1.43,0,.16,0,.22.09.22.24v.85C96.6,73.07,96.61,73.34,96.6,73.61Z" transform="translate(-85.75 -70.46)"/><path class="cls-2" d="M96.65,82.47c-.64-.29-1.26-.62-1.89-.93-.17-.09-.19-.17-.08-.32l.4-.57a.86.86,0,0,0,.17-.46,18.4,18.4,0,0,0,0-2.1,2.48,2.48,0,0,0-4.93.26V79.4c0,1.21-.11.83.56,1.79.15.22.15.24-.1.36l-2,1a.73.73,0,0,0-.46.72v.88c0,.58.22.79.8.79,1.23,0,2.46,0,3.69,0s2.48,0,3.71,0c.54,0,.74-.21.75-.75,0-.27,0-.54,0-.8A.82.82,0,0,0,96.65,82.47Zm-.77,1.13c0,.05-.06.06-.11.06h-6c-.07,0-.16,0-.18-.08s.07-.11.13-.13l.7-.35,1.76-.84a.63.63,0,0,0,.27-1c-.24-.35-.48-.69-.73-1a.74.74,0,0,1-.14-.43c0-.46,0-.91,0-1.37a1.18,1.18,0,0,1,1.15-1.21,1.19,1.19,0,0,1,1.28,1,13.45,13.45,0,0,1,0,1.68.5.5,0,0,1-.11.26c-.24.35-.49.7-.72,1.06a.64.64,0,0,0,.27,1l2.2,1.1.18.09S95.9,83.53,95.88,83.6Z" transform="translate(-85.75 -70.46)"/><path class="cls-3" d="M105.59,84.17c-.36.42-.73.83-1.09,1.24L102,88.22a.68.68,0,0,1-.55.28.64.64,0,0,1-.44-.15l-2.61-2a.62.62,0,1,1,.76-1q1,.73,2,1.5c.17.14.27.13.42,0q1.48-1.71,3-3.4a.72.72,0,0,1,.63-.32.59.59,0,0,1,.51.37A.61.61,0,0,1,105.59,84.17Z" transform="translate(-85.75 -70.46)"/><path class="cls-2" d="M102.51,78.85a1.36,1.36,0,0,1-.53.07H98.47a1.23,1.23,0,0,1-.33,0,.6.6,0,0,1-.46-.67.58.58,0,0,1,.58-.54h4.11a.61.61,0,0,1,.14,1.18Z" transform="translate(-85.75 -70.46)"/><path class="cls-2" d="M101.46,80.93a.64.64,0,0,1-.7.63H98.35a.63.63,0,1,1,0-1.25c.81,0,1.62,0,2.44,0A.64.64,0,0,1,101.46,80.93Z" transform="translate(-85.75 -70.46)"/></svg>