<svg id="Layer_1" data-name="Layer 1" xmlns="http://www.w3.org/2000/svg" xmlns:xlink="http://www.w3.org/1999/xlink" viewBox="0 0 100 96.58"><defs><style>.cls-1{fill:#e61d5a;}.cls-2{clip-path:url(#clip-path);}.cls-3{clip-path:url(#clip-path-2);}</style><clipPath id="clip-path" transform="translate(-50 -51.7)"><path id="SVGID" class="cls-1" d="M54.82,71.51l8.81,4,40.87-19a.83.83,0,0,0,0-1.51l-7.2-3.14a.92.92,0,0,0-.69,0L54.83,70a.82.82,0,0,0-.5.75.83.83,0,0,0,.49.76Zm0,0"/></clipPath><clipPath id="clip-path-2" transform="translate(-50 -51.7)"><path id="SVGID-2" data-name="SVGID" class="cls-1" d="M144.14,70.56a.85.85,0,0,0-.53-.78l-15.16-6.61a.87.87,0,0,0-.74,0L83.92,83.74,99.28,91a.9.9,0,0,0,.36.08A1,1,0,0,0,100,91l43.61-19.59a.88.88,0,0,0,.52-.8Zm0,0"/></clipPath></defs><title>Inventory</title><path id="SVGID-3" data-name="SVGID" class="cls-1" d="M54.82,71.51l8.81,4,40.87-19a.83.83,0,0,0,0-1.51l-7.2-3.14a.92.92,0,0,0-.69,0L54.83,70a.82.82,0,0,0-.5.75.83.83,0,0,0,.49.76Zm0,0" transform="translate(-50 -51.7)"/><g class="cls-2"><path class="cls-1" d="M54.82,71.51Z" transform="translate(-50 -51.7)"/><path class="cls-1" d="M54.82,71.51Z" transform="translate(-50 -51.7)"/><path class="cls-1" d="M54.82,71.51Z" transform="translate(-50 -51.7)"/><rect class="cls-1" x="4.33" width="0.06" height="23.77"/><rect class="cls-1" x="4.39" width="0.73" height="23.77"/><rect class="cls-1" x="5.13" width="0.73" height="23.77"/><rect class="cls-1" x="5.86" width="0.73" height="23.77"/><rect class="cls-1" x="6.59" width="0.73" height="23.77"/><rect class="cls-1" x="7.33" width="0.73" height="23.77"/><rect class="cls-1" x="8.06" width="0.73" height="23.77"/><rect class="cls-1" x="8.79" width="0.73" height="23.77"/><rect class="cls-1" x="9.52" width="0.73" height="23.77"/><rect class="cls-1" x="10.26" width="0.73" height="23.77"/><rect class="cls-1" x="10.99" width="0.73" height="23.77"/><rect class="cls-1" x="11.72" width="0.73" height="23.77"/><rect class="cls-1" x="12.46" width="0.73" height="23.77"/><rect class="cls-1" x="13.19" width="0.73" height="23.77"/><rect class="cls-1" x="13.92" width="0.73" height="23.77"/><rect class="cls-1" x="14.66" width="0.73" height="23.77"/><rect class="cls-1" x="15.39" width="0.73" height="23.77"/><rect class="cls-1" x="16.12" width="0.73" height="23.77"/><rect class="cls-1" x="16.86" width="0.73" height="23.77"/><rect class="cls-1" x="17.59" width="0.73" height="23.77"/><rect class="cls-1" x="18.32" width="0.73" height="23.77"/><rect class="cls-1" x="19.06" width="0.73" height="23.77"/><rect class="cls-1" x="19.79" width="0.73" height="23.77"/><rect class="cls-1" x="20.52" width="0.73" height="23.77"/><rect class="cls-1" x="21.26" width="0.73" height="23.77"/><rect class="cls-1" x="21.99" width="0.73" height="23.77"/><rect class="cls-1" x="22.72" width="0.73" height="23.77"/><rect class="cls-1" x="23.46" width="0.73" height="23.77"/><rect class="cls-1" x="24.19" width="0.73" height="23.77"/><rect class="cls-1" x="24.92" width="0.73" height="23.77"/><rect class="cls-1" x="25.65" width="0.73" height="23.77"/><rect class="cls-1" x="26.39" width="0.73" height="23.77"/><rect class="cls-1" x="27.12" width="0.73" height="23.77"/><rect class="cls-1" x="27.85" width="0.73" height="23.77"/><rect class="cls-1" x="28.59" width="0.73" height="23.77"/><rect class="cls-1" x="29.32" width="0.73" height="23.77"/><rect class="cls-1" x="30.05" width="0.73" height="23.77"/><rect class="cls-1" x="30.79" width="0.73" height="23.77"/><rect class="cls-1" x="31.52" width="0.73" height="23.77"/><rect class="cls-1" x="32.25" width="0.73" height="23.77"/><rect class="cls-1" x="32.99" width="0.73" height="23.77"/><rect class="cls-1" x="33.72" width="0.73" height="23.77"/><rect class="cls-1" x="34.45" width="0.73" height="23.77"/><rect class="cls-1" x="35.19" width="0.73" height="23.77"/><rect class="cls-1" x="35.92" width="0.73" height="23.77"/><rect class="cls-1" x="36.65" width="0.73" height="23.77"/><rect class="cls-1" x="37.39" width="0.73" height="23.77"/><rect class="cls-1" x="38.12" width="0.73" height="23.77"/><rect class="cls-1" x="38.85" width="0.73" height="23.77"/><rect class="cls-1" x="39.58" width="0.73" height="23.77"/><rect class="cls-1" x="40.32" width="0.73" height="23.77"/><rect class="cls-1" x="41.05" width="0.73" height="23.77"/><rect class="cls-1" x="41.78" width="0.73" height="23.77"/><rect class="cls-1" x="42.52" width="0.73" height="23.77"/><rect class="cls-1" x="43.25" width="0.73" height="23.77"/><rect class="cls-1" x="43.98" width="0.73" height="23.77"/><rect class="cls-1" x="44.72" width="0.73" height="23.77"/><rect class="cls-1" x="45.45" width="0.73" height="23.77"/><rect class="cls-1" x="46.18" width="0.73" height="23.77"/><rect class="cls-1" x="46.92" width="0.73" height="23.77"/><rect class="cls-1" x="47.65" width="0.73" height="23.77"/><rect class="cls-1" x="48.38" width="0.73" height="23.77"/><rect class="cls-1" x="49.12" width="0.73" height="23.77"/><rect class="cls-1" x="49.85" width="0.73" height="23.77"/><rect class="cls-1" x="50.58" width="0.73" height="23.77"/><rect class="cls-1" x="51.32" width="0.73" height="23.77"/><rect class="cls-1" x="52.05" width="0.73" height="23.77"/><rect class="cls-1" x="52.78" width="0.73" height="23.77"/><rect class="cls-1" x="53.52" width="0.73" height="23.77"/><rect class="cls-1" x="54.25" width="0.73" height="23.77"/><rect class="cls-1" x="54.98" height="23.77"/></g><path class="cls-1" d="M96.06,148.28a2.9,2.9,0,0,1-1.19-.26L51.7,128.63A2.88,2.88,0,0,1,50,126V76.49a2.84,2.84,0,0,1,1.34-2.42,2.88,2.88,0,0,1,2.73-.2l10.87,4.94v22.27l13.74,6.39V84.84l18.57,8.43a2.88,2.88,0,0,1,1.69,2.62V145.4a2.87,2.87,0,0,1-1.33,2.43A3,3,0,0,1,96.06,148.28Zm-42-23.06,40.76,18.31V96.67L82.77,91.19v18.55A2.62,2.62,0,0,1,81.52,112a2.7,2.7,0,0,1-2.53.15l-16.61-7.74A2.65,2.65,0,0,1,60.85,102V81.45l-6.76-3.08Zm-.72-.33h0Zm27.35-16.47h0ZM95.56,97Z" transform="translate(-50 -51.7)"/><path class="cls-1" d="M104,148.28a2.92,2.92,0,0,1-1.55-.45,2.86,2.86,0,0,1-1.34-2.43V95.89a2.88,2.88,0,0,1,1.7-2.62l43.16-19.4a2.93,2.93,0,0,1,2.74.19h0A2.86,2.86,0,0,1,150,76.49V126a2.89,2.89,0,0,1-1.7,2.62L105.14,148A3,3,0,0,1,104,148.28Zm1.2-51.6v46.85l40.76-18.31V78.36Z" transform="translate(-50 -51.7)"/><path id="SVGID-4" data-name="SVGID" class="cls-1" d="M144.14,70.56a.85.85,0,0,0-.53-.78l-15.16-6.61a.87.87,0,0,0-.74,0L83.92,83.74,99.28,91a.9.9,0,0,0,.36.08A1,1,0,0,0,100,91l43.61-19.59a.88.88,0,0,0,.52-.8Zm0,0" transform="translate(-50 -51.7)"/><g class="cls-3"><path class="cls-1" d="M144.14,70.56Z" transform="translate(-50 -51.7)"/><path class="cls-1" d="M144.14,70.56Z" transform="translate(-50 -51.7)"/><path class="cls-1" d="M144.14,70.56Z" transform="translate(-50 -51.7)"/><rect class="cls-1" x="33.92" y="11.36" width="0.07" height="27.96"/><rect class="cls-1" x="34" y="11.36" width="0.87" height="27.96"/><rect class="cls-1" x="34.87" y="11.36" width="0.87" height="27.96"/><rect class="cls-1" x="35.74" y="11.36" width="0.87" height="27.96"/><rect class="cls-1" x="36.61" y="11.36" width="0.87" height="27.96"/><rect class="cls-1" x="37.48" y="11.36" width="0.87" height="27.96"/><rect class="cls-1" x="38.36" y="11.36" width="0.87" height="27.96"/><rect class="cls-1" x="39.23" y="11.36" width="0.87" height="27.96"/><rect class="cls-1" x="40.1" y="11.36" width="0.87" height="27.96"/><rect class="cls-1" x="40.97" y="11.36" width="0.87" height="27.96"/><rect class="cls-1" x="41.84" y="11.36" width="0.87" height="27.96"/><rect class="cls-1" x="42.71" y="11.36" width="0.87" height="27.96"/><rect class="cls-1" x="43.59" y="11.36" width="0.87" height="27.96"/><rect class="cls-1" x="44.46" y="11.36" width="0.87" height="27.96"/><rect class="cls-1" x="45.33" y="11.36" width="0.87" height="27.96"/><rect class="cls-1" x="46.2" y="11.36" width="0.87" height="27.96"/><rect class="cls-1" x="47.07" y="11.36" width="0.87" height="27.96"/><rect class="cls-1" x="47.94" y="11.36" width="0.87" height="27.96"/><rect class="cls-1" x="48.81" y="11.36" width="0.87" height="27.96"/><rect class="cls-1" x="49.69" y="11.36" width="0.87" height="27.96"/><rect class="cls-1" x="50.56" y="11.36" width="0.87" height="27.96"/><rect class="cls-1" x="51.43" y="11.36" width="0.87" height="27.96"/><rect class="cls-1" x="52.3" y="11.36" width="0.87" height="27.96"/><rect class="cls-1" x="53.17" y="11.36" width="0.87" height="27.96"/><rect class="cls-1" x="54.04" y="11.36" width="0.87" height="27.96"/><rect class="cls-1" x="54.92" y="11.36" width="0.87" height="27.96"/><rect class="cls-1" x="55.79" y="11.36" width="0.87" height="27.96"/><rect class="cls-1" x="56.66" y="11.36" width="0.87" height="27.96"/><rect class="cls-1" x="57.53" y="11.36" width="0.87" height="27.96"/><rect class="cls-1" x="58.4" y="11.36" width="0.87" height="27.96"/><rect class="cls-1" x="59.27" y="11.36" width="0.87" height="27.96"/><rect class="cls-1" x="60.15" y="11.36" width="0.87" height="27.96"/><rect class="cls-1" x="61.02" y="11.36" width="0.87" height="27.96"/><rect class="cls-1" x="61.89" y="11.36" width="0.87" height="27.96"/><rect class="cls-1" x="62.76" y="11.36" width="0.87" height="27.96"/><rect class="cls-1" x="63.63" y="11.36" width="0.87" height="27.96"/><rect class="cls-1" x="64.5" y="11.36" width="0.87" height="27.96"/><rect class="cls-1" x="65.37" y="11.36" width="0.87" height="27.96"/><rect class="cls-1" x="66.25" y="11.36" width="0.87" height="27.96"/><rect class="cls-1" x="67.12" y="11.36" width="0.87" height="27.96"/><rect class="cls-1" x="67.99" y="11.36" width="0.87" height="27.96"/><rect class="cls-1" x="68.86" y="11.36" width="0.87" height="27.96"/><rect class="cls-1" x="69.73" y="11.36" width="0.87" height="27.96"/><rect class="cls-1" x="70.6" y="11.36" width="0.87" height="27.96"/><rect class="cls-1" x="71.48" y="11.36" width="0.87" height="27.96"/><rect class="cls-1" x="72.35" y="11.36" width="0.87" height="27.96"/><rect class="cls-1" x="73.22" y="11.36" width="0.87" height="27.96"/><rect class="cls-1" x="74.09" y="11.36" width="0.87" height="27.96"/><rect class="cls-1" x="74.96" y="11.36" width="0.87" height="27.96"/><rect class="cls-1" x="75.83" y="11.36" width="0.87" height="27.96"/><rect class="cls-1" x="76.71" y="11.36" width="0.87" height="27.96"/><rect class="cls-1" x="77.58" y="11.36" width="0.87" height="27.96"/><rect class="cls-1" x="78.45" y="11.36" width="0.87" height="27.96"/><rect class="cls-1" x="79.32" y="11.36" width="0.87" height="27.96"/><rect class="cls-1" x="80.19" y="11.36" width="0.87" height="27.96"/><rect class="cls-1" x="81.06" y="11.36" width="0.87" height="27.96"/><rect class="cls-1" x="81.93" y="11.36" width="0.87" height="27.96"/><rect class="cls-1" x="82.81" y="11.36" width="0.87" height="27.96"/><rect class="cls-1" x="83.68" y="11.36" width="0.87" height="27.96"/><rect class="cls-1" x="84.55" y="11.36" width="0.87" height="27.96"/><rect class="cls-1" x="85.42" y="11.36" width="0.87" height="27.96"/><rect class="cls-1" x="86.29" y="11.36" width="0.87" height="27.96"/><rect class="cls-1" x="87.16" y="11.36" width="0.87" height="27.96"/><rect class="cls-1" x="88.04" y="11.36" width="0.87" height="27.96"/><rect class="cls-1" x="88.91" y="11.36" width="0.87" height="27.96"/><rect class="cls-1" x="89.78" y="11.36" width="0.87" height="27.96"/><rect class="cls-1" x="90.65" y="11.36" width="0.87" height="27.96"/><rect class="cls-1" x="91.52" y="11.36" width="0.87" height="27.96"/><rect class="cls-1" x="92.39" y="11.36" width="0.87" height="27.96"/><rect class="cls-1" x="93.27" y="11.36" width="0.87" height="27.96"/><rect class="cls-1" x="94.14" y="11.36" height="27.96"/></g></svg>