<svg id="Layer_1" data-name="Layer 1" xmlns="http://www.w3.org/2000/svg" xmlns:xlink="http://www.w3.org/1999/xlink" viewBox="0 0 100 110.5"><defs><style>.cls-1{fill:#bd1622;}.cls-2{fill:#0088bf;}.cls-3{clip-path:url(#clip-path);}</style><clipPath id="clip-path" transform="translate(-50 -44.75)"><path id="SVGID" class="cls-1" d="M100.76,87.39A12.65,12.65,0,1,1,88.11,100,12.63,12.63,0,0,1,100.76,87.39Z"/></clipPath></defs><title>Laundry</title><path class="cls-2" d="M98.89,155.25a1.46,1.46,0,0,0,.22,0A13.75,13.75,0,0,1,92,151.1a27,27,0,0,1-4.08-5.47,57.92,57.92,0,0,1-5.38-13.15l-.18-.54-.23,0a56.77,56.77,0,0,1-14.89,2,23,23,0,0,1-8.64-1.58c-3.46-1.45-5.9-3.83-6.76-7.59a14.31,14.31,0,0,1,.62-7.72.79.79,0,0,0-.21-1,7.37,7.37,0,0,1-2-3.45l-.24-1v-2c.11-.4.2-.81.32-1.21a7.73,7.73,0,1,1,8.8,9.78,20.38,20.38,0,0,1-3.23,0,9.9,9.9,0,0,0-.22,6.58,6.93,6.93,0,0,0,3.77,3.84,17.18,17.18,0,0,0,6.8,1.51,51.07,51.07,0,0,0,16-2.11c14-3.83,26.74-10.39,38.55-18.75,3.25-2.31,6.28-4.93,9.41-7.41.13-.1.25-.21.47-.4l2.6,2.66A134.63,134.63,0,0,1,85.9,131c.29,1,.58,2,.89,2.92a47.46,47.46,0,0,0,5,11A19.09,19.09,0,0,0,96,149.75a8.05,8.05,0,0,0,4.3,1.85,7.22,7.22,0,0,0,4.8-1.48,17.89,17.89,0,0,0,4.61-5.08,50.15,50.15,0,0,0,5.63-13,92.22,92.22,0,0,0,2.78-12.83,1,1,0,0,1,.57-.84c1-.56,2-1.18,3-1.78l.55-.34c-.13,1-.24,2-.38,2.88a91.57,91.57,0,0,1-4.43,18.31,41.51,41.51,0,0,1-6.38,12,15.53,15.53,0,0,1-6.93,5.28c-.28.09-.56.18-.85.25s-.57.13-.85.24" transform="translate(-50 -44.75)"/><path class="cls-2" d="M150,123.2c-.13.65-.22,1.31-.39,1.94a10.49,10.49,0,0,1-6.66,7.22,27.9,27.9,0,0,1-3.37,1,.71.71,0,0,0-.61.57,7.72,7.72,0,1,1-.24-4.76l.21.59c.5-.13,1-.25,1.48-.4a9.34,9.34,0,0,0,3.91-2.18,6.75,6.75,0,0,0,2-5.38,17.56,17.56,0,0,0-2.28-7.32,49.68,49.68,0,0,0-8.43-11.22A112.11,112.11,0,0,0,112.09,85,125.52,125.52,0,0,0,87.61,73.52l-.45-.18,1-3.55A134.57,134.57,0,0,1,135.06,97.5a1.94,1.94,0,0,1,.27-.44A51.75,51.75,0,0,0,144,85.5a17.65,17.65,0,0,0,2.25-7.1,6.76,6.76,0,0,0-3.49-6.7A14.68,14.68,0,0,0,136.92,70a43.42,43.42,0,0,0-13.82,1,88.68,88.68,0,0,0-14.42,4.44.92.92,0,0,1-.92-.07c-1.16-.69-2.35-1.34-3.62-2.05,1-.43,2-.85,3-1.24a90.81,90.81,0,0,1,17.76-5.18,43.14,43.14,0,0,1,12.42-.6A17.48,17.48,0,0,1,145.42,69a10.11,10.11,0,0,1,4.48,7.41c0,.16.07.32.1.47v1.88a2,2,0,0,0-.08.31,22.77,22.77,0,0,1-3,8.77,55.18,55.18,0,0,1-8.27,11l-1.18,1.24a8.24,8.24,0,0,1,.67.56,63.17,63.17,0,0,1,6.6,8,30.29,30.29,0,0,1,4.72,9.85c.22.88.34,1.79.51,2.69Z" transform="translate(-50 -44.75)"/><path class="cls-2" d="M101.6,44.75c.47.09.94.17,1.4.28a13.88,13.88,0,0,1,7.1,4.53,1,1,0,0,0,1.11.36,7.7,7.7,0,1,1-4.06,2.48l.28-.34c-2.05-2.13-4.25-3.9-7.47-3.56A7.52,7.52,0,0,0,96.43,50,19.14,19.14,0,0,0,91.22,56a55.13,55.13,0,0,0-5.63,14.28A108.49,108.49,0,0,0,82.35,90.9a128.73,128.73,0,0,0,.51,23.88c.39,3.36,1,6.69,1.56,10l0,.33-3.59.92a135,135,0,0,1,.51-54.38c-.8-.18-1.61-.39-2.43-.57a50.93,50.93,0,0,0-11.27-1.35A20.47,20.47,0,0,0,60.26,71a7.23,7.23,0,0,0-4.79,4.82,9.51,9.51,0,0,0,.12,4.91,26.79,26.79,0,0,0,4.14,8.55A72.46,72.46,0,0,0,72.48,103c1,.87,2,1.7,3.07,2.53a.89.89,0,0,1,.35.79c0,1.16,0,2.32.06,3.48v.63a.93.93,0,0,1-.22-.1A90.77,90.77,0,0,1,58.65,94a37.06,37.06,0,0,1-6-10.48,14.68,14.68,0,0,1-.8-8.13A10.41,10.41,0,0,1,58,67.94a20.62,20.62,0,0,1,7.42-1.76,52.72,52.72,0,0,1,16,1.72l1,.23c.2-.66.39-1.31.59-1.95a52.27,52.27,0,0,1,5.9-13.27A21.4,21.4,0,0,1,94.22,47a11.48,11.48,0,0,1,5.47-2.2.81.81,0,0,0,.25-.08Z" transform="translate(-50 -44.75)"/><path id="SVGID-2" data-name="SVGID" class="cls-1" d="M100.76,87.39A12.65,12.65,0,1,1,88.11,100,12.63,12.63,0,0,1,100.76,87.39Z" transform="translate(-50 -44.75)"/><g class="cls-3"><rect class="cls-1" x="38.1" y="42.63" width="0.05" height="25.34"/><rect class="cls-1" x="38.14" y="42.63" width="0.2" height="25.34"/><rect class="cls-1" x="38.34" y="42.63" width="0.2" height="25.34"/><rect class="cls-1" x="38.54" y="42.63" width="0.2" height="25.34"/><rect class="cls-1" x="38.74" y="42.63" width="0.2" height="25.34"/><rect class="cls-1" x="38.93" y="42.63" width="0.2" height="25.34"/><rect class="cls-1" x="39.13" y="42.63" width="0.2" height="25.34"/><rect class="cls-1" x="39.33" y="42.63" width="0.2" height="25.34"/><rect class="cls-1" x="39.53" y="42.63" width="0.2" height="25.34"/><rect class="cls-1" x="39.72" y="42.63" width="0.2" height="25.34"/><rect class="cls-1" x="39.92" y="42.63" width="0.2" height="25.34"/><rect class="cls-1" x="40.12" y="42.63" width="0.2" height="25.34"/><rect class="cls-1" x="40.32" y="42.63" width="0.2" height="25.34"/><rect class="cls-1" x="40.51" y="42.63" width="0.2" height="25.34"/><rect class="cls-1" x="40.71" y="42.63" width="0.2" height="25.34"/><rect class="cls-1" x="40.91" y="42.63" width="0.2" height="25.34"/><rect class="cls-1" x="41.11" y="42.63" width="0.2" height="25.34"/><rect class="cls-1" x="41.3" y="42.63" width="0.2" height="25.34"/><rect class="cls-1" x="41.5" y="42.63" width="0.2" height="25.34"/><rect class="cls-1" x="41.7" y="42.63" width="0.2" height="25.34"/><rect class="cls-1" x="41.89" y="42.63" width="0.2" height="25.34"/><rect class="cls-1" x="42.09" y="42.63" width="0.2" height="25.34"/><rect class="cls-1" x="42.29" y="42.63" width="0.2" height="25.34"/><rect class="cls-1" x="42.49" y="42.63" width="0.2" height="25.34"/><rect class="cls-1" x="42.68" y="42.63" width="0.2" height="25.34"/><rect class="cls-1" x="42.88" y="42.63" width="0.2" height="25.34"/><rect class="cls-1" x="43.08" y="42.63" width="0.2" height="25.34"/><rect class="cls-1" x="43.28" y="42.63" width="0.2" height="25.34"/><rect class="cls-1" x="43.47" y="42.63" width="0.2" height="25.34"/><rect class="cls-1" x="43.67" y="42.63" width="0.2" height="25.34"/><rect class="cls-1" x="43.87" y="42.63" width="0.2" height="25.34"/><rect class="cls-1" x="44.07" y="42.63" width="0.2" height="25.34"/><rect class="cls-1" x="44.26" y="42.63" width="0.2" height="25.34"/><rect class="cls-1" x="44.46" y="42.63" width="0.2" height="25.34"/><rect class="cls-1" x="44.66" y="42.63" width="0.2" height="25.34"/><rect class="cls-1" x="44.86" y="42.63" width="0.2" height="25.34"/><rect class="cls-1" x="45.05" y="42.63" width="0.2" height="25.34"/><rect class="cls-1" x="45.25" y="42.63" width="0.2" height="25.34"/><rect class="cls-1" x="45.45" y="42.63" width="0.2" height="25.34"/><rect class="cls-1" x="45.65" y="42.63" width="0.2" height="25.34"/><rect class="cls-1" x="45.84" y="42.63" width="0.2" height="25.34"/><rect class="cls-1" x="46.04" y="42.63" width="0.2" height="25.34"/><rect class="cls-1" x="46.24" y="42.63" width="0.2" height="25.34"/><rect class="cls-1" x="46.43" y="42.63" width="0.2" height="25.34"/><rect class="cls-1" x="46.63" y="42.63" width="0.2" height="25.34"/><rect class="cls-1" x="46.83" y="42.63" width="0.2" height="25.34"/><rect class="cls-1" x="47.03" y="42.63" width="0.2" height="25.34"/><rect class="cls-1" x="47.22" y="42.63" width="0.2" height="25.34"/><rect class="cls-1" x="47.42" y="42.63" width="0.2" height="25.34"/><rect class="cls-1" x="47.62" y="42.63" width="0.2" height="25.34"/><rect class="cls-1" x="47.82" y="42.63" width="0.2" height="25.34"/><rect class="cls-1" x="48.01" y="42.63" width="0.2" height="25.34"/><rect class="cls-1" x="48.21" y="42.63" width="0.2" height="25.34"/><rect class="cls-1" x="48.41" y="42.63" width="0.2" height="25.34"/><rect class="cls-1" x="48.61" y="42.63" width="0.2" height="25.34"/><rect class="cls-1" x="48.8" y="42.63" width="0.2" height="25.34"/><rect class="cls-1" x="49" y="42.63" width="0.2" height="25.34"/><rect class="cls-1" x="49.2" y="42.63" width="0.2" height="25.34"/><rect class="cls-1" x="49.4" y="42.63" width="0.2" height="25.34"/><rect class="cls-1" x="49.59" y="42.63" width="0.2" height="25.34"/><rect class="cls-1" x="49.79" y="42.63" width="0.2" height="25.34"/><rect class="cls-1" x="49.99" y="42.63" width="0.2" height="25.34"/><rect class="cls-1" x="50.19" y="42.63" width="0.2" height="25.34"/><rect class="cls-1" x="50.38" y="42.63" width="0.2" height="25.34"/><rect class="cls-1" x="50.58" y="42.63" width="0.2" height="25.34"/><rect class="cls-1" x="50.78" y="42.63" width="0.2" height="25.34"/><rect class="cls-1" x="50.98" y="42.63" width="0.2" height="25.34"/><rect class="cls-1" x="51.17" y="42.63" width="0.2" height="25.34"/><rect class="cls-1" x="51.37" y="42.63" width="0.2" height="25.34"/><rect class="cls-1" x="51.57" y="42.63" width="0.2" height="25.34"/><rect class="cls-1" x="51.76" y="42.63" width="0.2" height="25.34"/><rect class="cls-1" x="51.96" y="42.63" width="0.2" height="25.34"/><rect class="cls-1" x="52.16" y="42.63" width="0.2" height="25.34"/><rect class="cls-1" x="52.36" y="42.63" width="0.2" height="25.34"/><rect class="cls-1" x="52.55" y="42.63" width="0.2" height="25.34"/><rect class="cls-1" x="52.75" y="42.63" width="0.2" height="25.34"/><rect class="cls-1" x="52.95" y="42.63" width="0.2" height="25.34"/><rect class="cls-1" x="53.15" y="42.63" width="0.2" height="25.34"/><rect class="cls-1" x="53.34" y="42.63" width="0.2" height="25.34"/><rect class="cls-1" x="53.54" y="42.63" width="0.2" height="25.34"/><rect class="cls-1" x="53.74" y="42.63" width="0.2" height="25.34"/><rect class="cls-1" x="53.94" y="42.63" width="0.2" height="25.34"/><rect class="cls-1" x="54.13" y="42.63" width="0.2" height="25.34"/><rect class="cls-1" x="54.33" y="42.63" width="0.2" height="25.34"/><rect class="cls-1" x="54.53" y="42.63" width="0.2" height="25.34"/><rect class="cls-1" x="54.73" y="42.63" width="0.2" height="25.34"/><rect class="cls-1" x="54.92" y="42.63" width="0.2" height="25.34"/><rect class="cls-1" x="55.12" y="42.63" width="0.2" height="25.34"/><rect class="cls-1" x="55.32" y="42.63" width="0.2" height="25.34"/><rect class="cls-1" x="55.52" y="42.63" width="0.2" height="25.34"/><rect class="cls-1" x="55.71" y="42.63" width="0.2" height="25.34"/><rect class="cls-1" x="55.91" y="42.63" width="0.2" height="25.34"/><rect class="cls-1" x="56.11" y="42.63" width="0.2" height="25.34"/><rect class="cls-1" x="56.3" y="42.63" width="0.2" height="25.34"/><rect class="cls-1" x="56.5" y="42.63" width="0.2" height="25.34"/><rect class="cls-1" x="56.7" y="42.63" width="0.2" height="25.34"/><rect class="cls-1" x="56.9" y="42.63" width="0.2" height="25.34"/><rect class="cls-1" x="57.09" y="42.63" width="0.2" height="25.34"/><rect class="cls-1" x="57.29" y="42.63" width="0.2" height="25.34"/><rect class="cls-1" x="57.49" y="42.63" width="0.2" height="25.34"/><rect class="cls-1" x="57.69" y="42.63" width="0.2" height="25.34"/><rect class="cls-1" x="57.88" y="42.63" width="0.2" height="25.34"/><rect class="cls-1" x="58.08" y="42.63" width="0.2" height="25.34"/><rect class="cls-1" x="58.28" y="42.63" width="0.2" height="25.34"/><rect class="cls-1" x="58.48" y="42.63" width="0.2" height="25.34"/><rect class="cls-1" x="58.67" y="42.63" width="0.2" height="25.34"/><rect class="cls-1" x="58.87" y="42.63" width="0.2" height="25.34"/><rect class="cls-1" x="59.07" y="42.63" width="0.2" height="25.34"/><rect class="cls-1" x="59.27" y="42.63" width="0.2" height="25.34"/><rect class="cls-1" x="59.46" y="42.63" width="0.2" height="25.34"/><rect class="cls-1" x="59.66" y="42.63" width="0.2" height="25.34"/><rect class="cls-1" x="59.86" y="42.63" width="0.2" height="25.34"/><rect class="cls-1" x="60.06" y="42.63" width="0.2" height="25.34"/><rect class="cls-1" x="60.25" y="42.63" width="0.2" height="25.34"/><rect class="cls-1" x="60.45" y="42.63" width="0.2" height="25.34"/><rect class="cls-1" x="60.65" y="42.63" width="0.2" height="25.34"/><rect class="cls-1" x="60.84" y="42.63" width="0.2" height="25.34"/><rect class="cls-1" x="61.04" y="42.63" width="0.2" height="25.34"/><rect class="cls-1" x="61.24" y="42.63" width="0.2" height="25.34"/><rect class="cls-1" x="61.44" y="42.63" width="0.2" height="25.34"/><rect class="cls-1" x="61.63" y="42.63" width="0.2" height="25.34"/><rect class="cls-1" x="61.83" y="42.63" width="0.2" height="25.34"/><rect class="cls-1" x="62.03" y="42.63" width="0.2" height="25.34"/><rect class="cls-1" x="62.23" y="42.63" width="0.2" height="25.34"/><rect class="cls-1" x="62.42" y="42.63" width="0.2" height="25.34"/><rect class="cls-1" x="62.62" y="42.63" width="0.2" height="25.34"/><rect class="cls-1" x="62.82" y="42.63" width="0.2" height="25.34"/><rect class="cls-1" x="63.02" y="42.63" width="0.2" height="25.34"/><rect class="cls-1" x="63.21" y="42.63" width="0.2" height="25.34"/><rect class="cls-1" x="63.41" y="42.63" width="0.01" height="25.34"/></g></svg>