<svg id="Layer_1" data-name="Layer 1" xmlns="http://www.w3.org/2000/svg" viewBox="0 0 100 100"><defs><style>.cls-1{fill:#1d70b7;}.cls-2{fill:#fec92a;}</style></defs><title>Leaves</title><path class="cls-1" d="M140.71,150H59.29A9.3,9.3,0,0,1,50,140.71V59.29A9.3,9.3,0,0,1,59.29,50h81.42A9.3,9.3,0,0,1,150,59.29v81.42A9.3,9.3,0,0,1,140.71,150ZM59.29,54.7a4.6,4.6,0,0,0-4.59,4.59v81.42a4.6,4.6,0,0,0,4.59,4.59h81.42a4.6,4.6,0,0,0,4.59-4.59V59.29a4.6,4.6,0,0,0-4.59-4.59Z" transform="translate(-50 -50)"/><rect class="cls-1" x="2.35" y="16.42" width="95.3" height="4.7"/><rect class="cls-1" x="12.71" y="30.63" width="15.17" height="4.7"/><rect class="cls-1" x="72.91" y="30.63" width="15.17" height="4.7"/><rect class="cls-1" x="42.42" y="54.28" width="15.17" height="4.7"/><rect class="cls-1" x="42.42" y="77.94" width="15.17" height="4.7"/><rect class="cls-1" x="72.91" y="54.28" width="15.17" height="4.7"/><rect class="cls-1" x="12.71" y="77.94" width="15.17" height="4.7"/><rect class="cls-1" x="72.91" y="77.94" width="15.17" height="4.7"/><path class="cls-2" d="M70.29,116.68a10.05,10.05,0,1,1,10.06-10.05A10.06,10.06,0,0,1,70.29,116.68Zm0-15.4a5.36,5.36,0,1,0,5.36,5.35A5.36,5.36,0,0,0,70.29,101.28Z" transform="translate(-50 -50)"/><path class="cls-2" d="M100,93a10.06,10.06,0,1,1,10-10A10.06,10.06,0,0,1,100,93Zm0-15.41A5.36,5.36,0,1,0,105.36,83,5.37,5.37,0,0,0,100,77.62Z" transform="translate(-50 -50)"/></svg>