<svg id="Layer_1" data-name="Layer 1" xmlns="http://www.w3.org/2000/svg" viewBox="0 0 100 83.71"><defs><style>.cls-1{fill:#93c01f;}.cls-2{fill:#f29100;}.cls-3{fill:#1d70b7;}.cls-4{fill:#bd1622;}</style></defs><title>Library</title><path class="cls-1" d="M50.07,64.11H68.35V61.59A2.36,2.36,0,0,0,66,59.24H52.35A2.36,2.36,0,0,0,50,61.59v2.53Z" transform="translate(-50 -58.15)"/><path class="cls-1" d="M50.36,70.79h18V67.56H50v3.27A2,2,0,0,1,50.36,70.79Z" transform="translate(-50 -58.15)"/><path class="cls-1" d="M50.65,126.2h17.7v-52h-18a1.37,1.37,0,0,1-.36,0v52.13A1.64,1.64,0,0,1,50.65,126.2Z" transform="translate(-50 -58.15)"/><path class="cls-1" d="M50.65,129.64a1.84,1.84,0,0,1-.65-.12v3.53a2,2,0,0,1,.36,0h18v-3.37Z" transform="translate(-50 -58.15)"/><path class="cls-1" d="M50.36,136.46a2,2,0,0,1-.36,0v2.63a2.36,2.36,0,0,0,2.35,2.36H66a2.36,2.36,0,0,0,2.36-2.36v-2.59Z" transform="translate(-50 -58.15)"/><path class="cls-2" d="M74.44,63.63H92.71V61.11a2.36,2.36,0,0,0-2.35-2.36H76.72a2.36,2.36,0,0,0-2.35,2.36v2.52Z" transform="translate(-50 -58.15)"/><path class="cls-2" d="M74.73,70.3h18V67.07H74.37v3.27A1.37,1.37,0,0,1,74.73,70.3Z" transform="translate(-50 -58.15)"/><path class="cls-2" d="M75,125.71H92.71v-52h-18a2,2,0,0,1-.36,0v52.12A1.84,1.84,0,0,1,75,125.71Z" transform="translate(-50 -58.15)"/><path class="cls-2" d="M75,129.16a1.64,1.64,0,0,1-.65-.13v3.53a2,2,0,0,1,.36,0h18v-3.37Z" transform="translate(-50 -58.15)"/><path class="cls-2" d="M74.73,136a2,2,0,0,1-.36,0v2.63a2.36,2.36,0,0,0,2.35,2.35H90.36a2.35,2.35,0,0,0,2.35-2.35V136Z" transform="translate(-50 -58.15)"/><path class="cls-3" d="M94.94,64.93l18.14-2.21-.31-2.5a2.36,2.36,0,0,0-2.62-2.06L96.61,59.81a2.37,2.37,0,0,0-2,2.62l.31,2.51Z" transform="translate(-50 -58.15)"/><path class="cls-3" d="M96,71.51l17.85-2.17-.39-3.2L95.35,68.35h-.07l.4,3.24Z" transform="translate(-50 -58.15)"/><path class="cls-3" d="M103,126.48l17.57-2.13L114.3,72.76,96.45,74.93a1.54,1.54,0,0,1-.37,0l6.3,51.74A1.94,1.94,0,0,1,103,126.48Z" transform="translate(-50 -58.15)"/><path class="cls-3" d="M103.43,129.9a1.75,1.75,0,0,1-.66,0l.42,3.5a2,2,0,0,1,.35-.07l17.86-2.18-.41-3.34Z" transform="translate(-50 -58.15)"/><path class="cls-3" d="M104,136.71h-.36l.32,2.62a2.36,2.36,0,0,0,2.62,2l13.54-1.65a2.35,2.35,0,0,0,2-2.62l-.31-2.58Z" transform="translate(-50 -58.15)"/><path class="cls-4" d="M114.42,67.23l17.76-4.33-.6-2.44a2.36,2.36,0,0,0-2.85-1.73L115.48,62a2.36,2.36,0,0,0-1.73,2.84l.6,2.46Z" transform="translate(-50 -58.15)"/><path class="cls-4" d="M116.28,73.65l17.48-4.26L133,66.25l-17.75,4.33h-.07l.77,3.18A2,2,0,0,1,116.28,73.65Z" transform="translate(-50 -58.15)"/><path class="cls-4" d="M129.69,127.41l17.2-4.19L134.57,72.73,117.1,77a2.39,2.39,0,0,1-.36,0l12.35,50.63A2.07,2.07,0,0,1,129.69,127.41Z" transform="translate(-50 -58.15)"/><path class="cls-4" d="M130.51,130.76a1.66,1.66,0,0,1-.66,0l.84,3.43a2.23,2.23,0,0,1,.34-.12l17.47-4.26-.8-3.28Z" transform="translate(-50 -58.15)"/><path class="cls-4" d="M131.84,137.45a2.27,2.27,0,0,1-.35.05l.62,2.56a2.37,2.37,0,0,0,2.84,1.73l13.25-3.24a2.35,2.35,0,0,0,1.73-2.84l-.61-2.52Z" transform="translate(-50 -58.15)"/></svg>