<svg id="Layer_1" data-name="Layer 1" xmlns="http://www.w3.org/2000/svg" viewBox="0 0 100 100"><defs><style>.cls-1{fill:#2e88c8;}</style></defs><title>MoU_Management</title><path class="cls-1" d="M121.87,132.36a9.81,9.81,0,0,1-7-2.88L98.26,112.82a2.46,2.46,0,0,1,3.48-3.48L118.4,126a4.92,4.92,0,0,0,6.94,0l.66-.66a4.92,4.92,0,0,0,0-6.94l-16.66-16.66a2.46,2.46,0,0,1,3.48-3.48l16.66,16.65a9.85,9.85,0,0,1,0,13.92l-.65.65A9.81,9.81,0,0,1,121.87,132.36Z" transform="translate(-50 -50)"/><path class="cls-1" d="M88.92,102.46a2.49,2.49,0,0,1-1.75-.72L70.52,85.09a9.87,9.87,0,0,1,0-13.92l.65-.65a9.87,9.87,0,0,1,13.92,0l16.65,16.65a2.46,2.46,0,0,1-3.48,3.49L81.6,74a4.95,4.95,0,0,0-6.94,0l-.66.66a4.95,4.95,0,0,0,0,6.94L90.66,98.26a2.46,2.46,0,0,1-1.74,4.2Z" transform="translate(-50 -50)"/><path class="cls-1" d="M119.1,121.57a2.45,2.45,0,0,1-1.74-.72L79.15,82.64a2.47,2.47,0,0,1,3.49-3.49l38.21,38.21a2.47,2.47,0,0,1-1.75,4.21Z" transform="translate(-50 -50)"/><path class="cls-1" d="M100,54.93A45.07,45.07,0,1,1,54.93,100,45.12,45.12,0,0,1,100,54.93M100,50a50,50,0,1,0,50,50,50,50,0,0,0-50-50Z" transform="translate(-50 -50)"/></svg>