<svg id="Layer_1" data-name="Layer 1" xmlns="http://www.w3.org/2000/svg" viewBox="0 0 17.72 17.7"><defs><style>.cls-1{fill:#1d70b7;}.cls-2{fill:#e61b72;}</style></defs><title>Notifications</title><path class="cls-1" d="M109.69,102.63a1.28,1.28,0,0,1,.19-.83,8.83,8.83,0,0,0-7.64-13.31,8.84,8.84,0,0,0-6.41,14.94,8.81,8.81,0,0,0,10.44,1.78,1.31,1.31,0,0,1,.84-.14l2.26.36c.51.07.63-.06.58-.57C109.86,104.12,109.79,103.37,109.69,102.63Zm-.51,0,.21,1.83c0,.46,0,.52-.47.44-.65-.1-1.29-.19-1.93-.31a1.15,1.15,0,0,0-.77.13A8.35,8.35,0,0,1,95.83,92a8.21,8.21,0,0,1,8-2.87,8.37,8.37,0,0,1,6.78,7.67l0,.53a8.27,8.27,0,0,1-1.25,4.41A1.27,1.27,0,0,0,109.18,102.58Z" transform="translate(-93.39 -88.48)"/><path class="cls-2" d="M101.93,90.94a.22.22,0,0,1-.21.22l-.3,0a5.6,5.6,0,0,0-4.59,3.19,3.2,3.2,0,0,0-.32,1.22.66.66,0,0,1,0,.14c0,.18,0,.37-.28.38S96,96,96,95.74a4.92,4.92,0,0,1,1.54-3.22A6,6,0,0,1,101,90.75a2.14,2.14,0,0,1,.67,0A.21.21,0,0,1,101.93,90.94Z" transform="translate(-93.39 -88.48)"/><path class="cls-2" d="M96.44,98.68c-.15,0-.23-.07-.28-.19a3.06,3.06,0,0,1-.17-.84c0-.17,0-.34.21-.37s.26.14.29.3.09.52.13.79A.25.25,0,0,1,96.44,98.68Z" transform="translate(-93.39 -88.48)"/></svg>