<svg id="Layer_1" data-name="Layer 1" xmlns="http://www.w3.org/2000/svg" viewBox="0 0 100 99.97"><defs><style>.cls-1{fill:#e61d5a;}</style></defs><title>OnBoarding</title><path class="cls-1" d="M141.15,150H58.85C54,150,50,145.18,50,139.27v-25a2.35,2.35,0,0,1,4.7,0v25c0,3.26,1.9,6,4.15,6h82.3c2.25,0,4.15-2.76,4.15-6V60.73c0-3.26-1.9-6-4.15-6H58.85c-2.25,0-4.15,2.76-4.15,6V85.78a2.35,2.35,0,0,1-4.7,0V60.73C50,54.82,54,50,58.85,50h82.3C146,50,150,54.82,150,60.73v78.54C150,145.18,146,150,141.15,150Z" transform="translate(-50 -50.01)"/><path class="cls-1" d="M98.65,102.36H60.24a2.35,2.35,0,1,1,0-4.69H98.65a2.35,2.35,0,0,1,0,4.69Z" transform="translate(-50 -50.01)"/><path class="cls-1" d="M87,116.6a2.35,2.35,0,0,1-1.66-4L97.9,100,85.33,87.44a2.35,2.35,0,0,1,3.32-3.32L104.55,100l-15.9,15.9A2.34,2.34,0,0,1,87,116.6Z" transform="translate(-50 -50.01)"/></svg>