<svg id="Layer_1" data-name="Layer 1" xmlns="http://www.w3.org/2000/svg" viewBox="0 0 100 120.1"><defs><style>.cls-1{fill:#368ac9;}</style></defs><title>Orders</title><path class="cls-1" d="M102.8,91.23a3,3,0,0,1,0-5.92l25.79-.26a3,3,0,1,1,.06,5.92l-25.79.26Z" transform="translate(-50 -39.95)"/><path class="cls-1" d="M103.18,128.12a3,3,0,0,1,0-5.92l25.79-.27a3,3,0,0,1,.06,5.92l-25.79.27Z" transform="translate(-50 -39.95)"/><path class="cls-1" d="M102.8,79.3a3,3,0,0,1,0-5.92l16.72-.17h0a3,3,0,0,1,0,5.92l-16.72.17Z" transform="translate(-50 -39.95)"/><path class="cls-1" d="M103.18,116.18a3,3,0,0,1,0-5.92l16.72-.17h0a3,3,0,0,1,0,5.92l-16.72.17Z" transform="translate(-50 -39.95)"/><path class="cls-1" d="M74.88,90.9H74.5A4.66,4.66,0,0,1,71.09,89l-2.46-3.43a3,3,0,0,1,4.81-3.45L75,84.3,86.58,72.75a3,3,0,0,1,4.19,4.19l-12.6,12.6A4.64,4.64,0,0,1,74.88,90.9Z" transform="translate(-50 -39.95)"/><path class="cls-1" d="M74.88,127.77l-.38,0a4.7,4.7,0,0,1-3.44-1.94l-2.43-3.39A3,3,0,0,1,73.44,119L75,121.19l11.55-11.55a3,3,0,1,1,4.19,4.18L78.2,126.39A4.69,4.69,0,0,1,74.88,127.77Z" transform="translate(-50 -39.95)"/><path class="cls-1" d="M122.45,45.87l21.63,22.86v85.4H55.92V45.87h66.53M125,40H50v120.1H150V66.37L125,40Z" transform="translate(-50 -39.95)"/><polygon class="cls-1" points="97.71 29.38 69.75 29.38 69.75 0 75.67 0 75.67 23.46 97.71 23.46 97.71 29.38"/></svg>