<svg id="Layer_1" data-name="Layer 1" xmlns="http://www.w3.org/2000/svg" viewBox="0 0 25.24 22.6"><defs><style>.cls-1{fill:#2effd7;}.cls-2{fill:#65c08b;}.cls-3{fill:#86c24f;}.cls-4{fill:#2de261;}</style></defs><title>Payaroll_taxes</title><path class="cls-1" d="M89.44,78.07c-1.62-2.83-3.24-5.66-4.9-8.47a2.62,2.62,0,0,0-2.28-1.36c-3.07,0-6.14,0-9.2,0a3,3,0,0,0-3.17,1.35Q67.41,73.82,65,78.06a2.85,2.85,0,0,0,0,3c1.53,2.67,3.09,5.33,4.62,8a3.11,3.11,0,0,0,3.27,1.73c3.09,0,6.18,0,9.26,0a2.64,2.64,0,0,0,2.34-1.36q2.52-4.24,4.94-8.53A2.77,2.77,0,0,0,89.44,78.07Zm-1,2.52c-1.53,2.66-3.07,5.31-4.59,8a2.27,2.27,0,0,1-2.12,1.22l-8.78,0a2.58,2.58,0,0,1-2.53-1.56c-1.41-2.56-2.9-5.07-4.37-7.6a2.08,2.08,0,0,1,0-2.26c1.52-2.62,3-5.23,4.53-7.86a2.35,2.35,0,0,1,2.14-1.3s0,0,0,0,.06,0,.09,0h.24c2.87,0,5.74,0,8.61,0a2.35,2.35,0,0,1,2.21,1.28c1.51,2.64,3,5.27,4.56,7.91A2.07,2.07,0,0,1,88.43,80.59Z" transform="translate(-64.6 -68.2)"/><path class="cls-2" d="M72.72,69.19l0,0h0S72.71,69.19,72.72,69.19Z" transform="translate(-64.6 -68.2)"/><path class="cls-3" d="M72.81,69.22H72.7s0,0,0,0S72.78,69.17,72.81,69.22Z" transform="translate(-64.6 -68.2)"/><path class="cls-4" d="M75.57,81.79c-.3.11-.54.19-.52.59a.29.29,0,0,1-.31.3.3.3,0,0,1-.27-.34c0-.33-.15-.43-.44-.53a1.57,1.57,0,0,1-1-1.07c-.08-.29-.09-.57.24-.71s.54.06.64.35a1,1,0,0,0,1.12.77.74.74,0,0,0,.71-.62.62.62,0,0,0-.48-.73c-.41-.16-.83-.29-1.24-.45a1.24,1.24,0,0,1-.88-1.3,1.35,1.35,0,0,1,1-1.33c.26-.09.49-.15.45-.5a.26.26,0,0,1,.27-.32.27.27,0,0,1,.31.29c0,.41.2.5.5.6a1.27,1.27,0,0,1,.8.84c.1.27.09.52-.23.64a.4.4,0,0,1-.57-.28.85.85,0,0,0-1.1-.57A.55.55,0,0,0,74,78a.56.56,0,0,0,.41.6c.36.13.73.22,1.09.35a1.35,1.35,0,0,1,1.08,1.28A1.52,1.52,0,0,1,75.57,81.79Z" transform="translate(-64.6 -68.2)"/><path class="cls-4" d="M84.25,84.2c0,.35-.24.41-.53.41H73.22a1.16,1.16,0,0,1-.18,0,2.44,2.44,0,0,1-2.65-1A2.16,2.16,0,0,1,70,82.29c0-2,0-4,0-6a2.21,2.21,0,0,1,2.43-2.42l.6,0,10.64,0c.27,0,.55,0,.55.38s-.29.37-.56.37l-10.76,0c-.19,0-.39,0-.59,0a1.48,1.48,0,0,0-1.56,1.6c0,2,0,4,0,5.93a1.45,1.45,0,0,0,1.62,1.62l.41,0,.24,0,.62,0h0c2.17,0,4.34,0,6.5,0h3.44C83.88,83.82,84.23,83.8,84.25,84.2Z" transform="translate(-64.6 -68.2)"/><path class="cls-4" d="M84.26,78.27c0,.33-.24.37-.5.37H79.51c-.26,0-.53,0-.54-.33s.24-.42.54-.42h4.25C84,77.89,84.25,78,84.26,78.27Z" transform="translate(-64.6 -68.2)"/><path class="cls-4" d="M84.26,80.4c0,.31-.22.39-.49.39H79.46c-.28,0-.5-.11-.49-.4s.27-.34.53-.34h4.25C84,80,84.25,80.06,84.26,80.4Z" transform="translate(-64.6 -68.2)"/></svg>