<svg id="Layer_1" data-name="Layer 1" xmlns="http://www.w3.org/2000/svg" xmlns:xlink="http://www.w3.org/1999/xlink" viewBox="0 0 100 100"><defs><style>.cls-1{fill:#bd1622;}.cls-2{fill:#1d70b7;}.cls-3{clip-path:url(#clip-path);}</style><clipPath id="clip-path" transform="translate(-50 -50)"><path id="SVGID" class="cls-1" d="M102.11,98c3.48,1.06,7.3,2.35,7.26,7,0,3.78-2.93,6.27-7.26,6.78v4.8h-3v-4.77a14.43,14.43,0,0,1-8.48-3.71l1.73-3.48A13.18,13.18,0,0,0,99.11,108v-6.81c-3.41-1-7.09-2.29-7.09-6.82,0-3.65,2.8-6.07,7.09-6.55V83.37h3v4.46a15.31,15.31,0,0,1,7,2.39l-1.67,3.54a15.45,15.45,0,0,0-5.29-2Zm-3-1V91.65c-1.6.27-2.59,1.09-2.59,2.39C96.52,95.53,97.58,96.39,99.11,97Zm3,11c1.78-.37,2.8-1.33,2.8-2.76,0-1.6-1.16-2.46-2.8-3.1Z"/></clipPath></defs><title>Payroll</title><path class="cls-2" d="M100,134.4A34.4,34.4,0,1,1,134.4,100,34.44,34.44,0,0,1,100,134.4Zm0-64.18A29.78,29.78,0,1,0,129.78,100,29.81,29.81,0,0,0,100,70.22Z" transform="translate(-50 -50)"/><path class="cls-2" d="M100,150A50,50,0,0,1,64.92,64.37l3.24,3.29a45.38,45.38,0,1,0,31.84-13V50a50,50,0,0,1,0,100Z" transform="translate(-50 -50)"/><polygon class="cls-2" points="20.66 23.11 9.37 11.81 24.8 7.68 20.66 23.11"/><path id="SVGID-2" data-name="SVGID" class="cls-1" d="M102.11,98c3.48,1.06,7.3,2.35,7.26,7,0,3.78-2.93,6.27-7.26,6.78v4.8h-3v-4.77a14.43,14.43,0,0,1-8.48-3.71l1.73-3.48A13.18,13.18,0,0,0,99.11,108v-6.81c-3.41-1-7.09-2.29-7.09-6.82,0-3.65,2.8-6.07,7.09-6.55V83.37h3v4.46a15.31,15.31,0,0,1,7,2.39l-1.67,3.54a15.45,15.45,0,0,0-5.29-2Zm-3-1V91.65c-1.6.27-2.59,1.09-2.59,2.39C96.52,95.53,97.58,96.39,99.11,97Zm3,11c1.78-.37,2.8-1.33,2.8-2.76,0-1.6-1.16-2.46-2.8-3.1Z" transform="translate(-50 -50)"/><g class="cls-3"><rect class="cls-1" x="52.11" y="52.15" width="0.09" height="5.86"/><rect class="cls-1" x="52.21" y="52.15" width="0.15" height="5.86"/><rect class="cls-1" x="52.35" y="52.15" width="0.15" height="5.86"/><rect class="cls-1" x="52.5" y="52.15" width="0.15" height="5.86"/><rect class="cls-1" x="52.64" y="52.15" width="0.15" height="5.86"/><rect class="cls-1" x="52.79" y="52.15" width="0.15" height="5.86"/><rect class="cls-1" x="52.94" y="52.15" width="0.15" height="5.86"/><rect class="cls-1" x="53.08" y="52.15" width="0.15" height="5.86"/><rect class="cls-1" x="53.23" y="52.15" width="0.15" height="5.86"/><rect class="cls-1" x="53.38" y="52.15" width="0.15" height="5.86"/><rect class="cls-1" x="53.52" y="52.15" width="0.15" height="5.86"/><rect class="cls-1" x="53.67" y="52.15" width="0.15" height="5.86"/><rect class="cls-1" x="53.82" y="52.15" width="0.15" height="5.86"/><rect class="cls-1" x="53.96" y="52.15" width="0.15" height="5.86"/><rect class="cls-1" x="54.11" y="52.15" width="0.15" height="5.86"/><rect class="cls-1" x="54.25" y="52.15" width="0.15" height="5.86"/><rect class="cls-1" x="54.4" y="52.15" width="0.15" height="5.86"/><rect class="cls-1" x="54.55" y="52.15" width="0.15" height="5.86"/><rect class="cls-1" x="54.69" y="52.15" width="0.15" height="5.86"/><rect class="cls-1" x="54.84" y="52.15" width="0.07" height="5.86"/><rect class="cls-1" x="46.52" y="41.65" width="0.12" height="5.35"/><rect class="cls-1" x="46.65" y="41.65" width="0.15" height="5.35"/><rect class="cls-1" x="46.79" y="41.65" width="0.15" height="5.35"/><rect class="cls-1" x="46.94" y="41.65" width="0.15" height="5.35"/><rect class="cls-1" x="47.09" y="41.65" width="0.15" height="5.35"/><rect class="cls-1" x="47.23" y="41.65" width="0.15" height="5.35"/><rect class="cls-1" x="47.38" y="41.65" width="0.15" height="5.35"/><rect class="cls-1" x="47.52" y="41.65" width="0.15" height="5.35"/><rect class="cls-1" x="47.67" y="41.65" width="0.15" height="5.35"/><rect class="cls-1" x="47.82" y="41.65" width="0.15" height="5.35"/><rect class="cls-1" x="47.96" y="41.65" width="0.15" height="5.35"/><rect class="cls-1" x="48.11" y="41.65" width="0.15" height="5.35"/><rect class="cls-1" x="48.26" y="41.65" width="0.15" height="5.35"/><rect class="cls-1" x="48.4" y="41.65" width="0.15" height="5.35"/><rect class="cls-1" x="48.55" y="41.65" width="0.15" height="5.35"/><rect class="cls-1" x="48.69" y="41.65" width="0.15" height="5.35"/><rect class="cls-1" x="48.84" y="41.65" width="0.15" height="5.35"/><rect class="cls-1" x="48.99" y="41.65" width="0.13" height="5.35"/><rect class="cls-1" x="40.63" y="33.37" width="0.02" height="33.27"/><rect class="cls-1" x="40.65" y="33.37" width="0.15" height="33.27"/><rect class="cls-1" x="40.8" y="33.37" width="0.15" height="33.27"/><rect class="cls-1" x="40.94" y="33.37" width="0.15" height="33.27"/><rect class="cls-1" x="41.09" y="33.37" width="0.15" height="33.27"/><rect class="cls-1" x="41.23" y="33.37" width="0.15" height="33.27"/><rect class="cls-1" x="41.38" y="33.37" width="0.15" height="33.27"/><rect class="cls-1" x="41.53" y="33.37" width="0.15" height="33.27"/><rect class="cls-1" x="41.67" y="33.37" width="0.15" height="33.27"/><rect class="cls-1" x="41.82" y="33.37" width="0.15" height="33.27"/><rect class="cls-1" x="41.97" y="33.37" width="0.15" height="33.27"/><rect class="cls-1" x="42.11" y="33.37" width="0.15" height="33.27"/><rect class="cls-1" x="42.26" y="33.37" width="0.15" height="33.27"/><rect class="cls-1" x="42.4" y="33.37" width="0.15" height="33.27"/><rect class="cls-1" x="42.55" y="33.37" width="0.15" height="33.27"/><rect class="cls-1" x="42.7" y="33.37" width="0.15" height="33.27"/><rect class="cls-1" x="42.84" y="33.37" width="0.15" height="33.27"/><rect class="cls-1" x="42.99" y="33.37" width="0.15" height="33.27"/><rect class="cls-1" x="43.14" y="33.37" width="0.15" height="33.27"/><rect class="cls-1" x="43.28" y="33.37" width="0.15" height="33.27"/><rect class="cls-1" x="43.43" y="33.37" width="0.15" height="33.27"/><rect class="cls-1" x="43.57" y="33.37" width="0.15" height="33.27"/><rect class="cls-1" x="43.72" y="33.37" width="0.15" height="33.27"/><rect class="cls-1" x="43.87" y="33.37" width="0.15" height="33.27"/><rect class="cls-1" x="44.01" y="33.37" width="0.15" height="33.27"/><rect class="cls-1" x="44.16" y="33.37" width="0.15" height="33.27"/><rect class="cls-1" x="44.31" y="33.37" width="0.15" height="33.27"/><rect class="cls-1" x="44.45" y="33.37" width="0.15" height="33.27"/><rect class="cls-1" x="44.6" y="33.37" width="0.15" height="33.27"/><rect class="cls-1" x="44.75" y="33.37" width="0.15" height="33.27"/><rect class="cls-1" x="44.89" y="33.37" width="0.15" height="33.27"/><rect class="cls-1" x="45.04" y="33.37" width="0.15" height="33.27"/><rect class="cls-1" x="45.18" y="33.37" width="0.15" height="33.27"/><rect class="cls-1" x="45.33" y="33.37" width="0.15" height="33.27"/><rect class="cls-1" x="45.48" y="33.37" width="0.15" height="33.27"/><rect class="cls-1" x="45.62" y="33.37" width="0.15" height="33.27"/><rect class="cls-1" x="45.77" y="33.37" width="0.15" height="33.27"/><rect class="cls-1" x="45.92" y="33.37" width="0.15" height="33.27"/><rect class="cls-1" x="46.06" y="33.37" width="0.15" height="33.27"/><rect class="cls-1" x="46.21" y="33.37" width="0.15" height="33.27"/><rect class="cls-1" x="46.35" y="33.37" width="0.15" height="33.27"/><rect class="cls-1" x="46.5" y="33.37" width="0.15" height="33.27"/><rect class="cls-1" x="46.65" y="33.37" width="0.15" height="33.27"/><rect class="cls-1" x="46.79" y="33.37" width="0.15" height="33.27"/><rect class="cls-1" x="46.94" y="33.37" width="0.15" height="33.27"/><rect class="cls-1" x="47.09" y="33.37" width="0.15" height="33.27"/><rect class="cls-1" x="47.23" y="33.37" width="0.15" height="33.27"/><rect class="cls-1" x="47.38" y="33.37" width="0.15" height="33.27"/><rect class="cls-1" x="47.52" y="33.37" width="0.15" height="33.27"/><rect class="cls-1" x="47.67" y="33.37" width="0.15" height="33.27"/><rect class="cls-1" x="47.82" y="33.37" width="0.15" height="33.27"/><rect class="cls-1" x="47.96" y="33.37" width="0.15" height="33.27"/><rect class="cls-1" x="48.11" y="33.37" width="0.15" height="33.27"/><rect class="cls-1" x="48.26" y="33.37" width="0.15" height="33.27"/><rect class="cls-1" x="48.4" y="33.37" width="0.15" height="33.27"/><rect class="cls-1" x="48.55" y="33.37" width="0.15" height="33.27"/><rect class="cls-1" x="48.69" y="33.37" width="0.15" height="33.27"/><rect class="cls-1" x="48.84" y="33.37" width="0.15" height="33.27"/><rect class="cls-1" x="48.99" y="33.37" width="0.15" height="33.27"/><rect class="cls-1" x="49.13" y="33.37" width="0.15" height="33.27"/><rect class="cls-1" x="49.28" y="33.37" width="0.15" height="33.27"/><rect class="cls-1" x="49.43" y="33.37" width="0.15" height="33.27"/><rect class="cls-1" x="49.57" y="33.37" width="0.15" height="33.27"/><rect class="cls-1" x="49.72" y="33.37" width="0.15" height="33.27"/><rect class="cls-1" x="49.87" y="33.37" width="0.15" height="33.27"/><rect class="cls-1" x="50.01" y="33.37" width="0.15" height="33.27"/><rect class="cls-1" x="50.16" y="33.37" width="0.15" height="33.27"/><rect class="cls-1" x="50.3" y="33.37" width="0.15" height="33.27"/><rect class="cls-1" x="50.45" y="33.37" width="0.15" height="33.27"/><rect class="cls-1" x="50.6" y="33.37" width="0.15" height="33.27"/><rect class="cls-1" x="50.74" y="33.37" width="0.15" height="33.27"/><rect class="cls-1" x="50.89" y="33.37" width="0.15" height="33.27"/><rect class="cls-1" x="51.04" y="33.37" width="0.15" height="33.27"/><rect class="cls-1" x="51.18" y="33.37" width="0.15" height="33.27"/><rect class="cls-1" x="51.33" y="33.37" width="0.15" height="33.27"/><rect class="cls-1" x="51.47" y="33.37" width="0.15" height="33.27"/><rect class="cls-1" x="51.62" y="33.37" width="0.15" height="33.27"/><rect class="cls-1" x="51.77" y="33.37" width="0.15" height="33.27"/><rect class="cls-1" x="51.91" y="33.37" width="0.15" height="33.27"/><rect class="cls-1" x="52.06" y="33.37" width="0.15" height="33.27"/><rect class="cls-1" x="52.21" y="33.37" width="0.15" height="33.27"/><rect class="cls-1" x="52.35" y="33.37" width="0.15" height="33.27"/><rect class="cls-1" x="52.5" y="33.37" width="0.15" height="33.27"/><rect class="cls-1" x="52.64" y="33.37" width="0.15" height="33.27"/><rect class="cls-1" x="52.79" y="33.37" width="0.15" height="33.27"/><rect class="cls-1" x="52.94" y="33.37" width="0.15" height="33.27"/><rect class="cls-1" x="53.08" y="33.37" width="0.15" height="33.27"/><rect class="cls-1" x="53.23" y="33.37" width="0.15" height="33.27"/><rect class="cls-1" x="53.38" y="33.37" width="0.15" height="33.27"/><rect class="cls-1" x="53.52" y="33.37" width="0.15" height="33.27"/><rect class="cls-1" x="53.67" y="33.37" width="0.15" height="33.27"/><rect class="cls-1" x="53.82" y="33.37" width="0.15" height="33.27"/><rect class="cls-1" x="53.96" y="33.37" width="0.15" height="33.27"/><rect class="cls-1" x="54.11" y="33.37" width="0.15" height="33.27"/><rect class="cls-1" x="54.25" y="33.37" width="0.15" height="33.27"/><rect class="cls-1" x="54.4" y="33.37" width="0.15" height="33.27"/><rect class="cls-1" x="54.55" y="33.37" width="0.15" height="33.27"/><rect class="cls-1" x="54.69" y="33.37" width="0.15" height="33.27"/><rect class="cls-1" x="54.84" y="33.37" width="0.15" height="33.27"/><rect class="cls-1" x="54.99" y="33.37" width="0.15" height="33.27"/><rect class="cls-1" x="55.13" y="33.37" width="0.15" height="33.27"/><rect class="cls-1" x="55.28" y="33.37" width="0.15" height="33.27"/><rect class="cls-1" x="55.42" y="33.37" width="0.15" height="33.27"/><rect class="cls-1" x="55.57" y="33.37" width="0.15" height="33.27"/><rect class="cls-1" x="55.72" y="33.37" width="0.15" height="33.27"/><rect class="cls-1" x="55.86" y="33.37" width="0.15" height="33.27"/><rect class="cls-1" x="56.01" y="33.37" width="0.15" height="33.27"/><rect class="cls-1" x="56.16" y="33.37" width="0.15" height="33.27"/><rect class="cls-1" x="56.3" y="33.37" width="0.15" height="33.27"/><rect class="cls-1" x="56.45" y="33.37" width="0.15" height="33.27"/><rect class="cls-1" x="56.59" y="33.37" width="0.15" height="33.27"/><rect class="cls-1" x="56.74" y="33.37" width="0.15" height="33.27"/><rect class="cls-1" x="56.89" y="33.37" width="0.15" height="33.27"/><rect class="cls-1" x="57.03" y="33.37" width="0.15" height="33.27"/><rect class="cls-1" x="57.18" y="33.37" width="0.15" height="33.27"/><rect class="cls-1" x="57.33" y="33.37" width="0.15" height="33.27"/><rect class="cls-1" x="57.47" y="33.37" width="0.15" height="33.27"/><rect class="cls-1" x="57.62" y="33.37" width="0.15" height="33.27"/><rect class="cls-1" x="57.77" y="33.37" width="0.15" height="33.27"/><rect class="cls-1" x="57.91" y="33.37" width="0.15" height="33.27"/><rect class="cls-1" x="58.06" y="33.37" width="0.15" height="33.27"/><rect class="cls-1" x="58.2" y="33.37" width="0.15" height="33.27"/><rect class="cls-1" x="58.35" y="33.37" width="0.15" height="33.27"/><rect class="cls-1" x="58.5" y="33.37" width="0.15" height="33.27"/><rect class="cls-1" x="58.64" y="33.37" width="0.15" height="33.27"/><rect class="cls-1" x="58.79" y="33.37" width="0.15" height="33.27"/><rect class="cls-1" x="58.94" y="33.37" width="0.15" height="33.27"/><rect class="cls-1" x="59.08" y="33.37" width="0.15" height="33.27"/><rect class="cls-1" x="59.23" y="33.37" width="0.15" height="33.27"/><rect class="cls-1" x="59.37" y="33.37" width="0.03" height="33.27"/></g></svg>