<svg id="Layer_1" data-name="Layer 1" xmlns="http://www.w3.org/2000/svg" xmlns:xlink="http://www.w3.org/1999/xlink" viewBox="0 0 100 100"><defs><style>.cls-1{fill:#008ebe;}.cls-2{clip-path:url(#clip-path);}</style><clipPath id="clip-path" transform="translate(-50 -50)"><circle id="SVGID" class="cls-1" cx="125.76" cy="74.53" r="6.95"/></clipPath></defs><title>Performance</title><rect class="cls-1" x="16.44" y="81.21" width="67.11" height="4.7"/><path class="cls-1" d="M140.71,150H59.29A9.3,9.3,0,0,1,50,140.71V59.29A9.3,9.3,0,0,1,59.29,50h81.42A9.3,9.3,0,0,1,150,59.29v81.42A9.3,9.3,0,0,1,140.71,150ZM59.29,54.7a4.6,4.6,0,0,0-4.59,4.59v81.42a4.6,4.6,0,0,0,4.59,4.59h81.42a4.6,4.6,0,0,0,4.59-4.59V59.29a4.6,4.6,0,0,0-4.59-4.59Z" transform="translate(-50 -50)"/><polygon class="cls-1" points="60.46 73.73 34.51 45.45 23.73 70.22 19.42 68.35 33.08 36.95 58.68 64.84 73.55 23.73 77.97 25.33 60.46 73.73"/><circle id="SVGID-2" data-name="SVGID" class="cls-1" cx="75.76" cy="24.53" r="6.95"/><g class="cls-2"><rect class="cls-1" x="68.81" y="17.58" width="0.02" height="13.91"/><rect class="cls-1" x="68.82" y="17.58" width="0.11" height="13.91"/><rect class="cls-1" x="68.93" y="17.58" width="0.11" height="13.91"/><rect class="cls-1" x="69.04" y="17.58" width="0.11" height="13.91"/><rect class="cls-1" x="69.15" y="17.58" width="0.11" height="13.91"/><rect class="cls-1" x="69.26" y="17.58" width="0.11" height="13.91"/><rect class="cls-1" x="69.37" y="17.58" width="0.11" height="13.91"/><rect class="cls-1" x="69.48" y="17.58" width="0.11" height="13.91"/><rect class="cls-1" x="69.58" y="17.58" width="0.11" height="13.91"/><rect class="cls-1" x="69.69" y="17.58" width="0.11" height="13.91"/><rect class="cls-1" x="69.8" y="17.58" width="0.11" height="13.91"/><rect class="cls-1" x="69.91" y="17.58" width="0.11" height="13.91"/><rect class="cls-1" x="70.02" y="17.58" width="0.11" height="13.91"/><rect class="cls-1" x="70.13" y="17.58" width="0.11" height="13.91"/><rect class="cls-1" x="70.23" y="17.58" width="0.11" height="13.91"/><rect class="cls-1" x="70.34" y="17.58" width="0.11" height="13.91"/><rect class="cls-1" x="70.45" y="17.58" width="0.11" height="13.91"/><rect class="cls-1" x="70.56" y="17.58" width="0.11" height="13.91"/><rect class="cls-1" x="70.67" y="17.58" width="0.11" height="13.91"/><rect class="cls-1" x="70.78" y="17.58" width="0.11" height="13.91"/><rect class="cls-1" x="70.89" y="17.58" width="0.11" height="13.91"/><rect class="cls-1" x="70.99" y="17.58" width="0.11" height="13.91"/><rect class="cls-1" x="71.1" y="17.58" width="0.11" height="13.91"/><rect class="cls-1" x="71.21" y="17.58" width="0.11" height="13.91"/><rect class="cls-1" x="71.32" y="17.58" width="0.11" height="13.91"/><rect class="cls-1" x="71.43" y="17.58" width="0.11" height="13.91"/><rect class="cls-1" x="71.54" y="17.58" width="0.11" height="13.91"/><rect class="cls-1" x="71.65" y="17.58" width="0.11" height="13.91"/><rect class="cls-1" x="71.75" y="17.58" width="0.11" height="13.91"/><rect class="cls-1" x="71.86" y="17.58" width="0.11" height="13.91"/><rect class="cls-1" x="71.97" y="17.58" width="0.11" height="13.91"/><rect class="cls-1" x="72.08" y="17.58" width="0.11" height="13.91"/><rect class="cls-1" x="72.19" y="17.58" width="0.11" height="13.91"/><rect class="cls-1" x="72.3" y="17.58" width="0.11" height="13.91"/><rect class="cls-1" x="72.4" y="17.58" width="0.11" height="13.91"/><rect class="cls-1" x="72.51" y="17.58" width="0.11" height="13.91"/><rect class="cls-1" x="72.62" y="17.58" width="0.11" height="13.91"/><rect class="cls-1" x="72.73" y="17.58" width="0.11" height="13.91"/><rect class="cls-1" x="72.84" y="17.58" width="0.11" height="13.91"/><rect class="cls-1" x="72.95" y="17.58" width="0.11" height="13.91"/><rect class="cls-1" x="73.06" y="17.58" width="0.11" height="13.91"/><rect class="cls-1" x="73.16" y="17.58" width="0.11" height="13.91"/><rect class="cls-1" x="73.27" y="17.58" width="0.11" height="13.91"/><rect class="cls-1" x="73.38" y="17.58" width="0.11" height="13.91"/><rect class="cls-1" x="73.49" y="17.58" width="0.11" height="13.91"/><rect class="cls-1" x="73.6" y="17.58" width="0.11" height="13.91"/><rect class="cls-1" x="73.71" y="17.58" width="0.11" height="13.91"/><rect class="cls-1" x="73.82" y="17.58" width="0.11" height="13.91"/><rect class="cls-1" x="73.92" y="17.58" width="0.11" height="13.91"/><rect class="cls-1" x="74.03" y="17.58" width="0.11" height="13.91"/><rect class="cls-1" x="74.14" y="17.58" width="0.11" height="13.91"/><rect class="cls-1" x="74.25" y="17.58" width="0.11" height="13.91"/><rect class="cls-1" x="74.36" y="17.58" width="0.11" height="13.91"/><rect class="cls-1" x="74.47" y="17.58" width="0.11" height="13.91"/><rect class="cls-1" x="74.57" y="17.58" width="0.11" height="13.91"/><rect class="cls-1" x="74.68" y="17.58" width="0.11" height="13.91"/><rect class="cls-1" x="74.79" y="17.58" width="0.11" height="13.91"/><rect class="cls-1" x="74.9" y="17.58" width="0.11" height="13.91"/><rect class="cls-1" x="75.01" y="17.58" width="0.11" height="13.91"/><rect class="cls-1" x="75.12" y="17.58" width="0.11" height="13.91"/><rect class="cls-1" x="75.23" y="17.58" width="0.11" height="13.91"/><rect class="cls-1" x="75.33" y="17.58" width="0.11" height="13.91"/><rect class="cls-1" x="75.44" y="17.58" width="0.11" height="13.91"/><rect class="cls-1" x="75.55" y="17.58" width="0.11" height="13.91"/><rect class="cls-1" x="75.66" y="17.58" width="0.11" height="13.91"/><rect class="cls-1" x="75.77" y="17.58" width="0.11" height="13.91"/><rect class="cls-1" x="75.88" y="17.58" width="0.11" height="13.91"/><rect class="cls-1" x="75.99" y="17.58" width="0.11" height="13.91"/><rect class="cls-1" x="76.09" y="17.58" width="0.11" height="13.91"/><rect class="cls-1" x="76.2" y="17.58" width="0.11" height="13.91"/><rect class="cls-1" x="76.31" y="17.58" width="0.11" height="13.91"/><rect class="cls-1" x="76.42" y="17.58" width="0.11" height="13.91"/><rect class="cls-1" x="76.53" y="17.58" width="0.11" height="13.91"/><rect class="cls-1" x="76.64" y="17.58" width="0.11" height="13.91"/><rect class="cls-1" x="76.75" y="17.58" width="0.11" height="13.91"/><rect class="cls-1" x="76.85" y="17.58" width="0.11" height="13.91"/><rect class="cls-1" x="76.96" y="17.58" width="0.11" height="13.91"/><rect class="cls-1" x="77.07" y="17.58" width="0.11" height="13.91"/><rect class="cls-1" x="77.18" y="17.58" width="0.11" height="13.91"/><rect class="cls-1" x="77.29" y="17.58" width="0.11" height="13.91"/><rect class="cls-1" x="77.4" y="17.58" width="0.11" height="13.91"/><rect class="cls-1" x="77.5" y="17.58" width="0.11" height="13.91"/><rect class="cls-1" x="77.61" y="17.58" width="0.11" height="13.91"/><rect class="cls-1" x="77.72" y="17.58" width="0.11" height="13.91"/><rect class="cls-1" x="77.83" y="17.58" width="0.11" height="13.91"/><rect class="cls-1" x="77.94" y="17.58" width="0.11" height="13.91"/><rect class="cls-1" x="78.05" y="17.58" width="0.11" height="13.91"/><rect class="cls-1" x="78.16" y="17.58" width="0.11" height="13.91"/><rect class="cls-1" x="78.26" y="17.58" width="0.11" height="13.91"/><rect class="cls-1" x="78.37" y="17.58" width="0.11" height="13.91"/><rect class="cls-1" x="78.48" y="17.58" width="0.11" height="13.91"/><rect class="cls-1" x="78.59" y="17.58" width="0.11" height="13.91"/><rect class="cls-1" x="78.7" y="17.58" width="0.11" height="13.91"/><rect class="cls-1" x="78.81" y="17.58" width="0.11" height="13.91"/><rect class="cls-1" x="78.92" y="17.58" width="0.11" height="13.91"/><rect class="cls-1" x="79.02" y="17.58" width="0.11" height="13.91"/><rect class="cls-1" x="79.13" y="17.58" width="0.11" height="13.91"/><rect class="cls-1" x="79.24" y="17.58" width="0.11" height="13.91"/><rect class="cls-1" x="79.35" y="17.58" width="0.11" height="13.91"/><rect class="cls-1" x="79.46" y="17.58" width="0.11" height="13.91"/><rect class="cls-1" x="79.57" y="17.58" width="0.11" height="13.91"/><rect class="cls-1" x="79.67" y="17.58" width="0.11" height="13.91"/><rect class="cls-1" x="79.78" y="17.58" width="0.11" height="13.91"/><rect class="cls-1" x="79.89" y="17.58" width="0.11" height="13.91"/><rect class="cls-1" x="80" y="17.58" width="0.11" height="13.91"/><rect class="cls-1" x="80.11" y="17.58" width="0.11" height="13.91"/><rect class="cls-1" x="80.22" y="17.58" width="0.11" height="13.91"/><rect class="cls-1" x="80.33" y="17.58" width="0.11" height="13.91"/><rect class="cls-1" x="80.43" y="17.58" width="0.11" height="13.91"/><rect class="cls-1" x="80.54" y="17.58" width="0.11" height="13.91"/><rect class="cls-1" x="80.65" y="17.58" width="0.11" height="13.91"/><rect class="cls-1" x="80.76" y="17.58" width="0.11" height="13.91"/><rect class="cls-1" x="80.87" y="17.58" width="0.11" height="13.91"/><rect class="cls-1" x="80.98" y="17.58" width="0.11" height="13.91"/><rect class="cls-1" x="81.09" y="17.58" width="0.11" height="13.91"/><rect class="cls-1" x="81.19" y="17.58" width="0.11" height="13.91"/><rect class="cls-1" x="81.3" y="17.58" width="0.11" height="13.91"/><rect class="cls-1" x="81.41" y="17.58" width="0.11" height="13.91"/><rect class="cls-1" x="81.52" y="17.58" width="0.11" height="13.91"/><rect class="cls-1" x="81.63" y="17.58" width="0.11" height="13.91"/><rect class="cls-1" x="81.74" y="17.58" width="0.11" height="13.91"/><rect class="cls-1" x="81.84" y="17.58" width="0.11" height="13.91"/><rect class="cls-1" x="81.95" y="17.58" width="0.11" height="13.91"/><rect class="cls-1" x="82.06" y="17.58" width="0.11" height="13.91"/><rect class="cls-1" x="82.17" y="17.58" width="0.11" height="13.91"/><rect class="cls-1" x="82.28" y="17.58" width="0.11" height="13.91"/><rect class="cls-1" x="82.39" y="17.58" width="0.11" height="13.91"/><rect class="cls-1" x="82.5" y="17.58" width="0.11" height="13.91"/><rect class="cls-1" x="82.6" y="17.58" width="0.11" height="13.91"/><path class="cls-1" d="M132.71,81.48v0Z" transform="translate(-50 -50)"/></g></svg>