<svg id="Layer_1" data-name="Layer 1" xmlns="http://www.w3.org/2000/svg" xmlns:xlink="http://www.w3.org/1999/xlink" viewBox="0 0 100 100"><defs><style>.cls-1{fill:#009ee2;}.cls-2{clip-path:url(#clip-path);}.cls-3{clip-path:url(#clip-path-2);}</style><clipPath id="clip-path" transform="translate(-50 -50)"><rect id="SVGID" class="cls-1" x="98.59" y="64.24" width="2.81" height="16.14"/></clipPath><clipPath id="clip-path-2" transform="translate(-50 -50)"><polygon id="SVGID-2" data-name="SVGID" class="cls-1" points="100 84.3 91.47 75.76 93.45 73.77 100 80.32 106.55 73.77 108.53 75.76 100 84.3"/></clipPath></defs><title>Placements</title><path class="cls-1" d="M133.38,54.92a11.72,11.72,0,0,1,11.7,11.7v66.76a11.72,11.72,0,0,1-11.7,11.7H66.62a11.72,11.72,0,0,1-11.7-11.7V66.62a11.72,11.72,0,0,1,11.7-11.7h66.76m0-4.92H66.62A16.67,16.67,0,0,0,50,66.62v66.76A16.67,16.67,0,0,0,66.62,150h66.76A16.67,16.67,0,0,0,150,133.38V66.62A16.67,16.67,0,0,0,133.38,50Z" transform="translate(-50 -50)"/><path class="cls-1" d="M116.65,136.15H83.35a3.85,3.85,0,0,1,0-7.69h33.3a3.85,3.85,0,0,1,0,7.69Z" transform="translate(-50 -50)"/><path class="cls-1" d="M107.82,130.25H92.18a13.54,13.54,0,0,1-13.52-13.52V101.08A13.54,13.54,0,0,1,92.18,87.56h15.64a13.54,13.54,0,0,1,13.52,13.52v15.65A13.54,13.54,0,0,1,107.82,130.25Zm-15.64-35a5.84,5.84,0,0,0-5.83,5.83v15.65a5.84,5.84,0,0,0,5.83,5.83h15.64a5.84,5.84,0,0,0,5.83-5.83V101.08a5.84,5.84,0,0,0-5.83-5.83Z" transform="translate(-50 -50)"/><rect id="SVGID-3" data-name="SVGID" class="cls-1" x="48.59" y="14.24" width="2.81" height="16.14"/><g class="cls-2"><polygon class="cls-1" points="49.34 14.24 49.42 30.39 48.59 30.39 48.59 14.24 49.34 14.24"/><polygon class="cls-1" points="50.23 14.24 50.31 30.39 49.42 30.39 49.34 14.24 50.23 14.24"/><polygon class="cls-1" points="51.13 14.24 51.21 30.39 50.31 30.39 50.23 14.24 51.13 14.24"/><polygon class="cls-1" points="51.21 30.39 51.13 14.24 51.41 14.24 51.41 30.39 51.21 30.39"/></g><polygon id="SVGID-4" data-name="SVGID" class="cls-1" points="50 34.3 41.47 25.76 43.45 23.77 50 30.32 56.55 23.77 58.53 25.76 50 34.3"/><g class="cls-3"><polygon class="cls-1" points="46.71 23.77 46.76 34.3 41.47 34.3 41.47 23.77 46.71 23.77"/><polygon class="cls-1" points="47.6 23.77 47.65 34.3 46.76 34.3 46.71 23.77 47.6 23.77"/><polygon class="cls-1" points="48.49 23.77 48.55 34.3 47.65 34.3 47.6 23.77 48.49 23.77"/><polygon class="cls-1" points="49.39 23.77 49.44 34.3 48.55 34.3 48.49 23.77 49.39 23.77"/><polygon class="cls-1" points="50.28 23.77 50.33 34.3 49.44 34.3 49.39 23.77 50.28 23.77"/><polygon class="cls-1" points="51.17 23.77 51.23 34.3 50.33 34.3 50.28 23.77 51.17 23.77"/><polygon class="cls-1" points="52.07 23.77 52.12 34.3 51.23 34.3 51.17 23.77 52.07 23.77"/><polygon class="cls-1" points="52.96 23.77 53.01 34.3 52.12 34.3 52.07 23.77 52.96 23.77"/><polygon class="cls-1" points="53.85 23.77 53.91 34.3 53.01 34.3 52.96 23.77 53.85 23.77"/><polygon class="cls-1" points="54.75 23.77 54.8 34.3 53.91 34.3 53.85 23.77 54.75 23.77"/><polygon class="cls-1" points="55.64 23.77 55.69 34.3 54.8 34.3 54.75 23.77 55.64 23.77"/><polygon class="cls-1" points="56.53 23.77 56.59 34.3 55.69 34.3 55.64 23.77 56.53 23.77"/><polygon class="cls-1" points="57.43 23.77 57.48 34.3 56.59 34.3 56.53 23.77 57.43 23.77"/><polygon class="cls-1" points="58.32 23.77 58.37 34.3 57.48 34.3 57.43 23.77 58.32 23.77"/><polygon class="cls-1" points="58.37 34.3 58.32 23.77 58.53 23.77 58.53 34.3 58.37 34.3"/></g></svg>