<svg id="Layer_1" data-name="Layer 1" xmlns="http://www.w3.org/2000/svg" viewBox="0 0 100.11 128.24"><defs><style>.cls-1{fill:#c1272d;}</style></defs><title>POS</title><path class="cls-1" d="M156,49c0-4.78-.59-8.77-6.52-9.26a2.47,2.47,0,0,1-1.66-1.39c-1.5-4.07-4.7-4.59-8.47-4.58q-37,.09-74,0c-7.85,0-9.42,1.55-9.42,9.25q0,40.8,0,81.6c0,7.13.89,8.24,8,9.87,0,5.75,0,11.57,0,17.4,0,7.21,2.81,10,10,10.06q27,.06,54,0c7.19,0,10-2.82,10.06-10,.05-6,0-11.93,0-18.15,4.61.38,8.32,0,9.94-4.64a2.45,2.45,0,0,1,1.76-1.25c5.57-.56,6.37-4.26,6.35-8.91Q155.89,84.08,156,49ZM115.54,158c-14.47,0-28.75.13-43-.18-1.56,0-4.27-2.53-4.38-4-.5-6.41-.21-12.88-.21-19.56h47.6ZM134,149c0,9-.31,9.33-10,8.83V134.38h10Zm18-32.85c0,7.6,0,7.6-7.63,8,.52,5.53-2.84,5.92-7.36,5.88q-35.74-.27-71.48,0c-4.34,0-5.72-1.14-5.69-5.61q.28-40.52,0-81c0-4.37,1.17-5.73,5.62-5.69q36.48.3,73,0c4.31,0,6.33,1.14,5.59,5.82,8,.58,8,.58,8,8Z" transform="translate(-55.9 -33.81)"/><path class="cls-1" d="M127.54,45.8c-15.3.16-30.6.06-45.9.06S68,44.44,67.87,59.94c0,4.23,1.7,6,5.95,6,9-.13,18,0,26.94,0,6.66,0,13.31,0,20,0,14.59,0,13.12,1.11,13.3-13.6C134.08,47.57,132.27,45.75,127.54,45.8Zm2.19,15.83H72.31V50.2h57.42Z" transform="translate(-55.9 -33.81)"/><path class="cls-1" d="M80,84c-.06,4.15-1.68,6.23-5.91,5.85-4.52.43-6.25-1.68-6.23-6.11,0-4.21,1.73-5.91,5.94-5.94C78.22,77.8,80.05,79.58,80,84Z" transform="translate(-55.9 -33.81)"/><path class="cls-1" d="M96,84.25c0,4.32-2.07,6-6.16,5.65-4.63.39-6-2.06-6-6.33s2.08-5.7,6.14-5.73C94.6,77.8,96.05,80,96,84.25Z" transform="translate(-55.9 -33.81)"/><path class="cls-1" d="M111.93,83.94c.32,4.17-1.53,6-5.78,6s-6.28-1.6-6.29-6.12,2-6.08,6.35-6S112.25,79.82,111.93,83.94Z" transform="translate(-55.9 -33.81)"/><path class="cls-1" d="M128.43,90c-4.19.06-6.58-1.15-6.54-5.85,0-4,1.13-6.25,5.58-6.28,4.17,0,6.82,1.1,6.47,5.86C134.27,87.67,132.84,89.92,128.43,90Z" transform="translate(-55.9 -33.81)"/><path class="cls-1" d="M80,100c0,4.13-1.58,6-5.85,6.06s-6.34-1.59-6.3-6.11c0-4.13,1.53-6.29,5.91-6C78.08,93.53,80,95.45,80,100Z" transform="translate(-55.9 -33.81)"/><path class="cls-1" d="M96,100.27c0,4.33-2.07,6-6.16,5.66-4.63.39-6-2.07-6-6.33s2.08-5.7,6.14-5.74C94.6,93.82,96.05,96,96,100.27Z" transform="translate(-55.9 -33.81)"/><path class="cls-1" d="M111.93,100c.32,4.17-1.53,6-5.78,6.06s-6.28-1.61-6.29-6.12,2-6.09,6.35-6S112.25,95.84,111.93,100Z" transform="translate(-55.9 -33.81)"/><path class="cls-1" d="M127.87,106c-4.18,0-5.94-1.7-6-5.92,0-4.43,1.66-6.3,6.15-6.24,4.16,0,6.22,1.66,5.91,6C134.35,104.22,132.33,106.05,127.87,106Z" transform="translate(-55.9 -33.81)"/><path class="cls-1" d="M80,116c0,4.13-1.58,6-5.85,6.06s-6.34-1.58-6.3-6.11c0-4.12,1.51-6.31,5.82-5.94C78.08,109.55,80,111.47,80,116Z" transform="translate(-55.9 -33.81)"/><path class="cls-1" d="M96,116.29c0,4.33-2.07,6-6.16,5.66-4.63.39-6-2.06-6-6.33s2.08-5.7,6.14-5.73C94.6,109.85,96.05,112,96,116.29Z" transform="translate(-55.9 -33.81)"/><path class="cls-1" d="M112,116.4c0,4.4-2.26,5.6-6.25,5.64-4.68,0-5.92-2.32-5.88-6.52,0-4.41,2.23-5.89,6.21-5.54C110.82,109.6,112,112.2,112,116.4Z" transform="translate(-55.9 -33.81)"/><path class="cls-1" d="M134,116.62c-.08,4.52-2.6,5.64-6.37,5.34-5,.28-5.78-2.64-5.74-6.67,0-4.56,2.63-5.37,6.46-5.39C133.19,109.87,134.07,112.58,134,116.62Z" transform="translate(-55.9 -33.81)"/></svg>