<svg id="Layer_1" data-name="Layer 1" xmlns="http://www.w3.org/2000/svg" viewBox="0 0 16.05 15.75"><defs><style>.cls-1{fill:#f8b133;}.cls-2{fill:#a2195b;}</style></defs><title>Presentations</title><path class="cls-1" d="M100.77,97.92a1.27,1.27,0,0,1-1.42,1.41c-1.51,0-3,0-4.52,0h-.49a.14.14,0,0,0-.12.1.77.77,0,0,0,.25.84c.84.81,1.65,1.65,2.48,2.47.21.2.42.42.15.7s-.5.07-.7-.14l-1.86-1.9c-.16-.13-.35-.06-.35.14v1a1.6,1.6,0,0,1,0,.58,1.21,1.21,0,0,1-.29.36.13.13,0,0,1-.18,0c-.12-.12-.27-.23-.28-.36,0-.51,0-1,0-1.59a.19.19,0,0,0-.32-.14h0c-.65.64-1.27,1.3-1.94,1.91-.15.13-.53.22-.65.13-.28-.22-.11-.48.11-.7.84-.83,1.69-1.65,2.5-2.51a1,1,0,0,0,.22-.77.13.13,0,0,0-.13-.12h-3.8a.13.13,0,0,1-.13-.13v-.55a.12.12,0,0,1,.13-.12h9.8c.67,0,.81-.13.81-.79q0-4.11,0-8.21c0-.81-.09-.9-.89-.9H88.36c-.38,0-.71,0-.78.45a.12.12,0,0,1-.12.1H87a.12.12,0,0,1-.13-.13,1.23,1.23,0,0,1,1.39-1.2H99.45a1.25,1.25,0,0,1,1.32,1.36Q100.79,93.57,100.77,97.92Z" transform="translate(-84.73 -87.85)"/><path class="cls-2" d="M92.65,93.21c0,.41-.29.54-.67.54H88.55v.59c0,2.79,0,5.57,0,8.36,0,.14-.07.86-.55.86s-.54-.69-.54-.82V97.81h-.53v.53c0,1.51,0,3,0,4.52,0,.39-.1.69-.53.74s-.57-.24-.57-.73V93.81h-.19v3.61c0,.13,0,.26,0,.39s-.14.47-.45.46a.41.41,0,0,1-.44-.46c0-1.46,0-2.92,0-4.38,0-.53.26-.77.8-.77,2.15,0,4.31,0,6.46,0C92.38,92.65,92.65,92.81,92.65,93.21Z" transform="translate(-84.73 -87.85)"/><path class="cls-2" d="M88.33,91a1.15,1.15,0,1,1-1.17-1.11A1.12,1.12,0,0,1,88.33,91Z" transform="translate(-84.73 -87.85)"/></svg>