<svg id="Layer_1" data-name="Layer 1" xmlns="http://www.w3.org/2000/svg" xmlns:xlink="http://www.w3.org/1999/xlink" viewBox="0 0 100 99.97"><defs><style>.cls-1{fill:url(#linear-gradient);}.cls-2{fill:#676767;}</style><linearGradient id="linear-gradient" x1="68.1" y1="99.74" x2="131.86" y2="99.74" gradientUnits="userSpaceOnUse"><stop offset="0" stop-color="#2070b3"/><stop offset="1" stop-color="#08b3ba"/></linearGradient></defs><title>Reconciliation</title><path class="cls-1" d="M122,73.56c.26-1.69-.43-3.91,2.05-4.06,3-.18,2.11,2.39,2.45,4.13,1.13,0,2.19,0,3.25,0a2,2,0,0,1,2.12,2.09,2.12,2.12,0,0,1-2.13,2.13c-.55,0-1.11,0-1.67,0s-1,0-1.63,0V122c1.12,0,2.17,0,3.22,0a2,2,0,0,1,2.2,2.16,2.06,2.06,0,0,1-2.17,2.06c-1.07.05-2.13,0-3.3,0,0,1.7.2,3.55-2.1,3.78-1.41.13-2-.82-2.32-3.7H78.06c-.15,1.59.25,3.63-2.25,3.69-1.44,0-2-.89-2.19-3.77-1,0-2.09,0-3.15,0A2.14,2.14,0,0,1,68.11,124,2.11,2.11,0,0,1,70.44,122c1,0,2,0,3.19,0V77.87c-1,0-2,0-3,0-1.59,0-2.55-.84-2.53-2.16s.92-2,2.44-2.08c1,0,2,0,3,0,.43-1.64-.43-4.15,2.36-4.14s1.8,2.49,2.24,4.08Zm0,48.34v-44H78.1v44Z" transform="translate(-50 -50.02)"/><path class="cls-2" d="M150,63.82a13.93,13.93,0,0,1-13.16,14,3.53,3.53,0,0,1-2.52-1c-1.14-1.36,0-3,1.93-3.19,3.82-.29,6.77-2,8.45-5.49a9.62,9.62,0,0,0-11.12-13.49,9.28,9.28,0,0,0-7.06,7.79c-.1.55-.1,1.11-.18,1.67a2.15,2.15,0,0,1-2.13,2,2.06,2.06,0,0,1-2.06-2,17,17,0,0,1,.67-4.38,13.86,13.86,0,0,1,15.62-9.46A14,14,0,0,1,150,63.82Z" transform="translate(-50 -50.02)"/><path class="cls-2" d="M54.31,63.6a9.78,9.78,0,0,0,9.48,10c1.18.08,2.12.55,2.19,1.69a3.64,3.64,0,0,1-1,2.22c-.26.33-1,.35-1.56.34-7.14-.12-13-6-13.41-13.49a14,14,0,0,1,27.83-1.84,5.31,5.31,0,0,1,0,.69c.06,1.71-.66,2.78-2,2.86a2.42,2.42,0,0,1-2.33-2.55,9.54,9.54,0,0,0-8.81-9.21,9.64,9.64,0,0,0-10.18,7.34A19.14,19.14,0,0,0,54.31,63.6Z" transform="translate(-50 -50.02)"/><path class="cls-2" d="M150,135.82A14.11,14.11,0,0,1,136.79,150a13.89,13.89,0,0,1-14.52-12.24,4.39,4.39,0,0,1,.1-2.43,3.07,3.07,0,0,1,2-1.3,1.71,1.71,0,0,1,1.93,1.6,32.25,32.25,0,0,0,.55,3.29c1.35,4.65,6,7.38,11,6.61a9.63,9.63,0,0,0-.38-19L136,126.3a2,2,0,0,1-2.05-2.17,2.09,2.09,0,0,1,2.22-2,13.44,13.44,0,0,1,9.37,3.69A13.81,13.81,0,0,1,150,135.82Z" transform="translate(-50 -50.02)"/><path class="cls-2" d="M64.53,150A14.18,14.18,0,0,1,50,136.08a14,14,0,0,1,13.2-14c1.92-.1,3.17,1,2.84,2.5a2.12,2.12,0,0,1-2.2,1.72c-4.8.44-8.07,3.05-9.22,7.24a9.64,9.64,0,1,0,18.79,4.28c.1-.59.17-1.19.22-1.79a2.11,2.11,0,1,1,4.21.15,21.47,21.47,0,0,1-1.55,6.14A13.33,13.33,0,0,1,64.53,150Z" transform="translate(-50 -50.02)"/></svg>