<svg id="Layer_1" data-name="Layer 1" xmlns="http://www.w3.org/2000/svg" xmlns:xlink="http://www.w3.org/1999/xlink" viewBox="0 0 100 113.49"><defs><style>.cls-1{fill:#f8b133;}.cls-2{fill:#0061a0;}.cls-3{clip-path:url(#clip-path);}</style><clipPath id="clip-path" transform="translate(-50 -43.26)"><circle id="SVGID" class="cls-1" cx="137.09" cy="133.64" r="6.48"/></clipPath></defs><title>Recruitments</title><path class="cls-2" d="M100.22,95.49a26.12,26.12,0,1,1,26.44-26.11A26.3,26.3,0,0,1,100.22,95.49Zm0-46.83a20.72,20.72,0,1,0,21,20.72A20.9,20.9,0,0,0,100.22,48.66Z" transform="translate(-50 -43.26)"/><path class="cls-2" d="M100.22,156.74A12.77,12.77,0,1,1,113.13,144,12.85,12.85,0,0,1,100.22,156.74Zm0-20.13a7.37,7.37,0,1,0,7.5,7.37A7.44,7.44,0,0,0,100.22,136.61Z" transform="translate(-50 -43.26)"/><rect class="cls-2" x="82.05" y="106.33" width="69.4" height="5.4" transform="translate(-62.3 159.93) rotate(-79.16)"/><rect class="cls-2" x="80.87" y="74.34" width="5.4" height="69.4" transform="translate(-68.9 -25.73) rotate(-10.77)"/><path class="cls-2" d="M137.11,146.4a13,13,0,0,1-11.24-6.46,12.56,12.56,0,0,1-1.23-9.68,12.73,12.73,0,0,1,6.1-7.74,13,13,0,0,1,17.57,4.81,12.68,12.68,0,0,1-4.88,17.42A12.86,12.86,0,0,1,137.11,146.4Zm0-20.13a7.5,7.5,0,0,0-3.7,1,7.29,7.29,0,0,0-2.83,10h0A7.59,7.59,0,0,0,140.8,140a7.37,7.37,0,0,0,3.53-4.47,7.23,7.23,0,0,0-.7-5.55A7.54,7.54,0,0,0,137.08,126.27Z" transform="translate(-50 -43.26)"/><rect class="cls-2" x="131.31" y="60.47" width="5.4" height="69.46" transform="translate(-73.75 5.75) rotate(-19.07)"/><rect class="cls-2" x="102.44" y="76.44" width="5.4" height="69.76" transform="translate(-97.11 51.77) rotate(-40.53)"/><path class="cls-2" d="M62.89,146.4a12.86,12.86,0,0,1-6.32-1.65,12.68,12.68,0,0,1-4.88-17.42,13,13,0,0,1,17.57-4.81,12.73,12.73,0,0,1,6.1,7.74,12.56,12.56,0,0,1-1.23,9.68h0A13,13,0,0,1,62.89,146.4Zm0-20.13A7.54,7.54,0,0,0,56.37,130a7.23,7.23,0,0,0-.7,5.55A7.37,7.37,0,0,0,59.2,140a7.59,7.59,0,0,0,10.25-2.79h0a7.29,7.29,0,0,0-2.83-10A7.5,7.5,0,0,0,62.92,126.27Z" transform="translate(-50 -43.26)"/><rect class="cls-2" x="31.25" y="92.5" width="69.46" height="5.4" transform="translate(-95.55 83.2) rotate(-70.93)"/><rect class="cls-2" x="59.97" y="108.62" width="69.76" height="5.4" transform="translate(-101.39 67.82) rotate(-49.47)"/><circle id="SVGID-2" data-name="SVGID" class="cls-1" cx="87.09" cy="90.38" r="6.48"/><g class="cls-3"><rect class="cls-1" x="80.61" y="83.9" width="12.95" height="0.33"/><rect class="cls-1" x="80.61" y="84.23" width="12.95" height="0.33"/><rect class="cls-1" x="80.61" y="84.56" width="12.95" height="0.33"/><rect class="cls-1" x="80.61" y="84.89" width="12.95" height="0.33"/><rect class="cls-1" x="80.61" y="85.23" width="12.95" height="0.33"/><rect class="cls-1" x="80.61" y="85.56" width="12.95" height="0.33"/><rect class="cls-1" x="80.61" y="85.89" width="12.95" height="0.33"/><rect class="cls-1" x="80.61" y="86.22" width="12.95" height="0.33"/><rect class="cls-1" x="80.61" y="86.55" width="12.95" height="0.33"/><rect class="cls-1" x="80.61" y="86.88" width="12.95" height="0.33"/><rect class="cls-1" x="80.61" y="87.21" width="12.95" height="0.33"/><rect class="cls-1" x="80.61" y="87.55" width="12.95" height="0.33"/><rect class="cls-1" x="80.61" y="87.88" width="12.95" height="0.33"/><rect class="cls-1" x="80.61" y="88.21" width="12.95" height="0.33"/><rect class="cls-1" x="80.61" y="88.54" width="12.95" height="0.33"/><rect class="cls-1" x="80.61" y="88.87" width="12.95" height="0.33"/><rect class="cls-1" x="80.61" y="89.2" width="12.95" height="0.33"/><rect class="cls-1" x="80.61" y="89.53" width="12.95" height="0.33"/><rect class="cls-1" x="80.61" y="89.87" width="12.95" height="0.33"/><rect class="cls-1" x="80.61" y="90.2" width="12.95" height="0.33"/><rect class="cls-1" x="80.61" y="90.53" width="12.95" height="0.33"/><rect class="cls-1" x="80.61" y="90.86" width="12.95" height="0.33"/><rect class="cls-1" x="80.61" y="91.19" width="12.95" height="0.33"/><rect class="cls-1" x="80.61" y="91.52" width="12.95" height="0.33"/><rect class="cls-1" x="80.61" y="91.85" width="12.95" height="0.33"/><rect class="cls-1" x="80.61" y="92.19" width="12.95" height="0.33"/><rect class="cls-1" x="80.61" y="92.52" width="12.95" height="0.33"/><rect class="cls-1" x="80.61" y="92.85" width="12.95" height="0.33"/><rect class="cls-1" x="80.61" y="93.18" width="12.95" height="0.33"/><rect class="cls-1" x="80.61" y="93.51" width="12.95" height="0.33"/><rect class="cls-1" x="80.61" y="93.84" width="12.95" height="0.33"/><rect class="cls-1" x="80.61" y="94.17" width="12.95" height="0.33"/><rect class="cls-1" x="80.61" y="94.51" width="12.95" height="0.33"/><rect class="cls-1" x="80.61" y="94.84" width="12.95" height="0.33"/><rect class="cls-1" x="80.61" y="95.17" width="12.95" height="0.33"/><rect class="cls-1" x="80.61" y="95.5" width="12.95" height="0.33"/><rect class="cls-1" x="80.61" y="95.83" width="12.95" height="0.33"/><rect class="cls-1" x="80.61" y="96.16" width="12.95" height="0.33"/><rect class="cls-1" x="80.61" y="96.5" width="12.95" height="0.33"/><rect class="cls-1" x="80.61" y="96.83" width="12.95" height="0.03"/></g></svg>