<svg id="Layer_1" data-name="Layer 1" xmlns="http://www.w3.org/2000/svg" viewBox="0 0 18.91 18.89"><defs><style>.cls-1{fill:#f96d42;}.cls-2{fill:#070706;}</style></defs><title>Reporting</title><path class="cls-1" d="M86.73,71.07c-.16,0-.35,0-.5-.12H84.17a5,5,0,0,1-1.08.24,9.49,9.49,0,0,0-7.19,7.72c0,.14,0,.31-.11.43v2.12A6.24,6.24,0,0,1,76,82.58,9.45,9.45,0,1,0,86.73,71.07Zm-1.5,17.54a8.21,8.21,0,1,1,8.21-8.2A8.19,8.19,0,0,1,85.23,88.61Z" transform="translate(-75.79 -70.95)"/><path class="cls-2" d="M89.52,76.73c.12-.17.18-.35,0-.48s-.32,0-.42.18c-.26.39-.52.78-.77,1.17a.51.51,0,0,1-.41.27.71.71,0,0,0-.69.71,1,1,0,0,1-.31.76c-.16.2-.33.39-.47.6a.29.29,0,0,1-.38.13.72.72,0,0,0-.93.41,1,1,0,0,1-.59.61l-.83.48a.26.26,0,0,1-.37,0,.77.77,0,0,0-1,0,.78.78,0,0,0-.27.94.37.37,0,0,1-.06.42l-.93,1.41c-.11.18-.29.37,0,.55s.37-.06.49-.23l.93-1.42a.37.37,0,0,1,.39-.22.62.62,0,0,0,.68-.42c.11-.37.38-.51.67-.67s.48-.27.71-.42a.32.32,0,0,1,.45,0,.71.71,0,0,0,.84.06.81.81,0,0,0,.44-.77c-.07-.18,0-.31.15-.44l.61-.78a.29.29,0,0,1,.38-.14.73.73,0,0,0,.86-.26.74.74,0,0,0,.09-.87.32.32,0,0,1,0-.41C89,77.51,89.26,77.12,89.52,76.73Zm-6.7,5.74a.25.25,0,0,1-.27-.26.27.27,0,1,1,.54,0A.26.26,0,0,1,82.82,82.47Zm3-1.36a.24.24,0,0,1-.25-.28.25.25,0,0,1,.28-.26c.16,0,.24.12.26.28A.28.28,0,0,1,85.8,81.11ZM88,78.93a.26.26,0,0,1-.26-.28c0-.16.11-.26.31-.25a.23.23,0,0,1,.23.27A.25.25,0,0,1,88,78.93Z" transform="translate(-75.79 -70.95)"/><path class="cls-2" d="M81.45,77.83c0,.19-.12.29-.28.28a.26.26,0,0,1-.26-.29.25.25,0,0,1,.27-.24A.24.24,0,0,1,81.45,77.83Z" transform="translate(-75.79 -70.95)"/><path class="cls-2" d="M81.45,80.57a.25.25,0,0,1-.27.26.24.24,0,0,1-.27-.26.27.27,0,0,1,.54,0Z" transform="translate(-75.79 -70.95)"/><path class="cls-2" d="M82.81,84.64a.27.27,0,0,1-.53,0,.24.24,0,0,1,.23-.28C82.71,84.38,82.81,84.48,82.81,84.64Z" transform="translate(-75.79 -70.95)"/><path class="cls-2" d="M85.54,84.64a.26.26,0,0,1-.26.28.24.24,0,0,1-.28-.25c0-.16.08-.27.21-.28S85.53,84.48,85.54,84.64Z" transform="translate(-75.79 -70.95)"/><path class="cls-2" d="M88.26,84.65c0,.17-.1.27-.27.27a.25.25,0,0,1-.26-.28.24.24,0,0,1,.25-.25C88.16,84.38,88.24,84.49,88.26,84.65Z" transform="translate(-75.79 -70.95)"/><path class="cls-2" d="M81.45,83.3a.27.27,0,0,1-.54,0c0-.17.12-.25.27-.27S81.45,83.12,81.45,83.3Z" transform="translate(-75.79 -70.95)"/><path class="cls-2" d="M81.45,79.23a.25.25,0,0,1-.27.24.24.24,0,0,1-.26-.27.26.26,0,0,1,.26-.27C81.36,79,81.46,79.06,81.45,79.23Z" transform="translate(-75.79 -70.95)"/><path class="cls-2" d="M81.45,81.92c0,.17-.1.28-.27.27a.24.24,0,0,1-.26-.27.24.24,0,0,1,.25-.26A.26.26,0,0,1,81.45,81.92Z" transform="translate(-75.79 -70.95)"/><path class="cls-2" d="M84.17,84.64c0,.18-.1.26-.26.29a.27.27,0,0,1-.27-.28.24.24,0,0,1,.25-.26A.24.24,0,0,1,84.17,84.64Z" transform="translate(-75.79 -70.95)"/><path class="cls-2" d="M86.9,84.65c0,.17-.11.25-.27.28s-.27-.11-.26-.29a.24.24,0,0,1,.28-.25A.24.24,0,0,1,86.9,84.65Z" transform="translate(-75.79 -70.95)"/><path class="cls-2" d="M81.45,76.49a.25.25,0,0,1-.28.25.23.23,0,0,1-.25-.25.25.25,0,0,1,.26-.28C81.35,76.21,81.44,76.31,81.45,76.49Z" transform="translate(-75.79 -70.95)"/><path class="cls-2" d="M89.37,84.93a.28.28,0,0,1-.28-.27.24.24,0,0,1,.24-.27.24.24,0,0,1,.29.24C89.64,84.8,89.53,84.89,89.37,84.93Z" transform="translate(-75.79 -70.95)"/><path class="cls-1" d="M82.81,81.93a.27.27,0,0,1,.28.27.26.26,0,0,1-.27.27.25.25,0,0,1-.27-.26A.26.26,0,0,1,82.81,81.93Z" transform="translate(-75.79 -70.95)"/><path class="cls-1" d="M88,78.4a.23.23,0,0,1,.23.27.25.25,0,0,1-.28.26.26.26,0,0,1-.26-.28C87.73,78.49,87.83,78.39,88,78.4Z" transform="translate(-75.79 -70.95)"/><path class="cls-1" d="M86.09,80.85a.28.28,0,0,1-.29.26.24.24,0,0,1-.25-.28.25.25,0,0,1,.28-.26C86,80.58,86.07,80.69,86.09,80.85Z" transform="translate(-75.79 -70.95)"/></svg>