<svg id="Layer_1" data-name="Layer 1" xmlns="http://www.w3.org/2000/svg" viewBox="0 0 19.81 15.18"><defs><style>.cls-1{fill:none;}.cls-2{fill:#35a8e0;}</style></defs><title>sms</title><path class="cls-1" d="M86.33,87.08a.55.55,0,0,0-.6.59c0,.16,0,.33,0,.5a.42.42,0,0,0,.3.46l4.58,1.94a1.06,1.06,0,0,0,.07-.44V87.07H86.33Z" transform="translate(-78.3 -81.37)"/><path class="cls-1" d="M90.68,86.69V84.52c0-.32,0-.34-.31-.19-1.5.82-3,1.63-4.49,2.46a1.34,1.34,0,0,1,.56-.1Z" transform="translate(-78.3 -81.37)"/><path class="cls-1" d="M91,90.72l.52.22a.61.61,0,0,0,.51,0l1.69-.72,3.79-1.59a.34.34,0,0,0,.25-.36c0-.22,0-.44,0-.65a.53.53,0,0,0-.52-.54H91.07v3.05A1.46,1.46,0,0,1,91,90.72Z" transform="translate(-78.3 -81.37)"/><path class="cls-1" d="M85.94,89.6c-.14-.07-.21,0-.21.13v1.11h2.5L87,90.18Z" transform="translate(-78.3 -81.37)"/><path class="cls-1" d="M85.34,88.39c0-.21,0-.42,0-.62a1,1,0,0,1,.38-.89l-.56.31a.86.86,0,0,1-1,0c-1.41-.79-2.83-1.55-4.25-2.32l-1.06-.57c-.14-.08-.21-.05-.21.12v5.68c0,.58.18.75.77.75h5.88V89.49c0-.54.1-.6.57-.34L89,90.84H90l.26,0-4.55-1.93A.46.46,0,0,1,85.34,88.39Z" transform="translate(-78.3 -81.37)"/><path class="cls-1" d="M79,83.31c1.82.76,3.64,1.54,5.45,2.31a.57.57,0,0,0,.51,0l1.69-.71c1.26-.53,2.52-1.07,3.79-1.59a.35.35,0,0,0,.25-.37c0-.22,0-.43,0-.65a.53.53,0,0,0-.52-.54c-.11,0-.22,0-.34,0H80.54c-.41,0-.83,0-1.25,0a.55.55,0,0,0-.6.59c0,.17,0,.34,0,.51A.4.4,0,0,0,79,83.31Z" transform="translate(-78.3 -81.37)"/><path class="cls-1" d="M85.73,95.4c0,.59.18.76.77.76H97c.56,0,.73-.17.73-.72v-5.6c0-.32,0-.34-.31-.19-1.74.95-3.48,1.89-5.21,2.85a.84.84,0,0,1-1,0L89,91.23H85.73Z" transform="translate(-78.3 -81.37)"/><path d="M90.61,90.57l.35.15a1.46,1.46,0,0,0,.11-.6V87.07h-.39v3.06A1.06,1.06,0,0,1,90.61,90.57Z" transform="translate(-78.3 -81.37)"/><path d="M85.73,91.23H89l-.72-.39h-2.5Z" transform="translate(-78.3 -81.37)"/><path d="M90.72,91l-.51-.22-.26,0H89l.72.39H90A1.29,1.29,0,0,0,90.72,91Z" transform="translate(-78.3 -81.37)"/><path d="M84.68,90.84H79.46c-.59,0-.77-.17-.77-.75V84.41c0-.17.07-.2.21-.12l1.06.57c1.42.77,2.84,1.53,4.25,2.32a.86.86,0,0,0,1,0l.56-.31a.51.51,0,0,1,.16-.09c1.49-.83,3-1.64,4.49-2.46.27-.15.31-.13.31.19v2.17h.39V84.13a2.44,2.44,0,0,0,0-.27c0-.17-.13-.24-.29-.16a4.66,4.66,0,0,0-.5.25c-1.76,1-3.52,1.91-5.28,2.88a.56.56,0,0,1-.6,0c-1.84-1-3.68-2-5.52-3-.48-.26-.57-.2-.57.34V90.1c0,.78.35,1.13,1.14,1.13h5.9v-.39Z" transform="translate(-78.3 -81.37)"/><path d="M78.62,83.57,84.36,86a.8.8,0,0,0,.69,0L88,84.76l2.65-1.11c.42-.18.43-.19.43-.64,0-.26,0-.52,0-.77a.88.88,0,0,0-.8-.86H79.4a1,1,0,0,0-1.1,1.08c0,.21,0,.42,0,.63A.44.44,0,0,0,78.62,83.57Zm.07-1.22a.55.55,0,0,1,.6-.59c.42,0,.84,0,1.25,0h9.28c.12,0,.23,0,.34,0a.53.53,0,0,1,.52.54c0,.22,0,.43,0,.65a.35.35,0,0,1-.25.37c-1.27.52-2.53,1.06-3.79,1.59L85,85.62a.57.57,0,0,1-.51,0c-1.81-.77-3.63-1.55-5.45-2.31a.4.4,0,0,1-.3-.45C78.7,82.69,78.68,82.52,78.69,82.35Z" transform="translate(-78.3 -81.37)"/><path class="cls-2" d="M91.25,92.49a.84.84,0,0,0,1,0c1.73-1,3.47-1.9,5.21-2.85.28-.15.31-.13.31.19v5.6c0,.55-.17.72-.73.72H86.5c-.59,0-.77-.17-.77-.76V91.23h-.39v4.18c0,.79.35,1.14,1.14,1.14H97c.8,0,1.12-.32,1.12-1.11v-6a2.44,2.44,0,0,0,0-.27c0-.18-.13-.24-.29-.17l-.5.25L92,92.15a.54.54,0,0,1-.6,0l-1.68-.91H89Z" transform="translate(-78.3 -81.37)"/><path d="M85.73,90.84h-.39v.39h.39Z" transform="translate(-78.3 -81.37)"/><path d="M88.23,90.84l.72.39h.8L89,90.84Z" transform="translate(-78.3 -81.37)"/><path class="cls-2" d="M91.74,87.07H97.2a.53.53,0,0,1,.52.54c0,.21,0,.43,0,.65a.34.34,0,0,1-.25.36l-3.79,1.59L92,90.94a.61.61,0,0,1-.51,0L91,90.72a.7.7,0,0,1-.24.32l.68.29a.83.83,0,0,0,.69,0L95,90.08,97.68,89c.42-.17.43-.18.43-.63,0-.26,0-.52,0-.78a.87.87,0,0,0-.8-.85,1.58,1.58,0,0,0-.31,0H91.07v.38Z" transform="translate(-78.3 -81.37)"/><path d="M91,90.72l-.35-.15a.48.48,0,0,1-.4.25l.51.22A.7.7,0,0,0,91,90.72Z" transform="translate(-78.3 -81.37)"/><path class="cls-2" d="M85.72,86.88l.16-.09A.51.51,0,0,0,85.72,86.88Z" transform="translate(-78.3 -81.37)"/><path d="M90.68,87.07h.39v-.38h-.39Z" transform="translate(-78.3 -81.37)"/></svg>