<svg id="Layer_1" data-name="Layer 1" xmlns="http://www.w3.org/2000/svg" xmlns:xlink="http://www.w3.org/1999/xlink" viewBox="0 0 86.75 94.63"><defs><style>.cls-1{fill:#e61b72;}.cls-2,.cls-3,.cls-4{fill:#1d70b7;}.cls-2,.cls-3{stroke:#676767;stroke-miterlimit:10;}.cls-2{stroke-width:4px;}.cls-3{stroke-width:7px;}.cls-5{clip-path:url(#clip-path);}</style><clipPath id="clip-path" transform="translate(-50 -55.28)"><circle id="SVGID" class="cls-1" cx="119.5" cy="68.97" r="12.03"/></clipPath></defs><title>Statutory Reports</title><path class="cls-2" d="M93.78,50.09" transform="translate(-50 -55.28)"/><path class="cls-2" d="M150,78.2" transform="translate(-50 -55.28)"/><path class="cls-2" d="M93.78,86.25" transform="translate(-50 -55.28)"/><path class="cls-3" d="M108.1,116.81" transform="translate(-50 -55.28)"/><path class="cls-4" d="M72.49,149.91H50V127.2H72.49Zm-16.87-5.62H66.87V132.82H55.62Z" transform="translate(-50 -55.28)"/><path class="cls-4" d="M104.62,149.77H82.13v-37h22.49Zm-16.87-5.62H99V118.36H87.75Z" transform="translate(-50 -55.28)"/><path class="cls-4" d="M136.75,149.67H114.26V91.46h22.49Zm-16.87-5.62h11.24v-47H119.88Z" transform="translate(-50 -55.28)"/><path class="cls-1" d="M54.37,119.69a14.19,14.19,0,0,1-3.32-.36l1.35-5.46c9.4,2.32,42.33-14.05,59.84-39.34l4.63,3.2C100.85,100.87,69.63,119.69,54.37,119.69Z" transform="translate(-50 -55.28)"/><circle id="SVGID-2" data-name="SVGID" class="cls-1" cx="69.5" cy="13.69" r="12.03"/><g class="cls-5"><rect class="cls-1" x="55.81" width="1.69" height="27.38"/><rect class="cls-1" x="57.5" width="0.35" height="27.38"/><rect class="cls-1" x="57.85" width="0.35" height="27.38"/><rect class="cls-1" x="58.2" width="0.35" height="27.38"/><rect class="cls-1" x="58.55" width="0.35" height="27.38"/><rect class="cls-1" x="58.89" width="0.35" height="27.38"/><rect class="cls-1" x="59.24" width="0.35" height="27.38"/><rect class="cls-1" x="59.59" width="0.35" height="27.38"/><rect class="cls-1" x="59.94" width="0.35" height="27.38"/><rect class="cls-1" x="60.29" width="0.35" height="27.38"/><rect class="cls-1" x="60.63" width="0.35" height="27.38"/><rect class="cls-1" x="60.98" width="0.35" height="27.38"/><rect class="cls-1" x="61.33" width="0.35" height="27.38"/><rect class="cls-1" x="61.68" width="0.35" height="27.38"/><rect class="cls-1" x="62.03" width="0.35" height="27.38"/><rect class="cls-1" x="62.38" width="0.35" height="27.38"/><rect class="cls-1" x="62.72" width="0.35" height="27.38"/><rect class="cls-1" x="63.07" width="0.35" height="27.38"/><rect class="cls-1" x="63.42" width="0.35" height="27.38"/><rect class="cls-1" x="63.77" width="0.35" height="27.38"/><rect class="cls-1" x="64.12" width="0.35" height="27.38"/><rect class="cls-1" x="64.47" width="0.35" height="27.38"/><rect class="cls-1" x="64.81" width="0.35" height="27.38"/><rect class="cls-1" x="65.16" width="0.35" height="27.38"/><rect class="cls-1" x="65.51" width="0.35" height="27.38"/><rect class="cls-1" x="65.86" width="0.35" height="27.38"/><rect class="cls-1" x="66.21" width="0.35" height="27.38"/><rect class="cls-1" x="66.55" width="0.35" height="27.38"/><rect class="cls-1" x="66.9" width="0.35" height="27.38"/><rect class="cls-1" x="67.25" width="0.35" height="27.38"/><rect class="cls-1" x="67.6" width="0.35" height="27.38"/><rect class="cls-1" x="67.95" width="0.35" height="27.38"/><rect class="cls-1" x="68.3" width="0.35" height="27.38"/><rect class="cls-1" x="68.64" width="0.35" height="27.38"/><rect class="cls-1" x="68.99" width="0.35" height="27.38"/><rect class="cls-1" x="69.34" width="0.35" height="27.38"/><rect class="cls-1" x="69.69" width="0.35" height="27.38"/><rect class="cls-1" x="70.04" width="0.35" height="27.38"/><rect class="cls-1" x="70.39" width="0.35" height="27.38"/><rect class="cls-1" x="70.73" width="0.35" height="27.38"/><rect class="cls-1" x="71.08" width="0.35" height="27.38"/><rect class="cls-1" x="71.43" width="0.35" height="27.38"/><rect class="cls-1" x="71.78" width="0.35" height="27.38"/><rect class="cls-1" x="72.13" width="0.35" height="27.38"/><rect class="cls-1" x="72.47" width="0.35" height="27.38"/><rect class="cls-1" x="72.82" width="0.35" height="27.38"/><rect class="cls-1" x="73.17" width="0.35" height="27.38"/><rect class="cls-1" x="73.52" width="0.35" height="27.38"/><rect class="cls-1" x="73.87" width="0.35" height="27.38"/><rect class="cls-1" x="74.22" width="0.35" height="27.38"/><rect class="cls-1" x="74.56" width="0.35" height="27.38"/><rect class="cls-1" x="74.91" width="0.35" height="27.38"/><rect class="cls-1" x="75.26" width="0.35" height="27.38"/><rect class="cls-1" x="75.61" width="0.35" height="27.38"/><rect class="cls-1" x="75.96" width="0.35" height="27.38"/><rect class="cls-1" x="76.31" width="0.35" height="27.38"/><rect class="cls-1" x="76.65" width="0.35" height="27.38"/><rect class="cls-1" x="77" width="0.35" height="27.38"/><rect class="cls-1" x="77.35" width="0.35" height="27.38"/><rect class="cls-1" x="77.7" width="0.35" height="27.38"/><rect class="cls-1" x="78.05" width="0.35" height="27.38"/><rect class="cls-1" x="78.39" width="0.35" height="27.38"/><rect class="cls-1" x="78.74" width="0.35" height="27.38"/><rect class="cls-1" x="79.09" width="0.35" height="27.38"/><rect class="cls-1" x="79.44" width="0.35" height="27.38"/><rect class="cls-1" x="79.79" width="0.35" height="27.38"/><rect class="cls-1" x="80.14" width="0.35" height="27.38"/><rect class="cls-1" x="80.48" width="0.35" height="27.38"/><rect class="cls-1" x="80.83" width="0.35" height="27.38"/><rect class="cls-1" x="81.18" width="0.35" height="27.38"/><rect class="cls-1" x="81.53" width="1.66" height="27.38"/></g></svg>