<svg id="Layer_1" data-name="Layer 1" xmlns="http://www.w3.org/2000/svg" viewBox="0 0 100 100"><defs><style>.cls-1{fill:#216cb3;}</style></defs><title>Time_Sheets</title><path class="cls-1" d="M100,134.4A34.4,34.4,0,1,1,134.4,100,34.44,34.44,0,0,1,100,134.4Zm0-64.18A29.78,29.78,0,1,0,129.78,100,29.81,29.81,0,0,0,100,70.22Z" transform="translate(-50 -50)"/><polygon class="cls-1" points="49.49 53.77 34.11 37.37 37.47 34.21 49.59 47.14 67.16 29.57 70.43 32.84 49.49 53.77"/><path class="cls-1" d="M100,150A50,50,0,0,1,64.92,64.37l3.24,3.29a45.38,45.38,0,1,0,31.84-13V50a50,50,0,0,1,0,100Z" transform="translate(-50 -50)"/><polygon class="cls-1" points="20.66 23.11 9.37 11.81 24.8 7.68 20.66 23.11"/></svg>