<svg id="Layer_1" data-name="Layer 1" xmlns="http://www.w3.org/2000/svg" xmlns:xlink="http://www.w3.org/1999/xlink" viewBox="0 0 100 100"><defs><style>.cls-1{fill:#f8b133;}.cls-2{fill:#1a64ad;}.cls-3{clip-path:url(#clip-path);}.cls-4{clip-path:url(#clip-path-2);}.cls-5{clip-path:url(#clip-path-3);}.cls-6{clip-path:url(#clip-path-4);}</style><clipPath id="clip-path" transform="translate(-50 -50)"><circle id="SVGID" class="cls-1" cx="100" cy="59.54" r="7.79"/></clipPath><clipPath id="clip-path-2" transform="translate(-50 -50)"><circle id="SVGID-2" data-name="SVGID" class="cls-1" cx="140.46" cy="100" r="7.79"/></clipPath><clipPath id="clip-path-3" transform="translate(-50 -50)"><circle id="SVGID-3" data-name="SVGID" class="cls-1" cx="100" cy="140.46" r="7.79"/></clipPath><clipPath id="clip-path-4" transform="translate(-50 -50)"><circle id="SVGID-4" data-name="SVGID" class="cls-1" cx="59.54" cy="100" r="7.79"/></clipPath></defs><title>Trainings</title><path class="cls-2" d="M100,142.34A42.34,42.34,0,1,1,142.34,100,42.38,42.38,0,0,1,100,142.34Zm0-80.92A38.58,38.58,0,1,0,138.58,100,38.63,38.63,0,0,0,100,61.42Z" transform="translate(-50 -50)"/><circle id="SVGID-5" data-name="SVGID" class="cls-1" cx="50" cy="9.54" r="7.79"/><g class="cls-3"><rect class="cls-1" x="42.21" y="1.75" width="0.02" height="15.58"/><rect class="cls-1" x="42.23" y="1.75" width="0.23" height="15.58"/><rect class="cls-1" x="42.45" y="1.75" width="0.23" height="15.58"/><rect class="cls-1" x="42.68" y="1.75" width="0.23" height="15.58"/><rect class="cls-1" x="42.91" y="1.75" width="0.23" height="15.58"/><rect class="cls-1" x="43.13" y="1.75" width="0.23" height="15.58"/><rect class="cls-1" x="43.36" y="1.75" width="0.23" height="15.58"/><rect class="cls-1" x="43.58" y="1.75" width="0.23" height="15.58"/><rect class="cls-1" x="43.81" y="1.75" width="0.23" height="15.58"/><rect class="cls-1" x="44.03" y="1.75" width="0.23" height="15.58"/><rect class="cls-1" x="44.26" y="1.75" width="0.23" height="15.58"/><rect class="cls-1" x="44.48" y="1.75" width="0.23" height="15.58"/><rect class="cls-1" x="44.71" y="1.75" width="0.23" height="15.58"/><rect class="cls-1" x="44.94" y="1.75" width="0.23" height="15.58"/><rect class="cls-1" x="45.16" y="1.75" width="0.23" height="15.58"/><rect class="cls-1" x="45.39" y="1.75" width="0.23" height="15.58"/><rect class="cls-1" x="45.61" y="1.75" width="0.23" height="15.58"/><rect class="cls-1" x="45.84" y="1.75" width="0.23" height="15.58"/><rect class="cls-1" x="46.06" y="1.75" width="0.23" height="15.58"/><rect class="cls-1" x="46.29" y="1.75" width="0.23" height="15.58"/><rect class="cls-1" x="46.51" y="1.75" width="0.23" height="15.58"/><rect class="cls-1" x="46.74" y="1.75" width="0.23" height="15.58"/><rect class="cls-1" x="46.97" y="1.75" width="0.23" height="15.58"/><rect class="cls-1" x="47.19" y="1.75" width="0.23" height="15.58"/><rect class="cls-1" x="47.42" y="1.75" width="0.23" height="15.58"/><rect class="cls-1" x="47.64" y="1.75" width="0.23" height="15.58"/><rect class="cls-1" x="47.87" y="1.75" width="0.23" height="15.58"/><rect class="cls-1" x="48.09" y="1.75" width="0.23" height="15.58"/><rect class="cls-1" x="48.32" y="1.75" width="0.23" height="15.58"/><rect class="cls-1" x="48.54" y="1.75" width="0.23" height="15.58"/><rect class="cls-1" x="48.77" y="1.75" width="0.23" height="15.58"/><rect class="cls-1" x="48.99" y="1.75" width="0.23" height="15.58"/><rect class="cls-1" x="49.22" y="1.75" width="0.23" height="15.58"/><rect class="cls-1" x="49.45" y="1.75" width="0.23" height="15.58"/><rect class="cls-1" x="49.67" y="1.75" width="0.23" height="15.58"/><rect class="cls-1" x="49.9" y="1.75" width="0.23" height="15.58"/><rect class="cls-1" x="50.12" y="1.75" width="0.23" height="15.58"/><rect class="cls-1" x="50.35" y="1.75" width="0.23" height="15.58"/><rect class="cls-1" x="50.57" y="1.75" width="0.23" height="15.58"/><rect class="cls-1" x="50.8" y="1.75" width="0.23" height="15.58"/><rect class="cls-1" x="51.02" y="1.75" width="0.23" height="15.58"/><rect class="cls-1" x="51.25" y="1.75" width="0.23" height="15.58"/><rect class="cls-1" x="51.48" y="1.75" width="0.23" height="15.58"/><rect class="cls-1" x="51.7" y="1.75" width="0.23" height="15.58"/><rect class="cls-1" x="51.93" y="1.75" width="0.23" height="15.58"/><rect class="cls-1" x="52.15" y="1.75" width="0.23" height="15.58"/><rect class="cls-1" x="52.38" y="1.75" width="0.23" height="15.58"/><rect class="cls-1" x="52.6" y="1.75" width="0.23" height="15.58"/><rect class="cls-1" x="52.83" y="1.75" width="0.23" height="15.58"/><rect class="cls-1" x="53.05" y="1.75" width="0.23" height="15.58"/><rect class="cls-1" x="53.28" y="1.75" width="0.23" height="15.58"/><rect class="cls-1" x="53.51" y="1.75" width="0.23" height="15.58"/><rect class="cls-1" x="53.73" y="1.75" width="0.23" height="15.58"/><rect class="cls-1" x="53.96" y="1.75" width="0.23" height="15.58"/><rect class="cls-1" x="54.18" y="1.75" width="0.23" height="15.58"/><rect class="cls-1" x="54.41" y="1.75" width="0.23" height="15.58"/><rect class="cls-1" x="54.63" y="1.75" width="0.23" height="15.58"/><rect class="cls-1" x="54.86" y="1.75" width="0.23" height="15.58"/><rect class="cls-1" x="55.08" y="1.75" width="0.23" height="15.58"/><rect class="cls-1" x="55.31" y="1.75" width="0.23" height="15.58"/><rect class="cls-1" x="55.53" y="1.75" width="0.23" height="15.58"/><rect class="cls-1" x="55.76" y="1.75" width="0.23" height="15.58"/><rect class="cls-1" x="55.99" y="1.75" width="0.23" height="15.58"/><rect class="cls-1" x="56.21" y="1.75" width="0.23" height="15.58"/><rect class="cls-1" x="56.44" y="1.75" width="0.23" height="15.58"/><rect class="cls-1" x="56.66" y="1.75" width="0.23" height="15.58"/><rect class="cls-1" x="56.89" y="1.75" width="0.23" height="15.58"/><rect class="cls-1" x="57.11" y="1.75" width="0.23" height="15.58"/><rect class="cls-1" x="57.34" y="1.75" width="0.23" height="15.58"/><rect class="cls-1" x="57.56" y="1.75" width="0.23" height="15.58"/><path class="cls-1" d="M107.79,67.33v0Z" transform="translate(-50 -50)"/></g><path class="cls-1" d="M100,69.08a9.54,9.54,0,1,1,9.54-9.54A9.55,9.55,0,0,1,100,69.08Zm0-15.58a6,6,0,1,0,6,6A6,6,0,0,0,100,53.5Z" transform="translate(-50 -50)"/><circle id="SVGID-6" data-name="SVGID" class="cls-1" cx="90.46" cy="50" r="7.79"/><g class="cls-4"><rect class="cls-1" x="82.67" y="42.21" width="0.02" height="15.58"/><rect class="cls-1" x="82.69" y="42.21" width="0.23" height="15.58"/><rect class="cls-1" x="82.91" y="42.21" width="0.23" height="15.58"/><rect class="cls-1" x="83.14" y="42.21" width="0.23" height="15.58"/><rect class="cls-1" x="83.37" y="42.21" width="0.23" height="15.58"/><rect class="cls-1" x="83.59" y="42.21" width="0.23" height="15.58"/><rect class="cls-1" x="83.82" y="42.21" width="0.23" height="15.58"/><rect class="cls-1" x="84.04" y="42.21" width="0.23" height="15.58"/><rect class="cls-1" x="84.27" y="42.21" width="0.23" height="15.58"/><rect class="cls-1" x="84.49" y="42.21" width="0.23" height="15.58"/><rect class="cls-1" x="84.72" y="42.21" width="0.23" height="15.58"/><rect class="cls-1" x="84.94" y="42.21" width="0.23" height="15.58"/><rect class="cls-1" x="85.17" y="42.21" width="0.23" height="15.58"/><rect class="cls-1" x="85.4" y="42.21" width="0.23" height="15.58"/><rect class="cls-1" x="85.62" y="42.21" width="0.23" height="15.58"/><rect class="cls-1" x="85.85" y="42.21" width="0.23" height="15.58"/><rect class="cls-1" x="86.07" y="42.21" width="0.23" height="15.58"/><rect class="cls-1" x="86.3" y="42.21" width="0.23" height="15.58"/><rect class="cls-1" x="86.52" y="42.21" width="0.23" height="15.58"/><rect class="cls-1" x="86.75" y="42.21" width="0.23" height="15.58"/><rect class="cls-1" x="86.97" y="42.21" width="0.23" height="15.58"/><rect class="cls-1" x="87.2" y="42.21" width="0.23" height="15.58"/><rect class="cls-1" x="87.43" y="42.21" width="0.23" height="15.58"/><rect class="cls-1" x="87.65" y="42.21" width="0.23" height="15.58"/><rect class="cls-1" x="87.88" y="42.21" width="0.23" height="15.58"/><rect class="cls-1" x="88.1" y="42.21" width="0.23" height="15.58"/><rect class="cls-1" x="88.33" y="42.21" width="0.23" height="15.58"/><rect class="cls-1" x="88.55" y="42.21" width="0.23" height="15.58"/><rect class="cls-1" x="88.78" y="42.21" width="0.23" height="15.58"/><rect class="cls-1" x="89" y="42.21" width="0.23" height="15.58"/><rect class="cls-1" x="89.23" y="42.21" width="0.23" height="15.58"/><rect class="cls-1" x="89.45" y="42.21" width="0.23" height="15.58"/><rect class="cls-1" x="89.68" y="42.21" width="0.23" height="15.58"/><rect class="cls-1" x="89.91" y="42.21" width="0.23" height="15.58"/><rect class="cls-1" x="90.13" y="42.21" width="0.23" height="15.58"/><rect class="cls-1" x="90.36" y="42.21" width="0.23" height="15.58"/><rect class="cls-1" x="90.58" y="42.21" width="0.23" height="15.58"/><rect class="cls-1" x="90.81" y="42.21" width="0.23" height="15.58"/><rect class="cls-1" x="91.03" y="42.21" width="0.23" height="15.58"/><rect class="cls-1" x="91.26" y="42.21" width="0.23" height="15.58"/><rect class="cls-1" x="91.48" y="42.21" width="0.23" height="15.58"/><rect class="cls-1" x="91.71" y="42.21" width="0.23" height="15.58"/><rect class="cls-1" x="91.94" y="42.21" width="0.23" height="15.58"/><rect class="cls-1" x="92.16" y="42.21" width="0.23" height="15.58"/><rect class="cls-1" x="92.39" y="42.21" width="0.23" height="15.58"/><rect class="cls-1" x="92.61" y="42.21" width="0.23" height="15.58"/><rect class="cls-1" x="92.84" y="42.21" width="0.23" height="15.58"/><rect class="cls-1" x="93.06" y="42.21" width="0.23" height="15.58"/><rect class="cls-1" x="93.29" y="42.21" width="0.23" height="15.58"/><rect class="cls-1" x="93.51" y="42.21" width="0.23" height="15.58"/><rect class="cls-1" x="93.74" y="42.21" width="0.23" height="15.58"/><rect class="cls-1" x="93.97" y="42.21" width="0.23" height="15.58"/><rect class="cls-1" x="94.19" y="42.21" width="0.23" height="15.58"/><rect class="cls-1" x="94.42" y="42.21" width="0.23" height="15.58"/><rect class="cls-1" x="94.64" y="42.21" width="0.23" height="15.58"/><rect class="cls-1" x="94.87" y="42.21" width="0.23" height="15.58"/><rect class="cls-1" x="95.09" y="42.21" width="0.23" height="15.58"/><rect class="cls-1" x="95.32" y="42.21" width="0.23" height="15.58"/><rect class="cls-1" x="95.54" y="42.21" width="0.23" height="15.58"/><rect class="cls-1" x="95.77" y="42.21" width="0.23" height="15.58"/><rect class="cls-1" x="95.99" y="42.21" width="0.23" height="15.58"/><rect class="cls-1" x="96.22" y="42.21" width="0.23" height="15.58"/><rect class="cls-1" x="96.45" y="42.21" width="0.23" height="15.58"/><rect class="cls-1" x="96.67" y="42.21" width="0.23" height="15.58"/><rect class="cls-1" x="96.9" y="42.21" width="0.23" height="15.58"/><rect class="cls-1" x="97.12" y="42.21" width="0.23" height="15.58"/><rect class="cls-1" x="97.35" y="42.21" width="0.23" height="15.58"/><rect class="cls-1" x="97.57" y="42.21" width="0.23" height="15.58"/><rect class="cls-1" x="97.8" y="42.21" width="0.23" height="15.58"/><rect class="cls-1" x="98.02" y="42.21" width="0.23" height="15.58"/><path class="cls-1" d="M148.25,107.79v0Z" transform="translate(-50 -50)"/></g><path class="cls-1" d="M140.46,109.54A9.54,9.54,0,1,1,150,100,9.55,9.55,0,0,1,140.46,109.54Zm0-15.58a6,6,0,1,0,6,6A6,6,0,0,0,140.46,94Z" transform="translate(-50 -50)"/><circle id="SVGID-7" data-name="SVGID" class="cls-1" cx="50" cy="90.46" r="7.79"/><g class="cls-5"><rect class="cls-1" x="42.21" y="82.67" width="0.02" height="15.58"/><rect class="cls-1" x="42.23" y="82.67" width="0.23" height="15.58"/><rect class="cls-1" x="42.45" y="82.67" width="0.23" height="15.58"/><rect class="cls-1" x="42.68" y="82.67" width="0.23" height="15.58"/><rect class="cls-1" x="42.91" y="82.67" width="0.23" height="15.58"/><rect class="cls-1" x="43.13" y="82.67" width="0.23" height="15.58"/><rect class="cls-1" x="43.36" y="82.67" width="0.23" height="15.58"/><rect class="cls-1" x="43.58" y="82.67" width="0.23" height="15.58"/><rect class="cls-1" x="43.81" y="82.67" width="0.23" height="15.58"/><rect class="cls-1" x="44.03" y="82.67" width="0.23" height="15.58"/><rect class="cls-1" x="44.26" y="82.67" width="0.23" height="15.58"/><rect class="cls-1" x="44.48" y="82.67" width="0.23" height="15.58"/><rect class="cls-1" x="44.71" y="82.67" width="0.23" height="15.58"/><rect class="cls-1" x="44.94" y="82.67" width="0.23" height="15.58"/><rect class="cls-1" x="45.16" y="82.67" width="0.23" height="15.58"/><rect class="cls-1" x="45.39" y="82.67" width="0.23" height="15.58"/><rect class="cls-1" x="45.61" y="82.67" width="0.23" height="15.58"/><rect class="cls-1" x="45.84" y="82.67" width="0.23" height="15.58"/><rect class="cls-1" x="46.06" y="82.67" width="0.23" height="15.58"/><rect class="cls-1" x="46.29" y="82.67" width="0.23" height="15.58"/><rect class="cls-1" x="46.51" y="82.67" width="0.23" height="15.58"/><rect class="cls-1" x="46.74" y="82.67" width="0.23" height="15.58"/><rect class="cls-1" x="46.97" y="82.67" width="0.23" height="15.58"/><rect class="cls-1" x="47.19" y="82.67" width="0.23" height="15.58"/><rect class="cls-1" x="47.42" y="82.67" width="0.23" height="15.58"/><rect class="cls-1" x="47.64" y="82.67" width="0.23" height="15.58"/><rect class="cls-1" x="47.87" y="82.67" width="0.23" height="15.58"/><rect class="cls-1" x="48.09" y="82.67" width="0.23" height="15.58"/><rect class="cls-1" x="48.32" y="82.67" width="0.23" height="15.58"/><rect class="cls-1" x="48.54" y="82.67" width="0.23" height="15.58"/><rect class="cls-1" x="48.77" y="82.67" width="0.23" height="15.58"/><rect class="cls-1" x="48.99" y="82.67" width="0.23" height="15.58"/><rect class="cls-1" x="49.22" y="82.67" width="0.23" height="15.58"/><rect class="cls-1" x="49.45" y="82.67" width="0.23" height="15.58"/><rect class="cls-1" x="49.67" y="82.67" width="0.23" height="15.58"/><rect class="cls-1" x="49.9" y="82.67" width="0.23" height="15.58"/><rect class="cls-1" x="50.12" y="82.67" width="0.23" height="15.58"/><rect class="cls-1" x="50.35" y="82.67" width="0.23" height="15.58"/><rect class="cls-1" x="50.57" y="82.67" width="0.23" height="15.58"/><rect class="cls-1" x="50.8" y="82.67" width="0.23" height="15.58"/><rect class="cls-1" x="51.02" y="82.67" width="0.23" height="15.58"/><rect class="cls-1" x="51.25" y="82.67" width="0.23" height="15.58"/><rect class="cls-1" x="51.48" y="82.67" width="0.23" height="15.58"/><rect class="cls-1" x="51.7" y="82.67" width="0.23" height="15.58"/><rect class="cls-1" x="51.93" y="82.67" width="0.23" height="15.58"/><rect class="cls-1" x="52.15" y="82.67" width="0.23" height="15.58"/><rect class="cls-1" x="52.38" y="82.67" width="0.23" height="15.58"/><rect class="cls-1" x="52.6" y="82.67" width="0.23" height="15.58"/><rect class="cls-1" x="52.83" y="82.67" width="0.23" height="15.58"/><rect class="cls-1" x="53.05" y="82.67" width="0.23" height="15.58"/><rect class="cls-1" x="53.28" y="82.67" width="0.23" height="15.58"/><rect class="cls-1" x="53.51" y="82.67" width="0.23" height="15.58"/><rect class="cls-1" x="53.73" y="82.67" width="0.23" height="15.58"/><rect class="cls-1" x="53.96" y="82.67" width="0.23" height="15.58"/><rect class="cls-1" x="54.18" y="82.67" width="0.23" height="15.58"/><rect class="cls-1" x="54.41" y="82.67" width="0.23" height="15.58"/><rect class="cls-1" x="54.63" y="82.67" width="0.23" height="15.58"/><rect class="cls-1" x="54.86" y="82.67" width="0.23" height="15.58"/><rect class="cls-1" x="55.08" y="82.67" width="0.23" height="15.58"/><rect class="cls-1" x="55.31" y="82.67" width="0.23" height="15.58"/><rect class="cls-1" x="55.53" y="82.67" width="0.23" height="15.58"/><rect class="cls-1" x="55.76" y="82.67" width="0.23" height="15.58"/><rect class="cls-1" x="55.99" y="82.67" width="0.23" height="15.58"/><rect class="cls-1" x="56.21" y="82.67" width="0.23" height="15.58"/><rect class="cls-1" x="56.44" y="82.67" width="0.23" height="15.58"/><rect class="cls-1" x="56.66" y="82.67" width="0.23" height="15.58"/><rect class="cls-1" x="56.89" y="82.67" width="0.23" height="15.58"/><rect class="cls-1" x="57.11" y="82.67" width="0.23" height="15.58"/><rect class="cls-1" x="57.34" y="82.67" width="0.23" height="15.58"/><rect class="cls-1" x="57.56" y="82.67" width="0.23" height="15.58"/><path class="cls-1" d="M107.79,148.25v0Z" transform="translate(-50 -50)"/></g><path class="cls-1" d="M100,150a9.54,9.54,0,1,1,9.54-9.54A9.55,9.55,0,0,1,100,150Zm0-15.58a6,6,0,1,0,6,6A6,6,0,0,0,100,134.42Z" transform="translate(-50 -50)"/><circle id="SVGID-8" data-name="SVGID" class="cls-1" cx="9.54" cy="50" r="7.79"/><g class="cls-6"><rect class="cls-1" x="1.75" y="42.21" width="0.02" height="15.58"/><rect class="cls-1" x="1.77" y="42.21" width="0.23" height="15.58"/><rect class="cls-1" x="2" y="42.21" width="0.23" height="15.58"/><rect class="cls-1" x="2.22" y="42.21" width="0.23" height="15.58"/><rect class="cls-1" x="2.45" y="42.21" width="0.23" height="15.58"/><rect class="cls-1" x="2.67" y="42.21" width="0.23" height="15.58"/><rect class="cls-1" x="2.9" y="42.21" width="0.23" height="15.58"/><rect class="cls-1" x="3.12" y="42.21" width="0.23" height="15.58"/><rect class="cls-1" x="3.35" y="42.21" width="0.23" height="15.58"/><rect class="cls-1" x="3.57" y="42.21" width="0.23" height="15.58"/><rect class="cls-1" x="3.8" y="42.21" width="0.23" height="15.58"/><rect class="cls-1" x="4.02" y="42.21" width="0.23" height="15.58"/><rect class="cls-1" x="4.25" y="42.21" width="0.23" height="15.58"/><rect class="cls-1" x="4.48" y="42.21" width="0.23" height="15.58"/><rect class="cls-1" x="4.7" y="42.21" width="0.23" height="15.58"/><rect class="cls-1" x="4.93" y="42.21" width="0.23" height="15.58"/><rect class="cls-1" x="5.15" y="42.21" width="0.23" height="15.58"/><rect class="cls-1" x="5.38" y="42.21" width="0.23" height="15.58"/><rect class="cls-1" x="5.6" y="42.21" width="0.23" height="15.58"/><rect class="cls-1" x="5.83" y="42.21" width="0.23" height="15.58"/><rect class="cls-1" x="6.05" y="42.21" width="0.23" height="15.58"/><rect class="cls-1" x="6.28" y="42.21" width="0.23" height="15.58"/><rect class="cls-1" x="6.51" y="42.21" width="0.23" height="15.58"/><rect class="cls-1" x="6.73" y="42.21" width="0.23" height="15.58"/><rect class="cls-1" x="6.96" y="42.21" width="0.23" height="15.58"/><rect class="cls-1" x="7.18" y="42.21" width="0.23" height="15.58"/><rect class="cls-1" x="7.41" y="42.21" width="0.23" height="15.58"/><rect class="cls-1" x="7.63" y="42.21" width="0.23" height="15.58"/><rect class="cls-1" x="7.86" y="42.21" width="0.23" height="15.58"/><rect class="cls-1" x="8.08" y="42.21" width="0.23" height="15.58"/><rect class="cls-1" x="8.31" y="42.21" width="0.23" height="15.58"/><rect class="cls-1" x="8.53" y="42.21" width="0.23" height="15.58"/><rect class="cls-1" x="8.76" y="42.21" width="0.23" height="15.58"/><rect class="cls-1" x="8.99" y="42.21" width="0.23" height="15.58"/><rect class="cls-1" x="9.21" y="42.21" width="0.23" height="15.58"/><rect class="cls-1" x="9.44" y="42.21" width="0.23" height="15.58"/><rect class="cls-1" x="9.66" y="42.21" width="0.23" height="15.58"/><rect class="cls-1" x="9.89" y="42.21" width="0.23" height="15.58"/><rect class="cls-1" x="10.11" y="42.21" width="0.23" height="15.58"/><rect class="cls-1" x="10.34" y="42.21" width="0.23" height="15.58"/><rect class="cls-1" x="10.56" y="42.21" width="0.23" height="15.58"/><rect class="cls-1" x="10.79" y="42.21" width="0.23" height="15.58"/><rect class="cls-1" x="11.02" y="42.21" width="0.23" height="15.58"/><rect class="cls-1" x="11.24" y="42.21" width="0.23" height="15.58"/><rect class="cls-1" x="11.47" y="42.21" width="0.23" height="15.58"/><rect class="cls-1" x="11.69" y="42.21" width="0.23" height="15.58"/><rect class="cls-1" x="11.92" y="42.21" width="0.23" height="15.58"/><rect class="cls-1" x="12.14" y="42.21" width="0.23" height="15.58"/><rect class="cls-1" x="12.37" y="42.21" width="0.23" height="15.58"/><rect class="cls-1" x="12.59" y="42.21" width="0.23" height="15.58"/><rect class="cls-1" x="12.82" y="42.21" width="0.23" height="15.58"/><rect class="cls-1" x="13.05" y="42.21" width="0.23" height="15.58"/><rect class="cls-1" x="13.27" y="42.21" width="0.23" height="15.58"/><rect class="cls-1" x="13.5" y="42.21" width="0.23" height="15.58"/><rect class="cls-1" x="13.72" y="42.21" width="0.23" height="15.58"/><rect class="cls-1" x="13.95" y="42.21" width="0.23" height="15.58"/><rect class="cls-1" x="14.17" y="42.21" width="0.23" height="15.58"/><rect class="cls-1" x="14.4" y="42.21" width="0.23" height="15.58"/><rect class="cls-1" x="14.62" y="42.21" width="0.23" height="15.58"/><rect class="cls-1" x="14.85" y="42.21" width="0.23" height="15.58"/><rect class="cls-1" x="15.07" y="42.21" width="0.23" height="15.58"/><rect class="cls-1" x="15.3" y="42.21" width="0.23" height="15.58"/><rect class="cls-1" x="15.53" y="42.21" width="0.23" height="15.58"/><rect class="cls-1" x="15.75" y="42.21" width="0.23" height="15.58"/><rect class="cls-1" x="15.98" y="42.21" width="0.23" height="15.58"/><rect class="cls-1" x="16.2" y="42.21" width="0.23" height="15.58"/><rect class="cls-1" x="16.43" y="42.21" width="0.23" height="15.58"/><rect class="cls-1" x="16.65" y="42.21" width="0.23" height="15.58"/><rect class="cls-1" x="16.88" y="42.21" width="0.23" height="15.58"/><rect class="cls-1" x="17.1" y="42.21" width="0.23" height="15.58"/><path class="cls-1" d="M67.33,107.79v0Z" transform="translate(-50 -50)"/></g><path class="cls-1" d="M59.54,109.54A9.54,9.54,0,1,1,69.08,100,9.55,9.55,0,0,1,59.54,109.54Zm0-15.58a6,6,0,1,0,6,6A6,6,0,0,0,59.54,94Z" transform="translate(-50 -50)"/></svg>