<svg id="Layer_1" data-name="Layer 1" xmlns="http://www.w3.org/2000/svg" viewBox="0 0 100 100"><defs><style>.cls-1{fill:#e51949;}</style></defs><title>Transport</title><rect class="cls-1" x="41.14" y="47.65" width="17.25" height="4.7"/><path class="cls-1" d="M102.59,107.73a2.35,2.35,0,0,1-1.66-4l3.71-3.72-3.71-3.72A2.35,2.35,0,0,1,104.25,93l7,7-7,7A2.34,2.34,0,0,1,102.59,107.73Z" transform="translate(-50 -50)"/><path class="cls-1" d="M87.88,114.1H68.5a4.42,4.42,0,0,1-4.41-4.41V90.31A4.42,4.42,0,0,1,68.5,85.9H87.88a4.42,4.42,0,0,1,4.41,4.41v19.38A4.42,4.42,0,0,1,87.88,114.1Zm-19.09-4.7H87.6V90.6H68.79Z" transform="translate(-50 -50)"/><path class="cls-1" d="M132.65,114.1H113.26a4.41,4.41,0,0,1-4.4-4.41V90.31a4.41,4.41,0,0,1,4.4-4.41h19.39a4.41,4.41,0,0,1,4.4,4.41v19.38A4.41,4.41,0,0,1,132.65,114.1Zm-19.1-4.7h18.81V90.6H113.55Z" transform="translate(-50 -50)"/><path class="cls-1" d="M100,150a50,50,0,1,1,50-50A50.06,50.06,0,0,1,100,150Zm0-95.3A45.3,45.3,0,1,0,145.3,100,45.35,45.35,0,0,0,100,54.7Z" transform="translate(-50 -50)"/></svg>