<svg id="Layer_1" data-name="Layer 1" xmlns="http://www.w3.org/2000/svg" viewBox="0 0 17.11 17.12"><defs><style>.cls-1{fill:#312782;}.cls-2{fill:#009ee2;}</style></defs><title>Treasury</title><path class="cls-1" d="M79.07,106a3.62,3.62,0,0,0-3.76-3.76c-3.2,0-6.39,0-9.59,0A3.62,3.62,0,0,0,62,106v9.58a3.63,3.63,0,0,0,3.76,3.76c3.2,0,6.39,0,9.59,0a3.62,3.62,0,0,0,3.76-3.76C79.08,112.41,79.08,109.21,79.07,106Zm-.52,9.48a3.11,3.11,0,0,1-3.37,3.34H65.73a3.1,3.1,0,0,1-3.25-3.26v-9.53a3.1,3.1,0,0,1,3.3-3.27c3.15,0,6.31,0,9.46,0a3.11,3.11,0,0,1,3.31,3.33Z" transform="translate(-61.96 -102.25)"/><path class="cls-2" d="M70.51,117.82l-4.11,0a2.88,2.88,0,0,1-2.88-2.86c0-2.86,0-5.64,0-8.29a2.83,2.83,0,0,1,2.78-2.82c1.12,0,2.7,0,4.19,0h4.41l.08.08v.24l-.08.08H66.65a2.52,2.52,0,0,0-2.74,2.73v7.73a2.52,2.52,0,0,0,2.73,2.74h7.79a2.52,2.52,0,0,0,2.69-2.66c0-1.34,0-4.06,0-4.06l.07-.07h.23l.07.08s0,3,0,4.26a2.87,2.87,0,0,1-2.89,2.85Z" transform="translate(-61.96 -102.25)"/><path class="cls-2" d="M77.43,114.94a2.8,2.8,0,0,1-2.81,2.79q-4.11,0-8.22,0a2.78,2.78,0,0,1-2.8-2.79q0-4.16,0-8.29a2.76,2.76,0,0,1,2.71-2.75c2.76,0,8.28,0,8.28,0h.32v.24H66.65a2.61,2.61,0,0,0-2.81,2.81c0,2.58,0,5.15,0,7.73a2.6,2.6,0,0,0,2.8,2.82h7.79a2.6,2.6,0,0,0,2.76-2.74c0-1.34,0-4.06,0-4.06h.23S77.46,113.63,77.43,114.94Z" transform="translate(-61.96 -102.25)"/><path class="cls-1" d="M67.34,109.26c-1.5,0-1.53,0-1.53-1.54s0-1.61,1.63-1.61,1.53,0,1.53,1.54S68.94,109.26,67.34,109.26Zm.6-.37c.31,0,.48,0,.56-.09s.1-.34.09-.78v-.68c0-.43,0-.67-.09-.76s-.25-.1-.58-.1H66.84c-.32,0-.48,0-.56.1s-.09.33-.09.77V108c0,.44,0,.68.09.78s.25.09.56.09h1.1Z" transform="translate(-61.96 -102.25)"/><path class="cls-1" d="M67.44,106.18c-1.55,0-1.55,0-1.55,1.54s0,1.47,1.45,1.47,1.56,0,1.56-1.54S68.9,106.18,67.44,106.18Zm0,2.78c-1.43,0-1.28.13-1.28-1.31s-.12-1.24,1.23-1.24h.06c1.39,0,1.25-.12,1.25,1.28S68.79,109,67.4,109Z" transform="translate(-61.96 -102.25)"/><path class="cls-1" d="M73.59,109.26c-1.5,0-1.53,0-1.53-1.53s0-1.62,1.63-1.62,1.53,0,1.53,1.54S75.19,109.26,73.59,109.26Zm-.53-2.78c-.29,0-.45,0-.53.09s-.1.35-.09.79V108c0,.42,0,.66.09.76s.25.09.57.09h1.09c.31,0,.48,0,.56-.09s.09-.34.09-.79v-.65c0-.44,0-.69-.09-.78s-.24-.1-.54-.1H73.06Z" transform="translate(-61.96 -102.25)"/><path class="cls-1" d="M73.69,106.18c-1.56,0-1.56,0-1.56,1.54s0,1.47,1.46,1.47,1.55,0,1.55-1.54S75.14,106.18,73.69,106.18ZM73.61,109c-1.39,0-1.24.11-1.24-1.29s-.12-1.25,1.27-1.25,1.27-.14,1.27,1.26S75.05,109,73.61,109Z" transform="translate(-61.96 -102.25)"/><path class="cls-1" d="M67.34,115.51c-1.5,0-1.53,0-1.53-1.54s0-1.61,1.63-1.61,1.53,0,1.53,1.54S68.94,115.51,67.34,115.51Zm-.5-2.78c-.31,0-.48,0-.56.09s-.09.34-.09.78v.66c0,.44,0,.69.09.78s.25.1.56.1h1.1c.31,0,.48,0,.56-.1s.1-.33.09-.77v-.68c0-.43,0-.67-.09-.77s-.25-.09-.56-.09h-1.1Z" transform="translate(-61.96 -102.25)"/><path class="cls-1" d="M67.44,112.43c-1.55,0-1.55,0-1.55,1.54s0,1.47,1.45,1.47,1.56,0,1.56-1.54S68.9,112.43,67.44,112.43Zm-.07,2.78c-1.36,0-1.25.12-1.25-1.23s-.15-1.31,1.32-1.32,1.22-.11,1.22,1.25S68.8,115.2,67.37,115.21Z" transform="translate(-61.96 -102.25)"/><path class="cls-1" d="M73.61,115.51c-1.52,0-1.55,0-1.55-1.52s0-1.63,1.61-1.63,1.55,0,1.55,1.52S75.19,115.51,73.61,115.51Zm.58-.37c.31,0,.48,0,.56-.1s.09-.33.09-.77v-.67c0-.44,0-.68-.09-.78s-.25-.09-.57-.09H73.1c-.33,0-.5,0-.57.1s-.1.33-.09.76v.68c0,.44,0,.68.09.77s.25.1.56.1h1.1Z" transform="translate(-61.96 -102.25)"/><path class="cls-1" d="M73.67,112.43c-1.54,0-1.54,0-1.54,1.56s0,1.45,1.48,1.45,1.53,0,1.53-1.56S75.14,112.43,73.67,112.43Zm0,2.78c-1.47,0-1.31.14-1.31-1.33,0-1.32-.12-1.22,1.19-1.22h.06c1.43,0,1.29-.14,1.29,1.3S75,115.21,73.68,115.21Z" transform="translate(-61.96 -102.25)"/></svg>