<svg id="Layer_1" data-name="Layer 1" xmlns="http://www.w3.org/2000/svg" xmlns:xlink="http://www.w3.org/1999/xlink" viewBox="0 0 100 99.71"><defs><style>.cls-1{fill:#1d70b7;}.cls-2{clip-path:url(#clip-path);}</style><clipPath id="clip-path" transform="translate(-50 -50.15)"><path id="SVGID" class="cls-1" d="M122.67,127.09v.61c-.39.23-.77.51-1.18.7-1.36.65-2.72,1.31-4.1,1.9a1.11,1.11,0,0,0-.77,1.21c0,3.18,0,6.37,0,9.56a1.41,1.41,0,0,1-.92,1.48c-1.23.55-2.44,1.13-3.64,1.7l-11.78,5.6h-.6a3.7,3.7,0,0,0-.33-.21c-5-2.34-9.92-4.7-14.91-7a1.66,1.66,0,0,1-1.1-1.78c0-3.12,0-6.24,0-9.36a1.11,1.11,0,0,0-.78-1.2c-1.32-.56-2.62-1.2-3.92-1.81-1.69-.78-1.77-1.14-.58-2.54,1.66-2,3.31-4,5-5.94-1.81-2.15-3.56-4.22-5.3-6.31-.74-.89-.62-1.36.42-1.85,4.94-2.32,9.89-4.62,14.81-7a1.43,1.43,0,0,1,2,.47c1.59,2,3.25,3.9,4.92,5.9,1.7-2,3.36-4,5-5.95a1.37,1.37,0,0,1,2-.43c4.89,2.35,9.8,4.64,14.7,7a6.21,6.21,0,0,1,1,.76v.8l-5.78,6.69Zm-9.2-7c-.36-.19-.61-.35-.88-.47-3.91-1.83-7.83-3.65-11.72-5.5a1.76,1.76,0,0,0-1.68,0c-4,1.89-7.93,3.74-11.9,5.6a8,8,0,0,0-.7.42c4.41,2,8.69,4,13,6a1.11,1.11,0,0,0,.84,0C104.73,124.18,109,122.18,113.47,120.14ZM101,147.38l1.06-.47c3.76-1.75,7.5-3.56,11.3-5.23a2,2,0,0,0,1.48-2.29c-.12-2.53,0-5.06,0-7.74l-1,.44c-2.31,1.08-4.63,2.14-6.92,3.24a1.27,1.27,0,0,1-1.75-.39c-1.08-1.33-2.19-2.63-3.29-3.94-.22-.26-.46-.51-.81-.89Zm-2,0V130.09c-1.41,1.7-2.73,3.21-4,4.79a1.29,1.29,0,0,1-1.9.4c-.7-.39-1.45-.69-2.18-1l-5.63-2.61c0,.41-.06.67-.06.92,0,2.52,0,5,0,7.56a1.19,1.19,0,0,0,.85,1.26c2.26,1,4.5,2.08,6.75,3.13ZM79.79,127l14,6.52,4.82-5.78-14-6.52Zm40.44,0-4.83-5.78-13.89,6.52,4.83,5.78ZM79.79,113.12c1.57,1.88,3,3.66,4.55,5.4a1.06,1.06,0,0,0,.93.06c1.44-.63,2.85-1.32,4.27-2l9-4.22c-1.55-1.87-3-3.67-4.56-5.44a.84.84,0,0,0-.76-.08C88.75,108.9,84.34,111,79.79,113.12Zm40.44,0-13.89-6.52-4.74,5.67c0,.06.05.1.07.12q6.67,3.17,13.35,6.3a.72.72,0,0,0,.66-.14C117.18,116.79,118.65,115,120.23,113.12Z"/></clipPath></defs><title>Vendors</title><path class="cls-1" d="M52.94,120.56V110.32a11,11,0,0,1,11-11H85a22.81,22.81,0,0,1,2.43-3H64a14,14,0,0,0-14,14v6.44A23.09,23.09,0,0,1,52.94,120.56Z" transform="translate(-50 -50.15)"/><path class="cls-1" d="M136,99.31a11,11,0,0,1,11,11v23.14A23.8,23.8,0,0,1,150,139V110.32a14,14,0,0,0-14-14H112.65a23.49,23.49,0,0,1,2.29,3Z" transform="translate(-50 -50.15)"/><path class="cls-1" d="M100,89.31a19.58,19.58,0,1,1,19.59-19.58A19.61,19.61,0,0,1,100,89.31Zm0-34.23a14.65,14.65,0,1,0,14.65,14.65A14.66,14.66,0,0,0,100,55.08Z" transform="translate(-50 -50.15)"/><path id="SVGID-2" data-name="SVGID" class="cls-1" d="M122.67,127.09v.61c-.39.23-.77.51-1.18.7-1.36.65-2.72,1.31-4.1,1.9a1.11,1.11,0,0,0-.77,1.21c0,3.18,0,6.37,0,9.56a1.41,1.41,0,0,1-.92,1.48c-1.23.55-2.44,1.13-3.64,1.7l-11.78,5.6h-.6a3.7,3.7,0,0,0-.33-.21c-5-2.34-9.92-4.7-14.91-7a1.66,1.66,0,0,1-1.1-1.78c0-3.12,0-6.24,0-9.36a1.11,1.11,0,0,0-.78-1.2c-1.32-.56-2.62-1.2-3.92-1.81-1.69-.78-1.77-1.14-.58-2.54,1.66-2,3.31-4,5-5.94-1.81-2.15-3.56-4.22-5.3-6.31-.74-.89-.62-1.36.42-1.85,4.94-2.32,9.89-4.62,14.81-7a1.43,1.43,0,0,1,2,.47c1.59,2,3.25,3.9,4.92,5.9,1.7-2,3.36-4,5-5.95a1.37,1.37,0,0,1,2-.43c4.89,2.35,9.8,4.64,14.7,7a6.21,6.21,0,0,1,1,.76v.8l-5.78,6.69Zm-9.2-7c-.36-.19-.61-.35-.88-.47-3.91-1.83-7.83-3.65-11.72-5.5a1.76,1.76,0,0,0-1.68,0c-4,1.89-7.93,3.74-11.9,5.6a8,8,0,0,0-.7.42c4.41,2,8.69,4,13,6a1.11,1.11,0,0,0,.84,0C104.73,124.18,109,122.18,113.47,120.14ZM101,147.38l1.06-.47c3.76-1.75,7.5-3.56,11.3-5.23a2,2,0,0,0,1.48-2.29c-.12-2.53,0-5.06,0-7.74l-1,.44c-2.31,1.08-4.63,2.14-6.92,3.24a1.27,1.27,0,0,1-1.75-.39c-1.08-1.33-2.19-2.63-3.29-3.94-.22-.26-.46-.51-.81-.89Zm-2,0V130.09c-1.41,1.7-2.73,3.21-4,4.79a1.29,1.29,0,0,1-1.9.4c-.7-.39-1.45-.69-2.18-1l-5.63-2.61c0,.41-.06.67-.06.92,0,2.52,0,5,0,7.56a1.19,1.19,0,0,0,.85,1.26c2.26,1,4.5,2.08,6.75,3.13ZM79.79,127l14,6.52,4.82-5.78-14-6.52Zm40.44,0-4.83-5.78-13.89,6.52,4.83,5.78ZM79.79,113.12c1.57,1.88,3,3.66,4.55,5.4a1.06,1.06,0,0,0,.93.06c1.44-.63,2.85-1.32,4.27-2l9-4.22c-1.55-1.87-3-3.67-4.56-5.44a.84.84,0,0,0-.76-.08C88.75,108.9,84.34,111,79.79,113.12Zm40.44,0-13.89-6.52-4.74,5.67c0,.06.05.1.07.12q6.67,3.17,13.35,6.3a.72.72,0,0,0,.66-.14C117.18,116.79,118.65,115,120.23,113.12Z" transform="translate(-50 -50.15)"/><g class="cls-2"><rect class="cls-1" x="51.6" y="56.45" width="0.2" height="12.18"/><rect class="cls-1" x="51.8" y="56.45" width="0.35" height="12.18"/><rect class="cls-1" x="52.15" y="56.45" width="0.35" height="12.18"/><rect class="cls-1" x="52.5" y="56.45" width="0.35" height="12.18"/><rect class="cls-1" x="52.86" y="56.45" width="0.35" height="12.18"/><rect class="cls-1" x="53.21" y="56.45" width="0.35" height="12.18"/><rect class="cls-1" x="53.57" y="56.45" width="0.35" height="12.18"/><rect class="cls-1" x="53.92" y="56.45" width="0.35" height="12.18"/><rect class="cls-1" x="54.27" y="56.45" width="0.35" height="12.18"/><rect class="cls-1" x="54.63" y="56.45" width="0.35" height="12.18"/><rect class="cls-1" x="54.98" y="56.45" width="0.35" height="12.18"/><rect class="cls-1" x="55.34" y="56.45" width="0.35" height="12.18"/><rect class="cls-1" x="55.69" y="56.45" width="0.35" height="12.18"/><rect class="cls-1" x="56.04" y="56.45" width="0.35" height="12.18"/><rect class="cls-1" x="56.4" y="56.45" width="0.35" height="12.18"/><rect class="cls-1" x="56.75" y="56.45" width="0.35" height="12.18"/><rect class="cls-1" x="57.1" y="56.45" width="0.35" height="12.18"/><rect class="cls-1" x="57.46" y="56.45" width="0.35" height="12.18"/><rect class="cls-1" x="57.81" y="56.45" width="0.35" height="12.18"/><rect class="cls-1" x="58.17" y="56.45" width="0.35" height="12.18"/><rect class="cls-1" x="58.52" y="56.45" width="0.35" height="12.18"/><rect class="cls-1" x="58.87" y="56.45" width="0.35" height="12.18"/><rect class="cls-1" x="59.23" y="56.45" width="0.35" height="12.18"/><rect class="cls-1" x="59.58" y="56.45" width="0.35" height="12.18"/><rect class="cls-1" x="59.94" y="56.45" width="0.35" height="12.18"/><rect class="cls-1" x="60.29" y="56.45" width="0.35" height="12.18"/><rect class="cls-1" x="60.64" y="56.45" width="0.35" height="12.18"/><rect class="cls-1" x="61" y="56.45" width="0.35" height="12.18"/><rect class="cls-1" x="61.35" y="56.45" width="0.35" height="12.18"/><rect class="cls-1" x="61.7" y="56.45" width="0.35" height="12.18"/><rect class="cls-1" x="62.06" y="56.45" width="0.35" height="12.18"/><rect class="cls-1" x="62.41" y="56.45" width="0.35" height="12.18"/><rect class="cls-1" x="62.77" y="56.45" width="0.35" height="12.18"/><rect class="cls-1" x="63.12" y="56.45" width="0.35" height="12.18"/><rect class="cls-1" x="63.47" y="56.45" width="0.35" height="12.18"/><rect class="cls-1" x="63.83" y="56.45" width="0.35" height="12.18"/><rect class="cls-1" x="64.18" y="56.45" width="0.35" height="12.18"/><rect class="cls-1" x="64.54" y="56.45" width="0.35" height="12.18"/><rect class="cls-1" x="64.89" y="56.45" width="0.35" height="12.18"/><rect class="cls-1" x="65.24" y="56.45" width="0.35" height="12.18"/><rect class="cls-1" x="65.6" y="56.45" width="0.35" height="12.18"/><rect class="cls-1" x="65.95" y="56.45" width="0.35" height="12.18"/><rect class="cls-1" x="66.3" y="56.45" width="0.35" height="12.18"/><rect class="cls-1" x="66.66" y="56.45" width="0.35" height="12.18"/><rect class="cls-1" x="67.01" y="56.45" width="0.35" height="12.18"/><rect class="cls-1" x="67.37" y="56.45" width="0.35" height="12.18"/><rect class="cls-1" x="67.72" y="56.45" width="0.35" height="12.18"/><rect class="cls-1" x="68.07" y="56.45" width="0.35" height="12.18"/><rect class="cls-1" x="68.43" y="56.45" width="0.35" height="12.18"/><rect class="cls-1" x="68.78" y="56.45" width="0.35" height="12.18"/><rect class="cls-1" x="69.14" y="56.45" width="0.35" height="12.18"/><rect class="cls-1" x="69.49" y="56.45" width="0.35" height="12.18"/><rect class="cls-1" x="69.84" y="56.45" width="0.35" height="12.18"/><rect class="cls-1" x="70.2" y="56.45" width="0.03" height="12.18"/><rect class="cls-1" x="29.79" y="56.61" width="0.07" height="11.94"/><rect class="cls-1" x="29.86" y="56.61" width="0.35" height="11.94"/><rect class="cls-1" x="30.21" y="56.61" width="0.35" height="11.94"/><rect class="cls-1" x="30.57" y="56.61" width="0.35" height="11.94"/><rect class="cls-1" x="30.92" y="56.61" width="0.35" height="11.94"/><rect class="cls-1" x="31.28" y="56.61" width="0.35" height="11.94"/><rect class="cls-1" x="31.63" y="56.61" width="0.35" height="11.94"/><rect class="cls-1" x="31.98" y="56.61" width="0.35" height="11.94"/><rect class="cls-1" x="32.34" y="56.61" width="0.35" height="11.94"/><rect class="cls-1" x="32.69" y="56.61" width="0.35" height="11.94"/><rect class="cls-1" x="33.04" y="56.61" width="0.35" height="11.94"/><rect class="cls-1" x="33.4" y="56.61" width="0.35" height="11.94"/><rect class="cls-1" x="33.75" y="56.61" width="0.35" height="11.94"/><rect class="cls-1" x="34.11" y="56.61" width="0.35" height="11.94"/><rect class="cls-1" x="34.46" y="56.61" width="0.35" height="11.94"/><rect class="cls-1" x="34.81" y="56.61" width="0.35" height="11.94"/><rect class="cls-1" x="35.17" y="56.61" width="0.35" height="11.94"/><rect class="cls-1" x="35.52" y="56.61" width="0.35" height="11.94"/><rect class="cls-1" x="35.87" y="56.61" width="0.35" height="11.94"/><rect class="cls-1" x="36.23" y="56.61" width="0.35" height="11.94"/><rect class="cls-1" x="36.58" y="56.61" width="0.35" height="11.94"/><rect class="cls-1" x="36.94" y="56.61" width="0.35" height="11.94"/><rect class="cls-1" x="37.29" y="56.61" width="0.35" height="11.94"/><rect class="cls-1" x="37.64" y="56.61" width="0.35" height="11.94"/><rect class="cls-1" x="38" y="56.61" width="0.35" height="11.94"/><rect class="cls-1" x="38.35" y="56.61" width="0.35" height="11.94"/><rect class="cls-1" x="38.71" y="56.61" width="0.35" height="11.94"/><rect class="cls-1" x="39.06" y="56.61" width="0.35" height="11.94"/><rect class="cls-1" x="39.41" y="56.61" width="0.35" height="11.94"/><rect class="cls-1" x="39.77" y="56.61" width="0.35" height="11.94"/><rect class="cls-1" x="40.12" y="56.61" width="0.35" height="11.94"/><rect class="cls-1" x="40.47" y="56.61" width="0.35" height="11.94"/><rect class="cls-1" x="40.83" y="56.61" width="0.35" height="11.94"/><rect class="cls-1" x="41.18" y="56.61" width="0.35" height="11.94"/><rect class="cls-1" x="41.54" y="56.61" width="0.35" height="11.94"/><rect class="cls-1" x="41.89" y="56.61" width="0.35" height="11.94"/><rect class="cls-1" x="42.24" y="56.61" width="0.35" height="11.94"/><rect class="cls-1" x="42.6" y="56.61" width="0.35" height="11.94"/><rect class="cls-1" x="42.95" y="56.61" width="0.35" height="11.94"/><rect class="cls-1" x="43.31" y="56.61" width="0.35" height="11.94"/><rect class="cls-1" x="43.66" y="56.61" width="0.35" height="11.94"/><rect class="cls-1" x="44.01" y="56.61" width="0.35" height="11.94"/><rect class="cls-1" x="44.37" y="56.61" width="0.35" height="11.94"/><rect class="cls-1" x="44.72" y="56.61" width="0.35" height="11.94"/><rect class="cls-1" x="45.07" y="56.61" width="0.35" height="11.94"/><rect class="cls-1" x="45.43" y="56.61" width="0.35" height="11.94"/><rect class="cls-1" x="45.78" y="56.61" width="0.35" height="11.94"/><rect class="cls-1" x="46.14" y="56.61" width="0.35" height="11.94"/><rect class="cls-1" x="46.49" y="56.61" width="0.35" height="11.94"/><rect class="cls-1" x="46.84" y="56.61" width="0.35" height="11.94"/><rect class="cls-1" x="47.2" y="56.61" width="0.35" height="11.94"/><rect class="cls-1" x="47.55" y="56.61" width="0.35" height="11.94"/><rect class="cls-1" x="47.91" y="56.61" width="0.35" height="11.94"/><rect class="cls-1" x="48.26" y="56.61" width="0.25" height="11.94"/><rect class="cls-1" x="51.51" y="71.09" width="0.29" height="12.29"/><rect class="cls-1" x="51.8" y="71.09" width="0.35" height="12.29"/><rect class="cls-1" x="52.15" y="71.09" width="0.35" height="12.29"/><rect class="cls-1" x="52.5" y="71.09" width="0.35" height="12.29"/><rect class="cls-1" x="52.86" y="71.09" width="0.35" height="12.29"/><rect class="cls-1" x="53.21" y="71.09" width="0.35" height="12.29"/><rect class="cls-1" x="53.57" y="71.09" width="0.35" height="12.29"/><rect class="cls-1" x="53.92" y="71.09" width="0.35" height="12.29"/><rect class="cls-1" x="54.27" y="71.09" width="0.35" height="12.29"/><rect class="cls-1" x="54.63" y="71.09" width="0.35" height="12.29"/><rect class="cls-1" x="54.98" y="71.09" width="0.35" height="12.29"/><rect class="cls-1" x="55.34" y="71.09" width="0.35" height="12.29"/><rect class="cls-1" x="55.69" y="71.09" width="0.35" height="12.29"/><rect class="cls-1" x="56.04" y="71.09" width="0.35" height="12.29"/><rect class="cls-1" x="56.4" y="71.09" width="0.35" height="12.29"/><rect class="cls-1" x="56.75" y="71.09" width="0.35" height="12.29"/><rect class="cls-1" x="57.1" y="71.09" width="0.35" height="12.29"/><rect class="cls-1" x="57.46" y="71.09" width="0.35" height="12.29"/><rect class="cls-1" x="57.81" y="71.09" width="0.35" height="12.29"/><rect class="cls-1" x="58.17" y="71.09" width="0.35" height="12.29"/><rect class="cls-1" x="58.52" y="71.09" width="0.35" height="12.29"/><rect class="cls-1" x="58.87" y="71.09" width="0.35" height="12.29"/><rect class="cls-1" x="59.23" y="71.09" width="0.35" height="12.29"/><rect class="cls-1" x="59.58" y="71.09" width="0.35" height="12.29"/><rect class="cls-1" x="59.94" y="71.09" width="0.35" height="12.29"/><rect class="cls-1" x="60.29" y="71.09" width="0.35" height="12.29"/><rect class="cls-1" x="60.64" y="71.09" width="0.35" height="12.29"/><rect class="cls-1" x="61" y="71.09" width="0.35" height="12.29"/><rect class="cls-1" x="61.35" y="71.09" width="0.35" height="12.29"/><rect class="cls-1" x="61.7" y="71.09" width="0.35" height="12.29"/><rect class="cls-1" x="62.06" y="71.09" width="0.35" height="12.29"/><rect class="cls-1" x="62.41" y="71.09" width="0.35" height="12.29"/><rect class="cls-1" x="62.77" y="71.09" width="0.35" height="12.29"/><rect class="cls-1" x="63.12" y="71.09" width="0.35" height="12.29"/><rect class="cls-1" x="63.47" y="71.09" width="0.35" height="12.29"/><rect class="cls-1" x="63.83" y="71.09" width="0.35" height="12.29"/><rect class="cls-1" x="64.18" y="71.09" width="0.35" height="12.29"/><rect class="cls-1" x="64.54" y="71.09" width="0.35" height="12.29"/><rect class="cls-1" x="64.89" y="71.09" width="0.35" height="12.29"/><rect class="cls-1" x="65.24" y="71.09" width="0.35" height="12.29"/><rect class="cls-1" x="65.6" y="71.09" width="0.35" height="12.29"/><rect class="cls-1" x="65.95" y="71.09" width="0.35" height="12.29"/><rect class="cls-1" x="66.3" y="71.09" width="0.35" height="12.29"/><rect class="cls-1" x="66.66" y="71.09" width="0.35" height="12.29"/><rect class="cls-1" x="67.01" y="71.09" width="0.35" height="12.29"/><rect class="cls-1" x="67.37" y="71.09" width="0.35" height="12.29"/><rect class="cls-1" x="67.72" y="71.09" width="0.35" height="12.29"/><rect class="cls-1" x="68.07" y="71.09" width="0.35" height="12.29"/><rect class="cls-1" x="68.43" y="71.09" width="0.35" height="12.29"/><rect class="cls-1" x="68.78" y="71.09" width="0.35" height="12.29"/><rect class="cls-1" x="69.14" y="71.09" width="0.35" height="12.29"/><rect class="cls-1" x="69.49" y="71.09" width="0.35" height="12.29"/><rect class="cls-1" x="69.84" y="71.09" width="0.35" height="12.29"/><rect class="cls-1" x="70.2" y="71.09" width="0.04" height="12.29"/><rect class="cls-1" x="29.79" y="71.09" width="0.07" height="12.3"/><rect class="cls-1" x="29.86" y="71.09" width="0.35" height="12.3"/><rect class="cls-1" x="30.21" y="71.09" width="0.35" height="12.3"/><rect class="cls-1" x="30.57" y="71.09" width="0.35" height="12.3"/><rect class="cls-1" x="30.92" y="71.09" width="0.35" height="12.3"/><rect class="cls-1" x="31.28" y="71.09" width="0.35" height="12.3"/><rect class="cls-1" x="31.63" y="71.09" width="0.35" height="12.3"/><rect class="cls-1" x="31.98" y="71.09" width="0.35" height="12.3"/><rect class="cls-1" x="32.34" y="71.09" width="0.35" height="12.3"/><rect class="cls-1" x="32.69" y="71.09" width="0.35" height="12.3"/><rect class="cls-1" x="33.04" y="71.09" width="0.35" height="12.3"/><rect class="cls-1" x="33.4" y="71.09" width="0.35" height="12.3"/><rect class="cls-1" x="33.75" y="71.09" width="0.35" height="12.3"/><rect class="cls-1" x="34.11" y="71.09" width="0.35" height="12.3"/><rect class="cls-1" x="34.46" y="71.09" width="0.35" height="12.3"/><rect class="cls-1" x="34.81" y="71.09" width="0.35" height="12.3"/><rect class="cls-1" x="35.17" y="71.09" width="0.35" height="12.3"/><rect class="cls-1" x="35.52" y="71.09" width="0.35" height="12.3"/><rect class="cls-1" x="35.87" y="71.09" width="0.35" height="12.3"/><rect class="cls-1" x="36.23" y="71.09" width="0.35" height="12.3"/><rect class="cls-1" x="36.58" y="71.09" width="0.35" height="12.3"/><rect class="cls-1" x="36.94" y="71.09" width="0.35" height="12.3"/><rect class="cls-1" x="37.29" y="71.09" width="0.35" height="12.3"/><rect class="cls-1" x="37.64" y="71.09" width="0.35" height="12.3"/><rect class="cls-1" x="38" y="71.09" width="0.35" height="12.3"/><rect class="cls-1" x="38.35" y="71.09" width="0.35" height="12.3"/><rect class="cls-1" x="38.71" y="71.09" width="0.35" height="12.3"/><rect class="cls-1" x="39.06" y="71.09" width="0.35" height="12.3"/><rect class="cls-1" x="39.41" y="71.09" width="0.35" height="12.3"/><rect class="cls-1" x="39.77" y="71.09" width="0.35" height="12.3"/><rect class="cls-1" x="40.12" y="71.09" width="0.35" height="12.3"/><rect class="cls-1" x="40.47" y="71.09" width="0.35" height="12.3"/><rect class="cls-1" x="40.83" y="71.09" width="0.35" height="12.3"/><rect class="cls-1" x="41.18" y="71.09" width="0.35" height="12.3"/><rect class="cls-1" x="41.54" y="71.09" width="0.35" height="12.3"/><rect class="cls-1" x="41.89" y="71.09" width="0.35" height="12.3"/><rect class="cls-1" x="42.24" y="71.09" width="0.35" height="12.3"/><rect class="cls-1" x="42.6" y="71.09" width="0.35" height="12.3"/><rect class="cls-1" x="42.95" y="71.09" width="0.35" height="12.3"/><rect class="cls-1" x="43.31" y="71.09" width="0.35" height="12.3"/><rect class="cls-1" x="43.66" y="71.09" width="0.35" height="12.3"/><rect class="cls-1" x="44.01" y="71.09" width="0.35" height="12.3"/><rect class="cls-1" x="44.37" y="71.09" width="0.35" height="12.3"/><rect class="cls-1" x="44.72" y="71.09" width="0.35" height="12.3"/><rect class="cls-1" x="45.07" y="71.09" width="0.35" height="12.3"/><rect class="cls-1" x="45.43" y="71.09" width="0.35" height="12.3"/><rect class="cls-1" x="45.78" y="71.09" width="0.35" height="12.3"/><rect class="cls-1" x="46.14" y="71.09" width="0.35" height="12.3"/><rect class="cls-1" x="46.49" y="71.09" width="0.35" height="12.3"/><rect class="cls-1" x="46.84" y="71.09" width="0.35" height="12.3"/><rect class="cls-1" x="47.2" y="71.09" width="0.35" height="12.3"/><rect class="cls-1" x="47.55" y="71.09" width="0.35" height="12.3"/><rect class="cls-1" x="47.91" y="71.09" width="0.35" height="12.3"/><rect class="cls-1" x="48.26" y="71.09" width="0.34" height="12.3"/><rect class="cls-1" x="35.22" y="79.95" width="0.3" height="17.28"/><rect class="cls-1" x="35.52" y="79.95" width="0.35" height="17.28"/><rect class="cls-1" x="35.87" y="79.95" width="0.35" height="17.28"/><rect class="cls-1" x="36.23" y="79.95" width="0.35" height="17.28"/><rect class="cls-1" x="36.58" y="79.95" width="0.35" height="17.28"/><rect class="cls-1" x="36.94" y="79.95" width="0.35" height="17.28"/><rect class="cls-1" x="37.29" y="79.95" width="0.35" height="17.28"/><rect class="cls-1" x="37.64" y="79.95" width="0.35" height="17.28"/><rect class="cls-1" x="38" y="79.95" width="0.35" height="17.28"/><rect class="cls-1" x="38.35" y="79.95" width="0.35" height="17.28"/><rect class="cls-1" x="38.71" y="79.95" width="0.35" height="17.28"/><rect class="cls-1" x="39.06" y="79.95" width="0.35" height="17.28"/><rect class="cls-1" x="39.41" y="79.95" width="0.35" height="17.28"/><rect class="cls-1" x="39.77" y="79.95" width="0.35" height="17.28"/><rect class="cls-1" x="40.12" y="79.95" width="0.35" height="17.28"/><rect class="cls-1" x="40.47" y="79.95" width="0.35" height="17.28"/><rect class="cls-1" x="40.83" y="79.95" width="0.35" height="17.28"/><rect class="cls-1" x="41.18" y="79.95" width="0.35" height="17.28"/><rect class="cls-1" x="41.54" y="79.95" width="0.35" height="17.28"/><rect class="cls-1" x="41.89" y="79.95" width="0.35" height="17.28"/><rect class="cls-1" x="42.24" y="79.95" width="0.35" height="17.28"/><rect class="cls-1" x="42.6" y="79.95" width="0.35" height="17.28"/><rect class="cls-1" x="42.95" y="79.95" width="0.35" height="17.28"/><rect class="cls-1" x="43.31" y="79.95" width="0.35" height="17.28"/><rect class="cls-1" x="43.66" y="79.95" width="0.35" height="17.28"/><rect class="cls-1" x="44.01" y="79.95" width="0.35" height="17.28"/><rect class="cls-1" x="44.37" y="79.95" width="0.35" height="17.28"/><rect class="cls-1" x="44.72" y="79.95" width="0.35" height="17.28"/><rect class="cls-1" x="45.07" y="79.95" width="0.35" height="17.28"/><rect class="cls-1" x="45.43" y="79.95" width="0.35" height="17.28"/><rect class="cls-1" x="45.78" y="79.95" width="0.35" height="17.28"/><rect class="cls-1" x="46.14" y="79.95" width="0.35" height="17.28"/><rect class="cls-1" x="46.49" y="79.95" width="0.35" height="17.28"/><rect class="cls-1" x="46.84" y="79.95" width="0.35" height="17.28"/><rect class="cls-1" x="47.2" y="79.95" width="0.35" height="17.28"/><rect class="cls-1" x="47.55" y="79.95" width="0.35" height="17.28"/><rect class="cls-1" x="47.91" y="79.95" width="0.35" height="17.28"/><rect class="cls-1" x="48.26" y="79.95" width="0.35" height="17.28"/><rect class="cls-1" x="48.61" y="79.95" width="0.35" height="17.28"/><rect class="cls-1" x="48.97" y="79.95" width="0.04" height="17.28"/><rect class="cls-1" x="50.97" y="79.96" width="0.12" height="17.27"/><rect class="cls-1" x="51.09" y="79.96" width="0.35" height="17.27"/><rect class="cls-1" x="51.44" y="79.96" width="0.35" height="17.27"/><rect class="cls-1" x="51.8" y="79.96" width="0.35" height="17.27"/><rect class="cls-1" x="52.15" y="79.96" width="0.35" height="17.27"/><rect class="cls-1" x="52.5" y="79.96" width="0.35" height="17.27"/><rect class="cls-1" x="52.86" y="79.96" width="0.35" height="17.27"/><rect class="cls-1" x="53.21" y="79.96" width="0.35" height="17.27"/><rect class="cls-1" x="53.57" y="79.96" width="0.35" height="17.27"/><rect class="cls-1" x="53.92" y="79.96" width="0.35" height="17.27"/><rect class="cls-1" x="54.27" y="79.96" width="0.35" height="17.27"/><rect class="cls-1" x="54.63" y="79.96" width="0.35" height="17.27"/><rect class="cls-1" x="54.98" y="79.96" width="0.35" height="17.27"/><rect class="cls-1" x="55.34" y="79.96" width="0.35" height="17.27"/><rect class="cls-1" x="55.69" y="79.96" width="0.35" height="17.27"/><rect class="cls-1" x="56.04" y="79.96" width="0.35" height="17.27"/><rect class="cls-1" x="56.4" y="79.96" width="0.35" height="17.27"/><rect class="cls-1" x="56.75" y="79.96" width="0.35" height="17.27"/><rect class="cls-1" x="57.1" y="79.96" width="0.35" height="17.27"/><rect class="cls-1" x="57.46" y="79.96" width="0.35" height="17.27"/><rect class="cls-1" x="57.81" y="79.96" width="0.35" height="17.27"/><rect class="cls-1" x="58.17" y="79.96" width="0.35" height="17.27"/><rect class="cls-1" x="58.52" y="79.96" width="0.35" height="17.27"/><rect class="cls-1" x="58.87" y="79.96" width="0.35" height="17.27"/><rect class="cls-1" x="59.23" y="79.96" width="0.35" height="17.27"/><rect class="cls-1" x="59.58" y="79.96" width="0.35" height="17.27"/><rect class="cls-1" x="59.94" y="79.96" width="0.35" height="17.27"/><rect class="cls-1" x="60.29" y="79.96" width="0.35" height="17.27"/><rect class="cls-1" x="60.64" y="79.96" width="0.35" height="17.27"/><rect class="cls-1" x="61" y="79.96" width="0.35" height="17.27"/><rect class="cls-1" x="61.35" y="79.96" width="0.35" height="17.27"/><rect class="cls-1" x="61.7" y="79.96" width="0.35" height="17.27"/><rect class="cls-1" x="62.06" y="79.96" width="0.35" height="17.27"/><rect class="cls-1" x="62.41" y="79.96" width="0.35" height="17.27"/><rect class="cls-1" x="62.77" y="79.96" width="0.35" height="17.27"/><rect class="cls-1" x="63.12" y="79.96" width="0.35" height="17.27"/><rect class="cls-1" x="63.47" y="79.96" width="0.35" height="17.27"/><rect class="cls-1" x="63.83" y="79.96" width="0.35" height="17.27"/><rect class="cls-1" x="64.18" y="79.96" width="0.35" height="17.27"/><rect class="cls-1" x="64.54" y="79.96" width="0.33" height="17.27"/><rect class="cls-1" x="36.59" y="63.71" width="0.35" height="12.4"/><rect class="cls-1" x="36.94" y="63.71" width="0.35" height="12.4"/><rect class="cls-1" x="37.29" y="63.71" width="0.35" height="12.4"/><rect class="cls-1" x="37.64" y="63.71" width="0.35" height="12.4"/><rect class="cls-1" x="38" y="63.71" width="0.35" height="12.4"/><rect class="cls-1" x="38.35" y="63.71" width="0.35" height="12.4"/><rect class="cls-1" x="38.71" y="63.71" width="0.35" height="12.4"/><rect class="cls-1" x="39.06" y="63.71" width="0.35" height="12.4"/><rect class="cls-1" x="39.41" y="63.71" width="0.35" height="12.4"/><rect class="cls-1" x="39.77" y="63.71" width="0.35" height="12.4"/><rect class="cls-1" x="40.12" y="63.71" width="0.35" height="12.4"/><rect class="cls-1" x="40.47" y="63.71" width="0.35" height="12.4"/><rect class="cls-1" x="40.83" y="63.71" width="0.35" height="12.4"/><rect class="cls-1" x="41.18" y="63.71" width="0.35" height="12.4"/><rect class="cls-1" x="41.54" y="63.71" width="0.35" height="12.4"/><rect class="cls-1" x="41.89" y="63.71" width="0.35" height="12.4"/><rect class="cls-1" x="42.24" y="63.71" width="0.35" height="12.4"/><rect class="cls-1" x="42.6" y="63.71" width="0.35" height="12.4"/><rect class="cls-1" x="42.95" y="63.71" width="0.35" height="12.4"/><rect class="cls-1" x="43.31" y="63.71" width="0.35" height="12.4"/><rect class="cls-1" x="43.66" y="63.71" width="0.35" height="12.4"/><rect class="cls-1" x="44.01" y="63.71" width="0.35" height="12.4"/><rect class="cls-1" x="44.37" y="63.71" width="0.35" height="12.4"/><rect class="cls-1" x="44.72" y="63.71" width="0.35" height="12.4"/><rect class="cls-1" x="45.07" y="63.71" width="0.35" height="12.4"/><rect class="cls-1" x="45.43" y="63.71" width="0.35" height="12.4"/><rect class="cls-1" x="45.78" y="63.71" width="0.35" height="12.4"/><rect class="cls-1" x="46.14" y="63.71" width="0.35" height="12.4"/><rect class="cls-1" x="46.49" y="63.71" width="0.35" height="12.4"/><rect class="cls-1" x="46.84" y="63.71" width="0.35" height="12.4"/><rect class="cls-1" x="47.2" y="63.71" width="0.35" height="12.4"/><rect class="cls-1" x="47.55" y="63.71" width="0.35" height="12.4"/><rect class="cls-1" x="47.91" y="63.71" width="0.35" height="12.4"/><rect class="cls-1" x="48.26" y="63.71" width="0.35" height="12.4"/><rect class="cls-1" x="48.61" y="63.71" width="0.35" height="12.4"/><rect class="cls-1" x="48.97" y="63.71" width="0.35" height="12.4"/><rect class="cls-1" x="49.32" y="63.71" width="0.35" height="12.4"/><rect class="cls-1" x="49.67" y="63.71" width="0.35" height="12.4"/><rect class="cls-1" x="50.03" y="63.71" width="0.35" height="12.4"/><rect class="cls-1" x="50.38" y="63.71" width="0.35" height="12.4"/><rect class="cls-1" x="50.74" y="63.71" width="0.35" height="12.4"/><rect class="cls-1" x="51.09" y="63.71" width="0.35" height="12.4"/><rect class="cls-1" x="51.44" y="63.71" width="0.35" height="12.4"/><rect class="cls-1" x="51.8" y="63.71" width="0.35" height="12.4"/><rect class="cls-1" x="52.15" y="63.71" width="0.35" height="12.4"/><rect class="cls-1" x="52.5" y="63.71" width="0.35" height="12.4"/><rect class="cls-1" x="52.86" y="63.71" width="0.35" height="12.4"/><rect class="cls-1" x="53.21" y="63.71" width="0.35" height="12.4"/><rect class="cls-1" x="53.57" y="63.71" width="0.35" height="12.4"/><rect class="cls-1" x="53.92" y="63.71" width="0.35" height="12.4"/><rect class="cls-1" x="54.27" y="63.71" width="0.35" height="12.4"/><rect class="cls-1" x="54.63" y="63.71" width="0.35" height="12.4"/><rect class="cls-1" x="54.98" y="63.71" width="0.35" height="12.4"/><rect class="cls-1" x="55.34" y="63.71" width="0.35" height="12.4"/><rect class="cls-1" x="55.69" y="63.71" width="0.35" height="12.4"/><rect class="cls-1" x="56.04" y="63.71" width="0.35" height="12.4"/><rect class="cls-1" x="56.4" y="63.71" width="0.35" height="12.4"/><rect class="cls-1" x="56.75" y="63.71" width="0.35" height="12.4"/><rect class="cls-1" x="57.1" y="63.71" width="0.35" height="12.4"/><rect class="cls-1" x="57.46" y="63.71" width="0.35" height="12.4"/><rect class="cls-1" x="57.81" y="63.71" width="0.35" height="12.4"/><rect class="cls-1" x="58.17" y="63.71" width="0.35" height="12.4"/><rect class="cls-1" x="58.52" y="63.71" width="0.35" height="12.4"/><rect class="cls-1" x="58.87" y="63.71" width="0.35" height="12.4"/><rect class="cls-1" x="59.23" y="63.71" width="0.35" height="12.4"/><rect class="cls-1" x="59.58" y="63.71" width="0.35" height="12.4"/><rect class="cls-1" x="59.94" y="63.71" width="0.35" height="12.4"/><rect class="cls-1" x="60.29" y="63.71" width="0.35" height="12.4"/><rect class="cls-1" x="60.64" y="63.71" width="0.35" height="12.4"/><rect class="cls-1" x="61" y="63.71" width="0.35" height="12.4"/><rect class="cls-1" x="61.35" y="63.71" width="0.35" height="12.4"/><rect class="cls-1" x="61.7" y="63.71" width="0.35" height="12.4"/><rect class="cls-1" x="62.06" y="63.71" width="0.35" height="12.4"/><rect class="cls-1" x="62.41" y="63.71" width="0.35" height="12.4"/><rect class="cls-1" x="62.77" y="63.71" width="0.35" height="12.4"/><rect class="cls-1" x="63.12" y="63.71" width="0.35" height="12.4"/><rect class="cls-1" x="26.94" y="54.3" width="0.44" height="45.41"/><rect class="cls-1" x="27.38" y="54.3" width="0.35" height="45.41"/><rect class="cls-1" x="27.74" y="54.3" width="0.35" height="45.41"/><rect class="cls-1" x="28.09" y="54.3" width="0.35" height="45.41"/><rect class="cls-1" x="28.44" y="54.3" width="0.35" height="45.41"/><rect class="cls-1" x="28.8" y="54.3" width="0.35" height="45.41"/><rect class="cls-1" x="29.15" y="54.3" width="0.35" height="45.41"/><rect class="cls-1" x="29.51" y="54.3" width="0.35" height="45.41"/><rect class="cls-1" x="29.86" y="54.3" width="0.35" height="45.41"/><rect class="cls-1" x="30.21" y="54.3" width="0.35" height="45.41"/><rect class="cls-1" x="30.57" y="54.3" width="0.35" height="45.41"/><rect class="cls-1" x="30.92" y="54.3" width="0.35" height="45.41"/><rect class="cls-1" x="31.28" y="54.3" width="0.35" height="45.41"/><rect class="cls-1" x="31.63" y="54.3" width="0.35" height="45.41"/><rect class="cls-1" x="31.98" y="54.3" width="0.35" height="45.41"/><rect class="cls-1" x="32.34" y="54.3" width="0.35" height="45.41"/><rect class="cls-1" x="32.69" y="54.3" width="0.35" height="45.41"/><rect class="cls-1" x="33.04" y="54.3" width="0.35" height="45.41"/><rect class="cls-1" x="33.4" y="54.3" width="0.35" height="45.41"/><rect class="cls-1" x="33.75" y="54.3" width="0.35" height="45.41"/><rect class="cls-1" x="34.11" y="54.3" width="0.35" height="45.41"/><rect class="cls-1" x="34.46" y="54.3" width="0.35" height="45.41"/><rect class="cls-1" x="34.81" y="54.3" width="0.35" height="45.41"/><rect class="cls-1" x="35.17" y="54.3" width="0.35" height="45.41"/><rect class="cls-1" x="35.52" y="54.3" width="0.35" height="45.41"/><rect class="cls-1" x="35.87" y="54.3" width="0.35" height="45.41"/><rect class="cls-1" x="36.23" y="54.3" width="0.35" height="45.41"/><rect class="cls-1" x="36.58" y="54.3" width="0.35" height="45.41"/><rect class="cls-1" x="36.94" y="54.3" width="0.35" height="45.41"/><rect class="cls-1" x="37.29" y="54.3" width="0.35" height="45.41"/><rect class="cls-1" x="37.64" y="54.3" width="0.35" height="45.41"/><rect class="cls-1" x="38" y="54.3" width="0.35" height="45.41"/><rect class="cls-1" x="38.35" y="54.3" width="0.35" height="45.41"/><rect class="cls-1" x="38.71" y="54.3" width="0.35" height="45.41"/><rect class="cls-1" x="39.06" y="54.3" width="0.35" height="45.41"/><rect class="cls-1" x="39.41" y="54.3" width="0.35" height="45.41"/><rect class="cls-1" x="39.77" y="54.3" width="0.35" height="45.41"/><rect class="cls-1" x="40.12" y="54.3" width="0.35" height="45.41"/><rect class="cls-1" x="40.47" y="54.3" width="0.35" height="45.41"/><rect class="cls-1" x="40.83" y="54.3" width="0.35" height="45.41"/><rect class="cls-1" x="41.18" y="54.3" width="0.35" height="45.41"/><rect class="cls-1" x="41.54" y="54.3" width="0.35" height="45.41"/><rect class="cls-1" x="41.89" y="54.3" width="0.35" height="45.41"/><rect class="cls-1" x="42.24" y="54.3" width="0.35" height="45.41"/><rect class="cls-1" x="42.6" y="54.3" width="0.35" height="45.41"/><rect class="cls-1" x="42.95" y="54.3" width="0.35" height="45.41"/><rect class="cls-1" x="43.31" y="54.3" width="0.35" height="45.41"/><rect class="cls-1" x="43.66" y="54.3" width="0.35" height="45.41"/><rect class="cls-1" x="44.01" y="54.3" width="0.35" height="45.41"/><rect class="cls-1" x="44.37" y="54.3" width="0.35" height="45.41"/><rect class="cls-1" x="44.72" y="54.3" width="0.35" height="45.41"/><rect class="cls-1" x="45.07" y="54.3" width="0.35" height="45.41"/><rect class="cls-1" x="45.43" y="54.3" width="0.35" height="45.41"/><rect class="cls-1" x="45.78" y="54.3" width="0.35" height="45.41"/><rect class="cls-1" x="46.14" y="54.3" width="0.35" height="45.41"/><rect class="cls-1" x="46.49" y="54.3" width="0.35" height="45.41"/><rect class="cls-1" x="46.84" y="54.3" width="0.35" height="45.41"/><rect class="cls-1" x="47.2" y="54.3" width="0.35" height="45.41"/><rect class="cls-1" x="47.55" y="54.3" width="0.35" height="45.41"/><rect class="cls-1" x="47.91" y="54.3" width="0.35" height="45.41"/><rect class="cls-1" x="48.26" y="54.3" width="0.35" height="45.41"/><rect class="cls-1" x="48.61" y="54.3" width="0.35" height="45.41"/><rect class="cls-1" x="48.97" y="54.3" width="0.35" height="45.41"/><rect class="cls-1" x="49.32" y="54.3" width="0.35" height="45.41"/><rect class="cls-1" x="49.67" y="54.3" width="0.35" height="45.41"/><rect class="cls-1" x="50.03" y="54.3" width="0.35" height="45.41"/><rect class="cls-1" x="50.38" y="54.3" width="0.35" height="45.41"/><rect class="cls-1" x="50.74" y="54.3" width="0.35" height="45.41"/><rect class="cls-1" x="51.09" y="54.3" width="0.35" height="45.41"/><rect class="cls-1" x="51.44" y="54.3" width="0.35" height="45.41"/><rect class="cls-1" x="51.8" y="54.3" width="0.35" height="45.41"/><rect class="cls-1" x="52.15" y="54.3" width="0.35" height="45.41"/><rect class="cls-1" x="52.5" y="54.3" width="0.35" height="45.41"/><rect class="cls-1" x="52.86" y="54.3" width="0.35" height="45.41"/><rect class="cls-1" x="53.21" y="54.3" width="0.35" height="45.41"/><rect class="cls-1" x="53.57" y="54.3" width="0.35" height="45.41"/><rect class="cls-1" x="53.92" y="54.3" width="0.35" height="45.41"/><rect class="cls-1" x="54.27" y="54.3" width="0.35" height="45.41"/><rect class="cls-1" x="54.63" y="54.3" width="0.35" height="45.41"/><rect class="cls-1" x="54.98" y="54.3" width="0.35" height="45.41"/><rect class="cls-1" x="55.34" y="54.3" width="0.35" height="45.41"/><rect class="cls-1" x="55.69" y="54.3" width="0.35" height="45.41"/><rect class="cls-1" x="56.04" y="54.3" width="0.35" height="45.41"/><rect class="cls-1" x="56.4" y="54.3" width="0.35" height="45.41"/><rect class="cls-1" x="56.75" y="54.3" width="0.35" height="45.41"/><rect class="cls-1" x="57.1" y="54.3" width="0.35" height="45.41"/><rect class="cls-1" x="57.46" y="54.3" width="0.35" height="45.41"/><rect class="cls-1" x="57.81" y="54.3" width="0.35" height="45.41"/><rect class="cls-1" x="58.17" y="54.3" width="0.35" height="45.41"/><rect class="cls-1" x="58.52" y="54.3" width="0.35" height="45.41"/><rect class="cls-1" x="58.87" y="54.3" width="0.35" height="45.41"/><rect class="cls-1" x="59.23" y="54.3" width="0.35" height="45.41"/><rect class="cls-1" x="59.58" y="54.3" width="0.35" height="45.41"/><rect class="cls-1" x="59.94" y="54.3" width="0.35" height="45.41"/><rect class="cls-1" x="60.29" y="54.3" width="0.35" height="45.41"/><rect class="cls-1" x="60.64" y="54.3" width="0.35" height="45.41"/><rect class="cls-1" x="61" y="54.3" width="0.35" height="45.41"/><rect class="cls-1" x="61.35" y="54.3" width="0.35" height="45.41"/><rect class="cls-1" x="61.7" y="54.3" width="0.35" height="45.41"/><rect class="cls-1" x="62.06" y="54.3" width="0.35" height="45.41"/><rect class="cls-1" x="62.41" y="54.3" width="0.35" height="45.41"/><rect class="cls-1" x="62.77" y="54.3" width="0.35" height="45.41"/><rect class="cls-1" x="63.12" y="54.3" width="0.35" height="45.41"/><rect class="cls-1" x="63.47" y="54.3" width="0.35" height="45.41"/><rect class="cls-1" x="63.83" y="54.3" width="0.35" height="45.41"/><rect class="cls-1" x="64.18" y="54.3" width="0.35" height="45.41"/><rect class="cls-1" x="64.54" y="54.3" width="0.35" height="45.41"/><rect class="cls-1" x="64.89" y="54.3" width="0.35" height="45.41"/><rect class="cls-1" x="65.24" y="54.3" width="0.35" height="45.41"/><rect class="cls-1" x="65.6" y="54.3" width="0.35" height="45.41"/><rect class="cls-1" x="65.95" y="54.3" width="0.35" height="45.41"/><rect class="cls-1" x="66.3" y="54.3" width="0.35" height="45.41"/><rect class="cls-1" x="66.66" y="54.3" width="0.35" height="45.41"/><rect class="cls-1" x="67.01" y="54.3" width="0.35" height="45.41"/><rect class="cls-1" x="67.37" y="54.3" width="0.35" height="45.41"/><rect class="cls-1" x="67.72" y="54.3" width="0.35" height="45.41"/><rect class="cls-1" x="68.07" y="54.3" width="0.35" height="45.41"/><rect class="cls-1" x="68.43" y="54.3" width="0.35" height="45.41"/><rect class="cls-1" x="68.78" y="54.3" width="0.35" height="45.41"/><rect class="cls-1" x="69.14" y="54.3" width="0.35" height="45.41"/><rect class="cls-1" x="69.49" y="54.3" width="0.35" height="45.41"/><rect class="cls-1" x="69.84" y="54.3" width="0.35" height="45.41"/><rect class="cls-1" x="70.2" y="54.3" width="0.35" height="45.41"/><rect class="cls-1" x="70.55" y="54.3" width="0.35" height="45.41"/><rect class="cls-1" x="70.9" y="54.3" width="0.35" height="45.41"/><rect class="cls-1" x="71.26" y="54.3" width="0.35" height="45.41"/><rect class="cls-1" x="71.61" y="54.3" width="0.35" height="45.41"/><rect class="cls-1" x="71.97" y="54.3" width="0.35" height="45.41"/><rect class="cls-1" x="72.32" y="54.3" width="0.35" height="45.41"/><path class="cls-1" d="M122.67,149.85v0Z" transform="translate(-50 -50.15)"/></g></svg>