<svg id="Layer_1" data-name="Layer 1" xmlns="http://www.w3.org/2000/svg" viewBox="0 0 100 98.76"><defs><style>.cls-1{fill:#ffd900;}.cls-2{fill:#35a8e0;}.cls-3{fill:#bd1622;}</style></defs><title>Visitor_info</title><path class="cls-1" d="M131.1,88.44a13,13,0,1,1,13-13A13,13,0,0,1,131.1,88.44Zm0-21a8.1,8.1,0,1,0,8.1,8.09A8.1,8.1,0,0,0,131.1,67.4Z" transform="translate(-50 -50.62)"/><path class="cls-1" d="M138.67,136.75H124.39a11.35,11.35,0,0,1-11.33-11.33V104a16.76,16.76,0,0,1,16.73-16.73h3.48A16.76,16.76,0,0,1,150,104v21.42A11.35,11.35,0,0,1,138.67,136.75Zm-8.88-44.62A11.88,11.88,0,0,0,117.92,104v21.42a6.48,6.48,0,0,0,6.47,6.47h14.28a6.48,6.48,0,0,0,6.47-6.47V104a11.88,11.88,0,0,0-11.87-11.87Z" transform="translate(-50 -50.62)"/><path class="cls-2" d="M104.56,85.68a14.56,14.56,0,1,1,14.56-14.56A14.57,14.57,0,0,1,104.56,85.68Zm0-24.26a9.7,9.7,0,1,0,9.7,9.7A9.71,9.71,0,0,0,104.56,61.42Z" transform="translate(-50 -50.62)"/><path class="cls-2" d="M113.46,142.73H96.67a12.92,12.92,0,0,1-12.9-12.9V104.65A19.27,19.27,0,0,1,103,85.4h4.09a19.27,19.27,0,0,1,19.25,19.25v25.18A12.92,12.92,0,0,1,113.46,142.73ZM103,90.25a14.41,14.41,0,0,0-14.39,14.4v25.18a8.05,8.05,0,0,0,8,8h16.79a8.05,8.05,0,0,0,8-8V104.65a14.41,14.41,0,0,0-14.39-14.4Z" transform="translate(-50 -50.62)"/><path class="cls-3" d="M73.85,83.31A16.35,16.35,0,1,1,90.2,67,16.37,16.37,0,0,1,73.85,83.31Zm0-27.83A11.49,11.49,0,1,0,85.34,67,11.5,11.5,0,0,0,73.85,55.48Z" transform="translate(-50 -50.62)"/><path class="cls-3" d="M84.23,149.38H64.64A14.66,14.66,0,0,1,50,134.74V105.36a22.08,22.08,0,0,1,22-22h4.77a22.08,22.08,0,0,1,22.05,22v29.38A14.66,14.66,0,0,1,84.23,149.38ZM72.05,88.17a17.21,17.21,0,0,0-17.19,17.19v29.38a9.79,9.79,0,0,0,9.78,9.78H84.23A9.79,9.79,0,0,0,94,134.74V105.36A17.21,17.21,0,0,0,76.82,88.17Z" transform="translate(-50 -50.62)"/></svg>