<svg id="Layer_1" data-name="Layer 1" xmlns="http://www.w3.org/2000/svg" viewBox="0 0 100 104.8"><defs><style>.cls-1{fill:#0c6393;}</style></defs><title>WareHouse</title><path class="cls-1" d="M150,152.4H50V86.21L99.87,47.6l50.13,34Zm-93.29-6.71h86.58V85.12L100.13,55.89,56.71,89.5Z" transform="translate(-50 -47.6)"/><path class="cls-1" d="M133,107.09H106V86.42H133Zm-20.24-6.71h13.53V93.13H112.71Z" transform="translate(-50 -47.6)"/><path class="cls-1" d="M93.24,107.09H66.29V86.42H93.24ZM73,100.38H86.52V93.13H73Z" transform="translate(-50 -47.6)"/><path class="cls-1" d="M93.24,135.57H66.29V114.9H93.24ZM73,128.86H86.52v-7.25H73Z" transform="translate(-50 -47.6)"/><path class="cls-1" d="M133,136.41H106V115.74H133Zm-20.24-6.71h13.53v-7.25H112.71Z" transform="translate(-50 -47.6)"/></svg>